<?xml version="1.0" encoding="UTF-8" standalone="no"?>
<svg width="68px" height="80px" viewBox="0 0 68 101" version="1.1" xmlns="http://www.w3.org/2000/svg" xmlns:xlink="http://www.w3.org/1999/xlink">
    <!-- Generator: Sketch 48.2 (47327) - http://www.bohemiancoding.com/sketch -->
    <title>25Years</title>
    <desc>Created with Sketch.</desc>
    <defs></defs>
    <g id="Page2-Copy-2" stroke="none" stroke-width="1" fill="none" fill-rule="evenodd" transform="translate(-261.000000, -159.000000)">
        <g id="25Years" transform="translate(261.000000, 159.000000)">
            <path d="M8.168,69.304 C8.701336,69.304 9.18933112,69.3826659 9.632,69.54 C10.0746689,69.6973341 10.4533318,69.9199986 10.768,70.208 C11.0826682,70.4960014 11.3279991,70.8426646 11.504,71.248 C11.6800009,71.6533354 11.768,72.1039975 11.768,72.6 C11.768,73.0266688 11.705334,73.4213315 11.58,73.784 C11.454666,74.1466685 11.2866677,74.4933317 11.076,74.824 C10.8653323,75.1546683 10.6186681,75.4746651 10.336,75.784 C10.0533319,76.0933349 9.75733488,76.4079984 9.448,76.728 L6.84,79.392 C7.09600128,79.317333 7.34666544,79.2600002 7.592,79.22 C7.83733456,79.1799998 8.07199888,79.16 8.296,79.16 L11.264,79.16 C11.4773344,79.16 11.646666,79.2199994 11.772,79.34 C11.897334,79.4600006 11.96,79.6186657 11.96,79.816 L11.96,81 L4.024,81 L4.024,80.344 C4.024,80.210666 4.05199972,80.0720007 4.108,79.928 C4.16400028,79.7839993 4.25333272,79.6506673 4.376,79.528 L7.888,76.008 C8.1813348,75.7093318 8.44399884,75.4240014 8.676,75.152 C8.90800116,74.8799986 9.10266588,74.610668 9.26,74.344 C9.41733412,74.077332 9.53733292,73.806668 9.62,73.532 C9.70266708,73.257332 9.744,72.9680015 9.744,72.664 C9.744,72.3866653 9.7040004,72.1426677 9.624,71.932 C9.5439996,71.7213323 9.42933408,71.5440007 9.28,71.4 C9.13066592,71.2559993 8.95333436,71.1480004 8.748,71.076 C8.54266564,71.0039996 8.31200128,70.968 8.056,70.968 C7.58133096,70.968 7.1906682,71.0879988 6.884,71.328 C6.5773318,71.5680012 6.36266728,71.8906646 6.24,72.296 C6.18133304,72.4986677 6.09333392,72.6439996 5.976,72.732 C5.85866608,72.8200004 5.70933424,72.864 5.528,72.864 C5.4479996,72.864 5.36000048,72.8560001 5.264,72.84 L4.224,72.656 C4.3040004,72.1013306 4.45866552,71.6146688 4.688,71.196 C4.91733448,70.7773312 5.20399828,70.4280014 5.548,70.148 C5.89200172,69.8679986 6.28666444,69.657334 6.732,69.516 C7.17733556,69.374666 7.65599744,69.304 8.168,69.304 Z M20.544,70.272 C20.544,70.5546681 20.4546676,70.7839991 20.276,70.96 C20.0973324,71.1360009 19.8000021,71.224 19.384,71.224 L16.2,71.224 L15.784,73.64 C16.3066693,73.5333328 16.7839978,73.48 17.216,73.48 C17.824003,73.48 18.3586644,73.5706658 18.82,73.752 C19.2813356,73.9333342 19.6693318,74.1839984 19.984,74.504 C20.2986682,74.8240016 20.5359992,75.1986645 20.696,75.628 C20.8560008,76.0573355 20.936,76.5199975 20.936,77.016 C20.936,77.6293364 20.8280011,78.1893308 20.612,78.696 C20.3959989,79.2026692 20.0960019,79.6359982 19.712,79.996 C19.3279981,80.3560018 18.873336,80.6346657 18.348,80.832 C17.822664,81.0293343 17.2506698,81.128 16.632,81.128 C16.2693315,81.128 15.925335,81.090667 15.6,81.016 C15.274665,80.941333 14.9693348,80.841334 14.684,80.716 C14.3986652,80.590666 14.1346679,80.4466675 13.892,80.284 C13.6493321,80.1213325 13.432001,79.9493342 13.24,79.768 L13.848,78.928 C13.9760006,78.7466658 14.1466656,78.656 14.36,78.656 C14.493334,78.656 14.6279993,78.6986662 14.764,78.784 C14.9000007,78.8693338 15.0586658,78.9626662 15.24,79.064 C15.4213342,79.1653338 15.6319988,79.2586662 15.872,79.344 C16.1120012,79.4293338 16.402665,79.472 16.744,79.472 C17.1066685,79.472 17.4266653,79.4133339 17.704,79.296 C17.9813347,79.1786661 18.2119991,79.0146677 18.396,78.804 C18.5800009,78.5933323 18.7186662,78.3426681 18.812,78.052 C18.9053338,77.7613319 18.952,77.445335 18.952,77.104 C18.952,76.4746635 18.7693352,75.9826684 18.404,75.628 C18.0386648,75.2733316 17.5013369,75.096 16.792,75.096 C16.2319972,75.096 15.6693362,75.1973323 15.104,75.4 L13.872,75.048 L14.832,69.432 L20.544,69.432 L20.544,70.272 Z M31.312,76.504 L31.312,81 L29.16,81 L29.16,76.504 L24.944,69.432 L26.84,69.432 C27.0266676,69.432 27.1746661,69.4773329 27.284,69.568 C27.3933339,69.6586671 27.485333,69.7733326 27.56,69.912 L29.68,73.776 C29.8026673,74.0053345 29.9093329,74.2226656 30,74.428 C30.0906671,74.6333344 30.173333,74.8346657 30.248,75.032 C30.3173337,74.8293323 30.3959996,74.6253344 30.484,74.42 C30.5720004,74.2146656 30.6773327,74.0000011 30.8,73.776 L32.904,69.912 C32.962667,69.7946661 33.0506661,69.6853338 33.168,69.584 C33.2853339,69.4826662 33.4346658,69.432 33.616,69.432 L35.52,69.432 L31.312,76.504 Z M38.64,72.664 C39.1573359,72.664 39.6333312,72.7466658 40.068,72.912 C40.5026688,73.0773342 40.8773318,73.3186651 41.192,73.636 C41.5066682,73.9533349 41.7519991,74.3426644 41.928,74.804 C42.1040009,75.2653356 42.192,75.791997 42.192,76.384 C42.192,76.5333341 42.1853334,76.6573328 42.172,76.756 C42.1586666,76.8546672 42.1346668,76.9319997 42.1,76.988 C42.0653332,77.0440003 42.018667,77.0839999 41.96,77.108 C41.901333,77.1320001 41.8266671,77.144 41.736,77.144 L36.664,77.144 C36.722667,77.9866709 36.9493314,78.6053314 37.344,79 C37.7386686,79.3946686 38.2613301,79.592 38.912,79.592 C39.2320016,79.592 39.5079988,79.554667 39.74,79.48 C39.9720012,79.405333 40.1746658,79.3226671 40.348,79.232 C40.5213342,79.1413329 40.6733327,79.058667 40.804,78.984 C40.9346673,78.909333 41.0613327,78.872 41.184,78.872 C41.2640004,78.872 41.333333,78.8879998 41.392,78.92 C41.450667,78.9520002 41.5013331,78.997333 41.544,79.056 L42.12,79.776 C41.9013322,80.0320013 41.6560014,80.2466658 41.384,80.42 C41.1119986,80.5933342 40.8280015,80.7319995 40.532,80.836 C40.2359985,80.9400005 39.9346682,81.0133331 39.628,81.056 C39.3213318,81.0986669 39.0240014,81.12 38.736,81.12 C38.1653305,81.12 37.6346691,81.0253343 37.144,80.836 C36.6533309,80.6466657 36.2266685,80.3666685 35.864,79.996 C35.5013315,79.6253315 35.216001,79.1666694 35.008,78.62 C34.799999,78.0733306 34.696,77.4400036 34.696,76.72 C34.696,76.1599972 34.7866658,75.6333358 34.968,75.14 C35.1493342,74.6466642 35.4093316,74.2173352 35.748,73.852 C36.0866684,73.4866648 36.4999976,73.1973344 36.988,72.984 C37.4760024,72.7706656 38.0266636,72.664 38.64,72.664 Z M38.68,74.08 C38.1039971,74.08 37.653335,74.242665 37.328,74.568 C37.002665,74.893335 36.7946671,75.3546637 36.704,75.952 L40.416,75.952 C40.416,75.6959987 40.3813337,75.4546678 40.312,75.228 C40.2426663,75.0013322 40.1360007,74.8026675 39.992,74.632 C39.8479993,74.4613325 39.6666678,74.3266672 39.448,74.228 C39.2293322,74.1293328 38.9733348,74.08 38.68,74.08 Z M50.232,81 L49.344,81 C49.1573324,81 49.0106672,80.9720003 48.904,80.916 C48.7973328,80.8599997 48.7173336,80.7466675 48.664,80.576 L48.488,79.992 C48.279999,80.1786676 48.076001,80.342666 47.876,80.484 C47.675999,80.625334 47.4693344,80.7439995 47.256,80.84 C47.0426656,80.9360005 46.8160012,81.0079998 46.576,81.056 C46.3359988,81.1040002 46.0693348,81.128 45.776,81.128 C45.4293316,81.128 45.1093348,81.0813338 44.816,80.988 C44.5226652,80.8946662 44.2706677,80.7546676 44.06,80.568 C43.8493323,80.3813324 43.6853339,80.1493347 43.568,79.872 C43.4506661,79.5946653 43.392,79.2720018 43.392,78.904 C43.392,78.5946651 43.4733325,78.2893348 43.636,77.988 C43.7986675,77.6866652 44.0693314,77.4146679 44.448,77.172 C44.8266686,76.9293321 45.3306635,76.7280008 45.96,76.568 C46.5893365,76.4079992 47.370662,76.3173334 48.304,76.296 L48.304,75.816 C48.304,75.2666639 48.1880012,74.8600013 47.956,74.596 C47.7239988,74.3319987 47.3866689,74.2 46.944,74.2 C46.6239984,74.2 46.3573344,74.237333 46.144,74.312 C45.9306656,74.386667 45.7453341,74.4706662 45.588,74.564 C45.4306659,74.6573338 45.285334,74.741333 45.152,74.816 C45.018666,74.890667 44.8720008,74.928 44.712,74.928 C44.578666,74.928 44.4640005,74.8933337 44.368,74.824 C44.2719995,74.7546663 44.194667,74.6693338 44.136,74.568 L43.776,73.936 C44.7200047,73.0719957 45.85866,72.64 47.192,72.64 C47.6720024,72.64 48.0999981,72.7186659 48.476,72.876 C48.8520019,73.0333341 49.1706654,73.2519986 49.432,73.532 C49.6933346,73.8120014 49.8919993,74.1466647 50.028,74.536 C50.1640007,74.9253353 50.232,75.3519977 50.232,75.816 L50.232,81 Z M46.392,79.768 C46.5946677,79.768 46.7813325,79.7493335 46.952,79.712 C47.1226675,79.6746665 47.2839992,79.618667 47.436,79.544 C47.5880008,79.469333 47.734666,79.3773339 47.876,79.268 C48.017334,79.1586661 48.1599993,79.0293341 48.304,78.88 L48.304,77.496 C47.7279971,77.5226668 47.2466686,77.5719996 46.86,77.644 C46.4733314,77.7160004 46.1626678,77.8079994 45.928,77.92 C45.6933322,78.0320006 45.5266672,78.1626659 45.428,78.312 C45.3293328,78.4613341 45.28,78.6239991 45.28,78.8 C45.28,79.1466684 45.3826656,79.3946659 45.588,79.544 C45.7933344,79.6933341 46.0613317,79.768 46.392,79.768 Z M52.176,81 L52.176,72.792 L53.336,72.792 C53.5386677,72.792 53.6799996,72.829333 53.76,72.904 C53.8400004,72.978667 53.8933332,73.1066658 53.92,73.288 L54.04,74.28 C54.3333348,73.7733308 54.6773314,73.3733348 55.072,73.08 C55.4666686,72.7866652 55.9093309,72.64 56.4,72.64 C56.8053354,72.64 57.141332,72.7333324 57.408,72.92 L57.152,74.4 C57.1359999,74.4960005 57.1013336,74.5639998 57.048,74.604 C56.9946664,74.6440002 56.9226671,74.664 56.832,74.664 C56.7519996,74.664 56.6426674,74.6453335 56.504,74.608 C56.3653326,74.5706665 56.1813345,74.552 55.952,74.552 C55.5413313,74.552 55.1893348,74.6653322 54.896,74.892 C54.6026652,75.1186678 54.3546677,75.4506645 54.152,75.888 L54.152,81 L52.176,81 Z M63.584,74.392 C63.5306664,74.4773338 63.474667,74.5373332 63.416,74.572 C63.357333,74.6066668 63.2826671,74.624 63.192,74.624 C63.0959995,74.624 62.9933339,74.5973336 62.884,74.544 C62.7746661,74.4906664 62.6480007,74.430667 62.504,74.364 C62.3599993,74.297333 62.1960009,74.2373336 62.012,74.184 C61.8279991,74.1306664 61.6106679,74.104 61.36,74.104 C60.9706647,74.104 60.6640011,74.1866658 60.44,74.352 C60.2159989,74.5173342 60.104,74.733332 60.104,75 C60.104,75.1760009 60.1613328,75.3239994 60.276,75.444 C60.3906672,75.5640006 60.5426657,75.6693329 60.732,75.76 C60.9213343,75.8506671 61.1359988,75.9319996 61.376,76.004 C61.6160012,76.0760004 61.8613321,76.1546662 62.112,76.24 C62.3626679,76.3253338 62.6079988,76.4226661 62.848,76.532 C63.0880012,76.6413339 63.3026657,76.7799992 63.492,76.948 C63.6813343,77.1160008 63.8333328,77.3173322 63.948,77.552 C64.0626672,77.7866678 64.12,78.0693317 64.12,78.4 C64.12,78.7946686 64.0480007,79.158665 63.904,79.492 C63.7599993,79.825335 63.5493347,80.1133321 63.272,80.356 C62.9946653,80.5986679 62.652002,80.7879993 62.244,80.924 C61.835998,81.0600007 61.3680026,81.128 60.84,81.128 C60.5573319,81.128 60.2813347,81.1026669 60.012,81.052 C59.7426653,81.0013331 59.4840012,80.9306671 59.236,80.84 C58.9879988,80.7493329 58.7586677,80.6426673 58.548,80.52 C58.3373323,80.3973327 58.1520008,80.2640007 57.992,80.12 L58.448,79.368 C58.506667,79.2773329 58.5759996,79.2080002 58.656,79.16 C58.7360004,79.1119998 58.8373327,79.088 58.96,79.088 C59.0826673,79.088 59.1986661,79.1226663 59.308,79.192 C59.4173339,79.2613337 59.5439993,79.3359996 59.688,79.416 C59.8320007,79.4960004 60.0013324,79.5706663 60.196,79.64 C60.3906676,79.7093337 60.6373318,79.744 60.936,79.744 C61.1706678,79.744 61.3719992,79.7160003 61.54,79.66 C61.7080008,79.6039997 61.8466661,79.5306671 61.956,79.44 C62.0653339,79.3493329 62.1453331,79.2440006 62.196,79.124 C62.2466669,79.0039994 62.272,78.8800006 62.272,78.752 C62.272,78.559999 62.2146672,78.4026673 62.1,78.28 C61.9853328,78.1573327 61.8333343,78.0506671 61.644,77.96 C61.4546657,77.8693329 61.2386679,77.7880004 60.996,77.716 C60.7533321,77.6439996 60.5053346,77.5653338 60.252,77.48 C59.9986654,77.3946662 59.7506679,77.2946672 59.508,77.18 C59.2653321,77.0653328 59.0493343,76.9200009 58.86,76.744 C58.6706657,76.5679991 58.5186672,76.3520013 58.404,76.096 C58.2893328,75.8399987 58.232,75.5306685 58.232,75.168 C58.232,74.8319983 58.298666,74.5120015 58.432,74.208 C58.565334,73.9039985 58.761332,73.6386678 59.02,73.412 C59.278668,73.1853322 59.6013314,73.0040007 59.988,72.868 C60.3746686,72.7319993 60.8213308,72.664 61.328,72.664 C61.8933362,72.664 62.4079977,72.7573324 62.872,72.944 C63.3360023,73.1306676 63.7226651,73.3759985 64.032,73.68 L63.584,74.392 Z M12.524,94.216 C12.524,95.0640042 12.3826681,95.8493297 12.1,96.572 C11.8173319,97.2946703 11.4200026,97.9199974 10.908,98.448 C10.3959974,98.9760026 9.7800036,99.3879985 9.06,99.684 C8.3399964,99.9800015 7.54267104,100.128 6.668,100.128 C5.79332896,100.128 4.99467028,99.9800015 4.272,99.684 C3.54932972,99.3879985 2.93066924,98.9760026 2.416,98.448 C1.90133076,97.9199974 1.50266808,97.2946703 1.22,96.572 C0.93733192,95.8493297 0.796,95.0640042 0.796,94.216 C0.796,93.3679958 0.93733192,92.5826703 1.22,91.86 C1.50266808,91.1373297 1.90133076,90.5120026 2.416,89.984 C2.93066924,89.4559974 3.54932972,89.0440015 4.272,88.748 C4.99467028,88.4519985 5.79332896,88.304 6.668,88.304 C7.54267104,88.304 8.3399964,88.4533318 9.06,88.752 C9.7800036,89.0506682 10.3959974,89.462664 10.908,89.988 C11.4200026,90.513336 11.8173319,91.1373297 12.1,91.86 C12.3826681,92.5826703 12.524,93.3679958 12.524,94.216 Z M10.316,94.216 C10.316,93.5813302 10.2320008,93.0120025 10.064,92.508 C9.89599916,92.0039975 9.65466824,91.5760018 9.34,91.224 C9.02533176,90.8719982 8.64266892,90.6026676 8.192,90.416 C7.74133108,90.2293324 7.23333616,90.136 6.668,90.136 C6.10266384,90.136 5.5933356,90.2293324 5.14,90.416 C4.6866644,90.6026676 4.30133492,90.8719982 3.984,91.224 C3.66666508,91.5760018 3.42266752,92.0039975 3.252,92.508 C3.08133248,93.0120025 2.996,93.5813302 2.996,94.216 C2.996,94.8506698 3.08133248,95.4199975 3.252,95.924 C3.42266752,96.4280025 3.66666508,96.8546649 3.984,97.204 C4.30133492,97.5533351 4.6866644,97.8213324 5.14,98.008 C5.5933356,98.1946676 6.10266384,98.288 6.668,98.288 C7.23333616,98.288 7.74133108,98.1946676 8.192,98.008 C8.64266892,97.8213324 9.02533176,97.5533351 9.34,97.204 C9.65466824,96.8546649 9.89599916,96.4280025 10.064,95.924 C10.2320008,95.4199975 10.316,94.8506698 10.316,94.216 Z M14.108,100 L14.108,91.792 L15.268,91.792 C15.4706677,91.792 15.6119996,91.829333 15.692,91.904 C15.7720004,91.978667 15.8253332,92.1066658 15.852,92.288 L15.972,93.28 C16.2653348,92.7733308 16.6093314,92.3733348 17.004,92.08 C17.3986686,91.7866652 17.8413309,91.64 18.332,91.64 C18.7373354,91.64 19.073332,91.7333324 19.34,91.92 L19.084,93.4 C19.0679999,93.4960005 19.0333336,93.5639998 18.98,93.604 C18.9266664,93.6440002 18.8546671,93.664 18.764,93.664 C18.6839996,93.664 18.5746674,93.6453335 18.436,93.608 C18.2973326,93.5706665 18.1133345,93.552 17.884,93.552 C17.4733313,93.552 17.1213348,93.6653322 16.828,93.892 C16.5346652,94.1186678 16.2866677,94.4506645 16.084,94.888 L16.084,100 L14.108,100 Z M23.844,100 L23.844,88.432 L27.836,88.432 C28.5933371,88.432 29.2399973,88.5039993 29.776,88.648 C30.3120027,88.7920007 30.7519983,88.997332 31.096,89.264 C31.4400017,89.530668 31.6919992,89.8533314 31.852,90.232 C32.0120008,90.6106686 32.092,91.037331 32.092,91.512 C32.092,91.7840014 32.0520004,92.0439988 31.972,92.292 C31.8919996,92.5400012 31.7680008,92.7719989 31.6,92.988 C31.4319992,93.2040011 31.218668,93.3999991 30.96,93.576 C30.701332,93.7520009 30.3933351,93.9013327 30.036,94.024 C31.6253413,94.3813351 32.42,95.2399932 32.42,96.6 C32.42,97.0906691 32.3266676,97.5439979 32.14,97.96 C31.9533324,98.3760021 31.6813351,98.7346652 31.324,99.036 C30.9666649,99.3373348 30.5266693,99.5733325 30.004,99.744 C29.4813307,99.9146675 28.8840034,100 28.212,100 L23.844,100 Z M25.996,94.928 L25.996,98.32 L28.18,98.32 C28.580002,98.32 28.9146653,98.2720005 29.184,98.176 C29.4533347,98.0799995 29.6693325,97.9520008 29.832,97.792 C29.9946675,97.6319992 30.1119996,97.4453344 30.184,97.232 C30.2560004,97.0186656 30.292,96.7920012 30.292,96.552 C30.292,96.3013321 30.2520004,96.076001 30.172,95.876 C30.0919996,95.675999 29.9666675,95.505334 29.796,95.364 C29.6253325,95.222666 29.406668,95.114667 29.14,95.04 C28.873332,94.965333 28.5506686,94.928 28.172,94.928 L25.996,94.928 Z M25.996,93.44 L27.716,93.44 C28.4466703,93.44 29.0013314,93.306668 29.38,93.04 C29.7586686,92.773332 29.948,92.3493362 29.948,91.768 C29.948,91.1653303 29.777335,90.7360013 29.436,90.48 C29.094665,90.2239987 28.561337,90.096 27.836,90.096 L25.996,90.096 L25.996,93.44 Z M37.548,91.664 C38.0653359,91.664 38.5413312,91.7466658 38.976,91.912 C39.4106688,92.0773342 39.7853318,92.3186651 40.1,92.636 C40.4146682,92.9533349 40.6599991,93.3426644 40.836,93.804 C41.0120009,94.2653356 41.1,94.791997 41.1,95.384 C41.1,95.5333341 41.0933334,95.6573328 41.08,95.756 C41.0666666,95.8546672 41.0426668,95.9319997 41.008,95.988 C40.9733332,96.0440003 40.926667,96.0839999 40.868,96.108 C40.809333,96.1320001 40.7346671,96.144 40.644,96.144 L35.572,96.144 C35.630667,96.9866709 35.8573314,97.6053314 36.252,98 C36.6466686,98.3946686 37.1693301,98.592 37.82,98.592 C38.1400016,98.592 38.4159988,98.554667 38.648,98.48 C38.8800012,98.405333 39.0826658,98.3226671 39.256,98.232 C39.4293342,98.1413329 39.5813327,98.058667 39.712,97.984 C39.8426673,97.909333 39.9693327,97.872 40.092,97.872 C40.1720004,97.872 40.241333,97.8879998 40.3,97.92 C40.358667,97.9520002 40.4093331,97.997333 40.452,98.056 L41.028,98.776 C40.8093322,99.0320013 40.5640014,99.2466658 40.292,99.42 C40.0199986,99.5933342 39.7360015,99.7319995 39.44,99.836 C39.1439985,99.9400005 38.8426682,100.013333 38.536,100.056 C38.2293318,100.098667 37.9320014,100.12 37.644,100.12 C37.0733305,100.12 36.5426691,100.025334 36.052,99.836 C35.5613309,99.6466657 35.1346685,99.3666685 34.772,98.996 C34.4093315,98.6253315 34.124001,98.1666694 33.916,97.62 C33.707999,97.0733306 33.604,96.4400036 33.604,95.72 C33.604,95.1599972 33.6946658,94.6333358 33.876,94.14 C34.0573342,93.6466642 34.3173316,93.2173352 34.656,92.852 C34.9946684,92.4866648 35.4079976,92.1973344 35.896,91.984 C36.3840024,91.7706656 36.9346636,91.664 37.548,91.664 Z M37.588,93.08 C37.0119971,93.08 36.561335,93.242665 36.236,93.568 C35.910665,93.893335 35.7026671,94.3546637 35.612,94.952 L39.324,94.952 C39.324,94.6959987 39.2893337,94.4546678 39.22,94.228 C39.1506663,94.0013322 39.0440007,93.8026675 38.9,93.632 C38.7559993,93.4613325 38.5746678,93.3266672 38.356,93.228 C38.1373322,93.1293328 37.8813348,93.08 37.588,93.08 Z M44.812,88.112 L44.812,100 L42.836,100 L42.836,88.112 L44.812,88.112 Z M50.548,91.664 C51.1613364,91.664 51.7173308,91.7626657 52.216,91.96 C52.7146692,92.1573343 53.1399982,92.4373315 53.492,92.8 C53.8440018,93.1626685 54.115999,93.6053307 54.308,94.128 C54.500001,94.6506693 54.596,95.2346634 54.596,95.88 C54.596,96.5306699 54.500001,97.1173307 54.308,97.64 C54.115999,98.1626693 53.8440018,98.6079982 53.492,98.976 C53.1399982,99.3440018 52.7146692,99.6266657 52.216,99.824 C51.7173308,100.021334 51.1613364,100.12 50.548,100.12 C49.9346636,100.12 49.3773358,100.021334 48.876,99.824 C48.3746642,99.6266657 47.9466684,99.3440018 47.592,98.976 C47.2373316,98.6079982 46.9626676,98.1626693 46.768,97.64 C46.5733324,97.1173307 46.476,96.5306699 46.476,95.88 C46.476,95.2346634 46.5733324,94.6506693 46.768,94.128 C46.9626676,93.6053307 47.2373316,93.1626685 47.592,92.8 C47.9466684,92.4373315 48.3746642,92.1573343 48.876,91.96 C49.3773358,91.7626657 49.9346636,91.664 50.548,91.664 Z M50.548,98.6 C51.2306701,98.6 51.7359984,98.370669 52.064,97.912 C52.3920016,97.453331 52.556,96.7813378 52.556,95.896 C52.556,95.0106622 52.3920016,94.3360023 52.064,93.872 C51.7359984,93.4079977 51.2306701,93.176 50.548,93.176 C49.8546632,93.176 49.3426683,93.409331 49.012,93.876 C48.6813317,94.342669 48.516,95.0159956 48.516,95.896 C48.516,96.7760044 48.6813317,97.4466644 49.012,97.908 C49.3426683,98.3693356 49.8546632,98.6 50.548,98.6 Z M55.14,91.792 L56.708,91.792 C56.8573341,91.792 56.9826662,91.8266663 57.084,91.896 C57.1853338,91.9653337 57.2493332,92.0533328 57.276,92.16 L58.452,96.544 C58.5160003,96.7840012 58.5679998,97.0186655 58.608,97.248 C58.6480002,97.4773345 58.6866665,97.7066655 58.724,97.936 C58.782667,97.7066655 58.845333,97.4773345 58.912,97.248 C58.978667,97.0186655 59.049333,96.7840012 59.124,96.544 L60.484,92.144 C60.5160002,92.0373328 60.5799995,91.9493337 60.676,91.88 C60.7720005,91.8106663 60.8839994,91.776 61.012,91.776 L61.884,91.776 C62.0280007,91.776 62.1479995,91.8106663 62.244,91.88 C62.3400005,91.9493337 62.4039998,92.0373328 62.436,92.144 L63.78,96.624 C63.8493337,96.8533345 63.9119997,97.0759989 63.968,97.292 C64.0240003,97.5080011 64.0786664,97.7253322 64.132,97.944 C64.1693335,97.7146655 64.2106664,97.4853345 64.256,97.256 C64.3013336,97.0266655 64.3586663,96.7893346 64.428,96.544 L65.644,92.16 C65.6706668,92.0533328 65.7346662,91.9653337 65.836,91.896 C65.9373338,91.8266663 66.054666,91.792 66.188,91.792 L67.684,91.792 L65.084,100 L63.492,100 C63.3213325,100 63.198667,99.8826678 63.124,99.648 L61.644,94.904 C61.5959998,94.7493326 61.5520002,94.5933341 61.512,94.436 C61.4719998,94.2786659 61.4386668,94.1226674 61.412,93.968 C61.3799998,94.1280008 61.3453335,94.2866659 61.308,94.444 C61.2706665,94.6013341 61.2280002,94.7599992 61.18,94.92 L59.684,99.648 C59.609333,99.8826678 59.4653344,100 59.252,100 L57.74,100 L55.14,91.792 Z" id="25-Years-Or-Below" fill="#333333"></path>
            <g id="Group" opacity="0.5" transform="translate(20.000000, 0.000000)" fill="#000000">
                <path d="M3.86701163,32.185593 C3.77701163,30.6419884 3.73015116,29.147686 3.72887209,27.7435 C3.73201163,22.896407 4.26387209,19.1997791 5.35561628,16.4417558 C6.21817442,14.2431512 7.55177907,12.6051279 9.11015116,11.8316395 C9.91282558,11.4278023 10.621314,11.3150116 11.0794535,11.2932674 C11.1531744,11.2862907 11.2278256,11.2823372 11.3039884,11.2823372 L12.478407,11.2823372 C12.4786395,11.2295465 12.4837558,11.1780349 12.486314,11.1259419 C10.8865465,10.7960581 8.25445349,10.3391977 7.23898837,10.6600116 C5.77166279,11.1233837 1.67898837,13.9035 0.17294186,22.1279186 C-0.614151163,26.4280349 1.40061628,30.0778023 3.86701163,32.185593" id="Fill-1"></path>
                <path d="M9.04983721,20.1728605 C8.65646512,21.8941395 8.3587907,24.3270465 8.3632093,27.7422791 C8.36251163,29.0434419 8.40669767,30.4544884 8.49355814,31.9377442 C8.53018605,32.5543721 8.32425581,33.1493721 7.91239535,33.6122791 C7.76146512,33.7820465 7.58890698,33.9261163 7.40123256,34.0429767 C7.91832558,34.143093 8.40437209,34.1490233 8.83483721,34.0528605 L9.04960465,30.7373953 L9.04960465,20.1728605 L9.04983721,20.1728605 Z" id="Fill-4"></path>
                <path d="M15.7792674,14.5943605 C14.1100814,14.5943605 12.733686,13.3541279 12.512407,11.7456395 L12.1276395,11.7456395 C12.1278721,11.7744767 12.1281047,11.801686 12.1283372,11.8352907 C12.1234535,13.0177326 11.953686,17.2173837 9.51322093,21.3650581 L9.51322093,28.0291279 C9.89240698,28.1048256 10.6088023,28.2422674 11.4834535,28.3799419 C12.7876395,28.585407 14.4376395,28.7897093 15.7790349,28.7892442 C17.1204302,28.7897093 18.7704302,28.585407 20.0746163,28.3799419 C20.9492674,28.2420349 21.6656628,28.1050581 22.0448488,28.0293605 L22.0448488,17.3462209 C22.1821744,17.6278488 22.3205465,17.9513372 22.4572907,18.3281977 C23.1101977,20.138314 23.6595,23.1078488 23.6572907,27.7428488 C23.6572907,29.020407 23.616593,30.4241279 23.5267093,31.9650581 C23.4667093,32.9869186 24.2469419,33.8636628 25.2692674,33.9231977 C25.3060116,33.9252907 25.3422907,33.9263372 25.3788023,33.9263372 C26.3531047,33.9263372 27.1699651,33.1659884 27.2271744,32.1807558 C27.3205465,30.574593 27.3641512,29.0994767 27.3641512,27.7428488 C27.3548488,20.750407 26.2378721,16.8805233 24.7151977,14.553314 C23.9543837,13.3979651 23.0638023,12.6575 22.2408953,12.2472674 C21.5138023,11.8805233 20.866593,11.7742442 20.4421744,11.7551744 C20.380314,11.7486628 20.3177558,11.7452907 20.2540349,11.7452907 L19.0456628,11.7452907 C18.8250814,13.3541279 17.4484535,14.5943605 15.7792674,14.5943605" id="Fill-6"></path>
                <path d="M15.7790349,29.7161977 C13.4790349,29.7138721 10.5593837,29.1689884 9.51322093,28.9577093 L9.51322093,30.749686 L8.14577907,51.8718953 C8.04322093,53.4507326 9.24054651,54.8129419 10.818686,54.9151512 C12.3972907,55.0173605 13.7597326,53.8214302 13.8621744,52.2421279 L15.050314,33.8958488 L16.5079884,33.8958488 L17.6961279,52.2421279 C17.7983372,53.8214302 19.1612442,55.0173605 20.7400814,54.9151512 C22.3179884,54.8131744 23.515314,53.4509651 23.4128721,51.8718953 L22.0451977,30.7480581 L22.0451977,28.973407 C20.912407,29.1944535 18.0264767,29.7138721 15.7790349,29.7161977" id="Fill-8"></path>
                <path d="M9.51325581,18.1674419 C10.6304651,15.2506977 10.740814,12.6545349 10.7375581,11.8353488 C10.7375581,11.8186047 10.7373256,11.807093 10.7373256,11.7922093 C10.3451163,11.8488372 9.85232558,11.9768605 9.31581395,12.2472093 C8.06988372,12.8653488 6.72593023,14.2172093 5.78593023,16.6124419 C4.83476744,19.0167442 4.19593023,22.4937209 4.19255814,27.7432558 C4.19325581,29.1001163 4.23639535,30.5754651 4.33093023,32.1818605 C4.38906977,33.1667442 5.20546512,33.9263953 6.17918605,33.9266279 C6.21604651,33.9266279 6.25290698,33.9254651 6.28988372,33.9233721 C7.31174419,33.8636047 8.09127907,32.9862791 8.03139535,31.9647674 C7.94081395,30.424186 7.89953488,29.0206977 7.9,27.7434884 C7.89197674,22.1337209 8.71,18.9815116 9.51348837,17.3366279 L9.51348837,18.1674419 L9.51325581,18.1674419 Z" id="Fill-10"></path>
                <path d="M15.7792674,2.32558139e-05 C18.6582209,2.32558139e-05 20.9919419,2.33386047 20.9919419,5.21269767 C20.9919419,8.09153488 18.6582209,10.4253721 15.7792674,10.4253721 C12.900314,10.4253721 10.566593,8.09153488 10.566593,5.21269767 C10.566593,2.33386047 12.900314,2.32558139e-05 15.7792674,2.32558139e-05" id="Fill-12"></path>
            </g>
        </g>
    </g>
</svg>