<?xml version="1.0" encoding="UTF-8" standalone="no"?>
<svg width="48px" height="80px" viewBox="0 0 48 106" version="1.1" xmlns="http://www.w3.org/2000/svg" xmlns:xlink="http://www.w3.org/1999/xlink">
    <!-- Generator: Sketch 48.2 (47327) - http://www.bohemiancoding.com/sketch -->
    <title>26_35_Red</title>
    <desc>Created with Sketch.</desc>
    <defs></defs>
    <g id="Page2-Copy-2" stroke="none" stroke-width="1" fill="none" fill-rule="evenodd" transform="translate(-389.000000, -154.000000)">
        <g id="26_35_Red" transform="translate(388.000000, 154.000000)" fill="#D0021B">
            <path d="M5.296,74.304 C5.829336,74.304 6.31733112,74.3826659 6.76,74.54 C7.20266888,74.6973341 7.58133176,74.9199986 7.896,75.208 C8.21066824,75.4960014 8.45599912,75.8426646 8.632,76.248 C8.80800088,76.6533354 8.896,77.1039975 8.896,77.6 C8.896,78.0266688 8.83333396,78.4213315 8.708,78.784 C8.58266604,79.1466685 8.41466772,79.4933317 8.204,79.824 C7.99333228,80.1546683 7.74666808,80.4746651 7.464,80.784 C7.18133192,81.0933349 6.88533488,81.4079984 6.576,81.728 L3.968,84.392 C4.22400128,84.317333 4.47466544,84.2600002 4.72,84.22 C4.96533456,84.1799998 5.19999888,84.16 5.424,84.16 L8.392,84.16 C8.6053344,84.16 8.77466604,84.2199994 8.9,84.34 C9.02533396,84.4600006 9.088,84.6186657 9.088,84.816 L9.088,86 L1.152,86 L1.152,85.344 C1.152,85.210666 1.17999972,85.0720007 1.236,84.928 C1.29200028,84.7839993 1.38133272,84.6506673 1.504,84.528 L5.016,81.008 C5.3093348,80.7093318 5.57199884,80.4240014 5.804,80.152 C6.03600116,79.8799986 6.23066588,79.610668 6.388,79.344 C6.54533412,79.077332 6.66533292,78.806668 6.748,78.532 C6.83066708,78.257332 6.872,77.9680015 6.872,77.664 C6.872,77.3866653 6.8320004,77.1426677 6.752,76.932 C6.6719996,76.7213323 6.55733408,76.5440007 6.408,76.4 C6.25866592,76.2559993 6.08133436,76.1480004 5.876,76.076 C5.67066564,76.0039996 5.44000128,75.968 5.184,75.968 C4.70933096,75.968 4.3186682,76.0879988 4.012,76.328 C3.7053318,76.5680012 3.49066728,76.8906646 3.368,77.296 C3.30933304,77.4986677 3.22133392,77.6439996 3.104,77.732 C2.98666608,77.8200004 2.83733424,77.864 2.656,77.864 C2.5759996,77.864 2.48800048,77.8560001 2.392,77.84 L1.352,77.656 C1.4320004,77.1013306 1.58666552,76.6146688 1.816,76.196 C2.04533448,75.7773312 2.33199828,75.4280014 2.676,75.148 C3.02000172,74.8679986 3.41466444,74.657334 3.86,74.516 C4.30533556,74.374666 4.78399744,74.304 5.296,74.304 Z M15.12,78.776 C15.5573355,78.776 15.9826646,78.8479993 16.396,78.992 C16.8093354,79.1360007 17.1733318,79.3533319 17.488,79.644 C17.8026682,79.9346681 18.055999,80.2959978 18.248,80.728 C18.440001,81.1600022 18.536,81.6639971 18.536,82.24 C18.536,82.7786694 18.4373343,83.2839976 18.24,83.756 C18.0426657,84.2280024 17.7653351,84.6399982 17.408,84.992 C17.0506649,85.3440018 16.6200025,85.6213323 16.116,85.824 C15.6119975,86.0266677 15.056003,86.128 14.448,86.128 C13.8293302,86.128 13.2746691,86.0293343 12.784,85.832 C12.2933309,85.6346657 11.8746684,85.3586684 11.528,85.004 C11.1813316,84.6493316 10.9160009,84.2226692 10.732,83.724 C10.5479991,83.2253308 10.456,82.672003 10.456,82.064 C10.456,81.5199973 10.5666656,80.9613362 10.788,80.388 C11.0093344,79.8146638 11.3519977,79.2186698 11.816,78.6 L14.576,74.896 C14.6720005,74.7679994 14.8119991,74.6586671 14.996,74.568 C15.1800009,74.4773329 15.3919988,74.432 15.632,74.432 L17.392,74.432 L13.96,78.632 C13.885333,78.7226671 13.814667,78.8079996 13.748,78.888 C13.681333,78.9680004 13.6160003,79.0506662 13.552,79.136 C13.7760011,79.0239994 14.017332,78.9360003 14.276,78.872 C14.534668,78.8079997 14.8159985,78.776 15.12,78.776 Z M12.352,82.368 C12.352,82.6880016 12.3959996,82.9799987 12.484,83.244 C12.5720004,83.5080013 12.7026658,83.7333324 12.876,83.92 C13.0493342,84.1066676 13.2639987,84.2519995 13.52,84.356 C13.7760013,84.4600005 14.0719983,84.512 14.408,84.512 C14.7226682,84.512 15.0119987,84.4586672 15.276,84.352 C15.5400013,84.2453328 15.7666657,84.096001 15.956,83.904 C16.1453343,83.711999 16.2933328,83.486668 16.4,83.228 C16.5066672,82.969332 16.56,82.6880015 16.56,82.384 C16.56,82.0533317 16.5093338,81.7560013 16.408,81.492 C16.3066662,81.2279987 16.1626676,81.0040009 15.976,80.82 C15.7893324,80.6359991 15.5653346,80.4960005 15.304,80.4 C15.0426654,80.3039995 14.7546682,80.256 14.44,80.256 C14.1253318,80.256 13.8400013,80.3093328 13.584,80.416 C13.3279987,80.5226672 13.1080009,80.6706657 12.924,80.86 C12.7399991,81.0493343 12.5986672,81.273332 12.5,81.532 C12.4013328,81.790668 12.352,82.0693318 12.352,82.368 Z M22.928,80.344 L27.072,80.344 L27.072,81.992 L22.928,81.992 L22.928,80.344 Z M35.96,74.304 C36.493336,74.304 36.9746645,74.3799992 37.404,74.532 C37.8333355,74.6840008 38.1999985,74.8946653 38.504,75.164 C38.8080015,75.4333347 39.0413325,75.7493315 39.204,76.112 C39.3666675,76.4746685 39.448,76.8666646 39.448,77.288 C39.448,77.6560018 39.4066671,77.9799986 39.324,78.26 C39.2413329,78.5400014 39.1213341,78.783999 38.964,78.992 C38.8066659,79.200001 38.6146678,79.3759993 38.388,79.52 C38.1613322,79.6640007 37.9040014,79.7839995 37.616,79.88 C38.3093368,80.0986678 38.826665,80.4319978 39.168,80.88 C39.509335,81.3280022 39.68,81.8906633 39.68,82.568 C39.68,83.1440029 39.5733344,83.6533311 39.36,84.096 C39.1466656,84.5386689 38.8586685,84.9106652 38.496,85.212 C38.1333315,85.5133348 37.7133357,85.7413326 37.236,85.896 C36.7586643,86.0506674 36.253336,86.128 35.72,86.128 C35.1386638,86.128 34.6320022,86.061334 34.2,85.928 C33.7679978,85.794666 33.3920016,85.5973346 33.072,85.336 C32.7519984,85.0746654 32.4800011,84.7546686 32.256,84.376 C32.0319989,83.9973314 31.8400008,83.5600025 31.68,83.064 L32.552,82.704 C32.7013341,82.6399997 32.8533326,82.608 33.008,82.608 C33.1466674,82.608 33.2706661,82.637333 33.38,82.696 C33.4893339,82.754667 33.573333,82.8399994 33.632,82.952 C33.7280005,83.1386676 33.8333328,83.3226658 33.948,83.504 C34.0626672,83.6853342 34.1999992,83.846666 34.36,83.988 C34.5200008,84.129334 34.7079989,84.2439996 34.924,84.332 C35.1400011,84.4200004 35.3973318,84.464 35.696,84.464 C36.0320017,84.464 36.3253321,84.4093339 36.576,84.3 C36.8266679,84.1906661 37.0359992,84.0480009 37.204,83.872 C37.3720008,83.6959991 37.4973329,83.5000011 37.58,83.284 C37.6626671,83.0679989 37.704,82.8506678 37.704,82.632 C37.704,82.3546653 37.674667,82.1026678 37.616,81.876 C37.557333,81.6493322 37.4346676,81.4560008 37.248,81.296 C37.0613324,81.1359992 36.7933351,81.0106671 36.444,80.92 C36.0946649,80.8293329 35.6266696,80.784 35.04,80.784 L35.04,79.376 C35.5253358,79.3706666 35.9279984,79.3253338 36.248,79.24 C36.5680016,79.1546662 36.8226657,79.0360008 37.012,78.884 C37.2013343,78.7319992 37.333333,78.5493344 37.408,78.336 C37.482667,78.1226656 37.52,77.8880013 37.52,77.632 C37.52,77.0826639 37.3706682,76.6680014 37.072,76.388 C36.7733318,76.1079986 36.3653359,75.968 35.848,75.968 C35.3786643,75.968 34.9893349,76.0919988 34.68,76.34 C34.3706651,76.5880012 34.1546673,76.9066647 34.032,77.296 C33.9679997,77.4986677 33.8800006,77.6439996 33.768,77.732 C33.6559994,77.8200004 33.5093342,77.864 33.328,77.864 C33.2426662,77.864 33.1520005,77.8560001 33.056,77.84 L32.016,77.656 C32.0960004,77.1013306 32.2506655,76.6146688 32.48,76.196 C32.7093345,75.7773312 32.9959983,75.4280014 33.34,75.148 C33.6840017,74.8679986 34.0786644,74.657334 34.524,74.516 C34.9693356,74.374666 35.4479974,74.304 35.96,74.304 Z M48.152,75.272 C48.152,75.5546681 48.0626676,75.7839991 47.884,75.96 C47.7053324,76.1360009 47.4080021,76.224 46.992,76.224 L43.808,76.224 L43.392,78.64 C43.9146693,78.5333328 44.3919978,78.48 44.824,78.48 C45.432003,78.48 45.9666644,78.5706658 46.428,78.752 C46.8893356,78.9333342 47.2773318,79.1839984 47.592,79.504 C47.9066682,79.8240016 48.1439992,80.1986645 48.304,80.628 C48.4640008,81.0573355 48.544,81.5199975 48.544,82.016 C48.544,82.6293364 48.4360011,83.1893308 48.22,83.696 C48.0039989,84.2026692 47.7040019,84.6359982 47.32,84.996 C46.9359981,85.3560018 46.481336,85.6346657 45.956,85.832 C45.430664,86.0293343 44.8586698,86.128 44.24,86.128 C43.8773315,86.128 43.533335,86.090667 43.208,86.016 C42.882665,85.941333 42.5773348,85.841334 42.292,85.716 C42.0066652,85.590666 41.7426679,85.4466675 41.5,85.284 C41.2573321,85.1213325 41.040001,84.9493342 40.848,84.768 L41.456,83.928 C41.5840006,83.7466658 41.7546656,83.656 41.968,83.656 C42.101334,83.656 42.2359993,83.6986662 42.372,83.784 C42.5080007,83.8693338 42.6666658,83.9626662 42.848,84.064 C43.0293342,84.1653338 43.2399988,84.2586662 43.48,84.344 C43.7200012,84.4293338 44.010665,84.472 44.352,84.472 C44.7146685,84.472 45.0346653,84.4133339 45.312,84.296 C45.5893347,84.1786661 45.8199991,84.0146677 46.004,83.804 C46.1880009,83.5933323 46.3266662,83.3426681 46.42,83.052 C46.5133338,82.7613319 46.56,82.445335 46.56,82.104 C46.56,81.4746635 46.3773352,80.9826684 46.012,80.628 C45.6466648,80.2733316 45.1093369,80.096 44.4,80.096 C43.8399972,80.096 43.2773362,80.1973323 42.712,80.4 L41.48,80.048 L42.44,74.432 L48.152,74.432 L48.152,75.272 Z M11.488,100.504 L11.488,105 L9.336,105 L9.336,100.504 L5.12,93.432 L7.016,93.432 C7.2026676,93.432 7.35066612,93.4773329 7.46,93.568 C7.56933388,93.6586671 7.66133296,93.7733326 7.736,93.912 L9.856,97.776 C9.97866728,98.0053345 10.0853329,98.2226656 10.176,98.428 C10.2666671,98.6333344 10.349333,98.8346657 10.424,99.032 C10.4933337,98.8293323 10.5719996,98.6253344 10.66,98.42 C10.7480004,98.2146656 10.8533327,98.0000011 10.976,97.776 L13.08,93.912 C13.138667,93.7946661 13.2266661,93.6853338 13.344,93.584 C13.4613339,93.4826662 13.6106658,93.432 13.792,93.432 L15.696,93.432 L11.488,100.504 Z M18.816,96.664 C19.3333359,96.664 19.8093312,96.7466658 20.244,96.912 C20.6786688,97.0773342 21.0533318,97.3186651 21.368,97.636 C21.6826682,97.9533349 21.9279991,98.3426644 22.104,98.804 C22.2800009,99.2653356 22.368,99.791997 22.368,100.384 C22.368,100.533334 22.3613334,100.657333 22.348,100.756 C22.3346666,100.854667 22.3106668,100.932 22.276,100.988 C22.2413332,101.044 22.194667,101.084 22.136,101.108 C22.077333,101.132 22.0026671,101.144 21.912,101.144 L16.84,101.144 C16.898667,101.986671 17.1253314,102.605331 17.52,103 C17.9146686,103.394669 18.4373301,103.592 19.088,103.592 C19.4080016,103.592 19.6839988,103.554667 19.916,103.48 C20.1480012,103.405333 20.3506658,103.322667 20.524,103.232 C20.6973342,103.141333 20.8493327,103.058667 20.98,102.984 C21.1106673,102.909333 21.2373327,102.872 21.36,102.872 C21.4400004,102.872 21.509333,102.888 21.568,102.92 C21.626667,102.952 21.6773331,102.997333 21.72,103.056 L22.296,103.776 C22.0773322,104.032001 21.8320014,104.246666 21.56,104.42 C21.2879986,104.593334 21.0040015,104.731999 20.708,104.836 C20.4119985,104.940001 20.1106682,105.013333 19.804,105.056 C19.4973318,105.098667 19.2000014,105.12 18.912,105.12 C18.3413305,105.12 17.8106691,105.025334 17.32,104.836 C16.8293309,104.646666 16.4026685,104.366669 16.04,103.996 C15.6773315,103.625331 15.392001,103.166669 15.184,102.62 C14.975999,102.073331 14.872,101.440004 14.872,100.72 C14.872,100.159997 14.9626658,99.6333358 15.144,99.14 C15.3253342,98.6466642 15.5853316,98.2173352 15.924,97.852 C16.2626684,97.4866648 16.6759976,97.1973344 17.164,96.984 C17.6520024,96.7706656 18.2026636,96.664 18.816,96.664 Z M18.856,98.08 C18.2799971,98.08 17.829335,98.242665 17.504,98.568 C17.178665,98.893335 16.9706671,99.3546637 16.88,99.952 L20.592,99.952 C20.592,99.6959987 20.5573337,99.4546678 20.488,99.228 C20.4186663,99.0013322 20.3120007,98.8026675 20.168,98.632 C20.0239993,98.4613325 19.8426678,98.3266672 19.624,98.228 C19.4053322,98.1293328 19.1493348,98.08 18.856,98.08 Z M30.408,105 L29.52,105 C29.3333324,105 29.1866672,104.972 29.08,104.916 C28.9733328,104.86 28.8933336,104.746668 28.84,104.576 L28.664,103.992 C28.455999,104.178668 28.252001,104.342666 28.052,104.484 C27.851999,104.625334 27.6453344,104.744 27.432,104.84 C27.2186656,104.936 26.9920012,105.008 26.752,105.056 C26.5119988,105.104 26.2453348,105.128 25.952,105.128 C25.6053316,105.128 25.2853348,105.081334 24.992,104.988 C24.6986652,104.894666 24.4466677,104.754668 24.236,104.568 C24.0253323,104.381332 23.8613339,104.149335 23.744,103.872 C23.6266661,103.594665 23.568,103.272002 23.568,102.904 C23.568,102.594665 23.6493325,102.289335 23.812,101.988 C23.9746675,101.686665 24.2453314,101.414668 24.624,101.172 C25.0026686,100.929332 25.5066635,100.728001 26.136,100.568 C26.7653365,100.407999 27.546662,100.317333 28.48,100.296 L28.48,99.816 C28.48,99.2666639 28.3640012,98.8600013 28.132,98.596 C27.8999988,98.3319987 27.5626689,98.2 27.12,98.2 C26.7999984,98.2 26.5333344,98.237333 26.32,98.312 C26.1066656,98.386667 25.9213341,98.4706662 25.764,98.564 C25.6066659,98.6573338 25.461334,98.741333 25.328,98.816 C25.194666,98.890667 25.0480008,98.928 24.888,98.928 C24.754666,98.928 24.6400005,98.8933337 24.544,98.824 C24.4479995,98.7546663 24.370667,98.6693338 24.312,98.568 L23.952,97.936 C24.8960047,97.0719957 26.03466,96.64 27.368,96.64 C27.8480024,96.64 28.2759981,96.7186659 28.652,96.876 C29.0280019,97.0333341 29.3466654,97.2519986 29.608,97.532 C29.8693346,97.8120014 30.0679993,98.1466647 30.204,98.536 C30.3400007,98.9253353 30.408,99.3519977 30.408,99.816 L30.408,105 Z M26.568,103.768 C26.7706677,103.768 26.9573325,103.749334 27.128,103.712 C27.2986675,103.674666 27.4599992,103.618667 27.612,103.544 C27.7640008,103.469333 27.910666,103.377334 28.052,103.268 C28.193334,103.158666 28.3359993,103.029334 28.48,102.88 L28.48,101.496 C27.9039971,101.522667 27.4226686,101.572 27.036,101.644 C26.6493314,101.716 26.3386678,101.807999 26.104,101.92 C25.8693322,102.032001 25.7026672,102.162666 25.604,102.312 C25.5053328,102.461334 25.456,102.623999 25.456,102.8 C25.456,103.146668 25.5586656,103.394666 25.764,103.544 C25.9693344,103.693334 26.2373317,103.768 26.568,103.768 Z M32.352,105 L32.352,96.792 L33.512,96.792 C33.7146677,96.792 33.8559996,96.829333 33.936,96.904 C34.0160004,96.978667 34.0693332,97.1066658 34.096,97.288 L34.216,98.28 C34.5093348,97.7733308 34.8533314,97.3733348 35.248,97.08 C35.6426686,96.7866652 36.0853309,96.64 36.576,96.64 C36.9813354,96.64 37.317332,96.7333324 37.584,96.92 L37.328,98.4 C37.3119999,98.4960005 37.2773336,98.5639998 37.224,98.604 C37.1706664,98.6440002 37.0986671,98.664 37.008,98.664 C36.9279996,98.664 36.8186674,98.6453335 36.68,98.608 C36.5413326,98.5706665 36.3573345,98.552 36.128,98.552 C35.7173313,98.552 35.3653348,98.6653322 35.072,98.892 C34.7786652,99.1186678 34.5306677,99.4506645 34.328,99.888 L34.328,105 L32.352,105 Z M43.76,98.392 C43.7066664,98.4773338 43.650667,98.5373332 43.592,98.572 C43.533333,98.6066668 43.4586671,98.624 43.368,98.624 C43.2719995,98.624 43.1693339,98.5973336 43.06,98.544 C42.9506661,98.4906664 42.8240007,98.430667 42.68,98.364 C42.5359993,98.297333 42.3720009,98.2373336 42.188,98.184 C42.0039991,98.1306664 41.7866679,98.104 41.536,98.104 C41.1466647,98.104 40.8400011,98.1866658 40.616,98.352 C40.3919989,98.5173342 40.28,98.733332 40.28,99 C40.28,99.1760009 40.3373328,99.3239994 40.452,99.444 C40.5666672,99.5640006 40.7186657,99.6693329 40.908,99.76 C41.0973343,99.8506671 41.3119988,99.9319996 41.552,100.004 C41.7920012,100.076 42.0373321,100.154666 42.288,100.24 C42.5386679,100.325334 42.7839988,100.422666 43.024,100.532 C43.2640012,100.641334 43.4786657,100.779999 43.668,100.948 C43.8573343,101.116001 44.0093328,101.317332 44.124,101.552 C44.2386672,101.786668 44.296,102.069332 44.296,102.4 C44.296,102.794669 44.2240007,103.158665 44.08,103.492 C43.9359993,103.825335 43.7253347,104.113332 43.448,104.356 C43.1706653,104.598668 42.828002,104.787999 42.42,104.924 C42.011998,105.060001 41.5440026,105.128 41.016,105.128 C40.7333319,105.128 40.4573347,105.102667 40.188,105.052 C39.9186653,105.001333 39.6600012,104.930667 39.412,104.84 C39.1639988,104.749333 38.9346677,104.642667 38.724,104.52 C38.5133323,104.397333 38.3280008,104.264001 38.168,104.12 L38.624,103.368 C38.682667,103.277333 38.7519996,103.208 38.832,103.16 C38.9120004,103.112 39.0133327,103.088 39.136,103.088 C39.2586673,103.088 39.3746661,103.122666 39.484,103.192 C39.5933339,103.261334 39.7199993,103.336 39.864,103.416 C40.0080007,103.496 40.1773324,103.570666 40.372,103.64 C40.5666676,103.709334 40.8133318,103.744 41.112,103.744 C41.3466678,103.744 41.5479992,103.716 41.716,103.66 C41.8840008,103.604 42.0226661,103.530667 42.132,103.44 C42.2413339,103.349333 42.3213331,103.244001 42.372,103.124 C42.4226669,103.003999 42.448,102.880001 42.448,102.752 C42.448,102.559999 42.3906672,102.402667 42.276,102.28 C42.1613328,102.157333 42.0093343,102.050667 41.82,101.96 C41.6306657,101.869333 41.4146679,101.788 41.172,101.716 C40.9293321,101.644 40.6813346,101.565334 40.428,101.48 C40.1746654,101.394666 39.9266679,101.294667 39.684,101.18 C39.4413321,101.065333 39.2253343,100.920001 39.036,100.744 C38.8466657,100.567999 38.6946672,100.352001 38.58,100.096 C38.4653328,99.8399987 38.408,99.5306685 38.408,99.168 C38.408,98.8319983 38.474666,98.5120015 38.608,98.208 C38.741334,97.9039985 38.937332,97.6386678 39.196,97.412 C39.454668,97.1853322 39.7773314,97.0040007 40.164,96.868 C40.5506686,96.7319993 40.9973308,96.664 41.504,96.664 C42.0693362,96.664 42.5839977,96.7573324 43.048,96.944 C43.5120023,97.1306676 43.8986651,97.3759985 44.208,97.68 L43.76,98.392 Z" id="26---35-Years"></path>
            <g id="Page-1" transform="translate(12.000000, 0.000000)">
                <path d="M12.6277953,15.9056693 C10.8085827,15.9056693 9.30858268,14.5540157 9.06748031,12.8011024 L7.74984252,12.8011024 C7.68149606,12.8011024 7.61377953,12.8048819 7.54685039,12.8116535 C7.08464567,12.832126 6.37708661,12.9477165 5.58354331,13.3477165 C4.22559055,14.0212598 2.76086614,15.4946457 1.73661417,18.1050394 C0.69976378,20.7253543 0.0037007874,24.5148031 -7.87401575e-05,30.236063 C0.000551181102,31.7149606 0.0476377953,33.3226772 0.150787402,35.0737008 C0.214094488,36.1467717 1.10385827,36.9748031 2.16511811,36.9751181 C2.20511811,36.9751181 2.24527559,36.9738583 2.28590551,36.9714961 C3.3996063,36.9062992 4.24937008,35.9502362 4.18401575,34.8368504 C4.08527559,33.1577953 4.0403937,31.628189 4.04086614,30.236378 C4.03204724,24.1225197 4.92338583,20.6870866 5.79913386,18.8944882 L5.79913386,30.5477165 C6.21251969,30.6300787 6.99314961,30.779685 7.94622047,30.9299213 C9.36795276,31.1538583 11.166063,31.3768504 12.6279528,31.376063 C14.0898425,31.3765354 15.8882677,31.1538583 17.3095276,30.9299213 C18.2627559,30.779685 19.0435433,30.6303937 19.4567717,30.547874 L19.4567717,18.9050394 C19.6065354,19.212126 19.7572441,19.5644094 19.906378,19.9752756 C20.617874,21.9480315 21.2164567,25.1844094 21.214252,30.235748 C21.214252,31.628189 21.169685,33.1581102 21.0718898,34.8374803 C21.006378,35.9511811 21.8567717,36.9064567 22.9709449,36.9714961 C23.0107874,36.9738583 23.0506299,36.9751181 23.09,36.9751181 C24.1520472,36.9751181 25.042126,36.1464567 25.1046457,35.0724409 C25.206378,33.3220472 25.2537795,31.7143307 25.2537795,30.235748 C25.2437008,22.6151181 24.0265354,18.3974803 22.3668504,15.8612598 C21.5375591,14.6020472 20.5671654,13.7951181 19.670315,13.347874 C18.877874,12.9480315 18.1723622,12.8322835 17.7098425,12.8116535 C17.6424409,12.8045669 17.574252,12.8007874 17.5049606,12.8007874 L16.1877953,12.8007874 C15.9470079,14.5540157 14.4470079,15.9056693 12.6277953,15.9056693" id="Fill-1"></path>
                <path d="M12.6274961,32.3863622 C10.1208819,32.3835276 6.93899213,31.7898268 5.79867717,31.5595906 L5.79867717,33.5126614 L4.30844094,56.5328189 C4.19662992,58.2534488 5.50151181,59.7381732 7.22135433,59.8495118 C8.94198425,59.9608504 10.4267087,58.6575433 10.5383622,56.936126 L11.8334803,36.9413228 L13.4218268,36.9413228 L14.7169449,56.936126 C14.8282835,58.6575433 16.3136378,59.9608504 18.0342677,59.8495118 C19.7541102,59.7384882 21.0589921,58.2537638 20.9473386,56.5328189 L19.4566299,33.5109291 L19.4566299,31.5767559 C18.2218268,31.8177008 15.0766299,32.3835276 12.6274961,32.3863622" id="Fill-4"></path>
                <path d="M12.6277953,1.57480315e-05 C15.7652756,1.57480315e-05 18.3087402,2.54348031 18.3087402,5.68111811 C18.3087402,8.81859843 15.7652756,11.362063 12.6277953,11.362063 C9.49015748,11.362063 6.94669291,8.81859843 6.94669291,5.68111811 C6.94669291,2.54348031 9.49015748,1.57480315e-05 12.6277953,1.57480315e-05" id="Fill-7"></path>
            </g>
        </g>
    </g>
</svg>