<?xml version="1.0" encoding="UTF-8" standalone="no"?>
<svg width="49px" height="80px" viewBox="0 0 49 106" version="1.1" xmlns="http://www.w3.org/2000/svg" xmlns:xlink="http://www.w3.org/1999/xlink">
    <!-- Generator: Sketch 48.2 (47327) - http://www.bohemiancoding.com/sketch -->
    <title>46_55</title>
    <desc>Created with Sketch.</desc>
    <defs></defs>
    <g id="Page2-Copy-2" stroke="none" stroke-width="1" fill="none" fill-rule="evenodd" transform="translate(-588.000000, -154.000000)">
        <g id="46_55" transform="translate(588.000000, 154.000000)">
            <path d="M8.016,81.64 L9.472,81.64 L9.472,82.784 C9.472,82.8906672 9.43733368,82.9826663 9.368,83.06 C9.29866632,83.1373337 9.197334,83.176 9.064,83.176 L8.016,83.176 L8.016,86 L6.288,86 L6.288,83.176 L1.408,83.176 C1.274666,83.176 1.15733384,83.1346671 1.056,83.052 C0.95466616,82.9693329 0.8906668,82.8666673 0.864,82.744 L0.664,81.744 L6.144,74.424 L8.016,74.424 L8.016,81.64 Z M6.288,77.856 C6.288,77.6853325 6.29333328,77.5013343 6.304,77.304 C6.31466672,77.1066657 6.3333332,76.9013344 6.36,76.688 L2.768,81.64 L6.288,81.64 L6.288,77.856 Z M15.12,78.776 C15.5573355,78.776 15.9826646,78.8479993 16.396,78.992 C16.8093354,79.1360007 17.1733318,79.3533319 17.488,79.644 C17.8026682,79.9346681 18.055999,80.2959978 18.248,80.728 C18.440001,81.1600022 18.536,81.6639971 18.536,82.24 C18.536,82.7786694 18.4373343,83.2839976 18.24,83.756 C18.0426657,84.2280024 17.7653351,84.6399982 17.408,84.992 C17.0506649,85.3440018 16.6200025,85.6213323 16.116,85.824 C15.6119975,86.0266677 15.056003,86.128 14.448,86.128 C13.8293302,86.128 13.2746691,86.0293343 12.784,85.832 C12.2933309,85.6346657 11.8746684,85.3586684 11.528,85.004 C11.1813316,84.6493316 10.9160009,84.2226692 10.732,83.724 C10.5479991,83.2253308 10.456,82.672003 10.456,82.064 C10.456,81.5199973 10.5666656,80.9613362 10.788,80.388 C11.0093344,79.8146638 11.3519977,79.2186698 11.816,78.6 L14.576,74.896 C14.6720005,74.7679994 14.8119991,74.6586671 14.996,74.568 C15.1800009,74.4773329 15.3919988,74.432 15.632,74.432 L17.392,74.432 L13.96,78.632 C13.885333,78.7226671 13.814667,78.8079996 13.748,78.888 C13.681333,78.9680004 13.6160003,79.0506662 13.552,79.136 C13.7760011,79.0239994 14.017332,78.9360003 14.276,78.872 C14.534668,78.8079997 14.8159985,78.776 15.12,78.776 Z M12.352,82.368 C12.352,82.6880016 12.3959996,82.9799987 12.484,83.244 C12.5720004,83.5080013 12.7026658,83.7333324 12.876,83.92 C13.0493342,84.1066676 13.2639987,84.2519995 13.52,84.356 C13.7760013,84.4600005 14.0719983,84.512 14.408,84.512 C14.7226682,84.512 15.0119987,84.4586672 15.276,84.352 C15.5400013,84.2453328 15.7666657,84.096001 15.956,83.904 C16.1453343,83.711999 16.2933328,83.486668 16.4,83.228 C16.5066672,82.969332 16.56,82.6880015 16.56,82.384 C16.56,82.0533317 16.5093338,81.7560013 16.408,81.492 C16.3066662,81.2279987 16.1626676,81.0040009 15.976,80.82 C15.7893324,80.6359991 15.5653346,80.4960005 15.304,80.4 C15.0426654,80.3039995 14.7546682,80.256 14.44,80.256 C14.1253318,80.256 13.8400013,80.3093328 13.584,80.416 C13.3279987,80.5226672 13.1080009,80.6706657 12.924,80.86 C12.7399991,81.0493343 12.5986672,81.273332 12.5,81.532 C12.4013328,81.790668 12.352,82.0693318 12.352,82.368 Z M22.928,80.344 L27.072,80.344 L27.072,81.992 L22.928,81.992 L22.928,80.344 Z M38.872,75.272 C38.872,75.5546681 38.7826676,75.7839991 38.604,75.96 C38.4253324,76.1360009 38.1280021,76.224 37.712,76.224 L34.528,76.224 L34.112,78.64 C34.6346693,78.5333328 35.1119978,78.48 35.544,78.48 C36.152003,78.48 36.6866644,78.5706658 37.148,78.752 C37.6093356,78.9333342 37.9973318,79.1839984 38.312,79.504 C38.6266682,79.8240016 38.8639992,80.1986645 39.024,80.628 C39.1840008,81.0573355 39.264,81.5199975 39.264,82.016 C39.264,82.6293364 39.1560011,83.1893308 38.94,83.696 C38.7239989,84.2026692 38.4240019,84.6359982 38.04,84.996 C37.6559981,85.3560018 37.201336,85.6346657 36.676,85.832 C36.150664,86.0293343 35.5786698,86.128 34.96,86.128 C34.5973315,86.128 34.253335,86.090667 33.928,86.016 C33.602665,85.941333 33.2973348,85.841334 33.012,85.716 C32.7266652,85.590666 32.4626679,85.4466675 32.22,85.284 C31.9773321,85.1213325 31.760001,84.9493342 31.568,84.768 L32.176,83.928 C32.3040006,83.7466658 32.4746656,83.656 32.688,83.656 C32.821334,83.656 32.9559993,83.6986662 33.092,83.784 C33.2280007,83.8693338 33.3866658,83.9626662 33.568,84.064 C33.7493342,84.1653338 33.9599988,84.2586662 34.2,84.344 C34.4400012,84.4293338 34.730665,84.472 35.072,84.472 C35.4346685,84.472 35.7546653,84.4133339 36.032,84.296 C36.3093347,84.1786661 36.5399991,84.0146677 36.724,83.804 C36.9080009,83.5933323 37.0466662,83.3426681 37.14,83.052 C37.2333338,82.7613319 37.28,82.445335 37.28,82.104 C37.28,81.4746635 37.0973352,80.9826684 36.732,80.628 C36.3666648,80.2733316 35.8293369,80.096 35.12,80.096 C34.5599972,80.096 33.9973362,80.1973323 33.432,80.4 L32.2,80.048 L33.16,74.432 L38.872,74.432 L38.872,75.272 Z M48.152,75.272 C48.152,75.5546681 48.0626676,75.7839991 47.884,75.96 C47.7053324,76.1360009 47.4080021,76.224 46.992,76.224 L43.808,76.224 L43.392,78.64 C43.9146693,78.5333328 44.3919978,78.48 44.824,78.48 C45.432003,78.48 45.9666644,78.5706658 46.428,78.752 C46.8893356,78.9333342 47.2773318,79.1839984 47.592,79.504 C47.9066682,79.8240016 48.1439992,80.1986645 48.304,80.628 C48.4640008,81.0573355 48.544,81.5199975 48.544,82.016 C48.544,82.6293364 48.4360011,83.1893308 48.22,83.696 C48.0039989,84.2026692 47.7040019,84.6359982 47.32,84.996 C46.9359981,85.3560018 46.481336,85.6346657 45.956,85.832 C45.430664,86.0293343 44.8586698,86.128 44.24,86.128 C43.8773315,86.128 43.533335,86.090667 43.208,86.016 C42.882665,85.941333 42.5773348,85.841334 42.292,85.716 C42.0066652,85.590666 41.7426679,85.4466675 41.5,85.284 C41.2573321,85.1213325 41.040001,84.9493342 40.848,84.768 L41.456,83.928 C41.5840006,83.7466658 41.7546656,83.656 41.968,83.656 C42.101334,83.656 42.2359993,83.6986662 42.372,83.784 C42.5080007,83.8693338 42.6666658,83.9626662 42.848,84.064 C43.0293342,84.1653338 43.2399988,84.2586662 43.48,84.344 C43.7200012,84.4293338 44.010665,84.472 44.352,84.472 C44.7146685,84.472 45.0346653,84.4133339 45.312,84.296 C45.5893347,84.1786661 45.8199991,84.0146677 46.004,83.804 C46.1880009,83.5933323 46.3266662,83.3426681 46.42,83.052 C46.5133338,82.7613319 46.56,82.445335 46.56,82.104 C46.56,81.4746635 46.3773352,80.9826684 46.012,80.628 C45.6466648,80.2733316 45.1093369,80.096 44.4,80.096 C43.8399972,80.096 43.2773362,80.1973323 42.712,80.4 L41.48,80.048 L42.44,74.432 L48.152,74.432 L48.152,75.272 Z M11.488,100.504 L11.488,105 L9.336,105 L9.336,100.504 L5.12,93.432 L7.016,93.432 C7.2026676,93.432 7.35066612,93.4773329 7.46,93.568 C7.56933388,93.6586671 7.66133296,93.7733326 7.736,93.912 L9.856,97.776 C9.97866728,98.0053345 10.0853329,98.2226656 10.176,98.428 C10.2666671,98.6333344 10.349333,98.8346657 10.424,99.032 C10.4933337,98.8293323 10.5719996,98.6253344 10.66,98.42 C10.7480004,98.2146656 10.8533327,98.0000011 10.976,97.776 L13.08,93.912 C13.138667,93.7946661 13.2266661,93.6853338 13.344,93.584 C13.4613339,93.4826662 13.6106658,93.432 13.792,93.432 L15.696,93.432 L11.488,100.504 Z M18.816,96.664 C19.3333359,96.664 19.8093312,96.7466658 20.244,96.912 C20.6786688,97.0773342 21.0533318,97.3186651 21.368,97.636 C21.6826682,97.9533349 21.9279991,98.3426644 22.104,98.804 C22.2800009,99.2653356 22.368,99.791997 22.368,100.384 C22.368,100.533334 22.3613334,100.657333 22.348,100.756 C22.3346666,100.854667 22.3106668,100.932 22.276,100.988 C22.2413332,101.044 22.194667,101.084 22.136,101.108 C22.077333,101.132 22.0026671,101.144 21.912,101.144 L16.84,101.144 C16.898667,101.986671 17.1253314,102.605331 17.52,103 C17.9146686,103.394669 18.4373301,103.592 19.088,103.592 C19.4080016,103.592 19.6839988,103.554667 19.916,103.48 C20.1480012,103.405333 20.3506658,103.322667 20.524,103.232 C20.6973342,103.141333 20.8493327,103.058667 20.98,102.984 C21.1106673,102.909333 21.2373327,102.872 21.36,102.872 C21.4400004,102.872 21.509333,102.888 21.568,102.92 C21.626667,102.952 21.6773331,102.997333 21.72,103.056 L22.296,103.776 C22.0773322,104.032001 21.8320014,104.246666 21.56,104.42 C21.2879986,104.593334 21.0040015,104.731999 20.708,104.836 C20.4119985,104.940001 20.1106682,105.013333 19.804,105.056 C19.4973318,105.098667 19.2000014,105.12 18.912,105.12 C18.3413305,105.12 17.8106691,105.025334 17.32,104.836 C16.8293309,104.646666 16.4026685,104.366669 16.04,103.996 C15.6773315,103.625331 15.392001,103.166669 15.184,102.62 C14.975999,102.073331 14.872,101.440004 14.872,100.72 C14.872,100.159997 14.9626658,99.6333358 15.144,99.14 C15.3253342,98.6466642 15.5853316,98.2173352 15.924,97.852 C16.2626684,97.4866648 16.6759976,97.1973344 17.164,96.984 C17.6520024,96.7706656 18.2026636,96.664 18.816,96.664 Z M18.856,98.08 C18.2799971,98.08 17.829335,98.242665 17.504,98.568 C17.178665,98.893335 16.9706671,99.3546637 16.88,99.952 L20.592,99.952 C20.592,99.6959987 20.5573337,99.4546678 20.488,99.228 C20.4186663,99.0013322 20.3120007,98.8026675 20.168,98.632 C20.0239993,98.4613325 19.8426678,98.3266672 19.624,98.228 C19.4053322,98.1293328 19.1493348,98.08 18.856,98.08 Z M30.408,105 L29.52,105 C29.3333324,105 29.1866672,104.972 29.08,104.916 C28.9733328,104.86 28.8933336,104.746668 28.84,104.576 L28.664,103.992 C28.455999,104.178668 28.252001,104.342666 28.052,104.484 C27.851999,104.625334 27.6453344,104.744 27.432,104.84 C27.2186656,104.936 26.9920012,105.008 26.752,105.056 C26.5119988,105.104 26.2453348,105.128 25.952,105.128 C25.6053316,105.128 25.2853348,105.081334 24.992,104.988 C24.6986652,104.894666 24.4466677,104.754668 24.236,104.568 C24.0253323,104.381332 23.8613339,104.149335 23.744,103.872 C23.6266661,103.594665 23.568,103.272002 23.568,102.904 C23.568,102.594665 23.6493325,102.289335 23.812,101.988 C23.9746675,101.686665 24.2453314,101.414668 24.624,101.172 C25.0026686,100.929332 25.5066635,100.728001 26.136,100.568 C26.7653365,100.407999 27.546662,100.317333 28.48,100.296 L28.48,99.816 C28.48,99.2666639 28.3640012,98.8600013 28.132,98.596 C27.8999988,98.3319987 27.5626689,98.2 27.12,98.2 C26.7999984,98.2 26.5333344,98.237333 26.32,98.312 C26.1066656,98.386667 25.9213341,98.4706662 25.764,98.564 C25.6066659,98.6573338 25.461334,98.741333 25.328,98.816 C25.194666,98.890667 25.0480008,98.928 24.888,98.928 C24.754666,98.928 24.6400005,98.8933337 24.544,98.824 C24.4479995,98.7546663 24.370667,98.6693338 24.312,98.568 L23.952,97.936 C24.8960047,97.0719957 26.03466,96.64 27.368,96.64 C27.8480024,96.64 28.2759981,96.7186659 28.652,96.876 C29.0280019,97.0333341 29.3466654,97.2519986 29.608,97.532 C29.8693346,97.8120014 30.0679993,98.1466647 30.204,98.536 C30.3400007,98.9253353 30.408,99.3519977 30.408,99.816 L30.408,105 Z M26.568,103.768 C26.7706677,103.768 26.9573325,103.749334 27.128,103.712 C27.2986675,103.674666 27.4599992,103.618667 27.612,103.544 C27.7640008,103.469333 27.910666,103.377334 28.052,103.268 C28.193334,103.158666 28.3359993,103.029334 28.48,102.88 L28.48,101.496 C27.9039971,101.522667 27.4226686,101.572 27.036,101.644 C26.6493314,101.716 26.3386678,101.807999 26.104,101.92 C25.8693322,102.032001 25.7026672,102.162666 25.604,102.312 C25.5053328,102.461334 25.456,102.623999 25.456,102.8 C25.456,103.146668 25.5586656,103.394666 25.764,103.544 C25.9693344,103.693334 26.2373317,103.768 26.568,103.768 Z M32.352,105 L32.352,96.792 L33.512,96.792 C33.7146677,96.792 33.8559996,96.829333 33.936,96.904 C34.0160004,96.978667 34.0693332,97.1066658 34.096,97.288 L34.216,98.28 C34.5093348,97.7733308 34.8533314,97.3733348 35.248,97.08 C35.6426686,96.7866652 36.0853309,96.64 36.576,96.64 C36.9813354,96.64 37.317332,96.7333324 37.584,96.92 L37.328,98.4 C37.3119999,98.4960005 37.2773336,98.5639998 37.224,98.604 C37.1706664,98.6440002 37.0986671,98.664 37.008,98.664 C36.9279996,98.664 36.8186674,98.6453335 36.68,98.608 C36.5413326,98.5706665 36.3573345,98.552 36.128,98.552 C35.7173313,98.552 35.3653348,98.6653322 35.072,98.892 C34.7786652,99.1186678 34.5306677,99.4506645 34.328,99.888 L34.328,105 L32.352,105 Z M43.76,98.392 C43.7066664,98.4773338 43.650667,98.5373332 43.592,98.572 C43.533333,98.6066668 43.4586671,98.624 43.368,98.624 C43.2719995,98.624 43.1693339,98.5973336 43.06,98.544 C42.9506661,98.4906664 42.8240007,98.430667 42.68,98.364 C42.5359993,98.297333 42.3720009,98.2373336 42.188,98.184 C42.0039991,98.1306664 41.7866679,98.104 41.536,98.104 C41.1466647,98.104 40.8400011,98.1866658 40.616,98.352 C40.3919989,98.5173342 40.28,98.733332 40.28,99 C40.28,99.1760009 40.3373328,99.3239994 40.452,99.444 C40.5666672,99.5640006 40.7186657,99.6693329 40.908,99.76 C41.0973343,99.8506671 41.3119988,99.9319996 41.552,100.004 C41.7920012,100.076 42.0373321,100.154666 42.288,100.24 C42.5386679,100.325334 42.7839988,100.422666 43.024,100.532 C43.2640012,100.641334 43.4786657,100.779999 43.668,100.948 C43.8573343,101.116001 44.0093328,101.317332 44.124,101.552 C44.2386672,101.786668 44.296,102.069332 44.296,102.4 C44.296,102.794669 44.2240007,103.158665 44.08,103.492 C43.9359993,103.825335 43.7253347,104.113332 43.448,104.356 C43.1706653,104.598668 42.828002,104.787999 42.42,104.924 C42.011998,105.060001 41.5440026,105.128 41.016,105.128 C40.7333319,105.128 40.4573347,105.102667 40.188,105.052 C39.9186653,105.001333 39.6600012,104.930667 39.412,104.84 C39.1639988,104.749333 38.9346677,104.642667 38.724,104.52 C38.5133323,104.397333 38.3280008,104.264001 38.168,104.12 L38.624,103.368 C38.682667,103.277333 38.7519996,103.208 38.832,103.16 C38.9120004,103.112 39.0133327,103.088 39.136,103.088 C39.2586673,103.088 39.3746661,103.122666 39.484,103.192 C39.5933339,103.261334 39.7199993,103.336 39.864,103.416 C40.0080007,103.496 40.1773324,103.570666 40.372,103.64 C40.5666676,103.709334 40.8133318,103.744 41.112,103.744 C41.3466678,103.744 41.5479992,103.716 41.716,103.66 C41.8840008,103.604 42.0226661,103.530667 42.132,103.44 C42.2413339,103.349333 42.3213331,103.244001 42.372,103.124 C42.4226669,103.003999 42.448,102.880001 42.448,102.752 C42.448,102.559999 42.3906672,102.402667 42.276,102.28 C42.1613328,102.157333 42.0093343,102.050667 41.82,101.96 C41.6306657,101.869333 41.4146679,101.788 41.172,101.716 C40.9293321,101.644 40.6813346,101.565334 40.428,101.48 C40.1746654,101.394666 39.9266679,101.294667 39.684,101.18 C39.4413321,101.065333 39.2253343,100.920001 39.036,100.744 C38.8466657,100.567999 38.6946672,100.352001 38.58,100.096 C38.4653328,99.8399987 38.408,99.5306685 38.408,99.168 C38.408,98.8319983 38.474666,98.5120015 38.608,98.208 C38.741334,97.9039985 38.937332,97.6386678 39.196,97.412 C39.454668,97.1853322 39.7773314,97.0040007 40.164,96.868 C40.5506686,96.7319993 40.9973308,96.664 41.504,96.664 C42.0693362,96.664 42.5839977,96.7573324 43.048,96.944 C43.5120023,97.1306676 43.8986651,97.3759985 44.208,97.68 L43.76,98.392 Z" id="46---55-Years" fill="#333333"></path>
            <g id="Page-1" opacity="0.5" transform="translate(11.000000, 0.000000)" fill="#000000">
                <path d="M21.5052444,35.0868056 L21.5052444,19.0121452 C21.6706,19.3183279 21.8372,19.6697564 22.0017778,20.0799204 C22.7879556,22.0492412 23.4496889,25.2802482 23.4470444,30.3246042 C23.4475111,31.7145808 23.3983556,33.2418407 23.2897778,34.919733 C23.2180667,36.0309274 24.1573111,36.9854473 25.3886889,37.0496628 C25.4330222,37.052192 25.4770444,37.0530351 25.5207556,37.0530351 C26.6948889,37.0530351 27.6789333,36.226103 27.7475333,35.1536909 C27.8595333,33.4056815 27.9119556,31.8012787 27.9124222,30.3248852 C27.9007556,22.7159859 26.5562889,18.5054473 24.7212,15.9732225 C23.8042,14.7160328 22.7321111,13.9100375 21.7412222,13.4633396 C20.7750667,13.0235269 19.9269778,12.9282576 19.4259333,12.9248852 C19.3998,12.9241827 19.3742889,12.9213724 19.3481556,12.9213724 L17.5245778,12.9213724 C17.2355556,14.6369227 15.9144222,21.8825902 13.9570667,23.6508337 C11.9997111,21.8825902 10.6784222,14.6370632 10.3894,12.9213724 L8.56644444,12.9213724 C8.53455556,12.9213724 8.50344444,12.9244637 8.47217778,12.9257283 C7.96942222,12.9302248 7.12864444,13.0276019 6.17151111,13.4630585 C4.67024444,14.1354239 3.052,15.6066183 1.92017778,18.2127541 C0.773733333,20.8297096 0.00388888889,24.6122389 0,30.3243232 C0.000933333333,31.8011382 0.0528888889,33.4063841 0.167222222,35.154534 C0.2366,36.226103 1.22048889,37.0530351 2.394,37.0530351 C2.43817778,37.0530351 2.48188889,37.052192 2.52684444,37.0496628 C3.75744444,36.9840422 4.69715556,36.0298033 4.62513333,34.9181874 C4.51546667,33.2412787 4.46615556,31.7135972 4.46615556,30.3240422 C4.4562,24.2176721 5.44195556,20.7881171 6.41028889,18.9987963 L6.41028889,56.815377 C6.41028889,58.5369696 7.95557778,59.9320047 9.86051111,59.9320047 C11.7660667,59.9320047 13.3112,58.5369696 13.3112,56.815377 L13.3112,34.0585152 L14.6048,34.0585152 L14.6048,56.815377 C14.6048,58.5369696 16.1499333,59.9320047 18.0548667,59.9320047 C19.9602667,59.9320047 21.5055556,58.5369696 21.5055556,56.815377 L21.5055556,53.2437611 C21.6147556,53.5318173 21.3857778,44.7716768 21.5052444,44.4135035 L21.5052444,37.5047916" id="Fill-1"></path>
                <path d="M13.9573156,0.140501171 C17.4251156,0.140501171 20.2363156,2.67989227 20.2363156,5.81253864 C20.2363156,8.9450445 17.4251156,11.4844356 13.9573156,11.4844356 C10.48936,11.4844356 7.67816,8.9450445 7.67816,5.81253864 C7.67816,2.67989227 10.48936,0.140501171 13.9573156,0.140501171" id="Fill-4"></path>
                <polygon id="Fill-7" points="11.7246889 15.3258126 13.6783111 14.3174754 13.6783111 14.0653911 11.7246889 13.0570539"></polygon>
                <polygon id="Fill-9" points="16.1899267 13.0569836 14.2363044 14.0653208 14.2363044 14.3174052 16.1899267 15.3257424"></polygon>
                <path d="M13.9573156,15.7039391 C14.2654711,15.7039391 14.5154489,15.9296066 14.5154489,16.2081077 C14.5154489,16.4866089 14.2654711,16.7122763 13.9573156,16.7122763 C13.64916,16.7122763 13.3991822,16.4866089 13.3991822,16.2081077 C13.3991822,15.9296066 13.64916,15.7039391 13.9573156,15.7039391" id="Fill-11"></path>
                <path d="M13.9573156,17.4685433 C14.2654711,17.4685433 14.5154489,17.6942108 14.5154489,17.9727119 C14.5154489,18.2512131 14.2654711,18.4768806 13.9573156,18.4768806 C13.64916,18.4768806 13.3991822,18.2512131 13.3991822,17.9727119 C13.3991822,17.6942108 13.64916,17.4685433 13.9573156,17.4685433" id="Fill-13"></path>
                <path d="M13.9573156,19.4852881 C14.2654711,19.4852881 14.5154489,19.7109555 14.5154489,19.9894567 C14.5154489,20.2679578 14.2654711,20.4936253 13.9573156,20.4936253 C13.64916,20.4936253 13.3991822,20.2679578 13.3991822,19.9894567 C13.3991822,19.7109555 13.64916,19.4852881 13.9573156,19.4852881" id="Fill-15"></path>
            </g>
        </g>
    </g>
</svg>