<?xml version="1.0" encoding="UTF-8" standalone="no"?>
<svg width="90px" height="80px" viewBox="0 0 90 92" version="1.1" xmlns="http://www.w3.org/2000/svg" xmlns:xlink="http://www.w3.org/1999/xlink">
    <!-- Generator: Sketch 48.2 (47327) - http://www.bohemiancoding.com/sketch -->
    <title>Car_red</title>
    <desc>Created with Sketch.</desc>
    <defs></defs>
    <g id="Page4-Copy" stroke="none" stroke-width="1" fill="none" fill-rule="evenodd" transform="translate(-212.000000, -461.000000)">
        <g id="Car_red" transform="translate(212.000000, 461.000000)" fill="#D0021B">
            <text id="Car" font-family="Lato-Bold, Lato" font-size="16" font-weight="bold">
                <tspan x="30.18" y="91">Car</tspan>
            </text>
            <g id="Page-1">
                <path d="M85.3206493,56.5552194 L74.2318433,56.5552194 L74.2318433,60.4957716 C74.2318433,62.9704284 76.2478134,64.9863985 78.7222761,64.9863985 L85.2288731,64.9863985 C87.7033358,64.9863985 89.719694,62.9704284 89.719694,60.4957716 L89.719694,54.1723388 C88.803097,55.6384284 87.1536493,56.5552194 85.3206493,56.5552194" id="Fill-1"></path>
                <path d="M4.49054925,56.5552194 C2.65774328,56.5552194 1.00810149,55.6384284 -7.76119403e-05,54.1723388 L-7.76119403e-05,60.4957716 C-7.76119403e-05,62.9704284 2.01608657,64.9863985 4.49054925,64.9863985 L10.9973403,64.9863985 C13.471609,64.9863985 15.4877731,62.9704284 15.4877731,60.4957716 L15.4877731,56.5552194 L4.49054925,56.5552194 Z" id="Fill-3"></path>
                <path d="M82.2048015,26.954006 C83.3963388,26.6790657 84.5874881,27.5956627 84.5874881,28.8785881 L84.5874881,33.2774388 C84.5874881,34.7437224 83.4877269,36.0268418 82.0214433,36.2102 L68.6415328,37.7680657 C67.5417716,37.8596478 66.7169507,36.8516627 66.991891,35.8434836 L67.2668313,34.8354985 C68.1830403,31.627797 70.8408612,29.2451104 74.0483687,28.6036478 L82.2048015,26.954006 Z M82.5713239,47.5741403 C82.3879657,49.0404239 81.1968164,50.2317672 79.7303388,50.4149313 C77.3476522,50.7816478 75.4232642,48.7652896 75.7895925,46.4743791 C75.9731448,45.0077075 77.164294,43.8165582 78.6307716,43.6332 C81.0132642,43.2666776 82.9378463,45.2828418 82.5713239,47.5741403 Z M61.9513836,44.6413791 L27.8597567,44.6413791 L27.3098761,42.716797 L62.5930403,42.716797 L61.9513836,44.6413791 Z M61.1265627,47.9406627 L28.6845776,47.9406627 L28.0431149,46.0162746 L61.6764433,46.0162746 L61.1265627,47.9406627 Z M60.3017418,51.3315284 L29.5093985,51.3315284 L28.8677418,49.4067522 L60.9433985,49.4067522 L60.3017418,51.3315284 Z M21.1698015,37.6764836 L7.78989104,36.2102 C6.32341343,36.0268418 5.22365224,34.7437224 5.22365224,33.2774388 L5.22365224,28.8785881 C5.22365224,27.6872448 6.32341343,26.6790657 7.60633881,26.954006 L15.8543537,28.6036478 C19.0618612,29.2451104 21.7196821,31.627797 22.6360851,34.8354985 L22.9110254,35.8434836 C23.1859657,36.8516627 22.2695627,37.8596478 21.1698015,37.6764836 Z M14.1131299,47.5741403 C13.9297716,49.0404239 12.7384284,50.2317672 11.2721448,50.4149313 C8.88965224,50.7816478 6.96507015,48.7652896 7.33139851,46.4743791 C7.51475672,45.0077075 8.7061,43.8165582 10.1723836,43.6332 C12.4634881,43.2666776 14.3880701,45.2828418 14.1131299,47.5741403 Z M62.317906,31.9945134 L61.4932791,35.2020209 C61.0351746,37.126603 59.3855328,38.5928866 57.3691746,38.8678269 C47.0134134,40.2423343 37.390697,39.4177075 32.5335478,38.8678269 C30.5173836,38.5928866 28.8677418,37.126603 28.3178612,35.2020209 C28.0431149,34.1022597 27.7679806,32.8193343 27.4932343,31.9945134 C27.3098761,31.3528567 27.7679806,30.8029761 28.4096373,30.8029761 L61.2183388,30.8029761 C61.9513836,30.8029761 62.4096821,31.3528567 62.317906,31.9945134 Z M19.4285776,7.43382687 C20.1616224,5.23449851 22.1779806,3.7680209 24.5604731,3.7680209 L44.9056672,3.7680209 L65.2506672,3.7680209 C67.5417716,3.7680209 69.6495179,5.23449851 70.3825627,7.43382687 L74.2317269,17.8811701 L44.9056672,17.8811701 L15.5794134,17.8811701 L19.4285776,7.43382687 Z M86.9703687,17.8811701 C88.6200104,17.6064239 89.8113537,16.1401403 89.8113537,14.4904985 L89.8113537,14.2155582 C89.8113537,12.9324388 88.8031746,11.9244537 87.5202493,11.9244537 L81.746697,11.9244537 C80.0970552,11.9244537 78.8137418,13.2073791 78.8137418,14.8570209 L78.8137418,16.5982448 L78.080891,17.3314836 C77.8975328,16.9647672 77.6225925,16.5982448 77.5310104,16.1401403 L73.9567866,6.51742388 C72.5820851,2.76003582 69.0080552,0.193991045 64.9755328,0.193991045 L44.9056672,0.193991045 L24.8356075,0.193991045 C20.8032791,0.193991045 17.2290552,2.6682597 15.8543537,6.51742388 L12.2803239,16.1401403 C12.0969657,16.5982448 11.9136075,16.9647672 11.7304433,17.3314836 L10.9973985,16.5982448 L10.9973985,14.8570209 C10.9973985,13.2073791 9.7142791,11.9244537 8.06463731,11.9244537 L2.29108507,11.9244537 C1.00796567,11.9244537 -1.94029851e-05,12.9324388 -1.94029851e-05,14.2155582 L-1.94029851e-05,14.4904985 C-1.94029851e-05,16.1401403 1.19132388,17.6064239 2.84096567,17.8811701 L10.0808015,19.1642896 C9.89763731,19.3476478 9.7142791,19.5308119 9.43933881,19.622394 L5.68195075,22.0968567 C2.10772687,24.5713194 -1.94029851e-05,28.6036478 -1.94029851e-05,32.9109164 L-1.94029851e-05,51.1481701 C-1.94029851e-05,53.6224388 2.01614478,55.638409 4.49060746,55.638409 L44.9056672,55.638409 L85.3207269,55.638409 C87.7951896,55.638409 89.8113537,53.6224388 89.8113537,51.1481701 L89.8113537,32.9109164 C89.8113537,28.6036478 87.7034134,24.6629015 84.1291896,22.2802149 L80.3719955,19.8057522 C80.1886373,19.622394 79.913503,19.5308119 79.7303388,19.3474537 L86.9703687,17.8811701 Z" id="Fill-6"></path>
            </g>
        </g>
    </g>
</svg>