<?xml version="1.0" encoding="UTF-8" standalone="no"?>
<svg width="51px" height="62px" viewBox="0 0 51 62" version="1.1" xmlns="http://www.w3.org/2000/svg" xmlns:xlink="http://www.w3.org/1999/xlink">
    <!-- Generator: Sketch 48.2 (47327) - http://www.bohemiancoding.com/sketch -->
    <title>Declined</title>
    <desc>Created with Sketch.</desc>
    <defs></defs>
    <g id="Home-Page-Option-1" stroke="none" stroke-width="1" fill="none" fill-rule="evenodd" transform="translate(-914.000000, -198.000000)">
        <g id="Declined" transform="translate(913.000000, 198.000000)">
            <path d="M26.5,0 C14.05,0 4,10.05 4,22.5 C4,34.95 14.05,45 26.5,45 C38.95,45 49,34.95 49,22.5 C49,10.05 38.95,0 26.5,0 M26.5,2.50003125 C37.5499375,2.50003125 46.4999688,11.4499688 46.4999688,22.5 C46.4999688,33.5499375 37.5499375,42.4999687 26.5,42.4999687 C15.4499688,42.4999687 6.50003125,33.5499375 6.50003125,22.5 C6.50003125,11.4499688 15.4499688,2.50003125 26.5,2.50003125" id="Fill-5" fill="#333333"></path>
            <g id="Group-10" transform="translate(6.000000, 2.000000)">
                <path d="M20.499962,1.89814814e-05 C9.20218426,1.89814814e-05 -3.79629629e-05,9.15668565 -3.79629629e-05,20.500019 C-3.79629629e-05,31.8432574 9.1566287,41.000019 20.499962,41.000019 C31.8433903,41.000019 40.999962,31.8432574 40.999962,20.500019 C40.999962,9.15668565 31.7977398,1.89814814e-05 20.499962,1.89814814e-05" id="Path" fill="#FFFFFF"></path>
                <path d="M20.499962,37.5377019 C11.1156125,37.5377019 3.46218426,29.8844634 3.46218426,20.500019 C3.46218426,11.1155745 11.1156125,3.4622412 20.499962,3.4622412 C29.8844065,3.4622412 37.4921843,11.1155745 37.4921843,20.500019 C37.4921843,29.8844634 29.8844065,37.5377019 20.499962,37.5377019" id="Path" fill="#CC0000"></path>
                <path d="M19.11625,20.98175 L13.6619687,12.9444688 L15.8875,12.9444688 C16.0489383,12.9444688 16.1680934,12.9713747 16.2449687,13.0251875 C16.3218441,13.0790003 16.3910309,13.1558745 16.4525312,13.2558125 L20.7652187,19.87475 C20.8190315,19.7133117 20.8997495,19.536501 21.007375,19.3443125 L25.0779062,13.3019375 C25.1470941,13.194312 25.2220465,13.1078285 25.3027656,13.0424844 C25.3834848,12.9771403 25.4814994,12.9444688 25.5968125,12.9444688 L27.7300937,12.9444688 L22.25275,20.8779688 L27.9145937,29.46875 L25.7005937,29.46875 C25.5314679,29.46875 25.3988598,29.4245473 25.3027656,29.3361406 C25.2066714,29.2477339 25.1278753,29.1497193 25.066375,29.0420938 L20.638375,22.1118125 C20.5845622,22.2732508 20.5153754,22.4269993 20.4308125,22.5730625 L16.118125,29.0420938 C16.0489371,29.1497193 15.9701411,29.2477339 15.8817344,29.3361406 C15.7933277,29.4245473 15.668407,29.46875 15.5069687,29.46875 L13.4313437,29.46875 L19.11625,20.98175 Z" id="X" stroke="#FFFFFF" fill="#FFFFFF"></path>
            </g>
            <text font-family="Lato-Regular, Lato" font-size="14" font-weight="normal" letter-spacing="-0.223999977" fill="#333333">
                <tspan x="0.130999908" y="61">Declined</tspan>
            </text>
        </g>
    </g>
</svg>