<?xml version="1.0" encoding="UTF-8" standalone="no"?>
<svg width="250px" height="45px" viewBox="0 0 255 49" version="1.1" xmlns="http://www.w3.org/2000/svg" xmlns:xlink="http://www.w3.org/1999/xlink">
    <!-- Generator: Sketch 48.2 (47327) - http://www.bohemiancoding.com/sketch -->
    <title>Group 8</title>
    <desc>Created with Sketch.</desc>
    <defs></defs>
    <g id="Page5-Copy" stroke="none" stroke-width="1" fill="none" fill-rule="evenodd" transform="translate(-353.000000, -662.000000)">
        <g id="Group-8" transform="translate(353.000000, 662.000000)">
            <g id="Page-1-Copy-2">
                <path d="M24.4647987,0.103396203 C10.971359,0.103396203 2.07188161e-05,11.0515882 2.07188161e-05,24.5165608 C2.07188161e-05,37.9815333 10.971359,48.9296219 24.4647987,48.9296219 C37.9582385,48.9296219 48.9295767,37.9815333 48.9295767,24.5165608 C48.9295767,11.0515882 37.9582385,0.103396203 24.4647987,0.103396203" id="Fill-3" fill="#D0021B"></path>
                <path d="M17.1194294,13.2130051 C16.2748268,13.2118679 15.5892412,13.8941464 15.5881017,14.7369671 C15.5873765,15.2553954 15.8505055,15.7387793 16.2867402,16.0202709 L29.0566789,24.5159819 L16.2867402,33.0115895 C15.5838543,33.4789502 15.3936556,34.426697 15.8620044,35.1282034 C16.3304569,35.8296063 17.2801038,36.0194038 17.9830932,35.5519397 L32.6618564,25.7867772 C33.3648459,25.3196232 33.5552518,24.3722899 33.0872137,23.6708869 C32.9750214,23.5026949 32.830404,23.3584861 32.6618564,23.2465304 L17.9830932,13.4812646 C17.7288734,13.3069734 17.427829,13.2134186 17.1194294,13.2130051" id="Fill-1" fill="#FFFFFF" transform="translate(24.465901, 24.510635) scale(-1, 1) translate(-24.465901, -24.510635) "></path>
            </g>
            <path d="M68.756,31.308 C69.2200023,31.308 69.6459981,31.2860002 70.034,31.242 C70.4220019,31.1979998 70.7879983,31.1320004 71.132,31.044 C71.4760017,30.9559996 71.7999985,30.8500006 72.104,30.726 C72.4080015,30.6019994 72.7119985,30.4600008 73.016,30.3 L73.016,26.508 L70.352,26.508 C70.1999992,26.508 70.0780005,26.4640004 69.986,26.376 C69.8939995,26.2879996 69.848,26.1800006 69.848,26.052 L69.848,24.732 L75.128,24.732 L75.128,31.332 C74.6959978,31.6440016 74.2460023,31.9159988 73.778,32.148 C73.3099977,32.3800012 72.8100027,32.5739992 72.278,32.73 C71.7459973,32.8860008 71.176003,33.0019996 70.568,33.078 C69.959997,33.1540004 69.3000036,33.192 68.588,33.192 C67.3399938,33.192 66.1960052,32.9780021 65.156,32.55 C64.1159948,32.1219979 63.2200038,31.5220039 62.468,30.75 C61.7159962,29.9779961 61.1300021,29.0520054 60.71,27.972 C60.2899979,26.8919946 60.08,25.7040065 60.08,24.408 C60.08,23.0959934 60.2859979,21.9000054 60.698,20.82 C61.1100021,19.7399946 61.6979962,18.8140039 62.462,18.042 C63.2260038,17.2699961 64.1499946,16.6720021 65.234,16.248 C66.3180054,15.8239979 67.5319933,15.612 68.876,15.612 C69.5560034,15.612 70.1879971,15.6619995 70.772,15.762 C71.3560029,15.8620005 71.8979975,16.0059991 72.398,16.194 C72.8980025,16.3820009 73.3599979,16.6099987 73.784,16.878 C74.2080021,17.1460013 74.6039982,17.4479983 74.972,17.784 L74.312,18.84 C74.1759993,19.0560011 74.0000011,19.164 73.784,19.164 C73.6559994,19.164 73.5160008,19.1200004 73.364,19.032 C73.163999,18.9199994 72.9400012,18.7840008 72.692,18.624 C72.4439988,18.4639992 72.1420018,18.3100007 71.786,18.162 C71.4299982,18.0139993 71.0100024,17.8880005 70.526,17.784 C70.0419976,17.6799995 69.4680033,17.628 68.804,17.628 C67.8359952,17.628 66.9600039,17.7859984 66.176,18.102 C65.3919961,18.4180016 64.7240028,18.8699971 64.172,19.458 C63.6199972,20.0460029 63.1960015,20.7579958 62.9,21.594 C62.6039985,22.4300042 62.456,23.3679948 62.456,24.408 C62.456,25.4960054 62.6099985,26.4659957 62.918,27.318 C63.2260015,28.1700043 63.6599972,28.891997 64.22,29.484 C64.7800028,30.076003 65.4439962,30.5279984 66.212,30.84 C66.9800038,31.1520016 67.8279954,31.308 68.756,31.308 Z M83.288,20.652 C84.1760044,20.652 84.9779964,20.7999985 85.694,21.096 C86.4100036,21.3920015 87.0179975,21.8119973 87.518,22.356 C88.0180025,22.9000027 88.4019987,23.5579961 88.67,24.33 C88.9380013,25.1020039 89.072,25.9639952 89.072,26.916 C89.072,27.8760048 88.9380013,28.7399962 88.67,29.508 C88.4019987,30.2760038 88.0180025,30.9319973 87.518,31.476 C87.0179975,32.0200027 86.4100036,32.4379985 85.694,32.73 C84.9779964,33.0220015 84.1760044,33.168 83.288,33.168 C82.3999956,33.168 81.5980036,33.0220015 80.882,32.73 C80.1659964,32.4379985 79.5560025,32.0200027 79.052,31.476 C78.5479975,30.9319973 78.1600014,30.2760038 77.888,29.508 C77.6159986,28.7399962 77.48,27.8760048 77.48,26.916 C77.48,25.9639952 77.6159986,25.1020039 77.888,24.33 C78.1600014,23.5579961 78.5479975,22.9000027 79.052,22.356 C79.5560025,21.8119973 80.1659964,21.3920015 80.882,21.096 C81.5980036,20.7999985 82.3999956,20.652 83.288,20.652 Z M83.288,31.5 C84.488006,31.5 85.383997,31.098004 85.976,30.294 C86.568003,29.489996 86.864,28.3680072 86.864,26.928 C86.864,25.4799928 86.568003,24.352004 85.976,23.544 C85.383997,22.735996 84.488006,22.332 83.288,22.332 C82.679997,22.332 82.1520022,22.435999 81.704,22.644 C81.2559978,22.852001 80.8820015,23.151998 80.582,23.544 C80.2819985,23.936002 80.0580007,24.4179971 79.91,24.99 C79.7619993,25.5620029 79.688,26.2079964 79.688,26.928 C79.688,27.6480036 79.7619993,28.2919972 79.91,28.86 C80.0580007,29.4280028 80.2819985,29.9059981 80.582,30.294 C80.8820015,30.6820019 81.2559978,30.979999 81.704,31.188 C82.1520022,31.396001 82.679997,31.5 83.288,31.5 Z M100.028,33.192 C99.0679952,33.192 98.3300026,32.9240027 97.814,32.388 C97.2979974,31.8519973 97.04,31.080005 97.04,30.072 L97.04,22.632 L95.576,22.632 C95.4479994,22.632 95.3400004,22.5940004 95.252,22.518 C95.1639996,22.4419996 95.12,22.3240008 95.12,22.164 L95.12,21.312 L97.112,21.06 L97.604,17.304 C97.6200001,17.1839994 97.6719996,17.0860004 97.76,17.01 C97.8480004,16.9339996 97.9599993,16.896 98.096,16.896 L99.176,16.896 L99.176,21.084 L102.656,21.084 L102.656,22.632 L99.176,22.632 L99.176,29.928 C99.176,30.4400026 99.2999988,30.8199988 99.548,31.068 C99.7960012,31.3160012 100.115998,31.44 100.508,31.44 C100.732001,31.44 100.925999,31.4100003 101.09,31.35 C101.254001,31.2899997 101.395999,31.2240004 101.516,31.152 C101.636001,31.0799996 101.738,31.0140003 101.822,30.954 C101.906,30.8939997 101.98,30.864 102.044,30.864 C102.156001,30.864 102.256,30.9319993 102.344,31.068 L102.968,32.088 C102.599998,32.4320017 102.156003,32.701999 101.636,32.898 C101.115997,33.094001 100.580003,33.192 100.028,33.192 Z M110.216,20.652 C111.104004,20.652 111.905996,20.7999985 112.622,21.096 C113.338004,21.3920015 113.945997,21.8119973 114.446,22.356 C114.946002,22.9000027 115.329999,23.5579961 115.598,24.33 C115.866001,25.1020039 116,25.9639952 116,26.916 C116,27.8760048 115.866001,28.7399962 115.598,29.508 C115.329999,30.2760038 114.946002,30.9319973 114.446,31.476 C113.945997,32.0200027 113.338004,32.4379985 112.622,32.73 C111.905996,33.0220015 111.104004,33.168 110.216,33.168 C109.327996,33.168 108.526004,33.0220015 107.81,32.73 C107.093996,32.4379985 106.484003,32.0200027 105.98,31.476 C105.475997,30.9319973 105.088001,30.2760038 104.816,29.508 C104.543999,28.7399962 104.408,27.8760048 104.408,26.916 C104.408,25.9639952 104.543999,25.1020039 104.816,24.33 C105.088001,23.5579961 105.475997,22.9000027 105.98,22.356 C106.484003,21.8119973 107.093996,21.3920015 107.81,21.096 C108.526004,20.7999985 109.327996,20.652 110.216,20.652 Z M110.216,31.5 C111.416006,31.5 112.311997,31.098004 112.904,30.294 C113.496003,29.489996 113.792,28.3680072 113.792,26.928 C113.792,25.4799928 113.496003,24.352004 112.904,23.544 C112.311997,22.735996 111.416006,22.332 110.216,22.332 C109.607997,22.332 109.080002,22.435999 108.632,22.644 C108.183998,22.852001 107.810001,23.151998 107.51,23.544 C107.209998,23.936002 106.986001,24.4179971 106.838,24.99 C106.689999,25.5620029 106.616,26.2079964 106.616,26.928 C106.616,27.6480036 106.689999,28.2919972 106.838,28.86 C106.986001,29.4280028 107.209998,29.9059981 107.51,30.294 C107.810001,30.6820019 108.183998,30.979999 108.632,31.188 C109.080002,31.396001 109.607997,31.5 110.216,31.5 Z M134.204,15.804 L134.204,17.7 L125.948,17.7 L125.948,23.412 L132.632,23.412 L132.632,25.236 L125.948,25.236 L125.948,31.104 L134.204,31.104 L134.204,33 L123.608,33 L123.608,15.804 L134.204,15.804 Z M140.06,26.772 L135.968,20.844 L138.02,20.844 C138.196001,20.844 138.324,20.8719997 138.404,20.928 C138.484,20.9840003 138.556,21.0639995 138.62,21.168 L141.596,25.728 C141.668,25.5039989 141.771999,25.2800011 141.908,25.056 L144.524,21.216 C144.604,21.1039994 144.684,21.0140003 144.764,20.946 C144.844,20.8779997 144.943999,20.844 145.064,20.844 L147.032,20.844 L142.94,26.652 L147.2,33 L145.148,33 C144.971999,33 144.834,32.9540005 144.734,32.862 C144.633999,32.7699995 144.552,32.6680006 144.488,32.556 L141.428,27.792 C141.372,28.0240012 141.288001,28.2319991 141.176,28.416 L138.344,32.556 C138.264,32.6680006 138.178,32.7699995 138.086,32.862 C137.994,32.9540005 137.868001,33 137.708,33 L135.8,33 L140.06,26.772 Z M151.688,20.844 L151.688,33 L149.552,33 L149.552,20.844 L151.688,20.844 Z M152.168,17.028 C152.168,17.236001 152.126,17.4299991 152.042,17.61 C151.958,17.7900009 151.846001,17.9499993 151.706,18.09 C151.565999,18.2300007 151.404001,18.3399996 151.22,18.42 C151.035999,18.5000004 150.840001,18.54 150.632,18.54 C150.423999,18.54 150.230001,18.5000004 150.05,18.42 C149.869999,18.3399996 149.710001,18.2300007 149.57,18.09 C149.429999,17.9499993 149.32,17.7900009 149.24,17.61 C149.16,17.4299991 149.12,17.236001 149.12,17.028 C149.12,16.819999 149.16,16.6220009 149.24,16.434 C149.32,16.2459991 149.429999,16.0820007 149.57,15.942 C149.710001,15.8019993 149.869999,15.6920004 150.05,15.612 C150.230001,15.5319996 150.423999,15.492 150.632,15.492 C150.840001,15.492 151.035999,15.5319996 151.22,15.612 C151.404001,15.6920004 151.565999,15.8019993 151.706,15.942 C151.846001,16.0820007 151.958,16.2459991 152.042,16.434 C152.126,16.6220009 152.168,16.819999 152.168,17.028 Z M162.416,22.848 C162.32,23.0240009 162.172001,23.112 161.972,23.112 C161.851999,23.112 161.716001,23.0680004 161.564,22.98 C161.411999,22.8919996 161.226001,22.7940005 161.006,22.686 C160.785999,22.5779995 160.524002,22.4780005 160.22,22.386 C159.915998,22.2939995 159.556002,22.248 159.14,22.248 C158.779998,22.248 158.456001,22.2939995 158.168,22.386 C157.879999,22.4780005 157.634001,22.6039992 157.43,22.764 C157.225999,22.9240008 157.070001,23.1099989 156.962,23.322 C156.853999,23.5340011 156.8,23.7639988 156.8,24.012 C156.8,24.3240016 156.889999,24.583999 157.07,24.792 C157.250001,25.000001 157.487999,25.1799992 157.784,25.332 C158.080001,25.4840008 158.415998,25.6179994 158.792,25.734 C159.168002,25.8500006 159.553998,25.9739993 159.95,26.106 C160.346002,26.2380007 160.731998,26.3839992 161.108,26.544 C161.484002,26.7040008 161.819999,26.9039988 162.116,27.144 C162.412001,27.3840012 162.649999,27.6779983 162.83,28.026 C163.010001,28.3740017 163.1,28.7919976 163.1,29.28 C163.1,29.8400028 163.000001,30.3579976 162.8,30.834 C162.599999,31.3100024 162.304002,31.7219983 161.912,32.07 C161.519998,32.4180017 161.040003,32.691999 160.472,32.892 C159.903997,33.092001 159.248004,33.192 158.504,33.192 C157.655996,33.192 156.888003,33.0540014 156.2,32.778 C155.511997,32.5019986 154.928002,32.1480022 154.448,31.716 L154.952,30.9 C155.016,30.7959995 155.092,30.7160003 155.18,30.66 C155.268,30.6039997 155.383999,30.576 155.528,30.576 C155.672001,30.576 155.823999,30.6319994 155.984,30.744 C156.144001,30.8560006 156.337999,30.9799993 156.566,31.116 C156.794001,31.2520007 157.069998,31.3759994 157.394,31.488 C157.718002,31.6000006 158.123998,31.656 158.612,31.656 C159.028002,31.656 159.391998,31.6020005 159.704,31.494 C160.016002,31.3859995 160.275999,31.2400009 160.484,31.056 C160.692001,30.8719991 160.846,30.6600012 160.946,30.42 C161.046,30.1799988 161.096,29.9240014 161.096,29.652 C161.096,29.3159983 161.006001,29.0380011 160.826,28.818 C160.645999,28.5979989 160.408001,28.4100008 160.112,28.254 C159.815999,28.0979992 159.478002,27.9620006 159.098,27.846 C158.717998,27.7299994 158.330002,27.6080006 157.934,27.48 C157.537998,27.3519994 157.150002,27.2060008 156.77,27.042 C156.389998,26.8779992 156.052001,26.6720012 155.756,26.424 C155.459999,26.1759988 155.222001,25.8700018 155.042,25.506 C154.861999,25.1419982 154.772,24.7000026 154.772,24.18 C154.772,23.7159977 154.867999,23.2700021 155.06,22.842 C155.252001,22.4139979 155.531998,22.0380016 155.9,21.714 C156.268002,21.3899984 156.719997,21.132001 157.256,20.94 C157.792003,20.747999 158.403997,20.652 159.092,20.652 C159.892004,20.652 160.609997,20.7779987 161.246,21.03 C161.882003,21.2820013 162.431998,21.6279978 162.896,22.068 L162.416,22.848 Z M169.556,33.192 C168.595995,33.192 167.858003,32.9240027 167.342,32.388 C166.825997,31.8519973 166.568,31.080005 166.568,30.072 L166.568,22.632 L165.104,22.632 C164.975999,22.632 164.868,22.5940004 164.78,22.518 C164.692,22.4419996 164.648,22.3240008 164.648,22.164 L164.648,21.312 L166.64,21.06 L167.132,17.304 C167.148,17.1839994 167.2,17.0860004 167.288,17.01 C167.376,16.9339996 167.487999,16.896 167.624,16.896 L168.704,16.896 L168.704,21.084 L172.184,21.084 L172.184,22.632 L168.704,22.632 L168.704,29.928 C168.704,30.4400026 168.827999,30.8199988 169.076,31.068 C169.324001,31.3160012 169.643998,31.44 170.036,31.44 C170.260001,31.44 170.453999,31.4100003 170.618,31.35 C170.782001,31.2899997 170.923999,31.2240004 171.044,31.152 C171.164001,31.0799996 171.266,31.0140003 171.35,30.954 C171.434,30.8939997 171.508,30.864 171.572,30.864 C171.684001,30.864 171.784,30.9319993 171.872,31.068 L172.496,32.088 C172.127998,32.4320017 171.684003,32.701999 171.164,32.898 C170.643997,33.094001 170.108003,33.192 169.556,33.192 Z M177.2,20.844 L177.2,33 L175.064,33 L175.064,20.844 L177.2,20.844 Z M177.68,17.028 C177.68,17.236001 177.638,17.4299991 177.554,17.61 C177.47,17.7900009 177.358001,17.9499993 177.218,18.09 C177.077999,18.2300007 176.916001,18.3399996 176.732,18.42 C176.547999,18.5000004 176.352001,18.54 176.144,18.54 C175.935999,18.54 175.742001,18.5000004 175.562,18.42 C175.381999,18.3399996 175.222001,18.2300007 175.082,18.09 C174.941999,17.9499993 174.832,17.7900009 174.752,17.61 C174.672,17.4299991 174.632,17.236001 174.632,17.028 C174.632,16.819999 174.672,16.6220009 174.752,16.434 C174.832,16.2459991 174.941999,16.0820007 175.082,15.942 C175.222001,15.8019993 175.381999,15.6920004 175.562,15.612 C175.742001,15.5319996 175.935999,15.492 176.144,15.492 C176.352001,15.492 176.547999,15.5319996 176.732,15.612 C176.916001,15.6920004 177.077999,15.8019993 177.218,15.942 C177.358001,16.0820007 177.47,16.2459991 177.554,16.434 C177.638,16.6220009 177.68,16.819999 177.68,17.028 Z M180.968,33 L180.968,20.844 L182.24,20.844 C182.544002,20.844 182.736,20.9919985 182.816,21.288 L182.984,22.608 C183.512003,22.0239971 184.101997,21.5520018 184.754,21.192 C185.406003,20.8319982 186.159996,20.652 187.016,20.652 C187.680003,20.652 188.265997,20.7619989 188.774,20.982 C189.282003,21.2020011 189.705998,21.513998 190.046,21.918 C190.386002,22.322002 190.643999,22.8079972 190.82,23.376 C190.996001,23.9440028 191.084,24.5719966 191.084,25.26 L191.084,33 L188.948,33 L188.948,25.26 C188.948,24.3399954 188.738002,23.6260025 188.318,23.118 C187.897998,22.6099975 187.256004,22.356 186.392,22.356 C185.759997,22.356 185.170003,22.5079985 184.622,22.812 C184.073997,23.1160015 183.568002,23.5279974 183.104,24.048 L183.104,33 L180.968,33 Z M198.404,20.64 C198.932003,20.64 199.425998,20.6979994 199.886,20.814 C200.346002,20.9300006 200.763998,21.0999989 201.14,21.324 L204.44,21.324 L204.44,22.116 C204.44,22.3800013 204.272002,22.5479996 203.936,22.62 L202.556,22.812 C202.828001,23.3320026 202.964,23.9119968 202.964,24.552 C202.964,25.144003 202.850001,25.6819976 202.622,26.166 C202.393999,26.6500024 202.078002,27.0639983 201.674,27.408 C201.269998,27.7520017 200.790003,28.0159991 200.234,28.2 C199.677997,28.3840009 199.068003,28.476 198.404,28.476 C197.835997,28.476 197.300003,28.4080007 196.796,28.272 C196.539999,28.4320008 196.346001,28.6039991 196.214,28.788 C196.081999,28.9720009 196.016,29.1519991 196.016,29.328 C196.016,29.6160014 196.131999,29.8339993 196.364,29.982 C196.596001,30.1300007 196.903998,30.2359997 197.288,30.3 C197.672002,30.3640003 198.107998,30.4039999 198.596,30.42 C199.084002,30.4360001 199.581997,30.4619998 200.09,30.498 C200.598003,30.5340002 201.095998,30.5959996 201.584,30.684 C202.072002,30.7720004 202.507998,30.915999 202.892,31.116 C203.276002,31.316001 203.583999,31.5919982 203.816,31.944 C204.048001,32.2960018 204.164,32.7519972 204.164,33.312 C204.164,33.8320026 204.034001,34.3359976 203.774,34.824 C203.513999,35.3120024 203.140002,35.7459981 202.652,36.126 C202.163998,36.5060019 201.568004,36.8099989 200.864,37.038 C200.159996,37.2660011 199.364004,37.38 198.476,37.38 C197.587996,37.38 196.810003,37.2920009 196.142,37.116 C195.473997,36.9399991 194.920002,36.7040015 194.48,36.408 C194.039998,36.1119985 193.710001,35.7700019 193.49,35.382 C193.269999,34.9939981 193.16,34.5880021 193.16,34.164 C193.16,33.563997 193.349998,33.0540021 193.73,32.634 C194.110002,32.2139979 194.631997,31.8800012 195.296,31.632 C194.951998,31.4719992 194.678001,31.2580013 194.474,30.99 C194.269999,30.7219987 194.168,30.3640022 194.168,29.916 C194.168,29.7399991 194.2,29.5580009 194.264,29.37 C194.328,29.1819991 194.425999,28.9960009 194.558,28.812 C194.690001,28.6279991 194.851999,28.4520008 195.044,28.284 C195.236001,28.1159992 195.459999,27.9680006 195.716,27.84 C195.115997,27.5039983 194.646002,27.0580028 194.306,26.502 C193.965998,25.9459972 193.796,25.2960037 193.796,24.552 C193.796,23.959997 193.909999,23.4220024 194.138,22.938 C194.366001,22.4539976 194.683998,22.0420017 195.092,21.702 C195.500002,21.3619983 195.985997,21.1000009 196.55,20.916 C197.114003,20.7319991 197.731997,20.64 198.404,20.64 Z M202.196,33.66 C202.196,33.3559985 202.112001,33.1120009 201.944,32.928 C201.775999,32.7439991 201.548001,32.6020005 201.26,32.502 C200.971999,32.4019995 200.640002,32.3280002 200.264,32.28 C199.887998,32.2319998 199.492002,32.1980001 199.076,32.178 C198.659998,32.1579999 198.236002,32.1360001 197.804,32.112 C197.371998,32.0879999 196.960002,32.0440003 196.568,31.98 C196.111998,32.1960011 195.742001,32.4599984 195.458,32.772 C195.173999,33.0840016 195.032,33.4559978 195.032,33.888 C195.032,34.1600014 195.101999,34.4139988 195.242,34.65 C195.382001,34.8860012 195.595999,35.0899991 195.884,35.262 C196.172001,35.4340009 196.533998,35.5699995 196.97,35.67 C197.406002,35.7700005 197.919997,35.82 198.512,35.82 C199.088003,35.82 199.603998,35.7680005 200.06,35.664 C200.516002,35.5599995 200.901998,35.412001 201.218,35.22 C201.534002,35.027999 201.775999,34.8000013 201.944,34.536 C202.112001,34.2719987 202.196,33.9800016 202.196,33.66 Z M198.404,27.06 C198.836002,27.06 199.217998,27.0000006 199.55,26.88 C199.882002,26.7599994 200.159999,26.5920011 200.384,26.376 C200.608001,26.1599989 200.775999,25.9020015 200.888,25.602 C201.000001,25.3019985 201.056,24.9720018 201.056,24.612 C201.056,23.8679963 200.830002,23.2760022 200.378,22.836 C199.925998,22.3959978 199.268004,22.176 198.404,22.176 C197.547996,22.176 196.894002,22.3959978 196.442,22.836 C195.989998,23.2760022 195.764,23.8679963 195.764,24.612 C195.764,24.9720018 195.821999,25.3019985 195.938,25.602 C196.054001,25.9020015 196.223999,26.1599989 196.448,26.376 C196.672001,26.5920011 196.947998,26.7599994 197.276,26.88 C197.604002,27.0000006 197.979998,27.06 198.404,27.06 Z M214.1,26.568 L214.1,33 L211.784,33 L211.784,15.804 L216.86,15.804 C217.948005,15.804 218.893996,15.9299987 219.698,16.182 C220.502004,16.4340013 221.167997,16.7919977 221.696,17.256 C222.224003,17.7200023 222.617999,18.2799967 222.878,18.936 C223.138001,19.5920033 223.268,20.323996 223.268,21.132 C223.268,21.932004 223.128001,22.6639967 222.848,23.328 C222.567999,23.9920033 222.158003,24.5639976 221.618,25.044 C221.077997,25.5240024 220.408004,25.8979987 219.608,26.166 C218.807996,26.4340013 217.892005,26.568 216.86,26.568 L214.1,26.568 Z M214.1,24.72 L216.86,24.72 C217.524003,24.72 218.109997,24.6320009 218.618,24.456 C219.126003,24.2799991 219.551998,24.0340016 219.896,23.718 C220.240002,23.4019984 220.499999,23.0240022 220.676,22.584 C220.852001,22.1439978 220.94,21.6600026 220.94,21.132 C220.94,20.0359945 220.602003,19.1800031 219.926,18.564 C219.249997,17.9479969 218.228007,17.64 216.86,17.64 L214.1,17.64 L214.1,24.72 Z M228.248,15.324 L228.248,33 L226.112,33 L226.112,15.324 L228.248,15.324 Z M240.944,33 L239.996,33 C239.787999,33 239.620001,32.9680003 239.492,32.904 C239.363999,32.8399997 239.28,32.704001 239.24,32.496 L239,31.368 C238.679998,31.6560014 238.368002,31.9139989 238.064,32.142 C237.759998,32.3700011 237.440002,32.5619992 237.104,32.718 C236.767998,32.8740008 236.410002,32.9919996 236.03,33.072 C235.649998,33.1520004 235.228002,33.192 234.764,33.192 C234.291998,33.192 233.850002,33.1260007 233.438,32.994 C233.025998,32.8619993 232.668002,32.6640013 232.364,32.4 C232.059998,32.1359987 231.818001,31.802002 231.638,31.398 C231.457999,30.993998 231.368,30.5160028 231.368,29.964 C231.368,29.4839976 231.499999,29.0220022 231.764,28.578 C232.028001,28.1339978 232.453997,27.7400017 233.042,27.396 C233.630003,27.0519983 234.399995,26.7700011 235.352,26.55 C236.304005,26.3299989 237.467993,26.2040002 238.844,26.172 L238.844,25.224 C238.844,24.2799953 238.642002,23.5660024 238.238,23.082 C237.833998,22.5979976 237.236004,22.356 236.444,22.356 C235.923997,22.356 235.486002,22.4219993 235.13,22.554 C234.773998,22.6860007 234.466001,22.8339992 234.206,22.998 C233.945999,23.1620008 233.722001,23.3099993 233.534,23.442 C233.345999,23.5740007 233.160001,23.64 232.976,23.64 C232.831999,23.64 232.706001,23.6020004 232.598,23.526 C232.489999,23.4499996 232.404,23.3560006 232.34,23.244 L231.956,22.56 C232.628003,21.9119968 233.351996,21.4280016 234.128,21.108 C234.904004,20.7879984 235.763995,20.628 236.708,20.628 C237.388003,20.628 237.991997,20.7399989 238.52,20.964 C239.048003,21.1880011 239.491998,21.499998 239.852,21.9 C240.212002,22.300002 240.483999,22.7839972 240.668,23.352 C240.852001,23.9200028 240.944,24.5439966 240.944,25.224 L240.944,33 Z M235.4,31.692 C235.776002,31.692 236.119998,31.6540004 236.432,31.578 C236.744002,31.5019996 237.037999,31.3940007 237.314,31.254 C237.590001,31.1139993 237.853999,30.944001 238.106,30.744 C238.358001,30.543999 238.603999,30.3160013 238.844,30.06 L238.844,27.528 C237.859995,27.5600002 237.024003,27.6379994 236.336,27.762 C235.647997,27.8860006 235.088002,28.047999 234.656,28.248 C234.223998,28.448001 233.910001,28.6839986 233.714,28.956 C233.517999,29.2280014 233.42,29.5319983 233.42,29.868 C233.42,30.1880016 233.471999,30.4639988 233.576,30.696 C233.680001,30.9280012 233.819999,31.1179993 233.996,31.266 C234.172001,31.4140007 234.379999,31.5219997 234.62,31.59 C234.860001,31.6580003 235.119999,31.692 235.4,31.692 Z M244.184,33 L244.184,20.844 L245.456,20.844 C245.760002,20.844 245.952,20.9919985 246.032,21.288 L246.2,22.608 C246.728003,22.0239971 247.317997,21.5520018 247.97,21.192 C248.622003,20.8319982 249.375996,20.652 250.232,20.652 C250.896003,20.652 251.481997,20.7619989 251.99,20.982 C252.498003,21.2020011 252.921998,21.513998 253.262,21.918 C253.602002,22.322002 253.859999,22.8079972 254.036,23.376 C254.212001,23.9440028 254.3,24.5719966 254.3,25.26 L254.3,33 L252.164,33 L252.164,25.26 C252.164,24.3399954 251.954002,23.6260025 251.534,23.118 C251.113998,22.6099975 250.472004,22.356 249.608,22.356 C248.975997,22.356 248.386003,22.5079985 247.838,22.812 C247.289997,23.1160015 246.784002,23.5279974 246.32,24.048 L246.32,33 L244.184,33 Z" id="Go-to-Existing-Plan-Copy" fill="#333333"></path>
        </g>
    </g>
</svg>