<?xml version="1.0" encoding="UTF-8" standalone="no"?>
<svg width="90px" height="90px" viewBox="0 0 96 116" version="1.1" xmlns="http://www.w3.org/2000/svg" xmlns:xlink="http://www.w3.org/1999/xlink">
    <!-- Generator: Sketch 48.2 (47327) - http://www.bohemiancoding.com/sketch -->
    <title>LivingWith_Parents_Red</title>
    <desc>Created with Sketch.</desc>
    <defs></defs>
    <g id="Page4-Copy" stroke="none" stroke-width="1" fill="none" fill-rule="evenodd" transform="translate(-635.000000, -144.000000)">
        <g id="LivingWith_Parents_Red" transform="translate(635.000000, 144.000000)" fill="#D0021B">
            <path d="M10.664,94.224 L15.296,94.224 L15.296,96 L8.512,96 L8.512,84.432 L10.664,84.432 L10.664,94.224 Z M18.776,87.792 L18.776,96 L16.8,96 L16.8,87.792 L18.776,87.792 Z M19.072,85.4 C19.072,85.5706675 19.0373337,85.7306659 18.968,85.88 C18.8986663,86.0293341 18.8066672,86.1599994 18.692,86.272 C18.5773328,86.3840006 18.4426674,86.473333 18.288,86.54 C18.1333326,86.606667 17.9680009,86.64 17.792,86.64 C17.6213325,86.64 17.4600008,86.606667 17.308,86.54 C17.1559992,86.473333 17.0240006,86.3840006 16.912,86.272 C16.7999994,86.1599994 16.710667,86.0293341 16.644,85.88 C16.577333,85.7306659 16.544,85.5706675 16.544,85.4 C16.544,85.2239991 16.577333,85.0586674 16.644,84.904 C16.710667,84.7493326 16.7999994,84.6160006 16.912,84.504 C17.0240006,84.3919994 17.1559992,84.302667 17.308,84.236 C17.4600008,84.169333 17.6213325,84.136 17.792,84.136 C17.9680009,84.136 18.1333326,84.169333 18.288,84.236 C18.4426674,84.302667 18.5773328,84.3919994 18.692,84.504 C18.8066672,84.6160006 18.8986663,84.7493326 18.968,84.904 C19.0373337,85.0586674 19.072,85.2239991 19.072,85.4 Z M25.12,96 L23.328,96 L20.064,87.792 L21.704,87.792 C21.8480007,87.792 21.9693328,87.8266663 22.068,87.896 C22.1666672,87.9653337 22.2346665,88.0533328 22.272,88.16 L23.856,92.544 C23.9466671,92.8000013 24.0226664,93.0506654 24.084,93.296 C24.1453336,93.5413346 24.1999998,93.7866654 24.248,94.032 C24.2960002,93.7866654 24.3506664,93.5413346 24.412,93.296 C24.4733336,93.0506654 24.5519995,92.8000013 24.648,92.544 L26.272,88.16 C26.3093335,88.0533328 26.3759995,87.9653337 26.472,87.896 C26.5680005,87.8266663 26.682666,87.792 26.816,87.792 L28.376,87.792 L25.12,96 Z M31.648,87.792 L31.648,96 L29.672,96 L29.672,87.792 L31.648,87.792 Z M31.944,85.4 C31.944,85.5706675 31.9093337,85.7306659 31.84,85.88 C31.7706663,86.0293341 31.6786672,86.1599994 31.564,86.272 C31.4493328,86.3840006 31.3146674,86.473333 31.16,86.54 C31.0053326,86.606667 30.8400009,86.64 30.664,86.64 C30.4933325,86.64 30.3320008,86.606667 30.18,86.54 C30.0279992,86.473333 29.8960006,86.3840006 29.784,86.272 C29.6719994,86.1599994 29.582667,86.0293341 29.516,85.88 C29.449333,85.7306659 29.416,85.5706675 29.416,85.4 C29.416,85.2239991 29.449333,85.0586674 29.516,84.904 C29.582667,84.7493326 29.6719994,84.6160006 29.784,84.504 C29.8960006,84.3919994 30.0279992,84.302667 30.18,84.236 C30.3320008,84.169333 30.4933325,84.136 30.664,84.136 C30.8400009,84.136 31.0053326,84.169333 31.16,84.236 C31.3146674,84.302667 31.4493328,84.3919994 31.564,84.504 C31.6786672,84.6160006 31.7706663,84.7493326 31.84,84.904 C31.9093337,85.0586674 31.944,85.2239991 31.944,85.4 Z M33.88,96 L33.88,87.792 L35.088,87.792 C35.3440013,87.792 35.5119996,87.9119988 35.592,88.152 L35.728,88.8 C35.8933342,88.6293325 36.0679991,88.4746674 36.252,88.336 C36.4360009,88.1973326 36.6306656,88.0773338 36.836,87.976 C37.0413344,87.8746662 37.2613322,87.7973336 37.496,87.744 C37.7306678,87.6906664 37.9866653,87.664 38.264,87.664 C38.7120022,87.664 39.1093316,87.7399992 39.456,87.892 C39.8026684,88.0440008 40.0919988,88.257332 40.324,88.532 C40.5560012,88.806668 40.7319994,89.1346648 40.852,89.516 C40.9720006,89.8973352 41.032,90.317331 41.032,90.776 L41.032,96 L39.056,96 L39.056,90.776 C39.056,90.2746642 38.9400012,89.886668 38.708,89.612 C38.4759988,89.337332 38.1280023,89.2 37.664,89.2 C37.322665,89.2 37.0026682,89.2773326 36.704,89.432 C36.4053318,89.5866674 36.122668,89.797332 35.856,90.064 L35.856,96 L33.88,96 Z M45.816,87.648 C46.1680018,87.648 46.4986651,87.6839996 46.808,87.756 C47.1173349,87.8280004 47.3999987,87.9333326 47.656,88.072 L50.016,88.072 L50.016,88.808 C50.016,88.9306673 49.9840003,89.0266663 49.92,89.096 C49.8559997,89.1653337 49.7466674,89.2133332 49.592,89.24 L48.856,89.376 C48.9093336,89.5146674 48.9506665,89.6613326 48.98,89.816 C49.0093335,89.9706674 49.024,90.1333325 49.024,90.304 C49.024,90.7093354 48.9426675,91.0759984 48.78,91.404 C48.6173325,91.7320016 48.3933348,92.0106655 48.108,92.24 C47.8226652,92.4693345 47.484002,92.646666 47.092,92.772 C46.699998,92.897334 46.274669,92.96 45.816,92.96 C45.5066651,92.96 45.2053348,92.930667 44.912,92.872 C44.6559987,93.0266674 44.528,93.199999 44.528,93.392 C44.528,93.5573342 44.6039992,93.6786663 44.756,93.756 C44.9080008,93.8333337 45.1079988,93.8879998 45.356,93.92 C45.6040012,93.9520002 45.8853318,93.972 46.2,93.98 C46.5146682,93.988 46.8373317,94.0053332 47.168,94.032 C47.4986683,94.0586668 47.8213318,94.105333 48.136,94.172 C48.4506682,94.238667 48.7319988,94.3439993 48.98,94.488 C49.2280012,94.6320007 49.4279992,94.8279988 49.58,95.076 C49.7320008,95.3240012 49.808,95.6426647 49.808,96.032 C49.808,96.3946685 49.7186676,96.746665 49.54,97.088 C49.3613324,97.429335 49.1026684,97.733332 48.764,98 C48.4253316,98.266668 48.0106691,98.4813325 47.52,98.644 C47.0293309,98.8066675 46.4693365,98.888 45.84,98.888 C45.2159969,98.888 44.674669,98.8280006 44.216,98.708 C43.757331,98.5879994 43.3773348,98.428001 43.076,98.228 C42.7746652,98.027999 42.5493341,97.7973346 42.4,97.536 C42.2506659,97.2746654 42.176,97.0026681 42.176,96.72 C42.176,96.3359981 42.2933322,96.0133346 42.528,95.752 C42.7626678,95.4906654 43.0879979,95.2826674 43.504,95.128 C43.3013323,95.0159994 43.1386673,94.8666676 43.016,94.68 C42.8933327,94.4933324 42.832,94.2506682 42.832,93.952 C42.832,93.8293327 42.8533331,93.7026673 42.896,93.572 C42.9386669,93.4413327 43.0039996,93.3120006 43.092,93.184 C43.1800004,93.0559994 43.290666,92.9346672 43.424,92.82 C43.557334,92.7053328 43.7146658,92.6026671 43.896,92.512 C43.4799979,92.2879989 43.1533345,91.9893352 42.916,91.616 C42.6786655,91.2426648 42.56,90.8053358 42.56,90.304 C42.56,89.8986646 42.6413325,89.5320016 42.804,89.204 C42.9666675,88.8759984 43.1933319,88.5960012 43.484,88.364 C43.7746681,88.1319988 44.1186647,87.9546673 44.516,87.832 C44.9133353,87.7093327 45.3466643,87.648 45.816,87.648 Z M47.984,96.368 C47.984,96.2079992 47.9360005,96.0773338 47.84,95.976 C47.7439995,95.8746662 47.6133342,95.7960003 47.448,95.74 C47.2826658,95.6839997 47.0893344,95.6426668 46.868,95.616 C46.6466656,95.5893332 46.4120012,95.5693334 46.164,95.556 C45.9159988,95.5426666 45.6600013,95.5293334 45.396,95.516 C45.1319987,95.5026666 44.8773346,95.4800002 44.632,95.448 C44.4079989,95.5706673 44.2280007,95.7159992 44.092,95.884 C43.9559993,96.0520008 43.888,96.2453322 43.888,96.464 C43.888,96.6080007 43.9239996,96.742666 43.996,96.868 C44.0680004,96.993334 44.1826659,97.1013329 44.34,97.192 C44.4973341,97.2826671 44.7013321,97.3533331 44.952,97.404 C45.2026679,97.4546669 45.5093315,97.48 45.872,97.48 C46.2400018,97.48 46.557332,97.4520003 46.824,97.396 C47.090668,97.3399997 47.3106658,97.2626672 47.484,97.164 C47.6573342,97.0653328 47.7839996,96.9480007 47.864,96.812 C47.9440004,96.6759993 47.984,96.5280008 47.984,96.368 Z M45.816,91.696 C46.0613346,91.696 46.2746658,91.662667 46.456,91.596 C46.6373342,91.529333 46.7879994,91.4373339 46.908,91.32 C47.0280006,91.2026661 47.1186664,91.0613342 47.18,90.896 C47.2413336,90.7306658 47.272,90.5493343 47.272,90.352 C47.272,89.9466646 47.1506679,89.6253345 46.908,89.388 C46.6653321,89.1506655 46.3013358,89.032 45.816,89.032 C45.3306642,89.032 44.9666679,89.1506655 44.724,89.388 C44.4813321,89.6253345 44.36,89.9466646 44.36,90.352 C44.36,90.544001 44.3906664,90.7226658 44.452,90.888 C44.5133336,91.0533342 44.6039994,91.1959994 44.724,91.316 C44.8440006,91.4360006 44.9959991,91.529333 45.18,91.596 C45.3640009,91.662667 45.5759988,91.696 45.816,91.696 Z M53.384,84.432 L55.192,84.432 C55.3786676,84.432 55.534666,84.4759996 55.66,84.564 C55.785334,84.6520004 55.8693331,84.7706659 55.912,84.92 L57.88,91.84 C57.9280002,92.0106675 57.9719998,92.195999 58.012,92.396 C58.0520002,92.596001 58.0906665,92.8079989 58.128,93.032 C58.1706669,92.8079989 58.2173331,92.596001 58.268,92.396 C58.3186669,92.195999 58.373333,92.0106675 58.432,91.84 L60.704,84.92 C60.7466669,84.7973327 60.830666,84.6853338 60.956,84.584 C61.081334,84.4826662 61.2346658,84.432 61.416,84.432 L62.048,84.432 C62.2346676,84.432 62.3893327,84.4759996 62.512,84.564 C62.6346673,84.6520004 62.7199998,84.7706659 62.768,84.92 L65.024,91.84 C65.1413339,92.181335 65.2426662,92.5599979 65.328,92.976 C65.3653335,92.767999 65.4039998,92.568001 65.444,92.376 C65.4840002,92.183999 65.5253331,92.0053342 65.568,91.84 L67.536,84.92 C67.5733335,84.786666 67.6559994,84.6720005 67.784,84.576 C67.9120006,84.4799995 68.0666658,84.432 68.248,84.432 L69.936,84.432 L66.344,96 L64.4,96 L61.872,88.096 C61.8399998,87.9946662 61.8066668,87.8853339 61.772,87.768 C61.7373332,87.6506661 61.7040002,87.525334 61.672,87.392 C61.6399998,87.525334 61.6066668,87.6506661 61.572,87.768 C61.5373332,87.8853339 61.5040002,87.9946662 61.472,88.096 L58.92,96 L56.976,96 L53.384,84.432 Z M73.192,87.792 L73.192,96 L71.216,96 L71.216,87.792 L73.192,87.792 Z M73.488,85.4 C73.488,85.5706675 73.4533337,85.7306659 73.384,85.88 C73.3146663,86.0293341 73.2226672,86.1599994 73.108,86.272 C72.9933328,86.3840006 72.8586674,86.473333 72.704,86.54 C72.5493326,86.606667 72.3840009,86.64 72.208,86.64 C72.0373325,86.64 71.8760008,86.606667 71.724,86.54 C71.5719992,86.473333 71.4400006,86.3840006 71.328,86.272 C71.2159994,86.1599994 71.126667,86.0293341 71.06,85.88 C70.993333,85.7306659 70.96,85.5706675 70.96,85.4 C70.96,85.2239991 70.993333,85.0586674 71.06,84.904 C71.126667,84.7493326 71.2159994,84.6160006 71.328,84.504 C71.4400006,84.3919994 71.5719992,84.302667 71.724,84.236 C71.8760008,84.169333 72.0373325,84.136 72.208,84.136 C72.3840009,84.136 72.5493326,84.169333 72.704,84.236 C72.8586674,84.302667 72.9933328,84.3919994 73.108,84.504 C73.2226672,84.6160006 73.3146663,84.7493326 73.384,84.904 C73.4533337,85.0586674 73.488,85.2239991 73.488,85.4 Z M78.12,96.128 C77.4106631,96.128 76.8640019,95.9266687 76.48,95.524 C76.0959981,95.1213313 75.904,94.5653369 75.904,93.856 L75.904,89.272 L75.072,89.272 C74.9653328,89.272 74.8733337,89.2373337 74.796,89.168 C74.7186663,89.0986663 74.68,88.9946674 74.68,88.856 L74.68,88.072 L76,87.856 L76.416,85.616 C76.4373334,85.5093328 76.4866663,85.426667 76.564,85.368 C76.6413337,85.309333 76.7386661,85.28 76.856,85.28 L77.88,85.28 L77.88,87.864 L80.04,87.864 L80.04,89.272 L77.88,89.272 L77.88,93.72 C77.88,93.9760013 77.9439994,94.1759993 78.072,94.32 C78.2000006,94.4640007 78.3706656,94.536 78.584,94.536 C78.7066673,94.536 78.8093329,94.5213335 78.892,94.492 C78.9746671,94.4626665 79.0466664,94.4320002 79.108,94.4 C79.1693336,94.3679998 79.2239998,94.3373335 79.272,94.308 C79.3200002,94.2786665 79.3679998,94.264 79.416,94.264 C79.474667,94.264 79.5226665,94.2786665 79.56,94.308 C79.5973335,94.3373335 79.6373331,94.381333 79.68,94.44 L80.272,95.4 C79.9839986,95.6400012 79.6533352,95.8213327 79.28,95.944 C78.9066648,96.0666673 78.520002,96.128 78.12,96.128 Z M81.616,96 L81.616,84.112 L83.592,84.112 L83.592,88.68 C83.9120016,88.3759985 84.2639981,88.1306676 84.648,87.944 C85.0320019,87.7573324 85.4826641,87.664 86,87.664 C86.4480022,87.664 86.8453316,87.7399992 87.192,87.892 C87.5386684,88.0440008 87.8279988,88.257332 88.06,88.532 C88.2920012,88.806668 88.4679994,89.1346648 88.588,89.516 C88.7080006,89.8973352 88.768,90.317331 88.768,90.776 L88.768,96 L86.792,96 L86.792,90.776 C86.792,90.2746642 86.6760012,89.886668 86.444,89.612 C86.2119988,89.337332 85.8640023,89.2 85.4,89.2 C85.058665,89.2 84.7386682,89.2773326 84.44,89.432 C84.1413318,89.5866674 83.858668,89.797332 83.592,90.064 L83.592,96 L81.616,96 Z M24.22,110.928 L24.22,115 L22.068,115 L22.068,103.432 L25.836,103.432 C26.6093372,103.432 27.2786638,103.522666 27.844,103.704 C28.4093362,103.885334 28.8759982,104.138665 29.244,104.464 C29.6120018,104.789335 29.8839991,105.178664 30.06,105.632 C30.2360009,106.085336 30.324,106.581331 30.324,107.12 C30.324,107.680003 30.2306676,108.193331 30.044,108.66 C29.8573324,109.126669 29.5773352,109.527998 29.204,109.864 C28.8306648,110.200002 28.3640028,110.461332 27.804,110.648 C27.2439972,110.834668 26.5880038,110.928 25.836,110.928 L24.22,110.928 Z M24.22,109.248 L25.836,109.248 C26.2306686,109.248 26.5746652,109.198667 26.868,109.1 C27.1613348,109.001333 27.403999,108.860001 27.596,108.676 C27.788001,108.491999 27.9319995,108.268001 28.028,108.004 C28.1240005,107.739999 28.172,107.445335 28.172,107.12 C28.172,106.810665 28.1240005,106.530668 28.028,106.28 C27.9319995,106.029332 27.788001,105.816001 27.596,105.64 C27.403999,105.463999 27.1613348,105.329334 26.868,105.236 C26.5746652,105.142666 26.2306686,105.096 25.836,105.096 L24.22,105.096 L24.22,109.248 Z M37.916,115 L37.028,115 C36.8413324,115 36.6946672,114.972 36.588,114.916 C36.4813328,114.86 36.4013336,114.746668 36.348,114.576 L36.172,113.992 C35.963999,114.178668 35.760001,114.342666 35.56,114.484 C35.359999,114.625334 35.1533344,114.744 34.94,114.84 C34.7266656,114.936 34.5000012,115.008 34.26,115.056 C34.0199988,115.104 33.7533348,115.128 33.46,115.128 C33.1133316,115.128 32.7933348,115.081334 32.5,114.988 C32.2066652,114.894666 31.9546677,114.754668 31.744,114.568 C31.5333323,114.381332 31.3693339,114.149335 31.252,113.872 C31.1346661,113.594665 31.076,113.272002 31.076,112.904 C31.076,112.594665 31.1573325,112.289335 31.32,111.988 C31.4826675,111.686665 31.7533314,111.414668 32.132,111.172 C32.5106686,110.929332 33.0146635,110.728001 33.644,110.568 C34.2733365,110.407999 35.054662,110.317333 35.988,110.296 L35.988,109.816 C35.988,109.266664 35.8720012,108.860001 35.64,108.596 C35.4079988,108.331999 35.0706689,108.2 34.628,108.2 C34.3079984,108.2 34.0413344,108.237333 33.828,108.312 C33.6146656,108.386667 33.4293341,108.470666 33.272,108.564 C33.1146659,108.657334 32.969334,108.741333 32.836,108.816 C32.702666,108.890667 32.5560008,108.928 32.396,108.928 C32.262666,108.928 32.1480005,108.893334 32.052,108.824 C31.9559995,108.754666 31.878667,108.669334 31.82,108.568 L31.46,107.936 C32.4040047,107.071996 33.54266,106.64 34.876,106.64 C35.3560024,106.64 35.7839981,106.718666 36.16,106.876 C36.5360019,107.033334 36.8546654,107.251999 37.116,107.532 C37.3773346,107.812001 37.5759993,108.146665 37.712,108.536 C37.8480007,108.925335 37.916,109.351998 37.916,109.816 L37.916,115 Z M34.076,113.768 C34.2786677,113.768 34.4653325,113.749334 34.636,113.712 C34.8066675,113.674666 34.9679992,113.618667 35.12,113.544 C35.2720008,113.469333 35.418666,113.377334 35.56,113.268 C35.701334,113.158666 35.8439993,113.029334 35.988,112.88 L35.988,111.496 C35.4119971,111.522667 34.9306686,111.572 34.544,111.644 C34.1573314,111.716 33.8466678,111.807999 33.612,111.92 C33.3773322,112.032001 33.2106672,112.162666 33.112,112.312 C33.0133328,112.461334 32.964,112.623999 32.964,112.8 C32.964,113.146668 33.0666656,113.394666 33.272,113.544 C33.4773344,113.693334 33.7453317,113.768 34.076,113.768 Z M39.86,115 L39.86,106.792 L41.02,106.792 C41.2226677,106.792 41.3639996,106.829333 41.444,106.904 C41.5240004,106.978667 41.5773332,107.106666 41.604,107.288 L41.724,108.28 C42.0173348,107.773331 42.3613314,107.373335 42.756,107.08 C43.1506686,106.786665 43.5933309,106.64 44.084,106.64 C44.4893354,106.64 44.825332,106.733332 45.092,106.92 L44.836,108.4 C44.8199999,108.496 44.7853336,108.564 44.732,108.604 C44.6786664,108.644 44.6066671,108.664 44.516,108.664 C44.4359996,108.664 44.3266674,108.645334 44.188,108.608 C44.0493326,108.570666 43.8653345,108.552 43.636,108.552 C43.2253313,108.552 42.8733348,108.665332 42.58,108.892 C42.2866652,109.118668 42.0386677,109.450664 41.836,109.888 L41.836,115 L39.86,115 Z M49.788,106.664 C50.3053359,106.664 50.7813312,106.746666 51.216,106.912 C51.6506688,107.077334 52.0253318,107.318665 52.34,107.636 C52.6546682,107.953335 52.8999991,108.342664 53.076,108.804 C53.2520009,109.265336 53.34,109.791997 53.34,110.384 C53.34,110.533334 53.3333334,110.657333 53.32,110.756 C53.3066666,110.854667 53.2826668,110.932 53.248,110.988 C53.2133332,111.044 53.166667,111.084 53.108,111.108 C53.049333,111.132 52.9746671,111.144 52.884,111.144 L47.812,111.144 C47.870667,111.986671 48.0973314,112.605331 48.492,113 C48.8866686,113.394669 49.4093301,113.592 50.06,113.592 C50.3800016,113.592 50.6559988,113.554667 50.888,113.48 C51.1200012,113.405333 51.3226658,113.322667 51.496,113.232 C51.6693342,113.141333 51.8213327,113.058667 51.952,112.984 C52.0826673,112.909333 52.2093327,112.872 52.332,112.872 C52.4120004,112.872 52.481333,112.888 52.54,112.92 C52.598667,112.952 52.6493331,112.997333 52.692,113.056 L53.268,113.776 C53.0493322,114.032001 52.8040014,114.246666 52.532,114.42 C52.2599986,114.593334 51.9760015,114.731999 51.68,114.836 C51.3839985,114.940001 51.0826682,115.013333 50.776,115.056 C50.4693318,115.098667 50.1720014,115.12 49.884,115.12 C49.3133305,115.12 48.7826691,115.025334 48.292,114.836 C47.8013309,114.646666 47.3746685,114.366669 47.012,113.996 C46.6493315,113.625331 46.364001,113.166669 46.156,112.62 C45.947999,112.073331 45.844,111.440004 45.844,110.72 C45.844,110.159997 45.9346658,109.633336 46.116,109.14 C46.2973342,108.646664 46.5573316,108.217335 46.896,107.852 C47.2346684,107.486665 47.6479976,107.197334 48.136,106.984 C48.6240024,106.770666 49.1746636,106.664 49.788,106.664 Z M49.828,108.08 C49.2519971,108.08 48.801335,108.242665 48.476,108.568 C48.150665,108.893335 47.9426671,109.354664 47.852,109.952 L51.564,109.952 C51.564,109.695999 51.5293337,109.454668 51.46,109.228 C51.3906663,109.001332 51.2840007,108.802668 51.14,108.632 C50.9959993,108.461332 50.8146678,108.326667 50.596,108.228 C50.3773322,108.129333 50.1213348,108.08 49.828,108.08 Z M54.948,115 L54.948,106.792 L56.156,106.792 C56.4120013,106.792 56.5799996,106.911999 56.66,107.152 L56.796,107.8 C56.9613342,107.629332 57.1359991,107.474667 57.32,107.336 C57.5040009,107.197333 57.6986656,107.077334 57.904,106.976 C58.1093344,106.874666 58.3293322,106.797334 58.564,106.744 C58.7986678,106.690666 59.0546653,106.664 59.332,106.664 C59.7800022,106.664 60.1773316,106.739999 60.524,106.892 C60.8706684,107.044001 61.1599988,107.257332 61.392,107.532 C61.6240012,107.806668 61.7999994,108.134665 61.92,108.516 C62.0400006,108.897335 62.1,109.317331 62.1,109.776 L62.1,115 L60.124,115 L60.124,109.776 C60.124,109.274664 60.0080012,108.886668 59.776,108.612 C59.5439988,108.337332 59.1960023,108.2 58.732,108.2 C58.390665,108.2 58.0706682,108.277333 57.772,108.432 C57.4733318,108.586667 57.190668,108.797332 56.924,109.064 L56.924,115 L54.948,115 Z M66.74,115.128 C66.0306631,115.128 65.4840019,114.926669 65.1,114.524 C64.7159981,114.121331 64.524,113.565337 64.524,112.856 L64.524,108.272 L63.692,108.272 C63.5853328,108.272 63.4933337,108.237334 63.416,108.168 C63.3386663,108.098666 63.3,107.994667 63.3,107.856 L63.3,107.072 L64.62,106.856 L65.036,104.616 C65.0573334,104.509333 65.1066663,104.426667 65.184,104.368 C65.2613337,104.309333 65.3586661,104.28 65.476,104.28 L66.5,104.28 L66.5,106.864 L68.66,106.864 L68.66,108.272 L66.5,108.272 L66.5,112.72 C66.5,112.976001 66.5639994,113.175999 66.692,113.32 C66.8200006,113.464001 66.9906656,113.536 67.204,113.536 C67.3266673,113.536 67.4293329,113.521333 67.512,113.492 C67.5946671,113.462667 67.6666664,113.432 67.728,113.4 C67.7893336,113.368 67.8439998,113.337333 67.892,113.308 C67.9400002,113.278667 67.9879998,113.264 68.036,113.264 C68.094667,113.264 68.1426665,113.278667 68.18,113.308 C68.2173335,113.337333 68.2573331,113.381333 68.3,113.44 L68.892,114.4 C68.6039986,114.640001 68.2733352,114.821333 67.9,114.944 C67.5266648,115.066667 67.140002,115.128 66.74,115.128 Z M75.108,108.392 C75.0546664,108.477334 74.998667,108.537333 74.94,108.572 C74.881333,108.606667 74.8066671,108.624 74.716,108.624 C74.6199995,108.624 74.5173339,108.597334 74.408,108.544 C74.2986661,108.490666 74.1720007,108.430667 74.028,108.364 C73.8839993,108.297333 73.7200009,108.237334 73.536,108.184 C73.3519991,108.130666 73.1346679,108.104 72.884,108.104 C72.4946647,108.104 72.1880011,108.186666 71.964,108.352 C71.7399989,108.517334 71.628,108.733332 71.628,109 C71.628,109.176001 71.6853328,109.323999 71.8,109.444 C71.9146672,109.564001 72.0666657,109.669333 72.256,109.76 C72.4453343,109.850667 72.6599988,109.932 72.9,110.004 C73.1400012,110.076 73.3853321,110.154666 73.636,110.24 C73.8866679,110.325334 74.1319988,110.422666 74.372,110.532 C74.6120012,110.641334 74.8266657,110.779999 75.016,110.948 C75.2053343,111.116001 75.3573328,111.317332 75.472,111.552 C75.5866672,111.786668 75.644,112.069332 75.644,112.4 C75.644,112.794669 75.5720007,113.158665 75.428,113.492 C75.2839993,113.825335 75.0733347,114.113332 74.796,114.356 C74.5186653,114.598668 74.176002,114.787999 73.768,114.924 C73.359998,115.060001 72.8920026,115.128 72.364,115.128 C72.0813319,115.128 71.8053347,115.102667 71.536,115.052 C71.2666653,115.001333 71.0080012,114.930667 70.76,114.84 C70.5119988,114.749333 70.2826677,114.642667 70.072,114.52 C69.8613323,114.397333 69.6760008,114.264001 69.516,114.12 L69.972,113.368 C70.030667,113.277333 70.0999996,113.208 70.18,113.16 C70.2600004,113.112 70.3613327,113.088 70.484,113.088 C70.6066673,113.088 70.7226661,113.122666 70.832,113.192 C70.9413339,113.261334 71.0679993,113.336 71.212,113.416 C71.3560007,113.496 71.5253324,113.570666 71.72,113.64 C71.9146676,113.709334 72.1613318,113.744 72.46,113.744 C72.6946678,113.744 72.8959992,113.716 73.064,113.66 C73.2320008,113.604 73.3706661,113.530667 73.48,113.44 C73.5893339,113.349333 73.6693331,113.244001 73.72,113.124 C73.7706669,113.003999 73.796,112.880001 73.796,112.752 C73.796,112.559999 73.7386672,112.402667 73.624,112.28 C73.5093328,112.157333 73.3573343,112.050667 73.168,111.96 C72.9786657,111.869333 72.7626679,111.788 72.52,111.716 C72.2773321,111.644 72.0293346,111.565334 71.776,111.48 C71.5226654,111.394666 71.2746679,111.294667 71.032,111.18 C70.7893321,111.065333 70.5733343,110.920001 70.384,110.744 C70.1946657,110.567999 70.0426672,110.352001 69.928,110.096 C69.8133328,109.839999 69.756,109.530668 69.756,109.168 C69.756,108.831998 69.822666,108.512002 69.956,108.208 C70.089334,107.903998 70.285332,107.638668 70.544,107.412 C70.802668,107.185332 71.1253314,107.004001 71.512,106.868 C71.8986686,106.731999 72.3453308,106.664 72.852,106.664 C73.4173362,106.664 73.9319977,106.757332 74.396,106.944 C74.8600023,107.130668 75.2466651,107.375998 75.556,107.68 L75.108,108.392 Z" id="Living-With-Parents"></path>
            <g id="Group-4">
                <path d="M47.4481828,25.5218421 C47.3335364,24.336064 47.3054356,23.4960718 47.6706151,22.3151751 C49.068799,24.1814432 51.1276834,22.8686174 52.7228373,22.3608226 C52.9216543,23.3496306 52.9889381,24.1908101 52.929702,25.5792312 C54.1373803,24.5392347 54.1112584,21.7563237 53.452009,20.7717374 C52.3427497,19.1285614 48.2562481,19.0731512 47.0411817,20.4957419 C46.5763958,21.034672 45.9893116,24.765361 47.4481828,25.5218421 Z M63.7579089,41.0906548 L62.3719945,46.5897206 L63.8513147,53.5737795 L64.7734986,53.5737795 L65.9251071,61.7300278 L68.0580037,61.7300278 L67.8174971,53.5737795 L68.6449559,53.5737795 L68.7048517,61.7300278 L70.5406441,61.7300278 L71.5152039,53.5737795 L72.7515108,53.5737795 L73.7391315,46.4333847 L72.2137681,40.9030517 L73.9105073,43.7321378 L75.6688574,42.9744694 L72.8835718,30.0451608 L72.3482038,30.0451608 L71.2415831,30.0451608 L70.7349756,30.0451608 C70.2802162,31.1499344 69.1378428,31.9331971 67.7995547,31.9331971 C66.4628498,31.9331971 65.3200806,31.1499344 64.862023,30.0451608 L64.6270574,30.0451608 L63.1060476,30.0451608 L62.739021,30.0451608 L60.6165468,44.1950768 L62.1390078,44.7758284 L63.7579089,41.0906548 Z M63.7273014,27.4896955 C63.7528956,27.6915469 64.094328,28.3427486 64.6089831,28.4711155 C65.4389486,28.6841809 66.5924041,28.310294 66.5924041,28.310294 C66.2073033,27.9825823 65.8116481,27.5308573 65.5580805,26.9213452 C65.1212635,25.873301 65.1269365,24.5074398 65.1679664,23.782094 C66.3835605,25.9194762 68.4006234,23.8189022 70.2494768,24.0805174 C70.2726963,24.8438588 70.2278404,26.0023276 69.8501276,26.9220049 C69.5765068,27.5725469 69.1398217,28.0468318 68.7279393,28.3795568 C69.3510401,28.5745479 70.4352329,28.745264 71.156225,28.3501366 C71.8204877,27.9912896 71.6553125,24.8532258 71.5724611,24.1902824 C71.4278669,22.9651894 71.1020022,21.9076463 70.5666342,21.4559214 C69.0539359,20.1623572 66.3830327,20.1449426 64.9630806,21.3257074 C64.0339045,22.103429 63.4481396,25.5641913 63.7273014,27.4896955 Z M59.0357732,40.6263966 C58.0120039,41.7656037 56.9850684,42.91022 55.9611672,44.0554959 C56.1857104,49.8350428 55.6215819,55.619471 55.8548324,61.4035035 L52.2219027,61.4035035 C51.897885,56.5092004 51.2672643,51.6177997 50.9407399,46.7249478 L49.9668399,46.7249478 C49.7050927,51.6177997 48.717472,56.5092004 48.4538778,61.4035035 L44.6701532,61.4035035 C45.0198971,55.619471 44.4227863,49.8357024 44.7712109,44.0554959 C43.6825325,43.2348973 42.5908198,42.4123198 41.5022734,41.5917213 C41.978933,37.4814724 42.6457023,33.4443122 43.9953362,29.6257584 L46.6642605,29.6257584 L49.1698566,33.7340283 L49.7405816,30.1112572 L49.5007346,30.1112572 L49.5007346,29.0088582 L51.0241191,29.0088582 L51.0241191,30.1112572 L50.7730581,30.1112572 L51.6604128,33.6555306 L53.8202229,29.626418 L56.0672381,29.626418 C57.6543444,33.1906127 58.6039695,36.8640445 59.0357732,40.6263966 Z" id="Fill-1"></path>
                <path d="M27.5466103,30.7071847 C26.2625731,30.7071847 25.2038426,29.7531602 25.0336677,28.5159183 L24.1036522,28.5159183 C24.0554119,28.5159183 24.0076162,28.518586 23.9603762,28.5233655 C23.6341427,28.5378154 23.1347332,28.6194016 22.5746342,28.9017297 C21.6161636,29.3771302 20.5823314,30.4170759 19.8593935,32.2595447 C19.1275635,34.1090162 18.6362681,36.7836861 18.6336004,40.8218675 C18.634045,41.8657035 18.6672797,43.0004624 18.7400848,44.2363705 C18.7847682,44.9937657 19.4127816,45.5782071 20.1618403,45.5784294 C20.1900731,45.5784294 20.2184171,45.5775402 20.2470945,45.5758729 C21.0331671,45.5298556 21.6329477,44.855047 21.5868193,44.0691967 C21.5171264,42.8840855 21.4854479,41.8044583 21.4857814,40.8220898 C21.4795568,36.5068045 22.1086817,34.0820061 22.7268024,32.8167537 L22.7268024,41.0418389 C23.0185785,41.0999718 23.569563,41.205567 24.2422597,41.3116067 C25.2457472,41.469666 26.51489,41.6270584 27.5467214,41.6265026 C28.5785529,41.6268361 29.8479179,41.469666 30.851072,41.3116067 C31.5238799,41.205567 32.0749755,41.1001941 32.3666405,41.04195 L32.3666405,32.824201 C32.4723468,33.0409489 32.57872,33.2895978 32.6839817,33.5795954 C33.1861701,34.9720066 33.6086619,37.2563079 33.6071057,40.8216452 C33.6071057,41.8044583 33.5756495,42.8843078 33.5066236,44.0696413 C33.460384,44.8557139 34.0606092,45.5299668 34.8470153,45.5758729 C34.8751369,45.5775402 34.9032586,45.5784294 34.9310468,45.5784294 C35.6806613,45.5784294 36.3088969,44.9935434 36.3530246,44.2354812 C36.4248293,43.0000178 36.4582863,41.8652589 36.4582863,40.8216452 C36.4511725,35.4428499 35.5920725,32.4659555 34.4206331,30.6758396 C33.8353024,29.7870618 33.1503789,29.2175148 32.5173637,28.9018408 C31.9580427,28.6196239 31.4600782,28.5379266 31.1336224,28.5233655 C31.086049,28.5183637 31.0379198,28.515696 30.9890126,28.515696 L30.0593306,28.515696 C29.8893779,29.7531602 28.8306475,30.7071847 27.5466103,30.7071847" id="Fill-1"></path>
                <path d="M27.5463991,42.3395923 C25.7771799,42.3375916 23.5313375,41.9185455 22.7264801,41.7560401 L22.7264801,43.1345572 L21.6746411,59.3826517 C21.5957226,60.5971072 22.5167347,61.6450559 23.7306345,61.7236409 C24.94509,61.8022259 25.9930387,60.8823253 26.071846,59.667314 L26.9859667,45.554576 L28.1070538,45.554576 L29.0211745,59.667314 C29.0997595,60.8823253 30.1481528,61.8022259 31.3626083,61.7236409 C32.5765081,61.6452782 33.4975202,60.5973295 33.4187129,59.3826517 L32.3665404,43.1333345 L32.3665404,41.7681558 C31.4949913,41.9382196 29.2750475,42.3375916 27.5463991,42.3395923" id="Fill-4"></path>
                <path d="M27.5466103,19.4806515 C29.7611076,19.4806515 31.5563365,21.2758804 31.5563365,23.4904889 C31.5563365,25.7049862 29.7611076,27.5002151 27.5466103,27.5002151 C25.3320018,27.5002151 23.5367729,25.7049862 23.5367729,23.4904889 C23.5367729,21.2758804 25.3320018,19.4806515 27.5466103,19.4806515" id="Fill-7"></path>
                <path d="M94.9885821,22.0605705 L83.6403432,16.5887406 L83.6403432,6.81670811 C83.6403432,6.13725095 82.7532623,5.58572447 81.656012,5.58572447 L72.9136016,5.58572447 C71.8156756,5.58572447 70.9272431,6.13725095 70.9272431,6.81670811 L70.9272431,10.457984 L50.3171401,0.518915332 C48.8808708,-0.172971777 46.8731124,-0.172971777 45.4379695,0.518915332 L0.766752721,22.0605705 C-0.0982525865,22.4781608 -0.255710584,23.25189 0.418948503,23.7888916 L2.85966009,25.7328514 C3.53296761,26.269853 4.78091797,26.367477 5.64727485,25.9491883 L47.8775548,5.58516582 L90.1071589,25.9498867 C90.9732906,26.3681753 92.2223672,26.2705513 92.8956748,25.7335497 L95.33526,23.78959 C96.0110454,23.25189 95.8547137,22.4781608 94.9885821,22.0605705" id="Fill-1"></path>
                <rect id="Rectangle" x="4.23492182" y="63.2241251" width="88.0863738" height="6.77587491"></rect>
            </g>
        </g>
    </g>
</svg>