<?xml version="1.0" encoding="UTF-8" standalone="no"?>
<svg width="90px" height="90px" viewBox="0 0 96 116" version="1.1" xmlns="http://www.w3.org/2000/svg" xmlns:xlink="http://www.w3.org/1999/xlink">
    <!-- Generator: Sketch 48.2 (47327) - http://www.bohemiancoding.com/sketch -->
    <title>LivingWith_Parents</title>
    <desc>Created with Sketch.</desc>
    <defs></defs>
    <g id="Page4-Copy" stroke="none" stroke-width="1" fill="none" fill-rule="evenodd" transform="translate(-635.000000, -144.000000)">
        <g id="LivingWith_Parents" transform="translate(635.000000, 144.000000)">
            <path d="M10.664,94.224 L15.296,94.224 L15.296,96 L8.512,96 L8.512,84.432 L10.664,84.432 L10.664,94.224 Z M18.776,87.792 L18.776,96 L16.8,96 L16.8,87.792 L18.776,87.792 Z M19.072,85.4 C19.072,85.5706675 19.0373337,85.7306659 18.968,85.88 C18.8986663,86.0293341 18.8066672,86.1599994 18.692,86.272 C18.5773328,86.3840006 18.4426674,86.473333 18.288,86.54 C18.1333326,86.606667 17.9680009,86.64 17.792,86.64 C17.6213325,86.64 17.4600008,86.606667 17.308,86.54 C17.1559992,86.473333 17.0240006,86.3840006 16.912,86.272 C16.7999994,86.1599994 16.710667,86.0293341 16.644,85.88 C16.577333,85.7306659 16.544,85.5706675 16.544,85.4 C16.544,85.2239991 16.577333,85.0586674 16.644,84.904 C16.710667,84.7493326 16.7999994,84.6160006 16.912,84.504 C17.0240006,84.3919994 17.1559992,84.302667 17.308,84.236 C17.4600008,84.169333 17.6213325,84.136 17.792,84.136 C17.9680009,84.136 18.1333326,84.169333 18.288,84.236 C18.4426674,84.302667 18.5773328,84.3919994 18.692,84.504 C18.8066672,84.6160006 18.8986663,84.7493326 18.968,84.904 C19.0373337,85.0586674 19.072,85.2239991 19.072,85.4 Z M25.12,96 L23.328,96 L20.064,87.792 L21.704,87.792 C21.8480007,87.792 21.9693328,87.8266663 22.068,87.896 C22.1666672,87.9653337 22.2346665,88.0533328 22.272,88.16 L23.856,92.544 C23.9466671,92.8000013 24.0226664,93.0506654 24.084,93.296 C24.1453336,93.5413346 24.1999998,93.7866654 24.248,94.032 C24.2960002,93.7866654 24.3506664,93.5413346 24.412,93.296 C24.4733336,93.0506654 24.5519995,92.8000013 24.648,92.544 L26.272,88.16 C26.3093335,88.0533328 26.3759995,87.9653337 26.472,87.896 C26.5680005,87.8266663 26.682666,87.792 26.816,87.792 L28.376,87.792 L25.12,96 Z M31.648,87.792 L31.648,96 L29.672,96 L29.672,87.792 L31.648,87.792 Z M31.944,85.4 C31.944,85.5706675 31.9093337,85.7306659 31.84,85.88 C31.7706663,86.0293341 31.6786672,86.1599994 31.564,86.272 C31.4493328,86.3840006 31.3146674,86.473333 31.16,86.54 C31.0053326,86.606667 30.8400009,86.64 30.664,86.64 C30.4933325,86.64 30.3320008,86.606667 30.18,86.54 C30.0279992,86.473333 29.8960006,86.3840006 29.784,86.272 C29.6719994,86.1599994 29.582667,86.0293341 29.516,85.88 C29.449333,85.7306659 29.416,85.5706675 29.416,85.4 C29.416,85.2239991 29.449333,85.0586674 29.516,84.904 C29.582667,84.7493326 29.6719994,84.6160006 29.784,84.504 C29.8960006,84.3919994 30.0279992,84.302667 30.18,84.236 C30.3320008,84.169333 30.4933325,84.136 30.664,84.136 C30.8400009,84.136 31.0053326,84.169333 31.16,84.236 C31.3146674,84.302667 31.4493328,84.3919994 31.564,84.504 C31.6786672,84.6160006 31.7706663,84.7493326 31.84,84.904 C31.9093337,85.0586674 31.944,85.2239991 31.944,85.4 Z M33.88,96 L33.88,87.792 L35.088,87.792 C35.3440013,87.792 35.5119996,87.9119988 35.592,88.152 L35.728,88.8 C35.8933342,88.6293325 36.0679991,88.4746674 36.252,88.336 C36.4360009,88.1973326 36.6306656,88.0773338 36.836,87.976 C37.0413344,87.8746662 37.2613322,87.7973336 37.496,87.744 C37.7306678,87.6906664 37.9866653,87.664 38.264,87.664 C38.7120022,87.664 39.1093316,87.7399992 39.456,87.892 C39.8026684,88.0440008 40.0919988,88.257332 40.324,88.532 C40.5560012,88.806668 40.7319994,89.1346648 40.852,89.516 C40.9720006,89.8973352 41.032,90.317331 41.032,90.776 L41.032,96 L39.056,96 L39.056,90.776 C39.056,90.2746642 38.9400012,89.886668 38.708,89.612 C38.4759988,89.337332 38.1280023,89.2 37.664,89.2 C37.322665,89.2 37.0026682,89.2773326 36.704,89.432 C36.4053318,89.5866674 36.122668,89.797332 35.856,90.064 L35.856,96 L33.88,96 Z M45.816,87.648 C46.1680018,87.648 46.4986651,87.6839996 46.808,87.756 C47.1173349,87.8280004 47.3999987,87.9333326 47.656,88.072 L50.016,88.072 L50.016,88.808 C50.016,88.9306673 49.9840003,89.0266663 49.92,89.096 C49.8559997,89.1653337 49.7466674,89.2133332 49.592,89.24 L48.856,89.376 C48.9093336,89.5146674 48.9506665,89.6613326 48.98,89.816 C49.0093335,89.9706674 49.024,90.1333325 49.024,90.304 C49.024,90.7093354 48.9426675,91.0759984 48.78,91.404 C48.6173325,91.7320016 48.3933348,92.0106655 48.108,92.24 C47.8226652,92.4693345 47.484002,92.646666 47.092,92.772 C46.699998,92.897334 46.274669,92.96 45.816,92.96 C45.5066651,92.96 45.2053348,92.930667 44.912,92.872 C44.6559987,93.0266674 44.528,93.199999 44.528,93.392 C44.528,93.5573342 44.6039992,93.6786663 44.756,93.756 C44.9080008,93.8333337 45.1079988,93.8879998 45.356,93.92 C45.6040012,93.9520002 45.8853318,93.972 46.2,93.98 C46.5146682,93.988 46.8373317,94.0053332 47.168,94.032 C47.4986683,94.0586668 47.8213318,94.105333 48.136,94.172 C48.4506682,94.238667 48.7319988,94.3439993 48.98,94.488 C49.2280012,94.6320007 49.4279992,94.8279988 49.58,95.076 C49.7320008,95.3240012 49.808,95.6426647 49.808,96.032 C49.808,96.3946685 49.7186676,96.746665 49.54,97.088 C49.3613324,97.429335 49.1026684,97.733332 48.764,98 C48.4253316,98.266668 48.0106691,98.4813325 47.52,98.644 C47.0293309,98.8066675 46.4693365,98.888 45.84,98.888 C45.2159969,98.888 44.674669,98.8280006 44.216,98.708 C43.757331,98.5879994 43.3773348,98.428001 43.076,98.228 C42.7746652,98.027999 42.5493341,97.7973346 42.4,97.536 C42.2506659,97.2746654 42.176,97.0026681 42.176,96.72 C42.176,96.3359981 42.2933322,96.0133346 42.528,95.752 C42.7626678,95.4906654 43.0879979,95.2826674 43.504,95.128 C43.3013323,95.0159994 43.1386673,94.8666676 43.016,94.68 C42.8933327,94.4933324 42.832,94.2506682 42.832,93.952 C42.832,93.8293327 42.8533331,93.7026673 42.896,93.572 C42.9386669,93.4413327 43.0039996,93.3120006 43.092,93.184 C43.1800004,93.0559994 43.290666,92.9346672 43.424,92.82 C43.557334,92.7053328 43.7146658,92.6026671 43.896,92.512 C43.4799979,92.2879989 43.1533345,91.9893352 42.916,91.616 C42.6786655,91.2426648 42.56,90.8053358 42.56,90.304 C42.56,89.8986646 42.6413325,89.5320016 42.804,89.204 C42.9666675,88.8759984 43.1933319,88.5960012 43.484,88.364 C43.7746681,88.1319988 44.1186647,87.9546673 44.516,87.832 C44.9133353,87.7093327 45.3466643,87.648 45.816,87.648 Z M47.984,96.368 C47.984,96.2079992 47.9360005,96.0773338 47.84,95.976 C47.7439995,95.8746662 47.6133342,95.7960003 47.448,95.74 C47.2826658,95.6839997 47.0893344,95.6426668 46.868,95.616 C46.6466656,95.5893332 46.4120012,95.5693334 46.164,95.556 C45.9159988,95.5426666 45.6600013,95.5293334 45.396,95.516 C45.1319987,95.5026666 44.8773346,95.4800002 44.632,95.448 C44.4079989,95.5706673 44.2280007,95.7159992 44.092,95.884 C43.9559993,96.0520008 43.888,96.2453322 43.888,96.464 C43.888,96.6080007 43.9239996,96.742666 43.996,96.868 C44.0680004,96.993334 44.1826659,97.1013329 44.34,97.192 C44.4973341,97.2826671 44.7013321,97.3533331 44.952,97.404 C45.2026679,97.4546669 45.5093315,97.48 45.872,97.48 C46.2400018,97.48 46.557332,97.4520003 46.824,97.396 C47.090668,97.3399997 47.3106658,97.2626672 47.484,97.164 C47.6573342,97.0653328 47.7839996,96.9480007 47.864,96.812 C47.9440004,96.6759993 47.984,96.5280008 47.984,96.368 Z M45.816,91.696 C46.0613346,91.696 46.2746658,91.662667 46.456,91.596 C46.6373342,91.529333 46.7879994,91.4373339 46.908,91.32 C47.0280006,91.2026661 47.1186664,91.0613342 47.18,90.896 C47.2413336,90.7306658 47.272,90.5493343 47.272,90.352 C47.272,89.9466646 47.1506679,89.6253345 46.908,89.388 C46.6653321,89.1506655 46.3013358,89.032 45.816,89.032 C45.3306642,89.032 44.9666679,89.1506655 44.724,89.388 C44.4813321,89.6253345 44.36,89.9466646 44.36,90.352 C44.36,90.544001 44.3906664,90.7226658 44.452,90.888 C44.5133336,91.0533342 44.6039994,91.1959994 44.724,91.316 C44.8440006,91.4360006 44.9959991,91.529333 45.18,91.596 C45.3640009,91.662667 45.5759988,91.696 45.816,91.696 Z M53.384,84.432 L55.192,84.432 C55.3786676,84.432 55.534666,84.4759996 55.66,84.564 C55.785334,84.6520004 55.8693331,84.7706659 55.912,84.92 L57.88,91.84 C57.9280002,92.0106675 57.9719998,92.195999 58.012,92.396 C58.0520002,92.596001 58.0906665,92.8079989 58.128,93.032 C58.1706669,92.8079989 58.2173331,92.596001 58.268,92.396 C58.3186669,92.195999 58.373333,92.0106675 58.432,91.84 L60.704,84.92 C60.7466669,84.7973327 60.830666,84.6853338 60.956,84.584 C61.081334,84.4826662 61.2346658,84.432 61.416,84.432 L62.048,84.432 C62.2346676,84.432 62.3893327,84.4759996 62.512,84.564 C62.6346673,84.6520004 62.7199998,84.7706659 62.768,84.92 L65.024,91.84 C65.1413339,92.181335 65.2426662,92.5599979 65.328,92.976 C65.3653335,92.767999 65.4039998,92.568001 65.444,92.376 C65.4840002,92.183999 65.5253331,92.0053342 65.568,91.84 L67.536,84.92 C67.5733335,84.786666 67.6559994,84.6720005 67.784,84.576 C67.9120006,84.4799995 68.0666658,84.432 68.248,84.432 L69.936,84.432 L66.344,96 L64.4,96 L61.872,88.096 C61.8399998,87.9946662 61.8066668,87.8853339 61.772,87.768 C61.7373332,87.6506661 61.7040002,87.525334 61.672,87.392 C61.6399998,87.525334 61.6066668,87.6506661 61.572,87.768 C61.5373332,87.8853339 61.5040002,87.9946662 61.472,88.096 L58.92,96 L56.976,96 L53.384,84.432 Z M73.192,87.792 L73.192,96 L71.216,96 L71.216,87.792 L73.192,87.792 Z M73.488,85.4 C73.488,85.5706675 73.4533337,85.7306659 73.384,85.88 C73.3146663,86.0293341 73.2226672,86.1599994 73.108,86.272 C72.9933328,86.3840006 72.8586674,86.473333 72.704,86.54 C72.5493326,86.606667 72.3840009,86.64 72.208,86.64 C72.0373325,86.64 71.8760008,86.606667 71.724,86.54 C71.5719992,86.473333 71.4400006,86.3840006 71.328,86.272 C71.2159994,86.1599994 71.126667,86.0293341 71.06,85.88 C70.993333,85.7306659 70.96,85.5706675 70.96,85.4 C70.96,85.2239991 70.993333,85.0586674 71.06,84.904 C71.126667,84.7493326 71.2159994,84.6160006 71.328,84.504 C71.4400006,84.3919994 71.5719992,84.302667 71.724,84.236 C71.8760008,84.169333 72.0373325,84.136 72.208,84.136 C72.3840009,84.136 72.5493326,84.169333 72.704,84.236 C72.8586674,84.302667 72.9933328,84.3919994 73.108,84.504 C73.2226672,84.6160006 73.3146663,84.7493326 73.384,84.904 C73.4533337,85.0586674 73.488,85.2239991 73.488,85.4 Z M78.12,96.128 C77.4106631,96.128 76.8640019,95.9266687 76.48,95.524 C76.0959981,95.1213313 75.904,94.5653369 75.904,93.856 L75.904,89.272 L75.072,89.272 C74.9653328,89.272 74.8733337,89.2373337 74.796,89.168 C74.7186663,89.0986663 74.68,88.9946674 74.68,88.856 L74.68,88.072 L76,87.856 L76.416,85.616 C76.4373334,85.5093328 76.4866663,85.426667 76.564,85.368 C76.6413337,85.309333 76.7386661,85.28 76.856,85.28 L77.88,85.28 L77.88,87.864 L80.04,87.864 L80.04,89.272 L77.88,89.272 L77.88,93.72 C77.88,93.9760013 77.9439994,94.1759993 78.072,94.32 C78.2000006,94.4640007 78.3706656,94.536 78.584,94.536 C78.7066673,94.536 78.8093329,94.5213335 78.892,94.492 C78.9746671,94.4626665 79.0466664,94.4320002 79.108,94.4 C79.1693336,94.3679998 79.2239998,94.3373335 79.272,94.308 C79.3200002,94.2786665 79.3679998,94.264 79.416,94.264 C79.474667,94.264 79.5226665,94.2786665 79.56,94.308 C79.5973335,94.3373335 79.6373331,94.381333 79.68,94.44 L80.272,95.4 C79.9839986,95.6400012 79.6533352,95.8213327 79.28,95.944 C78.9066648,96.0666673 78.520002,96.128 78.12,96.128 Z M81.616,96 L81.616,84.112 L83.592,84.112 L83.592,88.68 C83.9120016,88.3759985 84.2639981,88.1306676 84.648,87.944 C85.0320019,87.7573324 85.4826641,87.664 86,87.664 C86.4480022,87.664 86.8453316,87.7399992 87.192,87.892 C87.5386684,88.0440008 87.8279988,88.257332 88.06,88.532 C88.2920012,88.806668 88.4679994,89.1346648 88.588,89.516 C88.7080006,89.8973352 88.768,90.317331 88.768,90.776 L88.768,96 L86.792,96 L86.792,90.776 C86.792,90.2746642 86.6760012,89.886668 86.444,89.612 C86.2119988,89.337332 85.8640023,89.2 85.4,89.2 C85.058665,89.2 84.7386682,89.2773326 84.44,89.432 C84.1413318,89.5866674 83.858668,89.797332 83.592,90.064 L83.592,96 L81.616,96 Z M24.22,110.928 L24.22,115 L22.068,115 L22.068,103.432 L25.836,103.432 C26.6093372,103.432 27.2786638,103.522666 27.844,103.704 C28.4093362,103.885334 28.8759982,104.138665 29.244,104.464 C29.6120018,104.789335 29.8839991,105.178664 30.06,105.632 C30.2360009,106.085336 30.324,106.581331 30.324,107.12 C30.324,107.680003 30.2306676,108.193331 30.044,108.66 C29.8573324,109.126669 29.5773352,109.527998 29.204,109.864 C28.8306648,110.200002 28.3640028,110.461332 27.804,110.648 C27.2439972,110.834668 26.5880038,110.928 25.836,110.928 L24.22,110.928 Z M24.22,109.248 L25.836,109.248 C26.2306686,109.248 26.5746652,109.198667 26.868,109.1 C27.1613348,109.001333 27.403999,108.860001 27.596,108.676 C27.788001,108.491999 27.9319995,108.268001 28.028,108.004 C28.1240005,107.739999 28.172,107.445335 28.172,107.12 C28.172,106.810665 28.1240005,106.530668 28.028,106.28 C27.9319995,106.029332 27.788001,105.816001 27.596,105.64 C27.403999,105.463999 27.1613348,105.329334 26.868,105.236 C26.5746652,105.142666 26.2306686,105.096 25.836,105.096 L24.22,105.096 L24.22,109.248 Z M37.916,115 L37.028,115 C36.8413324,115 36.6946672,114.972 36.588,114.916 C36.4813328,114.86 36.4013336,114.746668 36.348,114.576 L36.172,113.992 C35.963999,114.178668 35.760001,114.342666 35.56,114.484 C35.359999,114.625334 35.1533344,114.744 34.94,114.84 C34.7266656,114.936 34.5000012,115.008 34.26,115.056 C34.0199988,115.104 33.7533348,115.128 33.46,115.128 C33.1133316,115.128 32.7933348,115.081334 32.5,114.988 C32.2066652,114.894666 31.9546677,114.754668 31.744,114.568 C31.5333323,114.381332 31.3693339,114.149335 31.252,113.872 C31.1346661,113.594665 31.076,113.272002 31.076,112.904 C31.076,112.594665 31.1573325,112.289335 31.32,111.988 C31.4826675,111.686665 31.7533314,111.414668 32.132,111.172 C32.5106686,110.929332 33.0146635,110.728001 33.644,110.568 C34.2733365,110.407999 35.054662,110.317333 35.988,110.296 L35.988,109.816 C35.988,109.266664 35.8720012,108.860001 35.64,108.596 C35.4079988,108.331999 35.0706689,108.2 34.628,108.2 C34.3079984,108.2 34.0413344,108.237333 33.828,108.312 C33.6146656,108.386667 33.4293341,108.470666 33.272,108.564 C33.1146659,108.657334 32.969334,108.741333 32.836,108.816 C32.702666,108.890667 32.5560008,108.928 32.396,108.928 C32.262666,108.928 32.1480005,108.893334 32.052,108.824 C31.9559995,108.754666 31.878667,108.669334 31.82,108.568 L31.46,107.936 C32.4040047,107.071996 33.54266,106.64 34.876,106.64 C35.3560024,106.64 35.7839981,106.718666 36.16,106.876 C36.5360019,107.033334 36.8546654,107.251999 37.116,107.532 C37.3773346,107.812001 37.5759993,108.146665 37.712,108.536 C37.8480007,108.925335 37.916,109.351998 37.916,109.816 L37.916,115 Z M34.076,113.768 C34.2786677,113.768 34.4653325,113.749334 34.636,113.712 C34.8066675,113.674666 34.9679992,113.618667 35.12,113.544 C35.2720008,113.469333 35.418666,113.377334 35.56,113.268 C35.701334,113.158666 35.8439993,113.029334 35.988,112.88 L35.988,111.496 C35.4119971,111.522667 34.9306686,111.572 34.544,111.644 C34.1573314,111.716 33.8466678,111.807999 33.612,111.92 C33.3773322,112.032001 33.2106672,112.162666 33.112,112.312 C33.0133328,112.461334 32.964,112.623999 32.964,112.8 C32.964,113.146668 33.0666656,113.394666 33.272,113.544 C33.4773344,113.693334 33.7453317,113.768 34.076,113.768 Z M39.86,115 L39.86,106.792 L41.02,106.792 C41.2226677,106.792 41.3639996,106.829333 41.444,106.904 C41.5240004,106.978667 41.5773332,107.106666 41.604,107.288 L41.724,108.28 C42.0173348,107.773331 42.3613314,107.373335 42.756,107.08 C43.1506686,106.786665 43.5933309,106.64 44.084,106.64 C44.4893354,106.64 44.825332,106.733332 45.092,106.92 L44.836,108.4 C44.8199999,108.496 44.7853336,108.564 44.732,108.604 C44.6786664,108.644 44.6066671,108.664 44.516,108.664 C44.4359996,108.664 44.3266674,108.645334 44.188,108.608 C44.0493326,108.570666 43.8653345,108.552 43.636,108.552 C43.2253313,108.552 42.8733348,108.665332 42.58,108.892 C42.2866652,109.118668 42.0386677,109.450664 41.836,109.888 L41.836,115 L39.86,115 Z M49.788,106.664 C50.3053359,106.664 50.7813312,106.746666 51.216,106.912 C51.6506688,107.077334 52.0253318,107.318665 52.34,107.636 C52.6546682,107.953335 52.8999991,108.342664 53.076,108.804 C53.2520009,109.265336 53.34,109.791997 53.34,110.384 C53.34,110.533334 53.3333334,110.657333 53.32,110.756 C53.3066666,110.854667 53.2826668,110.932 53.248,110.988 C53.2133332,111.044 53.166667,111.084 53.108,111.108 C53.049333,111.132 52.9746671,111.144 52.884,111.144 L47.812,111.144 C47.870667,111.986671 48.0973314,112.605331 48.492,113 C48.8866686,113.394669 49.4093301,113.592 50.06,113.592 C50.3800016,113.592 50.6559988,113.554667 50.888,113.48 C51.1200012,113.405333 51.3226658,113.322667 51.496,113.232 C51.6693342,113.141333 51.8213327,113.058667 51.952,112.984 C52.0826673,112.909333 52.2093327,112.872 52.332,112.872 C52.4120004,112.872 52.481333,112.888 52.54,112.92 C52.598667,112.952 52.6493331,112.997333 52.692,113.056 L53.268,113.776 C53.0493322,114.032001 52.8040014,114.246666 52.532,114.42 C52.2599986,114.593334 51.9760015,114.731999 51.68,114.836 C51.3839985,114.940001 51.0826682,115.013333 50.776,115.056 C50.4693318,115.098667 50.1720014,115.12 49.884,115.12 C49.3133305,115.12 48.7826691,115.025334 48.292,114.836 C47.8013309,114.646666 47.3746685,114.366669 47.012,113.996 C46.6493315,113.625331 46.364001,113.166669 46.156,112.62 C45.947999,112.073331 45.844,111.440004 45.844,110.72 C45.844,110.159997 45.9346658,109.633336 46.116,109.14 C46.2973342,108.646664 46.5573316,108.217335 46.896,107.852 C47.2346684,107.486665 47.6479976,107.197334 48.136,106.984 C48.6240024,106.770666 49.1746636,106.664 49.788,106.664 Z M49.828,108.08 C49.2519971,108.08 48.801335,108.242665 48.476,108.568 C48.150665,108.893335 47.9426671,109.354664 47.852,109.952 L51.564,109.952 C51.564,109.695999 51.5293337,109.454668 51.46,109.228 C51.3906663,109.001332 51.2840007,108.802668 51.14,108.632 C50.9959993,108.461332 50.8146678,108.326667 50.596,108.228 C50.3773322,108.129333 50.1213348,108.08 49.828,108.08 Z M54.948,115 L54.948,106.792 L56.156,106.792 C56.4120013,106.792 56.5799996,106.911999 56.66,107.152 L56.796,107.8 C56.9613342,107.629332 57.1359991,107.474667 57.32,107.336 C57.5040009,107.197333 57.6986656,107.077334 57.904,106.976 C58.1093344,106.874666 58.3293322,106.797334 58.564,106.744 C58.7986678,106.690666 59.0546653,106.664 59.332,106.664 C59.7800022,106.664 60.1773316,106.739999 60.524,106.892 C60.8706684,107.044001 61.1599988,107.257332 61.392,107.532 C61.6240012,107.806668 61.7999994,108.134665 61.92,108.516 C62.0400006,108.897335 62.1,109.317331 62.1,109.776 L62.1,115 L60.124,115 L60.124,109.776 C60.124,109.274664 60.0080012,108.886668 59.776,108.612 C59.5439988,108.337332 59.1960023,108.2 58.732,108.2 C58.390665,108.2 58.0706682,108.277333 57.772,108.432 C57.4733318,108.586667 57.190668,108.797332 56.924,109.064 L56.924,115 L54.948,115 Z M66.74,115.128 C66.0306631,115.128 65.4840019,114.926669 65.1,114.524 C64.7159981,114.121331 64.524,113.565337 64.524,112.856 L64.524,108.272 L63.692,108.272 C63.5853328,108.272 63.4933337,108.237334 63.416,108.168 C63.3386663,108.098666 63.3,107.994667 63.3,107.856 L63.3,107.072 L64.62,106.856 L65.036,104.616 C65.0573334,104.509333 65.1066663,104.426667 65.184,104.368 C65.2613337,104.309333 65.3586661,104.28 65.476,104.28 L66.5,104.28 L66.5,106.864 L68.66,106.864 L68.66,108.272 L66.5,108.272 L66.5,112.72 C66.5,112.976001 66.5639994,113.175999 66.692,113.32 C66.8200006,113.464001 66.9906656,113.536 67.204,113.536 C67.3266673,113.536 67.4293329,113.521333 67.512,113.492 C67.5946671,113.462667 67.6666664,113.432 67.728,113.4 C67.7893336,113.368 67.8439998,113.337333 67.892,113.308 C67.9400002,113.278667 67.9879998,113.264 68.036,113.264 C68.094667,113.264 68.1426665,113.278667 68.18,113.308 C68.2173335,113.337333 68.2573331,113.381333 68.3,113.44 L68.892,114.4 C68.6039986,114.640001 68.2733352,114.821333 67.9,114.944 C67.5266648,115.066667 67.140002,115.128 66.74,115.128 Z M75.108,108.392 C75.0546664,108.477334 74.998667,108.537333 74.94,108.572 C74.881333,108.606667 74.8066671,108.624 74.716,108.624 C74.6199995,108.624 74.5173339,108.597334 74.408,108.544 C74.2986661,108.490666 74.1720007,108.430667 74.028,108.364 C73.8839993,108.297333 73.7200009,108.237334 73.536,108.184 C73.3519991,108.130666 73.1346679,108.104 72.884,108.104 C72.4946647,108.104 72.1880011,108.186666 71.964,108.352 C71.7399989,108.517334 71.628,108.733332 71.628,109 C71.628,109.176001 71.6853328,109.323999 71.8,109.444 C71.9146672,109.564001 72.0666657,109.669333 72.256,109.76 C72.4453343,109.850667 72.6599988,109.932 72.9,110.004 C73.1400012,110.076 73.3853321,110.154666 73.636,110.24 C73.8866679,110.325334 74.1319988,110.422666 74.372,110.532 C74.6120012,110.641334 74.8266657,110.779999 75.016,110.948 C75.2053343,111.116001 75.3573328,111.317332 75.472,111.552 C75.5866672,111.786668 75.644,112.069332 75.644,112.4 C75.644,112.794669 75.5720007,113.158665 75.428,113.492 C75.2839993,113.825335 75.0733347,114.113332 74.796,114.356 C74.5186653,114.598668 74.176002,114.787999 73.768,114.924 C73.359998,115.060001 72.8920026,115.128 72.364,115.128 C72.0813319,115.128 71.8053347,115.102667 71.536,115.052 C71.2666653,115.001333 71.0080012,114.930667 70.76,114.84 C70.5119988,114.749333 70.2826677,114.642667 70.072,114.52 C69.8613323,114.397333 69.6760008,114.264001 69.516,114.12 L69.972,113.368 C70.030667,113.277333 70.0999996,113.208 70.18,113.16 C70.2600004,113.112 70.3613327,113.088 70.484,113.088 C70.6066673,113.088 70.7226661,113.122666 70.832,113.192 C70.9413339,113.261334 71.0679993,113.336 71.212,113.416 C71.3560007,113.496 71.5253324,113.570666 71.72,113.64 C71.9146676,113.709334 72.1613318,113.744 72.46,113.744 C72.6946678,113.744 72.8959992,113.716 73.064,113.66 C73.2320008,113.604 73.3706661,113.530667 73.48,113.44 C73.5893339,113.349333 73.6693331,113.244001 73.72,113.124 C73.7706669,113.003999 73.796,112.880001 73.796,112.752 C73.796,112.559999 73.7386672,112.402667 73.624,112.28 C73.5093328,112.157333 73.3573343,112.050667 73.168,111.96 C72.9786657,111.869333 72.7626679,111.788 72.52,111.716 C72.2773321,111.644 72.0293346,111.565334 71.776,111.48 C71.5226654,111.394666 71.2746679,111.294667 71.032,111.18 C70.7893321,111.065333 70.5733343,110.920001 70.384,110.744 C70.1946657,110.567999 70.0426672,110.352001 69.928,110.096 C69.8133328,109.839999 69.756,109.530668 69.756,109.168 C69.756,108.831998 69.822666,108.512002 69.956,108.208 C70.089334,107.903998 70.285332,107.638668 70.544,107.412 C70.802668,107.185332 71.1253314,107.004001 71.512,106.868 C71.8986686,106.731999 72.3453308,106.664 72.852,106.664 C73.4173362,106.664 73.9319977,106.757332 74.396,106.944 C74.8600023,107.130668 75.2466651,107.375998 75.556,107.68 L75.108,108.392 Z" id="Living-With-Parents" fill="#333333"></path>
            <g id="Group-4" fill="#000000" opacity="0.5">
                <g id="Page-1" transform="translate(41.502234, 19.480640)">
                    <path d="M5.94594897,6.04120173 C5.83130264,4.85542362 5.80320176,4.01543149 6.16838131,2.83453476 C7.56656515,4.7008028 9.62544957,3.38797703 11.2206035,2.8801822 C11.4194205,3.86899027 11.4867043,4.71016976 11.4274682,6.09859085 C12.6351465,5.05859432 12.6090246,2.27568339 11.9497752,1.29109705 C10.8405159,-0.352078999 6.75401427,-0.407489191 5.53894791,1.01510152 C5.07416195,1.55403161 4.48707777,5.28472068 5.94594897,6.04120173 Z M22.2556751,21.6100145 L20.8697607,27.1090802 L22.3490809,34.0931391 L23.2712648,34.0931391 L24.4228733,42.2493875 L26.5557699,42.2493875 L26.3152633,34.0931391 L27.1427221,34.0931391 L27.2026179,42.2493875 L29.0384103,42.2493875 L30.0129701,34.0931391 L31.249277,34.0931391 L32.2368977,26.9527443 L30.7115343,21.4224114 L32.4082735,24.2514975 L34.1666236,23.4938291 L31.381338,10.5645204 L30.84597,10.5645204 L29.7393493,10.5645204 L29.2327418,10.5645204 C28.7779824,11.6692941 27.635609,12.4525567 26.2973209,12.4525567 C24.960616,12.4525567 23.8178468,11.6692941 23.3597892,10.5645204 L23.1248236,10.5645204 L21.6038138,10.5645204 L21.2367872,10.5645204 L19.114313,24.7144364 L20.636774,25.295188 L22.2556751,21.6100145 Z M22.2250676,8.00905512 C22.2506618,8.21090653 22.5920941,8.86210821 23.1067493,8.99047516 C23.9367148,9.20354054 25.0901703,8.82965367 25.0901703,8.82965367 C24.7050695,8.50194197 24.3094143,8.05021697 24.0558467,7.44070486 C23.6190297,6.39266066 23.6247027,5.02679942 23.6657326,4.30145363 C24.8813266,6.43883582 26.8983896,4.33826182 28.747243,4.59987709 C28.7704625,5.36321845 28.7256066,6.52168725 28.3478938,7.44136451 C28.074273,8.09190655 27.6375879,8.5661914 27.2257055,8.89891641 C27.8488063,9.09390752 28.932999,9.26462368 29.6539912,8.86949624 C30.3182538,8.51064928 30.1530787,5.37258541 30.0702273,4.70964204 C29.9256331,3.48454908 29.5997684,2.42700599 29.0644004,1.97528099 C27.5517021,0.681716869 24.8807989,0.664302238 23.4608468,1.84506704 C22.5316707,2.62278867 21.9459058,6.08355094 22.2250676,8.00905512 Z M17.5335394,21.1457562 C16.5097701,22.2849634 15.4828346,23.4295796 14.4589334,24.5748555 C14.6834766,30.3544024 14.1193481,36.1388307 14.3525986,41.9228631 L10.7196689,41.9228631 C10.3956512,37.02856 9.76503049,32.1371594 9.43850614,27.2443075 L8.46460605,27.2443075 C8.20285886,32.1371594 7.21523815,37.02856 6.95164395,41.9228631 L3.16791941,41.9228631 C3.51766327,36.1388307 2.92055248,30.355062 3.26897705,24.5748555 C2.1802987,23.754257 1.08858599,22.9316795 3.95787086e-05,22.1110809 C0.476699159,18.000832 1.14346847,13.9636718 2.49310243,10.145118 L5.16202668,10.145118 L7.66762279,14.253388 L8.23834777,10.6306168 L7.99850079,10.6306168 L7.99850079,9.52821788 L9.52188529,9.52821788 L9.52188529,10.6306168 L9.27082434,10.6306168 L10.158179,14.1748902 L12.3179891,10.1457777 L14.5650043,10.1457777 C16.1521105,13.7099723 17.1017357,17.3834042 17.5335394,21.1457562 Z" id="Fill-1"></path>
                </g>
                <g id="Page-1" transform="translate(18.633656, 19.480640)">
                    <path d="M8.91295429,11.2265443 C7.6289171,11.2265443 6.57018664,10.2725198 6.4000117,9.03527795 L5.46999619,9.03527795 C5.42175588,9.03527795 5.37396017,9.03794561 5.32672023,9.04272518 C5.00048675,9.05717505 4.50107721,9.13876121 3.94097823,9.42108933 C2.9825076,9.89648987 1.94867538,10.9364355 1.22573754,12.7789044 C0.493907483,14.6283759 0.00261209088,17.3030458 -5.55764018e-05,21.3412271 C0.000389034813,22.3850631 0.0336237231,23.5198221 0.106428809,24.7557301 C0.151112236,25.5131253 0.779125577,26.0975668 1.52818432,26.0977891 C1.55641713,26.0977891 1.5847611,26.0968998 1.61343852,26.0952325 C2.39951115,26.0492153 2.99929168,25.3744066 2.95316326,24.5885563 C2.88347045,23.4034451 2.85179191,22.3238179 2.85212536,21.3414494 C2.84590081,17.0261641 3.47502568,14.6013657 4.09314642,13.3361134 L4.09314642,21.5611985 C4.38492253,21.6193315 4.93590697,21.7249266 5.60860374,21.8309664 C6.61209125,21.9890257 7.88123396,22.146418 8.91306544,22.1458623 C9.94489691,22.1461957 11.2142619,21.9890257 12.217416,21.8309664 C12.8902239,21.7249266 13.4413195,21.6195538 13.7329845,21.5613097 L13.7329845,13.3435606 C13.8386908,13.5603086 13.945064,13.8089574 14.0503257,14.0989551 C14.5525141,15.4913662 14.9750059,17.7756675 14.9734497,21.3410048 C14.9734497,22.3238179 14.9419935,23.4036674 14.8729676,24.5890009 C14.826728,25.3750735 15.4269532,26.0493264 16.2133593,26.0952325 C16.2414809,26.0968998 16.2696026,26.0977891 16.2973908,26.0977891 C17.0470053,26.0977891 17.6752409,25.512903 17.7193686,24.7548409 C17.7911733,23.5193775 17.8246303,22.3846185 17.8246303,21.3410048 C17.8175165,15.9622095 16.9584165,12.9853151 15.7869771,11.1951992 C15.2016465,10.3064214 14.5167229,9.73687444 13.8837077,9.42120048 C13.3243868,9.13898351 12.8264222,9.0572862 12.4999664,9.04272518 C12.452393,9.03772331 12.4042638,9.03505564 12.3553566,9.03505564 L11.4256746,9.03505564 C11.2557219,10.2725198 10.1969915,11.2265443 8.91295429,11.2265443" id="Fill-1"></path>
                    <path d="M8.91274309,22.858952 C7.14352392,22.8569512 4.89768152,22.4379052 4.09282407,22.2753998 L4.09282407,23.6539168 L3.04098509,39.9020114 C2.9620666,41.1164669 3.88307873,42.1644155 5.0969785,42.2430005 C6.31143403,42.3215856 7.35938266,41.401685 7.43819,40.1866737 L8.35231066,26.0739357 L9.47339784,26.0739357 L10.3875185,40.1866737 C10.4661035,41.401685 11.5144968,42.3215856 12.7289523,42.2430005 C13.9428521,42.1646378 14.8638642,41.1166892 14.7850569,39.9020114 L13.7328844,23.6526941 L13.7328844,22.2875154 C12.8613353,22.4575792 10.6413915,22.8569512 8.91274309,22.858952" id="Fill-4"></path>
                    <path d="M8.91295429,1.11152804e-05 C11.1274516,1.11152804e-05 12.9226805,1.79524005 12.9226805,4.0098485 C12.9226805,6.22434581 11.1274516,8.01957474 8.91295429,8.01957474 C6.69834583,8.01957474 4.9031169,6.22434581 4.9031169,4.0098485 C4.9031169,1.79524005 6.69834583,1.11152804e-05 8.91295429,1.11152804e-05" id="Fill-7"></path>
                </g>
                <g id="Page-1">
                    <path d="M94.9885821,22.0605705 L83.6403432,16.5887406 L83.6403432,6.81670811 C83.6403432,6.13725095 82.7532623,5.58572447 81.656012,5.58572447 L72.9136016,5.58572447 C71.8156756,5.58572447 70.9272431,6.13725095 70.9272431,6.81670811 L70.9272431,10.457984 L50.3171401,0.518915332 C48.8808708,-0.172971777 46.8731124,-0.172971777 45.4379695,0.518915332 L0.766752721,22.0605705 C-0.0982525865,22.4781608 -0.255710584,23.25189 0.418948503,23.7888916 L2.85966009,25.7328514 C3.53296761,26.269853 4.78091797,26.367477 5.64727485,25.9491883 L47.8775548,5.58516582 L90.1071589,25.9498867 C90.9732906,26.3681753 92.2223672,26.2705513 92.8956748,25.7335497 L95.33526,23.78959 C96.0110454,23.25189 95.8547137,22.4781608 94.9885821,22.0605705" id="Fill-1"></path>
                    <rect id="Rectangle" x="4.23492182" y="63.2241251" width="88.0863738" height="6.77587491"></rect>
                </g>
            </g>
        </g>
    </g>
</svg>