<?xml version="1.0" encoding="UTF-8" standalone="no"?>
<svg width="200px" height="60px" viewBox="0 0 260 60" version="1.1" xmlns="http://www.w3.org/2000/svg" xmlns:xlink="http://www.w3.org/1999/xlink">
    <!-- Generator: Sketch 48.2 (47327) - http://www.bohemiancoding.com/sketch -->
    <title>LowRisk_Select</title>
    <desc>Created with Sketch.</desc>
    <defs>
        <linearGradient x1="20.1929209%" y1="50%" x2="100%" y2="50%" id="linearGradient-1">
            <stop stop-color="#00996B" offset="0%"></stop>
            <stop stop-color="#FCCB5B" offset="100%"></stop>
        </linearGradient>
    </defs>
    <g id="Page-1" stroke="none" stroke-width="1" fill="none" fill-rule="evenodd">
        <g id="LowRisk_Select">
            <rect id="Rectangle-2" fill="url(#linearGradient-1)" fill-rule="nonzero" x="0" y="0" width="260" height="60"></rect>
            <g id="Group-2" transform="translate(57.000000, 11.000000)">
                <g id="Low-Risk" transform="translate(50.000000, 5.000000)" fill="#FFFFFF">
                    <path d="M5.4,21.336 L12.348,21.336 L12.348,24 L2.172,24 L2.172,6.648 L5.4,6.648 L5.4,21.336 Z M19.212,11.496 C20.1320046,11.496 20.9659963,11.6439985 21.714,11.94 C22.4620037,12.2360015 23.0999974,12.6559973 23.628,13.2 C24.1560026,13.7440027 24.5639986,14.4079961 24.852,15.192 C25.1400014,15.9760039 25.284,16.8519952 25.284,17.82 C25.284,18.7960049 25.1400014,19.6759961 24.852,20.46 C24.5639986,21.2440039 24.1560026,21.9119972 23.628,22.464 C23.0999974,23.0160028 22.4620037,23.4399985 21.714,23.736 C20.9659963,24.0320015 20.1320046,24.18 19.212,24.18 C18.2919954,24.18 17.4560038,24.0320015 16.704,23.736 C15.9519962,23.4399985 15.3100027,23.0160028 14.778,22.464 C14.2459973,21.9119972 13.8340015,21.2440039 13.542,20.46 C13.2499985,19.6759961 13.104,18.7960049 13.104,17.82 C13.104,16.8519952 13.2499985,15.9760039 13.542,15.192 C13.8340015,14.4079961 14.2459973,13.7440027 14.778,13.2 C15.3100027,12.6559973 15.9519962,12.2360015 16.704,11.94 C17.4560038,11.6439985 18.2919954,11.496 19.212,11.496 Z M19.212,21.9 C20.2360051,21.9 20.9939975,21.5560034 21.486,20.868 C21.9780025,20.1799966 22.224,19.1720066 22.224,17.844 C22.224,16.5159934 21.9780025,15.5040035 21.486,14.808 C20.9939975,14.1119965 20.2360051,13.764 19.212,13.764 C18.1719948,13.764 17.4040025,14.1139965 16.908,14.814 C16.4119975,15.5140035 16.164,16.5239934 16.164,17.844 C16.164,19.1640066 16.4119975,20.1699965 16.908,20.862 C17.4040025,21.5540035 18.1719948,21.9 19.212,21.9 Z M26.1,11.688 L28.452,11.688 C28.6760011,11.688 28.8639992,11.7399995 29.016,11.844 C29.1680008,11.9480005 29.2639998,12.0799992 29.304,12.24 L31.068,18.816 C31.1640005,19.1760018 31.2419997,19.5279983 31.302,19.872 C31.3620003,20.2160017 31.4199997,20.5599983 31.476,20.904 C31.5640004,20.5599983 31.6579995,20.2160017 31.758,19.872 C31.8580005,19.5279983 31.9639994,19.1760018 32.076,18.816 L34.116,12.216 C34.1640002,12.0559992 34.2599993,11.9240005 34.404,11.82 C34.5480007,11.7159995 34.715999,11.664 34.908,11.664 L36.216,11.664 C36.4320011,11.664 36.6119993,11.7159995 36.756,11.82 C36.9000007,11.9240005 36.9959998,12.0559992 37.044,12.216 L39.06,18.936 C39.1640005,19.2800017 39.2579996,19.6139984 39.342,19.938 C39.4260004,20.2620016 39.5079996,20.5879984 39.588,20.916 C39.6440003,20.5719983 39.7059997,20.2280017 39.774,19.884 C39.8420003,19.5399983 39.9279995,19.1840018 40.032,18.816 L41.856,12.24 C41.8960002,12.0799992 41.9919992,11.9480005 42.144,11.844 C42.2960008,11.7399995 42.471999,11.688 42.672,11.688 L44.916,11.688 L41.016,24 L38.628,24 C38.3719987,24 38.1880006,23.8240018 38.076,23.472 L35.856,16.356 C35.7839996,16.1239988 35.7180003,15.8900012 35.658,15.654 C35.5979997,15.4179988 35.5480002,15.1840012 35.508,14.952 C35.4599998,15.1920012 35.4080003,15.4299988 35.352,15.666 C35.2959997,15.9020012 35.2320004,16.1399988 35.16,16.38 L32.916,23.472 C32.8039994,23.8240018 32.5880016,24 32.268,24 L30,24 L26.1,11.688 Z M54.72,17.22 L54.72,24 L51.492,24 L51.492,6.648 L56.784,6.648 C57.9680059,6.648 58.9819958,6.76999878 59.826,7.014 C60.6700042,7.25800122 61.3619973,7.5999978 61.902,8.04 C62.4420027,8.4800022 62.8379987,9.00599694 63.09,9.618 C63.3420013,10.2300031 63.468,10.9039963 63.468,11.64 C63.468,12.2240029 63.3820009,12.7759974 63.21,13.296 C63.0379991,13.8160026 62.7900016,14.2879979 62.466,14.712 C62.1419984,15.1360021 61.7420024,15.5079984 61.266,15.828 C60.7899976,16.1480016 60.248003,16.403999 59.64,16.596 C60.048002,16.8280012 60.3999985,17.1599978 60.696,17.592 L65.04,24 L62.136,24 C61.8559986,24 61.618001,23.9440006 61.422,23.832 C61.225999,23.7199994 61.0600007,23.560001 60.924,23.352 L57.276,17.796 C57.1399993,17.587999 56.9900008,17.4400004 56.826,17.352 C56.6619992,17.2639996 56.4200016,17.22 56.1,17.22 L54.72,17.22 Z M54.72,14.904 L56.736,14.904 C57.344003,14.904 57.8739977,14.8280008 58.326,14.676 C58.7780023,14.5239992 59.1499985,14.3140013 59.442,14.046 C59.7340015,13.7779987 59.9519993,13.4600018 60.096,13.092 C60.2400007,12.7239982 60.312,12.3200022 60.312,11.88 C60.312,10.9999956 60.0220029,10.3240024 59.442,9.852 C58.8619971,9.37999764 57.976006,9.144 56.784,9.144 L54.72,9.144 L54.72,14.904 Z M70.092,11.688 L70.092,24 L67.128,24 L67.128,11.688 L70.092,11.688 Z M70.536,8.1 C70.536,8.35600128 70.4840005,8.59599888 70.38,8.82 C70.2759995,9.04400112 70.1380009,9.23999916 69.966,9.408 C69.7939991,9.57600084 69.5920012,9.7099995 69.36,9.81 C69.1279988,9.9100005 68.8800013,9.96 68.616,9.96 C68.3599987,9.96 68.1180011,9.9100005 67.89,9.81 C67.6619989,9.7099995 67.4640008,9.57600084 67.296,9.408 C67.1279992,9.23999916 66.9940005,9.04400112 66.894,8.82 C66.7939995,8.59599888 66.744,8.35600128 66.744,8.1 C66.744,7.83599868 66.7939995,7.58800116 66.894,7.356 C66.9940005,7.12399884 67.1279992,6.92400084 67.296,6.756 C67.4640008,6.58799916 67.6619989,6.4540005 67.89,6.354 C68.1180011,6.2539995 68.3599987,6.204 68.616,6.204 C68.8800013,6.204 69.1279988,6.2539995 69.36,6.354 C69.5920012,6.4540005 69.7939991,6.58799916 69.966,6.756 C70.1380009,6.92400084 70.2759995,7.12399884 70.38,7.356 C70.4840005,7.58800116 70.536,7.83599868 70.536,8.1 Z M80.748,14.088 C80.6679996,14.2160006 80.5840004,14.3059997 80.496,14.358 C80.4079996,14.4100003 80.2960007,14.436 80.16,14.436 C80.0159993,14.436 79.8620008,14.3960004 79.698,14.316 C79.5339992,14.2359996 79.3440011,14.1460005 79.128,14.046 C78.9119989,13.9459995 78.6660014,13.8560004 78.39,13.776 C78.1139986,13.6959996 77.7880019,13.656 77.412,13.656 C76.8279971,13.656 76.3680017,13.7799988 76.032,14.028 C75.6959983,14.2760012 75.528,14.599998 75.528,15 C75.528,15.2640013 75.6139991,15.4859991 75.786,15.666 C75.9580009,15.8460009 76.1859986,16.0039993 76.47,16.14 C76.7540014,16.2760007 77.0759982,16.3979995 77.436,16.506 C77.7960018,16.6140005 78.1639981,16.7319994 78.54,16.86 C78.9160019,16.9880006 79.2839982,17.1339992 79.644,17.298 C80.0040018,17.4620008 80.3259986,17.6699987 80.61,17.922 C80.8940014,18.1740013 81.1219991,18.4759982 81.294,18.828 C81.4660009,19.1800018 81.552,19.6039975 81.552,20.1 C81.552,20.692003 81.4440011,21.2379975 81.228,21.738 C81.0119989,22.2380025 80.6960021,22.6699982 80.28,23.034 C79.8639979,23.3980018 79.3500031,23.681999 78.738,23.886 C78.1259969,24.090001 77.424004,24.192 76.632,24.192 C76.2079979,24.192 75.794002,24.1540004 75.39,24.078 C74.985998,24.0019996 74.5980019,23.8960007 74.226,23.76 C73.8539981,23.6239993 73.5100016,23.4640009 73.194,23.28 C72.8779984,23.0959991 72.6000012,22.8960011 72.36,22.68 L73.044,21.552 C73.1320004,21.4159993 73.2359994,21.3120004 73.356,21.24 C73.4760006,21.1679996 73.6279991,21.132 73.812,21.132 C73.9960009,21.132 74.1699992,21.1839995 74.334,21.288 C74.4980008,21.3920005 74.6879989,21.5039994 74.904,21.624 C75.1200011,21.7440006 75.3739985,21.8559995 75.666,21.96 C75.9580015,22.0640005 76.3279978,22.116 76.776,22.116 C77.1280018,22.116 77.4299987,22.0740004 77.682,21.99 C77.9340013,21.9059996 78.1419992,21.7960007 78.306,21.66 C78.4700008,21.5239993 78.5899996,21.3660009 78.666,21.186 C78.7420004,21.0059991 78.78,20.820001 78.78,20.628 C78.78,20.3399986 78.6940009,20.1040009 78.522,19.92 C78.3499991,19.7359991 78.1220014,19.5760007 77.838,19.44 C77.5539986,19.3039993 77.2300018,19.1820005 76.866,19.074 C76.5019982,18.9659995 76.1300019,18.8480006 75.75,18.72 C75.3699981,18.5919994 74.9980018,18.4420009 74.634,18.27 C74.2699982,18.0979991 73.9460014,17.8800013 73.662,17.616 C73.3779986,17.3519987 73.1500009,17.0280019 72.978,16.644 C72.8059991,16.2599981 72.72,15.7960027 72.72,15.252 C72.72,14.7479975 72.819999,14.2680023 73.02,13.812 C73.220001,13.3559977 73.5139981,12.9580017 73.902,12.618 C74.2900019,12.2779983 74.7739971,12.006001 75.354,11.802 C75.9340029,11.597999 76.6039962,11.496 77.364,11.496 C78.2120042,11.496 78.9839965,11.6359986 79.68,11.916 C80.3760035,12.1960014 80.9559977,12.5639977 81.42,13.02 L80.748,14.088 Z M86.928,6.168 L86.928,16.38 L87.48,16.38 C87.680001,16.38 87.8359994,16.3520003 87.948,16.296 C88.0600006,16.2399997 88.1799994,16.1360008 88.308,15.984 L91.368,12.204 C91.5040007,12.0439992 91.6479992,11.9180005 91.8,11.826 C91.9520008,11.7339995 92.1519988,11.688 92.4,11.688 L95.112,11.688 L91.284,16.26 C91.1479993,16.4280008 91.0080007,16.5819993 90.864,16.722 C90.7199993,16.8620007 90.5640008,16.9839995 90.396,17.088 C90.5640008,17.2080006 90.7119994,17.3479992 90.84,17.508 C90.9680006,17.6680008 91.0959994,17.8399991 91.224,18.024 L95.328,24 L92.652,24 C92.4199988,24 92.2240008,23.9600004 92.064,23.88 C91.9039992,23.7999996 91.7600006,23.664001 91.632,23.472 L88.5,18.804 C88.3799994,18.6199991 88.2600006,18.5000003 88.14,18.444 C88.0199994,18.3879997 87.8400012,18.36 87.6,18.36 L86.928,18.36 L86.928,24 L83.964,24 L83.964,6.168 L86.928,6.168 Z"></path>
                </g>
                <g id="Group-3" fill-rule="nonzero">
                    <circle id="Oval" fill="#FFFFFF" cx="20" cy="20" r="20"></circle>
                    <circle id="Oval-Copy" fill="#36975C" cx="20" cy="20" r="10"></circle>
                </g>
            </g>
        </g>
    </g>
</svg>