<?xml version="1.0" encoding="UTF-8" standalone="no"?>
<svg width="200px" height="60px" viewBox="0 0 260 60" version="1.1" xmlns="http://www.w3.org/2000/svg" xmlns:xlink="http://www.w3.org/1999/xlink">
    <!-- Generator: Sketch 48.2 (47327) - http://www.bohemiancoding.com/sketch -->
    <title>MediumRisk</title>
    <desc>Created with Sketch.</desc>
    <defs>
        <linearGradient x1="15.2423469%" y1="50%" x2="100%" y2="50%" id="linearGradient-1">
            <stop stop-color="#FCCB5B" offset="0%"></stop>
            <stop stop-color="#F8A542" offset="49.3024554%"></stop>
            <stop stop-color="#E67C1B" offset="100%"></stop>
        </linearGradient>
    </defs>
    <g id="Page-1" stroke="none" stroke-width="1" fill="none" fill-rule="evenodd">
        <g id="MediumRisk">
            <rect id="Rectangle-2-Copy" fill="url(#linearGradient-1)" fill-rule="nonzero" x="0" y="0" width="260" height="60"></rect>
            <g id="Group-4" transform="translate(35.000000, 11.000000)" fill="#FFFFFF">
                <g id="Group-3" fill-rule="nonzero">
                    <circle id="Oval" cx="20" cy="20" r="20"></circle>
                </g>
                <g id="Medium-Risk" transform="translate(50.000000, 5.000000)">
                    <path d="M10.582,16.8 C10.7180007,17.0560013 10.8439994,17.3219986 10.96,17.598 C11.0760006,17.8740014 11.1899994,18.1519986 11.302,18.432 C11.4140006,18.1439986 11.5299994,17.8600014 11.65,17.58 C11.7700006,17.2999986 11.8979993,17.0320013 12.034,16.776 L17.17,7.164 C17.2340003,7.0439994 17.2999997,6.94800036 17.368,6.876 C17.4360003,6.80399964 17.5119996,6.75200016 17.596,6.72 C17.6800004,6.68799984 17.7739995,6.66800004 17.878,6.66 C17.9820005,6.65199996 18.1059993,6.648 18.25,6.648 L20.686,6.648 L20.686,24 L17.842,24 L17.842,12.792 C17.842,12.583999 17.8479999,12.3560012 17.86,12.108 C17.8720001,11.8599988 17.8899999,11.6080013 17.914,11.352 L12.67,21.192 C12.5499994,21.4160011 12.394001,21.5899994 12.202,21.714 C12.009999,21.8380006 11.7860013,21.9 11.53,21.9 L11.086,21.9 C10.8299987,21.9 10.606001,21.8380006 10.414,21.714 C10.221999,21.5899994 10.0660006,21.4160011 9.946,21.192 L4.63,11.316 C4.66200016,11.5800013 4.68399994,11.8379987 4.696,12.09 C4.70800006,12.3420013 4.714,12.5759989 4.714,12.792 L4.714,24 L1.87,24 L1.87,6.648 L4.306,6.648 C4.45000072,6.648 4.57399948,6.65199996 4.678,6.66 C4.78200052,6.66800004 4.87599958,6.68799984 4.96,6.72 C5.04400042,6.75200016 5.12199964,6.80399964 5.194,6.876 C5.26600036,6.94800036 5.33399968,7.0439994 5.398,7.164 L10.582,16.8 Z M29.11,11.496 C29.8860039,11.496 30.5999967,11.6199988 31.252,11.868 C31.9040033,12.1160012 32.4659976,12.4779976 32.938,12.954 C33.4100024,13.4300024 33.7779987,14.0139965 34.042,14.706 C34.3060013,15.3980035 34.438,16.1879956 34.438,17.076 C34.438,17.3000011 34.4280001,17.4859993 34.408,17.634 C34.3879999,17.7820007 34.3520003,17.8979996 34.3,17.982 C34.2479997,18.0660004 34.1780004,18.1259998 34.09,18.162 C34.0019996,18.1980002 33.8900007,18.216 33.754,18.216 L26.146,18.216 C26.2340004,19.4800063 26.573997,20.407997 27.166,21 C27.758003,21.592003 28.5419951,21.888 29.518,21.888 C29.9980024,21.888 30.4119983,21.8320006 30.76,21.72 C31.1080017,21.6079994 31.4119987,21.4840007 31.672,21.348 C31.9320013,21.2119993 32.159999,21.0880006 32.356,20.976 C32.552001,20.8639994 32.7419991,20.808 32.926,20.808 C33.0460006,20.808 33.1499996,20.8319998 33.238,20.88 C33.3260004,20.9280002 33.4019997,20.9959996 33.466,21.084 L34.33,22.164 C34.0019984,22.5480019 33.634002,22.8699987 33.226,23.13 C32.817998,23.3900013 32.3920022,23.5979992 31.948,23.754 C31.5039978,23.9100008 31.0520023,24.0199997 30.592,24.084 C30.1319977,24.1480003 29.6860022,24.18 29.254,24.18 C28.3979957,24.18 27.6020037,24.0380014 26.866,23.754 C26.1299963,23.4699986 25.4900027,23.0500028 24.946,22.494 C24.4019973,21.9379972 23.9740016,21.2500041 23.662,20.43 C23.3499984,19.6099959 23.194,18.6600054 23.194,17.58 C23.194,16.7399958 23.3299986,15.9500037 23.602,15.21 C23.8740014,14.4699963 24.2639975,13.8260027 24.772,13.278 C25.2800025,12.7299973 25.8999963,12.2960016 26.632,11.976 C27.3640037,11.6559984 28.1899954,11.496 29.11,11.496 Z M29.17,13.62 C28.3059957,13.62 27.6300024,13.8639976 27.142,14.352 C26.6539976,14.8400024 26.3420007,15.5319955 26.206,16.428 L31.774,16.428 C31.774,16.0439981 31.7220005,15.6820017 31.618,15.342 C31.5139995,15.0019983 31.3540011,14.7040013 31.138,14.448 C30.9219989,14.1919987 30.6500016,13.9900007 30.322,13.842 C29.9939984,13.6939993 29.6100022,13.62 29.17,13.62 Z M45.514,24 C45.1299981,24 44.8780006,23.8200018 44.758,23.46 L44.518,22.272 C44.2619987,22.5600014 43.9940014,22.8199988 43.714,23.052 C43.4339986,23.2840012 43.1320016,23.4839992 42.808,23.652 C42.4839984,23.8200008 42.1360019,23.9499995 41.764,24.042 C41.3919981,24.1340005 40.9900022,24.18 40.558,24.18 C39.8859966,24.18 39.2700028,24.0400014 38.71,23.76 C38.1499972,23.4799986 37.668002,23.0740027 37.264,22.542 C36.859998,22.0099973 36.5480011,21.3520039 36.328,20.568 C36.1079989,19.7839961 35.998,18.888005 35.998,17.88 C35.998,16.9679954 36.1219988,16.1200039 36.37,15.336 C36.6180012,14.5519961 36.9739977,13.8720029 37.438,13.296 C37.9020023,12.7199971 38.4579968,12.2700016 39.106,11.946 C39.7540032,11.6219984 40.481996,11.46 41.29,11.46 C41.9780034,11.46 42.5659976,11.5699989 43.054,11.79 C43.5420024,12.0100011 43.9779981,12.3039982 44.362,12.672 L44.362,6.168 L47.326,6.168 L47.326,24 L45.514,24 Z M41.566,21.828 C42.1820031,21.828 42.7059978,21.7000013 43.138,21.444 C43.5700022,21.1879987 43.9779981,20.8240024 44.362,20.352 L44.362,14.832 C44.0259983,14.423998 43.660002,14.1360008 43.264,13.968 C42.867998,13.7999992 42.4420023,13.716 41.986,13.716 C41.5379978,13.716 41.1320018,13.7999992 40.768,13.968 C40.4039982,14.1360008 40.0960013,14.3899983 39.844,14.73 C39.5919987,15.0700017 39.3980007,15.5019974 39.262,16.026 C39.1259993,16.5500026 39.058,17.1679964 39.058,17.88 C39.058,18.6000036 39.1159994,19.2099975 39.232,19.71 C39.3480006,20.2100025 39.5139989,20.6179984 39.73,20.934 C39.9460011,21.2500016 40.2099984,21.4779993 40.522,21.618 C40.8340016,21.7580007 41.1819981,21.828 41.566,21.828 Z M53.686,11.688 L53.686,24 L50.722,24 L50.722,11.688 L53.686,11.688 Z M54.13,8.1 C54.13,8.35600128 54.0780005,8.59599888 53.974,8.82 C53.8699995,9.04400112 53.7320009,9.23999916 53.56,9.408 C53.3879991,9.57600084 53.1860012,9.7099995 52.954,9.81 C52.7219988,9.9100005 52.4740013,9.96 52.21,9.96 C51.9539987,9.96 51.7120011,9.9100005 51.484,9.81 C51.2559989,9.7099995 51.0580008,9.57600084 50.89,9.408 C50.7219992,9.23999916 50.5880005,9.04400112 50.488,8.82 C50.3879995,8.59599888 50.338,8.35600128 50.338,8.1 C50.338,7.83599868 50.3879995,7.58800116 50.488,7.356 C50.5880005,7.12399884 50.7219992,6.92400084 50.89,6.756 C51.0580008,6.58799916 51.2559989,6.4540005 51.484,6.354 C51.7120011,6.2539995 51.9539987,6.204 52.21,6.204 C52.4740013,6.204 52.7219988,6.2539995 52.954,6.354 C53.1860012,6.4540005 53.3879991,6.58799916 53.56,6.756 C53.7320009,6.92400084 53.8699995,7.12399884 53.974,7.356 C54.0780005,7.58800116 54.13,7.83599868 54.13,8.1 Z M59.746,11.688 L59.746,19.512 C59.746,20.2640038 59.9199983,20.8459979 60.268,21.258 C60.6160017,21.6700021 61.1379965,21.876 61.834,21.876 C62.3460026,21.876 62.8259978,21.7620011 63.274,21.534 C63.7220022,21.3059989 64.145998,20.992002 64.546,20.592 L64.546,11.688 L67.51,11.688 L67.51,24 L65.698,24 C65.3139981,24 65.0620006,23.8200018 64.942,23.46 L64.738,22.476 C64.4819987,22.7320013 64.2180014,22.9659989 63.946,23.178 C63.6739986,23.3900011 63.3840015,23.5699993 63.076,23.718 C62.7679985,23.8660007 62.4360018,23.9819996 62.08,24.066 C61.7239982,24.1500004 61.342002,24.192 60.934,24.192 C60.2619966,24.192 59.6680026,24.0780011 59.152,23.85 C58.6359974,23.6219989 58.2020018,23.3000021 57.85,22.884 C57.4979982,22.4679979 57.2320009,21.9740029 57.052,21.402 C56.8719991,20.8299971 56.782,20.2000034 56.782,19.512 L56.782,11.688 L59.746,11.688 Z M70.678,24 L70.678,11.688 L72.49,11.688 C72.8740019,11.688 73.1259994,11.8679982 73.246,12.228 L73.438,13.14 C73.6540011,12.8999988 73.8799988,12.680001 74.116,12.48 C74.3520012,12.279999 74.6039987,12.1080007 74.872,11.964 C75.1400013,11.8199993 75.4279985,11.7060004 75.736,11.622 C76.0440015,11.5379996 76.3819982,11.496 76.75,11.496 C77.5260039,11.496 78.1639975,11.7059979 78.664,12.126 C79.1640025,12.5460021 79.5379988,13.1039965 79.786,13.8 C79.978001,13.391998 80.2179986,13.0420015 80.506,12.75 C80.7940014,12.4579985 81.1099983,12.2200009 81.454,12.036 C81.7980017,11.8519991 82.1639981,11.7160004 82.552,11.628 C82.9400019,11.5399996 83.329998,11.496 83.722,11.496 C84.4020034,11.496 85.0059974,11.599999 85.534,11.808 C86.0620026,12.016001 86.5059982,12.319998 86.866,12.72 C87.2260018,13.120002 87.4999991,13.6079971 87.688,14.184 C87.8760009,14.7600029 87.97,15.4199963 87.97,16.164 L87.97,24 L85.006,24 L85.006,16.164 C85.006,15.3799961 84.8340017,14.790002 84.49,14.394 C84.1459983,13.997998 83.6420033,13.8 82.978,13.8 C82.6739985,13.8 82.3920013,13.8519995 82.132,13.956 C81.8719987,14.0600005 81.644001,14.209999 81.448,14.406 C81.251999,14.602001 81.0980006,14.8479985 80.986,15.144 C80.8739994,15.4400015 80.818,15.7799981 80.818,16.164 L80.818,24 L77.842,24 L77.842,16.164 C77.842,15.3399959 77.6760017,14.7400019 77.344,14.364 C77.0119983,13.9879981 76.5220032,13.8 75.874,13.8 C75.4499979,13.8 75.0520019,13.9059989 74.68,14.118 C74.3079981,14.3300011 73.9620016,14.6199982 73.642,14.988 L73.642,24 L70.678,24 Z M99.022,17.22 L99.022,24 L95.794,24 L95.794,6.648 L101.086,6.648 C102.270006,6.648 103.283996,6.76999878 104.128,7.014 C104.972004,7.25800122 105.663997,7.5999978 106.204,8.04 C106.744003,8.4800022 107.139999,9.00599694 107.392,9.618 C107.644001,10.2300031 107.77,10.9039963 107.77,11.64 C107.77,12.2240029 107.684001,12.7759974 107.512,13.296 C107.339999,13.8160026 107.092002,14.2879979 106.768,14.712 C106.443998,15.1360021 106.044002,15.5079984 105.568,15.828 C105.091998,16.1480016 104.550003,16.403999 103.942,16.596 C104.350002,16.8280012 104.701999,17.1599978 104.998,17.592 L109.342,24 L106.438,24 C106.157999,24 105.920001,23.9440006 105.724,23.832 C105.527999,23.7199994 105.362001,23.560001 105.226,23.352 L101.578,17.796 C101.441999,17.587999 101.292001,17.4400004 101.128,17.352 C100.963999,17.2639996 100.722002,17.22 100.402,17.22 L99.022,17.22 Z M99.022,14.904 L101.038,14.904 C101.646003,14.904 102.175998,14.8280008 102.628,14.676 C103.080002,14.5239992 103.451999,14.3140013 103.744,14.046 C104.036001,13.7779987 104.253999,13.4600018 104.398,13.092 C104.542001,12.7239982 104.614,12.3200022 104.614,11.88 C104.614,10.9999956 104.324003,10.3240024 103.744,9.852 C103.163997,9.37999764 102.278006,9.144 101.086,9.144 L99.022,9.144 L99.022,14.904 Z M114.394,11.688 L114.394,24 L111.43,24 L111.43,11.688 L114.394,11.688 Z M114.838,8.1 C114.838,8.35600128 114.786001,8.59599888 114.682,8.82 C114.577999,9.04400112 114.440001,9.23999916 114.268,9.408 C114.095999,9.57600084 113.894001,9.7099995 113.662,9.81 C113.429999,9.9100005 113.182001,9.96 112.918,9.96 C112.661999,9.96 112.420001,9.9100005 112.192,9.81 C111.963999,9.7099995 111.766001,9.57600084 111.598,9.408 C111.429999,9.23999916 111.296,9.04400112 111.196,8.82 C111.095999,8.59599888 111.046,8.35600128 111.046,8.1 C111.046,7.83599868 111.095999,7.58800116 111.196,7.356 C111.296,7.12399884 111.429999,6.92400084 111.598,6.756 C111.766001,6.58799916 111.963999,6.4540005 112.192,6.354 C112.420001,6.2539995 112.661999,6.204 112.918,6.204 C113.182001,6.204 113.429999,6.2539995 113.662,6.354 C113.894001,6.4540005 114.095999,6.58799916 114.268,6.756 C114.440001,6.92400084 114.577999,7.12399884 114.682,7.356 C114.786001,7.58800116 114.838,7.83599868 114.838,8.1 Z M125.05,14.088 C124.97,14.2160006 124.886,14.3059997 124.798,14.358 C124.71,14.4100003 124.598001,14.436 124.462,14.436 C124.317999,14.436 124.164001,14.3960004 124,14.316 C123.835999,14.2359996 123.646001,14.1460005 123.43,14.046 C123.213999,13.9459995 122.968001,13.8560004 122.692,13.776 C122.415999,13.6959996 122.090002,13.656 121.714,13.656 C121.129997,13.656 120.670002,13.7799988 120.334,14.028 C119.997998,14.2760012 119.83,14.599998 119.83,15 C119.83,15.2640013 119.915999,15.4859991 120.088,15.666 C120.260001,15.8460009 120.487999,16.0039993 120.772,16.14 C121.056001,16.2760007 121.377998,16.3979995 121.738,16.506 C122.098002,16.6140005 122.465998,16.7319994 122.842,16.86 C123.218002,16.9880006 123.585998,17.1339992 123.946,17.298 C124.306002,17.4620008 124.627999,17.6699987 124.912,17.922 C125.196001,18.1740013 125.423999,18.4759982 125.596,18.828 C125.768001,19.1800018 125.854,19.6039975 125.854,20.1 C125.854,20.692003 125.746001,21.2379975 125.53,21.738 C125.313999,22.2380025 124.998002,22.6699982 124.582,23.034 C124.165998,23.3980018 123.652003,23.681999 123.04,23.886 C122.427997,24.090001 121.726004,24.192 120.934,24.192 C120.509998,24.192 120.096002,24.1540004 119.692,24.078 C119.287998,24.0019996 118.900002,23.8960007 118.528,23.76 C118.155998,23.6239993 117.812002,23.4640009 117.496,23.28 C117.179998,23.0959991 116.902001,22.8960011 116.662,22.68 L117.346,21.552 C117.434,21.4159993 117.537999,21.3120004 117.658,21.24 C117.778001,21.1679996 117.929999,21.132 118.114,21.132 C118.298001,21.132 118.471999,21.1839995 118.636,21.288 C118.800001,21.3920005 118.989999,21.5039994 119.206,21.624 C119.422001,21.7440006 119.675999,21.8559995 119.968,21.96 C120.260001,22.0640005 120.629998,22.116 121.078,22.116 C121.430002,22.116 121.731999,22.0740004 121.984,21.99 C122.236001,21.9059996 122.443999,21.7960007 122.608,21.66 C122.772001,21.5239993 122.892,21.3660009 122.968,21.186 C123.044,21.0059991 123.082,20.820001 123.082,20.628 C123.082,20.3399986 122.996001,20.1040009 122.824,19.92 C122.651999,19.7359991 122.424001,19.5760007 122.14,19.44 C121.855999,19.3039993 121.532002,19.1820005 121.168,19.074 C120.803998,18.9659995 120.432002,18.8480006 120.052,18.72 C119.671998,18.5919994 119.300002,18.4420009 118.936,18.27 C118.571998,18.0979991 118.248001,17.8800013 117.964,17.616 C117.679999,17.3519987 117.452001,17.0280019 117.28,16.644 C117.107999,16.2599981 117.022,15.7960027 117.022,15.252 C117.022,14.7479975 117.121999,14.2680023 117.322,13.812 C117.522001,13.3559977 117.815998,12.9580017 118.204,12.618 C118.592002,12.2779983 119.075997,12.006001 119.656,11.802 C120.236003,11.597999 120.905996,11.496 121.666,11.496 C122.514004,11.496 123.285997,11.6359986 123.982,11.916 C124.678003,12.1960014 125.257998,12.5639977 125.722,13.02 L125.05,14.088 Z M131.23,6.168 L131.23,16.38 L131.782,16.38 C131.982001,16.38 132.137999,16.3520003 132.25,16.296 C132.362001,16.2399997 132.481999,16.1360008 132.61,15.984 L135.67,12.204 C135.806001,12.0439992 135.949999,11.9180005 136.102,11.826 C136.254001,11.7339995 136.453999,11.688 136.702,11.688 L139.414,11.688 L135.586,16.26 C135.449999,16.4280008 135.310001,16.5819993 135.166,16.722 C135.021999,16.8620007 134.866001,16.9839995 134.698,17.088 C134.866001,17.2080006 135.013999,17.3479992 135.142,17.508 C135.270001,17.6680008 135.397999,17.8399991 135.526,18.024 L139.63,24 L136.954,24 C136.721999,24 136.526001,23.9600004 136.366,23.88 C136.205999,23.7999996 136.062001,23.664001 135.934,23.472 L132.802,18.804 C132.681999,18.6199991 132.562001,18.5000003 132.442,18.444 C132.321999,18.3879997 132.142001,18.36 131.902,18.36 L131.23,18.36 L131.23,24 L128.266,24 L128.266,6.168 L131.23,6.168 Z"></path>
                </g>
            </g>
        </g>
    </g>
</svg>