<?xml version="1.0" encoding="UTF-8" standalone="no"?>
<svg width="90px" height="49px" viewBox="0 0 109 49" version="1.1" xmlns="http://www.w3.org/2000/svg" xmlns:xlink="http://www.w3.org/1999/xlink">
    <!-- Generator: Sketch 48.2 (47327) - http://www.bohemiancoding.com/sketch -->
    <title>Next</title>
    <desc>Created with Sketch.</desc>
    <defs></defs>
    <g id="Page2" stroke="none" stroke-width="1" fill="none" fill-rule="evenodd" transform="translate(-865.000000, -669.000000)">
        <g id="Next" transform="translate(863.000000, 669.000000)">
            <path d="M86.4647987,0.103396203 C72.971359,0.103396203 62.0000207,11.0515882 62.0000207,24.5165608 C62.0000207,37.9815333 72.971359,48.9296219 86.4647987,48.9296219 C99.9582385,48.9296219 110.929577,37.9815333 110.929577,24.5165608 C110.929577,11.0515882 99.9582385,0.103396203 86.4647987,0.103396203" id="Fill-3" fill="#D0021B"></path>
            <path d="M79.1194294,13.2130051 C78.2748268,13.2118679 77.5892412,13.8941464 77.5881017,14.7369671 C77.5873765,15.2553954 77.8505055,15.7387793 78.2867402,16.0202709 L91.0566789,24.5159819 L78.2867402,33.0115895 C77.5838543,33.4789502 77.3936556,34.426697 77.8620044,35.1282034 C78.3304569,35.8296063 79.2801038,36.0194038 79.9830932,35.5519397 L94.6618564,25.7867772 C95.3648459,25.3196232 95.5552518,24.3722899 95.0872137,23.6708869 C94.9750214,23.5026949 94.830404,23.3584861 94.6618564,23.2465304 L79.9830932,13.4812646 C79.7288734,13.3069734 79.427829,13.2134186 79.1194294,13.2130051" id="Fill-1" fill="#FFFFFF"></path>
            <text font-family="Lato-Regular, Lato" font-size="22" font-weight="normal" line-spacing="33" fill="#333333">
                <tspan x="0.952" y="33">Next</tspan>
            </text>
        </g>
    </g>
</svg>