<?xml version="1.0" encoding="UTF-8" standalone="no"?>
<svg width="90px" height="75px" viewBox="0 0 100 90" version="1.1" xmlns="http://www.w3.org/2000/svg" xmlns:xlink="http://www.w3.org/1999/xlink">
    <!-- Generator: Sketch 48.2 (47327) - http://www.bohemiancoding.com/sketch -->
    <title>Not_Employed_Red</title>
    <desc>Created with Sketch.</desc>
    <defs></defs>
    <g id="Page3-Copy" stroke="none" stroke-width="1" fill="none" fill-rule="evenodd" transform="translate(-818.000000, -153.000000)">
        <g id="Not_Employed_Red" transform="translate(818.000000, 154.000000)" fill="#D0021B">
            <path d="M1.128,74.32 C1.22400048,74.32 1.30399968,74.324 1.368,74.332 C1.43200032,74.34 1.48933308,74.3559999 1.54,74.38 C1.59066692,74.4040001 1.63999976,74.4386664 1.688,74.484 C1.73600024,74.5293336 1.78933304,74.589333 1.848,74.664 L7.92,82.4 C7.89866656,82.2133324 7.88400004,82.0306676 7.876,81.852 C7.86799996,81.6733324 7.864,81.5066674 7.864,81.352 L7.864,74.32 L9.76,74.32 L9.76,85.888 L8.648,85.888 C8.47733248,85.888 8.33600056,85.8613336 8.224,85.808 C8.11199944,85.7546664 8.0026672,85.6586674 7.896,85.52 L1.848,77.816 C1.86400008,77.9866675 1.87599996,78.1559992 1.884,78.324 C1.89200004,78.4920008 1.896,78.6453326 1.896,78.784 L1.896,85.888 L0,85.888 L0,74.32 L1.128,74.32 Z M15.488,77.552 C16.1013364,77.552 16.6573308,77.6506657 17.156,77.848 C17.6546692,78.0453343 18.0799982,78.3253315 18.432,78.688 C18.7840018,79.0506685 19.055999,79.4933307 19.248,80.016 C19.440001,80.5386693 19.536,81.1226634 19.536,81.768 C19.536,82.4186699 19.440001,83.0053307 19.248,83.528 C19.055999,84.0506693 18.7840018,84.4959982 18.432,84.864 C18.0799982,85.2320018 17.6546692,85.5146657 17.156,85.712 C16.6573308,85.9093343 16.1013364,86.008 15.488,86.008 C14.8746636,86.008 14.3173358,85.9093343 13.816,85.712 C13.3146642,85.5146657 12.8866684,85.2320018 12.532,84.864 C12.1773316,84.4959982 11.9026676,84.0506693 11.708,83.528 C11.5133324,83.0053307 11.416,82.4186699 11.416,81.768 C11.416,81.1226634 11.5133324,80.5386693 11.708,80.016 C11.9026676,79.4933307 12.1773316,79.0506685 12.532,78.688 C12.8866684,78.3253315 13.3146642,78.0453343 13.816,77.848 C14.3173358,77.6506657 14.8746636,77.552 15.488,77.552 Z M15.488,84.488 C16.1706701,84.488 16.6759984,84.258669 17.004,83.8 C17.3320016,83.341331 17.496,82.6693378 17.496,81.784 C17.496,80.8986622 17.3320016,80.2240023 17.004,79.76 C16.6759984,79.2959977 16.1706701,79.064 15.488,79.064 C14.7946632,79.064 14.2826683,79.297331 13.952,79.764 C13.6213317,80.230669 13.456,80.9039956 13.456,81.784 C13.456,82.6640044 13.6213317,83.3346644 13.952,83.796 C14.2826683,84.2573356 14.7946632,84.488 15.488,84.488 Z M23.776,86.016 C23.0666631,86.016 22.5200019,85.8146687 22.136,85.412 C21.7519981,85.0093313 21.56,84.4533369 21.56,83.744 L21.56,79.16 L20.728,79.16 C20.6213328,79.16 20.5293337,79.1253337 20.452,79.056 C20.3746663,78.9866663 20.336,78.8826674 20.336,78.744 L20.336,77.96 L21.656,77.744 L22.072,75.504 C22.0933334,75.3973328 22.1426663,75.314667 22.22,75.256 C22.2973337,75.197333 22.3946661,75.168 22.512,75.168 L23.536,75.168 L23.536,77.752 L25.696,77.752 L25.696,79.16 L23.536,79.16 L23.536,83.608 C23.536,83.8640013 23.5999994,84.0639993 23.728,84.208 C23.8560006,84.3520007 24.0266656,84.424 24.24,84.424 C24.3626673,84.424 24.4653329,84.4093335 24.548,84.38 C24.6306671,84.3506665 24.7026664,84.3200002 24.764,84.288 C24.8253336,84.2559998 24.8799998,84.2253335 24.928,84.196 C24.9760002,84.1666665 25.0239998,84.152 25.072,84.152 C25.130667,84.152 25.1786665,84.1666665 25.216,84.196 C25.2533335,84.2253335 25.2933331,84.269333 25.336,84.328 L25.928,85.288 C25.6399986,85.5280012 25.3093352,85.7093327 24.936,85.832 C24.5626648,85.9546673 24.176002,86.016 23.776,86.016 Z M37.768,74.32 L37.768,76.032 L32.64,76.032 L32.64,79.24 L36.68,79.24 L36.68,80.896 L32.64,80.896 L32.64,84.168 L37.768,84.168 L37.768,85.888 L30.472,85.888 L30.472,74.32 L37.768,74.32 Z M39.52,85.888 L39.52,77.68 L40.728,77.68 C40.9840013,77.68 41.1519996,77.7999988 41.232,78.04 L41.36,78.648 C41.5040007,78.4879992 41.6546659,78.341334 41.812,78.208 C41.9693341,78.074666 42.1373324,77.9600005 42.316,77.864 C42.4946676,77.7679995 42.6866656,77.6920003 42.892,77.636 C43.0973344,77.5799997 43.3226654,77.552 43.568,77.552 C44.0853359,77.552 44.510665,77.6919986 44.844,77.972 C45.177335,78.2520014 45.4266658,78.6239977 45.592,79.088 C45.7200006,78.8159986 45.879999,78.5826676 46.072,78.388 C46.264001,78.1933324 46.4746655,78.0346673 46.704,77.912 C46.9333345,77.7893327 47.177332,77.698667 47.436,77.64 C47.694668,77.581333 47.9546654,77.552 48.216,77.552 C48.6693356,77.552 49.0719982,77.6213326 49.424,77.76 C49.7760018,77.8986674 50.0719988,78.101332 50.312,78.368 C50.5520012,78.634668 50.734666,78.9599981 50.86,79.344 C50.985334,79.7280019 51.048,80.1679975 51.048,80.664 L51.048,85.888 L49.072,85.888 L49.072,80.664 C49.072,80.1413307 48.9573345,79.7480013 48.728,79.484 C48.4986655,79.2199987 48.1626689,79.088 47.72,79.088 C47.5173323,79.088 47.3293342,79.1226663 47.156,79.192 C46.9826658,79.2613337 46.8306673,79.3613327 46.7,79.492 C46.5693327,79.6226673 46.466667,79.7866657 46.392,79.984 C46.317333,80.1813343 46.28,80.4079987 46.28,80.664 L46.28,85.888 L44.296,85.888 L44.296,80.664 C44.296,80.1146639 44.1853344,79.7146679 43.964,79.464 C43.7426656,79.2133321 43.4160022,79.088 42.984,79.088 C42.7013319,79.088 42.4360012,79.158666 42.188,79.3 C41.9399988,79.441334 41.7093344,79.6346654 41.496,79.88 L41.496,85.888 L39.52,85.888 Z M52.992,88.568 L52.992,77.68 L54.2,77.68 C54.3280006,77.68 54.4373329,77.709333 54.528,77.768 C54.6186671,77.826667 54.6773332,77.9173327 54.704,78.04 L54.864,78.8 C55.1946683,78.4213314 55.5746645,78.1146678 56.004,77.88 C56.4333355,77.6453322 56.9359971,77.528 57.512,77.528 C57.9600022,77.528 58.3693315,77.6213324 58.74,77.808 C59.1106685,77.9946676 59.4306653,78.2653316 59.7,78.62 C59.9693347,78.9746684 60.1773326,79.4119974 60.324,79.932 C60.4706674,80.4520026 60.544,81.0479966 60.544,81.72 C60.544,82.3333364 60.4613342,82.9013307 60.296,83.424 C60.1306658,83.9466693 59.8946682,84.3999981 59.588,84.784 C59.2813318,85.1680019 58.9106688,85.4679989 58.476,85.684 C58.0413312,85.9000011 57.5546694,86.008 57.016,86.008 C56.5519977,86.008 56.1586683,85.937334 55.836,85.796 C55.5133317,85.654666 55.2240013,85.4586679 54.968,85.208 L54.968,88.568 L52.992,88.568 Z M56.832,79.088 C56.4213313,79.088 56.0706681,79.1746658 55.78,79.348 C55.4893319,79.5213342 55.2186679,79.7653318 54.968,80.08 L54.968,83.76 C55.1920011,84.0373347 55.4359987,84.2306661 55.7,84.34 C55.9640013,84.4493339 56.2479985,84.504 56.552,84.504 C56.8506682,84.504 57.1213321,84.4480006 57.364,84.336 C57.6066679,84.2239994 57.8119992,84.0533345 57.98,83.824 C58.1480008,83.5946655 58.2773329,83.3053351 58.368,82.956 C58.4586671,82.6066649 58.504,82.194669 58.504,81.72 C58.504,81.2399976 58.4653337,80.833335 58.388,80.5 C58.3106663,80.166665 58.2000007,79.896001 58.056,79.688 C57.9119993,79.479999 57.7373344,79.3280005 57.532,79.232 C57.3266656,79.1359995 57.0933346,79.088 56.832,79.088 Z M64.144,74 L64.144,85.888 L62.168,85.888 L62.168,74 L64.144,74 Z M69.88,77.552 C70.4933364,77.552 71.0493308,77.6506657 71.548,77.848 C72.0466692,78.0453343 72.4719982,78.3253315 72.824,78.688 C73.1760018,79.0506685 73.447999,79.4933307 73.64,80.016 C73.832001,80.5386693 73.928,81.1226634 73.928,81.768 C73.928,82.4186699 73.832001,83.0053307 73.64,83.528 C73.447999,84.0506693 73.1760018,84.4959982 72.824,84.864 C72.4719982,85.2320018 72.0466692,85.5146657 71.548,85.712 C71.0493308,85.9093343 70.4933364,86.008 69.88,86.008 C69.2666636,86.008 68.7093358,85.9093343 68.208,85.712 C67.7066642,85.5146657 67.2786684,85.2320018 66.924,84.864 C66.5693316,84.4959982 66.2946676,84.0506693 66.1,83.528 C65.9053324,83.0053307 65.808,82.4186699 65.808,81.768 C65.808,81.1226634 65.9053324,80.5386693 66.1,80.016 C66.2946676,79.4933307 66.5693316,79.0506685 66.924,78.688 C67.2786684,78.3253315 67.7066642,78.0453343 68.208,77.848 C68.7093358,77.6506657 69.2666636,77.552 69.88,77.552 Z M69.88,84.488 C70.5626701,84.488 71.0679984,84.258669 71.396,83.8 C71.7240016,83.341331 71.888,82.6693378 71.888,81.784 C71.888,80.8986622 71.7240016,80.2240023 71.396,79.76 C71.0679984,79.2959977 70.5626701,79.064 69.88,79.064 C69.1866632,79.064 68.6746683,79.297331 68.344,79.764 C68.0133317,80.230669 67.848,80.9039956 67.848,81.784 C67.848,82.6640044 68.0133317,83.3346644 68.344,83.796 C68.6746683,84.2573356 69.1866632,84.488 69.88,84.488 Z M78.12,88.144 C78.061333,88.2826674 77.9853338,88.3879996 77.892,88.46 C77.7986662,88.5320004 77.656001,88.568 77.464,88.568 L75.992,88.568 L77.528,85.28 L74.208,77.68 L75.936,77.68 C76.0960008,77.68 76.2186662,77.717333 76.304,77.792 C76.3893338,77.866667 76.4533331,77.9519995 76.496,78.048 L78.248,82.304 C78.306667,82.4426674 78.3573331,82.5866659 78.4,82.736 C78.4426669,82.8853341 78.4799998,83.0346659 78.512,83.184 C78.5546669,83.0293326 78.6013331,82.8800007 78.652,82.736 C78.7026669,82.5919993 78.757333,82.4453341 78.816,82.296 L80.464,78.048 C80.5066669,77.9413328 80.5773328,77.8533337 80.676,77.784 C80.7746672,77.7146663 80.8853327,77.68 81.008,77.68 L82.592,77.68 L78.12,88.144 Z M86.872,77.552 C87.3893359,77.552 87.8653312,77.6346658 88.3,77.8 C88.7346688,77.9653342 89.1093318,78.2066651 89.424,78.524 C89.7386682,78.8413349 89.9839991,79.2306644 90.16,79.692 C90.3360009,80.1533356 90.424,80.679997 90.424,81.272 C90.424,81.4213341 90.4173334,81.5453328 90.404,81.644 C90.3906666,81.7426672 90.3666668,81.8199997 90.332,81.876 C90.2973332,81.9320003 90.250667,81.9719999 90.192,81.996 C90.133333,82.0200001 90.0586671,82.032 89.968,82.032 L84.896,82.032 C84.954667,82.8746709 85.1813314,83.4933314 85.576,83.888 C85.9706686,84.2826686 86.4933301,84.48 87.144,84.48 C87.4640016,84.48 87.7399988,84.442667 87.972,84.368 C88.2040012,84.293333 88.4066658,84.2106671 88.58,84.12 C88.7533342,84.0293329 88.9053327,83.946667 89.036,83.872 C89.1666673,83.797333 89.2933327,83.76 89.416,83.76 C89.4960004,83.76 89.565333,83.7759998 89.624,83.808 C89.682667,83.8400002 89.7333331,83.885333 89.776,83.944 L90.352,84.664 C90.1333322,84.9200013 89.8880014,85.1346658 89.616,85.308 C89.3439986,85.4813342 89.0600015,85.6199995 88.764,85.724 C88.4679985,85.8280005 88.1666682,85.9013331 87.86,85.944 C87.5533318,85.9866669 87.2560014,86.008 86.968,86.008 C86.3973305,86.008 85.8666691,85.9133343 85.376,85.724 C84.8853309,85.5346657 84.4586685,85.2546685 84.096,84.884 C83.7333315,84.5133315 83.448001,84.0546694 83.24,83.508 C83.031999,82.9613306 82.928,82.3280036 82.928,81.608 C82.928,81.0479972 83.0186658,80.5213358 83.2,80.028 C83.3813342,79.5346642 83.6413316,79.1053352 83.98,78.74 C84.3186684,78.3746648 84.7319976,78.0853344 85.22,77.872 C85.7080024,77.6586656 86.2586636,77.552 86.872,77.552 Z M86.912,78.968 C86.3359971,78.968 85.885335,79.130665 85.56,79.456 C85.234665,79.781335 85.0266671,80.2426637 84.936,80.84 L88.648,80.84 C88.648,80.5839987 88.6133337,80.3426678 88.544,80.116 C88.4746663,79.8893322 88.3680007,79.6906675 88.224,79.52 C88.0799993,79.3493325 87.8986678,79.2146672 87.68,79.116 C87.4613322,79.0173328 87.2053348,78.968 86.912,78.968 Z M97.808,85.888 C97.5519987,85.888 97.3840004,85.7680012 97.304,85.528 L97.144,84.736 C96.9733325,84.928001 96.7946676,85.1013326 96.608,85.256 C96.4213324,85.4106674 96.2200011,85.5439994 96.004,85.656 C95.7879989,85.7680006 95.5560012,85.8546664 95.308,85.916 C95.0599988,85.9773336 94.7920014,86.008 94.504,86.008 C94.0559978,86.008 93.6453352,85.9146676 93.272,85.728 C92.8986648,85.5413324 92.5773347,85.2706684 92.308,84.916 C92.0386653,84.5613316 91.8306674,84.1226693 91.684,83.6 C91.5373326,83.0773307 91.464,82.4800034 91.464,81.808 C91.464,81.199997 91.5466658,80.6346693 91.712,80.112 C91.8773342,79.5893307 92.1146651,79.1360019 92.424,78.752 C92.7333349,78.3679981 93.1039978,78.0680011 93.536,77.852 C93.9680022,77.6359989 94.4533306,77.528 94.992,77.528 C95.450669,77.528 95.842665,77.6013326 96.168,77.748 C96.493335,77.8946674 96.7839987,78.0906654 97.04,78.336 L97.04,74 L99.016,74 L99.016,85.888 L97.808,85.888 Z M95.176,84.44 C95.5866687,84.44 95.9359986,84.3546675 96.224,84.184 C96.5120014,84.0133325 96.7839987,83.7706682 97.04,83.456 L97.04,79.776 C96.8159989,79.5039986 96.5720013,79.3120006 96.308,79.2 C96.0439987,79.0879994 95.7600015,79.032 95.456,79.032 C95.1573318,79.032 94.8866679,79.0879994 94.644,79.2 C94.4013321,79.3120006 94.1960008,79.4813322 94.028,79.708 C93.8599992,79.9346678 93.7306671,80.2226649 93.64,80.572 C93.5493329,80.9213351 93.504,81.333331 93.504,81.808 C93.504,82.2880024 93.5426663,82.694665 93.62,83.028 C93.6973337,83.361335 93.8079993,83.6333323 93.952,83.844 C94.0960007,84.0546677 94.271999,84.2066662 94.48,84.3 C94.688001,84.3933338 94.9199987,84.44 95.176,84.44 Z" id="Not-Employed"></path>
            <g id="Page-1" transform="translate(29.000000, 0.000000)" stroke="#D0021B">
                <path d="M20.4775059,25.7929772 C17.5274314,25.7929772 15.0949989,23.6011066 14.7040221,20.7585444 L12.5673122,20.7585444 C12.4564801,20.7585444 12.3466695,20.7646733 12.2381358,20.7756544 C11.4886146,20.8088529 10.3412215,20.9962971 9.05439455,21.6449457 C6.852309,22.7371781 4.47708023,25.1264524 2.81613109,29.3595233 C1.13475207,33.6086827 0.00600127687,39.7537348 -0.000127686742,49.0314535 C0.000893807193,51.4296659 0.0772504788,54.0367738 0.244520111,56.8762715 C0.347180251,58.6163865 1.79004043,59.9591402 3.51100234,59.959651 C3.57586721,59.959651 3.64098744,59.957608 3.7068738,59.9537774 C5.51287508,59.8480528 6.8908704,58.2976804 6.7848904,56.4921898 C6.62477123,53.7693977 6.55198979,51.2889551 6.55275591,49.0319642 C6.53845499,39.1175995 7.98386891,33.5466269 9.40400085,30.6397106 L9.40400085,49.5368376 C10.0743562,49.670398 11.3402426,49.9130028 12.8857629,50.1566291 C15.1912747,50.5197702 18.1071292,50.881379 20.4777612,50.8801021 C22.8483933,50.8808683 25.7647585,50.5197702 28.0695041,50.1566291 C29.6152798,49.9130028 30.8814216,49.6709087 31.5515216,49.537093 L31.5515216,30.6568206 C31.7943818,31.1547989 32.0387742,31.7260694 32.2806129,32.3923388 C33.4343903,35.5914024 34.4050649,40.8395829 34.4014897,49.0309428 C34.4014897,51.2889551 34.329219,53.7699085 34.170632,56.4932113 C34.0643967,58.2992126 35.4434135,59.8483082 37.2501809,59.9537774 C37.3147904,59.957608 37.3793999,59.959651 37.4432432,59.959651 C39.165482,59.959651 40.6088529,58.6158757 40.7102362,56.8742286 C40.8752075,54.0357523 40.9520749,51.4286444 40.9520749,49.0309428 C40.935731,36.6731645 38.9619494,29.8337519 36.2705682,25.7209619 C34.9257714,23.6789955 33.35216,22.3704618 31.897808,21.6452011 C30.6127687,20.9968078 29.4686955,20.8091083 28.7186635,20.7756544 C28.6093637,20.7641626 28.498787,20.7580336 28.3864226,20.7580336 L26.2504788,20.7580336 C25.8600128,23.6011066 23.4275803,25.7929772 20.4775059,25.7929772" id="Fill-1"></path>
                <path d="M20.4775059,2.55373484e-05 C25.5653118,2.55373484e-05 29.6898489,4.12456267 29.6898489,9.21262396 C29.6898489,14.3004299 25.5653118,18.424967 20.4775059,18.424967 C15.3894446,18.424967 11.2649074,14.3004299 11.2649074,9.21262396 C11.2649074,4.12456267 15.3894446,2.55373484e-05 20.4775059,2.55373484e-05" id="Fill-7"></path>
            </g>
        </g>
    </g>
</svg>