<?xml version="1.0" encoding="UTF-8" standalone="no"?>
<svg width="100px" height="90px" viewBox="0 0 108 116" version="1.1" xmlns="http://www.w3.org/2000/svg" xmlns:xlink="http://www.w3.org/1999/xlink">
    <!-- Generator: Sketch 48.2 (47327) - http://www.bohemiancoding.com/sketch -->
    <title>Own_House_Red</title>
    <desc>Created with Sketch.</desc>
    <defs></defs>
    <g id="Page4-Copy" stroke="none" stroke-width="1" fill="none" fill-rule="evenodd" transform="translate(-459.000000, -144.000000)">
        <g id="Own_House_Red" transform="translate(459.000000, 144.000000)" fill="#D0021B">
            <path d="M27.288,94.224 L31.92,94.224 L31.92,96 L25.136,96 L25.136,84.432 L27.288,84.432 L27.288,94.224 Z M35.4,87.792 L35.4,96 L33.424,96 L33.424,87.792 L35.4,87.792 Z M35.696,85.4 C35.696,85.5706675 35.6613337,85.7306659 35.592,85.88 C35.5226663,86.0293341 35.4306672,86.1599994 35.316,86.272 C35.2013328,86.3840006 35.0666674,86.473333 34.912,86.54 C34.7573326,86.606667 34.5920009,86.64 34.416,86.64 C34.2453325,86.64 34.0840008,86.606667 33.932,86.54 C33.7799992,86.473333 33.6480006,86.3840006 33.536,86.272 C33.4239994,86.1599994 33.334667,86.0293341 33.268,85.88 C33.201333,85.7306659 33.168,85.5706675 33.168,85.4 C33.168,85.2239991 33.201333,85.0586674 33.268,84.904 C33.334667,84.7493326 33.4239994,84.6160006 33.536,84.504 C33.6480006,84.3919994 33.7799992,84.302667 33.932,84.236 C34.0840008,84.169333 34.2453325,84.136 34.416,84.136 C34.5920009,84.136 34.7573326,84.169333 34.912,84.236 C35.0666674,84.302667 35.2013328,84.3919994 35.316,84.504 C35.4306672,84.6160006 35.5226663,84.7493326 35.592,84.904 C35.6613337,85.0586674 35.696,85.2239991 35.696,85.4 Z M41.744,96 L39.952,96 L36.688,87.792 L38.328,87.792 C38.4720007,87.792 38.5933328,87.8266663 38.692,87.896 C38.7906672,87.9653337 38.8586665,88.0533328 38.896,88.16 L40.48,92.544 C40.5706671,92.8000013 40.6466664,93.0506654 40.708,93.296 C40.7693336,93.5413346 40.8239998,93.7866654 40.872,94.032 C40.9200002,93.7866654 40.9746664,93.5413346 41.036,93.296 C41.0973336,93.0506654 41.1759995,92.8000013 41.272,92.544 L42.896,88.16 C42.9333335,88.0533328 42.9999995,87.9653337 43.096,87.896 C43.1920005,87.8266663 43.306666,87.792 43.44,87.792 L45,87.792 L41.744,96 Z M48.272,87.792 L48.272,96 L46.296,96 L46.296,87.792 L48.272,87.792 Z M48.568,85.4 C48.568,85.5706675 48.5333337,85.7306659 48.464,85.88 C48.3946663,86.0293341 48.3026672,86.1599994 48.188,86.272 C48.0733328,86.3840006 47.9386674,86.473333 47.784,86.54 C47.6293326,86.606667 47.4640009,86.64 47.288,86.64 C47.1173325,86.64 46.9560008,86.606667 46.804,86.54 C46.6519992,86.473333 46.5200006,86.3840006 46.408,86.272 C46.2959994,86.1599994 46.206667,86.0293341 46.14,85.88 C46.073333,85.7306659 46.04,85.5706675 46.04,85.4 C46.04,85.2239991 46.073333,85.0586674 46.14,84.904 C46.206667,84.7493326 46.2959994,84.6160006 46.408,84.504 C46.5200006,84.3919994 46.6519992,84.302667 46.804,84.236 C46.9560008,84.169333 47.1173325,84.136 47.288,84.136 C47.4640009,84.136 47.6293326,84.169333 47.784,84.236 C47.9386674,84.302667 48.0733328,84.3919994 48.188,84.504 C48.3026672,84.6160006 48.3946663,84.7493326 48.464,84.904 C48.5333337,85.0586674 48.568,85.2239991 48.568,85.4 Z M50.504,96 L50.504,87.792 L51.712,87.792 C51.9680013,87.792 52.1359996,87.9119988 52.216,88.152 L52.352,88.8 C52.5173342,88.6293325 52.6919991,88.4746674 52.876,88.336 C53.0600009,88.1973326 53.2546656,88.0773338 53.46,87.976 C53.6653344,87.8746662 53.8853322,87.7973336 54.12,87.744 C54.3546678,87.6906664 54.6106653,87.664 54.888,87.664 C55.3360022,87.664 55.7333316,87.7399992 56.08,87.892 C56.4266684,88.0440008 56.7159988,88.257332 56.948,88.532 C57.1800012,88.806668 57.3559994,89.1346648 57.476,89.516 C57.5960006,89.8973352 57.656,90.317331 57.656,90.776 L57.656,96 L55.68,96 L55.68,90.776 C55.68,90.2746642 55.5640012,89.886668 55.332,89.612 C55.0999988,89.337332 54.7520023,89.2 54.288,89.2 C53.946665,89.2 53.6266682,89.2773326 53.328,89.432 C53.0293318,89.5866674 52.746668,89.797332 52.48,90.064 L52.48,96 L50.504,96 Z M62.44,87.648 C62.7920018,87.648 63.1226651,87.6839996 63.432,87.756 C63.7413349,87.8280004 64.0239987,87.9333326 64.28,88.072 L66.64,88.072 L66.64,88.808 C66.64,88.9306673 66.6080003,89.0266663 66.544,89.096 C66.4799997,89.1653337 66.3706674,89.2133332 66.216,89.24 L65.48,89.376 C65.5333336,89.5146674 65.5746665,89.6613326 65.604,89.816 C65.6333335,89.9706674 65.648,90.1333325 65.648,90.304 C65.648,90.7093354 65.5666675,91.0759984 65.404,91.404 C65.2413325,91.7320016 65.0173348,92.0106655 64.732,92.24 C64.4466652,92.4693345 64.108002,92.646666 63.716,92.772 C63.323998,92.897334 62.898669,92.96 62.44,92.96 C62.1306651,92.96 61.8293348,92.930667 61.536,92.872 C61.2799987,93.0266674 61.152,93.199999 61.152,93.392 C61.152,93.5573342 61.2279992,93.6786663 61.38,93.756 C61.5320008,93.8333337 61.7319988,93.8879998 61.98,93.92 C62.2280012,93.9520002 62.5093318,93.972 62.824,93.98 C63.1386682,93.988 63.4613317,94.0053332 63.792,94.032 C64.1226683,94.0586668 64.4453318,94.105333 64.76,94.172 C65.0746682,94.238667 65.3559988,94.3439993 65.604,94.488 C65.8520012,94.6320007 66.0519992,94.8279988 66.204,95.076 C66.3560008,95.3240012 66.432,95.6426647 66.432,96.032 C66.432,96.3946685 66.3426676,96.746665 66.164,97.088 C65.9853324,97.429335 65.7266684,97.733332 65.388,98 C65.0493316,98.266668 64.6346691,98.4813325 64.144,98.644 C63.6533309,98.8066675 63.0933365,98.888 62.464,98.888 C61.8399969,98.888 61.298669,98.8280006 60.84,98.708 C60.381331,98.5879994 60.0013348,98.428001 59.7,98.228 C59.3986652,98.027999 59.1733341,97.7973346 59.024,97.536 C58.8746659,97.2746654 58.8,97.0026681 58.8,96.72 C58.8,96.3359981 58.9173322,96.0133346 59.152,95.752 C59.3866678,95.4906654 59.7119979,95.2826674 60.128,95.128 C59.9253323,95.0159994 59.7626673,94.8666676 59.64,94.68 C59.5173327,94.4933324 59.456,94.2506682 59.456,93.952 C59.456,93.8293327 59.4773331,93.7026673 59.52,93.572 C59.5626669,93.4413327 59.6279996,93.3120006 59.716,93.184 C59.8040004,93.0559994 59.914666,92.9346672 60.048,92.82 C60.181334,92.7053328 60.3386658,92.6026671 60.52,92.512 C60.1039979,92.2879989 59.7773345,91.9893352 59.54,91.616 C59.3026655,91.2426648 59.184,90.8053358 59.184,90.304 C59.184,89.8986646 59.2653325,89.5320016 59.428,89.204 C59.5906675,88.8759984 59.8173319,88.5960012 60.108,88.364 C60.3986681,88.1319988 60.7426647,87.9546673 61.14,87.832 C61.5373353,87.7093327 61.9706643,87.648 62.44,87.648 Z M64.608,96.368 C64.608,96.2079992 64.5600005,96.0773338 64.464,95.976 C64.3679995,95.8746662 64.2373342,95.7960003 64.072,95.74 C63.9066658,95.6839997 63.7133344,95.6426668 63.492,95.616 C63.2706656,95.5893332 63.0360012,95.5693334 62.788,95.556 C62.5399988,95.5426666 62.2840013,95.5293334 62.02,95.516 C61.7559987,95.5026666 61.5013346,95.4800002 61.256,95.448 C61.0319989,95.5706673 60.8520007,95.7159992 60.716,95.884 C60.5799993,96.0520008 60.512,96.2453322 60.512,96.464 C60.512,96.6080007 60.5479996,96.742666 60.62,96.868 C60.6920004,96.993334 60.8066659,97.1013329 60.964,97.192 C61.1213341,97.2826671 61.3253321,97.3533331 61.576,97.404 C61.8266679,97.4546669 62.1333315,97.48 62.496,97.48 C62.8640018,97.48 63.181332,97.4520003 63.448,97.396 C63.714668,97.3399997 63.9346658,97.2626672 64.108,97.164 C64.2813342,97.0653328 64.4079996,96.9480007 64.488,96.812 C64.5680004,96.6759993 64.608,96.5280008 64.608,96.368 Z M62.44,91.696 C62.6853346,91.696 62.8986658,91.662667 63.08,91.596 C63.2613342,91.529333 63.4119994,91.4373339 63.532,91.32 C63.6520006,91.2026661 63.7426664,91.0613342 63.804,90.896 C63.8653336,90.7306658 63.896,90.5493343 63.896,90.352 C63.896,89.9466646 63.7746679,89.6253345 63.532,89.388 C63.2893321,89.1506655 62.9253358,89.032 62.44,89.032 C61.9546642,89.032 61.5906679,89.1506655 61.348,89.388 C61.1053321,89.6253345 60.984,89.9466646 60.984,90.352 C60.984,90.544001 61.0146664,90.7226658 61.076,90.888 C61.1373336,91.0533342 61.2279994,91.1959994 61.348,91.316 C61.4680006,91.4360006 61.6199991,91.529333 61.804,91.596 C61.9880009,91.662667 62.1999988,91.696 62.44,91.696 Z M73.504,96 L71.344,96 L71.344,84.432 L73.504,84.432 L73.504,96 Z M75.992,96 L75.992,87.792 L77.2,87.792 C77.4560013,87.792 77.6239996,87.9119988 77.704,88.152 L77.84,88.8 C78.0053342,88.6293325 78.1799991,88.4746674 78.364,88.336 C78.5480009,88.1973326 78.7426656,88.0773338 78.948,87.976 C79.1533344,87.8746662 79.3733322,87.7973336 79.608,87.744 C79.8426678,87.6906664 80.0986653,87.664 80.376,87.664 C80.8240022,87.664 81.2213316,87.7399992 81.568,87.892 C81.9146684,88.0440008 82.2039988,88.257332 82.436,88.532 C82.6680012,88.806668 82.8439994,89.1346648 82.964,89.516 C83.0840006,89.8973352 83.144,90.317331 83.144,90.776 L83.144,96 L81.168,96 L81.168,90.776 C81.168,90.2746642 81.0520012,89.886668 80.82,89.612 C80.5879988,89.337332 80.2400023,89.2 79.776,89.2 C79.434665,89.2 79.1146682,89.2773326 78.816,89.432 C78.5173318,89.5866674 78.234668,89.797332 77.968,90.064 L77.968,96 L75.992,96 Z M24.532,109.216 C24.532,110.064004 24.3906681,110.84933 24.108,111.572 C23.8253319,112.29467 23.4280026,112.919997 22.916,113.448 C22.4039974,113.976003 21.7880036,114.387999 21.068,114.684 C20.3479964,114.980001 19.550671,115.128 18.676,115.128 C17.801329,115.128 17.0026703,114.980001 16.28,114.684 C15.5573297,114.387999 14.9386692,113.976003 14.424,113.448 C13.9093308,112.919997 13.5106681,112.29467 13.228,111.572 C12.9453319,110.84933 12.804,110.064004 12.804,109.216 C12.804,108.367996 12.9453319,107.58267 13.228,106.86 C13.5106681,106.13733 13.9093308,105.512003 14.424,104.984 C14.9386692,104.455997 15.5573297,104.044001 16.28,103.748 C17.0026703,103.451999 17.801329,103.304 18.676,103.304 C19.550671,103.304 20.3479964,103.453332 21.068,103.752 C21.7880036,104.050668 22.4039974,104.462664 22.916,104.988 C23.4280026,105.513336 23.8253319,106.13733 24.108,106.86 C24.3906681,107.58267 24.532,108.367996 24.532,109.216 Z M22.324,109.216 C22.324,108.58133 22.2400008,108.012003 22.072,107.508 C21.9039992,107.003997 21.6626682,106.576002 21.348,106.224 C21.0333318,105.871998 20.6506689,105.602668 20.2,105.416 C19.7493311,105.229332 19.2413362,105.136 18.676,105.136 C18.1106638,105.136 17.6013356,105.229332 17.148,105.416 C16.6946644,105.602668 16.3093349,105.871998 15.992,106.224 C15.6746651,106.576002 15.4306675,107.003997 15.26,107.508 C15.0893325,108.012003 15.004,108.58133 15.004,109.216 C15.004,109.85067 15.0893325,110.419997 15.26,110.924 C15.4306675,111.428003 15.6746651,111.854665 15.992,112.204 C16.3093349,112.553335 16.6946644,112.821332 17.148,113.008 C17.6013356,113.194668 18.1106638,113.288 18.676,113.288 C19.2413362,113.288 19.7493311,113.194668 20.2,113.008 C20.6506689,112.821332 21.0333318,112.553335 21.348,112.204 C21.6626682,111.854665 21.9039992,111.428003 22.072,110.924 C22.2400008,110.419997 22.324,109.85067 22.324,109.216 Z M25.116,106.792 L26.684,106.792 C26.8333341,106.792 26.9586662,106.826666 27.06,106.896 C27.1613338,106.965334 27.2253332,107.053333 27.252,107.16 L28.428,111.544 C28.4920003,111.784001 28.5439998,112.018666 28.584,112.248 C28.6240002,112.477334 28.6626665,112.706666 28.7,112.936 C28.758667,112.706666 28.821333,112.477334 28.888,112.248 C28.954667,112.018666 29.025333,111.784001 29.1,111.544 L30.46,107.144 C30.4920002,107.037333 30.5559995,106.949334 30.652,106.88 C30.7480005,106.810666 30.8599994,106.776 30.988,106.776 L31.86,106.776 C32.0040007,106.776 32.1239995,106.810666 32.22,106.88 C32.3160005,106.949334 32.3799998,107.037333 32.412,107.144 L33.756,111.624 C33.8253337,111.853334 33.8879997,112.075999 33.944,112.292 C34.0000003,112.508001 34.0546664,112.725332 34.108,112.944 C34.1453335,112.714666 34.1866664,112.485334 34.232,112.256 C34.2773336,112.026666 34.3346663,111.789335 34.404,111.544 L35.62,107.16 C35.6466668,107.053333 35.7106662,106.965334 35.812,106.896 C35.9133338,106.826666 36.030666,106.792 36.164,106.792 L37.66,106.792 L35.06,115 L33.468,115 C33.2973325,115 33.174667,114.882668 33.1,114.648 L31.62,109.904 C31.5719998,109.749333 31.5280002,109.593334 31.488,109.436 C31.4479998,109.278666 31.4146668,109.122667 31.388,108.968 C31.3559998,109.128001 31.3213335,109.286666 31.284,109.444 C31.2466665,109.601334 31.2040002,109.759999 31.156,109.92 L29.66,114.648 C29.585333,114.882668 29.4413344,115 29.228,115 L27.716,115 L25.116,106.792 Z M38.772,115 L38.772,106.792 L39.98,106.792 C40.2360013,106.792 40.4039996,106.911999 40.484,107.152 L40.62,107.8 C40.7853342,107.629332 40.9599991,107.474667 41.144,107.336 C41.3280009,107.197333 41.5226656,107.077334 41.728,106.976 C41.9333344,106.874666 42.1533322,106.797334 42.388,106.744 C42.6226678,106.690666 42.8786653,106.664 43.156,106.664 C43.6040022,106.664 44.0013316,106.739999 44.348,106.892 C44.6946684,107.044001 44.9839988,107.257332 45.216,107.532 C45.4480012,107.806668 45.6239994,108.134665 45.744,108.516 C45.8640006,108.897335 45.924,109.317331 45.924,109.776 L45.924,115 L43.948,115 L43.948,109.776 C43.948,109.274664 43.8320012,108.886668 43.6,108.612 C43.3679988,108.337332 43.0200023,108.2 42.556,108.2 C42.214665,108.2 41.8946682,108.277333 41.596,108.432 C41.2973318,108.586667 41.014668,108.797332 40.748,109.064 L40.748,115 L38.772,115 Z M60.828,115 L58.66,115 L58.66,109.944 L53.236,109.944 L53.236,115 L51.068,115 L51.068,103.432 L53.236,103.432 L53.236,108.408 L58.66,108.408 L58.66,103.432 L60.828,103.432 L60.828,115 Z M66.556,106.664 C67.1693364,106.664 67.7253308,106.762666 68.224,106.96 C68.7226692,107.157334 69.1479982,107.437332 69.5,107.8 C69.8520018,108.162668 70.123999,108.605331 70.316,109.128 C70.508001,109.650669 70.604,110.234663 70.604,110.88 C70.604,111.53067 70.508001,112.117331 70.316,112.64 C70.123999,113.162669 69.8520018,113.607998 69.5,113.976 C69.1479982,114.344002 68.7226692,114.626666 68.224,114.824 C67.7253308,115.021334 67.1693364,115.12 66.556,115.12 C65.9426636,115.12 65.3853358,115.021334 64.884,114.824 C64.3826642,114.626666 63.9546684,114.344002 63.6,113.976 C63.2453316,113.607998 62.9706676,113.162669 62.776,112.64 C62.5813324,112.117331 62.484,111.53067 62.484,110.88 C62.484,110.234663 62.5813324,109.650669 62.776,109.128 C62.9706676,108.605331 63.2453316,108.162668 63.6,107.8 C63.9546684,107.437332 64.3826642,107.157334 64.884,106.96 C65.3853358,106.762666 65.9426636,106.664 66.556,106.664 Z M66.556,113.6 C67.2386701,113.6 67.7439984,113.370669 68.072,112.912 C68.4000016,112.453331 68.564,111.781338 68.564,110.896 C68.564,110.010662 68.4000016,109.336002 68.072,108.872 C67.7439984,108.407998 67.2386701,108.176 66.556,108.176 C65.8626632,108.176 65.3506683,108.409331 65.02,108.876 C64.6893317,109.342669 64.524,110.015996 64.524,110.896 C64.524,111.776004 64.6893317,112.446664 65.02,112.908 C65.3506683,113.369336 65.8626632,113.6 66.556,113.6 Z M73.956,106.792 L73.956,112.008 C73.956,112.509336 74.0719988,112.897332 74.304,113.172 C74.5360012,113.446668 74.8839977,113.584 75.348,113.584 C75.689335,113.584 76.0093318,113.508001 76.308,113.356 C76.6066682,113.203999 76.889332,112.994668 77.156,112.728 L77.156,106.792 L79.132,106.792 L79.132,115 L77.924,115 C77.6679987,115 77.5000004,114.880001 77.42,114.64 L77.284,113.984 C77.1133325,114.154668 76.9373342,114.310666 76.756,114.452 C76.5746658,114.593334 76.3813344,114.713333 76.176,114.812 C75.9706656,114.910667 75.7493345,114.988 75.512,115.044 C75.2746655,115.1 75.0200014,115.128 74.748,115.128 C74.2999978,115.128 73.9040017,115.052001 73.56,114.9 C73.2159983,114.747999 72.9266678,114.533335 72.692,114.256 C72.4573322,113.978665 72.2800006,113.649335 72.16,113.268 C72.0399994,112.886665 71.98,112.466669 71.98,112.008 L71.98,106.792 L73.956,106.792 Z M86.116,108.392 C86.0626664,108.477334 86.006667,108.537333 85.948,108.572 C85.889333,108.606667 85.8146671,108.624 85.724,108.624 C85.6279995,108.624 85.5253339,108.597334 85.416,108.544 C85.3066661,108.490666 85.1800007,108.430667 85.036,108.364 C84.8919993,108.297333 84.7280009,108.237334 84.544,108.184 C84.3599991,108.130666 84.1426679,108.104 83.892,108.104 C83.5026647,108.104 83.1960011,108.186666 82.972,108.352 C82.7479989,108.517334 82.636,108.733332 82.636,109 C82.636,109.176001 82.6933328,109.323999 82.808,109.444 C82.9226672,109.564001 83.0746657,109.669333 83.264,109.76 C83.4533343,109.850667 83.6679988,109.932 83.908,110.004 C84.1480012,110.076 84.3933321,110.154666 84.644,110.24 C84.8946679,110.325334 85.1399988,110.422666 85.38,110.532 C85.6200012,110.641334 85.8346657,110.779999 86.024,110.948 C86.2133343,111.116001 86.3653328,111.317332 86.48,111.552 C86.5946672,111.786668 86.652,112.069332 86.652,112.4 C86.652,112.794669 86.5800007,113.158665 86.436,113.492 C86.2919993,113.825335 86.0813347,114.113332 85.804,114.356 C85.5266653,114.598668 85.184002,114.787999 84.776,114.924 C84.367998,115.060001 83.9000026,115.128 83.372,115.128 C83.0893319,115.128 82.8133347,115.102667 82.544,115.052 C82.2746653,115.001333 82.0160012,114.930667 81.768,114.84 C81.5199988,114.749333 81.2906677,114.642667 81.08,114.52 C80.8693323,114.397333 80.6840008,114.264001 80.524,114.12 L80.98,113.368 C81.038667,113.277333 81.1079996,113.208 81.188,113.16 C81.2680004,113.112 81.3693327,113.088 81.492,113.088 C81.6146673,113.088 81.7306661,113.122666 81.84,113.192 C81.9493339,113.261334 82.0759993,113.336 82.22,113.416 C82.3640007,113.496 82.5333324,113.570666 82.728,113.64 C82.9226676,113.709334 83.1693318,113.744 83.468,113.744 C83.7026678,113.744 83.9039992,113.716 84.072,113.66 C84.2400008,113.604 84.3786661,113.530667 84.488,113.44 C84.5973339,113.349333 84.6773331,113.244001 84.728,113.124 C84.7786669,113.003999 84.804,112.880001 84.804,112.752 C84.804,112.559999 84.7466672,112.402667 84.632,112.28 C84.5173328,112.157333 84.3653343,112.050667 84.176,111.96 C83.9866657,111.869333 83.7706679,111.788 83.528,111.716 C83.2853321,111.644 83.0373346,111.565334 82.784,111.48 C82.5306654,111.394666 82.2826679,111.294667 82.04,111.18 C81.7973321,111.065333 81.5813343,110.920001 81.392,110.744 C81.2026657,110.567999 81.0506672,110.352001 80.936,110.096 C80.8213328,109.839999 80.764,109.530668 80.764,109.168 C80.764,108.831998 80.830666,108.512002 80.964,108.208 C81.097334,107.903998 81.293332,107.638668 81.552,107.412 C81.810668,107.185332 82.1333314,107.004001 82.52,106.868 C82.9066686,106.731999 83.3533308,106.664 83.86,106.664 C84.4253362,106.664 84.9399977,106.757332 85.404,106.944 C85.8680023,107.130668 86.2546651,107.375998 86.564,107.68 L86.116,108.392 Z M91.628,106.664 C92.1453359,106.664 92.6213312,106.746666 93.056,106.912 C93.4906688,107.077334 93.8653318,107.318665 94.18,107.636 C94.4946682,107.953335 94.7399991,108.342664 94.916,108.804 C95.0920009,109.265336 95.18,109.791997 95.18,110.384 C95.18,110.533334 95.1733334,110.657333 95.16,110.756 C95.1466666,110.854667 95.1226668,110.932 95.088,110.988 C95.0533332,111.044 95.006667,111.084 94.948,111.108 C94.889333,111.132 94.8146671,111.144 94.724,111.144 L89.652,111.144 C89.710667,111.986671 89.9373314,112.605331 90.332,113 C90.7266686,113.394669 91.2493301,113.592 91.9,113.592 C92.2200016,113.592 92.4959988,113.554667 92.728,113.48 C92.9600012,113.405333 93.1626658,113.322667 93.336,113.232 C93.5093342,113.141333 93.6613327,113.058667 93.792,112.984 C93.9226673,112.909333 94.0493327,112.872 94.172,112.872 C94.2520004,112.872 94.321333,112.888 94.38,112.92 C94.438667,112.952 94.4893331,112.997333 94.532,113.056 L95.108,113.776 C94.8893322,114.032001 94.6440014,114.246666 94.372,114.42 C94.0999986,114.593334 93.8160015,114.731999 93.52,114.836 C93.2239985,114.940001 92.9226682,115.013333 92.616,115.056 C92.3093318,115.098667 92.0120014,115.12 91.724,115.12 C91.1533305,115.12 90.6226691,115.025334 90.132,114.836 C89.6413309,114.646666 89.2146685,114.366669 88.852,113.996 C88.4893315,113.625331 88.204001,113.166669 87.996,112.62 C87.787999,112.073331 87.684,111.440004 87.684,110.72 C87.684,110.159997 87.7746658,109.633336 87.956,109.14 C88.1373342,108.646664 88.3973316,108.217335 88.736,107.852 C89.0746684,107.486665 89.4879976,107.197334 89.976,106.984 C90.4640024,106.770666 91.0146636,106.664 91.628,106.664 Z M91.668,108.08 C91.0919971,108.08 90.641335,108.242665 90.316,108.568 C89.990665,108.893335 89.7826671,109.354664 89.692,109.952 L93.404,109.952 C93.404,109.695999 93.3693337,109.454668 93.3,109.228 C93.2306663,109.001332 93.1240007,108.802668 92.98,108.632 C92.8359993,108.461332 92.6546678,108.326667 92.436,108.228 C92.2173322,108.129333 91.9613348,108.08 91.668,108.08 Z" id="Living-In-Own-House"></path>
            <g id="Page-1">
                <path d="M95.3551136,26.8277045 L95.3551136,4.01679545 L78.0660227,4.01679545 L78.0660227,9.24452273 L68.9760227,-2.27272727e-05 L30.6107955,39.0199773 L30.6107955,45.4715682 L37.3628409,45.4715682 L37.3628409,69.8474773 L100.588977,69.8474773 L100.588977,45.4715682 L107.345568,45.4715682 L107.345568,39.0199773 L95.3551136,26.8277045 Z M11.7155682,60.6265682 L25.4944318,60.6265682 L25.4944318,49.1554318 L11.7155682,49.1554318 L11.7155682,60.6265682 Z M25.4944318,40.8577045 C21.5378409,40.8599773 12.80625,40.8577045 8.85170455,40.8577045 L8.85170455,37.3154318 L5.78397727,35.7029318 L2.71375,37.3154318 L2.71375,40.8577045 L-0.000113636364,40.8577045 L-0.000113636364,46.2936136 L2.71375,46.2936136 L2.71375,69.8345227 L8.84965909,69.8345227 L8.85397727,46.2936136 L25.4967045,46.2895227 L26.9244318,43.5736136 L25.4944318,40.8577045 Z M57.8226136,43.7238409 L67.7607955,43.7238409 L67.7607955,33.9061136 L57.8226136,33.9061136 L57.8226136,43.7238409 Z M57.8226136,55.9763409 L67.7607955,55.9763409 L67.7607955,46.1583864 L57.8226136,46.1583864 L57.8226136,55.9763409 Z M70.1953409,43.7238409 L80.1355682,43.7238409 L80.1355682,33.9061136 L70.1953409,33.9061136 L70.1953409,43.7238409 Z M70.1953409,55.9763409 L80.1355682,55.9763409 L80.1355682,46.1583864 L70.1953409,46.1583864 L70.1953409,55.9763409 Z" id="Fill-1"></path>
            </g>
        </g>
    </g>
</svg>