<?xml version="1.0" encoding="UTF-8" standalone="no"?>
<svg width="131px" height="40px" viewBox="0 0 151 49" version="1.1" xmlns="http://www.w3.org/2000/svg" xmlns:xlink="http://www.w3.org/1999/xlink">
    <!-- Generator: Sketch 48.2 (47327) - http://www.bohemiancoding.com/sketch -->
    <title>Group 7</title>
    <desc>Created with Sketch.</desc>
    <defs></defs>
    <g id="Page3-Copy" stroke="none" stroke-width="1" fill="none" fill-rule="evenodd" transform="translate(-50.000000, -669.000000)">
        <g id="Group-7" transform="translate(50.000000, 669.000000)">
            <path d="M63.644,26.568 L63.644,33 L61.328,33 L61.328,15.804 L66.404,15.804 C67.4920054,15.804 68.437996,15.9299987 69.242,16.182 C70.046004,16.4340013 70.7119974,16.7919977 71.24,17.256 C71.7680026,17.7200023 72.1619987,18.2799967 72.422,18.936 C72.6820013,19.5920033 72.812,20.323996 72.812,21.132 C72.812,21.932004 72.6720014,22.6639967 72.392,23.328 C72.1119986,23.9920033 71.7020027,24.5639976 71.162,25.044 C70.6219973,25.5240024 69.952004,25.8979987 69.152,26.166 C68.351996,26.4340013 67.4360052,26.568 66.404,26.568 L63.644,26.568 Z M63.644,24.72 L66.404,24.72 C67.0680033,24.72 67.6539975,24.6320009 68.162,24.456 C68.6700025,24.2799991 69.0959983,24.0340016 69.44,23.718 C69.7840017,23.4019984 70.0439991,23.0240022 70.22,22.584 C70.3960009,22.1439978 70.484,21.6600026 70.484,21.132 C70.484,20.0359945 70.1460034,19.1800031 69.47,18.564 C68.7939966,17.9479969 67.7720068,17.64 66.404,17.64 L63.644,17.64 L63.644,24.72 Z M75.416,33 L75.416,20.844 L76.64,20.844 C76.8720012,20.844 77.0319996,20.8879996 77.12,20.976 C77.2080004,21.0640004 77.2679998,21.2159989 77.3,21.432 L77.444,23.328 C77.8600021,22.4799958 78.3739969,21.8180024 78.986,21.342 C79.5980031,20.8659976 80.3159959,20.628 81.14,20.628 C81.4760017,20.628 81.7799986,20.6659996 82.052,20.742 C82.3240014,20.8180004 82.5759988,20.9239993 82.808,21.06 L82.532,22.656 C82.4759997,22.856001 82.352001,22.956 82.16,22.956 C82.0479994,22.956 81.8760012,22.9180004 81.644,22.842 C81.4119988,22.7659996 81.0880021,22.728 80.672,22.728 C79.9279963,22.728 79.3060025,22.9439978 78.806,23.376 C78.3059975,23.8080022 77.8880017,24.4359959 77.552,25.26 L77.552,33 L75.416,33 Z M89.9,20.652 C90.6280036,20.652 91.2999969,20.7739988 91.916,21.018 C92.5320031,21.2620012 93.0639978,21.6139977 93.512,22.074 C93.9600022,22.5340023 94.3099987,23.1019966 94.562,23.778 C94.8140013,24.4540034 94.94,25.2239957 94.94,26.088 C94.94,26.4240017 94.9040004,26.6479994 94.832,26.76 C94.7599996,26.8720006 94.624001,26.928 94.424,26.928 L86.336,26.928 C86.3520001,27.6960038 86.455999,28.3639972 86.648,28.932 C86.840001,29.5000028 87.1039983,29.9739981 87.44,30.354 C87.7760017,30.7340019 88.1759977,31.0179991 88.64,31.206 C89.1040023,31.3940009 89.6239971,31.488 90.2,31.488 C90.7360027,31.488 91.1979981,31.4260006 91.586,31.302 C91.9740019,31.1779994 92.3079986,31.0440007 92.588,30.9 C92.8680014,30.7559993 93.1019991,30.6220006 93.29,30.498 C93.4780009,30.3739994 93.6399993,30.312 93.776,30.312 C93.9520009,30.312 94.0879995,30.3799993 94.184,30.516 L94.784,31.296 C94.5199987,31.6160016 94.2040018,31.8939988 93.836,32.13 C93.4679982,32.3660012 93.0740021,32.5599992 92.654,32.712 C92.2339979,32.8640008 91.8000022,32.9779996 91.352,33.054 C90.9039978,33.1300004 90.4600022,33.168 90.02,33.168 C89.1799958,33.168 88.4060035,33.0260014 87.698,32.742 C86.9899965,32.4579986 86.3780026,32.0420027 85.862,31.494 C85.3459974,30.9459973 84.9440014,30.268004 84.656,29.46 C84.3679986,28.651996 84.224,27.7240052 84.224,26.676 C84.224,25.8279958 84.3539987,25.0360037 84.614,24.3 C84.8740013,23.5639963 85.2479976,22.9260027 85.736,22.386 C86.2240024,21.8459973 86.8199965,21.4220015 87.524,21.114 C88.2280035,20.8059985 89.0199956,20.652 89.9,20.652 Z M89.948,22.224 C88.9159948,22.224 88.104003,22.521997 87.512,23.118 C86.919997,23.714003 86.5520007,24.5399947 86.408,25.596 L93.02,25.596 C93.02,25.0999975 92.9520007,24.6460021 92.816,24.234 C92.6799993,23.8219979 92.4800013,23.4660015 92.216,23.166 C91.9519987,22.8659985 91.6300019,22.6340008 91.25,22.47 C90.8699981,22.3059992 90.4360024,22.224 89.948,22.224 Z M95.816,20.844 L97.568,20.844 C97.7360008,20.844 97.8759994,20.8879996 97.988,20.976 C98.1000006,21.0640004 98.1799998,21.1679994 98.228,21.288 L101.312,29.112 C101.424001,29.4000014 101.512,29.6879986 101.576,29.976 C101.64,30.2640014 101.7,30.5479986 101.756,30.828 C101.82,30.5479986 101.888,30.2640014 101.96,29.976 C102.032,29.6879986 102.123999,29.4000014 102.236,29.112 L105.356,21.288 C105.404,21.1599994 105.481999,21.0540004 105.59,20.97 C105.698001,20.8859996 105.831999,20.844 105.992,20.844 L107.66,20.844 L102.704,33 L100.772,33 L95.816,20.844 Z M112.016,20.844 L112.016,33 L109.88,33 L109.88,20.844 L112.016,20.844 Z M112.496,17.028 C112.496,17.236001 112.454,17.4299991 112.37,17.61 C112.286,17.7900009 112.174001,17.9499993 112.034,18.09 C111.893999,18.2300007 111.732001,18.3399996 111.548,18.42 C111.363999,18.5000004 111.168001,18.54 110.96,18.54 C110.751999,18.54 110.558001,18.5000004 110.378,18.42 C110.197999,18.3399996 110.038001,18.2300007 109.898,18.09 C109.757999,17.9499993 109.648,17.7900009 109.568,17.61 C109.488,17.4299991 109.448,17.236001 109.448,17.028 C109.448,16.819999 109.488,16.6220009 109.568,16.434 C109.648,16.2459991 109.757999,16.0820007 109.898,15.942 C110.038001,15.8019993 110.197999,15.6920004 110.378,15.612 C110.558001,15.5319996 110.751999,15.492 110.96,15.492 C111.168001,15.492 111.363999,15.5319996 111.548,15.612 C111.732001,15.6920004 111.893999,15.8019993 112.034,15.942 C112.174001,16.0820007 112.286,16.2459991 112.37,16.434 C112.454,16.6220009 112.496,16.819999 112.496,17.028 Z M120.704,20.652 C121.592004,20.652 122.393996,20.7999985 123.11,21.096 C123.826004,21.3920015 124.433997,21.8119973 124.934,22.356 C125.434002,22.9000027 125.817999,23.5579961 126.086,24.33 C126.354001,25.1020039 126.488,25.9639952 126.488,26.916 C126.488,27.8760048 126.354001,28.7399962 126.086,29.508 C125.817999,30.2760038 125.434002,30.9319973 124.934,31.476 C124.433997,32.0200027 123.826004,32.4379985 123.11,32.73 C122.393996,33.0220015 121.592004,33.168 120.704,33.168 C119.815996,33.168 119.014004,33.0220015 118.298,32.73 C117.581996,32.4379985 116.972003,32.0200027 116.468,31.476 C115.963997,30.9319973 115.576001,30.2760038 115.304,29.508 C115.031999,28.7399962 114.896,27.8760048 114.896,26.916 C114.896,25.9639952 115.031999,25.1020039 115.304,24.33 C115.576001,23.5579961 115.963997,22.9000027 116.468,22.356 C116.972003,21.8119973 117.581996,21.3920015 118.298,21.096 C119.014004,20.7999985 119.815996,20.652 120.704,20.652 Z M120.704,31.5 C121.904006,31.5 122.799997,31.098004 123.392,30.294 C123.984003,29.489996 124.28,28.3680072 124.28,26.928 C124.28,25.4799928 123.984003,24.352004 123.392,23.544 C122.799997,22.735996 121.904006,22.332 120.704,22.332 C120.095997,22.332 119.568002,22.435999 119.12,22.644 C118.671998,22.852001 118.298001,23.151998 117.998,23.544 C117.697998,23.936002 117.474001,24.4179971 117.326,24.99 C117.177999,25.5620029 117.104,26.2079964 117.104,26.928 C117.104,27.6480036 117.177999,28.2919972 117.326,28.86 C117.474001,29.4280028 117.697998,29.9059981 117.998,30.294 C118.298001,30.6820019 118.671998,30.979999 119.12,31.188 C119.568002,31.396001 120.095997,31.5 120.704,31.5 Z M130.976,20.844 L130.976,28.596 C130.976,29.5160046 131.187998,30.2279975 131.612,30.732 C132.036002,31.2360025 132.675996,31.488 133.532,31.488 C134.156003,31.488 134.743997,31.3400015 135.296,31.044 C135.848003,30.7479985 136.355998,30.3360026 136.82,29.808 L136.82,20.844 L138.956,20.844 L138.956,33 L137.684,33 C137.379998,33 137.188,32.8520015 137.108,32.556 L136.94,31.248 C136.411997,31.8320029 135.820003,32.3019982 135.164,32.658 C134.507997,33.0140018 133.756004,33.192 132.908,33.192 C132.243997,33.192 131.658003,33.0820011 131.15,32.862 C130.641997,32.6419989 130.216002,32.332002 129.872,31.932 C129.527998,31.531998 129.270001,31.0480028 129.098,30.48 C128.925999,29.9119972 128.84,29.2840034 128.84,28.596 L128.84,20.844 L130.976,20.844 Z M149.432,22.848 C149.336,23.0240009 149.188001,23.112 148.988,23.112 C148.867999,23.112 148.732001,23.0680004 148.58,22.98 C148.427999,22.8919996 148.242001,22.7940005 148.022,22.686 C147.801999,22.5779995 147.540002,22.4780005 147.236,22.386 C146.931998,22.2939995 146.572002,22.248 146.156,22.248 C145.795998,22.248 145.472001,22.2939995 145.184,22.386 C144.895999,22.4780005 144.650001,22.6039992 144.446,22.764 C144.241999,22.9240008 144.086001,23.1099989 143.978,23.322 C143.869999,23.5340011 143.816,23.7639988 143.816,24.012 C143.816,24.3240016 143.905999,24.583999 144.086,24.792 C144.266001,25.000001 144.503999,25.1799992 144.8,25.332 C145.096001,25.4840008 145.431998,25.6179994 145.808,25.734 C146.184002,25.8500006 146.569998,25.9739993 146.966,26.106 C147.362002,26.2380007 147.747998,26.3839992 148.124,26.544 C148.500002,26.7040008 148.835999,26.9039988 149.132,27.144 C149.428001,27.3840012 149.665999,27.6779983 149.846,28.026 C150.026001,28.3740017 150.116,28.7919976 150.116,29.28 C150.116,29.8400028 150.016001,30.3579976 149.816,30.834 C149.615999,31.3100024 149.320002,31.7219983 148.928,32.07 C148.535998,32.4180017 148.056003,32.691999 147.488,32.892 C146.919997,33.092001 146.264004,33.192 145.52,33.192 C144.671996,33.192 143.904003,33.0540014 143.216,32.778 C142.527997,32.5019986 141.944002,32.1480022 141.464,31.716 L141.968,30.9 C142.032,30.7959995 142.108,30.7160003 142.196,30.66 C142.284,30.6039997 142.399999,30.576 142.544,30.576 C142.688001,30.576 142.839999,30.6319994 143,30.744 C143.160001,30.8560006 143.353999,30.9799993 143.582,31.116 C143.810001,31.2520007 144.085998,31.3759994 144.41,31.488 C144.734002,31.6000006 145.139998,31.656 145.628,31.656 C146.044002,31.656 146.407998,31.6020005 146.72,31.494 C147.032002,31.3859995 147.291999,31.2400009 147.5,31.056 C147.708001,30.8719991 147.861999,30.6600012 147.962,30.42 C148.062001,30.1799988 148.112,29.9240014 148.112,29.652 C148.112,29.3159983 148.022001,29.0380011 147.842,28.818 C147.661999,28.5979989 147.424001,28.4100008 147.128,28.254 C146.831999,28.0979992 146.494002,27.9620006 146.114,27.846 C145.733998,27.7299994 145.346002,27.6080006 144.95,27.48 C144.553998,27.3519994 144.166002,27.2060008 143.786,27.042 C143.405998,26.8779992 143.068001,26.6720012 142.772,26.424 C142.475999,26.1759988 142.238001,25.8700018 142.058,25.506 C141.877999,25.1419982 141.788,24.7000026 141.788,24.18 C141.788,23.7159977 141.883999,23.2700021 142.076,22.842 C142.268001,22.4139979 142.547998,22.0380016 142.916,21.714 C143.284002,21.3899984 143.735997,21.132001 144.272,20.94 C144.808003,20.747999 145.419997,20.652 146.108,20.652 C146.908004,20.652 147.625997,20.7779987 148.262,21.03 C148.898003,21.2820013 149.447998,21.6279978 149.912,22.068 L149.432,22.848 Z" id="Previous" fill="#333333"></path>
            <g id="Page-1-Copy">
                <path d="M24.4647987,0.103396203 C10.971359,0.103396203 2.07188161e-05,11.0515882 2.07188161e-05,24.5165608 C2.07188161e-05,37.9815333 10.971359,48.9296219 24.4647987,48.9296219 C37.9582385,48.9296219 48.9295767,37.9815333 48.9295767,24.5165608 C48.9295767,11.0515882 37.9582385,0.103396203 24.4647987,0.103396203" id="Fill-3" fill="#D0021B"></path>
                <path d="M17.1194294,13.2130051 C16.2748268,13.2118679 15.5892412,13.8941464 15.5881017,14.7369671 C15.5873765,15.2553954 15.8505055,15.7387793 16.2867402,16.0202709 L29.0566789,24.5159819 L16.2867402,33.0115895 C15.5838543,33.4789502 15.3936556,34.426697 15.8620044,35.1282034 C16.3304569,35.8296063 17.2801038,36.0194038 17.9830932,35.5519397 L32.6618564,25.7867772 C33.3648459,25.3196232 33.5552518,24.3722899 33.0872137,23.6708869 C32.9750214,23.5026949 32.830404,23.3584861 32.6618564,23.2465304 L17.9830932,13.4812646 C17.7288734,13.3069734 17.427829,13.2134186 17.1194294,13.2130051" id="Fill-1" fill="#FFFFFF" transform="translate(24.465901, 24.510635) scale(-1, 1) translate(-24.465901, -24.510635) "></path>
            </g>
        </g>
    </g>
</svg>