<?xml version="1.0" encoding="UTF-8" standalone="no"?>
<svg width="100px" height="80px" viewBox="0 0 125 108" version="1.1" xmlns="http://www.w3.org/2000/svg" xmlns:xlink="http://www.w3.org/1999/xlink">
    <!-- Generator: Sketch 48.2 (47327) - http://www.bohemiancoding.com/sketch -->
    <title>Private_Public</title>
    <desc>Created with Sketch.</desc>
    <defs></defs>
    <g id="Page3-Copy" stroke="none" stroke-width="1" fill="none" fill-rule="evenodd" transform="translate(-491.000000, -154.000000)">
        <g id="Private_Public" transform="translate(490.000000, 154.000000)">
            <path d="M14.772,81.928 L14.772,86 L12.62,86 L12.62,74.432 L16.388,74.432 C17.1613372,74.432 17.8306638,74.5226658 18.396,74.704 C18.9613362,74.8853342 19.4279982,75.138665 19.796,75.464 C20.1640018,75.789335 20.4359991,76.1786644 20.612,76.632 C20.7880009,77.0853356 20.876,77.5813306 20.876,78.12 C20.876,78.6800028 20.7826676,79.193331 20.596,79.66 C20.4093324,80.126669 20.1293352,80.5279983 19.756,80.864 C19.3826648,81.2000017 18.9160028,81.4613324 18.356,81.648 C17.7959972,81.8346676 17.1400038,81.928 16.388,81.928 L14.772,81.928 Z M14.772,80.248 L16.388,80.248 C16.7826686,80.248 17.1266652,80.1986672 17.42,80.1 C17.7133348,80.0013328 17.955999,79.8600009 18.148,79.676 C18.340001,79.4919991 18.4839995,79.2680013 18.58,79.004 C18.6760005,78.7399987 18.724,78.445335 18.724,78.12 C18.724,77.8106651 18.6760005,77.5306679 18.58,77.28 C18.4839995,77.0293321 18.340001,76.8160009 18.148,76.64 C17.955999,76.4639991 17.7133348,76.3293338 17.42,76.236 C17.1266652,76.1426662 16.7826686,76.096 16.388,76.096 L14.772,76.096 L14.772,80.248 Z M22.436,86 L22.436,77.792 L23.596,77.792 C23.7986677,77.792 23.9399996,77.829333 24.02,77.904 C24.1000004,77.978667 24.1533332,78.1066658 24.18,78.288 L24.3,79.28 C24.5933348,78.7733308 24.9373314,78.3733348 25.332,78.08 C25.7266686,77.7866652 26.1693309,77.64 26.66,77.64 C27.0653354,77.64 27.401332,77.7333324 27.668,77.92 L27.412,79.4 C27.3959999,79.4960005 27.3613336,79.5639998 27.308,79.604 C27.2546664,79.6440002 27.1826671,79.664 27.092,79.664 C27.0119996,79.664 26.9026674,79.6453335 26.764,79.608 C26.6253326,79.5706665 26.4413345,79.552 26.212,79.552 C25.8013313,79.552 25.4493348,79.6653322 25.156,79.892 C24.8626652,80.1186678 24.6146677,80.4506645 24.412,80.888 L24.412,86 L22.436,86 Z M31.076,77.792 L31.076,86 L29.1,86 L29.1,77.792 L31.076,77.792 Z M31.372,75.4 C31.372,75.5706675 31.3373337,75.7306659 31.268,75.88 C31.1986663,76.0293341 31.1066672,76.1599994 30.992,76.272 C30.8773328,76.3840006 30.7426674,76.473333 30.588,76.54 C30.4333326,76.606667 30.2680009,76.64 30.092,76.64 C29.9213325,76.64 29.7600008,76.606667 29.608,76.54 C29.4559992,76.473333 29.3240006,76.3840006 29.212,76.272 C29.0999994,76.1599994 29.010667,76.0293341 28.944,75.88 C28.877333,75.7306659 28.844,75.5706675 28.844,75.4 C28.844,75.2239991 28.877333,75.0586674 28.944,74.904 C29.010667,74.7493326 29.0999994,74.6160006 29.212,74.504 C29.3240006,74.3919994 29.4559992,74.302667 29.608,74.236 C29.7600008,74.169333 29.9213325,74.136 30.092,74.136 C30.2680009,74.136 30.4333326,74.169333 30.588,74.236 C30.7426674,74.302667 30.8773328,74.3919994 30.992,74.504 C31.1066672,74.6160006 31.1986663,74.7493326 31.268,74.904 C31.3373337,75.0586674 31.372,75.2239991 31.372,75.4 Z M37.42,86 L35.628,86 L32.364,77.792 L34.004,77.792 C34.1480007,77.792 34.2693328,77.8266663 34.368,77.896 C34.4666672,77.9653337 34.5346665,78.0533328 34.572,78.16 L36.156,82.544 C36.2466671,82.8000013 36.3226664,83.0506654 36.384,83.296 C36.4453336,83.5413346 36.4999998,83.7866654 36.548,84.032 C36.5960002,83.7866654 36.6506664,83.5413346 36.712,83.296 C36.7733336,83.0506654 36.8519995,82.8000013 36.948,82.544 L38.572,78.16 C38.6093335,78.0533328 38.6759995,77.9653337 38.772,77.896 C38.8680005,77.8266663 38.982666,77.792 39.116,77.792 L40.676,77.792 L37.42,86 Z M48.276,86 L47.388,86 C47.2013324,86 47.0546672,85.9720003 46.948,85.916 C46.8413328,85.8599997 46.7613336,85.7466675 46.708,85.576 L46.532,84.992 C46.323999,85.1786676 46.120001,85.342666 45.92,85.484 C45.719999,85.625334 45.5133344,85.7439995 45.3,85.84 C45.0866656,85.9360005 44.8600012,86.0079998 44.62,86.056 C44.3799988,86.1040002 44.1133348,86.128 43.82,86.128 C43.4733316,86.128 43.1533348,86.0813338 42.86,85.988 C42.5666652,85.8946662 42.3146677,85.7546676 42.104,85.568 C41.8933323,85.3813324 41.7293339,85.1493347 41.612,84.872 C41.4946661,84.5946653 41.436,84.2720018 41.436,83.904 C41.436,83.5946651 41.5173325,83.2893348 41.68,82.988 C41.8426675,82.6866652 42.1133314,82.4146679 42.492,82.172 C42.8706686,81.9293321 43.3746635,81.7280008 44.004,81.568 C44.6333365,81.4079992 45.414662,81.3173334 46.348,81.296 L46.348,80.816 C46.348,80.2666639 46.2320012,79.8600013 46,79.596 C45.7679988,79.3319987 45.4306689,79.2 44.988,79.2 C44.6679984,79.2 44.4013344,79.237333 44.188,79.312 C43.9746656,79.386667 43.7893341,79.4706662 43.632,79.564 C43.4746659,79.6573338 43.329334,79.741333 43.196,79.816 C43.062666,79.890667 42.9160008,79.928 42.756,79.928 C42.622666,79.928 42.5080005,79.8933337 42.412,79.824 C42.3159995,79.7546663 42.238667,79.6693338 42.18,79.568 L41.82,78.936 C42.7640047,78.0719957 43.90266,77.64 45.236,77.64 C45.7160024,77.64 46.1439981,77.7186659 46.52,77.876 C46.8960019,78.0333341 47.2146654,78.2519986 47.476,78.532 C47.7373346,78.8120014 47.9359993,79.1466647 48.072,79.536 C48.2080007,79.9253353 48.276,80.3519977 48.276,80.816 L48.276,86 Z M44.436,84.768 C44.6386677,84.768 44.8253325,84.7493335 44.996,84.712 C45.1666675,84.6746665 45.3279992,84.618667 45.48,84.544 C45.6320008,84.469333 45.778666,84.3773339 45.92,84.268 C46.061334,84.1586661 46.2039993,84.0293341 46.348,83.88 L46.348,82.496 C45.7719971,82.5226668 45.2906686,82.5719996 44.904,82.644 C44.5173314,82.7160004 44.2066678,82.8079994 43.972,82.92 C43.7373322,83.0320006 43.5706672,83.1626659 43.472,83.312 C43.3733328,83.4613341 43.324,83.6239991 43.324,83.8 C43.324,84.1466684 43.4266656,84.3946659 43.632,84.544 C43.8373344,84.6933341 44.1053317,84.768 44.436,84.768 Z M52.916,86.128 C52.2066631,86.128 51.6600019,85.9266687 51.276,85.524 C50.8919981,85.1213313 50.7,84.5653369 50.7,83.856 L50.7,79.272 L49.868,79.272 C49.7613328,79.272 49.6693337,79.2373337 49.592,79.168 C49.5146663,79.0986663 49.476,78.9946674 49.476,78.856 L49.476,78.072 L50.796,77.856 L51.212,75.616 C51.2333334,75.5093328 51.2826663,75.426667 51.36,75.368 C51.4373337,75.309333 51.5346661,75.28 51.652,75.28 L52.676,75.28 L52.676,77.864 L54.836,77.864 L54.836,79.272 L52.676,79.272 L52.676,83.72 C52.676,83.9760013 52.7399994,84.1759993 52.868,84.32 C52.9960006,84.4640007 53.1666656,84.536 53.38,84.536 C53.5026673,84.536 53.6053329,84.5213335 53.688,84.492 C53.7706671,84.4626665 53.8426664,84.4320002 53.904,84.4 C53.9653336,84.3679998 54.0199998,84.3373335 54.068,84.308 C54.1160002,84.2786665 54.1639998,84.264 54.212,84.264 C54.270667,84.264 54.3186665,84.2786665 54.356,84.308 C54.3933335,84.3373335 54.4333331,84.381333 54.476,84.44 L55.068,85.4 C54.7799986,85.6400012 54.4493352,85.8213327 54.076,85.944 C53.7026648,86.0666673 53.316002,86.128 52.916,86.128 Z M59.804,77.664 C60.3213359,77.664 60.7973312,77.7466658 61.232,77.912 C61.6666688,78.0773342 62.0413318,78.3186651 62.356,78.636 C62.6706682,78.9533349 62.9159991,79.3426644 63.092,79.804 C63.2680009,80.2653356 63.356,80.791997 63.356,81.384 C63.356,81.5333341 63.3493334,81.6573328 63.336,81.756 C63.3226666,81.8546672 63.2986668,81.9319997 63.264,81.988 C63.2293332,82.0440003 63.182667,82.0839999 63.124,82.108 C63.065333,82.1320001 62.9906671,82.144 62.9,82.144 L57.828,82.144 C57.886667,82.9866709 58.1133314,83.6053314 58.508,84 C58.9026686,84.3946686 59.4253301,84.592 60.076,84.592 C60.3960016,84.592 60.6719988,84.554667 60.904,84.48 C61.1360012,84.405333 61.3386658,84.3226671 61.512,84.232 C61.6853342,84.1413329 61.8373327,84.058667 61.968,83.984 C62.0986673,83.909333 62.2253327,83.872 62.348,83.872 C62.4280004,83.872 62.497333,83.8879998 62.556,83.92 C62.614667,83.9520002 62.6653331,83.997333 62.708,84.056 L63.284,84.776 C63.0653322,85.0320013 62.8200014,85.2466658 62.548,85.42 C62.2759986,85.5933342 61.9920015,85.7319995 61.696,85.836 C61.3999985,85.9400005 61.0986682,86.0133331 60.792,86.056 C60.4853318,86.0986669 60.1880014,86.12 59.9,86.12 C59.3293305,86.12 58.7986691,86.0253343 58.308,85.836 C57.8173309,85.6466657 57.3906685,85.3666685 57.028,84.996 C56.6653315,84.6253315 56.380001,84.1666694 56.172,83.62 C55.963999,83.0733306 55.86,82.4400036 55.86,81.72 C55.86,81.1599972 55.9506658,80.6333358 56.132,80.14 C56.3133342,79.6466642 56.5733316,79.2173352 56.912,78.852 C57.2506684,78.4866648 57.6639976,78.1973344 58.152,77.984 C58.6400024,77.7706656 59.1906636,77.664 59.804,77.664 Z M59.844,79.08 C59.2679971,79.08 58.817335,79.242665 58.492,79.568 C58.166665,79.893335 57.9586671,80.3546637 57.868,80.952 L61.58,80.952 C61.58,80.6959987 61.5453337,80.4546678 61.476,80.228 C61.4066663,80.0013322 61.3000007,79.8026675 61.156,79.632 C61.0119993,79.4613325 60.8306678,79.3266672 60.612,79.228 C60.3933322,79.1293328 60.1373348,79.08 59.844,79.08 Z M65.652,86.024 C65.6039998,86.1466673 65.542667,86.2533329 65.468,86.344 C65.393333,86.4346671 65.3080005,86.5106664 65.212,86.572 C65.1159995,86.6333336 65.0146672,86.6799998 64.908,86.712 C64.8013328,86.7440002 64.6973338,86.76 64.596,86.76 L63.764,86.76 L68.436,74.808 C68.5266671,74.5839989 68.6573325,74.4120006 68.828,74.292 C68.9986675,74.1719994 69.2039988,74.112 69.444,74.112 L70.284,74.112 L65.652,86.024 Z M73.492,81.928 L73.492,86 L71.34,86 L71.34,74.432 L75.108,74.432 C75.8813372,74.432 76.5506638,74.5226658 77.116,74.704 C77.6813362,74.8853342 78.1479982,75.138665 78.516,75.464 C78.8840018,75.789335 79.1559991,76.1786644 79.332,76.632 C79.5080009,77.0853356 79.596,77.5813306 79.596,78.12 C79.596,78.6800028 79.5026676,79.193331 79.316,79.66 C79.1293324,80.126669 78.8493352,80.5279983 78.476,80.864 C78.1026648,81.2000017 77.6360028,81.4613324 77.076,81.648 C76.5159972,81.8346676 75.8600038,81.928 75.108,81.928 L73.492,81.928 Z M73.492,80.248 L75.108,80.248 C75.5026686,80.248 75.8466652,80.1986672 76.14,80.1 C76.4333348,80.0013328 76.675999,79.8600009 76.868,79.676 C77.060001,79.4919991 77.2039995,79.2680013 77.3,79.004 C77.3960005,78.7399987 77.444,78.445335 77.444,78.12 C77.444,77.8106651 77.3960005,77.5306679 77.3,77.28 C77.2039995,77.0293321 77.060001,76.8160009 76.868,76.64 C76.675999,76.4639991 76.4333348,76.3293338 76.14,76.236 C75.8466652,76.1426662 75.5026686,76.096 75.108,76.096 L73.492,76.096 L73.492,80.248 Z M82.964,77.792 L82.964,83.008 C82.964,83.5093358 83.0799988,83.897332 83.312,84.172 C83.5440012,84.446668 83.8919977,84.584 84.356,84.584 C84.697335,84.584 85.0173318,84.5080008 85.316,84.356 C85.6146682,84.2039992 85.897332,83.994668 86.164,83.728 L86.164,77.792 L88.14,77.792 L88.14,86 L86.932,86 C86.6759987,86 86.5080004,85.8800012 86.428,85.64 L86.292,84.984 C86.1213325,85.1546675 85.9453342,85.310666 85.764,85.452 C85.5826658,85.593334 85.3893344,85.7133328 85.184,85.812 C84.9786656,85.9106672 84.7573345,85.9879997 84.52,86.044 C84.2826655,86.1000003 84.0280014,86.128 83.756,86.128 C83.3079978,86.128 82.9120017,86.0520008 82.568,85.9 C82.2239983,85.7479992 81.9346678,85.5333347 81.7,85.256 C81.4653322,84.9786653 81.2880006,84.6493352 81.168,84.268 C81.0479994,83.8866648 80.988,83.466669 80.988,83.008 L80.988,77.792 L82.964,77.792 Z M90.276,86 L90.276,74.112 L92.252,74.112 L92.252,78.8 C92.577335,78.4533316 92.9453313,78.1773344 93.356,77.972 C93.7666687,77.7666656 94.2466639,77.664 94.796,77.664 C95.2440022,77.664 95.6533315,77.7559991 96.024,77.94 C96.3946685,78.1240009 96.7146653,78.3919982 96.984,78.744 C97.2533347,79.0960018 97.4613326,79.5306641 97.608,80.048 C97.7546674,80.5653359 97.828,81.1599966 97.828,81.832 C97.828,82.4453364 97.7453342,83.0133307 97.58,83.536 C97.4146658,84.0586693 97.1786682,84.5119981 96.872,84.896 C96.5653318,85.2800019 96.1946688,85.5799989 95.76,85.796 C95.3253312,86.0120011 94.8386694,86.12 94.3,86.12 C94.0493321,86.12 93.820001,86.0946669 93.612,86.044 C93.403999,85.9933331 93.2146675,85.9226671 93.044,85.832 C92.8733325,85.7413329 92.7146674,85.6306673 92.568,85.5 C92.4213326,85.3693327 92.281334,85.2240008 92.148,85.064 L92.06,85.616 C92.0279998,85.7546674 91.9733337,85.853333 91.896,85.912 C91.8186663,85.970667 91.713334,86 91.58,86 L90.276,86 Z M94.116,79.2 C93.7053313,79.2 93.3546681,79.2866658 93.064,79.46 C92.7733319,79.6333342 92.5026679,79.8773318 92.252,80.192 L92.252,83.872 C92.4760011,84.1493347 92.7199987,84.3426661 92.984,84.452 C93.2480013,84.5613339 93.5346651,84.616 93.844,84.616 C94.1426682,84.616 94.4119988,84.5600006 94.652,84.448 C94.8920012,84.3359994 95.0959992,84.1653345 95.264,83.936 C95.4320008,83.7066655 95.5613329,83.4173351 95.652,83.068 C95.7426671,82.7186649 95.788,82.306669 95.788,81.832 C95.788,81.3519976 95.7493337,80.945335 95.672,80.612 C95.5946663,80.278665 95.4840007,80.008001 95.34,79.8 C95.1959993,79.591999 95.0213344,79.4400005 94.816,79.344 C94.6106656,79.2479995 94.3773346,79.2 94.116,79.2 Z M101.476,74.112 L101.476,86 L99.5,86 L99.5,74.112 L101.476,74.112 Z M105.812,77.792 L105.812,86 L103.836,86 L103.836,77.792 L105.812,77.792 Z M106.108,75.4 C106.108,75.5706675 106.073334,75.7306659 106.004,75.88 C105.934666,76.0293341 105.842667,76.1599994 105.728,76.272 C105.613333,76.3840006 105.478667,76.473333 105.324,76.54 C105.169333,76.606667 105.004001,76.64 104.828,76.64 C104.657332,76.64 104.496001,76.606667 104.344,76.54 C104.191999,76.473333 104.060001,76.3840006 103.948,76.272 C103.835999,76.1599994 103.746667,76.0293341 103.68,75.88 C103.613333,75.7306659 103.58,75.5706675 103.58,75.4 C103.58,75.2239991 103.613333,75.0586674 103.68,74.904 C103.746667,74.7493326 103.835999,74.6160006 103.948,74.504 C104.060001,74.3919994 104.191999,74.302667 104.344,74.236 C104.496001,74.169333 104.657332,74.136 104.828,74.136 C105.004001,74.136 105.169333,74.169333 105.324,74.236 C105.478667,74.302667 105.613333,74.3919994 105.728,74.504 C105.842667,74.6160006 105.934666,74.7493326 106.004,74.904 C106.073334,75.0586674 106.108,75.2239991 106.108,75.4 Z M113.812,79.528 C113.753333,79.602667 113.696,79.6613331 113.64,79.704 C113.584,79.7466669 113.502667,79.768 113.396,79.768 C113.294666,79.768 113.196,79.7373336 113.1,79.676 C113.004,79.6146664 112.889334,79.5453337 112.756,79.468 C112.622666,79.3906663 112.464001,79.3213336 112.28,79.26 C112.095999,79.1986664 111.868001,79.168 111.596,79.168 C111.249332,79.168 110.945335,79.230666 110.684,79.356 C110.422665,79.481334 110.205334,79.6613322 110.032,79.896 C109.858666,80.1306678 109.729334,80.414665 109.644,80.748 C109.558666,81.081335 109.516,81.4586646 109.516,81.88 C109.516,82.3173355 109.562666,82.706665 109.656,83.048 C109.749334,83.389335 109.883999,83.6759988 110.06,83.908 C110.236001,84.1400012 110.449332,84.3159994 110.7,84.436 C110.950668,84.5560006 111.233332,84.616 111.548,84.616 C111.862668,84.616 112.117332,84.5773337 112.312,84.5 C112.506668,84.4226663 112.670666,84.3373338 112.804,84.244 C112.937334,84.1506662 113.053333,84.0653337 113.152,83.988 C113.250667,83.9106663 113.361333,83.872 113.484,83.872 C113.644001,83.872 113.764,83.9333327 113.844,84.056 L114.412,84.776 C114.193332,85.0320013 113.956001,85.2466658 113.7,85.42 C113.443999,85.5933342 113.178668,85.7319995 112.904,85.836 C112.629332,85.9400005 112.345335,86.0133331 112.052,86.056 C111.758665,86.0986669 111.468001,86.12 111.18,86.12 C110.673331,86.12 110.196002,86.0253343 109.748,85.836 C109.299998,85.6466657 108.909335,85.3706685 108.576,85.008 C108.242665,84.6453315 107.978668,84.201336 107.784,83.676 C107.589332,83.150664 107.492,82.5520034 107.492,81.88 C107.492,81.2773303 107.578666,80.7186692 107.752,80.204 C107.925334,79.6893308 108.179998,79.2440019 108.516,78.868 C108.852002,78.4919981 109.267998,78.1973344 109.764,77.984 C110.260002,77.7706656 110.830663,77.664 111.476,77.664 C112.089336,77.664 112.626664,77.7626657 113.088,77.96 C113.549336,78.1573343 113.963998,78.4399982 114.332,78.808 L113.812,79.528 Z M3.604,103.224 L8.236,103.224 L8.236,105 L1.452,105 L1.452,93.432 L3.604,93.432 L3.604,103.224 Z M11.716,96.792 L11.716,105 L9.74,105 L9.74,96.792 L11.716,96.792 Z M12.012,94.4 C12.012,94.5706675 11.9773337,94.7306659 11.908,94.88 C11.8386663,95.0293341 11.7466672,95.1599994 11.632,95.272 C11.5173328,95.3840006 11.3826674,95.473333 11.228,95.54 C11.0733326,95.606667 10.9080009,95.64 10.732,95.64 C10.5613325,95.64 10.4000008,95.606667 10.248,95.54 C10.0959992,95.473333 9.96400056,95.3840006 9.852,95.272 C9.73999944,95.1599994 9.650667,95.0293341 9.584,94.88 C9.517333,94.7306659 9.484,94.5706675 9.484,94.4 C9.484,94.2239991 9.517333,94.0586674 9.584,93.904 C9.650667,93.7493326 9.73999944,93.6160006 9.852,93.504 C9.96400056,93.3919994 10.0959992,93.302667 10.248,93.236 C10.4000008,93.169333 10.5613325,93.136 10.732,93.136 C10.9080009,93.136 11.0733326,93.169333 11.228,93.236 C11.3826674,93.302667 11.5173328,93.3919994 11.632,93.504 C11.7466672,93.6160006 11.8386663,93.7493326 11.908,93.904 C11.9773337,94.0586674 12.012,94.2239991 12.012,94.4 Z M13.948,105 L13.948,96.792 L15.156,96.792 C15.4120013,96.792 15.5799996,96.9119988 15.66,97.152 L15.788,97.76 C15.9320007,97.5999992 16.0826659,97.453334 16.24,97.32 C16.3973341,97.186666 16.5653324,97.0720005 16.744,96.976 C16.9226676,96.8799995 17.1146656,96.8040003 17.32,96.748 C17.5253344,96.6919997 17.7506654,96.664 17.996,96.664 C18.5133359,96.664 18.938665,96.8039986 19.272,97.084 C19.605335,97.3640014 19.8546658,97.7359977 20.02,98.2 C20.1480006,97.9279986 20.307999,97.6946676 20.5,97.5 C20.692001,97.3053324 20.9026655,97.1466673 21.132,97.024 C21.3613345,96.9013327 21.605332,96.810667 21.864,96.752 C22.122668,96.693333 22.3826654,96.664 22.644,96.664 C23.0973356,96.664 23.4999982,96.7333326 23.852,96.872 C24.2040018,97.0106674 24.4999988,97.213332 24.74,97.48 C24.9800012,97.746668 25.162666,98.0719981 25.288,98.456 C25.413334,98.8400019 25.476,99.2799975 25.476,99.776 L25.476,105 L23.5,105 L23.5,99.776 C23.5,99.2533307 23.3853345,98.8600013 23.156,98.596 C22.9266655,98.3319987 22.5906689,98.2 22.148,98.2 C21.9453323,98.2 21.7573342,98.2346663 21.584,98.304 C21.4106658,98.3733337 21.2586673,98.4733327 21.128,98.604 C20.9973327,98.7346673 20.894667,98.8986657 20.82,99.096 C20.745333,99.2933343 20.708,99.5199987 20.708,99.776 L20.708,105 L18.724,105 L18.724,99.776 C18.724,99.2266639 18.6133344,98.8266679 18.392,98.576 C18.1706656,98.3253321 17.8440022,98.2 17.412,98.2 C17.1293319,98.2 16.8640012,98.270666 16.616,98.412 C16.3679988,98.553334 16.1373344,98.7466654 15.924,98.992 L15.924,105 L13.948,105 Z M29.524,96.792 L29.524,105 L27.548,105 L27.548,96.792 L29.524,96.792 Z M29.82,94.4 C29.82,94.5706675 29.7853337,94.7306659 29.716,94.88 C29.6466663,95.0293341 29.5546672,95.1599994 29.44,95.272 C29.3253328,95.3840006 29.1906674,95.473333 29.036,95.54 C28.8813326,95.606667 28.7160009,95.64 28.54,95.64 C28.3693325,95.64 28.2080008,95.606667 28.056,95.54 C27.9039992,95.473333 27.7720006,95.3840006 27.66,95.272 C27.5479994,95.1599994 27.458667,95.0293341 27.392,94.88 C27.325333,94.7306659 27.292,94.5706675 27.292,94.4 C27.292,94.2239991 27.325333,94.0586674 27.392,93.904 C27.458667,93.7493326 27.5479994,93.6160006 27.66,93.504 C27.7720006,93.3919994 27.9039992,93.302667 28.056,93.236 C28.2080008,93.169333 28.3693325,93.136 28.54,93.136 C28.7160009,93.136 28.8813326,93.169333 29.036,93.236 C29.1906674,93.302667 29.3253328,93.3919994 29.44,93.504 C29.5546672,93.6160006 29.6466663,93.7493326 29.716,93.904 C29.7853337,94.0586674 29.82,94.2239991 29.82,94.4 Z M34.452,105.128 C33.7426631,105.128 33.1960019,104.926669 32.812,104.524 C32.4279981,104.121331 32.236,103.565337 32.236,102.856 L32.236,98.272 L31.404,98.272 C31.2973328,98.272 31.2053337,98.2373337 31.128,98.168 C31.0506663,98.0986663 31.012,97.9946674 31.012,97.856 L31.012,97.072 L32.332,96.856 L32.748,94.616 C32.7693334,94.5093328 32.8186663,94.426667 32.896,94.368 C32.9733337,94.309333 33.0706661,94.28 33.188,94.28 L34.212,94.28 L34.212,96.864 L36.372,96.864 L36.372,98.272 L34.212,98.272 L34.212,102.72 C34.212,102.976001 34.2759994,103.175999 34.404,103.32 C34.5320006,103.464001 34.7026656,103.536 34.916,103.536 C35.0386673,103.536 35.1413329,103.521333 35.224,103.492 C35.3066671,103.462667 35.3786664,103.432 35.44,103.4 C35.5013336,103.368 35.5559998,103.337333 35.604,103.308 C35.6520002,103.278667 35.6999998,103.264 35.748,103.264 C35.806667,103.264 35.8546665,103.278667 35.892,103.308 C35.9293335,103.337333 35.9693331,103.381333 36.012,103.44 L36.604,104.4 C36.3159986,104.640001 35.9853352,104.821333 35.612,104.944 C35.2386648,105.066667 34.852002,105.128 34.452,105.128 Z M41.34,96.664 C41.8573359,96.664 42.3333312,96.7466658 42.768,96.912 C43.2026688,97.0773342 43.5773318,97.3186651 43.892,97.636 C44.2066682,97.9533349 44.4519991,98.3426644 44.628,98.804 C44.8040009,99.2653356 44.892,99.791997 44.892,100.384 C44.892,100.533334 44.8853334,100.657333 44.872,100.756 C44.8586666,100.854667 44.8346668,100.932 44.8,100.988 C44.7653332,101.044 44.718667,101.084 44.66,101.108 C44.601333,101.132 44.5266671,101.144 44.436,101.144 L39.364,101.144 C39.422667,101.986671 39.6493314,102.605331 40.044,103 C40.4386686,103.394669 40.9613301,103.592 41.612,103.592 C41.9320016,103.592 42.2079988,103.554667 42.44,103.48 C42.6720012,103.405333 42.8746658,103.322667 43.048,103.232 C43.2213342,103.141333 43.3733327,103.058667 43.504,102.984 C43.6346673,102.909333 43.7613327,102.872 43.884,102.872 C43.9640004,102.872 44.033333,102.888 44.092,102.92 C44.150667,102.952 44.2013331,102.997333 44.244,103.056 L44.82,103.776 C44.6013322,104.032001 44.3560014,104.246666 44.084,104.42 C43.8119986,104.593334 43.5280015,104.731999 43.232,104.836 C42.9359985,104.940001 42.6346682,105.013333 42.328,105.056 C42.0213318,105.098667 41.7240014,105.12 41.436,105.12 C40.8653305,105.12 40.3346691,105.025334 39.844,104.836 C39.3533309,104.646666 38.9266685,104.366669 38.564,103.996 C38.2013315,103.625331 37.916001,103.166669 37.708,102.62 C37.499999,102.073331 37.396,101.440004 37.396,100.72 C37.396,100.159997 37.4866658,99.6333358 37.668,99.14 C37.8493342,98.6466642 38.1093316,98.2173352 38.448,97.852 C38.7866684,97.4866648 39.1999976,97.1973344 39.688,96.984 C40.1760024,96.7706656 40.7266636,96.664 41.34,96.664 Z M41.38,98.08 C40.8039971,98.08 40.353335,98.242665 40.028,98.568 C39.702665,98.893335 39.4946671,99.3546637 39.404,99.952 L43.116,99.952 C43.116,99.6959987 43.0813337,99.4546678 43.012,99.228 C42.9426663,99.0013322 42.8360007,98.8026675 42.692,98.632 C42.5479993,98.4613325 42.3666678,98.3266672 42.148,98.228 C41.9293322,98.1293328 41.6733348,98.08 41.38,98.08 Z M52.276,105 C52.0199987,105 51.8520004,104.880001 51.772,104.64 L51.612,103.848 C51.4413325,104.040001 51.2626676,104.213333 51.076,104.368 C50.8893324,104.522667 50.6880011,104.655999 50.472,104.768 C50.2559989,104.880001 50.0240012,104.966666 49.776,105.028 C49.5279988,105.089334 49.2600014,105.12 48.972,105.12 C48.5239978,105.12 48.1133352,105.026668 47.74,104.84 C47.3666648,104.653332 47.0453347,104.382668 46.776,104.028 C46.5066653,103.673332 46.2986674,103.234669 46.152,102.712 C46.0053326,102.189331 45.932,101.592003 45.932,100.92 C45.932,100.311997 46.0146658,99.7466693 46.18,99.224 C46.3453342,98.7013307 46.5826651,98.2480019 46.892,97.864 C47.2013349,97.4799981 47.5719978,97.1800011 48.004,96.964 C48.4360022,96.7479989 48.9213306,96.64 49.46,96.64 C49.918669,96.64 50.310665,96.7133326 50.636,96.86 C50.961335,97.0066674 51.2519987,97.2026654 51.508,97.448 L51.508,93.112 L53.484,93.112 L53.484,105 L52.276,105 Z M49.644,103.552 C50.0546687,103.552 50.4039986,103.466668 50.692,103.296 C50.9800014,103.125332 51.2519987,102.882668 51.508,102.568 L51.508,98.888 C51.2839989,98.6159986 51.0400013,98.4240006 50.776,98.312 C50.5119987,98.1999994 50.2280015,98.144 49.924,98.144 C49.6253318,98.144 49.3546679,98.1999994 49.112,98.312 C48.8693321,98.4240006 48.6640008,98.5933322 48.496,98.82 C48.3279992,99.0466678 48.1986671,99.3346649 48.108,99.684 C48.0173329,100.033335 47.972,100.445331 47.972,100.92 C47.972,101.400002 48.0106663,101.806665 48.088,102.14 C48.1653337,102.473335 48.2759993,102.745332 48.42,102.956 C48.5640007,103.166668 48.739999,103.318666 48.948,103.412 C49.156001,103.505334 49.3879987,103.552 49.644,103.552 Z M66.772,102.272 C66.8893339,102.272 66.9906662,102.317333 67.076,102.408 L67.924,103.328 C67.4546643,103.909336 66.8773368,104.354665 66.192,104.664 C65.5066632,104.973335 64.6840048,105.128 63.724,105.128 C62.865329,105.128 62.0933368,104.981335 61.408,104.688 C60.7226632,104.394665 60.1373358,103.986669 59.652,103.464 C59.1666642,102.941331 58.794668,102.317337 58.536,101.592 C58.277332,100.866663 58.148,100.074671 58.148,99.216 C58.148,98.3466623 58.2919986,97.5506703 58.58,96.828 C58.8680014,96.1053297 59.2733307,95.4826693 59.796,94.96 C60.3186693,94.4373307 60.9439964,94.0306681 61.672,93.74 C62.4000036,93.4493319 63.2039956,93.304 64.084,93.304 C64.942671,93.304 65.6933301,93.441332 66.336,93.716 C66.9786699,93.990668 67.529331,94.3546644 67.988,94.808 L67.268,95.808 C67.2253331,95.8720003 67.170667,95.9279998 67.104,95.976 C67.037333,96.0240002 66.9453339,96.048 66.828,96.048 C66.7053327,96.048 66.5800006,96.0000005 66.452,95.904 C66.3239994,95.8079995 66.1613343,95.7040006 65.964,95.592 C65.7666657,95.4799994 65.5173348,95.3760005 65.216,95.28 C64.9146652,95.1839995 64.5320023,95.136 64.068,95.136 C63.5239973,95.136 63.0240023,95.2306657 62.568,95.42 C62.1119977,95.6093343 61.7200016,95.8799982 61.392,96.232 C61.0639984,96.5840018 60.8080009,97.0119975 60.624,97.516 C60.4399991,98.0200025 60.348,98.5866635 60.348,99.216 C60.348,99.8666699 60.4399991,100.445331 60.624,100.952 C60.8080009,101.458669 61.0573318,101.885332 61.372,102.232 C61.6866682,102.578668 62.0573312,102.843999 62.484,103.028 C62.9106688,103.212001 63.3693309,103.304 63.86,103.304 C64.1533348,103.304 64.4186655,103.288 64.656,103.256 C64.8933345,103.224 65.111999,103.173334 65.312,103.104 C65.512001,103.034666 65.7013324,102.945334 65.88,102.836 C66.0586676,102.726666 66.2359991,102.592001 66.412,102.432 C66.4653336,102.384 66.521333,102.345333 66.58,102.316 C66.638667,102.286667 66.7026663,102.272 66.772,102.272 Z M72.94,96.664 C73.5533364,96.664 74.1093308,96.7626657 74.608,96.96 C75.1066692,97.1573343 75.5319982,97.4373315 75.884,97.8 C76.2360018,98.1626685 76.507999,98.6053307 76.7,99.128 C76.892001,99.6506693 76.988,100.234663 76.988,100.88 C76.988,101.53067 76.892001,102.117331 76.7,102.64 C76.507999,103.162669 76.2360018,103.607998 75.884,103.976 C75.5319982,104.344002 75.1066692,104.626666 74.608,104.824 C74.1093308,105.021334 73.5533364,105.12 72.94,105.12 C72.3266636,105.12 71.7693358,105.021334 71.268,104.824 C70.7666642,104.626666 70.3386684,104.344002 69.984,103.976 C69.6293316,103.607998 69.3546676,103.162669 69.16,102.64 C68.9653324,102.117331 68.868,101.53067 68.868,100.88 C68.868,100.234663 68.9653324,99.6506693 69.16,99.128 C69.3546676,98.6053307 69.6293316,98.1626685 69.984,97.8 C70.3386684,97.4373315 70.7666642,97.1573343 71.268,96.96 C71.7693358,96.7626657 72.3266636,96.664 72.94,96.664 Z M72.94,103.6 C73.6226701,103.6 74.1279984,103.370669 74.456,102.912 C74.7840016,102.453331 74.948,101.781338 74.948,100.896 C74.948,100.010662 74.7840016,99.3360023 74.456,98.872 C74.1279984,98.4079977 73.6226701,98.176 72.94,98.176 C72.2466632,98.176 71.7346683,98.409331 71.404,98.876 C71.0733317,99.342669 70.908,100.015996 70.908,100.896 C70.908,101.776004 71.0733317,102.446664 71.404,102.908 C71.7346683,103.369336 72.2466632,103.6 72.94,103.6 Z M78.532,105 L78.532,96.792 L79.74,96.792 C79.9960013,96.792 80.1639996,96.9119988 80.244,97.152 L80.372,97.76 C80.5160007,97.5999992 80.6666659,97.453334 80.824,97.32 C80.9813341,97.186666 81.1493324,97.0720005 81.328,96.976 C81.5066676,96.8799995 81.6986656,96.8040003 81.904,96.748 C82.1093344,96.6919997 82.3346654,96.664 82.58,96.664 C83.0973359,96.664 83.522665,96.8039986 83.856,97.084 C84.189335,97.3640014 84.4386658,97.7359977 84.604,98.2 C84.7320006,97.9279986 84.891999,97.6946676 85.084,97.5 C85.276001,97.3053324 85.4866655,97.1466673 85.716,97.024 C85.9453345,96.9013327 86.189332,96.810667 86.448,96.752 C86.706668,96.693333 86.9666654,96.664 87.228,96.664 C87.6813356,96.664 88.0839982,96.7333326 88.436,96.872 C88.7880018,97.0106674 89.0839988,97.213332 89.324,97.48 C89.5640012,97.746668 89.746666,98.0719981 89.872,98.456 C89.997334,98.8400019 90.06,99.2799975 90.06,99.776 L90.06,105 L88.084,105 L88.084,99.776 C88.084,99.2533307 87.9693345,98.8600013 87.74,98.596 C87.5106655,98.3319987 87.1746689,98.2 86.732,98.2 C86.5293323,98.2 86.3413342,98.2346663 86.168,98.304 C85.9946658,98.3733337 85.8426673,98.4733327 85.712,98.604 C85.5813327,98.7346673 85.478667,98.8986657 85.404,99.096 C85.329333,99.2933343 85.292,99.5199987 85.292,99.776 L85.292,105 L83.308,105 L83.308,99.776 C83.308,99.2266639 83.1973344,98.8266679 82.976,98.576 C82.7546656,98.3253321 82.4280022,98.2 81.996,98.2 C81.7133319,98.2 81.4480012,98.270666 81.2,98.412 C80.9519988,98.553334 80.7213344,98.7466654 80.508,98.992 L80.508,105 L78.532,105 Z M92.004,107.68 L92.004,96.792 L93.212,96.792 C93.3400006,96.792 93.4493329,96.821333 93.54,96.88 C93.6306671,96.938667 93.6893332,97.0293327 93.716,97.152 L93.876,97.912 C94.2066683,97.5333314 94.5866645,97.2266678 95.016,96.992 C95.4453355,96.7573322 95.9479971,96.64 96.524,96.64 C96.9720022,96.64 97.3813315,96.7333324 97.752,96.92 C98.1226685,97.1066676 98.4426653,97.3773316 98.712,97.732 C98.9813347,98.0866684 99.1893326,98.5239974 99.336,99.044 C99.4826674,99.5640026 99.556,100.159997 99.556,100.832 C99.556,101.445336 99.4733342,102.013331 99.308,102.536 C99.1426658,103.058669 98.9066682,103.511998 98.6,103.896 C98.2933318,104.280002 97.9226688,104.579999 97.488,104.796 C97.0533312,105.012001 96.5666694,105.12 96.028,105.12 C95.5639977,105.12 95.1706683,105.049334 94.848,104.908 C94.5253317,104.766666 94.2360013,104.570668 93.98,104.32 L93.98,107.68 L92.004,107.68 Z M95.844,98.2 C95.4333313,98.2 95.0826681,98.2866658 94.792,98.46 C94.5013319,98.6333342 94.2306679,98.8773318 93.98,99.192 L93.98,102.872 C94.2040011,103.149335 94.4479987,103.342666 94.712,103.452 C94.9760013,103.561334 95.2599985,103.616 95.564,103.616 C95.8626682,103.616 96.1333321,103.560001 96.376,103.448 C96.6186679,103.335999 96.8239992,103.165334 96.992,102.936 C97.1600008,102.706666 97.2893329,102.417335 97.38,102.068 C97.4706671,101.718665 97.516,101.306669 97.516,100.832 C97.516,100.351998 97.4773337,99.945335 97.4,99.612 C97.3226663,99.278665 97.2120007,99.008001 97.068,98.8 C96.9239993,98.591999 96.7493344,98.4400005 96.544,98.344 C96.3386656,98.2479995 96.1053346,98.2 95.844,98.2 Z M107.484,105 L106.596,105 C106.409332,105 106.262667,104.972 106.156,104.916 C106.049333,104.86 105.969334,104.746668 105.916,104.576 L105.74,103.992 C105.531999,104.178668 105.328001,104.342666 105.128,104.484 C104.927999,104.625334 104.721334,104.744 104.508,104.84 C104.294666,104.936 104.068001,105.008 103.828,105.056 C103.587999,105.104 103.321335,105.128 103.028,105.128 C102.681332,105.128 102.361335,105.081334 102.068,104.988 C101.774665,104.894666 101.522668,104.754668 101.312,104.568 C101.101332,104.381332 100.937334,104.149335 100.82,103.872 C100.702666,103.594665 100.644,103.272002 100.644,102.904 C100.644,102.594665 100.725333,102.289335 100.888,101.988 C101.050667,101.686665 101.321331,101.414668 101.7,101.172 C102.078669,100.929332 102.582664,100.728001 103.212,100.568 C103.841336,100.407999 104.622662,100.317333 105.556,100.296 L105.556,99.816 C105.556,99.2666639 105.440001,98.8600013 105.208,98.596 C104.975999,98.3319987 104.638669,98.2 104.196,98.2 C103.875998,98.2 103.609334,98.237333 103.396,98.312 C103.182666,98.386667 102.997334,98.4706662 102.84,98.564 C102.682666,98.6573338 102.537334,98.741333 102.404,98.816 C102.270666,98.890667 102.124001,98.928 101.964,98.928 C101.830666,98.928 101.716,98.8933337 101.62,98.824 C101.524,98.7546663 101.446667,98.6693338 101.388,98.568 L101.028,97.936 C101.972005,97.0719957 103.11066,96.64 104.444,96.64 C104.924002,96.64 105.351998,96.7186659 105.728,96.876 C106.104002,97.0333341 106.422665,97.2519986 106.684,97.532 C106.945335,97.8120014 107.143999,98.1466647 107.28,98.536 C107.416001,98.9253353 107.484,99.3519977 107.484,99.816 L107.484,105 Z M103.644,103.768 C103.846668,103.768 104.033332,103.749334 104.204,103.712 C104.374668,103.674666 104.535999,103.618667 104.688,103.544 C104.840001,103.469333 104.986666,103.377334 105.128,103.268 C105.269334,103.158666 105.411999,103.029334 105.556,102.88 L105.556,101.496 C104.979997,101.522667 104.498669,101.572 104.112,101.644 C103.725331,101.716 103.414668,101.807999 103.18,101.92 C102.945332,102.032001 102.778667,102.162666 102.68,102.312 C102.581333,102.461334 102.532,102.623999 102.532,102.8 C102.532,103.146668 102.634666,103.394666 102.84,103.544 C103.045334,103.693334 103.313332,103.768 103.644,103.768 Z M109.428,105 L109.428,96.792 L110.636,96.792 C110.892001,96.792 111.06,96.9119988 111.14,97.152 L111.276,97.8 C111.441334,97.6293325 111.615999,97.4746674 111.8,97.336 C111.984001,97.1973326 112.178666,97.0773338 112.384,96.976 C112.589334,96.8746662 112.809332,96.7973336 113.044,96.744 C113.278668,96.6906664 113.534665,96.664 113.812,96.664 C114.260002,96.664 114.657332,96.7399992 115.004,96.892 C115.350668,97.0440008 115.639999,97.257332 115.872,97.532 C116.104001,97.806668 116.279999,98.1346648 116.4,98.516 C116.520001,98.8973352 116.58,99.317331 116.58,99.776 L116.58,105 L114.604,105 L114.604,99.776 C114.604,99.2746642 114.488001,98.886668 114.256,98.612 C114.023999,98.337332 113.676002,98.2 113.212,98.2 C112.870665,98.2 112.550668,98.2773326 112.252,98.432 C111.953332,98.5866674 111.670668,98.797332 111.404,99.064 L111.404,105 L109.428,105 Z M121.148,107.256 C121.089333,107.394667 121.013334,107.5 120.92,107.572 C120.826666,107.644 120.684001,107.68 120.492,107.68 L119.02,107.68 L120.556,104.392 L117.236,96.792 L118.964,96.792 C119.124001,96.792 119.246666,96.829333 119.332,96.904 C119.417334,96.978667 119.481333,97.0639995 119.524,97.16 L121.276,101.416 C121.334667,101.554667 121.385333,101.698666 121.428,101.848 C121.470667,101.997334 121.508,102.146666 121.54,102.296 C121.582667,102.141333 121.629333,101.992001 121.68,101.848 C121.730667,101.703999 121.785333,101.557334 121.844,101.408 L123.492,97.16 C123.534667,97.0533328 123.605333,96.9653337 123.704,96.896 C123.802667,96.8266663 123.913333,96.792 124.036,96.792 L125.62,96.792 L121.148,107.256 Z" id="Private/Public-Limit" fill="#333333"></path>
            <g id="Page-1" opacity="0.5" transform="translate(17.000000, 0.000000)" fill="#000000">
                <path d="M10.0183636,16.9241673 C10.0227273,17.0014036 10.2018545,18.8079491 10.5367636,19.6468582 C10.7748,20.2289673 11.2054909,20.6917309 11.7662182,20.9607491 C11.8495636,21.4769673 11.9743636,22.1622764 12.1504364,22.8043855 C12.6729818,24.7075855 15.3553091,29.00904 18.8468727,29.12664 C18.9396,29.1275127 19.1342182,29.1316582 19.3395273,29.1316582 L19.794,29.1275127 C23.2997455,29.0934764 26.1066545,24.7025673 26.6239636,22.8043855 C26.8013455,22.1603127 26.9261455,21.4750036 27.0075273,20.9607491 C27.5691273,20.6908582 28.0039636,20.2289673 28.2378545,19.6468582 C28.5738545,18.80904 28.7510182,17.0024945 28.7573455,16.9263491 C28.8996,15.4959491 28.3975636,14.6744945 28.3510909,14.6302036 C28.9366909,8.83354909 27.0838909,7.69071273 25.8492,7.48562182 C25.4091273,7.41362182 24.7465091,7.24758545 24.4506545,6.91900364 C23.7603273,6.15624 23.4542182,5.30620364 22.2598909,5.37514909 C21.8156727,5.40002182 21.2211273,5.26191273 20.8809818,4.97740364 C20.4254182,4.59296727 19.7968364,4.14678545 19.3270909,4.14678545 C18.8693455,4.14678545 18.2924727,4.57551273 17.8687636,4.95471273 C17.5410545,5.24838545 16.9567636,5.40002182 16.5127636,5.37405818 C15.3204,5.30511273 15.0134182,6.15536727 14.3228727,6.91791273 C14.0248364,7.24671273 13.3613455,7.41144 12.9254182,7.48474909 C11.6909455,7.68874909 9.83705455,8.83464 10.4213455,14.6302036 C10.3696364,14.6819127 9.87916364,15.5092582 10.0183636,16.9241673" id="Fill-1"></path>
                <path d="M18.0356945,43.3208509 C18.7943127,41.4783055 19.9247127,40.0066691 21.2355491,38.8071055 C20.9543127,37.4622327 20.6338036,36.3431782 20.4287127,35.6899418 C20.6728582,34.9993964 21.2272582,34.2687055 21.3354764,33.6071782 C21.4447855,32.9127055 21.2108945,32.4427418 20.8552582,32.0007055 C20.7068945,31.8183055 20.4697309,31.7471782 20.2997673,31.8759055 L19.6947491,32.2974327 C19.5247855,32.42616 19.2496582,32.42616 19.0807855,32.2974327 L18.4727127,31.8759055 C18.3058036,31.7471782 18.0658036,31.8183055 17.9172218,32.0007055 C17.5626764,32.4427418 17.3279127,32.9127055 17.4402764,33.6071782 C17.5474036,34.2697964 18.1028945,35.0004873 18.3450764,35.6908145 C18.0625309,36.59976 17.5524218,38.3929964 17.2371491,40.4580873 C17.4856582,41.4248509 17.7544582,42.3903055 18.0356945,43.3208509" id="Fill-3"></path>
                <path d="M77.6150836,29.2904291 C88.2313745,26.7924655 85.7150836,8.45864727 76.0282473,4.89704727 C75.22752,4.68672 73.8298473,4.50868364 72.4367564,5.13617455 C71.0414836,4.50868364 69.6470836,4.68584727 68.8443927,4.89704727 C59.1501382,8.46170182 56.6377745,26.82432 67.2850473,29.2965382 C67.2830836,29.3017745 67.2822109,29.3067927 67.2822109,29.3120291 C68.8587927,30.7125382 69.5266473,36.5761745 69.2999564,39.8408291 C70.9734109,41.7215564 72.19872,44.1771927 72.4542109,47.4839564 C74.6316655,41.5596655 74.4998836,42.3429382 75.6848291,40.8538473 C75.2046109,37.9786473 75.8334109,30.8630836 77.5965382,29.3067927 C77.6057018,29.3120291 77.6194473,29.3028655 77.6150836,29.2904291" id="Fill-5"></path>
                <path d="M80.5036582,32.6591345 C82.9664945,36.5802982 85.2100582,42.2892436 85.2100582,42.2892436 C85.2100582,42.2892436 79.3998764,42.1666255 78.4878764,39.6213164 C75.9475855,44.5688073 72.91704,47.2005164 72.4614764,47.5777527 C72.4645309,47.5862618 72.4645309,47.5956436 72.4645309,47.6045891 C72.4678036,47.6130982 72.4717309,47.6220436 72.4747855,47.6314255 C72.4747855,47.6314255 72.4678036,47.6242255 72.4645309,47.6233527 C72.5478764,48.8658982 72.4944218,50.23128 72.2801673,51.7249527 C72.3349309,51.7236436 72.3944945,51.7214618 72.4398764,51.7164436 C74.9038036,51.8877164 90.9532582,51.0959345 92.1990764,46.7667709 C95.1246764,35.3569527 85.5995127,35.4250255 80.5036582,32.6591345" id="Fill-7"></path>
                <path d="M60.4343345,34.3223564 C61.1874982,34.63152 61.9997891,34.9705745 62.8365164,35.3569745 C63.3032073,34.4687564 63.7928073,33.5897018 64.2965891,32.7806836 C63.16008,33.3785018 61.8110618,33.8401745 60.4343345,34.3223564" id="Fill-10"></path>
                <path d="M0.528305455,46.7114182 C1.57230545,50.4388364 12.4122327,51.5173091 17.2484509,51.7069091 C16.7765236,48.4167273 17.0979055,45.7693091 17.9224145,43.6167273 L14.0136873,31.0442182 C13.8838691,30.4776 13.4326691,30.3425455 13.0120145,30.7466182 L11.8135418,31.8418909 C11.4064145,32.2592727 10.6336145,32.7724364 10.0903418,32.9816727 C10.0903418,32.9816727 8.85914182,33.4599273 8.17165091,33.7411636 C3.54357818,35.6341091 -1.69758545,37.7755636 0.528305455,46.7114182" id="Fill-12"></path>
                <path d="M26.8724727,31.8099491 L25.6853455,30.7620218 C25.2762545,30.3498764 24.834,30.4775127 24.7041818,31.0432582 L22.6764,37.6426036 C24.8865818,36.0463855 27.3651273,35.0283491 29.3662909,34.2090764 C29.7094909,34.0679127 30.1545818,33.8916218 30.5761091,33.7266764 C29.8733455,33.4423855 28.5952364,32.9466764 28.5952364,32.9466764 C28.0524,32.7396218 27.2785091,32.22624 26.8724727,31.8099491" id="Fill-14"></path>
                <path d="M44.7437891,54.2165236 L44.7867709,54.2165236 C45.7493891,51.8586327 46.6851709,48.8032145 47.4756436,45.7458327 C47.0748436,43.1416145 46.4338255,40.8805964 46.0770982,39.7355782 C46.3832073,38.8650327 47.08488,37.9467055 47.2179709,37.1099782 C47.3571709,36.2370327 47.06328,35.6413964 46.6151345,35.0869964 C46.4285891,34.8592145 46.1277164,34.7686691 45.9132436,34.9303418 L45.1496073,35.4631418 C44.9364436,35.6250327 44.59128,35.6250327 44.37768,35.4631418 L43.6131709,34.9303418 C43.4019709,34.76976 43.0989164,34.8603055 42.9143345,35.0869964 C42.4642255,35.6413964 42.1703345,36.2370327 42.3117164,37.1099782 C42.4467709,37.9467055 43.14648,38.8650327 43.45128,39.73776 C43.0947709,40.88256 42.45288,43.1394327 42.0529527,45.7423418 C42.8453891,48.8012509 43.7781164,51.85776 44.7437891,54.2165236" id="Fill-16"></path>
                <path d="M52.6128218,45.7662327 C52.64664,45.6964145 53.4340582,45.6396873 54.1656218,45.6396873 L58.0217673,45.6396873 C58.7535491,45.6396873 59.4172582,45.6643418 59.4966764,45.6964145 C59.5736945,45.7249964 59.6387127,46.4587418 59.6387127,47.15256 C59.6387127,47.8457236 59.6099127,48.4712509 59.5747855,48.5404145 C59.54184,48.6084873 58.7535491,48.6652145 58.0217673,48.6652145 L54.1656218,48.6652145 C53.4340582,48.6652145 52.7705673,48.6423055 52.6909309,48.6084873 C52.6128218,48.5796873 52.5467127,47.8457236 52.5467127,47.15256 C52.5467127,46.4587418 52.5755127,45.8351782 52.6128218,45.7662327 M43.90584,59.95656 L45.6216218,59.95656 C50.08584,59.95656 67.0523127,58.8817964 68.5261309,53.6220873 C71.3321673,42.3656509 64.7254036,39.6676145 58.8966764,37.2820145 C58.0217673,36.9233236 56.3657673,36.2825236 56.3657673,36.2825236 C55.6815491,36.0196145 54.7067127,35.3724873 54.19464,34.8468873 L52.7000945,33.5299418 C52.1827855,33.0095782 51.6275127,33.1703782 51.4656218,33.88536 L45.13944,54.4513964 C44.9343491,55.1543782 44.5952945,55.1543782 44.38824,54.45336 L37.9937673,33.8833964 C37.8277309,33.1703782 37.2622036,33.0012873 36.7335491,33.5092145 L35.2217673,34.8922691 C34.7116582,35.4167782 33.7357309,36.0639055 33.0536945,36.3268145 C33.0536945,36.3268145 31.4984945,36.9274691 30.6327491,37.2831055 C24.8053309,39.6687055 18.1987855,42.3676145 21.0037309,53.62296 C22.4751491,58.8817964 39.4405309,59.95656 43.90584,59.95656" id="Fill-18"></path>
                <path d="M53.8812218,23.502 C54.1048582,22.6921091 54.2645673,21.8274545 54.3666764,21.1770545 C55.0735855,20.8382182 55.6196945,20.2558909 55.9186036,19.5232364 C56.3381673,18.4689818 56.5648582,16.1935636 56.5720582,16.0975636 C56.7481309,14.2942909 56.1173673,13.2627273 56.0586764,13.2020727 C56.7965673,5.90192727 54.4613673,4.45909091 52.9074764,4.20141818 C52.35504,4.11087273 51.5183127,3.90250909 51.1452218,3.48927273 C50.2744582,2.52796364 49.8880582,1.45930909 48.3845673,1.54570909 C47.8260218,1.5756 47.0748218,1.4004 46.6469673,1.0428 C46.0720582,0.561709091 45.2794036,0.000109090909 44.6922764,0.000109090909 C44.1138764,0.000109090909 43.3864582,0.539018182 42.8547491,1.01596364 C42.4384582,1.38709091 41.7027491,1.5756 41.1461673,1.54570909 C39.6415855,1.45930909 39.2562764,2.52796364 38.3855127,3.48927273 C38.0104582,3.90250909 37.1746036,4.11174545 36.6212945,4.20141818 C35.0680582,4.45909091 32.7317673,5.90192727 33.4687855,13.2051273 C33.4048582,13.2679636 32.7815127,14.3108727 32.9578036,16.0956 C32.9658764,16.1935636 33.1916945,18.4689818 33.6130036,19.5232364 C33.9099491,20.2567636 34.4538764,20.8382182 35.1618764,21.1770545 C35.26704,21.8274545 35.4256582,22.6929818 35.6473309,23.502 C36.30384,25.8989455 39.6850036,31.3194545 44.0842036,31.4636727 C44.2004945,31.4708727 44.4481309,31.4730545 44.7053673,31.4730545 L45.27744,31.4689091 C49.6962764,31.4254909 53.2299491,25.8917455 53.8812218,23.502" id="Fill-20"></path>
            </g>
        </g>
    </g>
</svg>