<?xml version="1.0" encoding="UTF-8" standalone="no"?>
<svg width="100px" height="85px" viewBox="0 0 106 118" version="1.1" xmlns="http://www.w3.org/2000/svg" xmlns:xlink="http://www.w3.org/1999/xlink">
    <!-- Generator: Sketch 48.2 (47327) - http://www.bohemiancoding.com/sketch -->
    <title>Renter_Lease_Red</title>
    <desc>Created with Sketch.</desc>
    <defs></defs>
    <g id="Page4-Copy" stroke="none" stroke-width="1" fill="none" fill-rule="evenodd" transform="translate(-539.000000, -456.000000)">
        <g id="Renter_Lease_Red" transform="translate(538.000000, 456.000000)" fill="#D0021B">
            <text id="Rented/Leased-Proper" font-family="Lato-Bold, Lato" font-size="16" font-weight="bold">
                <tspan x="0.128" y="96">Rented/Leased</tspan>
                <tspan x="21.752" y="115">Property</tspan>
            </text>
            <g id="Page-1" transform="translate(8.000000, 0.000000)">
                <path d="M77.89561,66.0507521 L63.3648579,53.3000279 L64.022351,47.4475209 L66.4590919,48.0441783 C66.5466407,49.1072423 67.2862228,50.0443454 68.3783398,50.3105014 C69.7422674,50.6460724 71.1210139,49.811727 71.4569749,48.4456546 C71.792351,47.0799721 70.9570306,45.7022006 69.5913482,45.3677994 C68.5514875,45.1137326 67.5071421,45.5403621 66.9186741,46.3579387 L64.218312,45.695571 L64.4117382,43.9761838 L73.4563621,41.5891643 L88.1310139,54.5728969 L77.89561,66.0507521 Z M36.8190641,39.8734819 L46.1961393,39.8734819 L46.1961393,30.2025627 L36.8190641,30.2025627 L36.8190641,39.8734819 Z M20.6165014,39.8734819 L29.9937716,39.8734819 L29.9937716,30.2025627 L20.6165014,30.2025627 L20.6165014,39.8734819 Z M91.4410975,53.2467967 L74.9310418,38.6384401 C74.5303454,38.2847354 73.9816546,38.1566295 73.4676713,38.2911699 L62.5422117,41.173649 C61.907727,41.341532 61.4389805,41.8832033 61.3654708,42.5358217 L61.0973649,44.9320056 L55.649844,43.5969359 L55.6488691,30.8389972 L61.3855543,36.0772981 L66.5439109,30.4281616 L33.4206518,0.194986072 L18.6972535,13.3813092 L18.6972535,7.25016713 L10.8285905,7.25016713 L10.8285905,20.4292758 L3.89972145e-05,30.128078 L5.10399443,35.825961 L10.8295655,30.6995822 L10.8654429,69.8857382 L20.6174763,69.8845682 L20.6174763,48.6262117 L29.9947465,48.6262117 L29.9947465,69.8837883 L55.6535487,69.8826184 L55.650624,45.3962674 L60.9012089,46.6831755 L60.1064457,53.7715042 C60.0473649,54.2891922 60.2452758,54.8039554 60.6387577,55.1475209 L76.9828802,69.4885515 C77.2849136,69.7539276 77.6596769,69.8845682 78.0346351,69.8845682 C78.4739387,69.8845682 78.9085627,69.7040111 79.2236602,69.3514763 L91.574468,55.5010306 C91.8581727,55.1843733 92.0010975,54.7690529 91.9761393,54.3463231 C91.9504011,53.9235933 91.7577549,53.5273816 91.4410975,53.2467967 Z" id="Fill-1"></path>
                <path d="M70.0501699,52.9348969 L76.0654903,47.4618329 L76.0767994,47.474117 C76.2193343,48.34239 76.2848496,48.8164011 76.2733454,48.8957604 L74.6660752,50.358156 C75.1223426,50.4154819 75.5587214,50.5936992 75.9754067,50.8926128 L77.6889443,49.3336992 C77.7135125,49.3186852 77.7314513,49.3173203 77.7429554,49.3301894 C77.8829554,50.2544234 77.9484708,50.7204401 77.9400864,50.7280446 L76.8271058,51.7406072 C77.0718134,52.0596045 77.2543203,52.5449248 77.3750167,53.1971532 C77.4163538,53.9289359 77.3371894,54.4998552 77.1386936,54.9093259 C76.8089721,55.719493 76.377468,56.3674318 75.8437911,56.8529471 L75.8554903,56.8654262 C75.8933175,56.9071532 76.1820919,56.9605794 76.7216184,57.0260947 L82.9520084,57.9062618 L83.1056574,58.0753148 C83.1208663,58.0918886 83.1179415,58.1100223 83.097078,58.1287409 L81.7900864,59.317571 C76.9468273,58.7179889 74.5196407,58.4124457 74.5083315,58.3999666 L73.7513955,57.568156 L73.7356017,57.525454 C73.9703649,57.3653705 74.2279415,57.1579053 74.5069666,56.9036435 C75.8242925,55.7050641 76.2546267,54.5320279 75.7981643,53.3857047 C75.7344039,53.2152869 75.6417855,53.0630028 75.5203092,52.9296323 L71.9434847,56.1839499 C71.9269109,56.1991588 71.910922,56.1983788 71.8959081,56.181805 C71.7681922,55.2462618 71.7089164,54.7747855 71.7173008,54.7671811 L74.5561031,52.1840056 L74.5444039,52.1715265 C74.0826769,51.9901894 73.534376,52.0202173 72.9006713,52.261805 C72.4683872,52.4565961 72.1191671,52.6757604 71.8524262,52.9183231 L70.2640696,54.3635599 L70.2356017,54.3321671 C70.0991114,53.4120279 70.0376908,52.9465961 70.0501699,52.9348969" id="Fill-4"></path>
            </g>
        </g>
    </g>
</svg>