<?xml version="1.0" encoding="UTF-8" standalone="no"?>
<svg width="100px" height="100px" viewBox="0 0 128 116" version="1.1" xmlns="http://www.w3.org/2000/svg" xmlns:xlink="http://www.w3.org/1999/xlink">
    <!-- Generator: Sketch 48.2 (47327) - http://www.bohemiancoding.com/sketch -->
    <title>Rented_Red</title>
    <desc>Created with Sketch.</desc>
    <defs></defs>
    <g id="Page4-Copy" stroke="none" stroke-width="1" fill="none" fill-rule="evenodd" transform="translate(-268.000000, -144.000000)">
        <g id="Rented_Red" transform="translate(267.000000, 144.000000)" fill="#D0021B">
            <path d="M3.524,94.224 L8.156,94.224 L8.156,96 L1.372,96 L1.372,84.432 L3.524,84.432 L3.524,94.224 Z M11.636,87.792 L11.636,96 L9.66,96 L9.66,87.792 L11.636,87.792 Z M11.932,85.4 C11.932,85.5706675 11.8973337,85.7306659 11.828,85.88 C11.7586663,86.0293341 11.6666672,86.1599994 11.552,86.272 C11.4373328,86.3840006 11.3026674,86.473333 11.148,86.54 C10.9933326,86.606667 10.8280009,86.64 10.652,86.64 C10.4813325,86.64 10.3200008,86.606667 10.168,86.54 C10.0159992,86.473333 9.88400056,86.3840006 9.772,86.272 C9.65999944,86.1599994 9.570667,86.0293341 9.504,85.88 C9.437333,85.7306659 9.404,85.5706675 9.404,85.4 C9.404,85.2239991 9.437333,85.0586674 9.504,84.904 C9.570667,84.7493326 9.65999944,84.6160006 9.772,84.504 C9.88400056,84.3919994 10.0159992,84.302667 10.168,84.236 C10.3200008,84.169333 10.4813325,84.136 10.652,84.136 C10.8280009,84.136 10.9933326,84.169333 11.148,84.236 C11.3026674,84.302667 11.4373328,84.3919994 11.552,84.504 C11.6666672,84.6160006 11.7586663,84.7493326 11.828,84.904 C11.8973337,85.0586674 11.932,85.2239991 11.932,85.4 Z M17.98,96 L16.188,96 L12.924,87.792 L14.564,87.792 C14.7080007,87.792 14.8293328,87.8266663 14.928,87.896 C15.0266672,87.9653337 15.0946665,88.0533328 15.132,88.16 L16.716,92.544 C16.8066671,92.8000013 16.8826664,93.0506654 16.944,93.296 C17.0053336,93.5413346 17.0599998,93.7866654 17.108,94.032 C17.1560002,93.7866654 17.2106664,93.5413346 17.272,93.296 C17.3333336,93.0506654 17.4119995,92.8000013 17.508,92.544 L19.132,88.16 C19.1693335,88.0533328 19.2359995,87.9653337 19.332,87.896 C19.4280005,87.8266663 19.542666,87.792 19.676,87.792 L21.236,87.792 L17.98,96 Z M24.508,87.792 L24.508,96 L22.532,96 L22.532,87.792 L24.508,87.792 Z M24.804,85.4 C24.804,85.5706675 24.7693337,85.7306659 24.7,85.88 C24.6306663,86.0293341 24.5386672,86.1599994 24.424,86.272 C24.3093328,86.3840006 24.1746674,86.473333 24.02,86.54 C23.8653326,86.606667 23.7000009,86.64 23.524,86.64 C23.3533325,86.64 23.1920008,86.606667 23.04,86.54 C22.8879992,86.473333 22.7560006,86.3840006 22.644,86.272 C22.5319994,86.1599994 22.442667,86.0293341 22.376,85.88 C22.309333,85.7306659 22.276,85.5706675 22.276,85.4 C22.276,85.2239991 22.309333,85.0586674 22.376,84.904 C22.442667,84.7493326 22.5319994,84.6160006 22.644,84.504 C22.7560006,84.3919994 22.8879992,84.302667 23.04,84.236 C23.1920008,84.169333 23.3533325,84.136 23.524,84.136 C23.7000009,84.136 23.8653326,84.169333 24.02,84.236 C24.1746674,84.302667 24.3093328,84.3919994 24.424,84.504 C24.5386672,84.6160006 24.6306663,84.7493326 24.7,84.904 C24.7693337,85.0586674 24.804,85.2239991 24.804,85.4 Z M26.74,96 L26.74,87.792 L27.948,87.792 C28.2040013,87.792 28.3719996,87.9119988 28.452,88.152 L28.588,88.8 C28.7533342,88.6293325 28.9279991,88.4746674 29.112,88.336 C29.2960009,88.1973326 29.4906656,88.0773338 29.696,87.976 C29.9013344,87.8746662 30.1213322,87.7973336 30.356,87.744 C30.5906678,87.6906664 30.8466653,87.664 31.124,87.664 C31.5720022,87.664 31.9693316,87.7399992 32.316,87.892 C32.6626684,88.0440008 32.9519988,88.257332 33.184,88.532 C33.4160012,88.806668 33.5919994,89.1346648 33.712,89.516 C33.8320006,89.8973352 33.892,90.317331 33.892,90.776 L33.892,96 L31.916,96 L31.916,90.776 C31.916,90.2746642 31.8000012,89.886668 31.568,89.612 C31.3359988,89.337332 30.9880023,89.2 30.524,89.2 C30.182665,89.2 29.8626682,89.2773326 29.564,89.432 C29.2653318,89.5866674 28.982668,89.797332 28.716,90.064 L28.716,96 L26.74,96 Z M38.676,87.648 C39.0280018,87.648 39.3586651,87.6839996 39.668,87.756 C39.9773349,87.8280004 40.2599987,87.9333326 40.516,88.072 L42.876,88.072 L42.876,88.808 C42.876,88.9306673 42.8440003,89.0266663 42.78,89.096 C42.7159997,89.1653337 42.6066674,89.2133332 42.452,89.24 L41.716,89.376 C41.7693336,89.5146674 41.8106665,89.6613326 41.84,89.816 C41.8693335,89.9706674 41.884,90.1333325 41.884,90.304 C41.884,90.7093354 41.8026675,91.0759984 41.64,91.404 C41.4773325,91.7320016 41.2533348,92.0106655 40.968,92.24 C40.6826652,92.4693345 40.344002,92.646666 39.952,92.772 C39.559998,92.897334 39.134669,92.96 38.676,92.96 C38.3666651,92.96 38.0653348,92.930667 37.772,92.872 C37.5159987,93.0266674 37.388,93.199999 37.388,93.392 C37.388,93.5573342 37.4639992,93.6786663 37.616,93.756 C37.7680008,93.8333337 37.9679988,93.8879998 38.216,93.92 C38.4640012,93.9520002 38.7453318,93.972 39.06,93.98 C39.3746682,93.988 39.6973317,94.0053332 40.028,94.032 C40.3586683,94.0586668 40.6813318,94.105333 40.996,94.172 C41.3106682,94.238667 41.5919988,94.3439993 41.84,94.488 C42.0880012,94.6320007 42.2879992,94.8279988 42.44,95.076 C42.5920008,95.3240012 42.668,95.6426647 42.668,96.032 C42.668,96.3946685 42.5786676,96.746665 42.4,97.088 C42.2213324,97.429335 41.9626684,97.733332 41.624,98 C41.2853316,98.266668 40.8706691,98.4813325 40.38,98.644 C39.8893309,98.8066675 39.3293365,98.888 38.7,98.888 C38.0759969,98.888 37.534669,98.8280006 37.076,98.708 C36.617331,98.5879994 36.2373348,98.428001 35.936,98.228 C35.6346652,98.027999 35.4093341,97.7973346 35.26,97.536 C35.1106659,97.2746654 35.036,97.0026681 35.036,96.72 C35.036,96.3359981 35.1533322,96.0133346 35.388,95.752 C35.6226678,95.4906654 35.9479979,95.2826674 36.364,95.128 C36.1613323,95.0159994 35.9986673,94.8666676 35.876,94.68 C35.7533327,94.4933324 35.692,94.2506682 35.692,93.952 C35.692,93.8293327 35.7133331,93.7026673 35.756,93.572 C35.7986669,93.4413327 35.8639996,93.3120006 35.952,93.184 C36.0400004,93.0559994 36.150666,92.9346672 36.284,92.82 C36.417334,92.7053328 36.5746658,92.6026671 36.756,92.512 C36.3399979,92.2879989 36.0133345,91.9893352 35.776,91.616 C35.5386655,91.2426648 35.42,90.8053358 35.42,90.304 C35.42,89.8986646 35.5013325,89.5320016 35.664,89.204 C35.8266675,88.8759984 36.0533319,88.5960012 36.344,88.364 C36.6346681,88.1319988 36.9786647,87.9546673 37.376,87.832 C37.7733353,87.7093327 38.2066643,87.648 38.676,87.648 Z M40.844,96.368 C40.844,96.2079992 40.7960005,96.0773338 40.7,95.976 C40.6039995,95.8746662 40.4733342,95.7960003 40.308,95.74 C40.1426658,95.6839997 39.9493344,95.6426668 39.728,95.616 C39.5066656,95.5893332 39.2720012,95.5693334 39.024,95.556 C38.7759988,95.5426666 38.5200013,95.5293334 38.256,95.516 C37.9919987,95.5026666 37.7373346,95.4800002 37.492,95.448 C37.2679989,95.5706673 37.0880007,95.7159992 36.952,95.884 C36.8159993,96.0520008 36.748,96.2453322 36.748,96.464 C36.748,96.6080007 36.7839996,96.742666 36.856,96.868 C36.9280004,96.993334 37.0426659,97.1013329 37.2,97.192 C37.3573341,97.2826671 37.5613321,97.3533331 37.812,97.404 C38.0626679,97.4546669 38.3693315,97.48 38.732,97.48 C39.1000018,97.48 39.417332,97.4520003 39.684,97.396 C39.950668,97.3399997 40.1706658,97.2626672 40.344,97.164 C40.5173342,97.0653328 40.6439996,96.9480007 40.724,96.812 C40.8040004,96.6759993 40.844,96.5280008 40.844,96.368 Z M38.676,91.696 C38.9213346,91.696 39.1346658,91.662667 39.316,91.596 C39.4973342,91.529333 39.6479994,91.4373339 39.768,91.32 C39.8880006,91.2026661 39.9786664,91.0613342 40.04,90.896 C40.1013336,90.7306658 40.132,90.5493343 40.132,90.352 C40.132,89.9466646 40.0106679,89.6253345 39.768,89.388 C39.5253321,89.1506655 39.1613358,89.032 38.676,89.032 C38.1906642,89.032 37.8266679,89.1506655 37.584,89.388 C37.3413321,89.6253345 37.22,89.9466646 37.22,90.352 C37.22,90.544001 37.2506664,90.7226658 37.312,90.888 C37.3733336,91.0533342 37.4639994,91.1959994 37.584,91.316 C37.7040006,91.4360006 37.8559991,91.529333 38.04,91.596 C38.2240009,91.662667 38.4359988,91.696 38.676,91.696 Z M49.74,96 L47.58,96 L47.58,84.432 L49.74,84.432 L49.74,96 Z M52.228,96 L52.228,87.792 L53.436,87.792 C53.6920013,87.792 53.8599996,87.9119988 53.94,88.152 L54.076,88.8 C54.2413342,88.6293325 54.4159991,88.4746674 54.6,88.336 C54.7840009,88.1973326 54.9786656,88.0773338 55.184,87.976 C55.3893344,87.8746662 55.6093322,87.7973336 55.844,87.744 C56.0786678,87.6906664 56.3346653,87.664 56.612,87.664 C57.0600022,87.664 57.4573316,87.7399992 57.804,87.892 C58.1506684,88.0440008 58.4399988,88.257332 58.672,88.532 C58.9040012,88.806668 59.0799994,89.1346648 59.2,89.516 C59.3200006,89.8973352 59.38,90.317331 59.38,90.776 L59.38,96 L57.404,96 L57.404,90.776 C57.404,90.2746642 57.2880012,89.886668 57.056,89.612 C56.8239988,89.337332 56.4760023,89.2 56.012,89.2 C55.670665,89.2 55.3506682,89.2773326 55.052,89.432 C54.7533318,89.5866674 54.470668,89.797332 54.204,90.064 L54.204,96 L52.228,96 Z M74.692,96 L73.028,96 C72.8413324,96 72.6880006,95.9533338 72.568,95.86 C72.4479994,95.7666662 72.3613336,95.6506674 72.308,95.512 L71.444,93.152 L66.652,93.152 L65.788,95.512 C65.7453331,95.6346673 65.661334,95.7466662 65.536,95.848 C65.410666,95.9493338 65.2573342,96 65.076,96 L63.404,96 L67.948,84.432 L70.148,84.432 L74.692,96 Z M67.204,91.632 L70.892,91.632 L69.484,87.784 C69.4199997,87.6133325 69.3493337,87.4120012 69.272,87.18 C69.1946663,86.9479988 69.118667,86.6960014 69.044,86.424 C68.969333,86.6960014 68.8960004,86.9493322 68.824,87.184 C68.7519996,87.4186678 68.6813337,87.6239991 68.612,87.8 L67.204,91.632 Z M81.196,91.48 L81.196,96 L79.044,96 L79.044,84.432 L82.572,84.432 C83.3613373,84.432 84.0373305,84.5133325 84.6,84.676 C85.1626695,84.8386675 85.6239982,85.0666652 85.984,85.36 C86.3440018,85.6533348 86.6079992,86.003998 86.776,86.412 C86.9440008,86.820002 87.028,87.2693309 87.028,87.76 C87.028,88.1493353 86.9706672,88.5173316 86.856,88.864 C86.7413328,89.2106684 86.5760011,89.5253319 86.36,89.808 C86.1439989,90.0906681 85.8773349,90.3386656 85.56,90.552 C85.2426651,90.7653344 84.8813354,90.9359994 84.476,91.064 C84.7480014,91.2186674 84.9826657,91.4399986 85.18,91.728 L88.076,96 L86.14,96 C85.9533324,96 85.7946673,95.962667 85.664,95.888 C85.5333327,95.813333 85.4226671,95.7066674 85.332,95.568 L82.9,91.864 C82.8093329,91.7253326 82.7093339,91.626667 82.6,91.568 C82.4906661,91.509333 82.3293344,91.48 82.116,91.48 L81.196,91.48 Z M81.196,89.936 L82.54,89.936 C82.9453354,89.936 83.2986652,89.8853338 83.6,89.784 C83.9013348,89.6826662 84.1493324,89.5426676 84.344,89.364 C84.5386676,89.1853324 84.6839995,88.9733346 84.78,88.728 C84.8760005,88.4826654 84.924,88.2133348 84.924,87.92 C84.924,87.3333304 84.7306686,86.8826682 84.344,86.568 C83.9573314,86.2533318 83.3666706,86.096 82.572,86.096 L81.196,86.096 L81.196,89.936 Z M92.732,87.664 C93.2493359,87.664 93.7253312,87.7466658 94.16,87.912 C94.5946688,88.0773342 94.9693318,88.3186651 95.284,88.636 C95.5986682,88.9533349 95.8439991,89.3426644 96.02,89.804 C96.1960009,90.2653356 96.284,90.791997 96.284,91.384 C96.284,91.5333341 96.2773334,91.6573328 96.264,91.756 C96.2506666,91.8546672 96.2266668,91.9319997 96.192,91.988 C96.1573332,92.0440003 96.110667,92.0839999 96.052,92.108 C95.993333,92.1320001 95.9186671,92.144 95.828,92.144 L90.756,92.144 C90.814667,92.9866709 91.0413314,93.6053314 91.436,94 C91.8306686,94.3946686 92.3533301,94.592 93.004,94.592 C93.3240016,94.592 93.5999988,94.554667 93.832,94.48 C94.0640012,94.405333 94.2666658,94.3226671 94.44,94.232 C94.6133342,94.1413329 94.7653327,94.058667 94.896,93.984 C95.0266673,93.909333 95.1533327,93.872 95.276,93.872 C95.3560004,93.872 95.425333,93.8879998 95.484,93.92 C95.542667,93.9520002 95.5933331,93.997333 95.636,94.056 L96.212,94.776 C95.9933322,95.0320013 95.7480014,95.2466658 95.476,95.42 C95.2039986,95.5933342 94.9200015,95.7319995 94.624,95.836 C94.3279985,95.9400005 94.0266682,96.0133331 93.72,96.056 C93.4133318,96.0986669 93.1160014,96.12 92.828,96.12 C92.2573305,96.12 91.7266691,96.0253343 91.236,95.836 C90.7453309,95.6466657 90.3186685,95.3666685 89.956,94.996 C89.5933315,94.6253315 89.308001,94.1666694 89.1,93.62 C88.891999,93.0733306 88.788,92.4400036 88.788,91.72 C88.788,91.1599972 88.8786658,90.6333358 89.06,90.14 C89.2413342,89.6466642 89.5013316,89.2173352 89.84,88.852 C90.1786684,88.4866648 90.5919976,88.1973344 91.08,87.984 C91.5680024,87.7706656 92.1186636,87.664 92.732,87.664 Z M92.772,89.08 C92.1959971,89.08 91.745335,89.242665 91.42,89.568 C91.094665,89.893335 90.8866671,90.3546637 90.796,90.952 L94.508,90.952 C94.508,90.6959987 94.4733337,90.4546678 94.404,90.228 C94.3346663,90.0013322 94.2280007,89.8026675 94.084,89.632 C93.9399993,89.4613325 93.7586678,89.3266672 93.54,89.228 C93.3213322,89.1293328 93.0653348,89.08 92.772,89.08 Z M97.892,96 L97.892,87.792 L99.1,87.792 C99.3560013,87.792 99.5239996,87.9119988 99.604,88.152 L99.74,88.8 C99.9053342,88.6293325 100.079999,88.4746674 100.264,88.336 C100.448001,88.1973326 100.642666,88.0773338 100.848,87.976 C101.053334,87.8746662 101.273332,87.7973336 101.508,87.744 C101.742668,87.6906664 101.998665,87.664 102.276,87.664 C102.724002,87.664 103.121332,87.7399992 103.468,87.892 C103.814668,88.0440008 104.103999,88.257332 104.336,88.532 C104.568001,88.806668 104.743999,89.1346648 104.864,89.516 C104.984001,89.8973352 105.044,90.317331 105.044,90.776 L105.044,96 L103.068,96 L103.068,90.776 C103.068,90.2746642 102.952001,89.886668 102.72,89.612 C102.487999,89.337332 102.140002,89.2 101.676,89.2 C101.334665,89.2 101.014668,89.2773326 100.716,89.432 C100.417332,89.5866674 100.134668,89.797332 99.868,90.064 L99.868,96 L97.892,96 Z M109.684,96.128 C108.974663,96.128 108.428002,95.9266687 108.044,95.524 C107.659998,95.1213313 107.468,94.5653369 107.468,93.856 L107.468,89.272 L106.636,89.272 C106.529333,89.272 106.437334,89.2373337 106.36,89.168 C106.282666,89.0986663 106.244,88.9946674 106.244,88.856 L106.244,88.072 L107.564,87.856 L107.98,85.616 C108.001333,85.5093328 108.050666,85.426667 108.128,85.368 C108.205334,85.309333 108.302666,85.28 108.42,85.28 L109.444,85.28 L109.444,87.864 L111.604,87.864 L111.604,89.272 L109.444,89.272 L109.444,93.72 C109.444,93.9760013 109.507999,94.1759993 109.636,94.32 C109.764001,94.4640007 109.934666,94.536 110.148,94.536 C110.270667,94.536 110.373333,94.5213335 110.456,94.492 C110.538667,94.4626665 110.610666,94.4320002 110.672,94.4 C110.733334,94.3679998 110.788,94.3373335 110.836,94.308 C110.884,94.2786665 110.932,94.264 110.98,94.264 C111.038667,94.264 111.086666,94.2786665 111.124,94.308 C111.161334,94.3373335 111.201333,94.381333 111.244,94.44 L111.836,95.4 C111.547999,95.6400012 111.217335,95.8213327 110.844,95.944 C110.470665,96.0666673 110.084002,96.128 109.684,96.128 Z M116.572,87.664 C117.089336,87.664 117.565331,87.7466658 118,87.912 C118.434669,88.0773342 118.809332,88.3186651 119.124,88.636 C119.438668,88.9533349 119.683999,89.3426644 119.86,89.804 C120.036001,90.2653356 120.124,90.791997 120.124,91.384 C120.124,91.5333341 120.117333,91.6573328 120.104,91.756 C120.090667,91.8546672 120.066667,91.9319997 120.032,91.988 C119.997333,92.0440003 119.950667,92.0839999 119.892,92.108 C119.833333,92.1320001 119.758667,92.144 119.668,92.144 L114.596,92.144 C114.654667,92.9866709 114.881331,93.6053314 115.276,94 C115.670669,94.3946686 116.19333,94.592 116.844,94.592 C117.164002,94.592 117.439999,94.554667 117.672,94.48 C117.904001,94.405333 118.106666,94.3226671 118.28,94.232 C118.453334,94.1413329 118.605333,94.058667 118.736,93.984 C118.866667,93.909333 118.993333,93.872 119.116,93.872 C119.196,93.872 119.265333,93.8879998 119.324,93.92 C119.382667,93.9520002 119.433333,93.997333 119.476,94.056 L120.052,94.776 C119.833332,95.0320013 119.588001,95.2466658 119.316,95.42 C119.043999,95.5933342 118.760001,95.7319995 118.464,95.836 C118.167999,95.9400005 117.866668,96.0133331 117.56,96.056 C117.253332,96.0986669 116.956001,96.12 116.668,96.12 C116.09733,96.12 115.566669,96.0253343 115.076,95.836 C114.585331,95.6466657 114.158668,95.3666685 113.796,94.996 C113.433332,94.6253315 113.148001,94.1666694 112.94,93.62 C112.731999,93.0733306 112.628,92.4400036 112.628,91.72 C112.628,91.1599972 112.718666,90.6333358 112.9,90.14 C113.081334,89.6466642 113.341332,89.2173352 113.68,88.852 C114.018668,88.4866648 114.431998,88.1973344 114.92,87.984 C115.408002,87.7706656 115.958664,87.664 116.572,87.664 Z M116.612,89.08 C116.035997,89.08 115.585335,89.242665 115.26,89.568 C114.934665,89.893335 114.726667,90.3546637 114.636,90.952 L118.348,90.952 C118.348,90.6959987 118.313334,90.4546678 118.244,90.228 C118.174666,90.0013322 118.068001,89.8026675 117.924,89.632 C117.779999,89.4613325 117.598668,89.3266672 117.38,89.228 C117.161332,89.1293328 116.905335,89.08 116.612,89.08 Z M127.508,96 C127.251999,96 127.084,95.8800012 127.004,95.64 L126.844,94.848 C126.673332,95.040001 126.494668,95.2133326 126.308,95.368 C126.121332,95.5226674 125.920001,95.6559994 125.704,95.768 C125.487999,95.8800006 125.256001,95.9666664 125.008,96.028 C124.759999,96.0893336 124.492001,96.12 124.204,96.12 C123.755998,96.12 123.345335,96.0266676 122.972,95.84 C122.598665,95.6533324 122.277335,95.3826684 122.008,95.028 C121.738665,94.6733316 121.530667,94.2346693 121.384,93.712 C121.237333,93.1893307 121.164,92.5920034 121.164,91.92 C121.164,91.311997 121.246666,90.7466693 121.412,90.224 C121.577334,89.7013307 121.814665,89.2480019 122.124,88.864 C122.433335,88.4799981 122.803998,88.1800011 123.236,87.964 C123.668002,87.7479989 124.153331,87.64 124.692,87.64 C125.150669,87.64 125.542665,87.7133326 125.868,87.86 C126.193335,88.0066674 126.483999,88.2026654 126.74,88.448 L126.74,84.112 L128.716,84.112 L128.716,96 L127.508,96 Z M124.876,94.552 C125.286669,94.552 125.635999,94.4666675 125.924,94.296 C126.212001,94.1253325 126.483999,93.8826682 126.74,93.568 L126.74,89.888 C126.515999,89.6159986 126.272001,89.4240006 126.008,89.312 C125.743999,89.1999994 125.460002,89.144 125.156,89.144 C124.857332,89.144 124.586668,89.1999994 124.344,89.312 C124.101332,89.4240006 123.896001,89.5933322 123.728,89.82 C123.559999,90.0466678 123.430667,90.3346649 123.34,90.684 C123.249333,91.0333351 123.204,91.445331 123.204,91.92 C123.204,92.4000024 123.242666,92.806665 123.32,93.14 C123.397334,93.473335 123.507999,93.7453323 123.652,93.956 C123.796001,94.1666677 123.971999,94.3186662 124.18,94.412 C124.388001,94.5053338 124.619999,94.552 124.876,94.552 Z M17.348,115 L15.684,115 C15.4973324,115 15.3440006,114.953334 15.224,114.86 C15.1039994,114.766666 15.0173336,114.650667 14.964,114.512 L14.1,112.152 L9.308,112.152 L8.444,114.512 C8.40133312,114.634667 8.31733396,114.746666 8.192,114.848 C8.06666604,114.949334 7.91333424,115 7.732,115 L6.06,115 L10.604,103.432 L12.804,103.432 L17.348,115 Z M9.86,110.632 L13.548,110.632 L12.14,106.784 C12.0759997,106.613332 12.0053337,106.412001 11.928,106.18 C11.8506663,105.947999 11.774667,105.696001 11.7,105.424 C11.625333,105.696001 11.5520004,105.949332 11.48,106.184 C11.4079996,106.418668 11.3373337,106.623999 11.268,106.8 L9.86,110.632 Z M24.196,108.528 C24.137333,108.602667 24.0800003,108.661333 24.024,108.704 C23.9679997,108.746667 23.8866672,108.768 23.78,108.768 C23.6786662,108.768 23.5800005,108.737334 23.484,108.676 C23.3879995,108.614666 23.273334,108.545334 23.14,108.468 C23.006666,108.390666 22.8480009,108.321334 22.664,108.26 C22.4799991,108.198666 22.2520014,108.168 21.98,108.168 C21.6333316,108.168 21.3293346,108.230666 21.068,108.356 C20.8066654,108.481334 20.5893342,108.661332 20.416,108.896 C20.2426658,109.130668 20.1133338,109.414665 20.028,109.748 C19.9426662,110.081335 19.9,110.458665 19.9,110.88 C19.9,111.317336 19.9466662,111.706665 20.04,112.048 C20.1333338,112.389335 20.2679991,112.675999 20.444,112.908 C20.6200009,113.140001 20.8333321,113.315999 21.084,113.436 C21.3346679,113.556001 21.6173318,113.616 21.932,113.616 C22.2466682,113.616 22.5013324,113.577334 22.696,113.5 C22.8906676,113.422666 23.054666,113.337334 23.188,113.244 C23.321334,113.150666 23.4373328,113.065334 23.536,112.988 C23.6346672,112.910666 23.7453327,112.872 23.868,112.872 C24.0280008,112.872 24.1479996,112.933333 24.228,113.056 L24.796,113.776 C24.5773322,114.032001 24.3400013,114.246666 24.084,114.42 C23.8279987,114.593334 23.562668,114.731999 23.288,114.836 C23.013332,114.940001 22.7293348,115.013333 22.436,115.056 C22.1426652,115.098667 21.8520014,115.12 21.564,115.12 C21.0573308,115.12 20.5800022,115.025334 20.132,114.836 C19.6839978,114.646666 19.293335,114.370668 18.96,114.008 C18.626665,113.645332 18.3626676,113.201336 18.168,112.676 C17.9733324,112.150664 17.876,111.552003 17.876,110.88 C17.876,110.27733 17.9626658,109.718669 18.136,109.204 C18.3093342,108.689331 18.5639983,108.244002 18.9,107.868 C19.2360017,107.491998 19.6519975,107.197334 20.148,106.984 C20.6440025,106.770666 21.2146634,106.664 21.86,106.664 C22.4733364,106.664 23.0106644,106.762666 23.472,106.96 C23.9333356,107.157334 24.3479982,107.439998 24.716,107.808 L24.196,108.528 Z M31.828,108.528 C31.769333,108.602667 31.7120003,108.661333 31.656,108.704 C31.5999997,108.746667 31.5186672,108.768 31.412,108.768 C31.3106662,108.768 31.2120005,108.737334 31.116,108.676 C31.0199995,108.614666 30.905334,108.545334 30.772,108.468 C30.638666,108.390666 30.4800009,108.321334 30.296,108.26 C30.1119991,108.198666 29.8840014,108.168 29.612,108.168 C29.2653316,108.168 28.9613346,108.230666 28.7,108.356 C28.4386654,108.481334 28.2213342,108.661332 28.048,108.896 C27.8746658,109.130668 27.7453338,109.414665 27.66,109.748 C27.5746662,110.081335 27.532,110.458665 27.532,110.88 C27.532,111.317336 27.5786662,111.706665 27.672,112.048 C27.7653338,112.389335 27.8999991,112.675999 28.076,112.908 C28.2520009,113.140001 28.4653321,113.315999 28.716,113.436 C28.9666679,113.556001 29.2493318,113.616 29.564,113.616 C29.8786682,113.616 30.1333324,113.577334 30.328,113.5 C30.5226676,113.422666 30.686666,113.337334 30.82,113.244 C30.953334,113.150666 31.0693328,113.065334 31.168,112.988 C31.2666672,112.910666 31.3773327,112.872 31.5,112.872 C31.6600008,112.872 31.7799996,112.933333 31.86,113.056 L32.428,113.776 C32.2093322,114.032001 31.9720013,114.246666 31.716,114.42 C31.4599987,114.593334 31.194668,114.731999 30.92,114.836 C30.645332,114.940001 30.3613348,115.013333 30.068,115.056 C29.7746652,115.098667 29.4840014,115.12 29.196,115.12 C28.6893308,115.12 28.2120022,115.025334 27.764,114.836 C27.3159978,114.646666 26.925335,114.370668 26.592,114.008 C26.258665,113.645332 25.9946676,113.201336 25.8,112.676 C25.6053324,112.150664 25.508,111.552003 25.508,110.88 C25.508,110.27733 25.5946658,109.718669 25.768,109.204 C25.9413342,108.689331 26.1959983,108.244002 26.532,107.868 C26.8680017,107.491998 27.2839975,107.197334 27.78,106.984 C28.2760025,106.770666 28.8466634,106.664 29.492,106.664 C30.1053364,106.664 30.6426644,106.762666 31.104,106.96 C31.5653356,107.157334 31.9799982,107.439998 32.348,107.808 L31.828,108.528 Z M37.196,106.664 C37.8093364,106.664 38.3653308,106.762666 38.864,106.96 C39.3626692,107.157334 39.7879982,107.437332 40.14,107.8 C40.4920018,108.162668 40.763999,108.605331 40.956,109.128 C41.148001,109.650669 41.244,110.234663 41.244,110.88 C41.244,111.53067 41.148001,112.117331 40.956,112.64 C40.763999,113.162669 40.4920018,113.607998 40.14,113.976 C39.7879982,114.344002 39.3626692,114.626666 38.864,114.824 C38.3653308,115.021334 37.8093364,115.12 37.196,115.12 C36.5826636,115.12 36.0253358,115.021334 35.524,114.824 C35.0226642,114.626666 34.5946684,114.344002 34.24,113.976 C33.8853316,113.607998 33.6106676,113.162669 33.416,112.64 C33.2213324,112.117331 33.124,111.53067 33.124,110.88 C33.124,110.234663 33.2213324,109.650669 33.416,109.128 C33.6106676,108.605331 33.8853316,108.162668 34.24,107.8 C34.5946684,107.437332 35.0226642,107.157334 35.524,106.96 C36.0253358,106.762666 36.5826636,106.664 37.196,106.664 Z M37.196,113.6 C37.8786701,113.6 38.3839984,113.370669 38.712,112.912 C39.0400016,112.453331 39.204,111.781338 39.204,110.896 C39.204,110.010662 39.0400016,109.336002 38.712,108.872 C38.3839984,108.407998 37.8786701,108.176 37.196,108.176 C36.5026632,108.176 35.9906683,108.409331 35.66,108.876 C35.3293317,109.342669 35.164,110.015996 35.164,110.896 C35.164,111.776004 35.3293317,112.446664 35.66,112.908 C35.9906683,113.369336 36.5026632,113.6 37.196,113.6 Z M42.788,115 L42.788,106.792 L43.996,106.792 C44.2520013,106.792 44.4199996,106.911999 44.5,107.152 L44.628,107.76 C44.7720007,107.599999 44.9226659,107.453334 45.08,107.32 C45.2373341,107.186666 45.4053324,107.072 45.584,106.976 C45.7626676,106.88 45.9546656,106.804 46.16,106.748 C46.3653344,106.692 46.5906654,106.664 46.836,106.664 C47.3533359,106.664 47.778665,106.803999 48.112,107.084 C48.445335,107.364001 48.6946658,107.735998 48.86,108.2 C48.9880006,107.927999 49.147999,107.694668 49.34,107.5 C49.532001,107.305332 49.7426655,107.146667 49.972,107.024 C50.2013345,106.901333 50.445332,106.810667 50.704,106.752 C50.962668,106.693333 51.2226654,106.664 51.484,106.664 C51.9373356,106.664 52.3399982,106.733333 52.692,106.872 C53.0440018,107.010667 53.3399988,107.213332 53.58,107.48 C53.8200012,107.746668 54.002666,108.071998 54.128,108.456 C54.253334,108.840002 54.316,109.279998 54.316,109.776 L54.316,115 L52.34,115 L52.34,109.776 C52.34,109.253331 52.2253345,108.860001 51.996,108.596 C51.7666655,108.331999 51.4306689,108.2 50.988,108.2 C50.7853323,108.2 50.5973342,108.234666 50.424,108.304 C50.2506658,108.373334 50.0986673,108.473333 49.968,108.604 C49.8373327,108.734667 49.734667,108.898666 49.66,109.096 C49.585333,109.293334 49.548,109.519999 49.548,109.776 L49.548,115 L47.564,115 L47.564,109.776 C47.564,109.226664 47.4533344,108.826668 47.232,108.576 C47.0106656,108.325332 46.6840022,108.2 46.252,108.2 C45.9693319,108.2 45.7040012,108.270666 45.456,108.412 C45.2079988,108.553334 44.9773344,108.746665 44.764,108.992 L44.764,115 L42.788,115 Z M56.26,115 L56.26,106.792 L57.468,106.792 C57.7240013,106.792 57.8919996,106.911999 57.972,107.152 L58.1,107.76 C58.2440007,107.599999 58.3946659,107.453334 58.552,107.32 C58.7093341,107.186666 58.8773324,107.072 59.056,106.976 C59.2346676,106.88 59.4266656,106.804 59.632,106.748 C59.8373344,106.692 60.0626654,106.664 60.308,106.664 C60.8253359,106.664 61.250665,106.803999 61.584,107.084 C61.917335,107.364001 62.1666658,107.735998 62.332,108.2 C62.4600006,107.927999 62.619999,107.694668 62.812,107.5 C63.004001,107.305332 63.2146655,107.146667 63.444,107.024 C63.6733345,106.901333 63.917332,106.810667 64.176,106.752 C64.434668,106.693333 64.6946654,106.664 64.956,106.664 C65.4093356,106.664 65.8119982,106.733333 66.164,106.872 C66.5160018,107.010667 66.8119988,107.213332 67.052,107.48 C67.2920012,107.746668 67.474666,108.071998 67.6,108.456 C67.725334,108.840002 67.788,109.279998 67.788,109.776 L67.788,115 L65.812,115 L65.812,109.776 C65.812,109.253331 65.6973345,108.860001 65.468,108.596 C65.2386655,108.331999 64.9026689,108.2 64.46,108.2 C64.2573323,108.2 64.0693342,108.234666 63.896,108.304 C63.7226658,108.373334 63.5706673,108.473333 63.44,108.604 C63.3093327,108.734667 63.206667,108.898666 63.132,109.096 C63.057333,109.293334 63.02,109.519999 63.02,109.776 L63.02,115 L61.036,115 L61.036,109.776 C61.036,109.226664 60.9253344,108.826668 60.704,108.576 C60.4826656,108.325332 60.1560022,108.2 59.724,108.2 C59.4413319,108.2 59.1760012,108.270666 58.928,108.412 C58.6799988,108.553334 58.4493344,108.746665 58.236,108.992 L58.236,115 L56.26,115 Z M73.236,106.664 C73.8493364,106.664 74.4053308,106.762666 74.904,106.96 C75.4026692,107.157334 75.8279982,107.437332 76.18,107.8 C76.5320018,108.162668 76.803999,108.605331 76.996,109.128 C77.188001,109.650669 77.284,110.234663 77.284,110.88 C77.284,111.53067 77.188001,112.117331 76.996,112.64 C76.803999,113.162669 76.5320018,113.607998 76.18,113.976 C75.8279982,114.344002 75.4026692,114.626666 74.904,114.824 C74.4053308,115.021334 73.8493364,115.12 73.236,115.12 C72.6226636,115.12 72.0653358,115.021334 71.564,114.824 C71.0626642,114.626666 70.6346684,114.344002 70.28,113.976 C69.9253316,113.607998 69.6506676,113.162669 69.456,112.64 C69.2613324,112.117331 69.164,111.53067 69.164,110.88 C69.164,110.234663 69.2613324,109.650669 69.456,109.128 C69.6506676,108.605331 69.9253316,108.162668 70.28,107.8 C70.6346684,107.437332 71.0626642,107.157334 71.564,106.96 C72.0653358,106.762666 72.6226636,106.664 73.236,106.664 Z M73.236,113.6 C73.9186701,113.6 74.4239984,113.370669 74.752,112.912 C75.0800016,112.453331 75.244,111.781338 75.244,110.896 C75.244,110.010662 75.0800016,109.336002 74.752,108.872 C74.4239984,108.407998 73.9186701,108.176 73.236,108.176 C72.5426632,108.176 72.0306683,108.409331 71.7,108.876 C71.3693317,109.342669 71.204,110.015996 71.204,110.896 C71.204,111.776004 71.3693317,112.446664 71.7,112.908 C72.0306683,113.369336 72.5426632,113.6 73.236,113.6 Z M84.604,115 C84.3479987,115 84.1800004,114.880001 84.1,114.64 L83.94,113.848 C83.7693325,114.040001 83.5906676,114.213333 83.404,114.368 C83.2173324,114.522667 83.0160011,114.655999 82.8,114.768 C82.5839989,114.880001 82.3520012,114.966666 82.104,115.028 C81.8559988,115.089334 81.5880014,115.12 81.3,115.12 C80.8519978,115.12 80.4413352,115.026668 80.068,114.84 C79.6946648,114.653332 79.3733347,114.382668 79.104,114.028 C78.8346653,113.673332 78.6266674,113.234669 78.48,112.712 C78.3333326,112.189331 78.26,111.592003 78.26,110.92 C78.26,110.311997 78.3426658,109.746669 78.508,109.224 C78.6733342,108.701331 78.9106651,108.248002 79.22,107.864 C79.5293349,107.479998 79.8999978,107.180001 80.332,106.964 C80.7640022,106.747999 81.2493306,106.64 81.788,106.64 C82.246669,106.64 82.638665,106.713333 82.964,106.86 C83.289335,107.006667 83.5799987,107.202665 83.836,107.448 L83.836,103.112 L85.812,103.112 L85.812,115 L84.604,115 Z M81.972,113.552 C82.3826687,113.552 82.7319986,113.466668 83.02,113.296 C83.3080014,113.125332 83.5799987,112.882668 83.836,112.568 L83.836,108.888 C83.6119989,108.615999 83.3680013,108.424001 83.104,108.312 C82.8399987,108.199999 82.5560015,108.144 82.252,108.144 C81.9533318,108.144 81.6826679,108.199999 81.44,108.312 C81.1973321,108.424001 80.9920008,108.593332 80.824,108.82 C80.6559992,109.046668 80.5266671,109.334665 80.436,109.684 C80.3453329,110.033335 80.3,110.445331 80.3,110.92 C80.3,111.400002 80.3386663,111.806665 80.416,112.14 C80.4933337,112.473335 80.6039993,112.745332 80.748,112.956 C80.8920007,113.166668 81.067999,113.318666 81.276,113.412 C81.484001,113.505334 81.7159987,113.552 81.972,113.552 Z M94.38,115 L93.492,115 C93.3053324,115 93.1586672,114.972 93.052,114.916 C92.9453328,114.86 92.8653336,114.746668 92.812,114.576 L92.636,113.992 C92.427999,114.178668 92.224001,114.342666 92.024,114.484 C91.823999,114.625334 91.6173344,114.744 91.404,114.84 C91.1906656,114.936 90.9640012,115.008 90.724,115.056 C90.4839988,115.104 90.2173348,115.128 89.924,115.128 C89.5773316,115.128 89.2573348,115.081334 88.964,114.988 C88.6706652,114.894666 88.4186677,114.754668 88.208,114.568 C87.9973323,114.381332 87.8333339,114.149335 87.716,113.872 C87.5986661,113.594665 87.54,113.272002 87.54,112.904 C87.54,112.594665 87.6213325,112.289335 87.784,111.988 C87.9466675,111.686665 88.2173314,111.414668 88.596,111.172 C88.9746686,110.929332 89.4786635,110.728001 90.108,110.568 C90.7373365,110.407999 91.518662,110.317333 92.452,110.296 L92.452,109.816 C92.452,109.266664 92.3360012,108.860001 92.104,108.596 C91.8719988,108.331999 91.5346689,108.2 91.092,108.2 C90.7719984,108.2 90.5053344,108.237333 90.292,108.312 C90.0786656,108.386667 89.8933341,108.470666 89.736,108.564 C89.5786659,108.657334 89.433334,108.741333 89.3,108.816 C89.166666,108.890667 89.0200008,108.928 88.86,108.928 C88.726666,108.928 88.6120005,108.893334 88.516,108.824 C88.4199995,108.754666 88.342667,108.669334 88.284,108.568 L87.924,107.936 C88.8680047,107.071996 90.00666,106.64 91.34,106.64 C91.8200024,106.64 92.2479981,106.718666 92.624,106.876 C93.0000019,107.033334 93.3186654,107.251999 93.58,107.532 C93.8413346,107.812001 94.0399993,108.146665 94.176,108.536 C94.3120007,108.925335 94.38,109.351998 94.38,109.816 L94.38,115 Z M90.54,113.768 C90.7426677,113.768 90.9293325,113.749334 91.1,113.712 C91.2706675,113.674666 91.4319992,113.618667 91.584,113.544 C91.7360008,113.469333 91.882666,113.377334 92.024,113.268 C92.165334,113.158666 92.3079993,113.029334 92.452,112.88 L92.452,111.496 C91.8759971,111.522667 91.3946686,111.572 91.008,111.644 C90.6213314,111.716 90.3106678,111.807999 90.076,111.92 C89.8413322,112.032001 89.6746672,112.162666 89.576,112.312 C89.4773328,112.461334 89.428,112.623999 89.428,112.8 C89.428,113.146668 89.5306656,113.394666 89.736,113.544 C89.9413344,113.693334 90.2093317,113.768 90.54,113.768 Z M99.02,115.128 C98.3106631,115.128 97.7640019,114.926669 97.38,114.524 C96.9959981,114.121331 96.804,113.565337 96.804,112.856 L96.804,108.272 L95.972,108.272 C95.8653328,108.272 95.7733337,108.237334 95.696,108.168 C95.6186663,108.098666 95.58,107.994667 95.58,107.856 L95.58,107.072 L96.9,106.856 L97.316,104.616 C97.3373334,104.509333 97.3866663,104.426667 97.464,104.368 C97.5413337,104.309333 97.6386661,104.28 97.756,104.28 L98.78,104.28 L98.78,106.864 L100.94,106.864 L100.94,108.272 L98.78,108.272 L98.78,112.72 C98.78,112.976001 98.8439994,113.175999 98.972,113.32 C99.1000006,113.464001 99.2706656,113.536 99.484,113.536 C99.6066673,113.536 99.7093329,113.521333 99.792,113.492 C99.8746671,113.462667 99.9466664,113.432 100.008,113.4 C100.069334,113.368 100.124,113.337333 100.172,113.308 C100.22,113.278667 100.268,113.264 100.316,113.264 C100.374667,113.264 100.422666,113.278667 100.46,113.308 C100.497334,113.337333 100.537333,113.381333 100.58,113.44 L101.172,114.4 C100.883999,114.640001 100.553335,114.821333 100.18,114.944 C99.8066648,115.066667 99.420002,115.128 99.02,115.128 Z M104.62,106.792 L104.62,115 L102.644,115 L102.644,106.792 L104.62,106.792 Z M104.916,104.4 C104.916,104.570668 104.881334,104.730666 104.812,104.88 C104.742666,105.029334 104.650667,105.159999 104.536,105.272 C104.421333,105.384001 104.286667,105.473333 104.132,105.54 C103.977333,105.606667 103.812001,105.64 103.636,105.64 C103.465332,105.64 103.304001,105.606667 103.152,105.54 C102.999999,105.473333 102.868001,105.384001 102.756,105.272 C102.643999,105.159999 102.554667,105.029334 102.488,104.88 C102.421333,104.730666 102.388,104.570668 102.388,104.4 C102.388,104.223999 102.421333,104.058667 102.488,103.904 C102.554667,103.749333 102.643999,103.616001 102.756,103.504 C102.868001,103.391999 102.999999,103.302667 103.152,103.236 C103.304001,103.169333 103.465332,103.136 103.636,103.136 C103.812001,103.136 103.977333,103.169333 104.132,103.236 C104.286667,103.302667 104.421333,103.391999 104.536,103.504 C104.650667,103.616001 104.742666,103.749333 104.812,103.904 C104.881334,104.058667 104.916,104.223999 104.916,104.4 Z M110.356,106.664 C110.969336,106.664 111.525331,106.762666 112.024,106.96 C112.522669,107.157334 112.947998,107.437332 113.3,107.8 C113.652002,108.162668 113.923999,108.605331 114.116,109.128 C114.308001,109.650669 114.404,110.234663 114.404,110.88 C114.404,111.53067 114.308001,112.117331 114.116,112.64 C113.923999,113.162669 113.652002,113.607998 113.3,113.976 C112.947998,114.344002 112.522669,114.626666 112.024,114.824 C111.525331,115.021334 110.969336,115.12 110.356,115.12 C109.742664,115.12 109.185336,115.021334 108.684,114.824 C108.182664,114.626666 107.754668,114.344002 107.4,113.976 C107.045332,113.607998 106.770668,113.162669 106.576,112.64 C106.381332,112.117331 106.284,111.53067 106.284,110.88 C106.284,110.234663 106.381332,109.650669 106.576,109.128 C106.770668,108.605331 107.045332,108.162668 107.4,107.8 C107.754668,107.437332 108.182664,107.157334 108.684,106.96 C109.185336,106.762666 109.742664,106.664 110.356,106.664 Z M110.356,113.6 C111.03867,113.6 111.543998,113.370669 111.872,112.912 C112.200002,112.453331 112.364,111.781338 112.364,110.896 C112.364,110.010662 112.200002,109.336002 111.872,108.872 C111.543998,108.407998 111.03867,108.176 110.356,108.176 C109.662663,108.176 109.150668,108.409331 108.82,108.876 C108.489332,109.342669 108.324,110.015996 108.324,110.896 C108.324,111.776004 108.489332,112.446664 108.82,112.908 C109.150668,113.369336 109.662663,113.6 110.356,113.6 Z M115.948,115 L115.948,106.792 L117.156,106.792 C117.412001,106.792 117.58,106.911999 117.66,107.152 L117.796,107.8 C117.961334,107.629332 118.135999,107.474667 118.32,107.336 C118.504001,107.197333 118.698666,107.077334 118.904,106.976 C119.109334,106.874666 119.329332,106.797334 119.564,106.744 C119.798668,106.690666 120.054665,106.664 120.332,106.664 C120.780002,106.664 121.177332,106.739999 121.524,106.892 C121.870668,107.044001 122.159999,107.257332 122.392,107.532 C122.624001,107.806668 122.799999,108.134665 122.92,108.516 C123.040001,108.897335 123.1,109.317331 123.1,109.776 L123.1,115 L121.124,115 L121.124,109.776 C121.124,109.274664 121.008001,108.886668 120.776,108.612 C120.543999,108.337332 120.196002,108.2 119.732,108.2 C119.390665,108.2 119.070668,108.277333 118.772,108.432 C118.473332,108.586667 118.190668,108.797332 117.924,109.064 L117.924,115 L115.948,115 Z" id="Living-In-A-Rented-A"></path>
            <g id="Page-1" transform="translate(31.000000, 0.000000)">
                <path d="M47.8196338,46.3775278 L60.7837753,46.3775278 L60.7837753,48.9864419 L55.9680934,48.9864419 C56.5804167,49.7695227 57.019154,50.6570732 57.221553,51.5958864 L60.7837753,51.5958864 L60.7837753,54.2049773 L57.221553,54.2049773 C56.7191793,56.5429066 54.8868056,58.6655328 52.0290025,59.2446237 L58.3173359,65.3903056 L56.4929167,67.2553813 L48.4567045,59.402654 L47.7584722,59.402654 L47.7584722,58.7249268 L47.6822854,58.6482096 L47.7584722,58.5720227 L47.7584722,56.7935631 L49.491149,56.7935631 L49.5065278,56.7681086 L49.5217298,56.7935631 L50.4389773,56.7935631 C52.8767803,56.7935631 54.1046086,55.6373258 54.546351,54.2049773 L47.8196338,54.2049773 L47.8196338,51.5958864 L54.546351,51.5958864 C54.1030177,50.1647753 52.873952,49.0120732 50.4389773,49.0120732 L47.7584722,49.0120732 L47.7584722,46.4031591 L47.8196338,46.4031591 L47.8196338,46.3775278 Z M54.2965783,41.1644722 C46.3384975,41.1644722 39.9872348,47.5751288 39.9872348,55.5144722 C39.9872348,63.4569975 46.3383207,69.8644722 54.2965783,69.8644722 C62.2520076,69.8644722 68.6923611,63.4476288 68.6923611,55.5144722 C68.6923611,47.5852045 62.2520076,41.1644722 54.2965783,41.1644722 Z M3.46508838,30.7281086 L3.46508838,64.6462904 L21.7287247,64.6462904 L21.7287247,42.4690177 C21.7289015,41.7483359 22.3129419,41.1644722 23.0332702,41.1644722 L33.4696338,41.1644722 C34.1901389,41.1644722 34.7741793,41.7483359 34.7743561,42.4690177 L34.7743561,64.6462904 L40.0588258,64.6462904 C38.3694571,62.0055581 37.3783207,58.8764167 37.3783207,55.5144722 C37.3783207,47.5063662 42.9394318,40.7731086 50.4289015,39.0140934 L50.4289015,30.7281086 L3.46508838,30.7281086 Z M46.963548,13.8149773 L46.963548,17.667452 L52.1819066,22.8856338 L52.1819066,13.8149773 L46.963548,13.8149773 Z M26.9470833,5.3030303e-05 L8.83838384e-05,28.1190177 L53.8939015,28.1190177 L26.9470833,5.3030303e-05 Z" id="Fill-1"></path>
            </g>
        </g>
    </g>
</svg>