<?xml version="1.0" encoding="UTF-8" standalone="no"?>
<svg width="100px" height="85px" viewBox="0 0 106 118" version="1.1" xmlns="http://www.w3.org/2000/svg" xmlns:xlink="http://www.w3.org/1999/xlink">
    <!-- Generator: Sketch 48.2 (47327) - http://www.bohemiancoding.com/sketch -->
    <title>Renter_Lease</title>
    <desc>Created with Sketch.</desc>
    <defs>
        <polygon id="path-1" points="3.89972145e-05 0.114261838 91.9788301 0.114261838 91.9788301 69.8050139 3.89972145e-05 69.8050139"></polygon>
    </defs>
    <g id="Page4-Copy" stroke="none" stroke-width="1" fill="none" fill-rule="evenodd" transform="translate(-539.000000, -456.000000)">
        <g id="Renter_Lease" transform="translate(538.000000, 456.000000)">
            <path d="M3.52,91.48 L3.52,96 L1.368,96 L1.368,84.432 L4.896,84.432 C5.68533728,84.432 6.36133052,84.5133325 6.924,84.676 C7.48666948,84.8386675 7.9479982,85.0666652 8.308,85.36 C8.6680018,85.6533348 8.93199916,86.003998 9.1,86.412 C9.26800084,86.820002 9.352,87.2693309 9.352,87.76 C9.352,88.1493353 9.29466724,88.5173316 9.18,88.864 C9.06533276,89.2106684 8.90000108,89.5253319 8.684,89.808 C8.46799892,90.0906681 8.20133492,90.3386656 7.884,90.552 C7.56666508,90.7653344 7.20533536,90.9359994 6.8,91.064 C7.07200136,91.2186674 7.30666568,91.4399986 7.504,91.728 L10.4,96 L8.464,96 C8.2773324,96 8.11866732,95.962667 7.988,95.888 C7.85733268,95.813333 7.74666712,95.7066674 7.656,95.568 L5.224,91.864 C5.13333288,91.7253326 5.03333388,91.626667 4.924,91.568 C4.81466612,91.509333 4.6533344,91.48 4.44,91.48 L3.52,91.48 Z M3.52,89.936 L4.864,89.936 C5.26933536,89.936 5.62266516,89.8853338 5.924,89.784 C6.22533484,89.6826662 6.47333236,89.5426676 6.668,89.364 C6.86266764,89.1853324 7.00799952,88.9733346 7.104,88.728 C7.20000048,88.4826654 7.248,88.2133348 7.248,87.92 C7.248,87.3333304 7.0546686,86.8826682 6.668,86.568 C6.2813314,86.2533318 5.69067064,86.096 4.896,86.096 L3.52,86.096 L3.52,89.936 Z M15.056,87.664 C15.5733359,87.664 16.0493312,87.7466658 16.484,87.912 C16.9186688,88.0773342 17.2933318,88.3186651 17.608,88.636 C17.9226682,88.9533349 18.1679991,89.3426644 18.344,89.804 C18.5200009,90.2653356 18.608,90.791997 18.608,91.384 C18.608,91.5333341 18.6013334,91.6573328 18.588,91.756 C18.5746666,91.8546672 18.5506668,91.9319997 18.516,91.988 C18.4813332,92.0440003 18.434667,92.0839999 18.376,92.108 C18.317333,92.1320001 18.2426671,92.144 18.152,92.144 L13.08,92.144 C13.138667,92.9866709 13.3653314,93.6053314 13.76,94 C14.1546686,94.3946686 14.6773301,94.592 15.328,94.592 C15.6480016,94.592 15.9239988,94.554667 16.156,94.48 C16.3880012,94.405333 16.5906658,94.3226671 16.764,94.232 C16.9373342,94.1413329 17.0893327,94.058667 17.22,93.984 C17.3506673,93.909333 17.4773327,93.872 17.6,93.872 C17.6800004,93.872 17.749333,93.8879998 17.808,93.92 C17.866667,93.9520002 17.9173331,93.997333 17.96,94.056 L18.536,94.776 C18.3173322,95.0320013 18.0720014,95.2466658 17.8,95.42 C17.5279986,95.5933342 17.2440015,95.7319995 16.948,95.836 C16.6519985,95.9400005 16.3506682,96.0133331 16.044,96.056 C15.7373318,96.0986669 15.4400014,96.12 15.152,96.12 C14.5813305,96.12 14.0506691,96.0253343 13.56,95.836 C13.0693309,95.6466657 12.6426685,95.3666685 12.28,94.996 C11.9173315,94.6253315 11.632001,94.1666694 11.424,93.62 C11.215999,93.0733306 11.112,92.4400036 11.112,91.72 C11.112,91.1599972 11.2026658,90.6333358 11.384,90.14 C11.5653342,89.6466642 11.8253316,89.2173352 12.164,88.852 C12.5026684,88.4866648 12.9159976,88.1973344 13.404,87.984 C13.8920024,87.7706656 14.4426636,87.664 15.056,87.664 Z M15.096,89.08 C14.5199971,89.08 14.069335,89.242665 13.744,89.568 C13.418665,89.893335 13.2106671,90.3546637 13.12,90.952 L16.832,90.952 C16.832,90.6959987 16.7973337,90.4546678 16.728,90.228 C16.6586663,90.0013322 16.5520007,89.8026675 16.408,89.632 C16.2639993,89.4613325 16.0826678,89.3266672 15.864,89.228 C15.6453322,89.1293328 15.3893348,89.08 15.096,89.08 Z M20.216,96 L20.216,87.792 L21.424,87.792 C21.6800013,87.792 21.8479996,87.9119988 21.928,88.152 L22.064,88.8 C22.2293342,88.6293325 22.4039991,88.4746674 22.588,88.336 C22.7720009,88.1973326 22.9666656,88.0773338 23.172,87.976 C23.3773344,87.8746662 23.5973322,87.7973336 23.832,87.744 C24.0666678,87.6906664 24.3226653,87.664 24.6,87.664 C25.0480022,87.664 25.4453316,87.7399992 25.792,87.892 C26.1386684,88.0440008 26.4279988,88.257332 26.66,88.532 C26.8920012,88.806668 27.0679994,89.1346648 27.188,89.516 C27.3080006,89.8973352 27.368,90.317331 27.368,90.776 L27.368,96 L25.392,96 L25.392,90.776 C25.392,90.2746642 25.2760012,89.886668 25.044,89.612 C24.8119988,89.337332 24.4640023,89.2 24,89.2 C23.658665,89.2 23.3386682,89.2773326 23.04,89.432 C22.7413318,89.5866674 22.458668,89.797332 22.192,90.064 L22.192,96 L20.216,96 Z M32.008,96.128 C31.2986631,96.128 30.7520019,95.9266687 30.368,95.524 C29.9839981,95.1213313 29.792,94.5653369 29.792,93.856 L29.792,89.272 L28.96,89.272 C28.8533328,89.272 28.7613337,89.2373337 28.684,89.168 C28.6066663,89.0986663 28.568,88.9946674 28.568,88.856 L28.568,88.072 L29.888,87.856 L30.304,85.616 C30.3253334,85.5093328 30.3746663,85.426667 30.452,85.368 C30.5293337,85.309333 30.6266661,85.28 30.744,85.28 L31.768,85.28 L31.768,87.864 L33.928,87.864 L33.928,89.272 L31.768,89.272 L31.768,93.72 C31.768,93.9760013 31.8319994,94.1759993 31.96,94.32 C32.0880006,94.4640007 32.2586656,94.536 32.472,94.536 C32.5946673,94.536 32.6973329,94.5213335 32.78,94.492 C32.8626671,94.4626665 32.9346664,94.4320002 32.996,94.4 C33.0573336,94.3679998 33.1119998,94.3373335 33.16,94.308 C33.2080002,94.2786665 33.2559998,94.264 33.304,94.264 C33.362667,94.264 33.4106665,94.2786665 33.448,94.308 C33.4853335,94.3373335 33.5253331,94.381333 33.568,94.44 L34.16,95.4 C33.8719986,95.6400012 33.5413352,95.8213327 33.168,95.944 C32.7946648,96.0666673 32.408002,96.128 32.008,96.128 Z M38.896,87.664 C39.4133359,87.664 39.8893312,87.7466658 40.324,87.912 C40.7586688,88.0773342 41.1333318,88.3186651 41.448,88.636 C41.7626682,88.9533349 42.0079991,89.3426644 42.184,89.804 C42.3600009,90.2653356 42.448,90.791997 42.448,91.384 C42.448,91.5333341 42.4413334,91.6573328 42.428,91.756 C42.4146666,91.8546672 42.3906668,91.9319997 42.356,91.988 C42.3213332,92.0440003 42.274667,92.0839999 42.216,92.108 C42.157333,92.1320001 42.0826671,92.144 41.992,92.144 L36.92,92.144 C36.978667,92.9866709 37.2053314,93.6053314 37.6,94 C37.9946686,94.3946686 38.5173301,94.592 39.168,94.592 C39.4880016,94.592 39.7639988,94.554667 39.996,94.48 C40.2280012,94.405333 40.4306658,94.3226671 40.604,94.232 C40.7773342,94.1413329 40.9293327,94.058667 41.06,93.984 C41.1906673,93.909333 41.3173327,93.872 41.44,93.872 C41.5200004,93.872 41.589333,93.8879998 41.648,93.92 C41.706667,93.9520002 41.7573331,93.997333 41.8,94.056 L42.376,94.776 C42.1573322,95.0320013 41.9120014,95.2466658 41.64,95.42 C41.3679986,95.5933342 41.0840015,95.7319995 40.788,95.836 C40.4919985,95.9400005 40.1906682,96.0133331 39.884,96.056 C39.5773318,96.0986669 39.2800014,96.12 38.992,96.12 C38.4213305,96.12 37.8906691,96.0253343 37.4,95.836 C36.9093309,95.6466657 36.4826685,95.3666685 36.12,94.996 C35.7573315,94.6253315 35.472001,94.1666694 35.264,93.62 C35.055999,93.0733306 34.952,92.4400036 34.952,91.72 C34.952,91.1599972 35.0426658,90.6333358 35.224,90.14 C35.4053342,89.6466642 35.6653316,89.2173352 36.004,88.852 C36.3426684,88.4866648 36.7559976,88.1973344 37.244,87.984 C37.7320024,87.7706656 38.2826636,87.664 38.896,87.664 Z M38.936,89.08 C38.3599971,89.08 37.909335,89.242665 37.584,89.568 C37.258665,89.893335 37.0506671,90.3546637 36.96,90.952 L40.672,90.952 C40.672,90.6959987 40.6373337,90.4546678 40.568,90.228 C40.4986663,90.0013322 40.3920007,89.8026675 40.248,89.632 C40.1039993,89.4613325 39.9226678,89.3266672 39.704,89.228 C39.4853322,89.1293328 39.2293348,89.08 38.936,89.08 Z M49.832,96 C49.5759987,96 49.4080004,95.8800012 49.328,95.64 L49.168,94.848 C48.9973325,95.040001 48.8186676,95.2133326 48.632,95.368 C48.4453324,95.5226674 48.2440011,95.6559994 48.028,95.768 C47.8119989,95.8800006 47.5800012,95.9666664 47.332,96.028 C47.0839988,96.0893336 46.8160014,96.12 46.528,96.12 C46.0799978,96.12 45.6693352,96.0266676 45.296,95.84 C44.9226648,95.6533324 44.6013347,95.3826684 44.332,95.028 C44.0626653,94.6733316 43.8546674,94.2346693 43.708,93.712 C43.5613326,93.1893307 43.488,92.5920034 43.488,91.92 C43.488,91.311997 43.5706658,90.7466693 43.736,90.224 C43.9013342,89.7013307 44.1386651,89.2480019 44.448,88.864 C44.7573349,88.4799981 45.1279978,88.1800011 45.56,87.964 C45.9920022,87.7479989 46.4773306,87.64 47.016,87.64 C47.474669,87.64 47.866665,87.7133326 48.192,87.86 C48.517335,88.0066674 48.8079987,88.2026654 49.064,88.448 L49.064,84.112 L51.04,84.112 L51.04,96 L49.832,96 Z M47.2,94.552 C47.6106687,94.552 47.9599986,94.4666675 48.248,94.296 C48.5360014,94.1253325 48.8079987,93.8826682 49.064,93.568 L49.064,89.888 C48.8399989,89.6159986 48.5960013,89.4240006 48.332,89.312 C48.0679987,89.1999994 47.7840015,89.144 47.48,89.144 C47.1813318,89.144 46.9106679,89.1999994 46.668,89.312 C46.4253321,89.4240006 46.2200008,89.5933322 46.052,89.82 C45.8839992,90.0466678 45.7546671,90.3346649 45.664,90.684 C45.5733329,91.0333351 45.528,91.445331 45.528,91.92 C45.528,92.4000024 45.5666663,92.806665 45.644,93.14 C45.7213337,93.473335 45.8319993,93.7453323 45.976,93.956 C46.1200007,94.1666677 46.295999,94.3186662 46.504,94.412 C46.712001,94.5053338 46.9439987,94.552 47.2,94.552 Z M53.864,96.024 C53.8159998,96.1466673 53.754667,96.2533329 53.68,96.344 C53.605333,96.4346671 53.5200005,96.5106664 53.424,96.572 C53.3279995,96.6333336 53.2266672,96.6799998 53.12,96.712 C53.0133328,96.7440002 52.9093338,96.76 52.808,96.76 L51.976,96.76 L56.648,84.808 C56.7386671,84.5839989 56.8693325,84.4120006 57.04,84.292 C57.2106675,84.1719994 57.4159988,84.112 57.656,84.112 L58.496,84.112 L53.864,96.024 Z M61.632,94.224 L66.264,94.224 L66.264,96 L59.48,96 L59.48,84.432 L61.632,84.432 L61.632,94.224 Z M70.728,87.664 C71.2453359,87.664 71.7213312,87.7466658 72.156,87.912 C72.5906688,88.0773342 72.9653318,88.3186651 73.28,88.636 C73.5946682,88.9533349 73.8399991,89.3426644 74.016,89.804 C74.1920009,90.2653356 74.28,90.791997 74.28,91.384 C74.28,91.5333341 74.2733334,91.6573328 74.26,91.756 C74.2466666,91.8546672 74.2226668,91.9319997 74.188,91.988 C74.1533332,92.0440003 74.106667,92.0839999 74.048,92.108 C73.989333,92.1320001 73.9146671,92.144 73.824,92.144 L68.752,92.144 C68.810667,92.9866709 69.0373314,93.6053314 69.432,94 C69.8266686,94.3946686 70.3493301,94.592 71,94.592 C71.3200016,94.592 71.5959988,94.554667 71.828,94.48 C72.0600012,94.405333 72.2626658,94.3226671 72.436,94.232 C72.6093342,94.1413329 72.7613327,94.058667 72.892,93.984 C73.0226673,93.909333 73.1493327,93.872 73.272,93.872 C73.3520004,93.872 73.421333,93.8879998 73.48,93.92 C73.538667,93.9520002 73.5893331,93.997333 73.632,94.056 L74.208,94.776 C73.9893322,95.0320013 73.7440014,95.2466658 73.472,95.42 C73.1999986,95.5933342 72.9160015,95.7319995 72.62,95.836 C72.3239985,95.9400005 72.0226682,96.0133331 71.716,96.056 C71.4093318,96.0986669 71.1120014,96.12 70.824,96.12 C70.2533305,96.12 69.7226691,96.0253343 69.232,95.836 C68.7413309,95.6466657 68.3146685,95.3666685 67.952,94.996 C67.5893315,94.6253315 67.304001,94.1666694 67.096,93.62 C66.887999,93.0733306 66.784,92.4400036 66.784,91.72 C66.784,91.1599972 66.8746658,90.6333358 67.056,90.14 C67.2373342,89.6466642 67.4973316,89.2173352 67.836,88.852 C68.1746684,88.4866648 68.5879976,88.1973344 69.076,87.984 C69.5640024,87.7706656 70.1146636,87.664 70.728,87.664 Z M70.768,89.08 C70.1919971,89.08 69.741335,89.242665 69.416,89.568 C69.090665,89.893335 68.8826671,90.3546637 68.792,90.952 L72.504,90.952 C72.504,90.6959987 72.4693337,90.4546678 72.4,90.228 C72.3306663,90.0013322 72.2240007,89.8026675 72.08,89.632 C71.9359993,89.4613325 71.7546678,89.3266672 71.536,89.228 C71.3173322,89.1293328 71.0613348,89.08 70.768,89.08 Z M82.32,96 L81.432,96 C81.2453324,96 81.0986672,95.9720003 80.992,95.916 C80.8853328,95.8599997 80.8053336,95.7466675 80.752,95.576 L80.576,94.992 C80.367999,95.1786676 80.164001,95.342666 79.964,95.484 C79.763999,95.625334 79.5573344,95.7439995 79.344,95.84 C79.1306656,95.9360005 78.9040012,96.0079998 78.664,96.056 C78.4239988,96.1040002 78.1573348,96.128 77.864,96.128 C77.5173316,96.128 77.1973348,96.0813338 76.904,95.988 C76.6106652,95.8946662 76.3586677,95.7546676 76.148,95.568 C75.9373323,95.3813324 75.7733339,95.1493347 75.656,94.872 C75.5386661,94.5946653 75.48,94.2720018 75.48,93.904 C75.48,93.5946651 75.5613325,93.2893348 75.724,92.988 C75.8866675,92.6866652 76.1573314,92.4146679 76.536,92.172 C76.9146686,91.9293321 77.4186635,91.7280008 78.048,91.568 C78.6773365,91.4079992 79.458662,91.3173334 80.392,91.296 L80.392,90.816 C80.392,90.2666639 80.2760012,89.8600013 80.044,89.596 C79.8119988,89.3319987 79.4746689,89.2 79.032,89.2 C78.7119984,89.2 78.4453344,89.237333 78.232,89.312 C78.0186656,89.386667 77.8333341,89.4706662 77.676,89.564 C77.5186659,89.6573338 77.373334,89.741333 77.24,89.816 C77.106666,89.890667 76.9600008,89.928 76.8,89.928 C76.666666,89.928 76.5520005,89.8933337 76.456,89.824 C76.3599995,89.7546663 76.282667,89.6693338 76.224,89.568 L75.864,88.936 C76.8080047,88.0719957 77.94666,87.64 79.28,87.64 C79.7600024,87.64 80.1879981,87.7186659 80.564,87.876 C80.9400019,88.0333341 81.2586654,88.2519986 81.52,88.532 C81.7813346,88.8120014 81.9799993,89.1466647 82.116,89.536 C82.2520007,89.9253353 82.32,90.3519977 82.32,90.816 L82.32,96 Z M78.48,94.768 C78.6826677,94.768 78.8693325,94.7493335 79.04,94.712 C79.2106675,94.6746665 79.3719992,94.618667 79.524,94.544 C79.6760008,94.469333 79.822666,94.3773339 79.964,94.268 C80.105334,94.1586661 80.2479993,94.0293341 80.392,93.88 L80.392,92.496 C79.8159971,92.5226668 79.3346686,92.5719996 78.948,92.644 C78.5613314,92.7160004 78.2506678,92.8079994 78.016,92.92 C77.7813322,93.0320006 77.6146672,93.1626659 77.516,93.312 C77.4173328,93.4613341 77.368,93.6239991 77.368,93.8 C77.368,94.1466684 77.4706656,94.3946659 77.676,94.544 C77.8813344,94.6933341 78.1493317,94.768 78.48,94.768 Z M89.136,89.392 C89.0826664,89.4773338 89.026667,89.5373332 88.968,89.572 C88.909333,89.6066668 88.8346671,89.624 88.744,89.624 C88.6479995,89.624 88.5453339,89.5973336 88.436,89.544 C88.3266661,89.4906664 88.2000007,89.430667 88.056,89.364 C87.9119993,89.297333 87.7480009,89.2373336 87.564,89.184 C87.3799991,89.1306664 87.1626679,89.104 86.912,89.104 C86.5226647,89.104 86.2160011,89.1866658 85.992,89.352 C85.7679989,89.5173342 85.656,89.733332 85.656,90 C85.656,90.1760009 85.7133328,90.3239994 85.828,90.444 C85.9426672,90.5640006 86.0946657,90.6693329 86.284,90.76 C86.4733343,90.8506671 86.6879988,90.9319996 86.928,91.004 C87.1680012,91.0760004 87.4133321,91.1546662 87.664,91.24 C87.9146679,91.3253338 88.1599988,91.4226661 88.4,91.532 C88.6400012,91.6413339 88.8546657,91.7799992 89.044,91.948 C89.2333343,92.1160008 89.3853328,92.3173322 89.5,92.552 C89.6146672,92.7866678 89.672,93.0693317 89.672,93.4 C89.672,93.7946686 89.6000007,94.158665 89.456,94.492 C89.3119993,94.825335 89.1013347,95.1133321 88.824,95.356 C88.5466653,95.5986679 88.204002,95.7879993 87.796,95.924 C87.387998,96.0600007 86.9200026,96.128 86.392,96.128 C86.1093319,96.128 85.8333347,96.1026669 85.564,96.052 C85.2946653,96.0013331 85.0360012,95.9306671 84.788,95.84 C84.5399988,95.7493329 84.3106677,95.6426673 84.1,95.52 C83.8893323,95.3973327 83.7040008,95.2640007 83.544,95.12 L84,94.368 C84.058667,94.2773329 84.1279996,94.2080002 84.208,94.16 C84.2880004,94.1119998 84.3893327,94.088 84.512,94.088 C84.6346673,94.088 84.7506661,94.1226663 84.86,94.192 C84.9693339,94.2613337 85.0959993,94.3359996 85.24,94.416 C85.3840007,94.4960004 85.5533324,94.5706663 85.748,94.64 C85.9426676,94.7093337 86.1893318,94.744 86.488,94.744 C86.7226678,94.744 86.9239992,94.7160003 87.092,94.66 C87.2600008,94.6039997 87.3986661,94.5306671 87.508,94.44 C87.6173339,94.3493329 87.6973331,94.2440006 87.748,94.124 C87.7986669,94.0039994 87.824,93.8800006 87.824,93.752 C87.824,93.559999 87.7666672,93.4026673 87.652,93.28 C87.5373328,93.1573327 87.3853343,93.0506671 87.196,92.96 C87.0066657,92.8693329 86.7906679,92.7880004 86.548,92.716 C86.3053321,92.6439996 86.0573346,92.5653338 85.804,92.48 C85.5506654,92.3946662 85.3026679,92.2946672 85.06,92.18 C84.8173321,92.0653328 84.6013343,91.9200009 84.412,91.744 C84.2226657,91.5679991 84.0706672,91.3520013 83.956,91.096 C83.8413328,90.8399987 83.784,90.5306685 83.784,90.168 C83.784,89.8319983 83.850666,89.5120015 83.984,89.208 C84.117334,88.9039985 84.313332,88.6386678 84.572,88.412 C84.830668,88.1853322 85.1533314,88.0040007 85.54,87.868 C85.9266686,87.7319993 86.3733308,87.664 86.88,87.664 C87.4453362,87.664 87.9599977,87.7573324 88.424,87.944 C88.8880023,88.1306676 89.2746651,88.3759985 89.584,88.68 L89.136,89.392 Z M94.648,87.664 C95.1653359,87.664 95.6413312,87.7466658 96.076,87.912 C96.5106688,88.0773342 96.8853318,88.3186651 97.2,88.636 C97.5146682,88.9533349 97.7599991,89.3426644 97.936,89.804 C98.1120009,90.2653356 98.2,90.791997 98.2,91.384 C98.2,91.5333341 98.1933334,91.6573328 98.18,91.756 C98.1666666,91.8546672 98.1426668,91.9319997 98.108,91.988 C98.0733332,92.0440003 98.026667,92.0839999 97.968,92.108 C97.909333,92.1320001 97.8346671,92.144 97.744,92.144 L92.672,92.144 C92.730667,92.9866709 92.9573314,93.6053314 93.352,94 C93.7466686,94.3946686 94.2693301,94.592 94.92,94.592 C95.2400016,94.592 95.5159988,94.554667 95.748,94.48 C95.9800012,94.405333 96.1826658,94.3226671 96.356,94.232 C96.5293342,94.1413329 96.6813327,94.058667 96.812,93.984 C96.9426673,93.909333 97.0693327,93.872 97.192,93.872 C97.2720004,93.872 97.341333,93.8879998 97.4,93.92 C97.458667,93.9520002 97.5093331,93.997333 97.552,94.056 L98.128,94.776 C97.9093322,95.0320013 97.6640014,95.2466658 97.392,95.42 C97.1199986,95.5933342 96.8360015,95.7319995 96.54,95.836 C96.2439985,95.9400005 95.9426682,96.0133331 95.636,96.056 C95.3293318,96.0986669 95.0320014,96.12 94.744,96.12 C94.1733305,96.12 93.6426691,96.0253343 93.152,95.836 C92.6613309,95.6466657 92.2346685,95.3666685 91.872,94.996 C91.5093315,94.6253315 91.224001,94.1666694 91.016,93.62 C90.807999,93.0733306 90.704,92.4400036 90.704,91.72 C90.704,91.1599972 90.7946658,90.6333358 90.976,90.14 C91.1573342,89.6466642 91.4173316,89.2173352 91.756,88.852 C92.0946684,88.4866648 92.5079976,88.1973344 92.996,87.984 C93.4840024,87.7706656 94.0346636,87.664 94.648,87.664 Z M94.688,89.08 C94.1119971,89.08 93.661335,89.242665 93.336,89.568 C93.010665,89.893335 92.8026671,90.3546637 92.712,90.952 L96.424,90.952 C96.424,90.6959987 96.3893337,90.4546678 96.32,90.228 C96.2506663,90.0013322 96.1440007,89.8026675 96,89.632 C95.8559993,89.4613325 95.6746678,89.3266672 95.456,89.228 C95.2373322,89.1293328 94.9813348,89.08 94.688,89.08 Z M105.584,96 C105.327999,96 105.16,95.8800012 105.08,95.64 L104.92,94.848 C104.749332,95.040001 104.570668,95.2133326 104.384,95.368 C104.197332,95.5226674 103.996001,95.6559994 103.78,95.768 C103.563999,95.8800006 103.332001,95.9666664 103.084,96.028 C102.835999,96.0893336 102.568001,96.12 102.28,96.12 C101.831998,96.12 101.421335,96.0266676 101.048,95.84 C100.674665,95.6533324 100.353335,95.3826684 100.084,95.028 C99.8146653,94.6733316 99.6066674,94.2346693 99.46,93.712 C99.3133326,93.1893307 99.24,92.5920034 99.24,91.92 C99.24,91.311997 99.3226658,90.7466693 99.488,90.224 C99.6533342,89.7013307 99.8906651,89.2480019 100.2,88.864 C100.509335,88.4799981 100.879998,88.1800011 101.312,87.964 C101.744002,87.7479989 102.229331,87.64 102.768,87.64 C103.226669,87.64 103.618665,87.7133326 103.944,87.86 C104.269335,88.0066674 104.559999,88.2026654 104.816,88.448 L104.816,84.112 L106.792,84.112 L106.792,96 L105.584,96 Z M102.952,94.552 C103.362669,94.552 103.711999,94.4666675 104,94.296 C104.288001,94.1253325 104.559999,93.8826682 104.816,93.568 L104.816,89.888 C104.591999,89.6159986 104.348001,89.4240006 104.084,89.312 C103.819999,89.1999994 103.536002,89.144 103.232,89.144 C102.933332,89.144 102.662668,89.1999994 102.42,89.312 C102.177332,89.4240006 101.972001,89.5933322 101.804,89.82 C101.635999,90.0466678 101.506667,90.3346649 101.416,90.684 C101.325333,91.0333351 101.28,91.445331 101.28,91.92 C101.28,92.4000024 101.318666,92.806665 101.396,93.14 C101.473334,93.473335 101.583999,93.7453323 101.728,93.956 C101.872001,94.1666677 102.047999,94.3186662 102.256,94.412 C102.464001,94.5053338 102.695999,94.552 102.952,94.552 Z M25.144,110.928 L25.144,115 L22.992,115 L22.992,103.432 L26.76,103.432 C27.5333372,103.432 28.2026638,103.522666 28.768,103.704 C29.3333362,103.885334 29.7999982,104.138665 30.168,104.464 C30.5360018,104.789335 30.8079991,105.178664 30.984,105.632 C31.1600009,106.085336 31.248,106.581331 31.248,107.12 C31.248,107.680003 31.1546676,108.193331 30.968,108.66 C30.7813324,109.126669 30.5013352,109.527998 30.128,109.864 C29.7546648,110.200002 29.2880028,110.461332 28.728,110.648 C28.1679972,110.834668 27.5120038,110.928 26.76,110.928 L25.144,110.928 Z M25.144,109.248 L26.76,109.248 C27.1546686,109.248 27.4986652,109.198667 27.792,109.1 C28.0853348,109.001333 28.327999,108.860001 28.52,108.676 C28.712001,108.491999 28.8559995,108.268001 28.952,108.004 C29.0480005,107.739999 29.096,107.445335 29.096,107.12 C29.096,106.810665 29.0480005,106.530668 28.952,106.28 C28.8559995,106.029332 28.712001,105.816001 28.52,105.64 C28.327999,105.463999 28.0853348,105.329334 27.792,105.236 C27.4986652,105.142666 27.1546686,105.096 26.76,105.096 L25.144,105.096 L25.144,109.248 Z M32.808,115 L32.808,106.792 L33.968,106.792 C34.1706677,106.792 34.3119996,106.829333 34.392,106.904 C34.4720004,106.978667 34.5253332,107.106666 34.552,107.288 L34.672,108.28 C34.9653348,107.773331 35.3093314,107.373335 35.704,107.08 C36.0986686,106.786665 36.5413309,106.64 37.032,106.64 C37.4373354,106.64 37.773332,106.733332 38.04,106.92 L37.784,108.4 C37.7679999,108.496 37.7333336,108.564 37.68,108.604 C37.6266664,108.644 37.5546671,108.664 37.464,108.664 C37.3839996,108.664 37.2746674,108.645334 37.136,108.608 C36.9973326,108.570666 36.8133345,108.552 36.584,108.552 C36.1733313,108.552 35.8213348,108.665332 35.528,108.892 C35.2346652,109.118668 34.9866677,109.450664 34.784,109.888 L34.784,115 L32.808,115 Z M42.848,106.664 C43.4613364,106.664 44.0173308,106.762666 44.516,106.96 C45.0146692,107.157334 45.4399982,107.437332 45.792,107.8 C46.1440018,108.162668 46.415999,108.605331 46.608,109.128 C46.800001,109.650669 46.896,110.234663 46.896,110.88 C46.896,111.53067 46.800001,112.117331 46.608,112.64 C46.415999,113.162669 46.1440018,113.607998 45.792,113.976 C45.4399982,114.344002 45.0146692,114.626666 44.516,114.824 C44.0173308,115.021334 43.4613364,115.12 42.848,115.12 C42.2346636,115.12 41.6773358,115.021334 41.176,114.824 C40.6746642,114.626666 40.2466684,114.344002 39.892,113.976 C39.5373316,113.607998 39.2626676,113.162669 39.068,112.64 C38.8733324,112.117331 38.776,111.53067 38.776,110.88 C38.776,110.234663 38.8733324,109.650669 39.068,109.128 C39.2626676,108.605331 39.5373316,108.162668 39.892,107.8 C40.2466684,107.437332 40.6746642,107.157334 41.176,106.96 C41.6773358,106.762666 42.2346636,106.664 42.848,106.664 Z M42.848,113.6 C43.5306701,113.6 44.0359984,113.370669 44.364,112.912 C44.6920016,112.453331 44.856,111.781338 44.856,110.896 C44.856,110.010662 44.6920016,109.336002 44.364,108.872 C44.0359984,108.407998 43.5306701,108.176 42.848,108.176 C42.1546632,108.176 41.6426683,108.409331 41.312,108.876 C40.9813317,109.342669 40.816,110.015996 40.816,110.896 C40.816,111.776004 40.9813317,112.446664 41.312,112.908 C41.6426683,113.369336 42.1546632,113.6 42.848,113.6 Z M48.44,117.68 L48.44,106.792 L49.648,106.792 C49.7760006,106.792 49.8853329,106.821333 49.976,106.88 C50.0666671,106.938667 50.1253332,107.029333 50.152,107.152 L50.312,107.912 C50.6426683,107.533331 51.0226645,107.226668 51.452,106.992 C51.8813355,106.757332 52.3839971,106.64 52.96,106.64 C53.4080022,106.64 53.8173315,106.733332 54.188,106.92 C54.5586685,107.106668 54.8786653,107.377332 55.148,107.732 C55.4173347,108.086668 55.6253326,108.523997 55.772,109.044 C55.9186674,109.564003 55.992,110.159997 55.992,110.832 C55.992,111.445336 55.9093342,112.013331 55.744,112.536 C55.5786658,113.058669 55.3426682,113.511998 55.036,113.896 C54.7293318,114.280002 54.3586688,114.579999 53.924,114.796 C53.4893312,115.012001 53.0026694,115.12 52.464,115.12 C51.9999977,115.12 51.6066683,115.049334 51.284,114.908 C50.9613317,114.766666 50.6720013,114.570668 50.416,114.32 L50.416,117.68 L48.44,117.68 Z M52.28,108.2 C51.8693313,108.2 51.5186681,108.286666 51.228,108.46 C50.9373319,108.633334 50.6666679,108.877332 50.416,109.192 L50.416,112.872 C50.6400011,113.149335 50.8839987,113.342666 51.148,113.452 C51.4120013,113.561334 51.6959985,113.616 52,113.616 C52.2986682,113.616 52.5693321,113.560001 52.812,113.448 C53.0546679,113.335999 53.2599992,113.165334 53.428,112.936 C53.5960008,112.706666 53.7253329,112.417335 53.816,112.068 C53.9066671,111.718665 53.952,111.306669 53.952,110.832 C53.952,110.351998 53.9133337,109.945335 53.836,109.612 C53.7586663,109.278665 53.6480007,109.008001 53.504,108.8 C53.3599993,108.591999 53.1853344,108.44 52.98,108.344 C52.7746656,108.248 52.5413346,108.2 52.28,108.2 Z M60.88,106.664 C61.3973359,106.664 61.8733312,106.746666 62.308,106.912 C62.7426688,107.077334 63.1173318,107.318665 63.432,107.636 C63.7466682,107.953335 63.9919991,108.342664 64.168,108.804 C64.3440009,109.265336 64.432,109.791997 64.432,110.384 C64.432,110.533334 64.4253334,110.657333 64.412,110.756 C64.3986666,110.854667 64.3746668,110.932 64.34,110.988 C64.3053332,111.044 64.258667,111.084 64.2,111.108 C64.141333,111.132 64.0666671,111.144 63.976,111.144 L58.904,111.144 C58.962667,111.986671 59.1893314,112.605331 59.584,113 C59.9786686,113.394669 60.5013301,113.592 61.152,113.592 C61.4720016,113.592 61.7479988,113.554667 61.98,113.48 C62.2120012,113.405333 62.4146658,113.322667 62.588,113.232 C62.7613342,113.141333 62.9133327,113.058667 63.044,112.984 C63.1746673,112.909333 63.3013327,112.872 63.424,112.872 C63.5040004,112.872 63.573333,112.888 63.632,112.92 C63.690667,112.952 63.7413331,112.997333 63.784,113.056 L64.36,113.776 C64.1413322,114.032001 63.8960014,114.246666 63.624,114.42 C63.3519986,114.593334 63.0680015,114.731999 62.772,114.836 C62.4759985,114.940001 62.1746682,115.013333 61.868,115.056 C61.5613318,115.098667 61.2640014,115.12 60.976,115.12 C60.4053305,115.12 59.8746691,115.025334 59.384,114.836 C58.8933309,114.646666 58.4666685,114.366669 58.104,113.996 C57.7413315,113.625331 57.456001,113.166669 57.248,112.62 C57.039999,112.073331 56.936,111.440004 56.936,110.72 C56.936,110.159997 57.0266658,109.633336 57.208,109.14 C57.3893342,108.646664 57.6493316,108.217335 57.988,107.852 C58.3266684,107.486665 58.7399976,107.197334 59.228,106.984 C59.7160024,106.770666 60.2666636,106.664 60.88,106.664 Z M60.92,108.08 C60.3439971,108.08 59.893335,108.242665 59.568,108.568 C59.242665,108.893335 59.0346671,109.354664 58.944,109.952 L62.656,109.952 C62.656,109.695999 62.6213337,109.454668 62.552,109.228 C62.4826663,109.001332 62.3760007,108.802668 62.232,108.632 C62.0879993,108.461332 61.9066678,108.326667 61.688,108.228 C61.4693322,108.129333 61.2133348,108.08 60.92,108.08 Z M66.04,115 L66.04,106.792 L67.2,106.792 C67.4026677,106.792 67.5439996,106.829333 67.624,106.904 C67.7040004,106.978667 67.7573332,107.106666 67.784,107.288 L67.904,108.28 C68.1973348,107.773331 68.5413314,107.373335 68.936,107.08 C69.3306686,106.786665 69.7733309,106.64 70.264,106.64 C70.6693354,106.64 71.005332,106.733332 71.272,106.92 L71.016,108.4 C70.9999999,108.496 70.9653336,108.564 70.912,108.604 C70.8586664,108.644 70.7866671,108.664 70.696,108.664 C70.6159996,108.664 70.5066674,108.645334 70.368,108.608 C70.2293326,108.570666 70.0453345,108.552 69.816,108.552 C69.4053313,108.552 69.0533348,108.665332 68.76,108.892 C68.4666652,109.118668 68.2186677,109.450664 68.016,109.888 L68.016,115 L66.04,115 Z M75.272,115.128 C74.5626631,115.128 74.0160019,114.926669 73.632,114.524 C73.2479981,114.121331 73.056,113.565337 73.056,112.856 L73.056,108.272 L72.224,108.272 C72.1173328,108.272 72.0253337,108.237334 71.948,108.168 C71.8706663,108.098666 71.832,107.994667 71.832,107.856 L71.832,107.072 L73.152,106.856 L73.568,104.616 C73.5893334,104.509333 73.6386663,104.426667 73.716,104.368 C73.7933337,104.309333 73.8906661,104.28 74.008,104.28 L75.032,104.28 L75.032,106.864 L77.192,106.864 L77.192,108.272 L75.032,108.272 L75.032,112.72 C75.032,112.976001 75.0959994,113.175999 75.224,113.32 C75.3520006,113.464001 75.5226656,113.536 75.736,113.536 C75.8586673,113.536 75.9613329,113.521333 76.044,113.492 C76.1266671,113.462667 76.1986664,113.432 76.26,113.4 C76.3213336,113.368 76.3759998,113.337333 76.424,113.308 C76.4720002,113.278667 76.5199998,113.264 76.568,113.264 C76.626667,113.264 76.6746665,113.278667 76.712,113.308 C76.7493335,113.337333 76.7893331,113.381333 76.832,113.44 L77.424,114.4 C77.1359986,114.640001 76.8053352,114.821333 76.432,114.944 C76.0586648,115.066667 75.672002,115.128 75.272,115.128 Z M81.68,117.256 C81.621333,117.394667 81.5453338,117.5 81.452,117.572 C81.3586662,117.644 81.216001,117.68 81.024,117.68 L79.552,117.68 L81.088,114.392 L77.768,106.792 L79.496,106.792 C79.6560008,106.792 79.7786662,106.829333 79.864,106.904 C79.9493338,106.978667 80.0133331,107.064 80.056,107.16 L81.808,111.416 C81.866667,111.554667 81.9173331,111.698666 81.96,111.848 C82.0026669,111.997334 82.0399998,112.146666 82.072,112.296 C82.1146669,112.141333 82.1613331,111.992001 82.212,111.848 C82.2626669,111.703999 82.317333,111.557334 82.376,111.408 L84.024,107.16 C84.0666669,107.053333 84.1373328,106.965334 84.236,106.896 C84.3346672,106.826666 84.4453327,106.792 84.568,106.792 L86.152,106.792 L81.68,117.256 Z" id="Rented/Leased-Proper" fill="#333333"></path>
            <g id="Page-1" opacity="0.5" transform="translate(8.000000, 0.000000)">
                <g id="Group-3" transform="translate(0.000000, 0.080724)">
                    <mask id="mask-2" fill="white">
                        <use xlink:href="#path-1"></use>
                    </mask>
                    <g id="Clip-2"></g>
                    <path d="M77.89561,65.9700279 L63.3648579,53.2193036 L64.022351,47.3667967 L66.4590919,47.963454 C66.5466407,49.0265181 67.2862228,49.9636212 68.3783398,50.2297772 C69.7422674,50.5653482 71.1210139,49.7310028 71.4569749,48.3649304 C71.792351,46.9992479 70.9570306,45.6214763 69.5913482,45.2870752 C68.5514875,45.0330084 67.5071421,45.4596379 66.9186741,46.2772145 L64.218312,45.6148468 L64.4117382,43.8954596 L73.4563621,41.5084401 L88.1310139,54.4921727 L77.89561,65.9700279 Z M36.8190641,39.7927577 L46.1961393,39.7927577 L46.1961393,30.1218384 L36.8190641,30.1218384 L36.8190641,39.7927577 Z M20.6165014,39.7927577 L29.9937716,39.7927577 L29.9937716,30.1218384 L20.6165014,30.1218384 L20.6165014,39.7927577 Z M91.4410975,53.1660724 L74.9310418,38.5577159 C74.5303454,38.2040111 73.9816546,38.0759053 73.4676713,38.2104457 L62.5422117,41.0929248 C61.907727,41.2608078 61.4389805,41.8024791 61.3654708,42.4550975 L61.0973649,44.8512813 L55.649844,43.5162117 L55.6488691,30.758273 L61.3855543,35.9965738 L66.5439109,30.3474373 L33.4206518,0.114261838 L18.6972535,13.300585 L18.6972535,7.1694429 L10.8285905,7.1694429 L10.8285905,20.3485515 L3.89972145e-05,30.0473538 L5.10399443,35.7452368 L10.8295655,30.6188579 L10.8654429,69.8050139 L20.6174763,69.803844 L20.6174763,48.5454875 L29.9947465,48.5454875 L29.9947465,69.8030641 L55.6535487,69.8018942 L55.650624,45.3155432 L60.9012089,46.6024513 L60.1064457,53.6907799 C60.0473649,54.208468 60.2452758,54.7232312 60.6387577,55.0667967 L76.9828802,69.4078273 C77.2849136,69.6732033 77.6596769,69.803844 78.0346351,69.803844 C78.4739387,69.803844 78.9085627,69.6232869 79.2236602,69.2707521 L91.574468,55.4203064 C91.8581727,55.103649 92.0010975,54.6883287 91.9761393,54.2655989 C91.9504011,53.8428691 91.7577549,53.4466574 91.4410975,53.1660724 Z" id="Fill-1" fill="#000000" mask="url(#mask-2)"></path>
                </g>
                <path d="M70.0501699,52.9348969 L76.0654903,47.4618329 L76.0767994,47.474117 C76.2193343,48.34239 76.2848496,48.8164011 76.2733454,48.8957604 L74.6660752,50.358156 C75.1223426,50.4154819 75.5587214,50.5936992 75.9754067,50.8926128 L77.6889443,49.3336992 C77.7135125,49.3186852 77.7314513,49.3173203 77.7429554,49.3301894 C77.8829554,50.2544234 77.9484708,50.7204401 77.9400864,50.7280446 L76.8271058,51.7406072 C77.0718134,52.0596045 77.2543203,52.5449248 77.3750167,53.1971532 C77.4163538,53.9289359 77.3371894,54.4998552 77.1386936,54.9093259 C76.8089721,55.719493 76.377468,56.3674318 75.8437911,56.8529471 L75.8554903,56.8654262 C75.8933175,56.9071532 76.1820919,56.9605794 76.7216184,57.0260947 L82.9520084,57.9062618 L83.1056574,58.0753148 C83.1208663,58.0918886 83.1179415,58.1100223 83.097078,58.1287409 L81.7900864,59.317571 C76.9468273,58.7179889 74.5196407,58.4124457 74.5083315,58.3999666 L73.7513955,57.568156 L73.7356017,57.525454 C73.9703649,57.3653705 74.2279415,57.1579053 74.5069666,56.9036435 C75.8242925,55.7050641 76.2546267,54.5320279 75.7981643,53.3857047 C75.7344039,53.2152869 75.6417855,53.0630028 75.5203092,52.9296323 L71.9434847,56.1839499 C71.9269109,56.1991588 71.910922,56.1983788 71.8959081,56.181805 C71.7681922,55.2462618 71.7089164,54.7747855 71.7173008,54.7671811 L74.5561031,52.1840056 L74.5444039,52.1715265 C74.0826769,51.9901894 73.534376,52.0202173 72.9006713,52.261805 C72.4683872,52.4565961 72.1191671,52.6757604 71.8524262,52.9183231 L70.2640696,54.3635599 L70.2356017,54.3321671 C70.0991114,53.4120279 70.0376908,52.9465961 70.0501699,52.9348969" id="Fill-4" fill="#000000"></path>
            </g>
        </g>
    </g>
</svg>