<?xml version="1.0" encoding="UTF-8" standalone="no"?>
<svg width="60px" height="60px" viewBox="0 0 63 72" version="1.1" xmlns="http://www.w3.org/2000/svg" xmlns:xlink="http://www.w3.org/1999/xlink">
    <!-- Generator: Sketch 48.2 (47327) - http://www.bohemiancoding.com/sketch -->
    <title>Retired_red</title>
    <desc>Created with Sketch.</desc>
    <defs></defs>
    <g id="Page2-Copy-2" stroke="none" stroke-width="1" fill="none" fill-rule="evenodd" transform="translate(-773.000000, -470.000000)">
        <g id="Retired_red" transform="translate(773.000000, 470.000000)" fill="#D0021B">
            <path d="M7.67466667,66.48 L7.67466667,71 L5.52266667,71 L5.52266667,59.432 L9.05066667,59.432 C9.84000395,59.432 10.5159972,59.5133325 11.0786667,59.676 C11.6413361,59.8386675 12.1026649,60.0666652 12.4626667,60.36 C12.8226685,60.6533348 13.0866658,61.003998 13.2546667,61.412 C13.4226675,61.820002 13.5066667,62.2693309 13.5066667,62.76 C13.5066667,63.1493353 13.4493339,63.5173316 13.3346667,63.864 C13.2199994,64.2106684 13.0546677,64.5253319 12.8386667,64.808 C12.6226656,65.0906681 12.3560016,65.3386656 12.0386667,65.552 C11.7213317,65.7653344 11.360002,65.9359994 10.9546667,66.064 C11.226668,66.2186674 11.4613323,66.4399986 11.6586667,66.728 L14.5546667,71 L12.6186667,71 C12.4319991,71 12.273334,70.962667 12.1426667,70.888 C12.0119993,70.813333 11.9013338,70.7066674 11.8106667,70.568 L9.37866667,66.864 C9.28799955,66.7253326 9.18800055,66.626667 9.07866667,66.568 C8.96933279,66.509333 8.80800107,66.48 8.59466667,66.48 L7.67466667,66.48 Z M7.67466667,64.936 L9.01866667,64.936 C9.42400203,64.936 9.77733183,64.8853338 10.0786667,64.784 C10.3800015,64.6826662 10.627999,64.5426676 10.8226667,64.364 C11.0173343,64.1853324 11.1626662,63.9733346 11.2586667,63.728 C11.3546671,63.4826654 11.4026667,63.2133348 11.4026667,62.92 C11.4026667,62.3333304 11.2093353,61.8826682 10.8226667,61.568 C10.4359981,61.2533318 9.84533731,61.096 9.05066667,61.096 L7.67466667,61.096 L7.67466667,64.936 Z M19.2106667,62.664 C19.7280026,62.664 20.2039978,62.7466658 20.6386667,62.912 C21.0733355,63.0773342 21.4479984,63.3186651 21.7626667,63.636 C22.0773349,63.9533349 22.3226658,64.3426644 22.4986667,64.804 C22.6746675,65.2653356 22.7626667,65.791997 22.7626667,66.384 C22.7626667,66.5333341 22.7560001,66.6573328 22.7426667,66.756 C22.7293333,66.8546672 22.7053335,66.9319997 22.6706667,66.988 C22.6359998,67.0440003 22.5893336,67.0839999 22.5306667,67.108 C22.4719997,67.1320001 22.3973338,67.144 22.3066667,67.144 L17.2346667,67.144 C17.2933336,67.9866709 17.519998,68.6053314 17.9146667,69 C18.3093353,69.3946686 18.8319967,69.592 19.4826667,69.592 C19.8026683,69.592 20.0786655,69.554667 20.3106667,69.48 C20.5426678,69.405333 20.7453325,69.3226671 20.9186667,69.232 C21.0920009,69.1413329 21.2439993,69.058667 21.3746667,68.984 C21.505334,68.909333 21.6319994,68.872 21.7546667,68.872 C21.8346671,68.872 21.9039997,68.8879998 21.9626667,68.92 C22.0213336,68.9520002 22.0719998,68.997333 22.1146667,69.056 L22.6906667,69.776 C22.4719989,70.0320013 22.226668,70.2466658 21.9546667,70.42 C21.6826653,70.5933342 21.3986681,70.7319995 21.1026667,70.836 C20.8066652,70.9400005 20.5053349,71.0133331 20.1986667,71.056 C19.8919985,71.0986669 19.5946681,71.12 19.3066667,71.12 C18.7359971,71.12 18.2053358,71.0253343 17.7146667,70.836 C17.2239975,70.6466657 16.7973351,70.3666685 16.4346667,69.996 C16.0719982,69.6253315 15.7866677,69.1666694 15.5786667,68.62 C15.3706656,68.0733306 15.2666667,67.4400036 15.2666667,66.72 C15.2666667,66.1599972 15.3573324,65.6333358 15.5386667,65.14 C15.7200009,64.6466642 15.9799983,64.2173352 16.3186667,63.852 C16.657335,63.4866648 17.0706642,63.1973344 17.5586667,62.984 C18.0466691,62.7706656 18.5973303,62.664 19.2106667,62.664 Z M19.2506667,64.08 C18.6746638,64.08 18.2240016,64.242665 17.8986667,64.568 C17.5733317,64.893335 17.3653338,65.3546637 17.2746667,65.952 L20.9866667,65.952 C20.9866667,65.6959987 20.9520003,65.4546678 20.8826667,65.228 C20.813333,65.0013322 20.7066674,64.8026675 20.5626667,64.632 C20.4186659,64.4613325 20.2373344,64.3266672 20.0186667,64.228 C19.7999989,64.1293328 19.5440015,64.08 19.2506667,64.08 Z M27.0666667,71.128 C26.3573298,71.128 25.8106686,70.9266687 25.4266667,70.524 C25.0426647,70.1213313 24.8506667,69.5653369 24.8506667,68.856 L24.8506667,64.272 L24.0186667,64.272 C23.9119995,64.272 23.8200004,64.2373337 23.7426667,64.168 C23.6653329,64.0986663 23.6266667,63.9946674 23.6266667,63.856 L23.6266667,63.072 L24.9466667,62.856 L25.3626667,60.616 C25.3840001,60.5093328 25.4333329,60.426667 25.5106667,60.368 C25.5880004,60.309333 25.6853327,60.28 25.8026667,60.28 L26.8266667,60.28 L26.8266667,62.864 L28.9866667,62.864 L28.9866667,64.272 L26.8266667,64.272 L26.8266667,68.72 C26.8266667,68.9760013 26.890666,69.1759993 27.0186667,69.32 C27.1466673,69.4640007 27.3173323,69.536 27.5306667,69.536 C27.6533339,69.536 27.7559996,69.5213335 27.8386667,69.492 C27.9213337,69.4626665 27.993333,69.4320002 28.0546667,69.4 C28.1160003,69.3679998 28.1706664,69.3373335 28.2186667,69.308 C28.2666669,69.2786665 28.3146664,69.264 28.3626667,69.264 C28.4213336,69.264 28.4693331,69.2786665 28.5066667,69.308 C28.5440002,69.3373335 28.5839998,69.381333 28.6266667,69.44 L29.2186667,70.4 C28.9306652,70.6400012 28.6000019,70.8213327 28.2266667,70.944 C27.8533315,71.0666673 27.4666687,71.128 27.0666667,71.128 Z M32.6666667,62.792 L32.6666667,71 L30.6906667,71 L30.6906667,62.792 L32.6666667,62.792 Z M32.9626667,60.4 C32.9626667,60.5706675 32.9280003,60.7306659 32.8586667,60.88 C32.789333,61.0293341 32.6973339,61.1599994 32.5826667,61.272 C32.4679994,61.3840006 32.3333341,61.473333 32.1786667,61.54 C32.0239992,61.606667 31.8586675,61.64 31.6826667,61.64 C31.5119991,61.64 31.3506674,61.606667 31.1986667,61.54 C31.0466659,61.473333 30.9146672,61.3840006 30.8026667,61.272 C30.6906661,61.1599994 30.6013337,61.0293341 30.5346667,60.88 C30.4679997,60.7306659 30.4346667,60.5706675 30.4346667,60.4 C30.4346667,60.2239991 30.4679997,60.0586674 30.5346667,59.904 C30.6013337,59.7493326 30.6906661,59.6160006 30.8026667,59.504 C30.9146672,59.3919994 31.0466659,59.302667 31.1986667,59.236 C31.3506674,59.169333 31.5119991,59.136 31.6826667,59.136 C31.8586675,59.136 32.0239992,59.169333 32.1786667,59.236 C32.3333341,59.302667 32.4679994,59.3919994 32.5826667,59.504 C32.6973339,59.6160006 32.789333,59.7493326 32.8586667,59.904 C32.9280003,60.0586674 32.9626667,60.2239991 32.9626667,60.4 Z M34.8986667,71 L34.8986667,62.792 L36.0586667,62.792 C36.2613343,62.792 36.4026663,62.829333 36.4826667,62.904 C36.5626671,62.978667 36.6159999,63.1066658 36.6426667,63.288 L36.7626667,64.28 C37.0560015,63.7733308 37.399998,63.3733348 37.7946667,63.08 C38.1893353,62.7866652 38.6319975,62.64 39.1226667,62.64 C39.528002,62.64 39.8639987,62.7333324 40.1306667,62.92 L39.8746667,64.4 C39.8586666,64.4960005 39.8240003,64.5639998 39.7706667,64.604 C39.7173331,64.6440002 39.6453338,64.664 39.5546667,64.664 C39.4746663,64.664 39.365334,64.6453335 39.2266667,64.608 C39.0879993,64.5706665 38.9040011,64.552 38.6746667,64.552 C38.2639979,64.552 37.9120015,64.6653322 37.6186667,64.892 C37.3253319,65.1186678 37.0773343,65.4506645 36.8746667,65.888 L36.8746667,71 L34.8986667,71 Z M44.8266667,62.664 C45.3440026,62.664 45.8199978,62.7466658 46.2546667,62.912 C46.6893355,63.0773342 47.0639984,63.3186651 47.3786667,63.636 C47.6933349,63.9533349 47.9386658,64.3426644 48.1146667,64.804 C48.2906675,65.2653356 48.3786667,65.791997 48.3786667,66.384 C48.3786667,66.5333341 48.3720001,66.6573328 48.3586667,66.756 C48.3453333,66.8546672 48.3213335,66.9319997 48.2866667,66.988 C48.2519998,67.0440003 48.2053336,67.0839999 48.1466667,67.108 C48.0879997,67.1320001 48.0133338,67.144 47.9226667,67.144 L42.8506667,67.144 C42.9093336,67.9866709 43.135998,68.6053314 43.5306667,69 C43.9253353,69.3946686 44.4479967,69.592 45.0986667,69.592 C45.4186683,69.592 45.6946655,69.554667 45.9266667,69.48 C46.1586678,69.405333 46.3613325,69.3226671 46.5346667,69.232 C46.7080009,69.1413329 46.8599993,69.058667 46.9906667,68.984 C47.121334,68.909333 47.2479994,68.872 47.3706667,68.872 C47.4506671,68.872 47.5199997,68.8879998 47.5786667,68.92 C47.6373336,68.9520002 47.6879998,68.997333 47.7306667,69.056 L48.3066667,69.776 C48.0879989,70.0320013 47.842668,70.2466658 47.5706667,70.42 C47.2986653,70.5933342 47.0146681,70.7319995 46.7186667,70.836 C46.4226652,70.9400005 46.1213349,71.0133331 45.8146667,71.056 C45.5079985,71.0986669 45.2106681,71.12 44.9226667,71.12 C44.3519971,71.12 43.8213358,71.0253343 43.3306667,70.836 C42.8399975,70.6466657 42.4133351,70.3666685 42.0506667,69.996 C41.6879982,69.6253315 41.4026677,69.1666694 41.1946667,68.62 C40.9866656,68.0733306 40.8826667,67.4400036 40.8826667,66.72 C40.8826667,66.1599972 40.9733324,65.6333358 41.1546667,65.14 C41.3360009,64.6466642 41.5959983,64.2173352 41.9346667,63.852 C42.273335,63.4866648 42.6866642,63.1973344 43.1746667,62.984 C43.6626691,62.7706656 44.2133303,62.664 44.8266667,62.664 Z M44.8666667,64.08 C44.2906638,64.08 43.8400016,64.242665 43.5146667,64.568 C43.1893317,64.893335 42.9813338,65.3546637 42.8906667,65.952 L46.6026667,65.952 C46.6026667,65.6959987 46.5680003,65.4546678 46.4986667,65.228 C46.429333,65.0013322 46.3226674,64.8026675 46.1786667,64.632 C46.0346659,64.4613325 45.8533344,64.3266672 45.6346667,64.228 C45.4159989,64.1293328 45.1600015,64.08 44.8666667,64.08 Z M55.7626667,71 C55.5066654,71 55.3386671,70.8800012 55.2586667,70.64 L55.0986667,69.848 C54.9279991,70.040001 54.7493343,70.2133326 54.5626667,70.368 C54.3759991,70.5226674 54.1746677,70.6559994 53.9586667,70.768 C53.7426656,70.8800006 53.5106679,70.9666664 53.2626667,71.028 C53.0146654,71.0893336 52.7466681,71.12 52.4586667,71.12 C52.0106644,71.12 51.6000019,71.0266676 51.2266667,70.84 C50.8533315,70.6533324 50.5320013,70.3826684 50.2626667,70.028 C49.993332,69.6733316 49.7853341,69.2346693 49.6386667,68.712 C49.4919993,68.1893307 49.4186667,67.5920034 49.4186667,66.92 C49.4186667,66.311997 49.5013325,65.7466693 49.6666667,65.224 C49.8320008,64.7013307 50.0693318,64.2480019 50.3786667,63.864 C50.6880015,63.4799981 51.0586645,63.1800011 51.4906667,62.964 C51.9226688,62.7479989 52.4079973,62.64 52.9466667,62.64 C53.4053356,62.64 53.7973317,62.7133326 54.1226667,62.86 C54.4480016,63.0066674 54.7386654,63.2026654 54.9946667,63.448 L54.9946667,59.112 L56.9706667,59.112 L56.9706667,71 L55.7626667,71 Z M53.1306667,69.552 C53.5413354,69.552 53.8906652,69.4666675 54.1786667,69.296 C54.4666681,69.1253325 54.7386654,68.8826682 54.9946667,68.568 L54.9946667,64.888 C54.7706655,64.6159986 54.526668,64.4240006 54.2626667,64.312 C53.9986653,64.1999994 53.7146682,64.144 53.4106667,64.144 C53.1119985,64.144 52.8413345,64.1999994 52.5986667,64.312 C52.3559988,64.4240006 52.1506675,64.5933322 51.9826667,64.82 C51.8146658,65.0466678 51.6853338,65.3346649 51.5946667,65.684 C51.5039995,66.0333351 51.4586667,66.445331 51.4586667,66.92 C51.4586667,67.4000024 51.4973329,67.806665 51.5746667,68.14 C51.6520004,68.473335 51.7626659,68.7453323 51.9066667,68.956 C52.0506674,69.1666677 52.2266656,69.3186662 52.4346667,69.412 C52.6426677,69.5053338 52.8746654,69.552 53.1306667,69.552 Z" id="Retired"></path>
            <g id="Page-1">
                <path d="M33.7768478,27.2933467 L30.0882748,27.2933467 C30.300241,28.1945835 30.4076512,29.1779239 30.4081268,30.2665814 C30.4048922,31.047945 30.3489514,31.8751649 30.2415412,32.7538541 L33.3299873,32.7538541 C33.1393319,31.3517188 33.3640465,29.3797104 33.7768478,27.2933467" id="Fill-1"></path>
                <path d="M57.2866649,27.2933467 L52.9966332,27.2933467 C53.4093393,29.3797104 53.634149,31.3517188 53.4434937,32.7538541 L57.2866649,32.7538541 C57.3962632,32.7538541 57.4870243,32.8444249 57.4870243,32.9547844 L57.4870243,44.6789493 L62.9481977,44.6789493 L62.9481977,32.9545941 C62.9462949,29.8271416 60.4142125,27.2944884 57.2866649,27.2933467" id="Fill-3"></path>
                <path d="M9.82582135,27.2933467 L5.66156131,27.2933467 C2.53353805,27.2944884 0.00136046512,29.8271416 2.85412262e-05,32.9545941 L2.85412262e-05,44.6785687 L5.46006025,44.6785687 L5.46006025,32.9545941 C5.46006025,32.8444249 5.55110677,32.753759 5.66156131,32.753759 L9.67255497,32.753759 C9.56485941,31.8761163 9.50844292,31.0490867 9.50596934,30.2691501 C9.50568393,29.1808732 9.61337949,28.1952495 9.82582135,27.2933467" id="Fill-6"></path>
                <path d="M23.4920645,29.086278 C23.4150983,28.6484556 23.3081638,28.4060455 23.2483224,28.2973985 C23.1202674,28.0819123 23.0785973,28.0437622 22.8124027,27.903815 C22.7089884,27.8544387 22.4417474,27.7472188 21.97976,27.6687304 C21.4845698,27.5825359 20.8197495,27.5385825 20.0009017,27.5385825 L19.9585655,27.5385825 L19.9073816,27.5385825 C18.9889249,27.5385825 18.2635021,27.5945233 17.7506163,27.7040264 C17.1879736,27.821426 16.9468002,27.9759292 16.8527093,28.0573668 C16.7752674,28.1263414 16.7153309,28.1879905 16.6194323,28.3905381 C16.5615888,28.5156438 16.4827199,28.7396924 16.4220222,29.0866586 C16.3698869,29.3824408 16.331166,29.7660349 16.3316416,30.2671237 C16.328407,30.794851 16.3759757,31.6033288 16.5671068,32.7543013 L23.3475507,32.7543013 C23.5382061,31.6042801 23.5857748,30.7972294 23.5826353,30.2706438 C23.5826353,29.7706015 23.5441998,29.3837727 23.4920645,29.086278" id="Fill-8"></path>
                <path d="M21.1690085,10.55074 C22.1589133,10.3203171 23.0197167,9.8285518 23.6959535,9.16553911 C24.9837336,7.90278013 25.6014609,6.01848837 25.162592,4.13343552 C24.4929197,1.25866808 21.6194841,-0.529154334 18.7450021,0.140613108 C15.8707104,0.809809725 14.0830782,3.68276956 14.7521797,6.55744186 C14.9922114,7.58787526 15.5162283,8.4777907 16.2210063,9.16553911 C17.4824334,10.3969027 19.3251501,10.9799049 21.1690085,10.55074" id="Fill-10"></path>
                <path d="M29.6220254,27.2933467 C29.4880719,26.7498266 29.310926,26.2309471 29.0861163,25.7370888 C28.823537,25.1582727 28.4887484,24.6231247 28.103537,24.1458203 C27.5958837,24.6512854 27.0230613,25.1445729 26.3829767,25.6287273 C26.077871,25.8597209 25.7629662,26.0890021 25.4266554,26.3160951 C25.0498161,26.5702072 24.6098055,26.7049218 24.1561903,26.7049218 C23.3971839,26.7049218 22.691074,26.3295095 22.2675222,25.7006512 C21.5662643,24.6608943 21.8418774,23.2441078 22.8820148,22.5423742 C23.3334419,22.2384101 23.7408203,21.9326385 24.1120465,21.6259154 C24.8975011,20.9769831 25.5062854,20.3242452 25.9202283,19.6757886 C26.1240127,19.3536533 26.2755666,19.0482622 26.3826913,18.7457252 L26.3826913,15.3814757 C26.7827442,16.0962431 27.0450381,16.8727548 27.0368562,17.6329027 C27.0357146,17.7848372 27.0247738,17.9393404 27.0047949,18.0967928 C26.9401966,18.608537 26.7597209,19.1577653 26.3826913,19.7870994 C26.3559577,19.8317188 26.3324588,19.8751015 26.303537,19.9206723 C25.9413488,20.4874059 25.4023002,21.1165497 24.6300698,21.7851755 C24.2060423,22.1525962 23.7122791,22.5319091 23.1366977,22.9195941 C22.3030085,23.4818562 22.0829556,24.6131353 22.6452178,25.4467294 C22.9967505,25.968463 23.5708097,26.2496892 24.1561903,26.2496892 C24.5063911,26.2496892 24.8601121,26.1488436 25.1721628,25.938685 C25.6037061,25.6471839 26.0062326,25.3532093 26.3829767,25.0567611 C26.9091818,24.6429133 27.3831564,24.2240233 27.8068034,23.7999006 C28.4331882,23.1728499 28.9523531,22.5341924 29.3701966,21.8824059 C30.1730613,20.6357252 30.5826279,19.3309154 30.6613066,18.0966025 C30.6711057,17.9407674 30.6774799,17.7859789 30.6770994,17.6327125 C30.6770994,16.3649112 30.3464017,15.2166025 29.8872685,14.2384947 C29.1944778,12.7684313 28.2241712,11.648093 27.4297738,10.8642558 C26.6334736,10.0829873 26.0025222,9.64173996 25.9420148,9.59949894 C25.7311903,9.45298732 25.5001966,9.35804017 25.2634947,9.31047146 C25.0433467,9.21704651 24.801222,9.16510148 24.5468245,9.16510148 L24.3211586,9.16510148 C24.2103235,9.29230021 24.0952072,9.41474207 23.9743827,9.53071459 C23.7968562,9.63631712 23.635408,9.77283932 23.4984101,9.94009091 C22.8490973,10.4408943 22.0950381,10.8019408 21.2725751,10.9932622 C20.838463,11.0944884 20.3940761,11.146148 19.9521628,11.146148 C18.2253235,11.146148 16.658315,10.3935159 15.5883044,9.16510148 L15.3673953,9.16510148 C15.1396364,9.16510148 14.9223425,9.20857928 14.7210317,9.28440381 C14.4258203,9.31503805 14.1342241,9.41816702 13.8732622,9.59921353 C13.7923953,9.65838901 12.6965074,10.4173953 11.5485793,11.7612114 C10.9757569,12.4344038 10.3873319,13.2573425 9.92705708,14.2382093 C9.46839958,15.2164123 9.13741649,16.3651015 9.13741649,17.6329027 C9.1369408,17.7859789 9.14321987,17.9409577 9.15301903,18.0967928 C9.23179281,19.33063 9.64126427,20.6355349 10.4442241,21.8825962 C10.8739598,22.553315 11.4105349,23.2094778 12.0609894,23.8533679 C12.4981459,24.2859577 12.9870571,24.7129345 13.5312431,25.1350592 C13.879351,25.4048689 14.2486744,25.6726808 14.6427336,25.9383996 C14.9546892,26.149129 15.3085053,26.2494038 15.658611,26.2498795 C16.2433256,26.2498795 16.8180507,25.9682727 17.1695835,25.4465391 C17.73137,24.6133256 17.5113171,23.4818562 16.677723,22.9198795 C16.1136533,22.540186 15.628833,22.1685793 15.2104186,21.8081987 C14.4379027,21.1429027 13.8968562,20.516518 13.5315285,19.9511163 C13.5248689,19.9408414 13.5174482,19.9303763 13.5109789,19.9201966 C13.0760106,19.2337801 12.8787907,18.6451649 12.8095307,18.0967928 C12.7895518,17.9393404 12.778611,17.7848372 12.7776596,17.6329027 C12.7772791,17.0035687 12.9408203,16.3871734 13.2229979,15.7828605 C13.3132833,15.5883996 13.4186956,15.397649 13.5312431,15.2108943 L13.5312431,18.9978393 C13.6275222,19.2185581 13.7472051,19.442797 13.895334,19.6764545 C14.3126068,20.3310951 14.9291924,20.9900169 15.7261586,21.6455137 C16.0911057,21.9453869 16.4903023,22.2447844 16.9318351,22.5421839 C17.9720677,23.2442981 18.2475856,24.6610846 17.5468034,25.7009366 C17.1229662,26.3293192 16.416666,26.7042558 15.658611,26.7042558 C15.2049958,26.7042558 14.7653658,26.5700169 14.3881459,26.3154292 C14.0887484,26.113167 13.8059049,25.9092875 13.5312431,25.7040761 C12.873463,25.2128816 12.2853235,24.7129345 11.7648266,24.2001438 C11.5063383,24.5238964 11.2710634,24.8738118 11.0696575,25.2511268 C10.7268774,25.8837907 10.4754292,26.5670677 10.2959049,27.2931564 C10.0683362,28.2137061 9.95978436,29.2044672 9.95959408,30.2667717 C9.96273362,31.0460423 10.0184841,31.8724059 10.1279873,32.753759 C10.4703869,35.5071311 11.3465074,38.808685 12.8525328,42.9847421 C13.4088964,44.5204503 15.1050063,45.3137061 16.6409049,44.7573425 C18.1770888,44.201074 18.9707252,42.5049641 18.4138858,40.9691607 C17.1516025,37.5040655 16.4349323,34.7873214 16.1036638,32.7538541 C15.9427865,31.7663277 15.8716237,30.9373953 15.8757146,30.2671522 C15.8752389,29.7916554 15.9095835,29.4047315 15.9607674,29.0863066 C16.0256512,28.6796892 16.1184101,28.3879979 16.2071734,28.1961057 C16.3298055,27.9358097 16.4298901,27.8232622 16.553759,27.713093 C16.7181564,27.5708626 17.0044249,27.4145518 17.5054186,27.2931564 L22.4055666,27.2931564 C22.66063,27.3548055 22.8688858,27.4269197 23.0231987,27.5010317 C23.3546575,27.6748478 23.4627336,27.7681776 23.6456829,28.0773742 C23.7507146,28.2677442 23.8733467,28.5878816 23.9529767,29.0863066 C24.003685,29.4034947 24.0369831,29.7920359 24.0367928,30.2671522 C24.0408837,30.9372051 23.9696258,31.7663277 23.8087484,32.7538541 C23.4774799,34.7874165 22.7608097,37.5048266 21.4984313,40.9691607 C20.9422579,42.5049641 21.7357992,44.201074 23.2716025,44.7573425 C23.6043932,44.8777865 23.9447949,44.9350592 24.2794884,44.9350592 C25.4894461,44.9350592 26.6246258,44.1876596 27.0605455,42.9847421 L27.0605455,42.9843615 C28.5667611,38.808685 29.4422156,35.5073214 29.7844249,32.753759 C29.8936427,31.8724059 29.9495835,31.0462326 29.9526279,30.2667717 C29.9526279,29.2035159 29.8491184,28.212945 29.6220254,27.2933467" id="Fill-12"></path>
                <path d="M52.5216121,34.0239482 C52.7675423,33.7336839 52.9227114,33.2979545 53.0044345,32.7538636 C53.2059355,31.4160412 52.9630497,29.419297 52.5295085,27.2933562 C52.4591068,26.9480074 52.3837579,26.5996142 52.3045085,26.249889 C52.1223203,25.4478805 51.9200581,24.6399736 51.709519,23.8533774 C51.0943605,24.6911575 50.3059567,25.4835571 49.3317495,26.249889 C49.2814218,26.2894662 49.2287156,26.3286628 49.1772463,26.3679545 C49.1428066,26.394593 49.1080814,26.4209461 49.0732611,26.4475846 C48.8033562,26.6517495 48.524889,26.8548679 48.2271089,27.0557981 C48.074889,27.1583562 47.9099207,27.2361786 47.7388636,27.2935465 C47.5347939,27.3620455 47.3209249,27.4001956 47.1026797,27.4001956 C46.8824366,27.4001956 46.6683774,27.3610941 46.4654493,27.2935465 C46.049223,27.1550264 45.682944,26.885407 45.4313055,26.5113266 C45.3744133,26.42713 45.3273203,26.3391279 45.2847939,26.2501744 C45.1816649,26.0342125 45.1182082,25.8071195 45.0965169,25.5775529 C45.0299207,24.8672569 45.3427326,24.1423097 45.9746353,23.7161892 C47.2194133,22.8780285 48.1239799,22.0245507 48.6634091,21.1792548 C48.8466438,20.8903224 48.9779334,20.6170877 49.0727854,20.3460412 C49.1383351,20.1584302 49.189519,19.9715803 49.2168235,19.7820666 L49.6236311,19.7820666 C49.5660729,20.2350159 49.4065275,20.7212632 49.0727854,21.2782928 C49.0490962,21.3175846 49.0283562,21.3558298 49.0029545,21.3961681 C48.5060518,22.1733457 47.6368763,23.0820983 46.2003013,24.0500264 C45.715481,24.377204 45.4667918,24.9218658 45.4936205,25.4663372 C45.5068446,25.7368129 45.5879968,26.0066226 45.7434514,26.2501744 C45.7509672,26.2621617 45.7572463,26.2744345 45.7654281,26.2865169 C46.0765275,26.7481237 46.5851321,26.997574 47.1025846,26.997574 C47.412352,26.997574 47.7251638,26.9081448 48.0015381,26.722056 C48.2332928,26.5654598 48.4543922,26.4080074 48.6682611,26.2501744 C48.7158298,26.2150687 48.7596882,26.1793922 48.8065909,26.1440962 C48.8965909,26.0760729 48.9864006,26.0080497 49.0729757,25.939741 C50.1411786,25.0994873 50.9632611,24.2358298 51.5712844,23.3446776 C51.619519,23.2736099 51.6712738,23.2033985 51.71713,23.1321406 C52.427426,22.0288319 52.7898044,20.8739588 52.8595402,19.7818763 C52.8683879,19.6442125 52.8738108,19.5067389 52.8736205,19.3711681 C52.8736205,18.2490222 52.5807875,17.2328594 52.1746459,16.367204 C51.5618658,15.0663901 50.7027748,14.0750581 50.000185,13.3813161 C49.2953118,12.690333 48.73676,12.2996987 48.6830074,12.2619292 C48.4964429,12.1324471 48.2918975,12.0485359 48.0825951,12.0064852 C47.9317072,11.9424577 47.7693076,11.9013584 47.5991068,11.8856607 C47.569519,11.9234302 47.5381237,11.9595825 47.5076797,11.9962104 C47.1415909,12.4350793 46.7088108,12.810777 46.225037,13.1108404 C45.3982928,13.6239165 44.4274154,13.9180814 43.3931765,13.9180814 C42.9838002,13.9180814 42.5720455,13.8701321 42.1700899,13.7768023 C41.5392336,13.629815 40.954519,13.3711364 40.4295507,13.0246459 C40.0087579,12.7468446 39.629445,12.4102484 39.2999841,12.0214218 C39.2612632,11.9759461 39.2212104,11.9318023 39.1842019,11.8848996 C39.0335994,11.8979334 38.8889905,11.9320877 38.7527537,11.9834619 C38.4915063,12.0107664 38.2334937,12.1018129 38.0026903,12.2624049 L38.0026903,12.2619292 C37.9317178,12.3140645 36.9614112,12.9859249 35.945629,14.1749524 C35.4388319,14.7704175 34.9181448,15.4991702 34.5106712,16.367204 C34.1049101,17.2323837 33.8116015,18.2490222 33.8116015,19.3711681 C33.8111258,19.5067389 33.8166438,19.6440222 33.8254915,19.7818763 C33.8951321,20.8737685 34.2575106,22.0288319 34.9682822,23.1321406 C35.0337368,23.2338425 35.1059461,23.3350687 35.1769186,23.4361047 C35.7952167,24.3188848 36.6270983,25.1741702 37.7005338,26.0066226 C37.8050899,26.0876797 37.9087896,26.1691173 38.0181025,26.249889 C38.0401744,26.2660624 38.0608192,26.2826163 38.0828911,26.2987896 C38.2765909,26.4403541 38.4762844,26.5811575 38.6842548,26.7212949 C38.9597727,26.9074789 39.2730603,26.996908 39.5828277,26.996908 C40.1002801,26.996908 40.6088848,26.7479334 40.9199841,26.285851 C40.9279757,26.2740539 40.9342548,26.2619715 40.9416755,26.249889 C41.1069292,25.9905444 41.1893182,25.7015169 41.1938848,25.4137262 C41.2027326,24.8872357 40.9543288,24.3667389 40.4849207,24.0502167 C39.0647093,23.0937051 38.1992442,22.1942759 37.7005338,21.4229968 C37.6945402,21.4138636 37.6878805,21.4045402 37.6822674,21.395407 C37.2975317,20.7879545 37.1228594,20.2668869 37.0613055,19.7818763 L37.4679228,19.7818763 C37.5061681,20.0466438 37.5853224,20.3067495 37.7002484,20.572278 C37.7859672,20.7701638 37.8894767,20.9706184 38.0223837,21.1800159 C38.560481,22.0243605 39.4654281,22.8780285 40.7097304,23.7159989 C41.3049101,24.1179545 41.614963,24.7839165 41.5939376,25.4533985 C41.585185,25.7243499 41.5214429,25.9953013 41.4000476,26.249889 C41.3577114,26.3391279 41.3105233,26.4269397 41.2537262,26.5111364 C41.0018023,26.885407 40.6351427,27.154741 40.2185359,27.2933562 C40.0157981,27.3606184 39.8023097,27.3996247 39.5827326,27.3996247 C39.3647727,27.3996247 39.1513795,27.3613795 38.9475,27.2933562 C38.7760624,27.2359884 38.6109989,27.158166 38.4585888,27.0555127 C38.2048573,26.8842653 37.9643499,26.7113055 37.7309778,26.5379651 C37.7205127,26.5301638 37.7109038,26.5224577 37.7004387,26.5144662 C37.5825634,26.4264641 37.4669715,26.3386522 37.3543288,26.249889 C36.4126586,25.5092442 35.6477537,24.7439588 35.0419186,23.937574 C34.8395613,24.6975317 34.644815,25.4763266 34.4691913,26.249889 C34.3897516,26.5996142 34.3144027,26.9480074 34.2441913,27.2933562 C33.8106501,29.419297 33.5676691,31.4160412 33.7693605,32.7538636 C33.8509884,33.2979545 34.0061575,33.7336839 34.2520877,34.0239482 C34.4255233,34.2284937 34.6782082,34.4255233 34.9958721,34.612944 C35.0106184,34.7915169 35.0284091,34.972944 35.0489588,35.1579863 C35.2916543,37.3305444 35.9307875,39.9355021 37.1011681,43.1727431 C37.4870455,44.2365698 38.4913161,44.8980603 39.5613266,44.8980603 C39.8573943,44.8980603 40.1584091,44.847352 40.4530497,44.7405127 C41.8113266,44.2478911 42.5135359,42.7473837 42.0209144,41.3889165 C41.3486734,39.5400159 40.8973414,37.9738636 40.6070772,36.6606818 C40.5715909,36.5002801 40.5382928,36.3438742 40.5078488,36.1910835 C41.4381977,36.3252273 42.4109778,36.4234091 43.3869926,36.4783985 C44.4972463,36.4161786 45.6035042,36.2977326 46.647352,36.1335254 C46.616908,36.2867918 46.584371,36.4436734 46.5490751,36.604741 C46.2594767,37.9294345 45.8046247,39.5142336 45.1231554,41.389297 C44.6311047,42.7481448 45.3334091,44.2486522 46.6922569,44.7411786 C46.9861364,44.8477326 47.2869609,44.8982505 47.5827431,44.8982505 C48.6530391,44.8982505 49.6578805,44.2363795 50.0433774,43.1721723 C51.2529545,39.82324 51.8938002,37.1527326 52.1168023,34.9359355 C52.1365909,34.7384302 52.1534302,34.5438742 52.1668446,34.3535994 C52.3067918,34.2458087 52.4264746,34.1362104 52.5216121,34.0239482" id="Fill-14"></path>
                <path d="M44.6071871,3.31207611 C45.1451892,3.43746723 45.6456121,3.64020507 46.0993224,3.9054482 C45.9936247,2.49865116 44.821722,1.38953911 43.3882865,1.38953911 C41.956278,1.38953911 40.7852315,2.49636786 40.6776311,3.90116702 C41.4765,3.43537421 42.4018066,3.17060677 43.3841004,3.17060677 C43.7935719,3.17079704 44.2049461,3.21789006 44.6071871,3.31207611" id="Fill-16"></path>
                <path d="M42.2732569,13.333833 C44.0584154,13.7494884 45.8420518,13.1342347 47.0028235,11.8781353 C47.5620412,11.272871 47.9775063,10.5195729 48.1777706,9.65972093 C48.6582146,7.59571459 47.7622104,5.53265962 46.0887431,4.43334672 C45.6175275,4.12386469 45.0848531,3.89039746 44.5033732,3.75530233 C43.138056,3.4374482 41.7737854,3.7229556 40.6876966,4.43648626 C39.6700116,5.10492178 38.8968298,6.14924524 38.5987643,7.42893869 C38.2148848,9.07548203 38.7081723,10.7214545 39.77276,11.8781353 C40.4189334,12.5795835 41.2746945,13.1015074 42.2732569,13.333833" id="Fill-18"></path>
            </g>
        </g>
    </g>
</svg>