<?xml version="1.0" encoding="UTF-8" standalone="no"?>
<svg width="60px" height="75px" viewBox="0 0 61 87" version="1.1" xmlns="http://www.w3.org/2000/svg" xmlns:xlink="http://www.w3.org/1999/xlink">
    <!-- Generator: Sketch 48.2 (47327) - http://www.bohemiancoding.com/sketch -->
    <title>Salaried_Red</title>
    <desc>Created with Sketch.</desc>
    <defs></defs>
    <g id="Page3-Copy" stroke="none" stroke-width="1" fill="none" fill-rule="evenodd" transform="translate(-114.000000, -154.000000)">
        <g id="Salaried_Red" transform="translate(114.000000, 154.000000)" fill="#D0021B">
            <path d="M8.76,76.536 C8.70133304,76.6533339 8.63333372,76.7359998 8.556,76.784 C8.47866628,76.8320002 8.3866672,76.856 8.28,76.856 C8.1733328,76.856 8.053334,76.8146671 7.92,76.732 C7.786666,76.6493329 7.62933424,76.5573338 7.448,76.456 C7.26666576,76.3546662 7.05466788,76.2626671 6.812,76.18 C6.56933212,76.0973329 6.28266832,76.056 5.952,76.056 C5.65333184,76.056 5.39333444,76.0919996 5.172,76.164 C4.95066556,76.2360004 4.76400076,76.3359994 4.612,76.464 C4.45999924,76.5920006 4.34666704,76.7453324 4.272,76.924 C4.19733296,77.1026676 4.16,77.2986656 4.16,77.512 C4.16,77.7840014 4.23599924,78.0106658 4.388,78.192 C4.54000076,78.3733342 4.74133208,78.5279994 4.992,78.656 C5.24266792,78.7840006 5.5279984,78.8986662 5.848,79 C6.1680016,79.1013338 6.494665,79.2093328 6.828,79.324 C7.161335,79.4386672 7.4879984,79.5719992 7.808,79.724 C8.1280016,79.8760008 8.41333208,80.0679988 8.664,80.3 C8.91466792,80.5320012 9.11599924,80.8159983 9.268,81.152 C9.42000076,81.4880017 9.496,81.8959976 9.496,82.376 C9.496,82.8986693 9.40666756,83.3879977 9.228,83.844 C9.04933244,84.3000023 8.78800172,84.6973316 8.444,85.036 C8.09999828,85.3746684 7.68000248,85.6413324 7.184,85.836 C6.68799752,86.0306676 6.1200032,86.128 5.48,86.128 C5.11199816,86.128 4.74933512,86.0920004 4.392,86.02 C4.03466488,85.9479996 3.69200164,85.845334 3.364,85.712 C3.03599836,85.578666 2.72933476,85.4186676 2.444,85.232 C2.15866524,85.0453324 1.90400112,84.8373345 1.68,84.608 L2.304,83.576 C2.36266696,83.501333 2.43333292,83.4386669 2.516,83.388 C2.59866708,83.3373331 2.69066616,83.312 2.792,83.312 C2.925334,83.312 3.06933256,83.3666661 3.224,83.476 C3.37866744,83.5853339 3.56133228,83.706666 3.772,83.84 C3.98266772,83.973334 4.23066524,84.0946661 4.516,84.204 C4.80133476,84.3133339 5.143998,84.368 5.544,84.368 C6.1573364,84.368 6.63199832,84.2226681 6.968,83.932 C7.30400168,83.6413319 7.472,83.2240027 7.472,82.68 C7.472,82.3759985 7.39600076,82.128001 7.244,81.936 C7.09199924,81.743999 6.89066792,81.5826673 6.64,81.452 C6.38933208,81.3213327 6.1040016,81.2106671 5.784,81.12 C5.4639984,81.0293329 5.13866832,80.9306672 4.808,80.824 C4.47733168,80.7173328 4.1520016,80.5893341 3.832,80.44 C3.5119984,80.2906659 3.22666792,80.0960012 2.976,79.856 C2.72533208,79.6159988 2.52400076,79.3160018 2.372,78.956 C2.21999924,78.5959982 2.144,78.1520026 2.144,77.624 C2.144,77.2026646 2.22799916,76.792002 2.396,76.392 C2.56400084,75.991998 2.80933172,75.6373349 3.132,75.328 C3.45466828,75.0186651 3.85066432,74.7706676 4.32,74.584 C4.78933568,74.3973324 5.32533032,74.304 5.928,74.304 C6.61067008,74.304 7.23999712,74.4106656 7.816,74.624 C8.39200288,74.8373344 8.88266464,75.1359981 9.288,75.52 L8.76,76.536 Z M17.464,86 L16.576,86 C16.3893324,86 16.2426672,85.9720003 16.136,85.916 C16.0293328,85.8599997 15.9493336,85.7466675 15.896,85.576 L15.72,84.992 C15.511999,85.1786676 15.308001,85.342666 15.108,85.484 C14.907999,85.625334 14.7013344,85.7439995 14.488,85.84 C14.2746656,85.9360005 14.0480012,86.0079998 13.808,86.056 C13.5679988,86.1040002 13.3013348,86.128 13.008,86.128 C12.6613316,86.128 12.3413348,86.0813338 12.048,85.988 C11.7546652,85.8946662 11.5026677,85.7546676 11.292,85.568 C11.0813323,85.3813324 10.9173339,85.1493347 10.8,84.872 C10.6826661,84.5946653 10.624,84.2720018 10.624,83.904 C10.624,83.5946651 10.7053325,83.2893348 10.868,82.988 C11.0306675,82.6866652 11.3013314,82.4146679 11.68,82.172 C12.0586686,81.9293321 12.5626635,81.7280008 13.192,81.568 C13.8213365,81.4079992 14.602662,81.3173334 15.536,81.296 L15.536,80.816 C15.536,80.2666639 15.4200012,79.8600013 15.188,79.596 C14.9559988,79.3319987 14.6186689,79.2 14.176,79.2 C13.8559984,79.2 13.5893344,79.237333 13.376,79.312 C13.1626656,79.386667 12.9773341,79.4706662 12.82,79.564 C12.6626659,79.6573338 12.517334,79.741333 12.384,79.816 C12.250666,79.890667 12.1040008,79.928 11.944,79.928 C11.810666,79.928 11.6960005,79.8933337 11.6,79.824 C11.5039995,79.7546663 11.426667,79.6693338 11.368,79.568 L11.008,78.936 C11.9520047,78.0719957 13.09066,77.64 14.424,77.64 C14.9040024,77.64 15.3319981,77.7186659 15.708,77.876 C16.0840019,78.0333341 16.4026654,78.2519986 16.664,78.532 C16.9253346,78.8120014 17.1239993,79.1466647 17.26,79.536 C17.3960007,79.9253353 17.464,80.3519977 17.464,80.816 L17.464,86 Z M13.624,84.768 C13.8266677,84.768 14.0133325,84.7493335 14.184,84.712 C14.3546675,84.6746665 14.5159992,84.618667 14.668,84.544 C14.8200008,84.469333 14.966666,84.3773339 15.108,84.268 C15.249334,84.1586661 15.3919993,84.0293341 15.536,83.88 L15.536,82.496 C14.9599971,82.5226668 14.4786686,82.5719996 14.092,82.644 C13.7053314,82.7160004 13.3946678,82.8079994 13.16,82.92 C12.9253322,83.0320006 12.7586672,83.1626659 12.66,83.312 C12.5613328,83.4613341 12.512,83.6239991 12.512,83.8 C12.512,84.1466684 12.6146656,84.3946659 12.82,84.544 C13.0253344,84.6933341 13.2933317,84.768 13.624,84.768 Z M21.512,74.112 L21.512,86 L19.536,86 L19.536,74.112 L21.512,74.112 Z M30.176,86 L29.288,86 C29.1013324,86 28.9546672,85.9720003 28.848,85.916 C28.7413328,85.8599997 28.6613336,85.7466675 28.608,85.576 L28.432,84.992 C28.223999,85.1786676 28.020001,85.342666 27.82,85.484 C27.619999,85.625334 27.4133344,85.7439995 27.2,85.84 C26.9866656,85.9360005 26.7600012,86.0079998 26.52,86.056 C26.2799988,86.1040002 26.0133348,86.128 25.72,86.128 C25.3733316,86.128 25.0533348,86.0813338 24.76,85.988 C24.4666652,85.8946662 24.2146677,85.7546676 24.004,85.568 C23.7933323,85.3813324 23.6293339,85.1493347 23.512,84.872 C23.3946661,84.5946653 23.336,84.2720018 23.336,83.904 C23.336,83.5946651 23.4173325,83.2893348 23.58,82.988 C23.7426675,82.6866652 24.0133314,82.4146679 24.392,82.172 C24.7706686,81.9293321 25.2746635,81.7280008 25.904,81.568 C26.5333365,81.4079992 27.314662,81.3173334 28.248,81.296 L28.248,80.816 C28.248,80.2666639 28.1320012,79.8600013 27.9,79.596 C27.6679988,79.3319987 27.3306689,79.2 26.888,79.2 C26.5679984,79.2 26.3013344,79.237333 26.088,79.312 C25.8746656,79.386667 25.6893341,79.4706662 25.532,79.564 C25.3746659,79.6573338 25.229334,79.741333 25.096,79.816 C24.962666,79.890667 24.8160008,79.928 24.656,79.928 C24.522666,79.928 24.4080005,79.8933337 24.312,79.824 C24.2159995,79.7546663 24.138667,79.6693338 24.08,79.568 L23.72,78.936 C24.6640047,78.0719957 25.80266,77.64 27.136,77.64 C27.6160024,77.64 28.0439981,77.7186659 28.42,77.876 C28.7960019,78.0333341 29.1146654,78.2519986 29.376,78.532 C29.6373346,78.8120014 29.8359993,79.1466647 29.972,79.536 C30.1080007,79.9253353 30.176,80.3519977 30.176,80.816 L30.176,86 Z M26.336,84.768 C26.5386677,84.768 26.7253325,84.7493335 26.896,84.712 C27.0666675,84.6746665 27.2279992,84.618667 27.38,84.544 C27.5320008,84.469333 27.678666,84.3773339 27.82,84.268 C27.961334,84.1586661 28.1039993,84.0293341 28.248,83.88 L28.248,82.496 C27.6719971,82.5226668 27.1906686,82.5719996 26.804,82.644 C26.4173314,82.7160004 26.1066678,82.8079994 25.872,82.92 C25.6373322,83.0320006 25.4706672,83.1626659 25.372,83.312 C25.2733328,83.4613341 25.224,83.6239991 25.224,83.8 C25.224,84.1466684 25.3266656,84.3946659 25.532,84.544 C25.7373344,84.6933341 26.0053317,84.768 26.336,84.768 Z M32.12,86 L32.12,77.792 L33.28,77.792 C33.4826677,77.792 33.6239996,77.829333 33.704,77.904 C33.7840004,77.978667 33.8373332,78.1066658 33.864,78.288 L33.984,79.28 C34.2773348,78.7733308 34.6213314,78.3733348 35.016,78.08 C35.4106686,77.7866652 35.8533309,77.64 36.344,77.64 C36.7493354,77.64 37.085332,77.7333324 37.352,77.92 L37.096,79.4 C37.0799999,79.4960005 37.0453336,79.5639998 36.992,79.604 C36.9386664,79.6440002 36.8666671,79.664 36.776,79.664 C36.6959996,79.664 36.5866674,79.6453335 36.448,79.608 C36.3093326,79.5706665 36.1253345,79.552 35.896,79.552 C35.4853313,79.552 35.1333348,79.6653322 34.84,79.892 C34.5466652,80.1186678 34.2986677,80.4506645 34.096,80.888 L34.096,86 L32.12,86 Z M40.76,77.792 L40.76,86 L38.784,86 L38.784,77.792 L40.76,77.792 Z M41.056,75.4 C41.056,75.5706675 41.0213337,75.7306659 40.952,75.88 C40.8826663,76.0293341 40.7906672,76.1599994 40.676,76.272 C40.5613328,76.3840006 40.4266674,76.473333 40.272,76.54 C40.1173326,76.606667 39.9520009,76.64 39.776,76.64 C39.6053325,76.64 39.4440008,76.606667 39.292,76.54 C39.1399992,76.473333 39.0080006,76.3840006 38.896,76.272 C38.7839994,76.1599994 38.694667,76.0293341 38.628,75.88 C38.561333,75.7306659 38.528,75.5706675 38.528,75.4 C38.528,75.2239991 38.561333,75.0586674 38.628,74.904 C38.694667,74.7493326 38.7839994,74.6160006 38.896,74.504 C39.0080006,74.3919994 39.1399992,74.302667 39.292,74.236 C39.4440008,74.169333 39.6053325,74.136 39.776,74.136 C39.9520009,74.136 40.1173326,74.169333 40.272,74.236 C40.4266674,74.302667 40.5613328,74.3919994 40.676,74.504 C40.7906672,74.6160006 40.8826663,74.7493326 40.952,74.904 C41.0213337,75.0586674 41.056,75.2239991 41.056,75.4 Z M46.384,77.664 C46.9013359,77.664 47.3773312,77.7466658 47.812,77.912 C48.2466688,78.0773342 48.6213318,78.3186651 48.936,78.636 C49.2506682,78.9533349 49.4959991,79.3426644 49.672,79.804 C49.8480009,80.2653356 49.936,80.791997 49.936,81.384 C49.936,81.5333341 49.9293334,81.6573328 49.916,81.756 C49.9026666,81.8546672 49.8786668,81.9319997 49.844,81.988 C49.8093332,82.0440003 49.762667,82.0839999 49.704,82.108 C49.645333,82.1320001 49.5706671,82.144 49.48,82.144 L44.408,82.144 C44.466667,82.9866709 44.6933314,83.6053314 45.088,84 C45.4826686,84.3946686 46.0053301,84.592 46.656,84.592 C46.9760016,84.592 47.2519988,84.554667 47.484,84.48 C47.7160012,84.405333 47.9186658,84.3226671 48.092,84.232 C48.2653342,84.1413329 48.4173327,84.058667 48.548,83.984 C48.6786673,83.909333 48.8053327,83.872 48.928,83.872 C49.0080004,83.872 49.077333,83.8879998 49.136,83.92 C49.194667,83.9520002 49.2453331,83.997333 49.288,84.056 L49.864,84.776 C49.6453322,85.0320013 49.4000014,85.2466658 49.128,85.42 C48.8559986,85.5933342 48.5720015,85.7319995 48.276,85.836 C47.9799985,85.9400005 47.6786682,86.0133331 47.372,86.056 C47.0653318,86.0986669 46.7680014,86.12 46.48,86.12 C45.9093305,86.12 45.3786691,86.0253343 44.888,85.836 C44.3973309,85.6466657 43.9706685,85.3666685 43.608,84.996 C43.2453315,84.6253315 42.960001,84.1666694 42.752,83.62 C42.543999,83.0733306 42.44,82.4400036 42.44,81.72 C42.44,81.1599972 42.5306658,80.6333358 42.712,80.14 C42.8933342,79.6466642 43.1533316,79.2173352 43.492,78.852 C43.8306684,78.4866648 44.2439976,78.1973344 44.732,77.984 C45.2200024,77.7706656 45.7706636,77.664 46.384,77.664 Z M46.424,79.08 C45.8479971,79.08 45.397335,79.242665 45.072,79.568 C44.746665,79.893335 44.5386671,80.3546637 44.448,80.952 L48.16,80.952 C48.16,80.6959987 48.1253337,80.4546678 48.056,80.228 C47.9866663,80.0013322 47.8800007,79.8026675 47.736,79.632 C47.5919993,79.4613325 47.4106678,79.3266672 47.192,79.228 C46.9733322,79.1293328 46.7173348,79.08 46.424,79.08 Z M57.32,86 C57.0639987,86 56.8960004,85.8800012 56.816,85.64 L56.656,84.848 C56.4853325,85.040001 56.3066676,85.2133326 56.12,85.368 C55.9333324,85.5226674 55.7320011,85.6559994 55.516,85.768 C55.2999989,85.8800006 55.0680012,85.9666664 54.82,86.028 C54.5719988,86.0893336 54.3040014,86.12 54.016,86.12 C53.5679978,86.12 53.1573352,86.0266676 52.784,85.84 C52.4106648,85.6533324 52.0893347,85.3826684 51.82,85.028 C51.5506653,84.6733316 51.3426674,84.2346693 51.196,83.712 C51.0493326,83.1893307 50.976,82.5920034 50.976,81.92 C50.976,81.311997 51.0586658,80.7466693 51.224,80.224 C51.3893342,79.7013307 51.6266651,79.2480019 51.936,78.864 C52.2453349,78.4799981 52.6159978,78.1800011 53.048,77.964 C53.4800022,77.7479989 53.9653306,77.64 54.504,77.64 C54.962669,77.64 55.354665,77.7133326 55.68,77.86 C56.005335,78.0066674 56.2959987,78.2026654 56.552,78.448 L56.552,74.112 L58.528,74.112 L58.528,86 L57.32,86 Z M54.688,84.552 C55.0986687,84.552 55.4479986,84.4666675 55.736,84.296 C56.0240014,84.1253325 56.2959987,83.8826682 56.552,83.568 L56.552,79.888 C56.3279989,79.6159986 56.0840013,79.4240006 55.82,79.312 C55.5559987,79.1999994 55.2720015,79.144 54.968,79.144 C54.6693318,79.144 54.3986679,79.1999994 54.156,79.312 C53.9133321,79.4240006 53.7080008,79.5933322 53.54,79.82 C53.3719992,80.0466678 53.2426671,80.3346649 53.152,80.684 C53.0613329,81.0333351 53.016,81.445331 53.016,81.92 C53.016,82.4000024 53.0546663,82.806665 53.132,83.14 C53.2093337,83.473335 53.3199993,83.7453323 53.464,83.956 C53.6080007,84.1666677 53.783999,84.3186662 53.992,84.412 C54.200001,84.5053338 54.4319987,84.552 54.688,84.552 Z" id="Salaried"></path>
            <g id="Group">
                <path d="M38.5927156,1.37614679e-05 C43.6408349,1.37614679e-05 47.7330826,4.09226147 47.7330826,9.14038073 C47.7330826,14.1885 43.6408349,18.2807477 38.5927156,18.2807477 C33.5445963,18.2807477 29.4523486,14.1885 29.4523486,9.14038073 C29.4523486,4.09226147 33.5445963,1.37614679e-05 38.5927156,1.37614679e-05" id="Fill-1"></path>
                <path d="M19.2964266,45.7019174 L19.2964266,48.7485688 L13.2028486,48.7485688 L13.2028486,45.7019174 L2.03128899,45.7019174 L2.03128899,55.8577431 C2.03128899,58.092055 3.85936239,59.9199908 6.09367431,59.9199908 L26.4056009,59.9199908 C28.6399128,59.9199908 30.4679862,58.092055 30.4679862,55.8577431 L30.4679862,45.7019174 L19.2964266,45.7019174 Z" id="Fill-3"></path>
                <polygon id="Fill-5" points="15.233945 46.7174312 17.2652752 46.7174312 17.2652752 42.6550459 15.233945 42.6550459"></polygon>
                <path d="M12.1872248,31.4834587 C12.1872248,30.3663028 13.1012615,29.4522661 14.2184174,29.4522661 L18.2806651,29.4522661 C19.3979587,29.4522661 20.3119954,30.3663028 20.3119954,31.4834587 L12.1872248,31.4834587 Z M28.4367661,31.4834587 L22.3431881,31.4834587 C22.3431881,29.2491468 20.5151147,27.4210734 18.2806651,27.4210734 L14.2184174,27.4210734 C11.9839679,27.4210734 10.1560321,29.2491468 10.1560321,31.4834587 L4.06245413,31.4834587 C1.8281422,31.4834587 -6.88073396e-05,33.3115321 -6.88073396e-05,35.545844 L-6.88073396e-05,43.6704771 L13.2028211,43.6704771 L13.2028211,40.6238257 L19.2963991,40.6238257 L19.2963991,43.6704771 L32.4991514,43.6704771 L32.4991514,35.545844 C32.4991514,33.3115321 30.671078,31.4834587 28.4367661,31.4834587 Z" id="Fill-7"></path>
                <path d="M60.5296239,50.5767661 L57.2797156,27.4210321 C57.0764587,25.5930963 55.6546239,24.2726835 53.8266881,23.9681422 L43.6705872,22.3430505 L38.5927431,25.0210321 L33.5147615,22.3430505 L23.2571009,23.866445 C22.0385229,24.0695642 21.0229266,24.7804817 20.4134312,25.796078 C22.0385229,26.4054358 23.3587982,27.725711 23.9680183,29.4523624 L28.4367798,29.4523624 C31.7882477,29.4523624 34.5302202,32.1943349 34.5302202,35.5458028 L34.5302202,45.7019037 L32.4991651,45.7019037 L32.4991651,55.8577294 C32.4991651,56.3653899 32.3974679,56.9750229 32.2960459,57.4828211 C39.2021009,58.2952982 45.7019174,57.9904817 51.9986147,56.5686468 L53.8266881,38.5927294 L54.7407248,55.959289 C55.7561835,55.6544725 56.7719174,55.3500688 57.8890734,55.0452523 C59.6155872,54.3343349 60.7327431,52.5062615 60.5296239,50.5767661" id="Fill-8"></path>
            </g>
        </g>
    </g>
</svg>