<?xml version="1.0" encoding="UTF-8" standalone="no"?>
<svg width="75px" height="75px" viewBox="0 0 75 108" version="1.1" xmlns="http://www.w3.org/2000/svg" xmlns:xlink="http://www.w3.org/1999/xlink">
    <!-- Generator: Sketch 48.2 (47327) - http://www.bohemiancoding.com/sketch -->
    <title>Single_Working</title>
    <desc>Created with Sketch.</desc>
    <defs></defs>
    <g id="Page2-Copy-2" stroke="none" stroke-width="1" fill="none" fill-rule="evenodd" transform="translate(-118.000000, -455.000000)">
        <g id="Single_Working" transform="translate(118.000000, 455.000000)">
            <path d="M7.444,76.536 C7.38533304,76.6533339 7.31733372,76.7359998 7.24,76.784 C7.16266628,76.8320002 7.0706672,76.856 6.964,76.856 C6.8573328,76.856 6.737334,76.8146671 6.604,76.732 C6.470666,76.6493329 6.31333424,76.5573338 6.132,76.456 C5.95066576,76.3546662 5.73866788,76.2626671 5.496,76.18 C5.25333212,76.0973329 4.96666832,76.056 4.636,76.056 C4.33733184,76.056 4.07733444,76.0919996 3.856,76.164 C3.63466556,76.2360004 3.44800076,76.3359994 3.296,76.464 C3.14399924,76.5920006 3.03066704,76.7453324 2.956,76.924 C2.88133296,77.1026676 2.844,77.2986656 2.844,77.512 C2.844,77.7840014 2.91999924,78.0106658 3.072,78.192 C3.22400076,78.3733342 3.42533208,78.5279994 3.676,78.656 C3.92666792,78.7840006 4.2119984,78.8986662 4.532,79 C4.8520016,79.1013338 5.178665,79.2093328 5.512,79.324 C5.845335,79.4386672 6.1719984,79.5719992 6.492,79.724 C6.8120016,79.8760008 7.09733208,80.0679988 7.348,80.3 C7.59866792,80.5320012 7.79999924,80.8159983 7.952,81.152 C8.10400076,81.4880017 8.18,81.8959976 8.18,82.376 C8.18,82.8986693 8.09066756,83.3879977 7.912,83.844 C7.73333244,84.3000023 7.47200172,84.6973316 7.128,85.036 C6.78399828,85.3746684 6.36400248,85.6413324 5.868,85.836 C5.37199752,86.0306676 4.8040032,86.128 4.164,86.128 C3.79599816,86.128 3.43333512,86.0920004 3.076,86.02 C2.71866488,85.9479996 2.37600164,85.845334 2.048,85.712 C1.71999836,85.578666 1.41333476,85.4186676 1.128,85.232 C0.84266524,85.0453324 0.58800112,84.8373345 0.364,84.608 L0.988,83.576 C1.04666696,83.501333 1.11733292,83.4386669 1.2,83.388 C1.28266708,83.3373331 1.37466616,83.312 1.476,83.312 C1.609334,83.312 1.75333256,83.3666661 1.908,83.476 C2.06266744,83.5853339 2.24533228,83.706666 2.456,83.84 C2.66666772,83.973334 2.91466524,84.0946661 3.2,84.204 C3.48533476,84.3133339 3.827998,84.368 4.228,84.368 C4.8413364,84.368 5.31599832,84.2226681 5.652,83.932 C5.98800168,83.6413319 6.156,83.2240027 6.156,82.68 C6.156,82.3759985 6.08000076,82.128001 5.928,81.936 C5.77599924,81.743999 5.57466792,81.5826673 5.324,81.452 C5.07333208,81.3213327 4.7880016,81.2106671 4.468,81.12 C4.1479984,81.0293329 3.82266832,80.9306672 3.492,80.824 C3.16133168,80.7173328 2.8360016,80.5893341 2.516,80.44 C2.1959984,80.2906659 1.91066792,80.0960012 1.66,79.856 C1.40933208,79.6159988 1.20800076,79.3160018 1.056,78.956 C0.90399924,78.5959982 0.828,78.1520026 0.828,77.624 C0.828,77.2026646 0.91199916,76.792002 1.08,76.392 C1.24800084,75.991998 1.49333172,75.6373349 1.816,75.328 C2.13866828,75.0186651 2.53466432,74.7706676 3.004,74.584 C3.47333568,74.3973324 4.00933032,74.304 4.612,74.304 C5.29467008,74.304 5.92399712,74.4106656 6.5,74.624 C7.07600288,74.8373344 7.56666464,75.1359981 7.972,75.52 L7.444,76.536 Z M11.82,77.792 L11.82,86 L9.844,86 L9.844,77.792 L11.82,77.792 Z M12.116,75.4 C12.116,75.5706675 12.0813337,75.7306659 12.012,75.88 C11.9426663,76.0293341 11.8506672,76.1599994 11.736,76.272 C11.6213328,76.3840006 11.4866674,76.473333 11.332,76.54 C11.1773326,76.606667 11.0120009,76.64 10.836,76.64 C10.6653325,76.64 10.5040008,76.606667 10.352,76.54 C10.1999992,76.473333 10.0680006,76.3840006 9.956,76.272 C9.84399944,76.1599994 9.754667,76.0293341 9.688,75.88 C9.621333,75.7306659 9.588,75.5706675 9.588,75.4 C9.588,75.2239991 9.621333,75.0586674 9.688,74.904 C9.754667,74.7493326 9.84399944,74.6160006 9.956,74.504 C10.0680006,74.3919994 10.1999992,74.302667 10.352,74.236 C10.5040008,74.169333 10.6653325,74.136 10.836,74.136 C11.0120009,74.136 11.1773326,74.169333 11.332,74.236 C11.4866674,74.302667 11.6213328,74.3919994 11.736,74.504 C11.8506672,74.6160006 11.9426663,74.7493326 12.012,74.904 C12.0813337,75.0586674 12.116,75.2239991 12.116,75.4 Z M14.052,86 L14.052,77.792 L15.26,77.792 C15.5160013,77.792 15.6839996,77.9119988 15.764,78.152 L15.9,78.8 C16.0653342,78.6293325 16.2399991,78.4746674 16.424,78.336 C16.6080009,78.1973326 16.8026656,78.0773338 17.008,77.976 C17.2133344,77.8746662 17.4333322,77.7973336 17.668,77.744 C17.9026678,77.6906664 18.1586653,77.664 18.436,77.664 C18.8840022,77.664 19.2813316,77.7399992 19.628,77.892 C19.9746684,78.0440008 20.2639988,78.257332 20.496,78.532 C20.7280012,78.806668 20.9039994,79.1346648 21.024,79.516 C21.1440006,79.8973352 21.204,80.317331 21.204,80.776 L21.204,86 L19.228,86 L19.228,80.776 C19.228,80.2746642 19.1120012,79.886668 18.88,79.612 C18.6479988,79.337332 18.3000023,79.2 17.836,79.2 C17.494665,79.2 17.1746682,79.2773326 16.876,79.432 C16.5773318,79.5866674 16.294668,79.797332 16.028,80.064 L16.028,86 L14.052,86 Z M25.988,77.648 C26.3400018,77.648 26.6706651,77.6839996 26.98,77.756 C27.2893349,77.8280004 27.5719987,77.9333326 27.828,78.072 L30.188,78.072 L30.188,78.808 C30.188,78.9306673 30.1560003,79.0266663 30.092,79.096 C30.0279997,79.1653337 29.9186674,79.2133332 29.764,79.24 L29.028,79.376 C29.0813336,79.5146674 29.1226665,79.6613326 29.152,79.816 C29.1813335,79.9706674 29.196,80.1333325 29.196,80.304 C29.196,80.7093354 29.1146675,81.0759984 28.952,81.404 C28.7893325,81.7320016 28.5653348,82.0106655 28.28,82.24 C27.9946652,82.4693345 27.656002,82.646666 27.264,82.772 C26.871998,82.897334 26.446669,82.96 25.988,82.96 C25.6786651,82.96 25.3773348,82.930667 25.084,82.872 C24.8279987,83.0266674 24.7,83.199999 24.7,83.392 C24.7,83.5573342 24.7759992,83.6786663 24.928,83.756 C25.0800008,83.8333337 25.2799988,83.8879998 25.528,83.92 C25.7760012,83.9520002 26.0573318,83.972 26.372,83.98 C26.6866682,83.988 27.0093317,84.0053332 27.34,84.032 C27.6706683,84.0586668 27.9933318,84.105333 28.308,84.172 C28.6226682,84.238667 28.9039988,84.3439993 29.152,84.488 C29.4000012,84.6320007 29.5999992,84.8279988 29.752,85.076 C29.9040008,85.3240012 29.98,85.6426647 29.98,86.032 C29.98,86.3946685 29.8906676,86.746665 29.712,87.088 C29.5333324,87.429335 29.2746684,87.733332 28.936,88 C28.5973316,88.266668 28.1826691,88.4813325 27.692,88.644 C27.2013309,88.8066675 26.6413365,88.888 26.012,88.888 C25.3879969,88.888 24.846669,88.8280006 24.388,88.708 C23.929331,88.5879994 23.5493348,88.428001 23.248,88.228 C22.9466652,88.027999 22.7213341,87.7973346 22.572,87.536 C22.4226659,87.2746654 22.348,87.0026681 22.348,86.72 C22.348,86.3359981 22.4653322,86.0133346 22.7,85.752 C22.9346678,85.4906654 23.2599979,85.2826674 23.676,85.128 C23.4733323,85.0159994 23.3106673,84.8666676 23.188,84.68 C23.0653327,84.4933324 23.004,84.2506682 23.004,83.952 C23.004,83.8293327 23.0253331,83.7026673 23.068,83.572 C23.1106669,83.4413327 23.1759996,83.3120006 23.264,83.184 C23.3520004,83.0559994 23.462666,82.9346672 23.596,82.82 C23.729334,82.7053328 23.8866658,82.6026671 24.068,82.512 C23.6519979,82.2879989 23.3253345,81.9893352 23.088,81.616 C22.8506655,81.2426648 22.732,80.8053358 22.732,80.304 C22.732,79.8986646 22.8133325,79.5320016 22.976,79.204 C23.1386675,78.8759984 23.3653319,78.5960012 23.656,78.364 C23.9466681,78.1319988 24.2906647,77.9546673 24.688,77.832 C25.0853353,77.7093327 25.5186643,77.648 25.988,77.648 Z M28.156,86.368 C28.156,86.2079992 28.1080005,86.0773338 28.012,85.976 C27.9159995,85.8746662 27.7853342,85.7960003 27.62,85.74 C27.4546658,85.6839997 27.2613344,85.6426668 27.04,85.616 C26.8186656,85.5893332 26.5840012,85.5693334 26.336,85.556 C26.0879988,85.5426666 25.8320013,85.5293334 25.568,85.516 C25.3039987,85.5026666 25.0493346,85.4800002 24.804,85.448 C24.5799989,85.5706673 24.4000007,85.7159992 24.264,85.884 C24.1279993,86.0520008 24.06,86.2453322 24.06,86.464 C24.06,86.6080007 24.0959996,86.742666 24.168,86.868 C24.2400004,86.993334 24.3546659,87.1013329 24.512,87.192 C24.6693341,87.2826671 24.8733321,87.3533331 25.124,87.404 C25.3746679,87.4546669 25.6813315,87.48 26.044,87.48 C26.4120018,87.48 26.729332,87.4520003 26.996,87.396 C27.262668,87.3399997 27.4826658,87.2626672 27.656,87.164 C27.8293342,87.0653328 27.9559996,86.9480007 28.036,86.812 C28.1160004,86.6759993 28.156,86.5280008 28.156,86.368 Z M25.988,81.696 C26.2333346,81.696 26.4466658,81.662667 26.628,81.596 C26.8093342,81.529333 26.9599994,81.4373339 27.08,81.32 C27.2000006,81.2026661 27.2906664,81.0613342 27.352,80.896 C27.4133336,80.7306658 27.444,80.5493343 27.444,80.352 C27.444,79.9466646 27.3226679,79.6253345 27.08,79.388 C26.8373321,79.1506655 26.4733358,79.032 25.988,79.032 C25.5026642,79.032 25.1386679,79.1506655 24.896,79.388 C24.6533321,79.6253345 24.532,79.9466646 24.532,80.352 C24.532,80.544001 24.5626664,80.7226658 24.624,80.888 C24.6853336,81.0533342 24.7759994,81.1959994 24.896,81.316 C25.0160006,81.4360006 25.1679991,81.529333 25.352,81.596 C25.5360009,81.662667 25.7479988,81.696 25.988,81.696 Z M33.532,74.112 L33.532,86 L31.556,86 L31.556,74.112 L33.532,74.112 Z M39.156,77.664 C39.6733359,77.664 40.1493312,77.7466658 40.584,77.912 C41.0186688,78.0773342 41.3933318,78.3186651 41.708,78.636 C42.0226682,78.9533349 42.2679991,79.3426644 42.444,79.804 C42.6200009,80.2653356 42.708,80.791997 42.708,81.384 C42.708,81.5333341 42.7013334,81.6573328 42.688,81.756 C42.6746666,81.8546672 42.6506668,81.9319997 42.616,81.988 C42.5813332,82.0440003 42.534667,82.0839999 42.476,82.108 C42.417333,82.1320001 42.3426671,82.144 42.252,82.144 L37.18,82.144 C37.238667,82.9866709 37.4653314,83.6053314 37.86,84 C38.2546686,84.3946686 38.7773301,84.592 39.428,84.592 C39.7480016,84.592 40.0239988,84.554667 40.256,84.48 C40.4880012,84.405333 40.6906658,84.3226671 40.864,84.232 C41.0373342,84.1413329 41.1893327,84.058667 41.32,83.984 C41.4506673,83.909333 41.5773327,83.872 41.7,83.872 C41.7800004,83.872 41.849333,83.8879998 41.908,83.92 C41.966667,83.9520002 42.0173331,83.997333 42.06,84.056 L42.636,84.776 C42.4173322,85.0320013 42.1720014,85.2466658 41.9,85.42 C41.6279986,85.5933342 41.3440015,85.7319995 41.048,85.836 C40.7519985,85.9400005 40.4506682,86.0133331 40.144,86.056 C39.8373318,86.0986669 39.5400014,86.12 39.252,86.12 C38.6813305,86.12 38.1506691,86.0253343 37.66,85.836 C37.1693309,85.6466657 36.7426685,85.3666685 36.38,84.996 C36.0173315,84.6253315 35.732001,84.1666694 35.524,83.62 C35.315999,83.0733306 35.212,82.4400036 35.212,81.72 C35.212,81.1599972 35.3026658,80.6333358 35.484,80.14 C35.6653342,79.6466642 35.9253316,79.2173352 36.264,78.852 C36.6026684,78.4866648 37.0159976,78.1973344 37.504,77.984 C37.9920024,77.7706656 38.5426636,77.664 39.156,77.664 Z M39.196,79.08 C38.6199971,79.08 38.169335,79.242665 37.844,79.568 C37.518665,79.893335 37.3106671,80.3546637 37.22,80.952 L40.932,80.952 C40.932,80.6959987 40.8973337,80.4546678 40.828,80.228 C40.7586663,80.0013322 40.6520007,79.8026675 40.508,79.632 C40.3639993,79.4613325 40.1826678,79.3266672 39.964,79.228 C39.7453322,79.1293328 39.4893348,79.08 39.196,79.08 Z M57.684,86 L56.02,86 C55.8333324,86 55.6800006,85.9533338 55.56,85.86 C55.4399994,85.7666662 55.3533336,85.6506674 55.3,85.512 L54.436,83.152 L49.644,83.152 L48.78,85.512 C48.7373331,85.6346673 48.653334,85.7466662 48.528,85.848 C48.402666,85.9493338 48.2493342,86 48.068,86 L46.396,86 L50.94,74.432 L53.14,74.432 L57.684,86 Z M50.196,81.632 L53.884,81.632 L52.476,77.784 C52.4119997,77.6133325 52.3413337,77.4120012 52.264,77.18 C52.1866663,76.9479988 52.110667,76.6960014 52.036,76.424 C51.961333,76.6960014 51.8880004,76.9493322 51.816,77.184 C51.7439996,77.4186678 51.6733337,77.6239991 51.604,77.8 L50.196,81.632 Z M58.764,86 L58.764,77.792 L59.972,77.792 C60.2280013,77.792 60.3959996,77.9119988 60.476,78.152 L60.612,78.8 C60.7773342,78.6293325 60.9519991,78.4746674 61.136,78.336 C61.3200009,78.1973326 61.5146656,78.0773338 61.72,77.976 C61.9253344,77.8746662 62.1453322,77.7973336 62.38,77.744 C62.6146678,77.6906664 62.8706653,77.664 63.148,77.664 C63.5960022,77.664 63.9933316,77.7399992 64.34,77.892 C64.6866684,78.0440008 64.9759988,78.257332 65.208,78.532 C65.4400012,78.806668 65.6159994,79.1346648 65.736,79.516 C65.8560006,79.8973352 65.916,80.317331 65.916,80.776 L65.916,86 L63.94,86 L63.94,80.776 C63.94,80.2746642 63.8240012,79.886668 63.592,79.612 C63.3599988,79.337332 63.0120023,79.2 62.548,79.2 C62.206665,79.2 61.8866682,79.2773326 61.588,79.432 C61.2893318,79.5866674 61.006668,79.797332 60.74,80.064 L60.74,86 L58.764,86 Z M73.636,86 C73.3799987,86 73.2120004,85.8800012 73.132,85.64 L72.972,84.848 C72.8013325,85.040001 72.6226676,85.2133326 72.436,85.368 C72.2493324,85.5226674 72.0480011,85.6559994 71.832,85.768 C71.6159989,85.8800006 71.3840012,85.9666664 71.136,86.028 C70.8879988,86.0893336 70.6200014,86.12 70.332,86.12 C69.8839978,86.12 69.4733352,86.0266676 69.1,85.84 C68.7266648,85.6533324 68.4053347,85.3826684 68.136,85.028 C67.8666653,84.6733316 67.6586674,84.2346693 67.512,83.712 C67.3653326,83.1893307 67.292,82.5920034 67.292,81.92 C67.292,81.311997 67.3746658,80.7466693 67.54,80.224 C67.7053342,79.7013307 67.9426651,79.2480019 68.252,78.864 C68.5613349,78.4799981 68.9319978,78.1800011 69.364,77.964 C69.7960022,77.7479989 70.2813306,77.64 70.82,77.64 C71.278669,77.64 71.670665,77.7133326 71.996,77.86 C72.321335,78.0066674 72.6119987,78.2026654 72.868,78.448 L72.868,74.112 L74.844,74.112 L74.844,86 L73.636,86 Z M71.004,84.552 C71.4146687,84.552 71.7639986,84.4666675 72.052,84.296 C72.3400014,84.1253325 72.6119987,83.8826682 72.868,83.568 L72.868,79.888 C72.6439989,79.6159986 72.4000013,79.4240006 72.136,79.312 C71.8719987,79.1999994 71.5880015,79.144 71.284,79.144 C70.9853318,79.144 70.7146679,79.1999994 70.472,79.312 C70.2293321,79.4240006 70.0240008,79.5933322 69.856,79.82 C69.6879992,80.0466678 69.5586671,80.3346649 69.468,80.684 C69.3773329,81.0333351 69.332,81.445331 69.332,81.92 C69.332,82.4000024 69.3706663,82.806665 69.448,83.14 C69.5253337,83.473335 69.6359993,83.7453323 69.78,83.956 C69.9240007,84.1666677 70.099999,84.3186662 70.308,84.412 C70.516001,84.5053338 70.7479987,84.552 71.004,84.552 Z M6.804,93.432 L8.612,93.432 C8.7986676,93.432 8.95466604,93.4759996 9.08,93.564 C9.20533396,93.6520004 9.28933312,93.7706659 9.332,93.92 L11.3,100.84 C11.3480002,101.010668 11.3919998,101.195999 11.432,101.396 C11.4720002,101.596001 11.5106665,101.807999 11.548,102.032 C11.5906669,101.807999 11.6373331,101.596001 11.688,101.396 C11.7386669,101.195999 11.793333,101.010668 11.852,100.84 L14.124,93.92 C14.1666669,93.7973327 14.250666,93.6853338 14.376,93.584 C14.501334,93.4826662 14.6546658,93.432 14.836,93.432 L15.468,93.432 C15.6546676,93.432 15.8093327,93.4759996 15.932,93.564 C16.0546673,93.6520004 16.1399998,93.7706659 16.188,93.92 L18.444,100.84 C18.5613339,101.181335 18.6626662,101.559998 18.748,101.976 C18.7853335,101.767999 18.8239998,101.568001 18.864,101.376 C18.9040002,101.183999 18.9453331,101.005334 18.988,100.84 L20.956,93.92 C20.9933335,93.786666 21.0759994,93.6720005 21.204,93.576 C21.3320006,93.4799995 21.4866658,93.432 21.668,93.432 L23.356,93.432 L19.764,105 L17.82,105 L15.292,97.096 C15.2599998,96.9946662 15.2266668,96.8853339 15.192,96.768 C15.1573332,96.6506661 15.1240002,96.525334 15.092,96.392 C15.0599998,96.525334 15.0266668,96.6506661 14.992,96.768 C14.9573332,96.8853339 14.9240002,96.9946662 14.892,97.096 L12.34,105 L10.396,105 L6.804,93.432 Z M27.684,96.664 C28.2973364,96.664 28.8533308,96.7626657 29.352,96.96 C29.8506692,97.1573343 30.2759982,97.4373315 30.628,97.8 C30.9800018,98.1626685 31.251999,98.6053307 31.444,99.128 C31.636001,99.6506693 31.732,100.234663 31.732,100.88 C31.732,101.53067 31.636001,102.117331 31.444,102.64 C31.251999,103.162669 30.9800018,103.607998 30.628,103.976 C30.2759982,104.344002 29.8506692,104.626666 29.352,104.824 C28.8533308,105.021334 28.2973364,105.12 27.684,105.12 C27.0706636,105.12 26.5133358,105.021334 26.012,104.824 C25.5106642,104.626666 25.0826684,104.344002 24.728,103.976 C24.3733316,103.607998 24.0986676,103.162669 23.904,102.64 C23.7093324,102.117331 23.612,101.53067 23.612,100.88 C23.612,100.234663 23.7093324,99.6506693 23.904,99.128 C24.0986676,98.6053307 24.3733316,98.1626685 24.728,97.8 C25.0826684,97.4373315 25.5106642,97.1573343 26.012,96.96 C26.5133358,96.7626657 27.0706636,96.664 27.684,96.664 Z M27.684,103.6 C28.3666701,103.6 28.8719984,103.370669 29.2,102.912 C29.5280016,102.453331 29.692,101.781338 29.692,100.896 C29.692,100.010662 29.5280016,99.3360023 29.2,98.872 C28.8719984,98.4079977 28.3666701,98.176 27.684,98.176 C26.9906632,98.176 26.4786683,98.409331 26.148,98.876 C25.8173317,99.342669 25.652,100.015996 25.652,100.896 C25.652,101.776004 25.8173317,102.446664 26.148,102.908 C26.4786683,103.369336 26.9906632,103.6 27.684,103.6 Z M33.276,105 L33.276,96.792 L34.436,96.792 C34.6386677,96.792 34.7799996,96.829333 34.86,96.904 C34.9400004,96.978667 34.9933332,97.1066658 35.02,97.288 L35.14,98.28 C35.4333348,97.7733308 35.7773314,97.3733348 36.172,97.08 C36.5666686,96.7866652 37.0093309,96.64 37.5,96.64 C37.9053354,96.64 38.241332,96.7333324 38.508,96.92 L38.252,98.4 C38.2359999,98.4960005 38.2013336,98.5639998 38.148,98.604 C38.0946664,98.6440002 38.0226671,98.664 37.932,98.664 C37.8519996,98.664 37.7426674,98.6453335 37.604,98.608 C37.4653326,98.5706665 37.2813345,98.552 37.052,98.552 C36.6413313,98.552 36.2893348,98.6653322 35.996,98.892 C35.7026652,99.1186678 35.4546677,99.4506645 35.252,99.888 L35.252,105 L33.276,105 Z M41.812,93.112 L41.812,99.92 L42.18,99.92 C42.313334,99.92 42.417333,99.9013335 42.492,99.864 C42.566667,99.8266665 42.6466662,99.7573338 42.732,99.656 L44.772,97.136 C44.8626671,97.0293328 44.9586662,96.9453336 45.06,96.884 C45.1613338,96.8226664 45.2946658,96.792 45.46,96.792 L47.268,96.792 L44.716,99.84 C44.6253329,99.9520006 44.5320005,100.054666 44.436,100.148 C44.3399995,100.241334 44.2360006,100.322666 44.124,100.392 C44.2360006,100.472 44.3346662,100.565333 44.42,100.672 C44.5053338,100.778667 44.5906662,100.893333 44.676,101.016 L47.412,105 L45.628,105 C45.4733326,105 45.3426672,104.973334 45.236,104.92 C45.1293328,104.866666 45.0333338,104.776001 44.948,104.648 L42.86,101.536 C42.7799996,101.413333 42.7000004,101.333334 42.62,101.296 C42.5399996,101.258666 42.4200008,101.24 42.26,101.24 L41.812,101.24 L41.812,105 L39.836,105 L39.836,93.112 L41.812,93.112 Z M50.74,96.792 L50.74,105 L48.764,105 L48.764,96.792 L50.74,96.792 Z M51.036,94.4 C51.036,94.5706675 51.0013337,94.7306659 50.932,94.88 C50.8626663,95.0293341 50.7706672,95.1599994 50.656,95.272 C50.5413328,95.3840006 50.4066674,95.473333 50.252,95.54 C50.0973326,95.606667 49.9320009,95.64 49.756,95.64 C49.5853325,95.64 49.4240008,95.606667 49.272,95.54 C49.1199992,95.473333 48.9880006,95.3840006 48.876,95.272 C48.7639994,95.1599994 48.674667,95.0293341 48.608,94.88 C48.541333,94.7306659 48.508,94.5706675 48.508,94.4 C48.508,94.2239991 48.541333,94.0586674 48.608,93.904 C48.674667,93.7493326 48.7639994,93.6160006 48.876,93.504 C48.9880006,93.3919994 49.1199992,93.302667 49.272,93.236 C49.4240008,93.169333 49.5853325,93.136 49.756,93.136 C49.9320009,93.136 50.0973326,93.169333 50.252,93.236 C50.4066674,93.302667 50.5413328,93.3919994 50.656,93.504 C50.7706672,93.6160006 50.8626663,93.7493326 50.932,93.904 C51.0013337,94.0586674 51.036,94.2239991 51.036,94.4 Z M52.972,105 L52.972,96.792 L54.18,96.792 C54.4360013,96.792 54.6039996,96.9119988 54.684,97.152 L54.82,97.8 C54.9853342,97.6293325 55.1599991,97.4746674 55.344,97.336 C55.5280009,97.1973326 55.7226656,97.0773338 55.928,96.976 C56.1333344,96.8746662 56.3533322,96.7973336 56.588,96.744 C56.8226678,96.6906664 57.0786653,96.664 57.356,96.664 C57.8040022,96.664 58.2013316,96.7399992 58.548,96.892 C58.8946684,97.0440008 59.1839988,97.257332 59.416,97.532 C59.6480012,97.806668 59.8239994,98.1346648 59.944,98.516 C60.0640006,98.8973352 60.124,99.317331 60.124,99.776 L60.124,105 L58.148,105 L58.148,99.776 C58.148,99.2746642 58.0320012,98.886668 57.8,98.612 C57.5679988,98.337332 57.2200023,98.2 56.756,98.2 C56.414665,98.2 56.0946682,98.2773326 55.796,98.432 C55.4973318,98.5866674 55.214668,98.797332 54.948,99.064 L54.948,105 L52.972,105 Z M64.908,96.648 C65.2600018,96.648 65.5906651,96.6839996 65.9,96.756 C66.2093349,96.8280004 66.4919987,96.9333326 66.748,97.072 L69.108,97.072 L69.108,97.808 C69.108,97.9306673 69.0760003,98.0266663 69.012,98.096 C68.9479997,98.1653337 68.8386674,98.2133332 68.684,98.24 L67.948,98.376 C68.0013336,98.5146674 68.0426665,98.6613326 68.072,98.816 C68.1013335,98.9706674 68.116,99.1333325 68.116,99.304 C68.116,99.7093354 68.0346675,100.075998 67.872,100.404 C67.7093325,100.732002 67.4853348,101.010666 67.2,101.24 C66.9146652,101.469334 66.576002,101.646666 66.184,101.772 C65.791998,101.897334 65.366669,101.96 64.908,101.96 C64.5986651,101.96 64.2973348,101.930667 64.004,101.872 C63.7479987,102.026667 63.62,102.199999 63.62,102.392 C63.62,102.557334 63.6959992,102.678666 63.848,102.756 C64.0000008,102.833334 64.1999988,102.888 64.448,102.92 C64.6960012,102.952 64.9773318,102.972 65.292,102.98 C65.6066682,102.988 65.9293317,103.005333 66.26,103.032 C66.5906683,103.058667 66.9133318,103.105333 67.228,103.172 C67.5426682,103.238667 67.8239988,103.343999 68.072,103.488 C68.3200012,103.632001 68.5199992,103.827999 68.672,104.076 C68.8240008,104.324001 68.9,104.642665 68.9,105.032 C68.9,105.394668 68.8106676,105.746665 68.632,106.088 C68.4533324,106.429335 68.1946684,106.733332 67.856,107 C67.5173316,107.266668 67.1026691,107.481333 66.612,107.644 C66.1213309,107.806667 65.5613365,107.888 64.932,107.888 C64.3079969,107.888 63.766669,107.828001 63.308,107.708 C62.849331,107.587999 62.4693348,107.428001 62.168,107.228 C61.8666652,107.027999 61.6413341,106.797335 61.492,106.536 C61.3426659,106.274665 61.268,106.002668 61.268,105.72 C61.268,105.335998 61.3853322,105.013335 61.62,104.752 C61.8546678,104.490665 62.1799979,104.282667 62.596,104.128 C62.3933323,104.015999 62.2306673,103.866668 62.108,103.68 C61.9853327,103.493332 61.924,103.250668 61.924,102.952 C61.924,102.829333 61.9453331,102.702667 61.988,102.572 C62.0306669,102.441333 62.0959996,102.312001 62.184,102.184 C62.2720004,102.055999 62.382666,101.934667 62.516,101.82 C62.649334,101.705333 62.8066658,101.602667 62.988,101.512 C62.5719979,101.287999 62.2453345,100.989335 62.008,100.616 C61.7706655,100.242665 61.652,99.8053358 61.652,99.304 C61.652,98.8986646 61.7333325,98.5320016 61.896,98.204 C62.0586675,97.8759984 62.2853319,97.5960012 62.576,97.364 C62.8666681,97.1319988 63.2106647,96.9546673 63.608,96.832 C64.0053353,96.7093327 64.4386643,96.648 64.908,96.648 Z M67.076,105.368 C67.076,105.207999 67.0280005,105.077334 66.932,104.976 C66.8359995,104.874666 66.7053342,104.796 66.54,104.74 C66.3746658,104.684 66.1813344,104.642667 65.96,104.616 C65.7386656,104.589333 65.5040012,104.569333 65.256,104.556 C65.0079988,104.542667 64.7520013,104.529333 64.488,104.516 C64.2239987,104.502667 63.9693346,104.48 63.724,104.448 C63.4999989,104.570667 63.3200007,104.715999 63.184,104.884 C63.0479993,105.052001 62.98,105.245332 62.98,105.464 C62.98,105.608001 63.0159996,105.742666 63.088,105.868 C63.1600004,105.993334 63.2746659,106.101333 63.432,106.192 C63.5893341,106.282667 63.7933321,106.353333 64.044,106.404 C64.2946679,106.454667 64.6013315,106.48 64.964,106.48 C65.3320018,106.48 65.649332,106.452 65.916,106.396 C66.182668,106.34 66.4026658,106.262667 66.576,106.164 C66.7493342,106.065333 66.8759996,105.948001 66.956,105.812 C67.0360004,105.675999 67.076,105.528001 67.076,105.368 Z M64.908,100.696 C65.1533346,100.696 65.3666658,100.662667 65.548,100.596 C65.7293342,100.529333 65.8799994,100.437334 66,100.32 C66.1200006,100.202666 66.2106664,100.061334 66.272,99.896 C66.3333336,99.7306658 66.364,99.5493343 66.364,99.352 C66.364,98.9466646 66.2426679,98.6253345 66,98.388 C65.7573321,98.1506655 65.3933358,98.032 64.908,98.032 C64.4226642,98.032 64.0586679,98.1506655 63.816,98.388 C63.5733321,98.6253345 63.452,98.9466646 63.452,99.352 C63.452,99.544001 63.4826664,99.7226658 63.544,99.888 C63.6053336,100.053334 63.6959994,100.195999 63.816,100.316 C63.9360006,100.436001 64.0879991,100.529333 64.272,100.596 C64.4560009,100.662667 64.6679988,100.696 64.908,100.696 Z" id="Single-And-Working" fill="#333333"></path>
            <g id="Group-2" opacity="0.5" transform="translate(25.000000, 0.000000)" fill="#000000">
                <path d="M11.6726638,14.8739239 L12.6327907,14.8739239 L13.592537,14.8739239 L14.0724101,16.7685539 L13.9994715,16.8837336 C13.6038266,17.2135433 13.1193869,17.3788288 12.6322833,17.3792093 C12.1453066,17.3790825 11.6615011,17.213797 11.2662368,16.8847484 L11.1927907,16.7685539 L11.6726638,14.8739239 Z M12.6327907,31.1670317 L10.2330444,28.1356998 L11.6153277,17.9504144 C11.9432347,18.0732051 12.2875053,18.1373911 12.6322833,18.1371374 L12.6327907,18.1371374 L12.6343129,18.1371374 C12.9787104,18.1371374 13.322981,18.0729514 13.6501268,17.9501607 L15.0327907,28.1356998 L12.6327907,31.1670317 Z M1.67701903,36.9256364 L1.67701903,38.2604778 L0.153298097,38.2604778 L0.153298097,48.8696956 L4.19511628,48.8696956 L4.19511628,38.2604778 L2.67164905,38.2604778 L2.67164905,36.9236068 C3.58978858,36.6884271 4.24255814,35.8301607 4.18522199,34.8489767 C4.08640592,33.1689767 4.04200846,31.6386596 4.04200846,30.2459746 C4.03325581,24.1288922 4.92488372,20.6925285 5.80116279,18.8992516 L5.80116279,56.7907104 C5.80116279,58.5159958 7.19980973,59.9138816 8.92408034,59.9138816 C10.6488584,59.9138816 12.0475053,58.5159958 12.0475053,56.7907104 L12.0475053,33.987666 L13.2184567,33.987666 L13.2184567,56.7907104 C13.2184567,58.5159958 14.6171036,59.9138816 16.3413742,59.9138816 C18.0660254,59.9138816 19.4647992,58.5159958 19.4647992,56.7907104 L19.4647992,18.9100338 C19.6142283,19.2172643 19.7654334,19.5693996 19.9142283,19.9803932 C20.6266173,21.9544313 21.225222,25.192148 21.2229387,30.2459746 C21.2234461,31.639167 21.1786681,33.1693573 21.0802326,34.8494841 C21.0155391,35.9634799 21.8660677,36.9198013 22.9805708,36.9844947 C23.0204017,36.986778 23.0602326,36.9880465 23.1003171,36.9880465 C24.1623044,36.9880465 25.0526638,36.1584482 25.1157082,35.0846638 C25.217315,33.3341353 25.2647569,31.7258055 25.2647569,30.2459746 C25.2549894,22.6219154 24.0369767,18.4023805 22.3760042,15.8650021 C21.5467865,14.605129 20.5758774,13.7976025 19.6789218,13.3504567 C18.8153277,12.9147273 18.0562579,12.816926 17.6009937,12.8112178 C17.5715645,12.8096956 17.542389,12.8066512 17.5123256,12.8066512 L7.75338266,12.8066512 C7.71938689,12.8066512 7.68653277,12.8099493 7.65317125,12.8117252 C7.19625793,12.8181945 6.44289641,12.9180254 5.58564482,13.350203 C4.22682875,14.023649 2.76234672,15.4978985 1.73714588,18.1093573 C0.699767442,20.7313446 0.00361522199,24.5222537 -6.34249473e-05,30.2459746 C-6.34249473e-05,31.7252981 0.0477589852,33.3341353 0.1505074,35.0856786 C0.203403805,35.9892304 0.843234672,36.7167146 1.67701903,36.9256364 Z" id="Fill-1"></path>
                <path d="M12.6328414,2.53699789e-05 C15.7718689,2.53699789e-05 18.3164778,2.5447611 18.3164778,5.68366173 C18.3164778,8.82268922 15.7718689,11.3672981 12.6328414,11.3672981 C9.49381395,11.3672981 6.94920507,8.82268922 6.94920507,5.68366173 C6.94920507,2.5447611 9.49381395,2.53699789e-05 12.6328414,2.53699789e-05" id="Fill-4"></path>
            </g>
        </g>
    </g>
</svg>