<?xml version="1.0" encoding="UTF-8" standalone="no"?>
<svg width="90px" height="80px" viewBox="0 0 105 108" version="1.1" xmlns="http://www.w3.org/2000/svg" xmlns:xlink="http://www.w3.org/1999/xlink">
    <!-- Generator: Sketch 48.2 (47327) - http://www.bohemiancoding.com/sketch -->
    <title>Sole_Proprietorship_Red</title>
    <desc>Created with Sketch.</desc>
    <defs></defs>
    <g id="Page3-Copy" stroke="none" stroke-width="1" fill="none" fill-rule="evenodd" transform="translate(-211.000000, -154.000000)">
        <g id="Sole_Proprietorship_Red" transform="translate(211.000000, 154.000000)" fill="#D0021B">
            <path d="M44.084,76.536 C44.025333,76.6533339 43.9573337,76.7359998 43.88,76.784 C43.8026663,76.8320002 43.7106672,76.856 43.604,76.856 C43.4973328,76.856 43.377334,76.8146671 43.244,76.732 C43.110666,76.6493329 42.9533342,76.5573338 42.772,76.456 C42.5906658,76.3546662 42.3786679,76.2626671 42.136,76.18 C41.8933321,76.0973329 41.6066683,76.056 41.276,76.056 C40.9773318,76.056 40.7173344,76.0919996 40.496,76.164 C40.2746656,76.2360004 40.0880008,76.3359994 39.936,76.464 C39.7839992,76.5920006 39.670667,76.7453324 39.596,76.924 C39.521333,77.1026676 39.484,77.2986656 39.484,77.512 C39.484,77.7840014 39.5599992,78.0106658 39.712,78.192 C39.8640008,78.3733342 40.0653321,78.5279994 40.316,78.656 C40.5666679,78.7840006 40.8519984,78.8986662 41.172,79 C41.4920016,79.1013338 41.818665,79.2093328 42.152,79.324 C42.485335,79.4386672 42.8119984,79.5719992 43.132,79.724 C43.4520016,79.8760008 43.7373321,80.0679988 43.988,80.3 C44.2386679,80.5320012 44.4399992,80.8159983 44.592,81.152 C44.7440008,81.4880017 44.82,81.8959976 44.82,82.376 C44.82,82.8986693 44.7306676,83.3879977 44.552,83.844 C44.3733324,84.3000023 44.1120017,84.6973316 43.768,85.036 C43.4239983,85.3746684 43.0040025,85.6413324 42.508,85.836 C42.0119975,86.0306676 41.4440032,86.128 40.804,86.128 C40.4359982,86.128 40.0733351,86.0920004 39.716,86.02 C39.3586649,85.9479996 39.0160016,85.845334 38.688,85.712 C38.3599984,85.578666 38.0533348,85.4186676 37.768,85.232 C37.4826652,85.0453324 37.2280011,84.8373345 37.004,84.608 L37.628,83.576 C37.686667,83.501333 37.7573329,83.4386669 37.84,83.388 C37.9226671,83.3373331 38.0146662,83.312 38.116,83.312 C38.249334,83.312 38.3933326,83.3666661 38.548,83.476 C38.7026674,83.5853339 38.8853323,83.706666 39.096,83.84 C39.3066677,83.973334 39.5546652,84.0946661 39.84,84.204 C40.1253348,84.3133339 40.467998,84.368 40.868,84.368 C41.4813364,84.368 41.9559983,84.2226681 42.292,83.932 C42.6280017,83.6413319 42.796,83.2240027 42.796,82.68 C42.796,82.3759985 42.7200008,82.128001 42.568,81.936 C42.4159992,81.743999 42.2146679,81.5826673 41.964,81.452 C41.7133321,81.3213327 41.4280016,81.2106671 41.108,81.12 C40.7879984,81.0293329 40.4626683,80.9306672 40.132,80.824 C39.8013317,80.7173328 39.4760016,80.5893341 39.156,80.44 C38.8359984,80.2906659 38.5506679,80.0960012 38.3,79.856 C38.0493321,79.6159988 37.8480008,79.3160018 37.696,78.956 C37.5439992,78.5959982 37.468,78.1520026 37.468,77.624 C37.468,77.2026646 37.5519992,76.792002 37.72,76.392 C37.8880008,75.991998 38.1333317,75.6373349 38.456,75.328 C38.7786683,75.0186651 39.1746643,74.7706676 39.644,74.584 C40.1133357,74.3973324 40.6493303,74.304 41.252,74.304 C41.9346701,74.304 42.5639971,74.4106656 43.14,74.624 C43.7160029,74.8373344 44.2066646,75.1359981 44.612,75.52 L44.084,76.536 Z M49.86,77.664 C50.4733364,77.664 51.0293308,77.7626657 51.528,77.96 C52.0266692,78.1573343 52.4519982,78.4373315 52.804,78.8 C53.1560018,79.1626685 53.427999,79.6053307 53.62,80.128 C53.812001,80.6506693 53.908,81.2346634 53.908,81.88 C53.908,82.5306699 53.812001,83.1173307 53.62,83.64 C53.427999,84.1626693 53.1560018,84.6079982 52.804,84.976 C52.4519982,85.3440018 52.0266692,85.6266657 51.528,85.824 C51.0293308,86.0213343 50.4733364,86.12 49.86,86.12 C49.2466636,86.12 48.6893358,86.0213343 48.188,85.824 C47.6866642,85.6266657 47.2586684,85.3440018 46.904,84.976 C46.5493316,84.6079982 46.2746676,84.1626693 46.08,83.64 C45.8853324,83.1173307 45.788,82.5306699 45.788,81.88 C45.788,81.2346634 45.8853324,80.6506693 46.08,80.128 C46.2746676,79.6053307 46.5493316,79.1626685 46.904,78.8 C47.2586684,78.4373315 47.6866642,78.1573343 48.188,77.96 C48.6893358,77.7626657 49.2466636,77.664 49.86,77.664 Z M49.86,84.6 C50.5426701,84.6 51.0479984,84.370669 51.376,83.912 C51.7040016,83.453331 51.868,82.7813378 51.868,81.896 C51.868,81.0106622 51.7040016,80.3360023 51.376,79.872 C51.0479984,79.4079977 50.5426701,79.176 49.86,79.176 C49.1666632,79.176 48.6546683,79.409331 48.324,79.876 C47.9933317,80.342669 47.828,81.0159956 47.828,81.896 C47.828,82.7760044 47.9933317,83.4466644 48.324,83.908 C48.6546683,84.3693356 49.1666632,84.6 49.86,84.6 Z M57.556,74.112 L57.556,86 L55.58,86 L55.58,74.112 L57.556,74.112 Z M63.18,77.664 C63.6973359,77.664 64.1733312,77.7466658 64.608,77.912 C65.0426688,78.0773342 65.4173318,78.3186651 65.732,78.636 C66.0466682,78.9533349 66.2919991,79.3426644 66.468,79.804 C66.6440009,80.2653356 66.732,80.791997 66.732,81.384 C66.732,81.5333341 66.7253334,81.6573328 66.712,81.756 C66.6986666,81.8546672 66.6746668,81.9319997 66.64,81.988 C66.6053332,82.0440003 66.558667,82.0839999 66.5,82.108 C66.441333,82.1320001 66.3666671,82.144 66.276,82.144 L61.204,82.144 C61.262667,82.9866709 61.4893314,83.6053314 61.884,84 C62.2786686,84.3946686 62.8013301,84.592 63.452,84.592 C63.7720016,84.592 64.0479988,84.554667 64.28,84.48 C64.5120012,84.405333 64.7146658,84.3226671 64.888,84.232 C65.0613342,84.1413329 65.2133327,84.058667 65.344,83.984 C65.4746673,83.909333 65.6013327,83.872 65.724,83.872 C65.8040004,83.872 65.873333,83.8879998 65.932,83.92 C65.990667,83.9520002 66.0413331,83.997333 66.084,84.056 L66.66,84.776 C66.4413322,85.0320013 66.1960014,85.2466658 65.924,85.42 C65.6519986,85.5933342 65.3680015,85.7319995 65.072,85.836 C64.7759985,85.9400005 64.4746682,86.0133331 64.168,86.056 C63.8613318,86.0986669 63.5640014,86.12 63.276,86.12 C62.7053305,86.12 62.1746691,86.0253343 61.684,85.836 C61.1933309,85.6466657 60.7666685,85.3666685 60.404,84.996 C60.0413315,84.6253315 59.756001,84.1666694 59.548,83.62 C59.339999,83.0733306 59.236,82.4400036 59.236,81.72 C59.236,81.1599972 59.3266658,80.6333358 59.508,80.14 C59.6893342,79.6466642 59.9493316,79.2173352 60.288,78.852 C60.6266684,78.4866648 61.0399976,78.1973344 61.528,77.984 C62.0160024,77.7706656 62.5666636,77.664 63.18,77.664 Z M63.22,79.08 C62.6439971,79.08 62.193335,79.242665 61.868,79.568 C61.542665,79.893335 61.3346671,80.3546637 61.244,80.952 L64.956,80.952 C64.956,80.6959987 64.9213337,80.4546678 64.852,80.228 C64.7826663,80.0013322 64.6760007,79.8026675 64.532,79.632 C64.3879993,79.4613325 64.2066678,79.3266672 63.988,79.228 C63.7693322,79.1293328 63.5133348,79.08 63.22,79.08 Z M2.692,100.928 L2.692,105 L0.54,105 L0.54,93.432 L4.308,93.432 C5.0813372,93.432 5.75066384,93.5226658 6.316,93.704 C6.88133616,93.8853342 7.34799816,94.138665 7.716,94.464 C8.08400184,94.789335 8.35599912,95.1786644 8.532,95.632 C8.70800088,96.0853356 8.796,96.5813306 8.796,97.12 C8.796,97.6800028 8.7026676,98.193331 8.516,98.66 C8.3293324,99.126669 8.0493352,99.5279983 7.676,99.864 C7.3026648,100.200002 6.8360028,100.461332 6.276,100.648 C5.7159972,100.834668 5.06000376,100.928 4.308,100.928 L2.692,100.928 Z M2.692,99.248 L4.308,99.248 C4.70266864,99.248 5.0466652,99.1986672 5.34,99.1 C5.6333348,99.0013328 5.87599904,98.8600009 6.068,98.676 C6.26000096,98.4919991 6.40399952,98.2680013 6.5,98.004 C6.59600048,97.7399987 6.644,97.445335 6.644,97.12 C6.644,96.8106651 6.59600048,96.5306679 6.5,96.28 C6.40399952,96.0293321 6.26000096,95.8160009 6.068,95.64 C5.87599904,95.4639991 5.6333348,95.3293338 5.34,95.236 C5.0466652,95.1426662 4.70266864,95.096 4.308,95.096 L2.692,95.096 L2.692,99.248 Z M10.356,105 L10.356,96.792 L11.516,96.792 C11.7186677,96.792 11.8599996,96.829333 11.94,96.904 C12.0200004,96.978667 12.0733332,97.1066658 12.1,97.288 L12.22,98.28 C12.5133348,97.7733308 12.8573314,97.3733348 13.252,97.08 C13.6466686,96.7866652 14.0893309,96.64 14.58,96.64 C14.9853354,96.64 15.321332,96.7333324 15.588,96.92 L15.332,98.4 C15.3159999,98.4960005 15.2813336,98.5639998 15.228,98.604 C15.1746664,98.6440002 15.1026671,98.664 15.012,98.664 C14.9319996,98.664 14.8226674,98.6453335 14.684,98.608 C14.5453326,98.5706665 14.3613345,98.552 14.132,98.552 C13.7213313,98.552 13.3693348,98.6653322 13.076,98.892 C12.7826652,99.1186678 12.5346677,99.4506645 12.332,99.888 L12.332,105 L10.356,105 Z M20.396,96.664 C21.0093364,96.664 21.5653308,96.7626657 22.064,96.96 C22.5626692,97.1573343 22.9879982,97.4373315 23.34,97.8 C23.6920018,98.1626685 23.963999,98.6053307 24.156,99.128 C24.348001,99.6506693 24.444,100.234663 24.444,100.88 C24.444,101.53067 24.348001,102.117331 24.156,102.64 C23.963999,103.162669 23.6920018,103.607998 23.34,103.976 C22.9879982,104.344002 22.5626692,104.626666 22.064,104.824 C21.5653308,105.021334 21.0093364,105.12 20.396,105.12 C19.7826636,105.12 19.2253358,105.021334 18.724,104.824 C18.2226642,104.626666 17.7946684,104.344002 17.44,103.976 C17.0853316,103.607998 16.8106676,103.162669 16.616,102.64 C16.4213324,102.117331 16.324,101.53067 16.324,100.88 C16.324,100.234663 16.4213324,99.6506693 16.616,99.128 C16.8106676,98.6053307 17.0853316,98.1626685 17.44,97.8 C17.7946684,97.4373315 18.2226642,97.1573343 18.724,96.96 C19.2253358,96.7626657 19.7826636,96.664 20.396,96.664 Z M20.396,103.6 C21.0786701,103.6 21.5839984,103.370669 21.912,102.912 C22.2400016,102.453331 22.404,101.781338 22.404,100.896 C22.404,100.010662 22.2400016,99.3360023 21.912,98.872 C21.5839984,98.4079977 21.0786701,98.176 20.396,98.176 C19.7026632,98.176 19.1906683,98.409331 18.86,98.876 C18.5293317,99.342669 18.364,100.015996 18.364,100.896 C18.364,101.776004 18.5293317,102.446664 18.86,102.908 C19.1906683,103.369336 19.7026632,103.6 20.396,103.6 Z M25.988,107.68 L25.988,96.792 L27.196,96.792 C27.3240006,96.792 27.4333329,96.821333 27.524,96.88 C27.6146671,96.938667 27.6733332,97.0293327 27.7,97.152 L27.86,97.912 C28.1906683,97.5333314 28.5706645,97.2266678 29,96.992 C29.4293355,96.7573322 29.9319971,96.64 30.508,96.64 C30.9560022,96.64 31.3653315,96.7333324 31.736,96.92 C32.1066685,97.1066676 32.4266653,97.3773316 32.696,97.732 C32.9653347,98.0866684 33.1733326,98.5239974 33.32,99.044 C33.4666674,99.5640026 33.54,100.159997 33.54,100.832 C33.54,101.445336 33.4573342,102.013331 33.292,102.536 C33.1266658,103.058669 32.8906682,103.511998 32.584,103.896 C32.2773318,104.280002 31.9066688,104.579999 31.472,104.796 C31.0373312,105.012001 30.5506694,105.12 30.012,105.12 C29.5479977,105.12 29.1546683,105.049334 28.832,104.908 C28.5093317,104.766666 28.2200013,104.570668 27.964,104.32 L27.964,107.68 L25.988,107.68 Z M29.828,98.2 C29.4173313,98.2 29.0666681,98.2866658 28.776,98.46 C28.4853319,98.6333342 28.2146679,98.8773318 27.964,99.192 L27.964,102.872 C28.1880011,103.149335 28.4319987,103.342666 28.696,103.452 C28.9600013,103.561334 29.2439985,103.616 29.548,103.616 C29.8466682,103.616 30.1173321,103.560001 30.36,103.448 C30.6026679,103.335999 30.8079992,103.165334 30.976,102.936 C31.1440008,102.706666 31.2733329,102.417335 31.364,102.068 C31.4546671,101.718665 31.5,101.306669 31.5,100.832 C31.5,100.351998 31.4613337,99.945335 31.384,99.612 C31.3066663,99.278665 31.1960007,99.008001 31.052,98.8 C30.9079993,98.591999 30.7333344,98.4400005 30.528,98.344 C30.3226656,98.2479995 30.0893346,98.2 29.828,98.2 Z M35.036,105 L35.036,96.792 L36.196,96.792 C36.3986677,96.792 36.5399996,96.829333 36.62,96.904 C36.7000004,96.978667 36.7533332,97.1066658 36.78,97.288 L36.9,98.28 C37.1933348,97.7733308 37.5373314,97.3733348 37.932,97.08 C38.3266686,96.7866652 38.7693309,96.64 39.26,96.64 C39.6653354,96.64 40.001332,96.7333324 40.268,96.92 L40.012,98.4 C39.9959999,98.4960005 39.9613336,98.5639998 39.908,98.604 C39.8546664,98.6440002 39.7826671,98.664 39.692,98.664 C39.6119996,98.664 39.5026674,98.6453335 39.364,98.608 C39.2253326,98.5706665 39.0413345,98.552 38.812,98.552 C38.4013313,98.552 38.0493348,98.6653322 37.756,98.892 C37.4626652,99.1186678 37.2146677,99.4506645 37.012,99.888 L37.012,105 L35.036,105 Z M43.676,96.792 L43.676,105 L41.7,105 L41.7,96.792 L43.676,96.792 Z M43.972,94.4 C43.972,94.5706675 43.9373337,94.7306659 43.868,94.88 C43.7986663,95.0293341 43.7066672,95.1599994 43.592,95.272 C43.4773328,95.3840006 43.3426674,95.473333 43.188,95.54 C43.0333326,95.606667 42.8680009,95.64 42.692,95.64 C42.5213325,95.64 42.3600008,95.606667 42.208,95.54 C42.0559992,95.473333 41.9240006,95.3840006 41.812,95.272 C41.6999994,95.1599994 41.610667,95.0293341 41.544,94.88 C41.477333,94.7306659 41.444,94.5706675 41.444,94.4 C41.444,94.2239991 41.477333,94.0586674 41.544,93.904 C41.610667,93.7493326 41.6999994,93.6160006 41.812,93.504 C41.9240006,93.3919994 42.0559992,93.302667 42.208,93.236 C42.3600008,93.169333 42.5213325,93.136 42.692,93.136 C42.8680009,93.136 43.0333326,93.169333 43.188,93.236 C43.3426674,93.302667 43.4773328,93.3919994 43.592,93.504 C43.7066672,93.6160006 43.7986663,93.7493326 43.868,93.904 C43.9373337,94.0586674 43.972,94.2239991 43.972,94.4 Z M49.3,96.664 C49.8173359,96.664 50.2933312,96.7466658 50.728,96.912 C51.1626688,97.0773342 51.5373318,97.3186651 51.852,97.636 C52.1666682,97.9533349 52.4119991,98.3426644 52.588,98.804 C52.7640009,99.2653356 52.852,99.791997 52.852,100.384 C52.852,100.533334 52.8453334,100.657333 52.832,100.756 C52.8186666,100.854667 52.7946668,100.932 52.76,100.988 C52.7253332,101.044 52.678667,101.084 52.62,101.108 C52.561333,101.132 52.4866671,101.144 52.396,101.144 L47.324,101.144 C47.382667,101.986671 47.6093314,102.605331 48.004,103 C48.3986686,103.394669 48.9213301,103.592 49.572,103.592 C49.8920016,103.592 50.1679988,103.554667 50.4,103.48 C50.6320012,103.405333 50.8346658,103.322667 51.008,103.232 C51.1813342,103.141333 51.3333327,103.058667 51.464,102.984 C51.5946673,102.909333 51.7213327,102.872 51.844,102.872 C51.9240004,102.872 51.993333,102.888 52.052,102.92 C52.110667,102.952 52.1613331,102.997333 52.204,103.056 L52.78,103.776 C52.5613322,104.032001 52.3160014,104.246666 52.044,104.42 C51.7719986,104.593334 51.4880015,104.731999 51.192,104.836 C50.8959985,104.940001 50.5946682,105.013333 50.288,105.056 C49.9813318,105.098667 49.6840014,105.12 49.396,105.12 C48.8253305,105.12 48.2946691,105.025334 47.804,104.836 C47.3133309,104.646666 46.8866685,104.366669 46.524,103.996 C46.1613315,103.625331 45.876001,103.166669 45.668,102.62 C45.459999,102.073331 45.356,101.440004 45.356,100.72 C45.356,100.159997 45.4466658,99.6333358 45.628,99.14 C45.8093342,98.6466642 46.0693316,98.2173352 46.408,97.852 C46.7466684,97.4866648 47.1599976,97.1973344 47.648,96.984 C48.1360024,96.7706656 48.6866636,96.664 49.3,96.664 Z M49.34,98.08 C48.7639971,98.08 48.313335,98.242665 47.988,98.568 C47.662665,98.893335 47.4546671,99.3546637 47.364,99.952 L51.076,99.952 C51.076,99.6959987 51.0413337,99.4546678 50.972,99.228 C50.9026663,99.0013322 50.7960007,98.8026675 50.652,98.632 C50.5079993,98.4613325 50.3266678,98.3266672 50.108,98.228 C49.8893322,98.1293328 49.6333348,98.08 49.34,98.08 Z M57.156,105.128 C56.4466631,105.128 55.9000019,104.926669 55.516,104.524 C55.1319981,104.121331 54.94,103.565337 54.94,102.856 L54.94,98.272 L54.108,98.272 C54.0013328,98.272 53.9093337,98.2373337 53.832,98.168 C53.7546663,98.0986663 53.716,97.9946674 53.716,97.856 L53.716,97.072 L55.036,96.856 L55.452,94.616 C55.4733334,94.5093328 55.5226663,94.426667 55.6,94.368 C55.6773337,94.309333 55.7746661,94.28 55.892,94.28 L56.916,94.28 L56.916,96.864 L59.076,96.864 L59.076,98.272 L56.916,98.272 L56.916,102.72 C56.916,102.976001 56.9799994,103.175999 57.108,103.32 C57.2360006,103.464001 57.4066656,103.536 57.62,103.536 C57.7426673,103.536 57.8453329,103.521333 57.928,103.492 C58.0106671,103.462667 58.0826664,103.432 58.144,103.4 C58.2053336,103.368 58.2599998,103.337333 58.308,103.308 C58.3560002,103.278667 58.4039998,103.264 58.452,103.264 C58.510667,103.264 58.5586665,103.278667 58.596,103.308 C58.6333335,103.337333 58.6733331,103.381333 58.716,103.44 L59.308,104.4 C59.0199986,104.640001 58.6893352,104.821333 58.316,104.944 C57.9426648,105.066667 57.556002,105.128 57.156,105.128 Z M64.156,96.664 C64.7693364,96.664 65.3253308,96.7626657 65.824,96.96 C66.3226692,97.1573343 66.7479982,97.4373315 67.1,97.8 C67.4520018,98.1626685 67.723999,98.6053307 67.916,99.128 C68.108001,99.6506693 68.204,100.234663 68.204,100.88 C68.204,101.53067 68.108001,102.117331 67.916,102.64 C67.723999,103.162669 67.4520018,103.607998 67.1,103.976 C66.7479982,104.344002 66.3226692,104.626666 65.824,104.824 C65.3253308,105.021334 64.7693364,105.12 64.156,105.12 C63.5426636,105.12 62.9853358,105.021334 62.484,104.824 C61.9826642,104.626666 61.5546684,104.344002 61.2,103.976 C60.8453316,103.607998 60.5706676,103.162669 60.376,102.64 C60.1813324,102.117331 60.084,101.53067 60.084,100.88 C60.084,100.234663 60.1813324,99.6506693 60.376,99.128 C60.5706676,98.6053307 60.8453316,98.1626685 61.2,97.8 C61.5546684,97.4373315 61.9826642,97.1573343 62.484,96.96 C62.9853358,96.7626657 63.5426636,96.664 64.156,96.664 Z M64.156,103.6 C64.8386701,103.6 65.3439984,103.370669 65.672,102.912 C66.0000016,102.453331 66.164,101.781338 66.164,100.896 C66.164,100.010662 66.0000016,99.3360023 65.672,98.872 C65.3439984,98.4079977 64.8386701,98.176 64.156,98.176 C63.4626632,98.176 62.9506683,98.409331 62.62,98.876 C62.2893317,99.342669 62.124,100.015996 62.124,100.896 C62.124,101.776004 62.2893317,102.446664 62.62,102.908 C62.9506683,103.369336 63.4626632,103.6 64.156,103.6 Z M69.748,105 L69.748,96.792 L70.908,96.792 C71.1106677,96.792 71.2519996,96.829333 71.332,96.904 C71.4120004,96.978667 71.4653332,97.1066658 71.492,97.288 L71.612,98.28 C71.9053348,97.7733308 72.2493314,97.3733348 72.644,97.08 C73.0386686,96.7866652 73.4813309,96.64 73.972,96.64 C74.3773354,96.64 74.713332,96.7333324 74.98,96.92 L74.724,98.4 C74.7079999,98.4960005 74.6733336,98.5639998 74.62,98.604 C74.5666664,98.6440002 74.4946671,98.664 74.404,98.664 C74.3239996,98.664 74.2146674,98.6453335 74.076,98.608 C73.9373326,98.5706665 73.7533345,98.552 73.524,98.552 C73.1133313,98.552 72.7613348,98.6653322 72.468,98.892 C72.1746652,99.1186678 71.9266677,99.4506645 71.724,99.888 L71.724,105 L69.748,105 Z M81.156,98.392 C81.1026664,98.4773338 81.046667,98.5373332 80.988,98.572 C80.929333,98.6066668 80.8546671,98.624 80.764,98.624 C80.6679995,98.624 80.5653339,98.5973336 80.456,98.544 C80.3466661,98.4906664 80.2200007,98.430667 80.076,98.364 C79.9319993,98.297333 79.7680009,98.2373336 79.584,98.184 C79.3999991,98.1306664 79.1826679,98.104 78.932,98.104 C78.5426647,98.104 78.2360011,98.1866658 78.012,98.352 C77.7879989,98.5173342 77.676,98.733332 77.676,99 C77.676,99.1760009 77.7333328,99.3239994 77.848,99.444 C77.9626672,99.5640006 78.1146657,99.6693329 78.304,99.76 C78.4933343,99.8506671 78.7079988,99.9319996 78.948,100.004 C79.1880012,100.076 79.4333321,100.154666 79.684,100.24 C79.9346679,100.325334 80.1799988,100.422666 80.42,100.532 C80.6600012,100.641334 80.8746657,100.779999 81.064,100.948 C81.2533343,101.116001 81.4053328,101.317332 81.52,101.552 C81.6346672,101.786668 81.692,102.069332 81.692,102.4 C81.692,102.794669 81.6200007,103.158665 81.476,103.492 C81.3319993,103.825335 81.1213347,104.113332 80.844,104.356 C80.5666653,104.598668 80.224002,104.787999 79.816,104.924 C79.407998,105.060001 78.9400026,105.128 78.412,105.128 C78.1293319,105.128 77.8533347,105.102667 77.584,105.052 C77.3146653,105.001333 77.0560012,104.930667 76.808,104.84 C76.5599988,104.749333 76.3306677,104.642667 76.12,104.52 C75.9093323,104.397333 75.7240008,104.264001 75.564,104.12 L76.02,103.368 C76.078667,103.277333 76.1479996,103.208 76.228,103.16 C76.3080004,103.112 76.4093327,103.088 76.532,103.088 C76.6546673,103.088 76.7706661,103.122666 76.88,103.192 C76.9893339,103.261334 77.1159993,103.336 77.26,103.416 C77.4040007,103.496 77.5733324,103.570666 77.768,103.64 C77.9626676,103.709334 78.2093318,103.744 78.508,103.744 C78.7426678,103.744 78.9439992,103.716 79.112,103.66 C79.2800008,103.604 79.4186661,103.530667 79.528,103.44 C79.6373339,103.349333 79.7173331,103.244001 79.768,103.124 C79.8186669,103.003999 79.844,102.880001 79.844,102.752 C79.844,102.559999 79.7866672,102.402667 79.672,102.28 C79.5573328,102.157333 79.4053343,102.050667 79.216,101.96 C79.0266657,101.869333 78.8106679,101.788 78.568,101.716 C78.3253321,101.644 78.0773346,101.565334 77.824,101.48 C77.5706654,101.394666 77.3226679,101.294667 77.08,101.18 C76.8373321,101.065333 76.6213343,100.920001 76.432,100.744 C76.2426657,100.567999 76.0906672,100.352001 75.976,100.096 C75.8613328,99.8399987 75.804,99.5306685 75.804,99.168 C75.804,98.8319983 75.870666,98.5120015 76.004,98.208 C76.137334,97.9039985 76.333332,97.6386678 76.592,97.412 C76.850668,97.1853322 77.1733314,97.0040007 77.56,96.868 C77.9466686,96.7319993 78.3933308,96.664 78.9,96.664 C79.4653362,96.664 79.9799977,96.7573324 80.444,96.944 C80.9080023,97.1306676 81.2946651,97.3759985 81.604,97.68 L81.156,98.392 Z M83.276,105 L83.276,93.112 L85.252,93.112 L85.252,97.68 C85.5720016,97.3759985 85.9239981,97.1306676 86.308,96.944 C86.6920019,96.7573324 87.1426641,96.664 87.66,96.664 C88.1080022,96.664 88.5053316,96.7399992 88.852,96.892 C89.1986684,97.0440008 89.4879988,97.257332 89.72,97.532 C89.9520012,97.806668 90.1279994,98.1346648 90.248,98.516 C90.3680006,98.8973352 90.428,99.317331 90.428,99.776 L90.428,105 L88.452,105 L88.452,99.776 C88.452,99.2746642 88.3360012,98.886668 88.104,98.612 C87.8719988,98.337332 87.5240023,98.2 87.06,98.2 C86.718665,98.2 86.3986682,98.2773326 86.1,98.432 C85.8013318,98.5866674 85.518668,98.797332 85.252,99.064 L85.252,105 L83.276,105 Z M94.476,96.792 L94.476,105 L92.5,105 L92.5,96.792 L94.476,96.792 Z M94.772,94.4 C94.772,94.5706675 94.7373337,94.7306659 94.668,94.88 C94.5986663,95.0293341 94.5066672,95.1599994 94.392,95.272 C94.2773328,95.3840006 94.1426674,95.473333 93.988,95.54 C93.8333326,95.606667 93.6680009,95.64 93.492,95.64 C93.3213325,95.64 93.1600008,95.606667 93.008,95.54 C92.8559992,95.473333 92.7240006,95.3840006 92.612,95.272 C92.4999994,95.1599994 92.410667,95.0293341 92.344,94.88 C92.277333,94.7306659 92.244,94.5706675 92.244,94.4 C92.244,94.2239991 92.277333,94.0586674 92.344,93.904 C92.410667,93.7493326 92.4999994,93.6160006 92.612,93.504 C92.7240006,93.3919994 92.8559992,93.302667 93.008,93.236 C93.1600008,93.169333 93.3213325,93.136 93.492,93.136 C93.6680009,93.136 93.8333326,93.169333 93.988,93.236 C94.1426674,93.302667 94.2773328,93.3919994 94.392,93.504 C94.5066672,93.6160006 94.5986663,93.7493326 94.668,93.904 C94.7373337,94.0586674 94.772,94.2239991 94.772,94.4 Z M96.708,107.68 L96.708,96.792 L97.916,96.792 C98.0440006,96.792 98.1533329,96.821333 98.244,96.88 C98.3346671,96.938667 98.3933332,97.0293327 98.42,97.152 L98.58,97.912 C98.9106683,97.5333314 99.2906645,97.2266678 99.72,96.992 C100.149335,96.7573322 100.651997,96.64 101.228,96.64 C101.676002,96.64 102.085331,96.7333324 102.456,96.92 C102.826669,97.1066676 103.146665,97.3773316 103.416,97.732 C103.685335,98.0866684 103.893333,98.5239974 104.04,99.044 C104.186667,99.5640026 104.26,100.159997 104.26,100.832 C104.26,101.445336 104.177334,102.013331 104.012,102.536 C103.846666,103.058669 103.610668,103.511998 103.304,103.896 C102.997332,104.280002 102.626669,104.579999 102.192,104.796 C101.757331,105.012001 101.270669,105.12 100.732,105.12 C100.267998,105.12 99.8746683,105.049334 99.552,104.908 C99.2293317,104.766666 98.9400013,104.570668 98.684,104.32 L98.684,107.68 L96.708,107.68 Z M100.548,98.2 C100.137331,98.2 99.7866681,98.2866658 99.496,98.46 C99.2053319,98.6333342 98.9346679,98.8773318 98.684,99.192 L98.684,102.872 C98.9080011,103.149335 99.1519987,103.342666 99.416,103.452 C99.6800013,103.561334 99.9639985,103.616 100.268,103.616 C100.566668,103.616 100.837332,103.560001 101.08,103.448 C101.322668,103.335999 101.527999,103.165334 101.696,102.936 C101.864001,102.706666 101.993333,102.417335 102.084,102.068 C102.174667,101.718665 102.22,101.306669 102.22,100.832 C102.22,100.351998 102.181334,99.945335 102.104,99.612 C102.026666,99.278665 101.916001,99.008001 101.772,98.8 C101.627999,98.591999 101.453334,98.4400005 101.248,98.344 C101.042666,98.2479995 100.809335,98.2 100.548,98.2 Z" id="Sole-Proprietorship"></path>
            <g id="Page-1" transform="translate(25.000000, 0.000000)">
                <path d="M37.3696364,32.5410144 C37.2993014,35.7520191 32.5397799,38.3429282 26.6795885,38.3429282 C20.8176746,38.3429282 16.0598756,35.7520191 15.9904019,32.5410144 C7.02370335,33.3600574 -2.8708134e-05,40.8991005 -2.8708134e-05,50.077378 C-2.8708134e-05,59.7563254 7.80628708,59.7804402 17.4642775,59.7804402 L17.6109761,59.7804402 L35.748201,59.7804402 L35.89289,59.7804402 C45.5514545,59.7804402 53.3574833,59.7563254 53.3574833,50.077378 C53.3589187,40.8991005 46.336622,33.3600574 37.3696364,32.5410144" id="Fill-1"></path>
                <path d="M18.3676077,8.97470813 C18.3676077,8.97470813 22.2455024,10.8582488 26.6794737,10.978823 C31.1131579,10.8582488 34.9927751,8.97470813 34.9927751,8.97470813 C37.8021531,10.0839904 36.4706699,17.9864785 36.4706699,17.9876268 C37.1731579,17.4981531 37.8156459,17.2432249 38.3404306,17.1117416 C37.5676077,25.5117416 32.6430144,31.9877225 26.6794737,31.9877225 C20.7176555,31.9877225 15.7910526,25.5117416 15.0185167,17.1117416 C15.5430144,17.2432249 16.1869378,17.4981531 16.8882775,17.9876268 C16.8882775,17.9864785 15.5579426,10.0839904 18.3676077,8.97470813 M13.3588995,16.6237033 C13.3666507,16.7497321 13.3789952,16.8771962 13.3899043,17.0032249 C14.2385167,26.6181531 19.8644498,34.0460957 26.6794737,34.0460957 C33.4942105,34.0460957 39.1201435,26.6170048 39.9690431,17.0032249 C39.9811005,16.8771962 39.9920096,16.7497321 40.0014833,16.6237033 C40.0611962,16.206 40.1019617,15.7828421 40.1263636,15.3559522 C40.1438756,15.0628421 40.1550718,14.7685837 40.1550718,14.4717416 C40.1550718,13.7396842 40.1019617,13.0208325 40.0014833,12.3197799 C39.015933,5.50762679 33.4264593,0.287052632 26.6794737,0.287052632 C19.932201,0.287052632 14.3430144,5.50762679 13.3588995,12.3197799 C13.2569856,13.0222679 13.2055981,13.7408325 13.2055981,14.4717416 C13.2055981,14.7685837 13.2165072,15.0628421 13.2325837,15.3559522 C13.2569856,15.7828421 13.2977512,16.206 13.3588995,16.6237033" id="Fill-4"></path>
            </g>
        </g>
    </g>
</svg>