<?xml version="1.0" encoding="UTF-8" standalone="no"?>
<svg width="90px" height="80px" viewBox="0 0 105 108" version="1.1" xmlns="http://www.w3.org/2000/svg" xmlns:xlink="http://www.w3.org/1999/xlink">
    <!-- Generator: Sketch 48.2 (47327) - http://www.bohemiancoding.com/sketch -->
    <title>Sole_Proprietorship</title>
    <desc>Created with Sketch.</desc>
    <defs></defs>
    <g id="Page3-Copy" stroke="none" stroke-width="1" fill="none" fill-rule="evenodd" transform="translate(-211.000000, -154.000000)">
        <g id="Sole_Proprietorship" transform="translate(210.000000, 154.000000)">
            <path d="M45.084,76.536 C45.025333,76.6533339 44.9573337,76.7359998 44.88,76.784 C44.8026663,76.8320002 44.7106672,76.856 44.604,76.856 C44.4973328,76.856 44.377334,76.8146671 44.244,76.732 C44.110666,76.6493329 43.9533342,76.5573338 43.772,76.456 C43.5906658,76.3546662 43.3786679,76.2626671 43.136,76.18 C42.8933321,76.0973329 42.6066683,76.056 42.276,76.056 C41.9773318,76.056 41.7173344,76.0919996 41.496,76.164 C41.2746656,76.2360004 41.0880008,76.3359994 40.936,76.464 C40.7839992,76.5920006 40.670667,76.7453324 40.596,76.924 C40.521333,77.1026676 40.484,77.2986656 40.484,77.512 C40.484,77.7840014 40.5599992,78.0106658 40.712,78.192 C40.8640008,78.3733342 41.0653321,78.5279994 41.316,78.656 C41.5666679,78.7840006 41.8519984,78.8986662 42.172,79 C42.4920016,79.1013338 42.818665,79.2093328 43.152,79.324 C43.485335,79.4386672 43.8119984,79.5719992 44.132,79.724 C44.4520016,79.8760008 44.7373321,80.0679988 44.988,80.3 C45.2386679,80.5320012 45.4399992,80.8159983 45.592,81.152 C45.7440008,81.4880017 45.82,81.8959976 45.82,82.376 C45.82,82.8986693 45.7306676,83.3879977 45.552,83.844 C45.3733324,84.3000023 45.1120017,84.6973316 44.768,85.036 C44.4239983,85.3746684 44.0040025,85.6413324 43.508,85.836 C43.0119975,86.0306676 42.4440032,86.128 41.804,86.128 C41.4359982,86.128 41.0733351,86.0920004 40.716,86.02 C40.3586649,85.9479996 40.0160016,85.845334 39.688,85.712 C39.3599984,85.578666 39.0533348,85.4186676 38.768,85.232 C38.4826652,85.0453324 38.2280011,84.8373345 38.004,84.608 L38.628,83.576 C38.686667,83.501333 38.7573329,83.4386669 38.84,83.388 C38.9226671,83.3373331 39.0146662,83.312 39.116,83.312 C39.249334,83.312 39.3933326,83.3666661 39.548,83.476 C39.7026674,83.5853339 39.8853323,83.706666 40.096,83.84 C40.3066677,83.973334 40.5546652,84.0946661 40.84,84.204 C41.1253348,84.3133339 41.467998,84.368 41.868,84.368 C42.4813364,84.368 42.9559983,84.2226681 43.292,83.932 C43.6280017,83.6413319 43.796,83.2240027 43.796,82.68 C43.796,82.3759985 43.7200008,82.128001 43.568,81.936 C43.4159992,81.743999 43.2146679,81.5826673 42.964,81.452 C42.7133321,81.3213327 42.4280016,81.2106671 42.108,81.12 C41.7879984,81.0293329 41.4626683,80.9306672 41.132,80.824 C40.8013317,80.7173328 40.4760016,80.5893341 40.156,80.44 C39.8359984,80.2906659 39.5506679,80.0960012 39.3,79.856 C39.0493321,79.6159988 38.8480008,79.3160018 38.696,78.956 C38.5439992,78.5959982 38.468,78.1520026 38.468,77.624 C38.468,77.2026646 38.5519992,76.792002 38.72,76.392 C38.8880008,75.991998 39.1333317,75.6373349 39.456,75.328 C39.7786683,75.0186651 40.1746643,74.7706676 40.644,74.584 C41.1133357,74.3973324 41.6493303,74.304 42.252,74.304 C42.9346701,74.304 43.5639971,74.4106656 44.14,74.624 C44.7160029,74.8373344 45.2066646,75.1359981 45.612,75.52 L45.084,76.536 Z M50.86,77.664 C51.4733364,77.664 52.0293308,77.7626657 52.528,77.96 C53.0266692,78.1573343 53.4519982,78.4373315 53.804,78.8 C54.1560018,79.1626685 54.427999,79.6053307 54.62,80.128 C54.812001,80.6506693 54.908,81.2346634 54.908,81.88 C54.908,82.5306699 54.812001,83.1173307 54.62,83.64 C54.427999,84.1626693 54.1560018,84.6079982 53.804,84.976 C53.4519982,85.3440018 53.0266692,85.6266657 52.528,85.824 C52.0293308,86.0213343 51.4733364,86.12 50.86,86.12 C50.2466636,86.12 49.6893358,86.0213343 49.188,85.824 C48.6866642,85.6266657 48.2586684,85.3440018 47.904,84.976 C47.5493316,84.6079982 47.2746676,84.1626693 47.08,83.64 C46.8853324,83.1173307 46.788,82.5306699 46.788,81.88 C46.788,81.2346634 46.8853324,80.6506693 47.08,80.128 C47.2746676,79.6053307 47.5493316,79.1626685 47.904,78.8 C48.2586684,78.4373315 48.6866642,78.1573343 49.188,77.96 C49.6893358,77.7626657 50.2466636,77.664 50.86,77.664 Z M50.86,84.6 C51.5426701,84.6 52.0479984,84.370669 52.376,83.912 C52.7040016,83.453331 52.868,82.7813378 52.868,81.896 C52.868,81.0106622 52.7040016,80.3360023 52.376,79.872 C52.0479984,79.4079977 51.5426701,79.176 50.86,79.176 C50.1666632,79.176 49.6546683,79.409331 49.324,79.876 C48.9933317,80.342669 48.828,81.0159956 48.828,81.896 C48.828,82.7760044 48.9933317,83.4466644 49.324,83.908 C49.6546683,84.3693356 50.1666632,84.6 50.86,84.6 Z M58.556,74.112 L58.556,86 L56.58,86 L56.58,74.112 L58.556,74.112 Z M64.18,77.664 C64.6973359,77.664 65.1733312,77.7466658 65.608,77.912 C66.0426688,78.0773342 66.4173318,78.3186651 66.732,78.636 C67.0466682,78.9533349 67.2919991,79.3426644 67.468,79.804 C67.6440009,80.2653356 67.732,80.791997 67.732,81.384 C67.732,81.5333341 67.7253334,81.6573328 67.712,81.756 C67.6986666,81.8546672 67.6746668,81.9319997 67.64,81.988 C67.6053332,82.0440003 67.558667,82.0839999 67.5,82.108 C67.441333,82.1320001 67.3666671,82.144 67.276,82.144 L62.204,82.144 C62.262667,82.9866709 62.4893314,83.6053314 62.884,84 C63.2786686,84.3946686 63.8013301,84.592 64.452,84.592 C64.7720016,84.592 65.0479988,84.554667 65.28,84.48 C65.5120012,84.405333 65.7146658,84.3226671 65.888,84.232 C66.0613342,84.1413329 66.2133327,84.058667 66.344,83.984 C66.4746673,83.909333 66.6013327,83.872 66.724,83.872 C66.8040004,83.872 66.873333,83.8879998 66.932,83.92 C66.990667,83.9520002 67.0413331,83.997333 67.084,84.056 L67.66,84.776 C67.4413322,85.0320013 67.1960014,85.2466658 66.924,85.42 C66.6519986,85.5933342 66.3680015,85.7319995 66.072,85.836 C65.7759985,85.9400005 65.4746682,86.0133331 65.168,86.056 C64.8613318,86.0986669 64.5640014,86.12 64.276,86.12 C63.7053305,86.12 63.1746691,86.0253343 62.684,85.836 C62.1933309,85.6466657 61.7666685,85.3666685 61.404,84.996 C61.0413315,84.6253315 60.756001,84.1666694 60.548,83.62 C60.339999,83.0733306 60.236,82.4400036 60.236,81.72 C60.236,81.1599972 60.3266658,80.6333358 60.508,80.14 C60.6893342,79.6466642 60.9493316,79.2173352 61.288,78.852 C61.6266684,78.4866648 62.0399976,78.1973344 62.528,77.984 C63.0160024,77.7706656 63.5666636,77.664 64.18,77.664 Z M64.22,79.08 C63.6439971,79.08 63.193335,79.242665 62.868,79.568 C62.542665,79.893335 62.3346671,80.3546637 62.244,80.952 L65.956,80.952 C65.956,80.6959987 65.9213337,80.4546678 65.852,80.228 C65.7826663,80.0013322 65.6760007,79.8026675 65.532,79.632 C65.3879993,79.4613325 65.2066678,79.3266672 64.988,79.228 C64.7693322,79.1293328 64.5133348,79.08 64.22,79.08 Z M3.692,100.928 L3.692,105 L1.54,105 L1.54,93.432 L5.308,93.432 C6.0813372,93.432 6.75066384,93.5226658 7.316,93.704 C7.88133616,93.8853342 8.34799816,94.138665 8.716,94.464 C9.08400184,94.789335 9.35599912,95.1786644 9.532,95.632 C9.70800088,96.0853356 9.796,96.5813306 9.796,97.12 C9.796,97.6800028 9.7026676,98.193331 9.516,98.66 C9.3293324,99.126669 9.0493352,99.5279983 8.676,99.864 C8.3026648,100.200002 7.8360028,100.461332 7.276,100.648 C6.7159972,100.834668 6.06000376,100.928 5.308,100.928 L3.692,100.928 Z M3.692,99.248 L5.308,99.248 C5.70266864,99.248 6.0466652,99.1986672 6.34,99.1 C6.6333348,99.0013328 6.87599904,98.8600009 7.068,98.676 C7.26000096,98.4919991 7.40399952,98.2680013 7.5,98.004 C7.59600048,97.7399987 7.644,97.445335 7.644,97.12 C7.644,96.8106651 7.59600048,96.5306679 7.5,96.28 C7.40399952,96.0293321 7.26000096,95.8160009 7.068,95.64 C6.87599904,95.4639991 6.6333348,95.3293338 6.34,95.236 C6.0466652,95.1426662 5.70266864,95.096 5.308,95.096 L3.692,95.096 L3.692,99.248 Z M11.356,105 L11.356,96.792 L12.516,96.792 C12.7186677,96.792 12.8599996,96.829333 12.94,96.904 C13.0200004,96.978667 13.0733332,97.1066658 13.1,97.288 L13.22,98.28 C13.5133348,97.7733308 13.8573314,97.3733348 14.252,97.08 C14.6466686,96.7866652 15.0893309,96.64 15.58,96.64 C15.9853354,96.64 16.321332,96.7333324 16.588,96.92 L16.332,98.4 C16.3159999,98.4960005 16.2813336,98.5639998 16.228,98.604 C16.1746664,98.6440002 16.1026671,98.664 16.012,98.664 C15.9319996,98.664 15.8226674,98.6453335 15.684,98.608 C15.5453326,98.5706665 15.3613345,98.552 15.132,98.552 C14.7213313,98.552 14.3693348,98.6653322 14.076,98.892 C13.7826652,99.1186678 13.5346677,99.4506645 13.332,99.888 L13.332,105 L11.356,105 Z M21.396,96.664 C22.0093364,96.664 22.5653308,96.7626657 23.064,96.96 C23.5626692,97.1573343 23.9879982,97.4373315 24.34,97.8 C24.6920018,98.1626685 24.963999,98.6053307 25.156,99.128 C25.348001,99.6506693 25.444,100.234663 25.444,100.88 C25.444,101.53067 25.348001,102.117331 25.156,102.64 C24.963999,103.162669 24.6920018,103.607998 24.34,103.976 C23.9879982,104.344002 23.5626692,104.626666 23.064,104.824 C22.5653308,105.021334 22.0093364,105.12 21.396,105.12 C20.7826636,105.12 20.2253358,105.021334 19.724,104.824 C19.2226642,104.626666 18.7946684,104.344002 18.44,103.976 C18.0853316,103.607998 17.8106676,103.162669 17.616,102.64 C17.4213324,102.117331 17.324,101.53067 17.324,100.88 C17.324,100.234663 17.4213324,99.6506693 17.616,99.128 C17.8106676,98.6053307 18.0853316,98.1626685 18.44,97.8 C18.7946684,97.4373315 19.2226642,97.1573343 19.724,96.96 C20.2253358,96.7626657 20.7826636,96.664 21.396,96.664 Z M21.396,103.6 C22.0786701,103.6 22.5839984,103.370669 22.912,102.912 C23.2400016,102.453331 23.404,101.781338 23.404,100.896 C23.404,100.010662 23.2400016,99.3360023 22.912,98.872 C22.5839984,98.4079977 22.0786701,98.176 21.396,98.176 C20.7026632,98.176 20.1906683,98.409331 19.86,98.876 C19.5293317,99.342669 19.364,100.015996 19.364,100.896 C19.364,101.776004 19.5293317,102.446664 19.86,102.908 C20.1906683,103.369336 20.7026632,103.6 21.396,103.6 Z M26.988,107.68 L26.988,96.792 L28.196,96.792 C28.3240006,96.792 28.4333329,96.821333 28.524,96.88 C28.6146671,96.938667 28.6733332,97.0293327 28.7,97.152 L28.86,97.912 C29.1906683,97.5333314 29.5706645,97.2266678 30,96.992 C30.4293355,96.7573322 30.9319971,96.64 31.508,96.64 C31.9560022,96.64 32.3653315,96.7333324 32.736,96.92 C33.1066685,97.1066676 33.4266653,97.3773316 33.696,97.732 C33.9653347,98.0866684 34.1733326,98.5239974 34.32,99.044 C34.4666674,99.5640026 34.54,100.159997 34.54,100.832 C34.54,101.445336 34.4573342,102.013331 34.292,102.536 C34.1266658,103.058669 33.8906682,103.511998 33.584,103.896 C33.2773318,104.280002 32.9066688,104.579999 32.472,104.796 C32.0373312,105.012001 31.5506694,105.12 31.012,105.12 C30.5479977,105.12 30.1546683,105.049334 29.832,104.908 C29.5093317,104.766666 29.2200013,104.570668 28.964,104.32 L28.964,107.68 L26.988,107.68 Z M30.828,98.2 C30.4173313,98.2 30.0666681,98.2866658 29.776,98.46 C29.4853319,98.6333342 29.2146679,98.8773318 28.964,99.192 L28.964,102.872 C29.1880011,103.149335 29.4319987,103.342666 29.696,103.452 C29.9600013,103.561334 30.2439985,103.616 30.548,103.616 C30.8466682,103.616 31.1173321,103.560001 31.36,103.448 C31.6026679,103.335999 31.8079992,103.165334 31.976,102.936 C32.1440008,102.706666 32.2733329,102.417335 32.364,102.068 C32.4546671,101.718665 32.5,101.306669 32.5,100.832 C32.5,100.351998 32.4613337,99.945335 32.384,99.612 C32.3066663,99.278665 32.1960007,99.008001 32.052,98.8 C31.9079993,98.591999 31.7333344,98.4400005 31.528,98.344 C31.3226656,98.2479995 31.0893346,98.2 30.828,98.2 Z M36.036,105 L36.036,96.792 L37.196,96.792 C37.3986677,96.792 37.5399996,96.829333 37.62,96.904 C37.7000004,96.978667 37.7533332,97.1066658 37.78,97.288 L37.9,98.28 C38.1933348,97.7733308 38.5373314,97.3733348 38.932,97.08 C39.3266686,96.7866652 39.7693309,96.64 40.26,96.64 C40.6653354,96.64 41.001332,96.7333324 41.268,96.92 L41.012,98.4 C40.9959999,98.4960005 40.9613336,98.5639998 40.908,98.604 C40.8546664,98.6440002 40.7826671,98.664 40.692,98.664 C40.6119996,98.664 40.5026674,98.6453335 40.364,98.608 C40.2253326,98.5706665 40.0413345,98.552 39.812,98.552 C39.4013313,98.552 39.0493348,98.6653322 38.756,98.892 C38.4626652,99.1186678 38.2146677,99.4506645 38.012,99.888 L38.012,105 L36.036,105 Z M44.676,96.792 L44.676,105 L42.7,105 L42.7,96.792 L44.676,96.792 Z M44.972,94.4 C44.972,94.5706675 44.9373337,94.7306659 44.868,94.88 C44.7986663,95.0293341 44.7066672,95.1599994 44.592,95.272 C44.4773328,95.3840006 44.3426674,95.473333 44.188,95.54 C44.0333326,95.606667 43.8680009,95.64 43.692,95.64 C43.5213325,95.64 43.3600008,95.606667 43.208,95.54 C43.0559992,95.473333 42.9240006,95.3840006 42.812,95.272 C42.6999994,95.1599994 42.610667,95.0293341 42.544,94.88 C42.477333,94.7306659 42.444,94.5706675 42.444,94.4 C42.444,94.2239991 42.477333,94.0586674 42.544,93.904 C42.610667,93.7493326 42.6999994,93.6160006 42.812,93.504 C42.9240006,93.3919994 43.0559992,93.302667 43.208,93.236 C43.3600008,93.169333 43.5213325,93.136 43.692,93.136 C43.8680009,93.136 44.0333326,93.169333 44.188,93.236 C44.3426674,93.302667 44.4773328,93.3919994 44.592,93.504 C44.7066672,93.6160006 44.7986663,93.7493326 44.868,93.904 C44.9373337,94.0586674 44.972,94.2239991 44.972,94.4 Z M50.3,96.664 C50.8173359,96.664 51.2933312,96.7466658 51.728,96.912 C52.1626688,97.0773342 52.5373318,97.3186651 52.852,97.636 C53.1666682,97.9533349 53.4119991,98.3426644 53.588,98.804 C53.7640009,99.2653356 53.852,99.791997 53.852,100.384 C53.852,100.533334 53.8453334,100.657333 53.832,100.756 C53.8186666,100.854667 53.7946668,100.932 53.76,100.988 C53.7253332,101.044 53.678667,101.084 53.62,101.108 C53.561333,101.132 53.4866671,101.144 53.396,101.144 L48.324,101.144 C48.382667,101.986671 48.6093314,102.605331 49.004,103 C49.3986686,103.394669 49.9213301,103.592 50.572,103.592 C50.8920016,103.592 51.1679988,103.554667 51.4,103.48 C51.6320012,103.405333 51.8346658,103.322667 52.008,103.232 C52.1813342,103.141333 52.3333327,103.058667 52.464,102.984 C52.5946673,102.909333 52.7213327,102.872 52.844,102.872 C52.9240004,102.872 52.993333,102.888 53.052,102.92 C53.110667,102.952 53.1613331,102.997333 53.204,103.056 L53.78,103.776 C53.5613322,104.032001 53.3160014,104.246666 53.044,104.42 C52.7719986,104.593334 52.4880015,104.731999 52.192,104.836 C51.8959985,104.940001 51.5946682,105.013333 51.288,105.056 C50.9813318,105.098667 50.6840014,105.12 50.396,105.12 C49.8253305,105.12 49.2946691,105.025334 48.804,104.836 C48.3133309,104.646666 47.8866685,104.366669 47.524,103.996 C47.1613315,103.625331 46.876001,103.166669 46.668,102.62 C46.459999,102.073331 46.356,101.440004 46.356,100.72 C46.356,100.159997 46.4466658,99.6333358 46.628,99.14 C46.8093342,98.6466642 47.0693316,98.2173352 47.408,97.852 C47.7466684,97.4866648 48.1599976,97.1973344 48.648,96.984 C49.1360024,96.7706656 49.6866636,96.664 50.3,96.664 Z M50.34,98.08 C49.7639971,98.08 49.313335,98.242665 48.988,98.568 C48.662665,98.893335 48.4546671,99.3546637 48.364,99.952 L52.076,99.952 C52.076,99.6959987 52.0413337,99.4546678 51.972,99.228 C51.9026663,99.0013322 51.7960007,98.8026675 51.652,98.632 C51.5079993,98.4613325 51.3266678,98.3266672 51.108,98.228 C50.8893322,98.1293328 50.6333348,98.08 50.34,98.08 Z M58.156,105.128 C57.4466631,105.128 56.9000019,104.926669 56.516,104.524 C56.1319981,104.121331 55.94,103.565337 55.94,102.856 L55.94,98.272 L55.108,98.272 C55.0013328,98.272 54.9093337,98.2373337 54.832,98.168 C54.7546663,98.0986663 54.716,97.9946674 54.716,97.856 L54.716,97.072 L56.036,96.856 L56.452,94.616 C56.4733334,94.5093328 56.5226663,94.426667 56.6,94.368 C56.6773337,94.309333 56.7746661,94.28 56.892,94.28 L57.916,94.28 L57.916,96.864 L60.076,96.864 L60.076,98.272 L57.916,98.272 L57.916,102.72 C57.916,102.976001 57.9799994,103.175999 58.108,103.32 C58.2360006,103.464001 58.4066656,103.536 58.62,103.536 C58.7426673,103.536 58.8453329,103.521333 58.928,103.492 C59.0106671,103.462667 59.0826664,103.432 59.144,103.4 C59.2053336,103.368 59.2599998,103.337333 59.308,103.308 C59.3560002,103.278667 59.4039998,103.264 59.452,103.264 C59.510667,103.264 59.5586665,103.278667 59.596,103.308 C59.6333335,103.337333 59.6733331,103.381333 59.716,103.44 L60.308,104.4 C60.0199986,104.640001 59.6893352,104.821333 59.316,104.944 C58.9426648,105.066667 58.556002,105.128 58.156,105.128 Z M65.156,96.664 C65.7693364,96.664 66.3253308,96.7626657 66.824,96.96 C67.3226692,97.1573343 67.7479982,97.4373315 68.1,97.8 C68.4520018,98.1626685 68.723999,98.6053307 68.916,99.128 C69.108001,99.6506693 69.204,100.234663 69.204,100.88 C69.204,101.53067 69.108001,102.117331 68.916,102.64 C68.723999,103.162669 68.4520018,103.607998 68.1,103.976 C67.7479982,104.344002 67.3226692,104.626666 66.824,104.824 C66.3253308,105.021334 65.7693364,105.12 65.156,105.12 C64.5426636,105.12 63.9853358,105.021334 63.484,104.824 C62.9826642,104.626666 62.5546684,104.344002 62.2,103.976 C61.8453316,103.607998 61.5706676,103.162669 61.376,102.64 C61.1813324,102.117331 61.084,101.53067 61.084,100.88 C61.084,100.234663 61.1813324,99.6506693 61.376,99.128 C61.5706676,98.6053307 61.8453316,98.1626685 62.2,97.8 C62.5546684,97.4373315 62.9826642,97.1573343 63.484,96.96 C63.9853358,96.7626657 64.5426636,96.664 65.156,96.664 Z M65.156,103.6 C65.8386701,103.6 66.3439984,103.370669 66.672,102.912 C67.0000016,102.453331 67.164,101.781338 67.164,100.896 C67.164,100.010662 67.0000016,99.3360023 66.672,98.872 C66.3439984,98.4079977 65.8386701,98.176 65.156,98.176 C64.4626632,98.176 63.9506683,98.409331 63.62,98.876 C63.2893317,99.342669 63.124,100.015996 63.124,100.896 C63.124,101.776004 63.2893317,102.446664 63.62,102.908 C63.9506683,103.369336 64.4626632,103.6 65.156,103.6 Z M70.748,105 L70.748,96.792 L71.908,96.792 C72.1106677,96.792 72.2519996,96.829333 72.332,96.904 C72.4120004,96.978667 72.4653332,97.1066658 72.492,97.288 L72.612,98.28 C72.9053348,97.7733308 73.2493314,97.3733348 73.644,97.08 C74.0386686,96.7866652 74.4813309,96.64 74.972,96.64 C75.3773354,96.64 75.713332,96.7333324 75.98,96.92 L75.724,98.4 C75.7079999,98.4960005 75.6733336,98.5639998 75.62,98.604 C75.5666664,98.6440002 75.4946671,98.664 75.404,98.664 C75.3239996,98.664 75.2146674,98.6453335 75.076,98.608 C74.9373326,98.5706665 74.7533345,98.552 74.524,98.552 C74.1133313,98.552 73.7613348,98.6653322 73.468,98.892 C73.1746652,99.1186678 72.9266677,99.4506645 72.724,99.888 L72.724,105 L70.748,105 Z M82.156,98.392 C82.1026664,98.4773338 82.046667,98.5373332 81.988,98.572 C81.929333,98.6066668 81.8546671,98.624 81.764,98.624 C81.6679995,98.624 81.5653339,98.5973336 81.456,98.544 C81.3466661,98.4906664 81.2200007,98.430667 81.076,98.364 C80.9319993,98.297333 80.7680009,98.2373336 80.584,98.184 C80.3999991,98.1306664 80.1826679,98.104 79.932,98.104 C79.5426647,98.104 79.2360011,98.1866658 79.012,98.352 C78.7879989,98.5173342 78.676,98.733332 78.676,99 C78.676,99.1760009 78.7333328,99.3239994 78.848,99.444 C78.9626672,99.5640006 79.1146657,99.6693329 79.304,99.76 C79.4933343,99.8506671 79.7079988,99.9319996 79.948,100.004 C80.1880012,100.076 80.4333321,100.154666 80.684,100.24 C80.9346679,100.325334 81.1799988,100.422666 81.42,100.532 C81.6600012,100.641334 81.8746657,100.779999 82.064,100.948 C82.2533343,101.116001 82.4053328,101.317332 82.52,101.552 C82.6346672,101.786668 82.692,102.069332 82.692,102.4 C82.692,102.794669 82.6200007,103.158665 82.476,103.492 C82.3319993,103.825335 82.1213347,104.113332 81.844,104.356 C81.5666653,104.598668 81.224002,104.787999 80.816,104.924 C80.407998,105.060001 79.9400026,105.128 79.412,105.128 C79.1293319,105.128 78.8533347,105.102667 78.584,105.052 C78.3146653,105.001333 78.0560012,104.930667 77.808,104.84 C77.5599988,104.749333 77.3306677,104.642667 77.12,104.52 C76.9093323,104.397333 76.7240008,104.264001 76.564,104.12 L77.02,103.368 C77.078667,103.277333 77.1479996,103.208 77.228,103.16 C77.3080004,103.112 77.4093327,103.088 77.532,103.088 C77.6546673,103.088 77.7706661,103.122666 77.88,103.192 C77.9893339,103.261334 78.1159993,103.336 78.26,103.416 C78.4040007,103.496 78.5733324,103.570666 78.768,103.64 C78.9626676,103.709334 79.2093318,103.744 79.508,103.744 C79.7426678,103.744 79.9439992,103.716 80.112,103.66 C80.2800008,103.604 80.4186661,103.530667 80.528,103.44 C80.6373339,103.349333 80.7173331,103.244001 80.768,103.124 C80.8186669,103.003999 80.844,102.880001 80.844,102.752 C80.844,102.559999 80.7866672,102.402667 80.672,102.28 C80.5573328,102.157333 80.4053343,102.050667 80.216,101.96 C80.0266657,101.869333 79.8106679,101.788 79.568,101.716 C79.3253321,101.644 79.0773346,101.565334 78.824,101.48 C78.5706654,101.394666 78.3226679,101.294667 78.08,101.18 C77.8373321,101.065333 77.6213343,100.920001 77.432,100.744 C77.2426657,100.567999 77.0906672,100.352001 76.976,100.096 C76.8613328,99.8399987 76.804,99.5306685 76.804,99.168 C76.804,98.8319983 76.870666,98.5120015 77.004,98.208 C77.137334,97.9039985 77.333332,97.6386678 77.592,97.412 C77.850668,97.1853322 78.1733314,97.0040007 78.56,96.868 C78.9466686,96.7319993 79.3933308,96.664 79.9,96.664 C80.4653362,96.664 80.9799977,96.7573324 81.444,96.944 C81.9080023,97.1306676 82.2946651,97.3759985 82.604,97.68 L82.156,98.392 Z M84.276,105 L84.276,93.112 L86.252,93.112 L86.252,97.68 C86.5720016,97.3759985 86.9239981,97.1306676 87.308,96.944 C87.6920019,96.7573324 88.1426641,96.664 88.66,96.664 C89.1080022,96.664 89.5053316,96.7399992 89.852,96.892 C90.1986684,97.0440008 90.4879988,97.257332 90.72,97.532 C90.9520012,97.806668 91.1279994,98.1346648 91.248,98.516 C91.3680006,98.8973352 91.428,99.317331 91.428,99.776 L91.428,105 L89.452,105 L89.452,99.776 C89.452,99.2746642 89.3360012,98.886668 89.104,98.612 C88.8719988,98.337332 88.5240023,98.2 88.06,98.2 C87.718665,98.2 87.3986682,98.2773326 87.1,98.432 C86.8013318,98.5866674 86.518668,98.797332 86.252,99.064 L86.252,105 L84.276,105 Z M95.476,96.792 L95.476,105 L93.5,105 L93.5,96.792 L95.476,96.792 Z M95.772,94.4 C95.772,94.5706675 95.7373337,94.7306659 95.668,94.88 C95.5986663,95.0293341 95.5066672,95.1599994 95.392,95.272 C95.2773328,95.3840006 95.1426674,95.473333 94.988,95.54 C94.8333326,95.606667 94.6680009,95.64 94.492,95.64 C94.3213325,95.64 94.1600008,95.606667 94.008,95.54 C93.8559992,95.473333 93.7240006,95.3840006 93.612,95.272 C93.4999994,95.1599994 93.410667,95.0293341 93.344,94.88 C93.277333,94.7306659 93.244,94.5706675 93.244,94.4 C93.244,94.2239991 93.277333,94.0586674 93.344,93.904 C93.410667,93.7493326 93.4999994,93.6160006 93.612,93.504 C93.7240006,93.3919994 93.8559992,93.302667 94.008,93.236 C94.1600008,93.169333 94.3213325,93.136 94.492,93.136 C94.6680009,93.136 94.8333326,93.169333 94.988,93.236 C95.1426674,93.302667 95.2773328,93.3919994 95.392,93.504 C95.5066672,93.6160006 95.5986663,93.7493326 95.668,93.904 C95.7373337,94.0586674 95.772,94.2239991 95.772,94.4 Z M97.708,107.68 L97.708,96.792 L98.916,96.792 C99.0440006,96.792 99.1533329,96.821333 99.244,96.88 C99.3346671,96.938667 99.3933332,97.0293327 99.42,97.152 L99.58,97.912 C99.9106683,97.5333314 100.290665,97.2266678 100.72,96.992 C101.149335,96.7573322 101.651997,96.64 102.228,96.64 C102.676002,96.64 103.085331,96.7333324 103.456,96.92 C103.826669,97.1066676 104.146665,97.3773316 104.416,97.732 C104.685335,98.0866684 104.893333,98.5239974 105.04,99.044 C105.186667,99.5640026 105.26,100.159997 105.26,100.832 C105.26,101.445336 105.177334,102.013331 105.012,102.536 C104.846666,103.058669 104.610668,103.511998 104.304,103.896 C103.997332,104.280002 103.626669,104.579999 103.192,104.796 C102.757331,105.012001 102.270669,105.12 101.732,105.12 C101.267998,105.12 100.874668,105.049334 100.552,104.908 C100.229332,104.766666 99.9400013,104.570668 99.684,104.32 L99.684,107.68 L97.708,107.68 Z M101.548,98.2 C101.137331,98.2 100.786668,98.2866658 100.496,98.46 C100.205332,98.6333342 99.9346679,98.8773318 99.684,99.192 L99.684,102.872 C99.9080011,103.149335 100.151999,103.342666 100.416,103.452 C100.680001,103.561334 100.963998,103.616 101.268,103.616 C101.566668,103.616 101.837332,103.560001 102.08,103.448 C102.322668,103.335999 102.527999,103.165334 102.696,102.936 C102.864001,102.706666 102.993333,102.417335 103.084,102.068 C103.174667,101.718665 103.22,101.306669 103.22,100.832 C103.22,100.351998 103.181334,99.945335 103.104,99.612 C103.026666,99.278665 102.916001,99.008001 102.772,98.8 C102.627999,98.591999 102.453334,98.4400005 102.248,98.344 C102.042666,98.2479995 101.809335,98.2 101.548,98.2 Z" id="Sole-Proprietorship" fill="#333333"></path>
            <g id="Page-1" opacity="0.5" transform="translate(26.000000, 0.000000)" fill="#000000">
                <path d="M37.3696364,32.5410144 C37.2993014,35.7520191 32.5397799,38.3429282 26.6795885,38.3429282 C20.8176746,38.3429282 16.0598756,35.7520191 15.9904019,32.5410144 C7.02370335,33.3600574 -2.8708134e-05,40.8991005 -2.8708134e-05,50.077378 C-2.8708134e-05,59.7563254 7.80628708,59.7804402 17.4642775,59.7804402 L17.6109761,59.7804402 L35.748201,59.7804402 L35.89289,59.7804402 C45.5514545,59.7804402 53.3574833,59.7563254 53.3574833,50.077378 C53.3589187,40.8991005 46.336622,33.3600574 37.3696364,32.5410144" id="Fill-1"></path>
                <path d="M18.3676077,8.97470813 C18.3676077,8.97470813 22.2455024,10.8582488 26.6794737,10.978823 C31.1131579,10.8582488 34.9927751,8.97470813 34.9927751,8.97470813 C37.8021531,10.0839904 36.4706699,17.9864785 36.4706699,17.9876268 C37.1731579,17.4981531 37.8156459,17.2432249 38.3404306,17.1117416 C37.5676077,25.5117416 32.6430144,31.9877225 26.6794737,31.9877225 C20.7176555,31.9877225 15.7910526,25.5117416 15.0185167,17.1117416 C15.5430144,17.2432249 16.1869378,17.4981531 16.8882775,17.9876268 C16.8882775,17.9864785 15.5579426,10.0839904 18.3676077,8.97470813 M13.3588995,16.6237033 C13.3666507,16.7497321 13.3789952,16.8771962 13.3899043,17.0032249 C14.2385167,26.6181531 19.8644498,34.0460957 26.6794737,34.0460957 C33.4942105,34.0460957 39.1201435,26.6170048 39.9690431,17.0032249 C39.9811005,16.8771962 39.9920096,16.7497321 40.0014833,16.6237033 C40.0611962,16.206 40.1019617,15.7828421 40.1263636,15.3559522 C40.1438756,15.0628421 40.1550718,14.7685837 40.1550718,14.4717416 C40.1550718,13.7396842 40.1019617,13.0208325 40.0014833,12.3197799 C39.015933,5.50762679 33.4264593,0.287052632 26.6794737,0.287052632 C19.932201,0.287052632 14.3430144,5.50762679 13.3588995,12.3197799 C13.2569856,13.0222679 13.2055981,13.7408325 13.2055981,14.4717416 C13.2055981,14.7685837 13.2165072,15.0628421 13.2325837,15.3559522 C13.2569856,15.7828421 13.2977512,16.206 13.3588995,16.6237033" id="Fill-4"></path>
            </g>
        </g>
    </g>
</svg>