<?xml version="1.0" encoding="UTF-8" standalone="no"?>
<svg width="112px" height="49px" viewBox="0 0 112 49" version="1.1" xmlns="http://www.w3.org/2000/svg" xmlns:xlink="http://www.w3.org/1999/xlink">
    <!-- Generator: Sketch 48.2 (47327) - http://www.bohemiancoding.com/sketch -->
    <title>Start</title>
    <desc>Created with Sketch.</desc>
    <defs></defs>
    <g id="Page-1" stroke="none" stroke-width="1" fill="none" fill-rule="evenodd">
        <g id="Start">
            <path d="M87.4647987,0.103396203 C73.971359,0.103396203 63.0000207,11.0515882 63.0000207,24.5165608 C63.0000207,37.9815333 73.971359,48.9296219 87.4647987,48.9296219 C100.958238,48.9296219 111.929577,37.9815333 111.929577,24.5165608 C111.929577,11.0515882 100.958238,0.103396203 87.4647987,0.103396203" id="Fill-3" fill="#D0021B" fill-rule="nonzero"></path>
            <path d="M80.1194294,13.2130051 C79.2748268,13.2118679 78.5892412,13.8941464 78.5881017,14.7369671 C78.5873765,15.2553954 78.8505055,15.7387793 79.2867402,16.0202709 L92.0566789,24.5159819 L79.2867402,33.0115895 C78.5838543,33.4789502 78.3936556,34.426697 78.8620044,35.1282034 C79.3304569,35.8296063 80.2801038,36.0194038 80.9830932,35.5519397 L95.6618564,25.7867772 C96.3648459,25.3196232 96.5552518,24.3722899 96.0872137,23.6708869 C95.9750214,23.5026949 95.830404,23.3584861 95.6618564,23.2465304 L80.9830932,13.4812646 C80.7288734,13.3069734 80.427829,13.2134186 80.1194294,13.2130051" id="Fill-1" fill="#FFFFFF" fill-rule="nonzero"></path>
            <g id="Group" transform="translate(0.000000, 11.000000)" fill="#333333">
                <path d="M9.988,8.701 C9.92199967,8.81100055 9.8523337,8.89349973 9.779,8.9485 C9.7056663,9.00350028 9.61033392,9.031 9.493,9.031 C9.36833271,9.031 9.22350082,8.96866729 9.0585,8.844 C8.89349917,8.71933271 8.68450126,8.58183409 8.4315,8.4315 C8.17849873,8.28116591 7.87416844,8.14366729 7.5185,8.019 C7.16283156,7.89433271 6.73200253,7.832 6.226,7.832 C5.74933095,7.832 5.3276685,7.89616602 4.961,8.0245 C4.5943315,8.15283398 4.28816789,8.3269989 4.0425,8.547 C3.7968321,8.7670011 3.61166729,9.02549851 3.487,9.3225 C3.36233271,9.61950149 3.3,9.94033161 3.3,10.285 C3.3,10.7250022 3.40816558,11.0898319 3.6245,11.3795 C3.84083441,11.6691681 4.12683155,11.9166656 4.4825,12.122 C4.83816844,12.3273344 5.24149775,12.5051659 5.6925,12.6555 C6.14350225,12.8058341 6.60549763,12.9616659 7.0785,13.123 C7.55150236,13.2843341 8.01349774,13.4658323 8.4645,13.6675 C8.91550225,13.8691677 9.31883155,14.1239985 9.6745,14.432 C10.0301684,14.7400015 10.3161656,15.1176644 10.5325,15.565 C10.7488344,16.0123356 10.857,16.5623301 10.857,17.215 C10.857,17.9043368 10.7396678,18.551497 10.505,19.1565 C10.2703322,19.761503 9.92750225,20.2876644 9.4765,20.735 C9.02549774,21.1823356 8.47183661,21.534332 7.8155,21.791 C7.15916338,22.047668 6.41300418,22.176 5.577,22.176 C4.55766157,22.176 3.62817086,21.9908352 2.7885,21.6205 C1.94882913,21.2501648 1.23200297,20.7496698 0.638,20.119 L1.254,19.107 C1.31266696,19.0263329 1.38416624,18.9585003 1.4685,18.9035 C1.55283375,18.8484997 1.64633282,18.821 1.749,18.821 C1.90300077,18.821 2.07899901,18.9034992 2.277,19.0685 C2.47500099,19.2335008 2.72249851,19.414999 3.0195,19.613 C3.31650148,19.811001 3.67583123,19.9924992 4.0975,20.1575 C4.51916877,20.3225008 5.03433029,20.405 5.643,20.405 C6.14900253,20.405 6.59999802,20.335334 6.996,20.196 C7.39200198,20.056666 7.72749862,19.8605013 8.0025,19.6075 C8.27750137,19.3544987 8.4883326,19.0520018 8.635,18.7 C8.7816674,18.3479982 8.855,17.9556688 8.855,17.523 C8.855,17.0463309 8.74683441,16.6558349 8.5305,16.3515 C8.31416558,16.0471651 8.03000176,15.7923344 7.678,15.587 C7.32599824,15.3816656 6.92450225,15.2075007 6.4735,15.0645 C6.02249774,14.9214993 5.56050236,14.7748341 5.0875,14.6245 C4.61449764,14.4741659 4.15250225,14.300001 3.7015,14.102 C3.25049774,13.903999 2.84900176,13.6473349 2.497,13.332 C2.14499824,13.0166651 1.86083441,12.6225024 1.6445,12.1495 C1.42816558,11.6764976 1.32,11.0916701 1.32,10.395 C1.32,9.83766388 1.42816558,9.29866927 1.6445,8.778 C1.86083441,8.25733073 2.17433128,7.79533535 2.585,7.392 C2.99566872,6.98866465 3.50349698,6.66600121 4.1085,6.424 C4.71350302,6.18199879 5.40832941,6.061 6.193,6.061 C7.0730044,6.061 7.87599637,6.20033194 8.602,6.479 C9.32800363,6.75766806 9.96233062,7.16099736 10.505,7.689 L9.988,8.701 Z M16.643,22.176 C15.7629956,22.176 15.0865024,21.9303358 14.6135,21.439 C14.1404976,20.9476642 13.904,20.2400046 13.904,19.316 L13.904,12.496 L12.562,12.496 C12.4446661,12.496 12.3456671,12.461167 12.265,12.3915 C12.1843329,12.321833 12.144,12.2136674 12.144,12.067 L12.144,11.286 L13.97,11.055 L14.421,7.612 C14.4356667,7.50199945 14.4833329,7.41216701 14.564,7.3425 C14.6446671,7.27283299 14.7473327,7.238 14.872,7.238 L15.862,7.238 L15.862,11.077 L19.052,11.077 L19.052,12.496 L15.862,12.496 L15.862,19.184 C15.862,19.6533357 15.9756655,20.0016655 16.203,20.229 C16.4303345,20.4563345 16.7236649,20.57 17.083,20.57 C17.2883344,20.57 17.4661659,20.5425003 17.6165,20.4875 C17.7668341,20.4324997 17.8969994,20.3720003 18.007,20.306 C18.1170006,20.2399997 18.2104996,20.1795003 18.2875,20.1245 C18.3645004,20.0694997 18.432333,20.042 18.491,20.042 C18.5936672,20.042 18.6853329,20.1043327 18.766,20.229 L19.338,21.164 C19.000665,21.4793349 18.5936691,21.7268324 18.117,21.9065 C17.640331,22.0861676 17.1490025,22.176 16.643,22.176 Z M29.656,22 L28.787,22 C28.5963324,22 28.4423339,21.970667 28.325,21.912 C28.2076661,21.853333 28.1306669,21.7286676 28.094,21.538 L27.874,20.504 C27.5806652,20.7680013 27.2946681,21.004499 27.016,21.2135 C26.7373319,21.422501 26.4440015,21.5984993 26.136,21.7415 C25.8279985,21.8845007 25.4998351,21.9926663 25.1515,22.066 C24.8031649,22.1393337 24.4163355,22.176 23.991,22.176 C23.5583312,22.176 23.1531686,22.1155006 22.7755,21.9945 C22.3978314,21.8734994 22.0696681,21.6920012 21.791,21.45 C21.5123319,21.2079988 21.2905008,20.9018352 21.1255,20.5315 C20.9604992,20.1611648 20.878,19.7230025 20.878,19.217 C20.878,18.7769978 20.9989988,18.353502 21.241,17.9465 C21.4830012,17.539498 21.8734973,17.1783349 22.4125,16.863 C22.9515027,16.5476651 23.657329,16.2891677 24.53,16.0875 C25.402671,15.8858323 26.4696604,15.7703335 27.731,15.741 L27.731,14.872 C27.731,14.0066623 27.5458352,13.3521689 27.1755,12.9085 C26.8051648,12.4648311 26.2570036,12.243 25.531,12.243 C25.054331,12.243 24.652835,12.3034994 24.3265,12.4245 C24.000165,12.5455006 23.7178345,12.6811659 23.4795,12.8315 C23.2411655,12.9818341 23.0358342,13.1174994 22.8635,13.2385 C22.6911658,13.3595006 22.5206675,13.42 22.352,13.42 C22.2199993,13.42 22.1045005,13.385167 22.0055,13.3155 C21.9064995,13.245833 21.827667,13.1596672 21.769,13.057 L21.417,12.43 C22.0330031,11.835997 22.6966631,11.3923348 23.408,11.099 C24.1193369,10.8056652 24.9076623,10.659 25.773,10.659 C26.3963365,10.659 26.9499976,10.7616656 27.434,10.967 C27.9180024,11.1723344 28.3249984,11.4583315 28.655,11.825 C28.9850017,12.1916685 29.2343325,12.6353307 29.403,13.156 C29.5716675,13.6766693 29.656,14.2486636 29.656,14.872 L29.656,22 Z M24.574,20.801 C24.9186684,20.801 25.2339986,20.766167 25.52,20.6965 C25.8060014,20.626833 26.0754987,20.527834 26.3285,20.3995 C26.5815013,20.271166 26.8234988,20.1153343 27.0545,19.932 C27.2855012,19.7486658 27.5109989,19.5396678 27.731,19.305 L27.731,16.984 C26.8289955,17.0133335 26.0626698,17.0848328 25.432,17.1985 C24.8013302,17.3121672 24.288002,17.4606658 23.892,17.644 C23.495998,17.8273342 23.2081676,18.0436654 23.0285,18.293 C22.8488324,18.5423346 22.759,18.8209985 22.759,19.129 C22.759,19.4223348 22.8066662,19.6753323 22.902,19.888 C22.9973338,20.1006677 23.1256659,20.2748327 23.287,20.4105 C23.4483341,20.5461673 23.6389989,20.6451664 23.859,20.7075 C24.0790011,20.7698336 24.3173321,20.801 24.574,20.801 Z M32.626,22 L32.626,10.857 L33.748,10.857 C33.9606677,10.857 34.1073329,10.8973329 34.188,10.978 C34.2686671,11.0586671 34.3236665,11.197999 34.353,11.396 L34.485,13.134 C34.8663352,12.3566628 35.3374972,11.7498355 35.8985,11.3135 C36.4595028,10.8771645 37.1176629,10.659 37.873,10.659 C38.1810015,10.659 38.4596654,10.693833 38.709,10.7635 C38.9583346,10.833167 39.1893323,10.9303327 39.402,11.055 L39.149,12.518 C39.0976664,12.7013343 38.9840009,12.793 38.808,12.793 C38.7053328,12.793 38.5476677,12.758167 38.335,12.6885 C38.1223323,12.618833 37.8253352,12.584 37.444,12.584 C36.7619966,12.584 36.1918356,12.781998 35.7335,13.178 C35.2751644,13.574002 34.8920015,14.1496629 34.584,14.905 L34.584,22 L32.626,22 Z M44.869,22.176 C43.9889956,22.176 43.3125024,21.9303358 42.8395,21.439 C42.3664976,20.9476642 42.13,20.2400046 42.13,19.316 L42.13,12.496 L40.788,12.496 C40.6706661,12.496 40.5716671,12.461167 40.491,12.3915 C40.4103329,12.321833 40.37,12.2136674 40.37,12.067 L40.37,11.286 L42.196,11.055 L42.647,7.612 C42.6616667,7.50199945 42.7093329,7.41216701 42.79,7.3425 C42.8706671,7.27283299 42.9733327,7.238 43.098,7.238 L44.088,7.238 L44.088,11.077 L47.278,11.077 L47.278,12.496 L44.088,12.496 L44.088,19.184 C44.088,19.6533357 44.2016655,20.0016655 44.429,20.229 C44.6563345,20.4563345 44.9496649,20.57 45.309,20.57 C45.5143344,20.57 45.6921659,20.5425003 45.8425,20.4875 C45.9928341,20.4324997 46.1229994,20.3720003 46.233,20.306 C46.3430005,20.2399997 46.4364996,20.1795003 46.5135,20.1245 C46.5905004,20.0694997 46.658333,20.042 46.717,20.042 C46.8196672,20.042 46.9113329,20.1043327 46.992,20.229 L47.564,21.164 C47.226665,21.4793349 46.819669,21.7268324 46.343,21.9065 C45.8663309,22.0861676 45.3750025,22.176 44.869,22.176 Z" id="Start"></path>
            </g>
        </g>
    </g>
</svg>