<?xml version="1.0" encoding="UTF-8" standalone="no"?>
<svg width="100px" height="80px" viewBox="0 0 107 92" version="1.1" xmlns="http://www.w3.org/2000/svg" xmlns:xlink="http://www.w3.org/1999/xlink">
    <!-- Generator: Sketch 48.2 (47327) - http://www.bohemiancoding.com/sketch -->
    <title>Valuables</title>
    <desc>Created with Sketch.</desc>
    <defs>
        <polygon id="path-1" points="0 64.7490347 106.412278 64.7490347 106.412278 0.118957529 0 0.118957529"></polygon>
    </defs>
    <g id="Page4-Copy" stroke="none" stroke-width="1" fill="none" fill-rule="evenodd" transform="translate(-706.000000, -461.000000)">
        <g id="Valuables" transform="translate(706.000000, 461.000000)">
            <path d="M25.752,79.432 L27.488,79.432 C27.6746676,79.432 27.8266661,79.4773329 27.944,79.568 C28.0613339,79.6586671 28.149333,79.7759993 28.208,79.92 L30.928,86.976 C31.0186671,87.2053345 31.1053329,87.457332 31.188,87.732 C31.2706671,88.006668 31.349333,88.2959985 31.424,88.6 C31.5466673,87.9866636 31.6986658,87.4453357 31.88,86.976 L34.592,79.92 C34.6400002,79.7973327 34.7253327,79.6853338 34.848,79.584 C34.9706673,79.4826662 35.1226658,79.432 35.304,79.432 L37.04,79.432 L32.368,91 L30.424,91 L25.752,79.432 Z M43.584,91 L42.696,91 C42.5093324,91 42.3626672,90.9720003 42.256,90.916 C42.1493328,90.8599997 42.0693336,90.7466675 42.016,90.576 L41.84,89.992 C41.631999,90.1786676 41.428001,90.342666 41.228,90.484 C41.027999,90.625334 40.8213344,90.7439995 40.608,90.84 C40.3946656,90.9360005 40.1680012,91.0079998 39.928,91.056 C39.6879988,91.1040002 39.4213348,91.128 39.128,91.128 C38.7813316,91.128 38.4613348,91.0813338 38.168,90.988 C37.8746652,90.8946662 37.6226677,90.7546676 37.412,90.568 C37.2013323,90.3813324 37.0373339,90.1493347 36.92,89.872 C36.8026661,89.5946653 36.744,89.2720018 36.744,88.904 C36.744,88.5946651 36.8253325,88.2893348 36.988,87.988 C37.1506675,87.6866652 37.4213314,87.4146679 37.8,87.172 C38.1786686,86.9293321 38.6826635,86.7280008 39.312,86.568 C39.9413365,86.4079992 40.722662,86.3173334 41.656,86.296 L41.656,85.816 C41.656,85.2666639 41.5400012,84.8600013 41.308,84.596 C41.0759988,84.3319987 40.7386689,84.2 40.296,84.2 C39.9759984,84.2 39.7093344,84.237333 39.496,84.312 C39.2826656,84.386667 39.0973341,84.4706662 38.94,84.564 C38.7826659,84.6573338 38.637334,84.741333 38.504,84.816 C38.370666,84.890667 38.2240008,84.928 38.064,84.928 C37.930666,84.928 37.8160005,84.8933337 37.72,84.824 C37.6239995,84.7546663 37.546667,84.6693338 37.488,84.568 L37.128,83.936 C38.0720047,83.0719957 39.21066,82.64 40.544,82.64 C41.0240024,82.64 41.4519981,82.7186659 41.828,82.876 C42.2040019,83.0333341 42.5226654,83.2519986 42.784,83.532 C43.0453346,83.8120014 43.2439993,84.1466647 43.38,84.536 C43.5160007,84.9253353 43.584,85.3519977 43.584,85.816 L43.584,91 Z M39.744,89.768 C39.9466677,89.768 40.1333325,89.7493335 40.304,89.712 C40.4746675,89.6746665 40.6359992,89.618667 40.788,89.544 C40.9400008,89.469333 41.086666,89.3773339 41.228,89.268 C41.369334,89.1586661 41.5119993,89.0293341 41.656,88.88 L41.656,87.496 C41.0799971,87.5226668 40.5986686,87.5719996 40.212,87.644 C39.8253314,87.7160004 39.5146678,87.8079994 39.28,87.92 C39.0453322,88.0320006 38.8786672,88.1626659 38.78,88.312 C38.6813328,88.4613341 38.632,88.6239991 38.632,88.8 C38.632,89.1466684 38.7346656,89.3946659 38.94,89.544 C39.1453344,89.6933341 39.4133317,89.768 39.744,89.768 Z M47.632,79.112 L47.632,91 L45.656,91 L45.656,79.112 L47.632,79.112 Z M51.672,82.792 L51.672,88.008 C51.672,88.5093358 51.7879988,88.897332 52.02,89.172 C52.2520012,89.446668 52.5999977,89.584 53.064,89.584 C53.405335,89.584 53.7253318,89.5080008 54.024,89.356 C54.3226682,89.2039992 54.605332,88.994668 54.872,88.728 L54.872,82.792 L56.848,82.792 L56.848,91 L55.64,91 C55.3839987,91 55.2160004,90.8800012 55.136,90.64 L55,89.984 C54.8293325,90.1546675 54.6533342,90.310666 54.472,90.452 C54.2906658,90.593334 54.0973344,90.7133328 53.892,90.812 C53.6866656,90.9106672 53.4653345,90.9879997 53.228,91.044 C52.9906655,91.1000003 52.7360014,91.128 52.464,91.128 C52.0159978,91.128 51.6200017,91.0520008 51.276,90.9 C50.9319983,90.7479992 50.6426678,90.5333347 50.408,90.256 C50.1733322,89.9786653 49.9960006,89.6493352 49.876,89.268 C49.7559994,88.8866648 49.696,88.466669 49.696,88.008 L49.696,82.792 L51.672,82.792 Z M65.392,91 L64.504,91 C64.3173324,91 64.1706672,90.9720003 64.064,90.916 C63.9573328,90.8599997 63.8773336,90.7466675 63.824,90.576 L63.648,89.992 C63.439999,90.1786676 63.236001,90.342666 63.036,90.484 C62.835999,90.625334 62.6293344,90.7439995 62.416,90.84 C62.2026656,90.9360005 61.9760012,91.0079998 61.736,91.056 C61.4959988,91.1040002 61.2293348,91.128 60.936,91.128 C60.5893316,91.128 60.2693348,91.0813338 59.976,90.988 C59.6826652,90.8946662 59.4306677,90.7546676 59.22,90.568 C59.0093323,90.3813324 58.8453339,90.1493347 58.728,89.872 C58.6106661,89.5946653 58.552,89.2720018 58.552,88.904 C58.552,88.5946651 58.6333325,88.2893348 58.796,87.988 C58.9586675,87.6866652 59.2293314,87.4146679 59.608,87.172 C59.9866686,86.9293321 60.4906635,86.7280008 61.12,86.568 C61.7493365,86.4079992 62.530662,86.3173334 63.464,86.296 L63.464,85.816 C63.464,85.2666639 63.3480012,84.8600013 63.116,84.596 C62.8839988,84.3319987 62.5466689,84.2 62.104,84.2 C61.7839984,84.2 61.5173344,84.237333 61.304,84.312 C61.0906656,84.386667 60.9053341,84.4706662 60.748,84.564 C60.5906659,84.6573338 60.445334,84.741333 60.312,84.816 C60.178666,84.890667 60.0320008,84.928 59.872,84.928 C59.738666,84.928 59.6240005,84.8933337 59.528,84.824 C59.4319995,84.7546663 59.354667,84.6693338 59.296,84.568 L58.936,83.936 C59.8800047,83.0719957 61.01866,82.64 62.352,82.64 C62.8320024,82.64 63.2599981,82.7186659 63.636,82.876 C64.0120019,83.0333341 64.3306654,83.2519986 64.592,83.532 C64.8533346,83.8120014 65.0519993,84.1466647 65.188,84.536 C65.3240007,84.9253353 65.392,85.3519977 65.392,85.816 L65.392,91 Z M61.552,89.768 C61.7546677,89.768 61.9413325,89.7493335 62.112,89.712 C62.2826675,89.6746665 62.4439992,89.618667 62.596,89.544 C62.7480008,89.469333 62.894666,89.3773339 63.036,89.268 C63.177334,89.1586661 63.3199993,89.0293341 63.464,88.88 L63.464,87.496 C62.8879971,87.5226668 62.4066686,87.5719996 62.02,87.644 C61.6333314,87.7160004 61.3226678,87.8079994 61.088,87.92 C60.8533322,88.0320006 60.6866672,88.1626659 60.588,88.312 C60.4893328,88.4613341 60.44,88.6239991 60.44,88.8 C60.44,89.1466684 60.5426656,89.3946659 60.748,89.544 C60.9533344,89.6933341 61.2213317,89.768 61.552,89.768 Z M67.36,91 L67.36,79.112 L69.336,79.112 L69.336,83.8 C69.661335,83.4533316 70.0293313,83.1773344 70.44,82.972 C70.8506687,82.7666656 71.3306639,82.664 71.88,82.664 C72.3280022,82.664 72.7373315,82.7559991 73.108,82.94 C73.4786685,83.1240009 73.7986653,83.3919982 74.068,83.744 C74.3373347,84.0960018 74.5453326,84.5306641 74.692,85.048 C74.8386674,85.5653359 74.912,86.1599966 74.912,86.832 C74.912,87.4453364 74.8293342,88.0133307 74.664,88.536 C74.4986658,89.0586693 74.2626682,89.5119981 73.956,89.896 C73.6493318,90.2800019 73.2786688,90.5799989 72.844,90.796 C72.4093312,91.0120011 71.9226694,91.12 71.384,91.12 C71.1333321,91.12 70.904001,91.0946669 70.696,91.044 C70.487999,90.9933331 70.2986675,90.9226671 70.128,90.832 C69.9573325,90.7413329 69.7986674,90.6306673 69.652,90.5 C69.5053326,90.3693327 69.365334,90.2240008 69.232,90.064 L69.144,90.616 C69.1119998,90.7546674 69.0573337,90.853333 68.98,90.912 C68.9026663,90.970667 68.797334,91 68.664,91 L67.36,91 Z M71.2,84.2 C70.7893313,84.2 70.4386681,84.2866658 70.148,84.46 C69.8573319,84.6333342 69.5866679,84.8773318 69.336,85.192 L69.336,88.872 C69.5600011,89.1493347 69.8039987,89.3426661 70.068,89.452 C70.3320013,89.5613339 70.6186651,89.616 70.928,89.616 C71.2266682,89.616 71.4959988,89.5600006 71.736,89.448 C71.9760012,89.3359994 72.1799992,89.1653345 72.348,88.936 C72.5160008,88.7066655 72.6453329,88.4173351 72.736,88.068 C72.8266671,87.7186649 72.872,87.306669 72.872,86.832 C72.872,86.3519976 72.8333337,85.945335 72.756,85.612 C72.6786663,85.278665 72.5680007,85.008001 72.424,84.8 C72.2799993,84.591999 72.1053344,84.4400005 71.9,84.344 C71.6946656,84.2479995 71.4613346,84.2 71.2,84.2 Z M78.56,79.112 L78.56,91 L76.584,91 L76.584,79.112 L78.56,79.112 Z M84.184,82.664 C84.7013359,82.664 85.1773312,82.7466658 85.612,82.912 C86.0466688,83.0773342 86.4213318,83.3186651 86.736,83.636 C87.0506682,83.9533349 87.2959991,84.3426644 87.472,84.804 C87.6480009,85.2653356 87.736,85.791997 87.736,86.384 C87.736,86.5333341 87.7293334,86.6573328 87.716,86.756 C87.7026666,86.8546672 87.6786668,86.9319997 87.644,86.988 C87.6093332,87.0440003 87.562667,87.0839999 87.504,87.108 C87.445333,87.1320001 87.3706671,87.144 87.28,87.144 L82.208,87.144 C82.266667,87.9866709 82.4933314,88.6053314 82.888,89 C83.2826686,89.3946686 83.8053301,89.592 84.456,89.592 C84.7760016,89.592 85.0519988,89.554667 85.284,89.48 C85.5160012,89.405333 85.7186658,89.3226671 85.892,89.232 C86.0653342,89.1413329 86.2173327,89.058667 86.348,88.984 C86.4786673,88.909333 86.6053327,88.872 86.728,88.872 C86.8080004,88.872 86.877333,88.8879998 86.936,88.92 C86.994667,88.9520002 87.0453331,88.997333 87.088,89.056 L87.664,89.776 C87.4453322,90.0320013 87.2000014,90.2466658 86.928,90.42 C86.6559986,90.5933342 86.3720015,90.7319995 86.076,90.836 C85.7799985,90.9400005 85.4786682,91.0133331 85.172,91.056 C84.8653318,91.0986669 84.5680014,91.12 84.28,91.12 C83.7093305,91.12 83.1786691,91.0253343 82.688,90.836 C82.1973309,90.6466657 81.7706685,90.3666685 81.408,89.996 C81.0453315,89.6253315 80.760001,89.1666694 80.552,88.62 C80.343999,88.0733306 80.24,87.4400036 80.24,86.72 C80.24,86.1599972 80.3306658,85.6333358 80.512,85.14 C80.6933342,84.6466642 80.9533316,84.2173352 81.292,83.852 C81.6306684,83.4866648 82.0439976,83.1973344 82.532,82.984 C83.0200024,82.7706656 83.5706636,82.664 84.184,82.664 Z M84.224,84.08 C83.6479971,84.08 83.197335,84.242665 82.872,84.568 C82.546665,84.893335 82.3386671,85.3546637 82.248,85.952 L85.96,85.952 C85.96,85.6959987 85.9253337,85.4546678 85.856,85.228 C85.7866663,85.0013322 85.6800007,84.8026675 85.536,84.632 C85.3919993,84.4613325 85.2106678,84.3266672 84.992,84.228 C84.7733322,84.1293328 84.5173348,84.08 84.224,84.08 Z M94.216,84.392 C94.1626664,84.4773338 94.106667,84.5373332 94.048,84.572 C93.989333,84.6066668 93.9146671,84.624 93.824,84.624 C93.7279995,84.624 93.6253339,84.5973336 93.516,84.544 C93.4066661,84.4906664 93.2800007,84.430667 93.136,84.364 C92.9919993,84.297333 92.8280009,84.2373336 92.644,84.184 C92.4599991,84.1306664 92.2426679,84.104 91.992,84.104 C91.6026647,84.104 91.2960011,84.1866658 91.072,84.352 C90.8479989,84.5173342 90.736,84.733332 90.736,85 C90.736,85.1760009 90.7933328,85.3239994 90.908,85.444 C91.0226672,85.5640006 91.1746657,85.6693329 91.364,85.76 C91.5533343,85.8506671 91.7679988,85.9319996 92.008,86.004 C92.2480012,86.0760004 92.4933321,86.1546662 92.744,86.24 C92.9946679,86.3253338 93.2399988,86.4226661 93.48,86.532 C93.7200012,86.6413339 93.9346657,86.7799992 94.124,86.948 C94.3133343,87.1160008 94.4653328,87.3173322 94.58,87.552 C94.6946672,87.7866678 94.752,88.0693317 94.752,88.4 C94.752,88.7946686 94.6800007,89.158665 94.536,89.492 C94.3919993,89.825335 94.1813347,90.1133321 93.904,90.356 C93.6266653,90.5986679 93.284002,90.7879993 92.876,90.924 C92.467998,91.0600007 92.0000026,91.128 91.472,91.128 C91.1893319,91.128 90.9133347,91.1026669 90.644,91.052 C90.3746653,91.0013331 90.1160012,90.9306671 89.868,90.84 C89.6199988,90.7493329 89.3906677,90.6426673 89.18,90.52 C88.9693323,90.3973327 88.7840008,90.2640007 88.624,90.12 L89.08,89.368 C89.138667,89.2773329 89.2079996,89.2080002 89.288,89.16 C89.3680004,89.1119998 89.4693327,89.088 89.592,89.088 C89.7146673,89.088 89.8306661,89.1226663 89.94,89.192 C90.0493339,89.2613337 90.1759993,89.3359996 90.32,89.416 C90.4640007,89.4960004 90.6333324,89.5706663 90.828,89.64 C91.0226676,89.7093337 91.2693318,89.744 91.568,89.744 C91.8026678,89.744 92.0039992,89.7160003 92.172,89.66 C92.3400008,89.6039997 92.4786661,89.5306671 92.588,89.44 C92.6973339,89.3493329 92.7773331,89.2440006 92.828,89.124 C92.8786669,89.0039994 92.904,88.8800006 92.904,88.752 C92.904,88.559999 92.8466672,88.4026673 92.732,88.28 C92.6173328,88.1573327 92.4653343,88.0506671 92.276,87.96 C92.0866657,87.8693329 91.8706679,87.7880004 91.628,87.716 C91.3853321,87.6439996 91.1373346,87.5653338 90.884,87.48 C90.6306654,87.3946662 90.3826679,87.2946672 90.14,87.18 C89.8973321,87.0653328 89.6813343,86.9200009 89.492,86.744 C89.3026657,86.5679991 89.1506672,86.3520013 89.036,86.096 C88.9213328,85.8399987 88.864,85.5306685 88.864,85.168 C88.864,84.8319983 88.930666,84.5120015 89.064,84.208 C89.197334,83.9039985 89.393332,83.6386678 89.652,83.412 C89.910668,83.1853322 90.2333314,83.0040007 90.62,82.868 C91.0066686,82.7319993 91.4533308,82.664 91.96,82.664 C92.5253362,82.664 93.0399977,82.7573324 93.504,82.944 C93.9680023,83.1306676 94.3546651,83.3759985 94.664,83.68 L94.216,84.392 Z" fill="#333333"></path>
            <g id="Page-1" opacity="0.5">
                <polygon id="Fill-1" fill="#000000" points="68.8176583 11.8088687 74.0106313 11.8088687 76.5960753 21.0110116"></polygon>
                <polygon id="Fill-2" fill="#000000" points="79.6667606 21.0110116 82.2522046 11.8088687 87.4451776 11.8088687"></polygon>
                <polygon id="Fill-3" fill="#000000" points="84.9434054 6.48100193 86.1949691 8.64833784 87.445278 10.8144189 84.9434054 10.8144189 82.4415328 10.8144189 83.6933475 8.64833784"></polygon>
                <polygon id="Fill-4" fill="#000000" points="78.0957683 6.48100193 79.3460772 8.64833784 80.5976409 10.8144189 78.0957683 10.8144189 75.5938958 10.8144189 76.8457104 8.64833784"></polygon>
                <polygon id="Fill-5" fill="#000000" points="71.2481564 6.48100193 72.4984653 8.64833784 73.750029 10.8144189 71.2481564 10.8144189 68.7465347 10.8144189 69.9968436 8.64833784"></polygon>
                <polygon id="Fill-6" fill="#000000" points="74.5310328 9.71514093 73.2809749 7.55031467 72.0304151 5.38297876 74.5310328 5.38297876 77.0316506 5.38297876 75.7825965 7.55031467"></polygon>
                <polygon id="Fill-7" fill="#000000" points="81.3786699 9.71514093 80.128612 7.55031467 78.8780521 5.38297876 81.3786699 5.38297876 83.8817973 5.38297876 82.6302336 7.55031467"></polygon>
                <polygon id="Fill-8" fill="#000000" points="78.0957683 20.8162876 76.906695 16.3132181 75.7188764 11.8088938 78.0957683 11.8088938 80.4729112 11.8088938 79.2848417 16.3132181"></polygon>
                <g id="Group-16" transform="translate(0.000000, 0.132008)">
                    <path d="M78.0945637,57.5563205 C68.2449305,57.5563205 60.260471,49.5733668 60.260471,39.7224788 C60.260471,29.8715907 68.2449305,21.8871313 78.0945637,21.8871313 C87.9467066,21.8871313 95.9309151,29.8715907 95.9309151,39.7224788 C95.9309151,49.5733668 87.9467066,57.5563205 78.0945637,57.5563205 M78.0945637,19.8272085 C67.1070541,19.8272085 58.1995444,28.7347181 58.1995444,39.7224788 C58.1995444,50.7102394 67.1083089,59.6164942 78.0945637,59.6164942 C89.084834,59.6164942 97.9923436,50.7102394 97.9923436,39.7224788 C97.9923436,28.7347181 89.0860888,19.8272085 78.0945637,19.8272085" id="Fill-9" fill="#000000"></path>
                    <mask id="mask-2" fill="white">
                        <use xlink:href="#path-1"></use>
                    </mask>
                    <g id="Clip-12"></g>
                    <polygon id="Fill-11" fill="#000000" mask="url(#mask-2)" points="49.7819691 63.8849614 106.412027 63.8849614 106.412027 36.1728764 49.7819691 36.1728764"></polygon>
                    <polygon id="Fill-13" fill="#000000" mask="url(#mask-2)" points="23.2294691 0.118982625 48.9764961 58.5547355 34.9174228 64.7490598 9.17014479 6.31355792"></polygon>
                    <path d="M14.255027,53.9393842 C10.3783668,52.0139788 18.4398726,43.0625502 21.6477104,38.2598282 C20.3213591,44.1080714 18.1392162,55.8632838 14.255027,53.9393842 M13.2318417,41.4157162 C9.99388803,43.8189595 7.00539382,48.2259093 6.85079923,51.1283224 C6.80085714,52.0375695 7.73444788,53.7634575 8.3207027,54.4618938 C9.47865637,55.8396931 12.3223436,57.1221255 14.4061081,58.3051757 C17.3567066,59.9806197 20.473695,59.4478205 22.0645637,56.4661023 C23.3397181,54.0751564 23.8888301,51.2405039 24.0660116,48.5117587 C24.3029228,44.8243263 22.2841583,37.5912568 22.1007027,36.3135927 L21.5242355,36.7339595 C19.3732124,38.1378591 17.0798919,38.5594807 13.2318417,41.4157162" id="Fill-14" fill="#000000" mask="url(#mask-2)"></path>
                    <path d="M19.4642625,34.9062297 C13.6895521,33.2827355 2.06710039,30.5040483 4.18298842,26.7247625 C6.30314286,22.9452259 14.831444,31.4549556 19.4642625,34.9062297 M2.58333591,23.9222336 C1.93233205,25.2935077 1.31219691,26.6820985 0.738239382,28.0859981 C-1.01525483,32.3170212 0.362544402,35.9831216 4.78806564,36.9802066 C8.40171429,37.793334 21.7114054,36.3101293 21.7114054,36.3101293 C21.3284324,35.4478127 13.8268301,23.0215193 11.3440309,21.2682761 C7.84256371,18.7977741 4.42893436,20.0405541 2.58333591,23.9222336" id="Fill-15" fill="#000000" mask="url(#mask-2)"></path>
                </g>
            </g>
        </g>
    </g>
</svg>