<?xml version="1.0" encoding="UTF-8" standalone="no"?>
<svg width="100px" height="80px" viewBox="0 0 107 92" version="1.1" xmlns="http://www.w3.org/2000/svg" xmlns:xlink="http://www.w3.org/1999/xlink">
    <!-- Generator: Sketch 48.2 (47327) - http://www.bohemiancoding.com/sketch -->
    <title>Valuables_Red</title>
    <desc>Created with Sketch.</desc>
    <defs></defs>
    <g id="Page4-Copy" stroke="none" stroke-width="1" fill="none" fill-rule="evenodd" transform="translate(-706.000000, -461.000000)">
        <g id="Valuables_Red" transform="translate(706.000000, 461.000000)" fill="#D0021B">
            <text id="Valuables" font-family="Lato-Bold, Lato" font-size="16" font-weight="bold">
                <tspan x="25.72" y="91">Valuables</tspan>
            </text>
            <g id="Page-1">
                <polygon id="Fill-1" points="68.8176583 11.8088687 74.0106313 11.8088687 76.5960753 21.0110116"></polygon>
                <polygon id="Fill-2" points="79.6667606 21.0110116 82.2522046 11.8088687 87.4451776 11.8088687"></polygon>
                <polygon id="Fill-3" points="84.9434054 6.48100193 86.1949691 8.64833784 87.445278 10.8144189 84.9434054 10.8144189 82.4415328 10.8144189 83.6933475 8.64833784"></polygon>
                <polygon id="Fill-4" points="78.0957683 6.48100193 79.3460772 8.64833784 80.5976409 10.8144189 78.0957683 10.8144189 75.5938958 10.8144189 76.8457104 8.64833784"></polygon>
                <polygon id="Fill-5" points="71.2481564 6.48100193 72.4984653 8.64833784 73.750029 10.8144189 71.2481564 10.8144189 68.7465347 10.8144189 69.9968436 8.64833784"></polygon>
                <polygon id="Fill-6" points="74.5310328 9.71514093 73.2809749 7.55031467 72.0304151 5.38297876 74.5310328 5.38297876 77.0316506 5.38297876 75.7825965 7.55031467"></polygon>
                <polygon id="Fill-7" points="81.3786699 9.71514093 80.128612 7.55031467 78.8780521 5.38297876 81.3786699 5.38297876 83.8817973 5.38297876 82.6302336 7.55031467"></polygon>
                <polygon id="Fill-8" points="78.0957683 20.8162876 76.906695 16.3132181 75.7188764 11.8088938 78.0957683 11.8088938 80.4729112 11.8088938 79.2848417 16.3132181"></polygon>
                <path d="M78.0945637,57.6883282 C68.2449305,57.6883282 60.260471,49.7053745 60.260471,39.8544865 C60.260471,30.0035985 68.2449305,22.019139 78.0945637,22.019139 C87.9467066,22.019139 95.9309151,30.0035985 95.9309151,39.8544865 C95.9309151,49.7053745 87.9467066,57.6883282 78.0945637,57.6883282 M78.0945637,19.9592162 C67.1070541,19.9592162 58.1995444,28.8667259 58.1995444,39.8544865 C58.1995444,50.8422471 67.1083089,59.7485019 78.0945637,59.7485019 C89.084834,59.7485019 97.9923436,50.8422471 97.9923436,39.8544865 C97.9923436,28.8667259 89.0860888,19.9592162 78.0945637,19.9592162" id="Fill-9"></path>
                <polygon id="Fill-11" points="49.7819691 64.0169691 106.412027 64.0169691 106.412027 36.3048842 49.7819691 36.3048842"></polygon>
                <polygon id="Fill-13" points="23.2294691 0.250990347 48.9764961 58.6867432 34.9174228 64.8810676 9.17014479 6.44556564"></polygon>
                <path d="M14.255027,54.0713919 C10.3783668,52.1459865 18.4398726,43.1945579 21.6477104,38.3918359 C20.3213591,44.2400792 18.1392162,55.9952915 14.255027,54.0713919 M13.2318417,41.5477239 C9.99388803,43.9509672 7.00539382,48.357917 6.85079923,51.2603301 C6.80085714,52.1695772 7.73444788,53.8954653 8.3207027,54.5939015 C9.47865637,55.9717008 12.3223436,57.2541332 14.4061081,58.4371834 C17.3567066,60.1126274 20.473695,59.5798282 22.0645637,56.59811 C23.3397181,54.2071641 23.8888301,51.3725116 24.0660116,48.6437664 C24.3029228,44.956334 22.2841583,37.7232645 22.1007027,36.4456004 L21.5242355,36.8659672 C19.3732124,38.2698668 17.0798919,38.6914884 13.2318417,41.5477239" id="Fill-14"></path>
                <path d="M19.4642625,35.0382375 C13.6895521,33.4147432 2.06710039,30.636056 4.18298842,26.8567703 C6.30314286,23.0772336 14.831444,31.5869633 19.4642625,35.0382375 M2.58333591,24.0542413 C1.93233205,25.4255154 1.31219691,26.8141062 0.738239382,28.2180058 C-1.01525483,32.449029 0.362544402,36.1151293 4.78806564,37.1122143 C8.40171429,37.9253417 21.7114054,36.4421371 21.7114054,36.4421371 C21.3284324,35.5798205 13.8268301,23.153527 11.3440309,21.4002838 C7.84256371,18.9297819 4.42893436,20.1725618 2.58333591,24.0542413" id="Fill-15"></path>
            </g>
        </g>
    </g>
</svg>