<?xml version="1.0" encoding="UTF-8" standalone="no"?>
<svg width="79px" height="80px" viewBox="0 0 79 106" version="1.1" xmlns="http://www.w3.org/2000/svg" xmlns:xlink="http://www.w3.org/1999/xlink">
    <!-- Generator: Sketch 48.2 (47327) - http://www.bohemiancoding.com/sketch -->
    <title>56Years</title>
    <desc>Created with Sketch.</desc>
    <defs></defs>
    <g id="Page2-Copy-2" stroke="none" stroke-width="1" fill="none" fill-rule="evenodd" transform="translate(-674.000000, -154.000000)">
        <g id="56Years" transform="translate(674.000000, 154.000000)">
            <path d="M16.764,75.272 C16.764,75.5546681 16.6746676,75.7839991 16.496,75.96 C16.3173324,76.1360009 16.0200021,76.224 15.604,76.224 L12.42,76.224 L12.004,78.64 C12.5266693,78.5333328 13.0039978,78.48 13.436,78.48 C14.044003,78.48 14.5786644,78.5706658 15.04,78.752 C15.5013356,78.9333342 15.8893318,79.1839984 16.204,79.504 C16.5186682,79.8240016 16.7559992,80.1986645 16.916,80.628 C17.0760008,81.0573355 17.156,81.5199975 17.156,82.016 C17.156,82.6293364 17.0480011,83.1893308 16.832,83.696 C16.6159989,84.2026692 16.3160019,84.6359982 15.932,84.996 C15.5479981,85.3560018 15.093336,85.6346657 14.568,85.832 C14.042664,86.0293343 13.4706698,86.128 12.852,86.128 C12.4893315,86.128 12.145335,86.090667 11.82,86.016 C11.494665,85.941333 11.1893348,85.841334 10.904,85.716 C10.6186652,85.590666 10.3546679,85.4466675 10.112,85.284 C9.86933212,85.1213325 9.65200096,84.9493342 9.46,84.768 L10.068,83.928 C10.1960006,83.7466658 10.3666656,83.656 10.58,83.656 C10.713334,83.656 10.8479993,83.6986662 10.984,83.784 C11.1200007,83.8693338 11.2786658,83.9626662 11.46,84.064 C11.6413342,84.1653338 11.8519988,84.2586662 12.092,84.344 C12.3320012,84.4293338 12.622665,84.472 12.964,84.472 C13.3266685,84.472 13.6466653,84.4133339 13.924,84.296 C14.2013347,84.1786661 14.4319991,84.0146677 14.616,83.804 C14.8000009,83.5933323 14.9386662,83.3426681 15.032,83.052 C15.1253338,82.7613319 15.172,82.445335 15.172,82.104 C15.172,81.4746635 14.9893352,80.9826684 14.624,80.628 C14.2586648,80.2733316 13.7213369,80.096 13.012,80.096 C12.4519972,80.096 11.8893362,80.1973323 11.324,80.4 L10.092,80.048 L11.052,74.432 L16.764,74.432 L16.764,75.272 Z M23.492,78.776 C23.9293355,78.776 24.3546646,78.8479993 24.768,78.992 C25.1813354,79.1360007 25.5453318,79.3533319 25.86,79.644 C26.1746682,79.9346681 26.427999,80.2959978 26.62,80.728 C26.812001,81.1600022 26.908,81.6639971 26.908,82.24 C26.908,82.7786694 26.8093343,83.2839976 26.612,83.756 C26.4146657,84.2280024 26.1373351,84.6399982 25.78,84.992 C25.4226649,85.3440018 24.9920025,85.6213323 24.488,85.824 C23.9839975,86.0266677 23.428003,86.128 22.82,86.128 C22.2013302,86.128 21.6466691,86.0293343 21.156,85.832 C20.6653309,85.6346657 20.2466684,85.3586684 19.9,85.004 C19.5533316,84.6493316 19.2880009,84.2226692 19.104,83.724 C18.9199991,83.2253308 18.828,82.672003 18.828,82.064 C18.828,81.5199973 18.9386656,80.9613362 19.16,80.388 C19.3813344,79.8146638 19.7239977,79.2186698 20.188,78.6 L22.948,74.896 C23.0440005,74.7679994 23.1839991,74.6586671 23.368,74.568 C23.5520009,74.4773329 23.7639988,74.432 24.004,74.432 L25.764,74.432 L22.332,78.632 C22.257333,78.7226671 22.186667,78.8079996 22.12,78.888 C22.053333,78.9680004 21.9880003,79.0506662 21.924,79.136 C22.1480011,79.0239994 22.389332,78.9360003 22.648,78.872 C22.906668,78.8079997 23.1879985,78.776 23.492,78.776 Z M20.724,82.368 C20.724,82.6880016 20.7679996,82.9799987 20.856,83.244 C20.9440004,83.5080013 21.0746658,83.7333324 21.248,83.92 C21.4213342,84.1066676 21.6359987,84.2519995 21.892,84.356 C22.1480013,84.4600005 22.4439983,84.512 22.78,84.512 C23.0946682,84.512 23.3839987,84.4586672 23.648,84.352 C23.9120013,84.2453328 24.1386657,84.096001 24.328,83.904 C24.5173343,83.711999 24.6653328,83.486668 24.772,83.228 C24.8786672,82.969332 24.932,82.6880015 24.932,82.384 C24.932,82.0533317 24.8813338,81.7560013 24.78,81.492 C24.6786662,81.2279987 24.5346676,81.0040009 24.348,80.82 C24.1613324,80.6359991 23.9373346,80.4960005 23.676,80.4 C23.4146654,80.3039995 23.1266682,80.256 22.812,80.256 C22.4973318,80.256 22.2120013,80.3093328 21.956,80.416 C21.6999987,80.5226672 21.4800009,80.6706657 21.296,80.86 C21.1119991,81.0493343 20.9706672,81.273332 20.872,81.532 C20.7733328,81.790668 20.724,82.0693318 20.724,82.368 Z M36.812,81.504 L36.812,86 L34.66,86 L34.66,81.504 L30.444,74.432 L32.34,74.432 C32.5266676,74.432 32.6746661,74.4773329 32.784,74.568 C32.8933339,74.6586671 32.985333,74.7733326 33.06,74.912 L35.18,78.776 C35.3026673,79.0053345 35.4093329,79.2226656 35.5,79.428 C35.5906671,79.6333344 35.673333,79.8346657 35.748,80.032 C35.8173337,79.8293323 35.8959996,79.6253344 35.984,79.42 C36.0720004,79.2146656 36.1773327,79.0000011 36.3,78.776 L38.404,74.912 C38.462667,74.7946661 38.5506661,74.6853338 38.668,74.584 C38.7853339,74.4826662 38.9346658,74.432 39.116,74.432 L41.02,74.432 L36.812,81.504 Z M44.14,77.664 C44.6573359,77.664 45.1333312,77.7466658 45.568,77.912 C46.0026688,78.0773342 46.3773318,78.3186651 46.692,78.636 C47.0066682,78.9533349 47.2519991,79.3426644 47.428,79.804 C47.6040009,80.2653356 47.692,80.791997 47.692,81.384 C47.692,81.5333341 47.6853334,81.6573328 47.672,81.756 C47.6586666,81.8546672 47.6346668,81.9319997 47.6,81.988 C47.5653332,82.0440003 47.518667,82.0839999 47.46,82.108 C47.401333,82.1320001 47.3266671,82.144 47.236,82.144 L42.164,82.144 C42.222667,82.9866709 42.4493314,83.6053314 42.844,84 C43.2386686,84.3946686 43.7613301,84.592 44.412,84.592 C44.7320016,84.592 45.0079988,84.554667 45.24,84.48 C45.4720012,84.405333 45.6746658,84.3226671 45.848,84.232 C46.0213342,84.1413329 46.1733327,84.058667 46.304,83.984 C46.4346673,83.909333 46.5613327,83.872 46.684,83.872 C46.7640004,83.872 46.833333,83.8879998 46.892,83.92 C46.950667,83.9520002 47.0013331,83.997333 47.044,84.056 L47.62,84.776 C47.4013322,85.0320013 47.1560014,85.2466658 46.884,85.42 C46.6119986,85.5933342 46.3280015,85.7319995 46.032,85.836 C45.7359985,85.9400005 45.4346682,86.0133331 45.128,86.056 C44.8213318,86.0986669 44.5240014,86.12 44.236,86.12 C43.6653305,86.12 43.1346691,86.0253343 42.644,85.836 C42.1533309,85.6466657 41.7266685,85.3666685 41.364,84.996 C41.0013315,84.6253315 40.716001,84.1666694 40.508,83.62 C40.299999,83.0733306 40.196,82.4400036 40.196,81.72 C40.196,81.1599972 40.2866658,80.6333358 40.468,80.14 C40.6493342,79.6466642 40.9093316,79.2173352 41.248,78.852 C41.5866684,78.4866648 41.9999976,78.1973344 42.488,77.984 C42.9760024,77.7706656 43.5266636,77.664 44.14,77.664 Z M44.18,79.08 C43.6039971,79.08 43.153335,79.242665 42.828,79.568 C42.502665,79.893335 42.2946671,80.3546637 42.204,80.952 L45.916,80.952 C45.916,80.6959987 45.8813337,80.4546678 45.812,80.228 C45.7426663,80.0013322 45.6360007,79.8026675 45.492,79.632 C45.3479993,79.4613325 45.1666678,79.3266672 44.948,79.228 C44.7293322,79.1293328 44.4733348,79.08 44.18,79.08 Z M55.732,86 L54.844,86 C54.6573324,86 54.5106672,85.9720003 54.404,85.916 C54.2973328,85.8599997 54.2173336,85.7466675 54.164,85.576 L53.988,84.992 C53.779999,85.1786676 53.576001,85.342666 53.376,85.484 C53.175999,85.625334 52.9693344,85.7439995 52.756,85.84 C52.5426656,85.9360005 52.3160012,86.0079998 52.076,86.056 C51.8359988,86.1040002 51.5693348,86.128 51.276,86.128 C50.9293316,86.128 50.6093348,86.0813338 50.316,85.988 C50.0226652,85.8946662 49.7706677,85.7546676 49.56,85.568 C49.3493323,85.3813324 49.1853339,85.1493347 49.068,84.872 C48.9506661,84.5946653 48.892,84.2720018 48.892,83.904 C48.892,83.5946651 48.9733325,83.2893348 49.136,82.988 C49.2986675,82.6866652 49.5693314,82.4146679 49.948,82.172 C50.3266686,81.9293321 50.8306635,81.7280008 51.46,81.568 C52.0893365,81.4079992 52.870662,81.3173334 53.804,81.296 L53.804,80.816 C53.804,80.2666639 53.6880012,79.8600013 53.456,79.596 C53.2239988,79.3319987 52.8866689,79.2 52.444,79.2 C52.1239984,79.2 51.8573344,79.237333 51.644,79.312 C51.4306656,79.386667 51.2453341,79.4706662 51.088,79.564 C50.9306659,79.6573338 50.785334,79.741333 50.652,79.816 C50.518666,79.890667 50.3720008,79.928 50.212,79.928 C50.078666,79.928 49.9640005,79.8933337 49.868,79.824 C49.7719995,79.7546663 49.694667,79.6693338 49.636,79.568 L49.276,78.936 C50.2200047,78.0719957 51.35866,77.64 52.692,77.64 C53.1720024,77.64 53.5999981,77.7186659 53.976,77.876 C54.3520019,78.0333341 54.6706654,78.2519986 54.932,78.532 C55.1933346,78.8120014 55.3919993,79.1466647 55.528,79.536 C55.6640007,79.9253353 55.732,80.3519977 55.732,80.816 L55.732,86 Z M51.892,84.768 C52.0946677,84.768 52.2813325,84.7493335 52.452,84.712 C52.6226675,84.6746665 52.7839992,84.618667 52.936,84.544 C53.0880008,84.469333 53.234666,84.3773339 53.376,84.268 C53.517334,84.1586661 53.6599993,84.0293341 53.804,83.88 L53.804,82.496 C53.2279971,82.5226668 52.7466686,82.5719996 52.36,82.644 C51.9733314,82.7160004 51.6626678,82.8079994 51.428,82.92 C51.1933322,83.0320006 51.0266672,83.1626659 50.928,83.312 C50.8293328,83.4613341 50.78,83.6239991 50.78,83.8 C50.78,84.1466684 50.8826656,84.3946659 51.088,84.544 C51.2933344,84.6933341 51.5613317,84.768 51.892,84.768 Z M57.676,86 L57.676,77.792 L58.836,77.792 C59.0386677,77.792 59.1799996,77.829333 59.26,77.904 C59.3400004,77.978667 59.3933332,78.1066658 59.42,78.288 L59.54,79.28 C59.8333348,78.7733308 60.1773314,78.3733348 60.572,78.08 C60.9666686,77.7866652 61.4093309,77.64 61.9,77.64 C62.3053354,77.64 62.641332,77.7333324 62.908,77.92 L62.652,79.4 C62.6359999,79.4960005 62.6013336,79.5639998 62.548,79.604 C62.4946664,79.6440002 62.4226671,79.664 62.332,79.664 C62.2519996,79.664 62.1426674,79.6453335 62.004,79.608 C61.8653326,79.5706665 61.6813345,79.552 61.452,79.552 C61.0413313,79.552 60.6893348,79.6653322 60.396,79.892 C60.1026652,80.1186678 59.8546677,80.4506645 59.652,80.888 L59.652,86 L57.676,86 Z M69.084,79.392 C69.0306664,79.4773338 68.974667,79.5373332 68.916,79.572 C68.857333,79.6066668 68.7826671,79.624 68.692,79.624 C68.5959995,79.624 68.4933339,79.5973336 68.384,79.544 C68.2746661,79.4906664 68.1480007,79.430667 68.004,79.364 C67.8599993,79.297333 67.6960009,79.2373336 67.512,79.184 C67.3279991,79.1306664 67.1106679,79.104 66.86,79.104 C66.4706647,79.104 66.1640011,79.1866658 65.94,79.352 C65.7159989,79.5173342 65.604,79.733332 65.604,80 C65.604,80.1760009 65.6613328,80.3239994 65.776,80.444 C65.8906672,80.5640006 66.0426657,80.6693329 66.232,80.76 C66.4213343,80.8506671 66.6359988,80.9319996 66.876,81.004 C67.1160012,81.0760004 67.3613321,81.1546662 67.612,81.24 C67.8626679,81.3253338 68.1079988,81.4226661 68.348,81.532 C68.5880012,81.6413339 68.8026657,81.7799992 68.992,81.948 C69.1813343,82.1160008 69.3333328,82.3173322 69.448,82.552 C69.5626672,82.7866678 69.62,83.0693317 69.62,83.4 C69.62,83.7946686 69.5480007,84.158665 69.404,84.492 C69.2599993,84.825335 69.0493347,85.1133321 68.772,85.356 C68.4946653,85.5986679 68.152002,85.7879993 67.744,85.924 C67.335998,86.0600007 66.8680026,86.128 66.34,86.128 C66.0573319,86.128 65.7813347,86.1026669 65.512,86.052 C65.2426653,86.0013331 64.9840012,85.9306671 64.736,85.84 C64.4879988,85.7493329 64.2586677,85.6426673 64.048,85.52 C63.8373323,85.3973327 63.6520008,85.2640007 63.492,85.12 L63.948,84.368 C64.006667,84.2773329 64.0759996,84.2080002 64.156,84.16 C64.2360004,84.1119998 64.3373327,84.088 64.46,84.088 C64.5826673,84.088 64.6986661,84.1226663 64.808,84.192 C64.9173339,84.2613337 65.0439993,84.3359996 65.188,84.416 C65.3320007,84.4960004 65.5013324,84.5706663 65.696,84.64 C65.8906676,84.7093337 66.1373318,84.744 66.436,84.744 C66.6706678,84.744 66.8719992,84.7160003 67.04,84.66 C67.2080008,84.6039997 67.3466661,84.5306671 67.456,84.44 C67.5653339,84.3493329 67.6453331,84.2440006 67.696,84.124 C67.7466669,84.0039994 67.772,83.8800006 67.772,83.752 C67.772,83.559999 67.7146672,83.4026673 67.6,83.28 C67.4853328,83.1573327 67.3333343,83.0506671 67.144,82.96 C66.9546657,82.8693329 66.7386679,82.7880004 66.496,82.716 C66.2533321,82.6439996 66.0053346,82.5653338 65.752,82.48 C65.4986654,82.3946662 65.2506679,82.2946672 65.008,82.18 C64.7653321,82.0653328 64.5493343,81.9200009 64.36,81.744 C64.1706657,81.5679991 64.0186672,81.3520013 63.904,81.096 C63.7893328,80.8399987 63.732,80.5306685 63.732,80.168 C63.732,79.8319983 63.798666,79.5120015 63.932,79.208 C64.065334,78.9039985 64.261332,78.6386678 64.52,78.412 C64.778668,78.1853322 65.1013314,78.0040007 65.488,77.868 C65.8746686,77.7319993 66.3213308,77.664 66.828,77.664 C67.3933362,77.664 67.9079977,77.7573324 68.372,77.944 C68.8360023,78.1306676 69.2226651,78.3759985 69.532,78.68 L69.084,79.392 Z M11.436,105 L9.772,105 C9.5853324,105 9.4320006,104.953334 9.312,104.86 C9.1919994,104.766666 9.1053336,104.650667 9.052,104.512 L8.188,102.152 L3.396,102.152 L2.532,104.512 C2.48933312,104.634667 2.40533396,104.746666 2.28,104.848 C2.15466604,104.949334 2.00133424,105 1.82,105 L0.148,105 L4.692,93.432 L6.892,93.432 L11.436,105 Z M3.948,100.632 L7.636,100.632 L6.228,96.784 C6.16399968,96.6133325 6.09333372,96.4120012 6.016,96.18 C5.93866628,95.9479988 5.86266704,95.6960014 5.788,95.424 C5.71333296,95.6960014 5.64000036,95.9493322 5.568,96.184 C5.49599964,96.4186678 5.42533368,96.6239991 5.356,96.8 L3.948,100.632 Z M12.516,105 L12.516,96.792 L13.724,96.792 C13.9800013,96.792 14.1479996,96.9119988 14.228,97.152 L14.364,97.8 C14.5293342,97.6293325 14.7039991,97.4746674 14.888,97.336 C15.0720009,97.1973326 15.2666656,97.0773338 15.472,96.976 C15.6773344,96.8746662 15.8973322,96.7973336 16.132,96.744 C16.3666678,96.6906664 16.6226653,96.664 16.9,96.664 C17.3480022,96.664 17.7453316,96.7399992 18.092,96.892 C18.4386684,97.0440008 18.7279988,97.257332 18.96,97.532 C19.1920012,97.806668 19.3679994,98.1346648 19.488,98.516 C19.6080006,98.8973352 19.668,99.317331 19.668,99.776 L19.668,105 L17.692,105 L17.692,99.776 C17.692,99.2746642 17.5760012,98.886668 17.344,98.612 C17.1119988,98.337332 16.7640023,98.2 16.3,98.2 C15.958665,98.2 15.6386682,98.2773326 15.34,98.432 C15.0413318,98.5866674 14.758668,98.797332 14.492,99.064 L14.492,105 L12.516,105 Z M27.388,105 C27.1319987,105 26.9640004,104.880001 26.884,104.64 L26.724,103.848 C26.5533325,104.040001 26.3746676,104.213333 26.188,104.368 C26.0013324,104.522667 25.8000011,104.655999 25.584,104.768 C25.3679989,104.880001 25.1360012,104.966666 24.888,105.028 C24.6399988,105.089334 24.3720014,105.12 24.084,105.12 C23.6359978,105.12 23.2253352,105.026668 22.852,104.84 C22.4786648,104.653332 22.1573347,104.382668 21.888,104.028 C21.6186653,103.673332 21.4106674,103.234669 21.264,102.712 C21.1173326,102.189331 21.044,101.592003 21.044,100.92 C21.044,100.311997 21.1266658,99.7466693 21.292,99.224 C21.4573342,98.7013307 21.6946651,98.2480019 22.004,97.864 C22.3133349,97.4799981 22.6839978,97.1800011 23.116,96.964 C23.5480022,96.7479989 24.0333306,96.64 24.572,96.64 C25.030669,96.64 25.422665,96.7133326 25.748,96.86 C26.073335,97.0066674 26.3639987,97.2026654 26.62,97.448 L26.62,93.112 L28.596,93.112 L28.596,105 L27.388,105 Z M24.756,103.552 C25.1666687,103.552 25.5159986,103.466668 25.804,103.296 C26.0920014,103.125332 26.3639987,102.882668 26.62,102.568 L26.62,98.888 C26.3959989,98.6159986 26.1520013,98.4240006 25.888,98.312 C25.6239987,98.1999994 25.3400015,98.144 25.036,98.144 C24.7373318,98.144 24.4666679,98.1999994 24.224,98.312 C23.9813321,98.4240006 23.7760008,98.5933322 23.608,98.82 C23.4399992,99.0466678 23.3106671,99.3346649 23.22,99.684 C23.1293329,100.033335 23.084,100.445331 23.084,100.92 C23.084,101.400002 23.1226663,101.806665 23.2,102.14 C23.2773337,102.473335 23.3879993,102.745332 23.532,102.956 C23.6760007,103.166668 23.851999,103.318666 24.06,103.412 C24.268001,103.505334 24.4999987,103.552 24.756,103.552 Z M44.1,105 L42.436,105 C42.2493324,105 42.0960006,104.953334 41.976,104.86 C41.8559994,104.766666 41.7693336,104.650667 41.716,104.512 L40.852,102.152 L36.06,102.152 L35.196,104.512 C35.1533331,104.634667 35.069334,104.746666 34.944,104.848 C34.818666,104.949334 34.6653342,105 34.484,105 L32.812,105 L37.356,93.432 L39.556,93.432 L44.1,105 Z M36.612,100.632 L40.3,100.632 L38.892,96.784 C38.8279997,96.6133325 38.7573337,96.4120012 38.68,96.18 C38.6026663,95.9479988 38.526667,95.6960014 38.452,95.424 C38.377333,95.6960014 38.3040004,95.9493322 38.232,96.184 C38.1599996,96.4186678 38.0893337,96.6239991 38.02,96.8 L36.612,100.632 Z M45.204,105 L45.204,93.112 L47.18,93.112 L47.18,97.8 C47.505335,97.4533316 47.8733313,97.1773344 48.284,96.972 C48.6946687,96.7666656 49.1746639,96.664 49.724,96.664 C50.1720022,96.664 50.5813315,96.7559991 50.952,96.94 C51.3226685,97.1240009 51.6426653,97.3919982 51.912,97.744 C52.1813347,98.0960018 52.3893326,98.5306641 52.536,99.048 C52.6826674,99.5653359 52.756,100.159997 52.756,100.832 C52.756,101.445336 52.6733342,102.013331 52.508,102.536 C52.3426658,103.058669 52.1066682,103.511998 51.8,103.896 C51.4933318,104.280002 51.1226688,104.579999 50.688,104.796 C50.2533312,105.012001 49.7666694,105.12 49.228,105.12 C48.9773321,105.12 48.748001,105.094667 48.54,105.044 C48.331999,104.993333 48.1426675,104.922667 47.972,104.832 C47.8013325,104.741333 47.6426674,104.630667 47.496,104.5 C47.3493326,104.369333 47.209334,104.224001 47.076,104.064 L46.988,104.616 C46.9559998,104.754667 46.9013337,104.853333 46.824,104.912 C46.7466663,104.970667 46.641334,105 46.508,105 L45.204,105 Z M49.044,98.2 C48.6333313,98.2 48.2826681,98.2866658 47.992,98.46 C47.7013319,98.6333342 47.4306679,98.8773318 47.18,99.192 L47.18,102.872 C47.4040011,103.149335 47.6479987,103.342666 47.912,103.452 C48.1760013,103.561334 48.4626651,103.616 48.772,103.616 C49.0706682,103.616 49.3399988,103.560001 49.58,103.448 C49.8200012,103.335999 50.0239992,103.165334 50.192,102.936 C50.3600008,102.706666 50.4893329,102.417335 50.58,102.068 C50.6706671,101.718665 50.716,101.306669 50.716,100.832 C50.716,100.351998 50.6773337,99.945335 50.6,99.612 C50.5226663,99.278665 50.4120007,99.008001 50.268,98.8 C50.1239993,98.591999 49.9493344,98.4400005 49.744,98.344 C49.5386656,98.2479995 49.3053346,98.2 49.044,98.2 Z M57.804,96.664 C58.4173364,96.664 58.9733308,96.7626657 59.472,96.96 C59.9706692,97.1573343 60.3959982,97.4373315 60.748,97.8 C61.1000018,98.1626685 61.371999,98.6053307 61.564,99.128 C61.756001,99.6506693 61.852,100.234663 61.852,100.88 C61.852,101.53067 61.756001,102.117331 61.564,102.64 C61.371999,103.162669 61.1000018,103.607998 60.748,103.976 C60.3959982,104.344002 59.9706692,104.626666 59.472,104.824 C58.9733308,105.021334 58.4173364,105.12 57.804,105.12 C57.1906636,105.12 56.6333358,105.021334 56.132,104.824 C55.6306642,104.626666 55.2026684,104.344002 54.848,103.976 C54.4933316,103.607998 54.2186676,103.162669 54.024,102.64 C53.8293324,102.117331 53.732,101.53067 53.732,100.88 C53.732,100.234663 53.8293324,99.6506693 54.024,99.128 C54.2186676,98.6053307 54.4933316,98.1626685 54.848,97.8 C55.2026684,97.4373315 55.6306642,97.1573343 56.132,96.96 C56.6333358,96.7626657 57.1906636,96.664 57.804,96.664 Z M57.804,103.6 C58.4866701,103.6 58.9919984,103.370669 59.32,102.912 C59.6480016,102.453331 59.812,101.781338 59.812,100.896 C59.812,100.010662 59.6480016,99.3360023 59.32,98.872 C58.9919984,98.4079977 58.4866701,98.176 57.804,98.176 C57.1106632,98.176 56.5986683,98.409331 56.268,98.876 C55.9373317,99.342669 55.772,100.015996 55.772,100.896 C55.772,101.776004 55.9373317,102.446664 56.268,102.908 C56.5986683,103.369336 57.1106632,103.6 57.804,103.6 Z M67.244,105 L65.452,105 L62.188,96.792 L63.828,96.792 C63.9720007,96.792 64.0933328,96.8266663 64.192,96.896 C64.2906672,96.9653337 64.3586665,97.0533328 64.396,97.16 L65.98,101.544 C66.0706671,101.800001 66.1466664,102.050665 66.208,102.296 C66.2693336,102.541335 66.3239998,102.786665 66.372,103.032 C66.4200002,102.786665 66.4746664,102.541335 66.536,102.296 C66.5973336,102.050665 66.6759995,101.800001 66.772,101.544 L68.396,97.16 C68.4333335,97.0533328 68.4999995,96.9653337 68.596,96.896 C68.6920005,96.8266663 68.806666,96.792 68.94,96.792 L70.5,96.792 L67.244,105 Z M74.796,96.664 C75.3133359,96.664 75.7893312,96.7466658 76.224,96.912 C76.6586688,97.0773342 77.0333318,97.3186651 77.348,97.636 C77.6626682,97.9533349 77.9079991,98.3426644 78.084,98.804 C78.2600009,99.2653356 78.348,99.791997 78.348,100.384 C78.348,100.533334 78.3413334,100.657333 78.328,100.756 C78.3146666,100.854667 78.2906668,100.932 78.256,100.988 C78.2213332,101.044 78.174667,101.084 78.116,101.108 C78.057333,101.132 77.9826671,101.144 77.892,101.144 L72.82,101.144 C72.878667,101.986671 73.1053314,102.605331 73.5,103 C73.8946686,103.394669 74.4173301,103.592 75.068,103.592 C75.3880016,103.592 75.6639988,103.554667 75.896,103.48 C76.1280012,103.405333 76.3306658,103.322667 76.504,103.232 C76.6773342,103.141333 76.8293327,103.058667 76.96,102.984 C77.0906673,102.909333 77.2173327,102.872 77.34,102.872 C77.4200004,102.872 77.489333,102.888 77.548,102.92 C77.606667,102.952 77.6573331,102.997333 77.7,103.056 L78.276,103.776 C78.0573322,104.032001 77.8120014,104.246666 77.54,104.42 C77.2679986,104.593334 76.9840015,104.731999 76.688,104.836 C76.3919985,104.940001 76.0906682,105.013333 75.784,105.056 C75.4773318,105.098667 75.1800014,105.12 74.892,105.12 C74.3213305,105.12 73.7906691,105.025334 73.3,104.836 C72.8093309,104.646666 72.3826685,104.366669 72.02,103.996 C71.6573315,103.625331 71.372001,103.166669 71.164,102.62 C70.955999,102.073331 70.852,101.440004 70.852,100.72 C70.852,100.159997 70.9426658,99.6333358 71.124,99.14 C71.3053342,98.6466642 71.5653316,98.2173352 71.904,97.852 C72.2426684,97.4866648 72.6559976,97.1973344 73.144,96.984 C73.6320024,96.7706656 74.1826636,96.664 74.796,96.664 Z M74.836,98.08 C74.2599971,98.08 73.809335,98.242665 73.484,98.568 C73.158665,98.893335 72.9506671,99.3546637 72.86,99.952 L76.572,99.952 C76.572,99.6959987 76.5373337,99.4546678 76.468,99.228 C76.3986663,99.0013322 76.2920007,98.8026675 76.148,98.632 C76.0039993,98.4613325 75.8226678,98.3266672 75.604,98.228 C75.3853322,98.1293328 75.1293348,98.08 74.836,98.08 Z" id="56-Years-And-Above" fill="#333333"></path>
            <g id="Page-1" opacity="0.5" transform="translate(26.000000, 0.000000)" fill="#000000">
                <path d="M21.5322404,35.0954936 L21.5322404,19.0108979 C21.6976949,19.3174085 21.8645636,19.668983 22.0293111,20.0794085 C22.8164222,22.0499617 23.4789475,25.2829404 23.476402,30.3303447 C23.4769677,31.7211957 23.4274727,33.2494085 23.3191495,34.9282596 C23.2473111,36.0401745 24.1878566,36.9954511 25.4205636,37.0595362 C25.4651091,37.0619617 25.5092303,37.062983 25.5532101,37.062983 C26.7286444,37.062983 27.7138768,36.235366 27.782604,35.1623872 C27.894604,33.4133234 27.9472101,31.8080043 27.9477758,30.3306 C27.935897,22.7171106 26.5897758,18.5039617 24.7523818,15.9701745 C23.8343212,14.712217 22.7608465,13.9057915 21.7686848,13.4587277 C20.8012707,13.0185574 19.9520788,12.9231957 19.4507657,12.9200043 C19.424604,12.9192383 19.3988667,12.9164298 19.3727051,12.9164298 L16.9982202,12.9164298 C17.3895131,14.9759617 18.2313515,20.472217 16.3273515,21.581834 C16.0026646,21.7710255 15.7260586,21.9316213 15.4787253,22.0686 L14.8135131,16.062217 C14.5397354,16.1292383 14.2581798,16.165366 13.9769071,16.165366 L13.9753515,16.165366 L13.9742202,16.165366 C13.6925232,16.165366 13.4108263,16.1294936 13.1364828,16.0627277 L12.4708465,22.0688553 C12.2232303,21.9318766 11.9463414,21.7711532 11.6213717,21.5820894 C9.7182202,20.4724723 10.5593515,14.976217 10.950503,12.9166851 L8.57743232,12.9166851 C8.54547273,12.9166851 8.5142202,12.9197489 8.48268485,12.9210255 C7.97967475,12.9254936 7.13783636,13.0228979 6.17947273,13.4587277 C4.67638182,14.1314936 3.05605859,15.6035362 1.92262424,18.211366 C0.7742,20.8291532 0.00391717172,24.6140043 -4.24242424e-05,30.3295787 C0.000806060606,31.8072383 0.0527050505,33.4135787 0.167391919,35.1628979 C0.236967677,36.2348553 1.22191717,37.0624723 2.39664444,37.0624723 C2.44076566,37.0624723 2.48460404,37.0614511 2.52957374,37.0590255 C3.76185657,36.9934085 4.70254343,36.0386426 4.63042222,34.926217 C4.52068485,33.2483872 4.4711899,31.7197915 4.4711899,30.3294511 C4.46143232,24.2192809 5.44850303,20.7874085 6.41803838,18.9971106 L6.41803838,56.8373234 C6.41803838,58.5599617 7.96525051,59.9556638 9.87250303,59.9556638 C11.7804626,59.9556638 13.3275333,58.5599617 13.3275333,56.8373234 L13.3275333,34.0663021 L14.6227455,34.0663021 L14.6227455,56.8373234 C14.6227455,58.5599617 16.1698162,59.9556638 18.0770687,59.9556638 C19.9851697,59.9556638 21.5322404,58.5599617 21.5322404,56.8373234 L21.5322404,53.2632383 C21.8615939,54.1308128 21.1176141,45.6711957 21.5322404,44.4280468 L21.5322404,37.5150255" id="Fill-1"></path>
                <path d="M9.71848889,8.56349362 C11.1336202,8.60064255 11.5990141,7.85574894 12.0369737,7.39477021 C12.4739434,6.93366383 13.4180242,7.0139617 13.4180242,7.0139617 C13.9447919,7.17442979 13.714004,7.92149362 13.714004,7.92149362 C13.714004,7.92149362 12.9123273,7.92149362 12.0369737,8.57983404 C11.1614788,9.23855745 8.8435596,8.54077021 9.71848889,8.56349362 M14.5309535,7.01421702 C14.5309535,7.01421702 15.4751758,6.93391915 15.9121455,7.39502553 C16.3498222,7.85600426 16.8153576,8.60077021 18.2304889,8.56374894 C19.1054182,8.54077021 16.7876404,9.23881277 15.9121455,8.58008936 C15.0365091,7.92174894 14.2349737,7.92174894 14.2349737,7.92174894 C14.2349737,7.92174894 14.0040444,7.17468511 14.5309535,7.01421702 M13.9747717,11.4786 C17.4467717,11.4786 20.2617616,8.93804681 20.2617616,5.80311064 C20.2617616,2.66881277 17.4467717,0.127621277 13.9747717,0.127621277 C10.5026303,0.127621277 7.68778182,2.66881277 7.68778182,5.80311064 C7.68778182,8.93804681 10.5026303,11.4786 13.9747717,11.4786" id="Fill-4"></path>
                <path d="M13.9747293,12.9061021 L13.1927091,12.9061021 L12.8014162,14.7978894 L13.0224465,15.2254213 C13.3249313,15.3455489 13.6486283,15.4075915 13.9741636,15.4078468 C14.2999818,15.4075915 14.6246687,15.3452936 14.9277192,15.224783 L15.1486081,14.7978894 L14.7573152,12.9061021 L13.9747293,12.9061021 Z" id="Fill-7"></path>
            </g>
        </g>
    </g>
</svg>