<?xml version="1.0" encoding="UTF-8" standalone="no"?>
<svg width="100px" height="80px" viewBox="0 0 116 92" version="1.1" xmlns="http://www.w3.org/2000/svg" xmlns:xlink="http://www.w3.org/1999/xlink">
    <!-- Generator: Sketch 48.2 (47327) - http://www.bohemiancoding.com/sketch -->
    <title>Bike</title>
    <desc>Created with Sketch.</desc>
    <defs>
        <polygon id="path-1" points="0 0 115.270075 0 115.270075 64.7615 0 64.7615"></polygon>
    </defs>
    <g id="Page4-Copy" stroke="none" stroke-width="1" fill="none" fill-rule="evenodd" transform="translate(-362.000000, -461.000000)">
        <g id="Bike" transform="translate(362.000000, 461.000000)">
            <path d="M44.1733333,91 L44.1733333,79.432 L48.1653333,79.432 C48.9226705,79.432 49.5693307,79.5039993 50.1053333,79.648 C50.641336,79.7920007 51.0813316,79.997332 51.4253333,80.264 C51.7693351,80.530668 52.0213325,80.8533314 52.1813333,81.232 C52.3413341,81.6106686 52.4213333,82.037331 52.4213333,82.512 C52.4213333,82.7840014 52.3813337,83.0439988 52.3013333,83.292 C52.2213329,83.5400012 52.0973342,83.7719989 51.9293333,83.988 C51.7613325,84.2040011 51.5480013,84.3999991 51.2893333,84.576 C51.0306654,84.7520009 50.7226685,84.9013327 50.3653333,85.024 C51.9546746,85.3813351 52.7493333,86.2399932 52.7493333,87.6 C52.7493333,88.0906691 52.6560009,88.5439979 52.4693333,88.96 C52.2826657,89.3760021 52.0106685,89.7346652 51.6533333,90.036 C51.2959982,90.3373348 50.8560026,90.5733325 50.3333333,90.744 C49.8106641,90.9146675 49.2133367,91 48.5413333,91 L44.1733333,91 Z M46.3253333,85.928 L46.3253333,89.32 L48.5093333,89.32 C48.9093353,89.32 49.2439987,89.2720005 49.5133333,89.176 C49.782668,89.0799995 49.9986659,88.9520008 50.1613333,88.792 C50.3240008,88.6319992 50.441333,88.4453344 50.5133333,88.232 C50.5853337,88.0186656 50.6213333,87.7920012 50.6213333,87.552 C50.6213333,87.3013321 50.5813337,87.076001 50.5013333,86.876 C50.4213329,86.675999 50.2960009,86.505334 50.1253333,86.364 C49.9546658,86.222666 49.7360013,86.114667 49.4693333,86.04 C49.2026653,85.965333 48.8800019,85.928 48.5013333,85.928 L46.3253333,85.928 Z M46.3253333,84.44 L48.0453333,84.44 C48.7760037,84.44 49.3306648,84.306668 49.7093333,84.04 C50.0880019,83.773332 50.2773333,83.3493362 50.2773333,82.768 C50.2773333,82.1653303 50.1066684,81.7360013 49.7653333,81.48 C49.4239983,81.2239987 48.8906703,81.096 48.1653333,81.096 L46.3253333,81.096 L46.3253333,84.44 Z M56.5893333,82.792 L56.5893333,91 L54.6133333,91 L54.6133333,82.792 L56.5893333,82.792 Z M56.8853333,80.4 C56.8853333,80.5706675 56.850667,80.7306659 56.7813333,80.88 C56.7119997,81.0293341 56.6200006,81.1599994 56.5053333,81.272 C56.3906661,81.3840006 56.2560008,81.473333 56.1013333,81.54 C55.9466659,81.606667 55.7813342,81.64 55.6053333,81.64 C55.4346658,81.64 55.2733341,81.606667 55.1213333,81.54 C54.9693326,81.473333 54.8373339,81.3840006 54.7253333,81.272 C54.6133328,81.1599994 54.5240003,81.0293341 54.4573333,80.88 C54.3906663,80.7306659 54.3573333,80.5706675 54.3573333,80.4 C54.3573333,80.2239991 54.3906663,80.0586674 54.4573333,79.904 C54.5240003,79.7493326 54.6133328,79.6160006 54.7253333,79.504 C54.8373339,79.3919994 54.9693326,79.302667 55.1213333,79.236 C55.2733341,79.169333 55.4346658,79.136 55.6053333,79.136 C55.7813342,79.136 55.9466659,79.169333 56.1013333,79.236 C56.2560008,79.302667 56.3906661,79.3919994 56.5053333,79.504 C56.6200006,79.6160006 56.7119997,79.7493326 56.7813333,79.904 C56.850667,80.0586674 56.8853333,80.2239991 56.8853333,80.4 Z M60.8213333,79.112 L60.8213333,85.92 L61.1893333,85.92 C61.3226673,85.92 61.4266663,85.9013335 61.5013333,85.864 C61.5760004,85.8266665 61.6559996,85.7573338 61.7413333,85.656 L63.7813333,83.136 C63.8720005,83.0293328 63.9679995,82.9453336 64.0693333,82.884 C64.1706672,82.8226664 64.3039992,82.792 64.4693333,82.792 L66.2773333,82.792 L63.7253333,85.84 C63.6346662,85.9520006 63.5413338,86.0546662 63.4453333,86.148 C63.3493329,86.2413338 63.2453339,86.3226663 63.1333333,86.392 C63.2453339,86.4720004 63.3439996,86.5653328 63.4293333,86.672 C63.5146671,86.7786672 63.5999996,86.8933327 63.6853333,87.016 L66.4213333,91 L64.6373333,91 C64.4826659,91 64.3520005,90.9733336 64.2453333,90.92 C64.1386661,90.8666664 64.0426671,90.7760006 63.9573333,90.648 L61.8693333,87.536 C61.7893329,87.4133327 61.7093337,87.3333335 61.6293333,87.296 C61.5493329,87.2586665 61.4293341,87.24 61.2693333,87.24 L60.8213333,87.24 L60.8213333,91 L58.8453333,91 L58.8453333,79.112 L60.8213333,79.112 Z M70.5573333,82.664 C71.0746693,82.664 71.5506645,82.7466658 71.9853333,82.912 C72.4200022,83.0773342 72.7946651,83.3186651 73.1093333,83.636 C73.4240016,83.9533349 73.6693325,84.3426644 73.8453333,84.804 C74.0213342,85.2653356 74.1093333,85.791997 74.1093333,86.384 C74.1093333,86.5333341 74.1026667,86.6573328 74.0893333,86.756 C74.0759999,86.8546672 74.0520002,86.9319997 74.0173333,86.988 C73.9826665,87.0440003 73.9360003,87.0839999 73.8773333,87.108 C73.8186664,87.1320001 73.7440005,87.144 73.6533333,87.144 L68.5813333,87.144 C68.6400003,87.9866709 68.8666647,88.6053314 69.2613333,89 C69.656002,89.3946686 70.1786634,89.592 70.8293333,89.592 C71.1493349,89.592 71.4253322,89.554667 71.6573333,89.48 C71.8893345,89.405333 72.0919991,89.3226671 72.2653333,89.232 C72.4386675,89.1413329 72.590666,89.058667 72.7213333,88.984 C72.8520007,88.909333 72.9786661,88.872 73.1013333,88.872 C73.1813337,88.872 73.2506664,88.8879998 73.3093333,88.92 C73.3680003,88.9520002 73.4186665,88.997333 73.4613333,89.056 L74.0373333,89.776 C73.8186656,90.0320013 73.5733347,90.2466658 73.3013333,90.42 C73.029332,90.5933342 72.7453348,90.7319995 72.4493333,90.836 C72.1533319,90.9400005 71.8520015,91.0133331 71.5453333,91.056 C71.2386651,91.0986669 70.9413348,91.12 70.6533333,91.12 C70.0826638,91.12 69.5520025,91.0253343 69.0613333,90.836 C68.5706642,90.6466657 68.1440018,90.3666685 67.7813333,89.996 C67.4186649,89.6253315 67.1333344,89.1666694 66.9253333,88.62 C66.7173323,88.0733306 66.6133333,87.4400036 66.6133333,86.72 C66.6133333,86.1599972 66.7039991,85.6333358 66.8853333,85.14 C67.0666676,84.6466642 67.326665,84.2173352 67.6653333,83.852 C68.0040017,83.4866648 68.4173309,83.1973344 68.9053333,82.984 C69.3933358,82.7706656 69.9439969,82.664 70.5573333,82.664 Z M70.5973333,84.08 C70.0213305,84.08 69.5706683,84.242665 69.2453333,84.568 C68.9199984,84.893335 68.7120005,85.3546637 68.6213333,85.952 L72.3333333,85.952 C72.3333333,85.6959987 72.298667,85.4546678 72.2293333,85.228 C72.1599997,85.0013322 72.0533341,84.8026675 71.9093333,84.632 C71.7653326,84.4613325 71.5840011,84.3266672 71.3653333,84.228 C71.1466656,84.1293328 70.8906681,84.08 70.5973333,84.08 Z" fill="#333333"></path>
            <g id="Page-1" opacity="0.5">
                <mask id="mask-2" fill="white">
                    <use xlink:href="#path-1"></use>
                </mask>
                <g id="Clip-2"></g>
                <path d="M109.918575,48.4158 C109.401575,47.34255 108.580575,46.2208 107.268825,45.3233 C107.215575,45.2868 107.160325,45.2513 107.104575,45.2183 C106.519075,42.2803 104.424325,39.8798 101.667075,38.8633 C102.872575,38.0318 104.365325,37.8878 105.684075,37.9978 C108.322075,40.07005 110.025075,43.2878 110.025075,46.8963 C110.025075,47.4123 109.986825,47.9188 109.918575,48.4158 M100.820325,58.00755 C101.667075,57.1868 102.467825,56.0663 102.908325,54.5633 C102.933075,54.4818 102.954325,54.3968 102.973325,54.3153 C105.482325,52.8698 107.188575,50.19405 107.267575,47.11455 C108.453325,47.95055 109.085075,49.27555 109.416575,50.54855 C108.115325,54.3543 104.840075,57.2483 100.820325,58.00755 M98.624075,58.2058 C94.355575,58.17255 90.644325,55.7663 88.746575,52.24055 C89.821325,52.8483 91.203075,53.32105 92.872575,53.2728 C92.916075,53.2713 92.960075,53.2688 93.003575,53.2653 C94.518575,54.6268 96.521075,55.4548 98.711575,55.4548 C99.580575,55.4548 100.420325,55.32505 101.213825,55.0813 C100.794575,56.4748 99.734325,57.49055 98.624075,58.2058 M87.400825,46.8963 C87.400825,46.70605 87.405325,46.5173 87.417075,46.3283 C88.948825,47.73955 90.339825,48.6638 90.339825,48.6638 C90.584075,49.82005 91.061075,50.88955 91.721325,51.82355 C90.226325,51.8093 88.905075,51.0383 87.883575,50.15755 C87.570825,49.1243 87.400825,48.02955 87.400825,46.8963 M90.617325,39.00605 C90.440075,39.84805 90.365825,40.8128 90.525075,41.8588 C89.999575,41.7268 89.376075,41.6003 88.778825,41.49055 C89.274575,40.5788 89.898075,39.74405 90.617325,39.00605 M92.211325,37.87955 L93.350825,40.2318 C92.808825,40.6688 92.322325,41.17055 91.902075,41.7243 C91.507325,40.4148 91.761325,39.05205 92.211325,37.87955 M98.712825,35.58405 C100.556075,35.58405 102.291825,36.03055 103.830325,36.8133 C102.589575,36.94555 101.169075,37.3708 99.821575,38.4098 C99.821575,38.4098 99.819325,38.41105 99.819325,38.41205 C99.456575,38.3648 99.088325,38.3378 98.711575,38.3378 C97.574575,38.3378 96.488075,38.5633 95.491575,38.96955 L94.315575,36.47455 C95.670075,35.9018 97.155325,35.58405 98.712825,35.58405 M25.774825,56.57555 C26.336825,55.34005 26.740825,53.69755 26.380575,51.77855 C26.224825,50.95105 25.865825,50.26255 25.389825,49.6878 C25.450075,49.57055 25.507825,49.45155 25.562075,49.3288 C27.392575,50.1293 29.157825,50.9158 30.284325,51.44805 C29.338575,53.5843 27.755075,55.3758 25.774825,56.57555 M13.473325,56.17605 C14.498075,56.11455 15.624575,55.8538 16.762825,55.2303 C17.771325,54.67755 18.417075,53.8513 18.822325,52.92755 C19.181325,52.9948 19.551825,53.03055 19.931075,53.03055 C21.651575,53.03055 23.207575,52.31705 24.322325,51.17405 C25.902575,53.4403 25.010825,55.81705 23.892575,57.49155 C22.658825,57.9553 21.324325,58.2083 19.931075,58.2083 C17.531575,58.2073 15.305825,57.4548 13.473325,56.17605 M16.479575,36.1248 C15.640075,37.59855 13.419075,41.6593 13.459075,42.1353 C13.486325,42.4658 13.949075,43.31605 14.515825,44.02105 C14.074325,44.84855 13.818075,45.7898 13.801325,46.78755 C10.984075,46.39555 9.838825,44.5748 9.429075,42.70305 C10.675825,39.5918 13.265575,37.15805 16.479575,36.1248 M25.649575,38.07805 C25.649575,38.07805 24.257325,36.9563 22.781325,35.9478 C24.073325,36.28555 25.276575,36.84655 26.346325,37.5868 C25.959075,37.86905 25.649575,38.07805 25.649575,38.07805 M11.957075,54.9128 C9.896575,52.86155 8.619075,50.0243 8.619075,46.8963 C8.619075,46.16755 8.689825,45.45455 8.823325,44.76255 C9.201075,45.59955 9.759575,46.44855 10.579325,47.21955 C11.582575,48.1693 12.804825,48.4963 14.010325,48.4973 C14.468575,50.1893 15.634075,51.59205 17.169075,52.3693 C15.876075,54.70155 13.816825,55.13205 11.957075,54.9128 M63.489575,17.7293 C63.182575,17.9903 61.524825,20.4498 61.442075,20.63055 C61.361575,20.81005 60.955575,21.4228 60.432575,21.51005 C59.907075,21.59755 55.319575,22.03455 54.445825,22.03455 C53.571825,22.03455 52.785825,21.6413 52.785825,21.6413 C52.785825,21.6413 59.385075,21.11705 60.212825,20.9858 C61.045325,20.85355 62.180075,18.7128 62.908575,17.7093 C63.637075,16.7043 67.620075,16.94405 67.620075,16.94405 C66.503075,16.9653 64.080075,17.22755 63.489575,17.7293 M105.118825,31.62605 L106.615825,31.4278 C99.801325,27.8878 95.081825,29.15005 95.081825,29.15005 C93.741825,29.39805 92.524325,29.80655 91.415575,30.3283 L90.859575,29.15005 L89.107075,30.5033 C92.840575,27.5748 97.428075,24.2568 99.538325,23.47505 C99.538325,23.47505 99.976075,23.8683 100.412075,23.2553 C100.847825,22.6438 102.202075,19.97855 101.329575,18.0563 C100.455575,16.13405 92.546575,4.16055 85.335575,0.18505 C85.335575,0.18505 84.505575,-0.1207 83.893575,0.0538 C83.282075,0.22855 77.907075,2.28205 79.742075,2.8938 C81.578325,3.50655 87.956825,5.4288 89.880575,7.43855 C89.880575,7.43855 91.058825,10.0613 90.274825,10.6293 C89.488325,11.19705 86.165575,13.4263 85.772575,13.3828 C85.378075,13.33905 84.811075,11.8973 84.811075,11.8973 C84.811075,11.8973 85.334325,10.58655 84.898575,10.14855 C84.460575,9.7118 83.369575,9.93005 83.369575,9.58055 C83.369575,9.2323 83.676325,8.4883 83.676325,8.4883 C83.676325,8.4883 83.369575,6.60955 83.325825,6.47855 C83.282075,6.34755 80.223825,6.26005 79.611075,6.8718 C79.611075,6.8718 76.596325,6.78455 75.942325,8.4008 C75.942325,8.4008 73.495825,9.58055 73.013825,9.8428 C72.534325,10.1048 72.183825,11.8088 74.019825,11.32805 C75.278575,10.9988 76.105075,10.7508 76.502075,10.62805 L74.472325,12.15355 C72.691575,11.4333 66.474825,9.0113 63.293575,9.0113 C59.557575,9.0113 53.855325,12.1583 48.808825,17.0728 C48.808825,17.0728 47.957075,18.6468 48.218325,19.6293 C48.218325,19.6293 52.019075,20.9398 52.805825,22.4478 C52.805825,22.4478 60.146575,22.11955 61.065325,21.7923 C61.065325,21.7923 62.899075,18.0563 64.407075,17.7293 C65.912575,17.4023 72.075325,16.5498 74.961075,16.74555 C74.961075,16.74555 76.533825,15.82805 77.647325,15.43505 C77.647325,15.43505 76.689575,13.8563 75.705075,12.9153 L77.582325,11.80755 C77.801825,12.13705 77.990825,12.40505 78.041575,12.42155 C78.173075,12.4653 78.564825,13.20805 78.564825,13.20805 L77.647325,13.6013 C77.647325,13.6013 77.908325,14.5623 78.258825,14.5623 C78.609825,14.5623 80.051325,14.95555 80.051325,14.95555 C80.051325,14.95555 78.107825,15.0583 75.090825,16.91805 C75.090825,16.91805 67.411075,17.1673 64.834575,17.9263 C64.834575,17.9263 63.817825,17.5558 61.229575,22.03455 L60.867075,22.1868 L52.784325,22.8423 L52.325075,22.42655 C52.325075,22.42655 51.963825,21.28005 47.857075,19.79455 C47.857075,19.79455 37.627575,20.84905 31.728325,17.2663 C31.728325,17.2663 30.459075,14.47155 30.065825,13.7298 C29.672575,12.9873 25.608325,13.16305 24.078075,13.1193 C22.548825,13.0758 16.955325,12.55255 15.382325,11.50305 C15.382325,11.50305 14.334075,11.5478 14.464075,12.29055 C14.464075,12.29055 8.520825,10.67405 7.821825,10.89255 C7.122825,11.11205 9.351075,12.5963 9.351075,12.5963 C9.351075,12.5963 11.360825,14.8258 11.404325,15.17405 C11.448075,15.52355 11.186075,17.00905 11.797825,17.18505 L8.302325,18.49555 C8.302325,18.49555 8.215325,18.7578 8.433825,18.8888 C8.433825,18.8888 3.453075,19.2383 3.409325,19.4568 C3.365575,19.6763 2.972325,20.50655 3.977075,20.98705 C3.977075,20.98705 3.932325,22.03555 5.200575,22.45005 C5.200575,22.45005 4.807325,22.95305 5.200575,23.3463 C5.200575,23.3463 4.283075,23.2153 4.108325,23.5648 C3.933575,23.9143 3.103325,25.13755 4.020825,25.4873 C4.938325,25.8368 3.671575,27.0163 3.671575,27.0163 C3.671575,27.0163 2.446825,28.4593 2.666575,28.9398 C2.884825,29.41805 0.000325,33.83305 0.000325,33.83305 C0.000325,33.83305 -0.043425,34.79305 0.743075,33.83305 C1.529325,32.87055 10.486075,21.16055 12.321825,20.76755 C14.158075,20.3743 17.740575,20.19955 18.265075,20.3743 C18.789075,20.54905 25.736825,23.6948 33.644825,28.32705 C33.644825,28.32705 34.300075,28.45805 34.475075,27.97755 L35.699325,28.9398 L35.481075,29.59505 L33.513825,32.1728 C33.513825,32.1728 27.396075,28.7213 26.609575,28.7213 C26.609575,28.7213 25.997825,28.94105 27.832825,30.73105 L28.044325,30.9768 C25.608325,29.7333 22.851075,29.0318 19.929825,29.0318 C10.061825,29.0318 2.063075,37.03055 2.063075,46.8973 C2.065575,56.76305 10.063075,64.76155 19.931075,64.76155 C27.630075,64.76155 34.192825,59.8918 36.704325,53.0638 C39.214825,53.30105 42.061575,53.6868 42.953325,54.19455 C42.953325,54.19455 45.705575,54.0623 45.923825,53.9738 C45.923825,53.9738 47.059825,54.5868 48.546575,54.76155 C50.163325,54.80405 64.714075,55.3743 64.977325,55.0238 C65.238325,54.67305 65.543075,54.5868 65.938575,54.5433 C66.330575,54.5008 71.443575,54.4133 76.817325,55.68005 C76.817325,55.68005 78.215325,54.8488 77.472575,53.9748 C76.729825,53.1023 74.151075,49.6073 74.198325,49.38755 C74.239575,49.1683 74.675325,47.8148 74.938575,47.94605 C75.201825,48.07605 76.119325,50.9168 76.467825,50.74205 C76.818575,50.56705 81.931325,36.8028 83.723825,35.01155 C84.413325,34.32205 86.392325,32.6463 88.767075,30.7723 L89.180325,31.62255 C83.430825,35.61855 81.449575,42.57105 81.449575,42.57105 C81.975075,41.12805 83.492325,40.37705 83.492325,40.37705 C82.633825,42.3773 82.159325,44.5818 82.159325,46.8963 C82.159325,56.0393 89.570825,63.4523 98.714075,63.4523 C107.858075,63.4523 115.270075,56.0403 115.270075,46.8963 C115.268575,40.02405 111.080575,34.13055 105.118825,31.62605" id="Fill-1" fill="#000000" mask="url(#mask-2)"></path>
            </g>
        </g>
    </g>
</svg>