<?xml version="1.0" encoding="UTF-8" standalone="no"?>
<svg width="90px" height="80px" viewBox="0 0 90 92" version="1.1" xmlns="http://www.w3.org/2000/svg" xmlns:xlink="http://www.w3.org/1999/xlink">
    <!-- Generator: Sketch 48.2 (47327) - http://www.bohemiancoding.com/sketch -->
    <title>Car</title>
    <desc>Created with Sketch.</desc>
    <defs>
        <polygon id="path-1" points="0 0.0515925373 15.4877731 0.0515925373 15.4877731 10.8656522 0 10.8656522"></polygon>
        <polygon id="path-3" points="0 0.0135820896 89.8113537 0.0135820896 89.8113537 55.4579612 0 55.4579612"></polygon>
    </defs>
    <g id="Page4-Copy" stroke="none" stroke-width="1" fill="none" fill-rule="evenodd" transform="translate(-212.000000, -461.000000)">
        <g id="Car" transform="translate(212.000000, 461.000000)">
            <path d="M39.3,88.272 C39.4173339,88.272 39.5186662,88.3173329 39.604,88.408 L40.452,89.328 C39.9826643,89.9093362 39.4053368,90.3546651 38.72,90.664 C38.0346632,90.9733349 37.2120048,91.128 36.252,91.128 C35.393329,91.128 34.6213368,90.9813348 33.936,90.688 C33.2506632,90.3946652 32.6653358,89.9866693 32.18,89.464 C31.6946642,88.9413307 31.322668,88.317337 31.064,87.592 C30.805332,86.866663 30.676,86.074671 30.676,85.216 C30.676,84.3466623 30.8199986,83.5506703 31.108,82.828 C31.3960014,82.1053297 31.8013307,81.4826693 32.324,80.96 C32.8466693,80.4373307 33.4719964,80.0306681 34.2,79.74 C34.9280036,79.4493319 35.7319956,79.304 36.612,79.304 C37.470671,79.304 38.2213301,79.441332 38.864,79.716 C39.5066699,79.990668 40.057331,80.3546644 40.516,80.808 L39.796,81.808 C39.7533331,81.8720003 39.698667,81.9279998 39.632,81.976 C39.565333,82.0240002 39.4733339,82.048 39.356,82.048 C39.2333327,82.048 39.1080006,82.0000005 38.98,81.904 C38.8519994,81.8079995 38.6893343,81.7040006 38.492,81.592 C38.2946657,81.4799994 38.0453348,81.3760005 37.744,81.28 C37.4426652,81.1839995 37.0600023,81.136 36.596,81.136 C36.0519973,81.136 35.5520023,81.2306657 35.096,81.42 C34.6399977,81.6093343 34.2480016,81.8799982 33.92,82.232 C33.5919984,82.5840018 33.3360009,83.0119975 33.152,83.516 C32.9679991,84.0200025 32.876,84.5866635 32.876,85.216 C32.876,85.8666699 32.9679991,86.4453308 33.152,86.952 C33.3360009,87.4586692 33.5853318,87.8853316 33.9,88.232 C34.2146682,88.5786684 34.5853312,88.8439991 35.012,89.028 C35.4386688,89.2120009 35.8973309,89.304 36.388,89.304 C36.6813348,89.304 36.9466655,89.2880002 37.184,89.256 C37.4213345,89.2239998 37.639999,89.1733337 37.84,89.104 C38.040001,89.0346663 38.2293324,88.9453339 38.408,88.836 C38.5866676,88.7266661 38.7639991,88.5920008 38.94,88.432 C38.9933336,88.3839998 39.049333,88.3453335 39.108,88.316 C39.166667,88.2866665 39.2306663,88.272 39.3,88.272 Z M48.396,91 L47.508,91 C47.3213324,91 47.1746672,90.9720003 47.068,90.916 C46.9613328,90.8599997 46.8813336,90.7466675 46.828,90.576 L46.652,89.992 C46.443999,90.1786676 46.240001,90.342666 46.04,90.484 C45.839999,90.625334 45.6333344,90.7439995 45.42,90.84 C45.2066656,90.9360005 44.9800012,91.0079998 44.74,91.056 C44.4999988,91.1040002 44.2333348,91.128 43.94,91.128 C43.5933316,91.128 43.2733348,91.0813338 42.98,90.988 C42.6866652,90.8946662 42.4346677,90.7546676 42.224,90.568 C42.0133323,90.3813324 41.8493339,90.1493347 41.732,89.872 C41.6146661,89.5946653 41.556,89.2720018 41.556,88.904 C41.556,88.5946651 41.6373325,88.2893348 41.8,87.988 C41.9626675,87.6866652 42.2333314,87.4146679 42.612,87.172 C42.9906686,86.9293321 43.4946635,86.7280008 44.124,86.568 C44.7533365,86.4079992 45.534662,86.3173334 46.468,86.296 L46.468,85.816 C46.468,85.2666639 46.3520012,84.8600013 46.12,84.596 C45.8879988,84.3319987 45.5506689,84.2 45.108,84.2 C44.7879984,84.2 44.5213344,84.237333 44.308,84.312 C44.0946656,84.386667 43.9093341,84.4706662 43.752,84.564 C43.5946659,84.6573338 43.449334,84.741333 43.316,84.816 C43.182666,84.890667 43.0360008,84.928 42.876,84.928 C42.742666,84.928 42.6280005,84.8933337 42.532,84.824 C42.4359995,84.7546663 42.358667,84.6693338 42.3,84.568 L41.94,83.936 C42.8840047,83.0719957 44.02266,82.64 45.356,82.64 C45.8360024,82.64 46.2639981,82.7186659 46.64,82.876 C47.0160019,83.0333341 47.3346654,83.2519986 47.596,83.532 C47.8573346,83.8120014 48.0559993,84.1466647 48.192,84.536 C48.3280007,84.9253353 48.396,85.3519977 48.396,85.816 L48.396,91 Z M44.556,89.768 C44.7586677,89.768 44.9453325,89.7493335 45.116,89.712 C45.2866675,89.6746665 45.4479992,89.618667 45.6,89.544 C45.7520008,89.469333 45.898666,89.3773339 46.04,89.268 C46.181334,89.1586661 46.3239993,89.0293341 46.468,88.88 L46.468,87.496 C45.8919971,87.5226668 45.4106686,87.5719996 45.024,87.644 C44.6373314,87.7160004 44.3266678,87.8079994 44.092,87.92 C43.8573322,88.0320006 43.6906672,88.1626659 43.592,88.312 C43.4933328,88.4613341 43.444,88.6239991 43.444,88.8 C43.444,89.1466684 43.5466656,89.3946659 43.752,89.544 C43.9573344,89.6933341 44.2253317,89.768 44.556,89.768 Z M50.34,91 L50.34,82.792 L51.5,82.792 C51.7026677,82.792 51.8439996,82.829333 51.924,82.904 C52.0040004,82.978667 52.0573332,83.1066658 52.084,83.288 L52.204,84.28 C52.4973348,83.7733308 52.8413314,83.3733348 53.236,83.08 C53.6306686,82.7866652 54.0733309,82.64 54.564,82.64 C54.9693354,82.64 55.305332,82.7333324 55.572,82.92 L55.316,84.4 C55.2999999,84.4960005 55.2653336,84.5639998 55.212,84.604 C55.1586664,84.6440002 55.0866671,84.664 54.996,84.664 C54.9159996,84.664 54.8066674,84.6453335 54.668,84.608 C54.5293326,84.5706665 54.3453345,84.552 54.116,84.552 C53.7053313,84.552 53.3533348,84.6653322 53.06,84.892 C52.7666652,85.1186678 52.5186677,85.4506645 52.316,85.888 L52.316,91 L50.34,91 Z" fill="#333333"></path>
            <g id="Page-1" opacity="0.5">
                <path d="M85.3206493,56.5552194 L74.2318433,56.5552194 L74.2318433,60.4957716 C74.2318433,62.9704284 76.2478134,64.9863985 78.7222761,64.9863985 L85.2288731,64.9863985 C87.7033358,64.9863985 89.719694,62.9704284 89.719694,60.4957716 L89.719694,54.1723388 C88.803097,55.6384284 87.1536493,56.5552194 85.3206493,56.5552194" id="Fill-1" fill="#000000"></path>
                <g id="Group-5" transform="translate(0.000000, 54.120746)">
                    <mask id="mask-2" fill="white">
                        <use xlink:href="#path-1"></use>
                    </mask>
                    <g id="Clip-4"></g>
                    <path d="M4.49054925,2.43447313 C2.65774328,2.43447313 1.00810149,1.51768209 -7.76119403e-05,0.0515925373 L-7.76119403e-05,6.37502537 C-7.76119403e-05,8.84968209 2.01608657,10.8656522 4.49054925,10.8656522 L10.9973403,10.8656522 C13.471609,10.8656522 15.4877731,8.84968209 15.4877731,6.37502537 L15.4877731,2.43447313 L4.49054925,2.43447313 Z" id="Fill-3" fill="#000000" mask="url(#mask-2)"></path>
                </g>
                <g id="Group-8" transform="translate(0.000000, 0.180448)">
                    <mask id="mask-4" fill="white">
                        <use xlink:href="#path-3"></use>
                    </mask>
                    <g id="Clip-7"></g>
                    <path d="M82.2048015,26.7735582 C83.3963388,26.4986179 84.5874881,27.4152149 84.5874881,28.6981403 L84.5874881,33.096991 C84.5874881,34.5632746 83.4877269,35.846394 82.0214433,36.0297522 L68.6415328,37.5876179 C67.5417716,37.6792 66.7169507,36.6712149 66.991891,35.6630358 L67.2668313,34.6550507 C68.1830403,31.4473493 70.8408612,29.0646627 74.0483687,28.4232 L82.2048015,26.7735582 Z M82.5713239,47.3936925 C82.3879657,48.8599761 81.1968164,50.0513194 79.7303388,50.2344836 C77.3476522,50.6012 75.4232642,48.5848418 75.7895925,46.2939313 C75.9731448,44.8272597 77.164294,43.6361104 78.6307716,43.4527522 C81.0132642,43.0862299 82.9378463,45.102394 82.5713239,47.3936925 Z M61.9513836,44.4609313 L27.8597567,44.4609313 L27.3098761,42.5363493 L62.5930403,42.5363493 L61.9513836,44.4609313 Z M61.1265627,47.7602149 L28.6845776,47.7602149 L28.0431149,45.8358269 L61.6764433,45.8358269 L61.1265627,47.7602149 Z M60.3017418,51.1510806 L29.5093985,51.1510806 L28.8677418,49.2263045 L60.9433985,49.2263045 L60.3017418,51.1510806 Z M21.1698015,37.4960358 L7.78989104,36.0297522 C6.32341343,35.846394 5.22365224,34.5632746 5.22365224,33.096991 L5.22365224,28.6981403 C5.22365224,27.506797 6.32341343,26.4986179 7.60633881,26.7735582 L15.8543537,28.4232 C19.0618612,29.0646627 21.7196821,31.4473493 22.6360851,34.6550507 L22.9110254,35.6630358 C23.1859657,36.6712149 22.2695627,37.6792 21.1698015,37.4960358 Z M14.1131299,47.3936925 C13.9297716,48.8599761 12.7384284,50.0513194 11.2721448,50.2344836 C8.88965224,50.6012 6.96507015,48.5848418 7.33139851,46.2939313 C7.51475672,44.8272597 8.7061,43.6361104 10.1723836,43.4527522 C12.4634881,43.0862299 14.3880701,45.102394 14.1131299,47.3936925 Z M62.317906,31.8140657 L61.4932791,35.0215731 C61.0351746,36.9461552 59.3855328,38.4124388 57.3691746,38.6873791 C47.0134134,40.0618866 37.390697,39.2372597 32.5335478,38.6873791 C30.5173836,38.4124388 28.8677418,36.9461552 28.3178612,35.0215731 C28.0431149,33.9218119 27.7679806,32.6388866 27.4932343,31.8140657 C27.3098761,31.172409 27.7679806,30.6225284 28.4096373,30.6225284 L61.2183388,30.6225284 C61.9513836,30.6225284 62.4096821,31.172409 62.317906,31.8140657 Z M19.4285776,7.2533791 C20.1616224,5.05405075 22.1779806,3.58757313 24.5604731,3.58757313 L44.9056672,3.58757313 L65.2506672,3.58757313 C67.5417716,3.58757313 69.6495179,5.05405075 70.3825627,7.2533791 L74.2317269,17.7007224 L44.9056672,17.7007224 L15.5794134,17.7007224 L19.4285776,7.2533791 Z M86.9703687,17.7007224 C88.6200104,17.4259761 89.8113537,15.9596925 89.8113537,14.3100507 L89.8113537,14.0351104 C89.8113537,12.751991 88.8031746,11.744006 87.5202493,11.744006 L81.746697,11.744006 C80.0970552,11.744006 78.8137418,13.0269313 78.8137418,14.6765731 L78.8137418,16.417797 L78.080891,17.1510358 C77.8975328,16.7843194 77.6225925,16.417797 77.5310104,15.9596925 L73.9567866,6.33697612 C72.5820851,2.57958806 69.0080552,0.0135432836 64.9755328,0.0135432836 L44.9056672,0.0135432836 L24.8356075,0.0135432836 C20.8032791,0.0135432836 17.2290552,2.48781194 15.8543537,6.33697612 L12.2803239,15.9596925 C12.0969657,16.417797 11.9136075,16.7843194 11.7304433,17.1510358 L10.9973985,16.417797 L10.9973985,14.6765731 C10.9973985,13.0269313 9.7142791,11.744006 8.06463731,11.744006 L2.29108507,11.744006 C1.00796567,11.744006 -1.94029851e-05,12.751991 -1.94029851e-05,14.0351104 L-1.94029851e-05,14.3100507 C-1.94029851e-05,15.9596925 1.19132388,17.4259761 2.84096567,17.7007224 L10.0808015,18.9838418 C9.89763731,19.1672 9.7142791,19.3503642 9.43933881,19.4419463 L5.68195075,21.916409 C2.10772687,24.3908716 -1.94029851e-05,28.4232 -1.94029851e-05,32.7304687 L-1.94029851e-05,50.9677224 C-1.94029851e-05,53.441991 2.01614478,55.4579612 4.49060746,55.4579612 L44.9056672,55.4579612 L85.3207269,55.4579612 C87.7951896,55.4579612 89.8113537,53.441991 89.8113537,50.9677224 L89.8113537,32.7304687 C89.8113537,28.4232 87.7034134,24.4824537 84.1291896,22.0997672 L80.3719955,19.6253045 C80.1886373,19.4419463 79.913503,19.3503642 79.7303388,19.167006 L86.9703687,17.7007224 Z" id="Fill-6" fill="#000000" mask="url(#mask-4)"></path>
                </g>
            </g>
        </g>
    </g>
</svg>