<?xml version="1.0" encoding="UTF-8" standalone="no"?>
<svg width="200px" height="60px" viewBox="0 0 260 60" version="1.1" xmlns="http://www.w3.org/2000/svg" xmlns:xlink="http://www.w3.org/1999/xlink">
    <!-- Generator: Sketch 48.2 (47327) - http://www.bohemiancoding.com/sketch -->
    <title>HighRisk_Select</title>
    <desc>Created with Sketch.</desc>
    <defs>
        <linearGradient x1="14.4830198%" y1="50%" x2="100%" y2="50%" id="linearGradient-1">
            <stop stop-color="#E67C1B" offset="0%"></stop>
            <stop stop-color="#D0021B" offset="100%"></stop>
        </linearGradient>
    </defs>
    <g id="Page-1" stroke="none" stroke-width="1" fill="none" fill-rule="evenodd">
        <g id="HighRisk_Select">
            <rect id="Rectangle-2-Copy-2" fill="url(#linearGradient-1)" fill-rule="nonzero" x="0" y="0" width="260" height="60"></rect>
            <g id="Group-5" transform="translate(54.000000, 10.000000)">
                <g id="Group-3" fill-rule="nonzero">
                    <circle id="Oval" fill="#FFFFFF" cx="20" cy="20" r="20"></circle>
                    <circle id="Oval-Copy" fill="#E61B33" cx="20" cy="20" r="10"></circle>
                </g>
                <g id="High-Risk" transform="translate(50.000000, 6.000000)" fill="#FFFFFF">
                    <path d="M16.746,24 L13.494,24 L13.494,16.416 L5.358,16.416 L5.358,24 L2.106,24 L2.106,6.648 L5.358,6.648 L5.358,14.112 L13.494,14.112 L13.494,6.648 L16.746,6.648 L16.746,24 Z M23.238,11.688 L23.238,24 L20.274,24 L20.274,11.688 L23.238,11.688 Z M23.682,8.1 C23.682,8.35600128 23.6300005,8.59599888 23.526,8.82 C23.4219995,9.04400112 23.2840009,9.23999916 23.112,9.408 C22.9399991,9.57600084 22.7380012,9.7099995 22.506,9.81 C22.2739988,9.9100005 22.0260013,9.96 21.762,9.96 C21.5059987,9.96 21.2640011,9.9100005 21.036,9.81 C20.8079989,9.7099995 20.6100008,9.57600084 20.442,9.408 C20.2739992,9.23999916 20.1400005,9.04400112 20.04,8.82 C19.9399995,8.59599888 19.89,8.35600128 19.89,8.1 C19.89,7.83599868 19.9399995,7.58800116 20.04,7.356 C20.1400005,7.12399884 20.2739992,6.92400084 20.442,6.756 C20.6100008,6.58799916 20.8079989,6.4540005 21.036,6.354 C21.2640011,6.2539995 21.5059987,6.204 21.762,6.204 C22.0260013,6.204 22.2739988,6.2539995 22.506,6.354 C22.7380012,6.4540005 22.9399991,6.58799916 23.112,6.756 C23.2840009,6.92400084 23.4219995,7.12399884 23.526,7.356 C23.6300005,7.58800116 23.682,7.83599868 23.682,8.1 Z M30.846,11.472 C31.3740026,11.472 31.8699977,11.5259995 32.334,11.634 C32.7980023,11.7420005 33.2219981,11.899999 33.606,12.108 L37.146,12.108 L37.146,13.212 C37.146,13.3960009 37.0980005,13.5399995 37.002,13.644 C36.9059995,13.7480005 36.7420012,13.8199998 36.51,13.86 L35.406,14.064 C35.4860004,14.272001 35.5479998,14.4919988 35.592,14.724 C35.6360002,14.9560012 35.658,15.1999987 35.658,15.456 C35.658,16.064003 35.5360012,16.6139975 35.292,17.106 C35.0479988,17.5980025 34.7120021,18.0159983 34.284,18.36 C33.8559979,18.7040017 33.3480029,18.9699991 32.76,19.158 C32.1719971,19.3460009 31.5340034,19.44 30.846,19.44 C30.3819977,19.44 29.9300022,19.3960004 29.49,19.308 C29.1059981,19.5400012 28.914,19.7999986 28.914,20.088 C28.914,20.3360012 29.0279989,20.5179994 29.256,20.634 C29.4840011,20.7500006 29.7839981,20.8319998 30.156,20.88 C30.5280019,20.9280002 30.9499976,20.9579999 31.422,20.97 C31.8940024,20.9820001 32.3779975,21.0079998 32.874,21.048 C33.3700025,21.0880002 33.8539976,21.1579995 34.326,21.258 C34.7980024,21.3580005 35.2199981,21.5159989 35.592,21.732 C35.9640019,21.9480011 36.2639989,22.2419981 36.492,22.614 C36.7200011,22.9860019 36.834,23.4639971 36.834,24.048 C36.834,24.5920027 36.7000013,25.1199974 36.432,25.632 C36.1639987,26.1440026 35.7760025,26.599998 35.268,27 C34.7599975,27.400002 34.1380037,27.7219988 33.402,27.966 C32.6659963,28.2100012 31.8260047,28.332 30.882,28.332 C29.9459953,28.332 29.1340034,28.2420009 28.446,28.062 C27.7579966,27.8819991 27.1880023,27.6420015 26.736,27.342 C26.2839977,27.0419985 25.9460011,26.696002 25.722,26.304 C25.4979989,25.911998 25.386,25.5040021 25.386,25.08 C25.386,24.5039971 25.5619982,24.020002 25.914,23.628 C26.2660018,23.235998 26.7539969,22.9240012 27.378,22.692 C27.0739985,22.5239992 26.8300009,22.3000014 26.646,22.02 C26.4619991,21.7399986 26.37,21.3760022 26.37,20.928 C26.37,20.7439991 26.4019997,20.554001 26.466,20.358 C26.5300003,20.161999 26.6279993,19.968001 26.76,19.776 C26.8920007,19.583999 27.057999,19.4020009 27.258,19.23 C27.458001,19.0579991 27.6939986,18.9040007 27.966,18.768 C27.3419969,18.4319983 26.8520018,17.9840028 26.496,17.424 C26.1399982,16.8639972 25.962,16.2080038 25.962,15.456 C25.962,14.847997 26.0839988,14.2980025 26.328,13.806 C26.5720012,13.3139975 26.9119978,12.8940017 27.348,12.546 C27.7840022,12.1979983 28.299997,11.9320009 28.896,11.748 C29.492003,11.5639991 30.1419965,11.472 30.846,11.472 Z M34.098,24.552 C34.098,24.3119988 34.0260007,24.1160008 33.882,23.964 C33.7379993,23.8119992 33.5420012,23.6940004 33.294,23.61 C33.0459988,23.5259996 32.7560017,23.4640002 32.424,23.424 C32.0919983,23.3839998 31.7400019,23.3540001 31.368,23.334 C30.9959981,23.3139999 30.612002,23.2940001 30.216,23.274 C29.819998,23.2539999 29.4380018,23.2200002 29.07,23.172 C28.7339983,23.3560009 28.464001,23.5739987 28.26,23.826 C28.055999,24.0780013 27.954,24.3679984 27.954,24.696 C27.954,24.9120011 28.0079995,25.1139991 28.116,25.302 C28.2240005,25.4900009 28.3959988,25.6519993 28.632,25.788 C28.8680012,25.9240007 29.1739981,26.0299996 29.55,26.106 C29.9260019,26.1820004 30.3859973,26.22 30.93,26.22 C31.4820028,26.22 31.957998,26.1780004 32.358,26.094 C32.758002,26.0099996 33.0879987,25.8940007 33.348,25.746 C33.6080013,25.5979993 33.7979994,25.422001 33.918,25.218 C34.0380006,25.013999 34.098,24.7920012 34.098,24.552 Z M30.846,17.544 C31.2140018,17.544 31.5339986,17.4940005 31.806,17.394 C32.0780014,17.2939995 32.3039991,17.1560009 32.484,16.98 C32.6640009,16.8039991 32.7999995,16.5920012 32.892,16.344 C32.9840005,16.0959988 33.03,15.8240015 33.03,15.528 C33.03,14.919997 32.8480018,14.4380018 32.484,14.082 C32.1199982,13.7259982 31.5740036,13.548 30.846,13.548 C30.1179964,13.548 29.5720018,13.7259982 29.208,14.082 C28.8439982,14.4380018 28.662,14.919997 28.662,15.528 C28.662,15.8160014 28.7079995,16.0839988 28.8,16.332 C28.8920005,16.5800012 29.0279991,16.7939991 29.208,16.974 C29.3880009,17.1540009 29.6159986,17.2939995 29.892,17.394 C30.1680014,17.4940005 30.4859982,17.544 30.846,17.544 Z M39.006,24 L39.006,6.168 L41.97,6.168 L41.97,13.02 C42.4500024,12.5639977 42.9779971,12.1960014 43.554,11.916 C44.1300029,11.6359986 44.8059961,11.496 45.582,11.496 C46.2540034,11.496 46.8499974,11.6099989 47.37,11.838 C47.8900026,12.0660011 48.3239983,12.3859979 48.672,12.798 C49.0200017,13.2100021 49.2839991,13.7019971 49.464,14.274 C49.6440009,14.8460029 49.734,15.4759966 49.734,16.164 L49.734,24 L46.77,24 L46.77,16.164 C46.77,15.4119962 46.5960017,14.8300021 46.248,14.418 C45.8999983,14.0059979 45.3780035,13.8 44.682,13.8 C44.1699974,13.8 43.6900022,13.9159988 43.242,14.148 C42.7939978,14.3800012 42.370002,14.695998 41.97,15.096 L41.97,24 L39.006,24 Z M60.786,17.22 L60.786,24 L57.558,24 L57.558,6.648 L62.85,6.648 C64.0340059,6.648 65.0479958,6.76999878 65.892,7.014 C66.7360042,7.25800122 67.4279973,7.5999978 67.968,8.04 C68.5080027,8.4800022 68.9039987,9.00599694 69.156,9.618 C69.4080013,10.2300031 69.534,10.9039963 69.534,11.64 C69.534,12.2240029 69.4480009,12.7759974 69.276,13.296 C69.1039991,13.8160026 68.8560016,14.2879979 68.532,14.712 C68.2079984,15.1360021 67.8080024,15.5079984 67.332,15.828 C66.8559976,16.1480016 66.314003,16.403999 65.706,16.596 C66.114002,16.8280012 66.4659985,17.1599978 66.762,17.592 L71.106,24 L68.202,24 C67.9219986,24 67.684001,23.9440006 67.488,23.832 C67.291999,23.7199994 67.1260007,23.560001 66.99,23.352 L63.342,17.796 C63.2059993,17.587999 63.0560008,17.4400004 62.892,17.352 C62.7279992,17.2639996 62.4860016,17.22 62.166,17.22 L60.786,17.22 Z M60.786,14.904 L62.802,14.904 C63.410003,14.904 63.9399977,14.8280008 64.392,14.676 C64.8440023,14.5239992 65.2159985,14.3140013 65.508,14.046 C65.8000015,13.7779987 66.0179993,13.4600018 66.162,13.092 C66.3060007,12.7239982 66.378,12.3200022 66.378,11.88 C66.378,10.9999956 66.0880029,10.3240024 65.508,9.852 C64.9279971,9.37999764 64.042006,9.144 62.85,9.144 L60.786,9.144 L60.786,14.904 Z M76.158,11.688 L76.158,24 L73.194,24 L73.194,11.688 L76.158,11.688 Z M76.602,8.1 C76.602,8.35600128 76.5500005,8.59599888 76.446,8.82 C76.3419995,9.04400112 76.2040009,9.23999916 76.032,9.408 C75.8599991,9.57600084 75.6580012,9.7099995 75.426,9.81 C75.1939988,9.9100005 74.9460013,9.96 74.682,9.96 C74.4259987,9.96 74.1840011,9.9100005 73.956,9.81 C73.7279989,9.7099995 73.5300008,9.57600084 73.362,9.408 C73.1939992,9.23999916 73.0600005,9.04400112 72.96,8.82 C72.8599995,8.59599888 72.81,8.35600128 72.81,8.1 C72.81,7.83599868 72.8599995,7.58800116 72.96,7.356 C73.0600005,7.12399884 73.1939992,6.92400084 73.362,6.756 C73.5300008,6.58799916 73.7279989,6.4540005 73.956,6.354 C74.1840011,6.2539995 74.4259987,6.204 74.682,6.204 C74.9460013,6.204 75.1939988,6.2539995 75.426,6.354 C75.6580012,6.4540005 75.8599991,6.58799916 76.032,6.756 C76.2040009,6.92400084 76.3419995,7.12399884 76.446,7.356 C76.5500005,7.58800116 76.602,7.83599868 76.602,8.1 Z M86.814,14.088 C86.7339996,14.2160006 86.6500004,14.3059997 86.562,14.358 C86.4739996,14.4100003 86.3620007,14.436 86.226,14.436 C86.0819993,14.436 85.9280008,14.3960004 85.764,14.316 C85.5999992,14.2359996 85.4100011,14.1460005 85.194,14.046 C84.9779989,13.9459995 84.7320014,13.8560004 84.456,13.776 C84.1799986,13.6959996 83.8540019,13.656 83.478,13.656 C82.8939971,13.656 82.4340017,13.7799988 82.098,14.028 C81.7619983,14.2760012 81.594,14.599998 81.594,15 C81.594,15.2640013 81.6799991,15.4859991 81.852,15.666 C82.0240009,15.8460009 82.2519986,16.0039993 82.536,16.14 C82.8200014,16.2760007 83.1419982,16.3979995 83.502,16.506 C83.8620018,16.6140005 84.2299981,16.7319994 84.606,16.86 C84.9820019,16.9880006 85.3499982,17.1339992 85.71,17.298 C86.0700018,17.4620008 86.3919986,17.6699987 86.676,17.922 C86.9600014,18.1740013 87.1879991,18.4759982 87.36,18.828 C87.5320009,19.1800018 87.618,19.6039975 87.618,20.1 C87.618,20.692003 87.5100011,21.2379975 87.294,21.738 C87.0779989,22.2380025 86.7620021,22.6699982 86.346,23.034 C85.9299979,23.3980018 85.4160031,23.681999 84.804,23.886 C84.1919969,24.090001 83.490004,24.192 82.698,24.192 C82.2739979,24.192 81.860002,24.1540004 81.456,24.078 C81.051998,24.0019996 80.6640019,23.8960007 80.292,23.76 C79.9199981,23.6239993 79.5760016,23.4640009 79.26,23.28 C78.9439984,23.0959991 78.6660012,22.8960011 78.426,22.68 L79.11,21.552 C79.1980004,21.4159993 79.3019994,21.3120004 79.422,21.24 C79.5420006,21.1679996 79.6939991,21.132 79.878,21.132 C80.0620009,21.132 80.2359992,21.1839995 80.4,21.288 C80.5640008,21.3920005 80.7539989,21.5039994 80.97,21.624 C81.1860011,21.7440006 81.4399985,21.8559995 81.732,21.96 C82.0240015,22.0640005 82.3939978,22.116 82.842,22.116 C83.1940018,22.116 83.4959987,22.0740004 83.748,21.99 C84.0000013,21.9059996 84.2079992,21.7960007 84.372,21.66 C84.5360008,21.5239993 84.6559996,21.3660009 84.732,21.186 C84.8080004,21.0059991 84.846,20.820001 84.846,20.628 C84.846,20.3399986 84.7600009,20.1040009 84.588,19.92 C84.4159991,19.7359991 84.1880014,19.5760007 83.904,19.44 C83.6199986,19.3039993 83.2960018,19.1820005 82.932,19.074 C82.5679982,18.9659995 82.1960019,18.8480006 81.816,18.72 C81.4359981,18.5919994 81.0640018,18.4420009 80.7,18.27 C80.3359982,18.0979991 80.0120014,17.8800013 79.728,17.616 C79.4439986,17.3519987 79.2160009,17.0280019 79.044,16.644 C78.8719991,16.2599981 78.786,15.7960027 78.786,15.252 C78.786,14.7479975 78.885999,14.2680023 79.086,13.812 C79.286001,13.3559977 79.5799981,12.9580017 79.968,12.618 C80.3560019,12.2779983 80.8399971,12.006001 81.42,11.802 C82.0000029,11.597999 82.6699962,11.496 83.43,11.496 C84.2780042,11.496 85.0499965,11.6359986 85.746,11.916 C86.4420035,12.1960014 87.0219977,12.5639977 87.486,13.02 L86.814,14.088 Z M92.994,6.168 L92.994,16.38 L93.546,16.38 C93.746001,16.38 93.9019994,16.3520003 94.014,16.296 C94.1260006,16.2399997 94.2459994,16.1360008 94.374,15.984 L97.434,12.204 C97.5700007,12.0439992 97.7139992,11.9180005 97.866,11.826 C98.0180008,11.7339995 98.2179988,11.688 98.466,11.688 L101.178,11.688 L97.35,16.26 C97.2139993,16.4280008 97.0740007,16.5819993 96.93,16.722 C96.7859993,16.8620007 96.6300008,16.9839995 96.462,17.088 C96.6300008,17.2080006 96.7779994,17.3479992 96.906,17.508 C97.0340006,17.6680008 97.1619994,17.8399991 97.29,18.024 L101.394,24 L98.718,24 C98.4859988,24 98.2900008,23.9600004 98.13,23.88 C97.9699992,23.7999996 97.8260006,23.664001 97.698,23.472 L94.566,18.804 C94.4459994,18.6199991 94.3260006,18.5000003 94.206,18.444 C94.0859994,18.3879997 93.9060012,18.36 93.666,18.36 L92.994,18.36 L92.994,24 L90.03,24 L90.03,6.168 L92.994,6.168 Z"></path>
                </g>
            </g>
        </g>
    </g>
</svg>