<?xml version="1.0" encoding="UTF-8" standalone="no"?>
<svg width="90px" height="80px" viewBox="0 0 125 106" version="1.1" xmlns="http://www.w3.org/2000/svg" xmlns:xlink="http://www.w3.org/1999/xlink">
    <!-- Generator: Sketch 48.2 (47327) - http://www.bohemiancoding.com/sketch -->
    <title>Married_Without_Children_Red</title>
    <desc>Created with Sketch.</desc>
    <defs></defs>
    <g id="Page2-Copy-2" stroke="none" stroke-width="1" fill="none" fill-rule="evenodd" transform="translate(-225.000000, -455.000000)">
        <g id="Married_Without_Children_Red" transform="translate(224.000000, 455.000000)" fill="#D0021B">
            <path d="M41.6413333,81.2 C41.7320005,81.3706675 41.8159996,81.5479991 41.8933333,81.732 C41.9706671,81.9160009 42.0466663,82.1013324 42.1213333,82.288 C42.1960004,82.095999 42.2733329,81.9066676 42.3533333,81.72 C42.4333337,81.5333324 42.5186662,81.3546675 42.6093333,81.184 L46.0333333,74.776 C46.0760002,74.6959996 46.1199998,74.6320002 46.1653333,74.584 C46.2106669,74.5359998 46.2613331,74.5013334 46.3173333,74.48 C46.3733336,74.4586666 46.4359997,74.4453334 46.5053333,74.44 C46.574667,74.4346666 46.6573329,74.432 46.7533333,74.432 L48.3773333,74.432 L48.3773333,86 L46.4813333,86 L46.4813333,78.528 C46.4813333,78.3893326 46.4853333,78.2373342 46.4933333,78.072 C46.5013334,77.9066658 46.5133333,77.7386675 46.5293333,77.568 L43.0333333,84.128 C42.9533329,84.2773341 42.849334,84.3933329 42.7213333,84.476 C42.5933327,84.5586671 42.4440009,84.6 42.2733333,84.6 L41.9773333,84.6 C41.8066658,84.6 41.657334,84.5586671 41.5293333,84.476 C41.4013327,84.3933329 41.2973337,84.2773341 41.2173333,84.128 L37.6733333,77.544 C37.6946668,77.7200009 37.7093333,77.8919992 37.7173333,78.06 C37.7253334,78.2280008 37.7293333,78.3839993 37.7293333,78.528 L37.7293333,86 L35.8333333,86 L35.8333333,74.432 L37.4573333,74.432 C37.5533338,74.432 37.6359997,74.4346666 37.7053333,74.44 C37.774667,74.4453334 37.8373331,74.4586666 37.8933333,74.48 C37.9493336,74.5013334 38.0013331,74.5359998 38.0493333,74.584 C38.0973336,74.6320002 38.1426665,74.6959996 38.1853333,74.776 L41.6413333,81.2 Z M57.0333333,86 L56.1453333,86 C55.9586657,86 55.8120005,85.9720003 55.7053333,85.916 C55.5986661,85.8599997 55.5186669,85.7466675 55.4653333,85.576 L55.2893333,84.992 C55.0813323,85.1786676 54.8773343,85.342666 54.6773333,85.484 C54.4773323,85.625334 54.2706677,85.7439995 54.0573333,85.84 C53.8439989,85.9360005 53.6173345,86.0079998 53.3773333,86.056 C53.1373321,86.1040002 52.8706681,86.128 52.5773333,86.128 C52.2306649,86.128 51.9106681,86.0813338 51.6173333,85.988 C51.3239985,85.8946662 51.0720011,85.7546676 50.8613333,85.568 C50.6506656,85.3813324 50.4866673,85.1493347 50.3693333,84.872 C50.2519994,84.5946653 50.1933333,84.2720018 50.1933333,83.904 C50.1933333,83.5946651 50.2746659,83.2893348 50.4373333,82.988 C50.6000008,82.6866652 50.8706648,82.4146679 51.2493333,82.172 C51.6280019,81.9293321 52.1319969,81.7280008 52.7613333,81.568 C53.3906698,81.4079992 54.1719953,81.3173334 55.1053333,81.296 L55.1053333,80.816 C55.1053333,80.2666639 54.9893345,79.8600013 54.7573333,79.596 C54.5253322,79.3319987 54.1880022,79.2 53.7453333,79.2 C53.4253317,79.2 53.1586677,79.237333 52.9453333,79.312 C52.7319989,79.386667 52.5466675,79.4706662 52.3893333,79.564 C52.2319992,79.6573338 52.0866673,79.741333 51.9533333,79.816 C51.8199993,79.890667 51.6733341,79.928 51.5133333,79.928 C51.3799993,79.928 51.2653338,79.8933337 51.1693333,79.824 C51.0733329,79.7546663 50.9960003,79.6693338 50.9373333,79.568 L50.5773333,78.936 C51.5213381,78.0719957 52.6599933,77.64 53.9933333,77.64 C54.4733357,77.64 54.9013315,77.7186659 55.2773333,77.876 C55.6533352,78.0333341 55.9719987,78.2519986 56.2333333,78.532 C56.494668,78.8120014 56.6933327,79.1466647 56.8293333,79.536 C56.965334,79.9253353 57.0333333,80.3519977 57.0333333,80.816 L57.0333333,86 Z M53.1933333,84.768 C53.396001,84.768 53.5826658,84.7493335 53.7533333,84.712 C53.9240009,84.6746665 54.0853326,84.618667 54.2373333,84.544 C54.3893341,84.469333 54.5359993,84.3773339 54.6773333,84.268 C54.8186674,84.1586661 54.9613326,84.0293341 55.1053333,83.88 L55.1053333,82.496 C54.5293305,82.5226668 54.0480019,82.5719996 53.6613333,82.644 C53.2746647,82.7160004 52.9640012,82.8079994 52.7293333,82.92 C52.4946655,83.0320006 52.3280005,83.1626659 52.2293333,83.312 C52.1306662,83.4613341 52.0813333,83.6239991 52.0813333,83.8 C52.0813333,84.1466684 52.183999,84.3946659 52.3893333,84.544 C52.5946677,84.6933341 52.862665,84.768 53.1933333,84.768 Z M58.9773333,86 L58.9773333,77.792 L60.1373333,77.792 C60.340001,77.792 60.4813329,77.829333 60.5613333,77.904 C60.6413337,77.978667 60.6946665,78.1066658 60.7213333,78.288 L60.8413333,79.28 C61.1346681,78.7733308 61.4786647,78.3733348 61.8733333,78.08 C62.268002,77.7866652 62.7106642,77.64 63.2013333,77.64 C63.6066687,77.64 63.9426653,77.7333324 64.2093333,77.92 L63.9533333,79.4 C63.9373333,79.4960005 63.9026669,79.5639998 63.8493333,79.604 C63.7959997,79.6440002 63.7240005,79.664 63.6333333,79.664 C63.5533329,79.664 63.4440007,79.6453335 63.3053333,79.608 C63.166666,79.5706665 62.9826678,79.552 62.7533333,79.552 C62.3426646,79.552 61.9906681,79.6653322 61.6973333,79.892 C61.4039985,80.1186678 61.156001,80.4506645 60.9533333,80.888 L60.9533333,86 L58.9773333,86 Z M65.5133333,86 L65.5133333,77.792 L66.6733333,77.792 C66.876001,77.792 67.0173329,77.829333 67.0973333,77.904 C67.1773337,77.978667 67.2306665,78.1066658 67.2573333,78.288 L67.3773333,79.28 C67.6706681,78.7733308 68.0146647,78.3733348 68.4093333,78.08 C68.804002,77.7866652 69.2466642,77.64 69.7373333,77.64 C70.1426687,77.64 70.4786653,77.7333324 70.7453333,77.92 L70.4893333,79.4 C70.4733333,79.4960005 70.4386669,79.5639998 70.3853333,79.604 C70.3319997,79.6440002 70.2600005,79.664 70.1693333,79.664 C70.0893329,79.664 69.9800007,79.6453335 69.8413333,79.608 C69.702666,79.5706665 69.5186678,79.552 69.2893333,79.552 C68.8786646,79.552 68.5266681,79.6653322 68.2333333,79.892 C67.9399985,80.1186678 67.692001,80.4506645 67.4893333,80.888 L67.4893333,86 L65.5133333,86 Z M74.1533333,77.792 L74.1533333,86 L72.1773333,86 L72.1773333,77.792 L74.1533333,77.792 Z M74.4493333,75.4 C74.4493333,75.5706675 74.414667,75.7306659 74.3453333,75.88 C74.2759997,76.0293341 74.1840006,76.1599994 74.0693333,76.272 C73.9546661,76.3840006 73.8200008,76.473333 73.6653333,76.54 C73.5106659,76.606667 73.3453342,76.64 73.1693333,76.64 C72.9986658,76.64 72.8373341,76.606667 72.6853333,76.54 C72.5333326,76.473333 72.4013339,76.3840006 72.2893333,76.272 C72.1773328,76.1599994 72.0880003,76.0293341 72.0213333,75.88 C71.9546663,75.7306659 71.9213333,75.5706675 71.9213333,75.4 C71.9213333,75.2239991 71.9546663,75.0586674 72.0213333,74.904 C72.0880003,74.7493326 72.1773328,74.6160006 72.2893333,74.504 C72.4013339,74.3919994 72.5333326,74.302667 72.6853333,74.236 C72.8373341,74.169333 72.9986658,74.136 73.1693333,74.136 C73.3453342,74.136 73.5106659,74.169333 73.6653333,74.236 C73.8200008,74.302667 73.9546661,74.3919994 74.0693333,74.504 C74.1840006,74.6160006 74.2759997,74.7493326 74.3453333,74.904 C74.414667,75.0586674 74.4493333,75.2239991 74.4493333,75.4 Z M79.7773333,77.664 C80.2946693,77.664 80.7706645,77.7466658 81.2053333,77.912 C81.6400022,78.0773342 82.0146651,78.3186651 82.3293333,78.636 C82.6440016,78.9533349 82.8893325,79.3426644 83.0653333,79.804 C83.2413342,80.2653356 83.3293333,80.791997 83.3293333,81.384 C83.3293333,81.5333341 83.3226667,81.6573328 83.3093333,81.756 C83.2959999,81.8546672 83.2720002,81.9319997 83.2373333,81.988 C83.2026665,82.0440003 83.1560003,82.0839999 83.0973333,82.108 C83.0386664,82.1320001 82.9640005,82.144 82.8733333,82.144 L77.8013333,82.144 C77.8600003,82.9866709 78.0866647,83.6053314 78.4813333,84 C78.876002,84.3946686 79.3986634,84.592 80.0493333,84.592 C80.3693349,84.592 80.6453322,84.554667 80.8773333,84.48 C81.1093345,84.405333 81.3119991,84.3226671 81.4853333,84.232 C81.6586675,84.1413329 81.810666,84.058667 81.9413333,83.984 C82.0720007,83.909333 82.1986661,83.872 82.3213333,83.872 C82.4013337,83.872 82.4706664,83.8879998 82.5293333,83.92 C82.5880003,83.9520002 82.6386665,83.997333 82.6813333,84.056 L83.2573333,84.776 C83.0386656,85.0320013 82.7933347,85.2466658 82.5213333,85.42 C82.249332,85.5933342 81.9653348,85.7319995 81.6693333,85.836 C81.3733319,85.9400005 81.0720015,86.0133331 80.7653333,86.056 C80.4586651,86.0986669 80.1613348,86.12 79.8733333,86.12 C79.3026638,86.12 78.7720025,86.0253343 78.2813333,85.836 C77.7906642,85.6466657 77.3640018,85.3666685 77.0013333,84.996 C76.6386649,84.6253315 76.3533344,84.1666694 76.1453333,83.62 C75.9373323,83.0733306 75.8333333,82.4400036 75.8333333,81.72 C75.8333333,81.1599972 75.9239991,80.6333358 76.1053333,80.14 C76.2866676,79.6466642 76.546665,79.2173352 76.8853333,78.852 C77.2240017,78.4866648 77.6373309,78.1973344 78.1253333,77.984 C78.6133358,77.7706656 79.1639969,77.664 79.7773333,77.664 Z M79.8173333,79.08 C79.2413305,79.08 78.7906683,79.242665 78.4653333,79.568 C78.1399984,79.893335 77.9320005,80.3546637 77.8413333,80.952 L81.5533333,80.952 C81.5533333,80.6959987 81.518667,80.4546678 81.4493333,80.228 C81.3799997,80.0013322 81.2733341,79.8026675 81.1293333,79.632 C80.9853326,79.4613325 80.8040011,79.3266672 80.5853333,79.228 C80.3666656,79.1293328 80.1106681,79.08 79.8173333,79.08 Z M90.7133333,86 C90.4573321,86 90.2893337,85.8800012 90.2093333,85.64 L90.0493333,84.848 C89.8786658,85.040001 89.7000009,85.2133326 89.5133333,85.368 C89.3266657,85.5226674 89.1253344,85.6559994 88.9093333,85.768 C88.6933323,85.8800006 88.4613346,85.9666664 88.2133333,86.028 C87.9653321,86.0893336 87.6973348,86.12 87.4093333,86.12 C86.9613311,86.12 86.5506685,86.0266676 86.1773333,85.84 C85.8039981,85.6533324 85.482668,85.3826684 85.2133333,85.028 C84.9439987,84.6733316 84.7360007,84.2346693 84.5893333,83.712 C84.4426659,83.1893307 84.3693333,82.5920034 84.3693333,81.92 C84.3693333,81.311997 84.4519992,80.7466693 84.6173333,80.224 C84.7826675,79.7013307 85.0199985,79.2480019 85.3293333,78.864 C85.6386682,78.4799981 86.0093312,78.1800011 86.4413333,77.964 C86.8733355,77.7479989 87.358664,77.64 87.8973333,77.64 C88.3560023,77.64 88.7479984,77.7133326 89.0733333,77.86 C89.3986683,78.0066674 89.6893321,78.2026654 89.9453333,78.448 L89.9453333,74.112 L91.9213333,74.112 L91.9213333,86 L90.7133333,86 Z M88.0813333,84.552 C88.4920021,84.552 88.8413319,84.4666675 89.1293333,84.296 C89.4173348,84.1253325 89.6893321,83.8826682 89.9453333,83.568 L89.9453333,79.888 C89.7213322,79.6159986 89.4773347,79.4240006 89.2133333,79.312 C88.949332,79.1999994 88.6653349,79.144 88.3613333,79.144 C88.0626652,79.144 87.7920012,79.1999994 87.5493333,79.312 C87.3066655,79.4240006 87.1013342,79.5933322 86.9333333,79.82 C86.7653325,80.0466678 86.6360005,80.3346649 86.5453333,80.684 C86.4546662,81.0333351 86.4093333,81.445331 86.4093333,81.92 C86.4093333,82.4000024 86.4479996,82.806665 86.5253333,83.14 C86.6026671,83.473335 86.7133326,83.7453323 86.8573333,83.956 C87.0013341,84.1666677 87.1773323,84.3186662 87.3853333,84.412 C87.5933344,84.5053338 87.8253321,84.552 88.0813333,84.552 Z M1.10933333,93.432 L2.91733333,93.432 C3.10400093,93.432 3.25999937,93.4759996 3.38533333,93.564 C3.51066729,93.6520004 3.59466645,93.7706659 3.63733333,93.92 L5.60533333,100.84 C5.65333357,101.010668 5.69733313,101.195999 5.73733333,101.396 C5.77733353,101.596001 5.81599981,101.807999 5.85333333,102.032 C5.89600021,101.807999 5.94266641,101.596001 5.99333333,101.396 C6.04400025,101.195999 6.09866637,101.010668 6.15733333,100.84 L8.42933333,93.92 C8.47200021,93.7973327 8.55599937,93.6853338 8.68133333,93.584 C8.80666729,93.4826662 8.95999909,93.432 9.14133333,93.432 L9.77333333,93.432 C9.96000093,93.432 10.1146661,93.4759996 10.2373333,93.564 C10.3600006,93.6520004 10.4453331,93.7706659 10.4933333,93.92 L12.7493333,100.84 C12.8666673,101.181335 12.9679996,101.559998 13.0533333,101.976 C13.0906669,101.767999 13.1293331,101.568001 13.1693333,101.376 C13.2093335,101.183999 13.2506665,101.005334 13.2933333,100.84 L15.2613333,93.92 C15.2986669,93.786666 15.3813327,93.6720005 15.5093333,93.576 C15.637334,93.4799995 15.7919991,93.432 15.9733333,93.432 L17.6613333,93.432 L14.0693333,105 L12.1253333,105 L9.59733333,97.096 C9.56533317,96.9946662 9.53200017,96.8853339 9.49733333,96.768 C9.46266649,96.6506661 9.42933349,96.525334 9.39733333,96.392 C9.36533317,96.525334 9.33200017,96.6506661 9.29733333,96.768 C9.26266649,96.8853339 9.22933349,96.9946662 9.19733333,97.096 L6.64533333,105 L4.70133333,105 L1.10933333,93.432 Z M20.9173333,96.792 L20.9173333,105 L18.9413333,105 L18.9413333,96.792 L20.9173333,96.792 Z M21.2133333,94.4 C21.2133333,94.5706675 21.178667,94.7306659 21.1093333,94.88 C21.0399997,95.0293341 20.9480006,95.1599994 20.8333333,95.272 C20.7186661,95.3840006 20.5840008,95.473333 20.4293333,95.54 C20.2746659,95.606667 20.1093342,95.64 19.9333333,95.64 C19.7626658,95.64 19.6013341,95.606667 19.4493333,95.54 C19.2973326,95.473333 19.1653339,95.3840006 19.0533333,95.272 C18.9413328,95.1599994 18.8520003,95.0293341 18.7853333,94.88 C18.7186663,94.7306659 18.6853333,94.5706675 18.6853333,94.4 C18.6853333,94.2239991 18.7186663,94.0586674 18.7853333,93.904 C18.8520003,93.7493326 18.9413328,93.6160006 19.0533333,93.504 C19.1653339,93.3919994 19.2973326,93.302667 19.4493333,93.236 C19.6013341,93.169333 19.7626658,93.136 19.9333333,93.136 C20.1093342,93.136 20.2746659,93.169333 20.4293333,93.236 C20.5840008,93.302667 20.7186661,93.3919994 20.8333333,93.504 C20.9480006,93.6160006 21.0399997,93.7493326 21.1093333,93.904 C21.178667,94.0586674 21.2133333,94.2239991 21.2133333,94.4 Z M25.8453333,105.128 C25.1359965,105.128 24.5893353,104.926669 24.2053333,104.524 C23.8213314,104.121331 23.6293333,103.565337 23.6293333,102.856 L23.6293333,98.272 L22.7973333,98.272 C22.6906661,98.272 22.5986671,98.2373337 22.5213333,98.168 C22.4439996,98.0986663 22.4053333,97.9946674 22.4053333,97.856 L22.4053333,97.072 L23.7253333,96.856 L24.1413333,94.616 C24.1626668,94.5093328 24.2119996,94.426667 24.2893333,94.368 C24.3666671,94.309333 24.4639994,94.28 24.5813333,94.28 L25.6053333,94.28 L25.6053333,96.864 L27.7653333,96.864 L27.7653333,98.272 L25.6053333,98.272 L25.6053333,102.72 C25.6053333,102.976001 25.6693327,103.175999 25.7973333,103.32 C25.925334,103.464001 26.0959989,103.536 26.3093333,103.536 C26.4320006,103.536 26.5346663,103.521333 26.6173333,103.492 C26.7000004,103.462667 26.7719997,103.432 26.8333333,103.4 C26.894667,103.368 26.9493331,103.337333 26.9973333,103.308 C27.0453336,103.278667 27.0933331,103.264 27.1413333,103.264 C27.2000003,103.264 27.2479998,103.278667 27.2853333,103.308 C27.3226669,103.337333 27.3626665,103.381333 27.4053333,103.44 L27.9973333,104.4 C27.7093319,104.640001 27.3786685,104.821333 27.0053333,104.944 C26.6319981,105.066667 26.2453353,105.128 25.8453333,105.128 Z M29.3413333,105 L29.3413333,93.112 L31.3173333,93.112 L31.3173333,97.68 C31.6373349,97.3759985 31.9893314,97.1306676 32.3733333,96.944 C32.7573353,96.7573324 33.2079974,96.664 33.7253333,96.664 C34.1733356,96.664 34.5706649,96.7399992 34.9173333,96.892 C35.2640017,97.0440008 35.5533322,97.257332 35.7853333,97.532 C36.0173345,97.806668 36.1933327,98.1346648 36.3133333,98.516 C36.4333339,98.8973352 36.4933333,99.317331 36.4933333,99.776 L36.4933333,105 L34.5173333,105 L34.5173333,99.776 C34.5173333,99.2746642 34.4013345,98.886668 34.1693333,98.612 C33.9373322,98.337332 33.5893357,98.2 33.1253333,98.2 C32.7839983,98.2 32.4640015,98.2773326 32.1653333,98.432 C31.8666652,98.5866674 31.5840013,98.797332 31.3173333,99.064 L31.3173333,105 L29.3413333,105 Z M41.9413333,96.664 C42.5546697,96.664 43.1106642,96.7626657 43.6093333,96.96 C44.1080025,97.1573343 44.5333316,97.4373315 44.8853333,97.8 C45.2373351,98.1626685 45.5093324,98.6053307 45.7013333,99.128 C45.8933343,99.6506693 45.9893333,100.234663 45.9893333,100.88 C45.9893333,101.53067 45.8933343,102.117331 45.7013333,102.64 C45.5093324,103.162669 45.2373351,103.607998 44.8853333,103.976 C44.5333316,104.344002 44.1080025,104.626666 43.6093333,104.824 C43.1106642,105.021334 42.5546697,105.12 41.9413333,105.12 C41.3279969,105.12 40.7706692,105.021334 40.2693333,104.824 C39.7679975,104.626666 39.3400018,104.344002 38.9853333,103.976 C38.6306649,103.607998 38.356001,103.162669 38.1613333,102.64 C37.9666657,102.117331 37.8693333,101.53067 37.8693333,100.88 C37.8693333,100.234663 37.9666657,99.6506693 38.1613333,99.128 C38.356001,98.6053307 38.6306649,98.1626685 38.9853333,97.8 C39.3400018,97.4373315 39.7679975,97.1573343 40.2693333,96.96 C40.7706692,96.7626657 41.3279969,96.664 41.9413333,96.664 Z M41.9413333,103.6 C42.6240034,103.6 43.1293317,103.370669 43.4573333,102.912 C43.785335,102.453331 43.9493333,101.781338 43.9493333,100.896 C43.9493333,100.010662 43.785335,99.3360023 43.4573333,98.872 C43.1293317,98.4079977 42.6240034,98.176 41.9413333,98.176 C41.2479965,98.176 40.7360017,98.409331 40.4053333,98.876 C40.074665,99.342669 39.9093333,100.015996 39.9093333,100.896 C39.9093333,101.776004 40.074665,102.446664 40.4053333,102.908 C40.7360017,103.369336 41.2479965,103.6 41.9413333,103.6 Z M49.3413333,96.792 L49.3413333,102.008 C49.3413333,102.509336 49.4573322,102.897332 49.6893333,103.172 C49.9213345,103.446668 50.269331,103.584 50.7333333,103.584 C51.0746684,103.584 51.3946652,103.508001 51.6933333,103.356 C51.9920015,103.203999 52.2746653,102.994668 52.5413333,102.728 L52.5413333,96.792 L54.5173333,96.792 L54.5173333,105 L53.3093333,105 C53.0533321,105 52.8853337,104.880001 52.8053333,104.64 L52.6693333,103.984 C52.4986658,104.154668 52.3226676,104.310666 52.1413333,104.452 C51.9599991,104.593334 51.7666677,104.713333 51.5613333,104.812 C51.355999,104.910667 51.1346679,104.988 50.8973333,105.044 C50.6599988,105.1 50.4053347,105.128 50.1333333,105.128 C49.6853311,105.128 49.2893351,105.052001 48.9453333,104.9 C48.6013316,104.747999 48.3120012,104.533335 48.0773333,104.256 C47.8426655,103.978665 47.6653339,103.649335 47.5453333,103.268 C47.4253327,102.886665 47.3653333,102.466669 47.3653333,102.008 L47.3653333,96.792 L49.3413333,96.792 Z M59.3253333,105.128 C58.6159965,105.128 58.0693353,104.926669 57.6853333,104.524 C57.3013314,104.121331 57.1093333,103.565337 57.1093333,102.856 L57.1093333,98.272 L56.2773333,98.272 C56.1706661,98.272 56.0786671,98.2373337 56.0013333,98.168 C55.9239996,98.0986663 55.8853333,97.9946674 55.8853333,97.856 L55.8853333,97.072 L57.2053333,96.856 L57.6213333,94.616 C57.6426668,94.5093328 57.6919996,94.426667 57.7693333,94.368 C57.8466671,94.309333 57.9439994,94.28 58.0613333,94.28 L59.0853333,94.28 L59.0853333,96.864 L61.2453333,96.864 L61.2453333,98.272 L59.0853333,98.272 L59.0853333,102.72 C59.0853333,102.976001 59.1493327,103.175999 59.2773333,103.32 C59.405334,103.464001 59.5759989,103.536 59.7893333,103.536 C59.9120006,103.536 60.0146663,103.521333 60.0973333,103.492 C60.1800004,103.462667 60.2519997,103.432 60.3133333,103.4 C60.374667,103.368 60.4293331,103.337333 60.4773333,103.308 C60.5253336,103.278667 60.5733331,103.264 60.6213333,103.264 C60.6800003,103.264 60.7279998,103.278667 60.7653333,103.308 C60.8026669,103.337333 60.8426665,103.381333 60.8853333,103.44 L61.4773333,104.4 C61.1893319,104.640001 60.8586685,104.821333 60.4853333,104.944 C60.1119981,105.066667 59.7253353,105.128 59.3253333,105.128 Z M73.9733333,102.272 C74.0906673,102.272 74.1919996,102.317333 74.2773333,102.408 L75.1253333,103.328 C74.6559977,103.909336 74.0786701,104.354665 73.3933333,104.664 C72.7079966,104.973335 71.8853381,105.128 70.9253333,105.128 C70.0666624,105.128 69.2946701,104.981335 68.6093333,104.688 C67.9239966,104.394665 67.3386691,103.986669 66.8533333,103.464 C66.3679976,102.941331 65.9960013,102.317337 65.7373333,101.592 C65.4786654,100.866663 65.3493333,100.074671 65.3493333,99.216 C65.3493333,98.3466623 65.4933319,97.5506703 65.7813333,96.828 C66.0693348,96.1053297 66.4746641,95.4826693 66.9973333,94.96 C67.5200026,94.4373307 68.1453297,94.0306681 68.8733333,93.74 C69.601337,93.4493319 70.4053289,93.304 71.2853333,93.304 C72.1440043,93.304 72.8946635,93.441332 73.5373333,93.716 C74.1800032,93.990668 74.7306644,94.3546644 75.1893333,94.808 L74.4693333,95.808 C74.4266665,95.8720003 74.3720003,95.9279998 74.3053333,95.976 C74.2386663,96.0240002 74.1466673,96.048 74.0293333,96.048 C73.9066661,96.048 73.781334,96.0000005 73.6533333,95.904 C73.5253327,95.8079995 73.3626677,95.7040006 73.1653333,95.592 C72.967999,95.4799994 72.7186682,95.3760005 72.4173333,95.28 C72.1159985,95.1839995 71.7333357,95.136 71.2693333,95.136 C70.7253306,95.136 70.2253356,95.2306657 69.7693333,95.42 C69.3133311,95.6093343 68.921335,95.8799982 68.5933333,96.232 C68.2653317,96.5840018 68.0093343,97.0119975 67.8253333,97.516 C67.6413324,98.0200025 67.5493333,98.5866635 67.5493333,99.216 C67.5493333,99.8666699 67.6413324,100.445331 67.8253333,100.952 C68.0093343,101.458669 68.2586651,101.885332 68.5733333,102.232 C68.8880016,102.578668 69.2586645,102.843999 69.6853333,103.028 C70.1120021,103.212001 70.5706642,103.304 71.0613333,103.304 C71.3546681,103.304 71.6199988,103.288 71.8573333,103.256 C72.0946679,103.224 72.3133323,103.173334 72.5133333,103.104 C72.7133343,103.034666 72.9026658,102.945334 73.0813333,102.836 C73.2600009,102.726666 73.4373325,102.592001 73.6133333,102.432 C73.6666669,102.384 73.7226664,102.345333 73.7813333,102.316 C73.8400003,102.286667 73.9039997,102.272 73.9733333,102.272 Z M76.6373333,105 L76.6373333,93.112 L78.6133333,93.112 L78.6133333,97.68 C78.9333349,97.3759985 79.2853314,97.1306676 79.6693333,96.944 C80.0533353,96.7573324 80.5039974,96.664 81.0213333,96.664 C81.4693356,96.664 81.8666649,96.7399992 82.2133333,96.892 C82.5600017,97.0440008 82.8493322,97.257332 83.0813333,97.532 C83.3133345,97.806668 83.4893327,98.1346648 83.6093333,98.516 C83.7293339,98.8973352 83.7893333,99.317331 83.7893333,99.776 L83.7893333,105 L81.8133333,105 L81.8133333,99.776 C81.8133333,99.2746642 81.6973345,98.886668 81.4653333,98.612 C81.2333322,98.337332 80.8853357,98.2 80.4213333,98.2 C80.0799983,98.2 79.7600015,98.2773326 79.4613333,98.432 C79.1626652,98.5866674 78.8800013,98.797332 78.6133333,99.064 L78.6133333,105 L76.6373333,105 Z M87.8373333,96.792 L87.8373333,105 L85.8613333,105 L85.8613333,96.792 L87.8373333,96.792 Z M88.1333333,94.4 C88.1333333,94.5706675 88.098667,94.7306659 88.0293333,94.88 C87.9599997,95.0293341 87.8680006,95.1599994 87.7533333,95.272 C87.6386661,95.3840006 87.5040008,95.473333 87.3493333,95.54 C87.1946659,95.606667 87.0293342,95.64 86.8533333,95.64 C86.6826658,95.64 86.5213341,95.606667 86.3693333,95.54 C86.2173326,95.473333 86.0853339,95.3840006 85.9733333,95.272 C85.8613328,95.1599994 85.7720003,95.0293341 85.7053333,94.88 C85.6386663,94.7306659 85.6053333,94.5706675 85.6053333,94.4 C85.6053333,94.2239991 85.6386663,94.0586674 85.7053333,93.904 C85.7720003,93.7493326 85.8613328,93.6160006 85.9733333,93.504 C86.0853339,93.3919994 86.2173326,93.302667 86.3693333,93.236 C86.5213341,93.169333 86.6826658,93.136 86.8533333,93.136 C87.0293342,93.136 87.1946659,93.169333 87.3493333,93.236 C87.5040008,93.302667 87.6386661,93.3919994 87.7533333,93.504 C87.8680006,93.6160006 87.9599997,93.7493326 88.0293333,93.904 C88.098667,94.0586674 88.1333333,94.2239991 88.1333333,94.4 Z M92.1733333,93.112 L92.1733333,105 L90.1973333,105 L90.1973333,93.112 L92.1733333,93.112 Z M100.181333,105 C99.9253321,105 99.7573337,104.880001 99.6773333,104.64 L99.5173333,103.848 C99.3466658,104.040001 99.1680009,104.213333 98.9813333,104.368 C98.7946657,104.522667 98.5933344,104.655999 98.3773333,104.768 C98.1613323,104.880001 97.9293346,104.966666 97.6813333,105.028 C97.4333321,105.089334 97.1653348,105.12 96.8773333,105.12 C96.4293311,105.12 96.0186685,105.026668 95.6453333,104.84 C95.2719981,104.653332 94.950668,104.382668 94.6813333,104.028 C94.4119987,103.673332 94.2040007,103.234669 94.0573333,102.712 C93.9106659,102.189331 93.8373333,101.592003 93.8373333,100.92 C93.8373333,100.311997 93.9199992,99.7466693 94.0853333,99.224 C94.2506675,98.7013307 94.4879985,98.2480019 94.7973333,97.864 C95.1066682,97.4799981 95.4773312,97.1800011 95.9093333,96.964 C96.3413355,96.7479989 96.826664,96.64 97.3653333,96.64 C97.8240023,96.64 98.2159984,96.7133326 98.5413333,96.86 C98.8666683,97.0066674 99.1573321,97.2026654 99.4133333,97.448 L99.4133333,93.112 L101.389333,93.112 L101.389333,105 L100.181333,105 Z M97.5493333,103.552 C97.9600021,103.552 98.3093319,103.466668 98.5973333,103.296 C98.8853348,103.125332 99.1573321,102.882668 99.4133333,102.568 L99.4133333,98.888 C99.1893322,98.6159986 98.9453347,98.4240006 98.6813333,98.312 C98.417332,98.1999994 98.1333349,98.144 97.8293333,98.144 C97.5306652,98.144 97.2600012,98.1999994 97.0173333,98.312 C96.7746655,98.4240006 96.5693342,98.5933322 96.4013333,98.82 C96.2333325,99.0466678 96.1040005,99.3346649 96.0133333,99.684 C95.9226662,100.033335 95.8773333,100.445331 95.8773333,100.92 C95.8773333,101.400002 95.9159996,101.806665 95.9933333,102.14 C96.0706671,102.473335 96.1813326,102.745332 96.3253333,102.956 C96.4693341,103.166668 96.6453323,103.318666 96.8533333,103.412 C97.0613344,103.505334 97.2933321,103.552 97.5493333,103.552 Z M103.525333,105 L103.525333,96.792 L104.685333,96.792 C104.888001,96.792 105.029333,96.829333 105.109333,96.904 C105.189334,96.978667 105.242667,97.1066658 105.269333,97.288 L105.389333,98.28 C105.682668,97.7733308 106.026665,97.3733348 106.421333,97.08 C106.816002,96.7866652 107.258664,96.64 107.749333,96.64 C108.154669,96.64 108.490665,96.7333324 108.757333,96.92 L108.501333,98.4 C108.485333,98.4960005 108.450667,98.5639998 108.397333,98.604 C108.344,98.6440002 108.272,98.664 108.181333,98.664 C108.101333,98.664 107.992001,98.6453335 107.853333,98.608 C107.714666,98.5706665 107.530668,98.552 107.301333,98.552 C106.890665,98.552 106.538668,98.6653322 106.245333,98.892 C105.951999,99.1186678 105.704001,99.4506645 105.501333,99.888 L105.501333,105 L103.525333,105 Z M113.453333,96.664 C113.970669,96.664 114.446664,96.7466658 114.881333,96.912 C115.316002,97.0773342 115.690665,97.3186651 116.005333,97.636 C116.320002,97.9533349 116.565332,98.3426644 116.741333,98.804 C116.917334,99.2653356 117.005333,99.791997 117.005333,100.384 C117.005333,100.533334 116.998667,100.657333 116.985333,100.756 C116.972,100.854667 116.948,100.932 116.913333,100.988 C116.878666,101.044 116.832,101.084 116.773333,101.108 C116.714666,101.132 116.64,101.144 116.549333,101.144 L111.477333,101.144 C111.536,101.986671 111.762665,102.605331 112.157333,103 C112.552002,103.394669 113.074663,103.592 113.725333,103.592 C114.045335,103.592 114.321332,103.554667 114.553333,103.48 C114.785334,103.405333 114.987999,103.322667 115.161333,103.232 C115.334668,103.141333 115.486666,103.058667 115.617333,102.984 C115.748001,102.909333 115.874666,102.872 115.997333,102.872 C116.077334,102.872 116.146666,102.888 116.205333,102.92 C116.264,102.952 116.314666,102.997333 116.357333,103.056 L116.933333,103.776 C116.714666,104.032001 116.469335,104.246666 116.197333,104.42 C115.925332,104.593334 115.641335,104.731999 115.345333,104.836 C115.049332,104.940001 114.748002,105.013333 114.441333,105.056 C114.134665,105.098667 113.837335,105.12 113.549333,105.12 C112.978664,105.12 112.448002,105.025334 111.957333,104.836 C111.466664,104.646666 111.040002,104.366669 110.677333,103.996 C110.314665,103.625331 110.029334,103.166669 109.821333,102.62 C109.613332,102.073331 109.509333,101.440004 109.509333,100.72 C109.509333,100.159997 109.599999,99.6333358 109.781333,99.14 C109.962668,98.6466642 110.222665,98.2173352 110.561333,97.852 C110.900002,97.4866648 111.313331,97.1973344 111.801333,96.984 C112.289336,96.7706656 112.839997,96.664 113.453333,96.664 Z M113.493333,98.08 C112.91733,98.08 112.466668,98.242665 112.141333,98.568 C111.815998,98.893335 111.608,99.3546637 111.517333,99.952 L115.229333,99.952 C115.229333,99.6959987 115.194667,99.4546678 115.125333,99.228 C115.056,99.0013322 114.949334,98.8026675 114.805333,98.632 C114.661333,98.4613325 114.480001,98.3266672 114.261333,98.228 C114.042666,98.1293328 113.786668,98.08 113.493333,98.08 Z M118.613333,105 L118.613333,96.792 L119.821333,96.792 C120.077335,96.792 120.245333,96.9119988 120.325333,97.152 L120.461333,97.8 C120.626667,97.6293325 120.801332,97.4746674 120.985333,97.336 C121.169334,97.1973326 121.363999,97.0773338 121.569333,96.976 C121.774668,96.8746662 121.994665,96.7973336 122.229333,96.744 C122.464001,96.6906664 122.719999,96.664 122.997333,96.664 C123.445336,96.664 123.842665,96.7399992 124.189333,96.892 C124.536002,97.0440008 124.825332,97.257332 125.057333,97.532 C125.289334,97.806668 125.465333,98.1346648 125.585333,98.516 C125.705334,98.8973352 125.765333,99.317331 125.765333,99.776 L125.765333,105 L123.789333,105 L123.789333,99.776 C123.789333,99.2746642 123.673334,98.886668 123.441333,98.612 C123.209332,98.337332 122.861336,98.2 122.397333,98.2 C122.055998,98.2 121.736001,98.2773326 121.437333,98.432 C121.138665,98.5866674 120.856001,98.797332 120.589333,99.064 L120.589333,105 L118.613333,105 Z" id="Married-Without-Chil"></path>
            <g id="Page-1" transform="translate(37.000000, 0.000000)">
                <path d="M44.3129062,0.46865625 C47.242125,0.46865625 49.6130625,2.8419375 49.6130625,5.76834375 C49.6130625,8.6975625 47.242125,11.0680312 44.3129062,11.0680312 C41.3841562,11.0680312 39.010875,8.6975625 39.010875,5.76834375 C39.010875,2.8419375 41.3841562,0.46865625 44.3129062,0.46865625" id="Fill-1"></path>
                <path d="M14.9299688,0.46865625 C17.8568437,0.46865625 20.230125,2.8419375 20.230125,5.76834375 C20.230125,8.6975625 17.8568437,11.0680312 14.9299688,11.0680312 C12.0012187,11.0680312 9.63028125,8.6975625 9.63028125,5.76834375 C9.63028125,2.8419375 12.0035625,0.46865625 14.9299688,0.46865625" id="Fill-4"></path>
                <path d="M1.39251562,31.4208281 C1.32548437,31.4025469 1.26126562,31.3861406 1.19657812,31.3608281 C0.202359375,30.9436406 -0.263109375,29.8064531 0.151734375,28.8145781 L6.48689063,13.6837969 C6.78689062,12.9661406 7.46704687,12.5330156 8.19829687,12.5002031 L8.19829687,12.4866094 L8.28360938,12.4866094 L21.6598594,12.4866094 L21.7475156,12.4866094 L21.7475156,12.5002031 C22.4764219,12.5330156 23.1589219,12.9619219 23.4584531,13.6837969 L29.7940781,28.8145781 C30.2093906,29.8041094 29.7411094,30.9436406 28.7445469,31.3631719 C27.7550156,31.7761406 26.6136094,31.3102031 26.1982969,30.3183281 L21.7451719,21.3309844 L21.7451719,38.1000469 C21.7475156,38.1342656 21.7540781,38.1642656 21.7540781,38.1966094 L21.7540781,57.9037969 C21.7540781,58.9758281 20.8873594,59.8406719 19.8172031,59.8406719 C19.8007969,59.8406719 19.7895469,59.8387969 19.7707969,59.8387969 C19.7572031,59.8387969 19.7431406,59.8406719 19.7272031,59.8406719 C18.6593906,59.8406719 17.7898594,58.9758281 17.7898594,57.9037969 L16.1801719,38.1966094 C16.1801719,38.1619219 16.1872031,38.1342656 16.1890781,38.1000469 L13.7492344,38.1000469 C13.7539219,38.1342656 13.7609531,38.1642656 13.7609531,38.1966094 L12.1512656,57.9037969 C12.1512656,58.9758281 11.2817344,59.8406719 10.2111094,59.8406719 C10.1975156,59.8406719 10.1815781,59.8387969 10.1679844,59.8387969 C10.1520469,59.8387969 10.1398594,59.8406719 10.1239219,59.8406719 C9.05423438,59.8406719 8.18657813,58.9758281 8.18657813,57.9037969 L8.18657813,38.1966094 C8.18657813,38.1619219 8.19126562,38.1342656 8.19595313,38.1000469 L8.19595313,21.3333281 L3.74282812,30.3183281 C3.52110937,30.8466094 3.09454687,31.2178594 2.59392188,31.3955156" id="Fill-7"></path>
                <path d="M56.9233594,31.1740781 C55.9249219,31.5917344 54.7764844,31.1211094 54.3616406,30.1222031 L49.0872656,17.5231406 L49.0708594,17.5559531 L53.9350781,39.4118906 L53.7892969,39.4118906 L49.5250781,39.4118906 C49.5367969,39.4995469 49.5527344,39.5806406 49.5527344,39.6725156 L49.5527344,57.8848594 C49.5527344,58.9620469 48.6761719,59.8362656 47.5994531,59.8362656 C47.5722656,59.8362656 47.5511719,59.8315781 47.5282031,59.8315781 C47.5000781,59.8315781 47.4799219,59.8362656 47.4522656,59.8362656 C46.3746094,59.8362656 45.5008594,58.9620469 45.5008594,57.8848594 L44.7583594,39.6725156 C44.7583594,39.5806406 44.7719531,39.4995469 44.7860156,39.4118906 L43.8405469,39.4118906 C43.8541406,39.4995469 43.8677344,39.5806406 43.8677344,39.6725156 L43.1275781,57.8848594 C43.1275781,58.9620469 42.2538281,59.8362656 41.1789844,59.8362656 C41.1517969,59.8362656 41.1283594,59.8315781 41.1030469,59.8315781 C41.0749219,59.8315781 41.0542969,59.8362656 41.0289844,59.8362656 C39.9494531,59.8362656 39.0757031,58.9620469 39.0757031,57.8848594 L39.0757031,39.6725156 C39.0757031,39.5806406 39.0916406,39.4995469 39.1033594,39.4118906 L34.8414844,39.4118906 L34.8367969,39.4118906 L34.6914844,39.4118906 L39.5552344,17.5559531 L39.5411719,17.5231406 L34.2696094,30.1222031 C33.8491406,31.1234531 32.6983594,31.5917344 31.7050781,31.1740781 C30.7038281,30.7540781 30.2336719,29.6056406 30.6532031,28.6118906 L38.0074219,12.3528281 L38.0791406,12.1798594 L50.5375781,12.1798594 L50.5403906,12.1798594 L50.6088281,12.3528281 L57.9663281,28.6118906 C58.3858594,29.6107969 57.9152344,30.7564219 56.9233594,31.1740781" id="Fill-10"></path>
            </g>
        </g>
    </g>
</svg>