<?xml version="1.0" encoding="UTF-8" standalone="no"?>
<svg width="75px" height="75px" viewBox="0 0 81 106" version="1.1" xmlns="http://www.w3.org/2000/svg" xmlns:xlink="http://www.w3.org/1999/xlink">
    <!-- Generator: Sketch 48.2 (47327) - http://www.bohemiancoding.com/sketch -->
    <title>Nearing_Retirement</title>
    <desc>Created with Sketch.</desc>
    <defs></defs>
    <g id="Page2-Copy-2" stroke="none" stroke-width="1" fill="none" fill-rule="evenodd" transform="translate(-665.000000, -455.000000)">
        <g id="Nearing_Retirement" transform="translate(664.000000, 455.000000)">
            <path d="M14.9933333,74.432 C15.0893338,74.432 15.169333,74.436 15.2333333,74.444 C15.2973337,74.452 15.3546664,74.4679999 15.4053333,74.492 C15.4560003,74.5160001 15.5053331,74.5506664 15.5533333,74.596 C15.6013336,74.6413336 15.6546664,74.701333 15.7133333,74.776 L21.7853333,82.512 C21.7639999,82.3253324 21.7493334,82.1426676 21.7413333,81.964 C21.7333333,81.7853324 21.7293333,81.6186674 21.7293333,81.464 L21.7293333,74.432 L23.6253333,74.432 L23.6253333,86 L22.5133333,86 C22.3426658,86 22.2013339,85.9733336 22.0893333,85.92 C21.9773328,85.8666664 21.8680005,85.7706674 21.7613333,85.632 L15.7133333,77.928 C15.7293334,78.0986675 15.7413333,78.2679992 15.7493333,78.436 C15.7573334,78.6040008 15.7613333,78.7573326 15.7613333,78.896 L15.7613333,86 L13.8653333,86 L13.8653333,74.432 L14.9933333,74.432 Z M29.2413333,77.664 C29.7586693,77.664 30.2346645,77.7466658 30.6693333,77.912 C31.1040022,78.0773342 31.4786651,78.3186651 31.7933333,78.636 C32.1080016,78.9533349 32.3533325,79.3426644 32.5293333,79.804 C32.7053342,80.2653356 32.7933333,80.791997 32.7933333,81.384 C32.7933333,81.5333341 32.7866667,81.6573328 32.7733333,81.756 C32.7599999,81.8546672 32.7360002,81.9319997 32.7013333,81.988 C32.6666665,82.0440003 32.6200003,82.0839999 32.5613333,82.108 C32.5026664,82.1320001 32.4280005,82.144 32.3373333,82.144 L27.2653333,82.144 C27.3240003,82.9866709 27.5506647,83.6053314 27.9453333,84 C28.340002,84.3946686 28.8626634,84.592 29.5133333,84.592 C29.8333349,84.592 30.1093322,84.554667 30.3413333,84.48 C30.5733345,84.405333 30.7759991,84.3226671 30.9493333,84.232 C31.1226675,84.1413329 31.274666,84.058667 31.4053333,83.984 C31.5360007,83.909333 31.6626661,83.872 31.7853333,83.872 C31.8653337,83.872 31.9346664,83.8879998 31.9933333,83.92 C32.0520003,83.9520002 32.1026665,83.997333 32.1453333,84.056 L32.7213333,84.776 C32.5026656,85.0320013 32.2573347,85.2466658 31.9853333,85.42 C31.713332,85.5933342 31.4293348,85.7319995 31.1333333,85.836 C30.8373319,85.9400005 30.5360015,86.0133331 30.2293333,86.056 C29.9226651,86.0986669 29.6253348,86.12 29.3373333,86.12 C28.7666638,86.12 28.2360025,86.0253343 27.7453333,85.836 C27.2546642,85.6466657 26.8280018,85.3666685 26.4653333,84.996 C26.1026649,84.6253315 25.8173344,84.1666694 25.6093333,83.62 C25.4013323,83.0733306 25.2973333,82.4400036 25.2973333,81.72 C25.2973333,81.1599972 25.3879991,80.6333358 25.5693333,80.14 C25.7506676,79.6466642 26.010665,79.2173352 26.3493333,78.852 C26.6880017,78.4866648 27.1013309,78.1973344 27.5893333,77.984 C28.0773358,77.7706656 28.6279969,77.664 29.2413333,77.664 Z M29.2813333,79.08 C28.7053305,79.08 28.2546683,79.242665 27.9293333,79.568 C27.6039984,79.893335 27.3960005,80.3546637 27.3053333,80.952 L31.0173333,80.952 C31.0173333,80.6959987 30.982667,80.4546678 30.9133333,80.228 C30.8439997,80.0013322 30.7373341,79.8026675 30.5933333,79.632 C30.4493326,79.4613325 30.2680011,79.3266672 30.0493333,79.228 C29.8306656,79.1293328 29.5746681,79.08 29.2813333,79.08 Z M40.8333333,86 L39.9453333,86 C39.7586657,86 39.6120005,85.9720003 39.5053333,85.916 C39.3986661,85.8599997 39.3186669,85.7466675 39.2653333,85.576 L39.0893333,84.992 C38.8813323,85.1786676 38.6773343,85.342666 38.4773333,85.484 C38.2773323,85.625334 38.0706677,85.7439995 37.8573333,85.84 C37.6439989,85.9360005 37.4173345,86.0079998 37.1773333,86.056 C36.9373321,86.1040002 36.6706681,86.128 36.3773333,86.128 C36.0306649,86.128 35.7106681,86.0813338 35.4173333,85.988 C35.1239985,85.8946662 34.8720011,85.7546676 34.6613333,85.568 C34.4506656,85.3813324 34.2866673,85.1493347 34.1693333,84.872 C34.0519994,84.5946653 33.9933333,84.2720018 33.9933333,83.904 C33.9933333,83.5946651 34.0746659,83.2893348 34.2373333,82.988 C34.4000008,82.6866652 34.6706648,82.4146679 35.0493333,82.172 C35.4280019,81.9293321 35.9319969,81.7280008 36.5613333,81.568 C37.1906698,81.4079992 37.9719953,81.3173334 38.9053333,81.296 L38.9053333,80.816 C38.9053333,80.2666639 38.7893345,79.8600013 38.5573333,79.596 C38.3253322,79.3319987 37.9880022,79.2 37.5453333,79.2 C37.2253317,79.2 36.9586677,79.237333 36.7453333,79.312 C36.5319989,79.386667 36.3466675,79.4706662 36.1893333,79.564 C36.0319992,79.6573338 35.8866673,79.741333 35.7533333,79.816 C35.6199993,79.890667 35.4733341,79.928 35.3133333,79.928 C35.1799993,79.928 35.0653338,79.8933337 34.9693333,79.824 C34.8733329,79.7546663 34.7960003,79.6693338 34.7373333,79.568 L34.3773333,78.936 C35.3213381,78.0719957 36.4599933,77.64 37.7933333,77.64 C38.2733357,77.64 38.7013315,77.7186659 39.0773333,77.876 C39.4533352,78.0333341 39.7719987,78.2519986 40.0333333,78.532 C40.294668,78.8120014 40.4933327,79.1466647 40.6293333,79.536 C40.765334,79.9253353 40.8333333,80.3519977 40.8333333,80.816 L40.8333333,86 Z M36.9933333,84.768 C37.196001,84.768 37.3826658,84.7493335 37.5533333,84.712 C37.7240009,84.6746665 37.8853326,84.618667 38.0373333,84.544 C38.1893341,84.469333 38.3359993,84.3773339 38.4773333,84.268 C38.6186674,84.1586661 38.7613326,84.0293341 38.9053333,83.88 L38.9053333,82.496 C38.3293305,82.5226668 37.8480019,82.5719996 37.4613333,82.644 C37.0746647,82.7160004 36.7640012,82.8079994 36.5293333,82.92 C36.2946655,83.0320006 36.1280005,83.1626659 36.0293333,83.312 C35.9306662,83.4613341 35.8813333,83.6239991 35.8813333,83.8 C35.8813333,84.1466684 35.983999,84.3946659 36.1893333,84.544 C36.3946677,84.6933341 36.662665,84.768 36.9933333,84.768 Z M42.7773333,86 L42.7773333,77.792 L43.9373333,77.792 C44.140001,77.792 44.2813329,77.829333 44.3613333,77.904 C44.4413337,77.978667 44.4946665,78.1066658 44.5213333,78.288 L44.6413333,79.28 C44.9346681,78.7733308 45.2786647,78.3733348 45.6733333,78.08 C46.068002,77.7866652 46.5106642,77.64 47.0013333,77.64 C47.4066687,77.64 47.7426653,77.7333324 48.0093333,77.92 L47.7533333,79.4 C47.7373333,79.4960005 47.7026669,79.5639998 47.6493333,79.604 C47.5959997,79.6440002 47.5240005,79.664 47.4333333,79.664 C47.3533329,79.664 47.2440007,79.6453335 47.1053333,79.608 C46.966666,79.5706665 46.7826678,79.552 46.5533333,79.552 C46.1426646,79.552 45.7906681,79.6653322 45.4973333,79.892 C45.2039985,80.1186678 44.956001,80.4506645 44.7533333,80.888 L44.7533333,86 L42.7773333,86 Z M51.4173333,77.792 L51.4173333,86 L49.4413333,86 L49.4413333,77.792 L51.4173333,77.792 Z M51.7133333,75.4 C51.7133333,75.5706675 51.678667,75.7306659 51.6093333,75.88 C51.5399997,76.0293341 51.4480006,76.1599994 51.3333333,76.272 C51.2186661,76.3840006 51.0840008,76.473333 50.9293333,76.54 C50.7746659,76.606667 50.6093342,76.64 50.4333333,76.64 C50.2626658,76.64 50.1013341,76.606667 49.9493333,76.54 C49.7973326,76.473333 49.6653339,76.3840006 49.5533333,76.272 C49.4413328,76.1599994 49.3520003,76.0293341 49.2853333,75.88 C49.2186663,75.7306659 49.1853333,75.5706675 49.1853333,75.4 C49.1853333,75.2239991 49.2186663,75.0586674 49.2853333,74.904 C49.3520003,74.7493326 49.4413328,74.6160006 49.5533333,74.504 C49.6653339,74.3919994 49.7973326,74.302667 49.9493333,74.236 C50.1013341,74.169333 50.2626658,74.136 50.4333333,74.136 C50.6093342,74.136 50.7746659,74.169333 50.9293333,74.236 C51.0840008,74.302667 51.2186661,74.3919994 51.3333333,74.504 C51.4480006,74.6160006 51.5399997,74.7493326 51.6093333,74.904 C51.678667,75.0586674 51.7133333,75.2239991 51.7133333,75.4 Z M53.6493333,86 L53.6493333,77.792 L54.8573333,77.792 C55.1133346,77.792 55.2813329,77.9119988 55.3613333,78.152 L55.4973333,78.8 C55.6626675,78.6293325 55.8373324,78.4746674 56.0213333,78.336 C56.2053343,78.1973326 56.399999,78.0773338 56.6053333,77.976 C56.8106677,77.8746662 57.0306655,77.7973336 57.2653333,77.744 C57.5000012,77.6906664 57.7559986,77.664 58.0333333,77.664 C58.4813356,77.664 58.8786649,77.7399992 59.2253333,77.892 C59.5720017,78.0440008 59.8613322,78.257332 60.0933333,78.532 C60.3253345,78.806668 60.5013327,79.1346648 60.6213333,79.516 C60.7413339,79.8973352 60.8013333,80.317331 60.8013333,80.776 L60.8013333,86 L58.8253333,86 L58.8253333,80.776 C58.8253333,80.2746642 58.7093345,79.886668 58.4773333,79.612 C58.2453322,79.337332 57.8973357,79.2 57.4333333,79.2 C57.0919983,79.2 56.7720015,79.2773326 56.4733333,79.432 C56.1746652,79.5866674 55.8920013,79.797332 55.6253333,80.064 L55.6253333,86 L53.6493333,86 Z M65.5853333,77.648 C65.9373351,77.648 66.2679985,77.6839996 66.5773333,77.756 C66.8866682,77.8280004 67.1693321,77.9333326 67.4253333,78.072 L69.7853333,78.072 L69.7853333,78.808 C69.7853333,78.9306673 69.7533337,79.0266663 69.6893333,79.096 C69.625333,79.1653337 69.5160008,79.2133332 69.3613333,79.24 L68.6253333,79.376 C68.6786669,79.5146674 68.7199999,79.6613326 68.7493333,79.816 C68.7786668,79.9706674 68.7933333,80.1333325 68.7933333,80.304 C68.7933333,80.7093354 68.7120008,81.0759984 68.5493333,81.404 C68.3866659,81.7320016 68.1626681,82.0106655 67.8773333,82.24 C67.5919986,82.4693345 67.2533353,82.646666 66.8613333,82.772 C66.4693314,82.897334 66.0440023,82.96 65.5853333,82.96 C65.2759985,82.96 64.9746681,82.930667 64.6813333,82.872 C64.4253321,83.0266674 64.2973333,83.199999 64.2973333,83.392 C64.2973333,83.5573342 64.3733326,83.6786663 64.5253333,83.756 C64.6773341,83.8333337 64.8773321,83.8879998 65.1253333,83.92 C65.3733346,83.9520002 65.6546651,83.972 65.9693333,83.98 C66.2840016,83.988 66.606665,84.0053332 66.9373333,84.032 C67.2680017,84.0586668 67.5906651,84.105333 67.9053333,84.172 C68.2200016,84.238667 68.5013321,84.3439993 68.7493333,84.488 C68.9973346,84.6320007 69.1973326,84.8279988 69.3493333,85.076 C69.5013341,85.3240012 69.5773333,85.6426647 69.5773333,86.032 C69.5773333,86.3946685 69.4880009,86.746665 69.3093333,87.088 C69.1306658,87.429335 68.8720017,87.733332 68.5333333,88 C68.194665,88.266668 67.7800025,88.4813325 67.2893333,88.644 C66.7986642,88.8066675 66.2386698,88.888 65.6093333,88.888 C64.9853302,88.888 64.4440023,88.8280006 63.9853333,88.708 C63.5266644,88.5879994 63.1466682,88.428001 62.8453333,88.228 C62.5439985,88.027999 62.3186674,87.7973346 62.1693333,87.536 C62.0199993,87.2746654 61.9453333,87.0026681 61.9453333,86.72 C61.9453333,86.3359981 62.0626655,86.0133346 62.2973333,85.752 C62.5320012,85.4906654 62.8573313,85.2826674 63.2733333,85.128 C63.0706657,85.0159994 62.9080006,84.8666676 62.7853333,84.68 C62.6626661,84.4933324 62.6013333,84.2506682 62.6013333,83.952 C62.6013333,83.8293327 62.6226665,83.7026673 62.6653333,83.572 C62.7080002,83.4413327 62.7733329,83.3120006 62.8613333,83.184 C62.9493338,83.0559994 63.0599993,82.9346672 63.1933333,82.82 C63.3266673,82.7053328 63.4839991,82.6026671 63.6653333,82.512 C63.2493313,82.2879989 62.9226679,81.9893352 62.6853333,81.616 C62.4479988,81.2426648 62.3293333,80.8053358 62.3293333,80.304 C62.3293333,79.8986646 62.4106659,79.5320016 62.5733333,79.204 C62.7360008,78.8759984 62.9626652,78.5960012 63.2533333,78.364 C63.5440015,78.1319988 63.887998,77.9546673 64.2853333,77.832 C64.6826687,77.7093327 65.1159977,77.648 65.5853333,77.648 Z M67.7533333,86.368 C67.7533333,86.2079992 67.7053338,86.0773338 67.6093333,85.976 C67.5133329,85.8746662 67.3826675,85.7960003 67.2173333,85.74 C67.0519992,85.6839997 66.8586678,85.6426668 66.6373333,85.616 C66.4159989,85.5893332 66.1813346,85.5693334 65.9333333,85.556 C65.6853321,85.5426666 65.4293347,85.5293334 65.1653333,85.516 C64.901332,85.5026666 64.6466679,85.4800002 64.4013333,85.448 C64.1773322,85.5706673 63.997334,85.7159992 63.8613333,85.884 C63.7253327,86.0520008 63.6573333,86.2453322 63.6573333,86.464 C63.6573333,86.6080007 63.693333,86.742666 63.7653333,86.868 C63.8373337,86.993334 63.9519992,87.1013329 64.1093333,87.192 C64.2666675,87.2826671 64.4706654,87.3533331 64.7213333,87.404 C64.9720013,87.4546669 65.2786649,87.48 65.6413333,87.48 C66.0093352,87.48 66.3266653,87.4520003 66.5933333,87.396 C66.8600013,87.3399997 67.0799991,87.2626672 67.2533333,87.164 C67.4266675,87.0653328 67.5533329,86.9480007 67.6333333,86.812 C67.7133337,86.6759993 67.7533333,86.5280008 67.7533333,86.368 Z M65.5853333,81.696 C65.8306679,81.696 66.0439991,81.662667 66.2253333,81.596 C66.4066676,81.529333 66.5573327,81.4373339 66.6773333,81.32 C66.7973339,81.2026661 66.8879997,81.0613342 66.9493333,80.896 C67.010667,80.7306658 67.0413333,80.5493343 67.0413333,80.352 C67.0413333,79.9466646 66.9200012,79.6253345 66.6773333,79.388 C66.4346655,79.1506655 66.0706691,79.032 65.5853333,79.032 C65.0999976,79.032 64.7360012,79.1506655 64.4933333,79.388 C64.2506655,79.6253345 64.1293333,79.9466646 64.1293333,80.352 C64.1293333,80.544001 64.1599997,80.7226658 64.2213333,80.888 C64.282667,81.0533342 64.3733327,81.1959994 64.4933333,81.316 C64.6133339,81.4360006 64.7653324,81.529333 64.9493333,81.596 C65.1333343,81.662667 65.3453321,81.696 65.5853333,81.696 Z M3.74533333,100.48 L3.74533333,105 L1.59333333,105 L1.59333333,93.432 L5.12133333,93.432 C5.91067061,93.432 6.58666385,93.5133325 7.14933333,93.676 C7.71200281,93.8386675 8.17333153,94.0666652 8.53333333,94.36 C8.89333513,94.6533348 9.15733249,95.003998 9.32533333,95.412 C9.49333417,95.820002 9.57733333,96.2693309 9.57733333,96.76 C9.57733333,97.1493353 9.52000057,97.5173316 9.40533333,97.864 C9.29066609,98.2106684 9.12533441,98.5253319 8.90933333,98.808 C8.69333225,99.0906681 8.42666825,99.3386656 8.10933333,99.552 C7.79199841,99.7653344 7.43066869,99.9359994 7.02533333,100.064 C7.29733469,100.218667 7.53199901,100.439999 7.72933333,100.728 L10.6253333,105 L8.68933333,105 C8.50266573,105 8.34400065,104.962667 8.21333333,104.888 C8.08266601,104.813333 7.97200045,104.706667 7.88133333,104.568 L5.44933333,100.864 C5.35866621,100.725333 5.25866721,100.626667 5.14933333,100.568 C5.03999945,100.509333 4.87866773,100.48 4.66533333,100.48 L3.74533333,100.48 Z M3.74533333,98.936 L5.08933333,98.936 C5.49466869,98.936 5.84799849,98.8853338 6.14933333,98.784 C6.45066817,98.6826662 6.69866569,98.5426676 6.89333333,98.364 C7.08800097,98.1853324 7.23333285,97.9733346 7.32933333,97.728 C7.42533381,97.4826654 7.47333333,97.2133348 7.47333333,96.92 C7.47333333,96.3333304 7.28000193,95.8826682 6.89333333,95.568 C6.50666473,95.2533318 5.91600397,95.096 5.12133333,95.096 L3.74533333,95.096 L3.74533333,98.936 Z M15.2813333,96.664 C15.7986693,96.664 16.2746645,96.7466658 16.7093333,96.912 C17.1440022,97.0773342 17.5186651,97.3186651 17.8333333,97.636 C18.1480016,97.9533349 18.3933325,98.3426644 18.5693333,98.804 C18.7453342,99.2653356 18.8333333,99.791997 18.8333333,100.384 C18.8333333,100.533334 18.8266667,100.657333 18.8133333,100.756 C18.7999999,100.854667 18.7760002,100.932 18.7413333,100.988 C18.7066665,101.044 18.6600003,101.084 18.6013333,101.108 C18.5426664,101.132 18.4680005,101.144 18.3773333,101.144 L13.3053333,101.144 C13.3640003,101.986671 13.5906647,102.605331 13.9853333,103 C14.380002,103.394669 14.9026634,103.592 15.5533333,103.592 C15.8733349,103.592 16.1493322,103.554667 16.3813333,103.48 C16.6133345,103.405333 16.8159991,103.322667 16.9893333,103.232 C17.1626675,103.141333 17.314666,103.058667 17.4453333,102.984 C17.5760007,102.909333 17.7026661,102.872 17.8253333,102.872 C17.9053337,102.872 17.9746664,102.888 18.0333333,102.92 C18.0920003,102.952 18.1426665,102.997333 18.1853333,103.056 L18.7613333,103.776 C18.5426656,104.032001 18.2973347,104.246666 18.0253333,104.42 C17.753332,104.593334 17.4693348,104.731999 17.1733333,104.836 C16.8773319,104.940001 16.5760015,105.013333 16.2693333,105.056 C15.9626651,105.098667 15.6653348,105.12 15.3773333,105.12 C14.8066638,105.12 14.2760025,105.025334 13.7853333,104.836 C13.2946642,104.646666 12.8680018,104.366669 12.5053333,103.996 C12.1426649,103.625331 11.8573344,103.166669 11.6493333,102.62 C11.4413323,102.073331 11.3373333,101.440004 11.3373333,100.72 C11.3373333,100.159997 11.4279991,99.6333358 11.6093333,99.14 C11.7906676,98.6466642 12.050665,98.2173352 12.3893333,97.852 C12.7280017,97.4866648 13.1413309,97.1973344 13.6293333,96.984 C14.1173358,96.7706656 14.6679969,96.664 15.2813333,96.664 Z M15.3213333,98.08 C14.7453305,98.08 14.2946683,98.242665 13.9693333,98.568 C13.6439984,98.893335 13.4360005,99.3546637 13.3453333,99.952 L17.0573333,99.952 C17.0573333,99.6959987 17.022667,99.4546678 16.9533333,99.228 C16.8839997,99.0013322 16.7773341,98.8026675 16.6333333,98.632 C16.4893326,98.4613325 16.3080011,98.3266672 16.0893333,98.228 C15.8706656,98.1293328 15.6146681,98.08 15.3213333,98.08 Z M23.1373333,105.128 C22.4279965,105.128 21.8813353,104.926669 21.4973333,104.524 C21.1133314,104.121331 20.9213333,103.565337 20.9213333,102.856 L20.9213333,98.272 L20.0893333,98.272 C19.9826661,98.272 19.8906671,98.2373337 19.8133333,98.168 C19.7359996,98.0986663 19.6973333,97.9946674 19.6973333,97.856 L19.6973333,97.072 L21.0173333,96.856 L21.4333333,94.616 C21.4546668,94.5093328 21.5039996,94.426667 21.5813333,94.368 C21.6586671,94.309333 21.7559994,94.28 21.8733333,94.28 L22.8973333,94.28 L22.8973333,96.864 L25.0573333,96.864 L25.0573333,98.272 L22.8973333,98.272 L22.8973333,102.72 C22.8973333,102.976001 22.9613327,103.175999 23.0893333,103.32 C23.217334,103.464001 23.3879989,103.536 23.6013333,103.536 C23.7240006,103.536 23.8266663,103.521333 23.9093333,103.492 C23.9920004,103.462667 24.0639997,103.432 24.1253333,103.4 C24.186667,103.368 24.2413331,103.337333 24.2893333,103.308 C24.3373336,103.278667 24.3853331,103.264 24.4333333,103.264 C24.4920003,103.264 24.5399998,103.278667 24.5773333,103.308 C24.6146669,103.337333 24.6546665,103.381333 24.6973333,103.44 L25.2893333,104.4 C25.0013319,104.640001 24.6706685,104.821333 24.2973333,104.944 C23.9239981,105.066667 23.5373353,105.128 23.1373333,105.128 Z M28.7373333,96.792 L28.7373333,105 L26.7613333,105 L26.7613333,96.792 L28.7373333,96.792 Z M29.0333333,94.4 C29.0333333,94.5706675 28.998667,94.7306659 28.9293333,94.88 C28.8599997,95.0293341 28.7680006,95.1599994 28.6533333,95.272 C28.5386661,95.3840006 28.4040008,95.473333 28.2493333,95.54 C28.0946659,95.606667 27.9293342,95.64 27.7533333,95.64 C27.5826658,95.64 27.4213341,95.606667 27.2693333,95.54 C27.1173326,95.473333 26.9853339,95.3840006 26.8733333,95.272 C26.7613328,95.1599994 26.6720003,95.0293341 26.6053333,94.88 C26.5386663,94.7306659 26.5053333,94.5706675 26.5053333,94.4 C26.5053333,94.2239991 26.5386663,94.0586674 26.6053333,93.904 C26.6720003,93.7493326 26.7613328,93.6160006 26.8733333,93.504 C26.9853339,93.3919994 27.1173326,93.302667 27.2693333,93.236 C27.4213341,93.169333 27.5826658,93.136 27.7533333,93.136 C27.9293342,93.136 28.0946659,93.169333 28.2493333,93.236 C28.4040008,93.302667 28.5386661,93.3919994 28.6533333,93.504 C28.7680006,93.6160006 28.8599997,93.7493326 28.9293333,93.904 C28.998667,94.0586674 29.0333333,94.2239991 29.0333333,94.4 Z M30.9693333,105 L30.9693333,96.792 L32.1293333,96.792 C32.332001,96.792 32.4733329,96.829333 32.5533333,96.904 C32.6333337,96.978667 32.6866665,97.1066658 32.7133333,97.288 L32.8333333,98.28 C33.1266681,97.7733308 33.4706647,97.3733348 33.8653333,97.08 C34.260002,96.7866652 34.7026642,96.64 35.1933333,96.64 C35.5986687,96.64 35.9346653,96.7333324 36.2013333,96.92 L35.9453333,98.4 C35.9293333,98.4960005 35.8946669,98.5639998 35.8413333,98.604 C35.7879997,98.6440002 35.7160005,98.664 35.6253333,98.664 C35.5453329,98.664 35.4360007,98.6453335 35.2973333,98.608 C35.158666,98.5706665 34.9746678,98.552 34.7453333,98.552 C34.3346646,98.552 33.9826681,98.6653322 33.6893333,98.892 C33.3959985,99.1186678 33.148001,99.4506645 32.9453333,99.888 L32.9453333,105 L30.9693333,105 Z M40.8973333,96.664 C41.4146693,96.664 41.8906645,96.7466658 42.3253333,96.912 C42.7600022,97.0773342 43.1346651,97.3186651 43.4493333,97.636 C43.7640016,97.9533349 44.0093325,98.3426644 44.1853333,98.804 C44.3613342,99.2653356 44.4493333,99.791997 44.4493333,100.384 C44.4493333,100.533334 44.4426667,100.657333 44.4293333,100.756 C44.4159999,100.854667 44.3920002,100.932 44.3573333,100.988 C44.3226665,101.044 44.2760003,101.084 44.2173333,101.108 C44.1586664,101.132 44.0840005,101.144 43.9933333,101.144 L38.9213333,101.144 C38.9800003,101.986671 39.2066647,102.605331 39.6013333,103 C39.996002,103.394669 40.5186634,103.592 41.1693333,103.592 C41.4893349,103.592 41.7653322,103.554667 41.9973333,103.48 C42.2293345,103.405333 42.4319991,103.322667 42.6053333,103.232 C42.7786675,103.141333 42.930666,103.058667 43.0613333,102.984 C43.1920007,102.909333 43.3186661,102.872 43.4413333,102.872 C43.5213337,102.872 43.5906664,102.888 43.6493333,102.92 C43.7080003,102.952 43.7586665,102.997333 43.8013333,103.056 L44.3773333,103.776 C44.1586656,104.032001 43.9133347,104.246666 43.6413333,104.42 C43.369332,104.593334 43.0853348,104.731999 42.7893333,104.836 C42.4933319,104.940001 42.1920015,105.013333 41.8853333,105.056 C41.5786651,105.098667 41.2813348,105.12 40.9933333,105.12 C40.4226638,105.12 39.8920025,105.025334 39.4013333,104.836 C38.9106642,104.646666 38.4840018,104.366669 38.1213333,103.996 C37.7586649,103.625331 37.4733344,103.166669 37.2653333,102.62 C37.0573323,102.073331 36.9533333,101.440004 36.9533333,100.72 C36.9533333,100.159997 37.0439991,99.6333358 37.2253333,99.14 C37.4066676,98.6466642 37.666665,98.2173352 38.0053333,97.852 C38.3440017,97.4866648 38.7573309,97.1973344 39.2453333,96.984 C39.7333358,96.7706656 40.2839969,96.664 40.8973333,96.664 Z M40.9373333,98.08 C40.3613305,98.08 39.9106683,98.242665 39.5853333,98.568 C39.2599984,98.893335 39.0520005,99.3546637 38.9613333,99.952 L42.6733333,99.952 C42.6733333,99.6959987 42.638667,99.4546678 42.5693333,99.228 C42.4999997,99.0013322 42.3933341,98.8026675 42.2493333,98.632 C42.1053326,98.4613325 41.9240011,98.3266672 41.7053333,98.228 C41.4866656,98.1293328 41.2306681,98.08 40.9373333,98.08 Z M46.0573333,105 L46.0573333,96.792 L47.2653333,96.792 C47.5213346,96.792 47.6893329,96.9119988 47.7693333,97.152 L47.8973333,97.76 C48.0413341,97.5999992 48.1919992,97.453334 48.3493333,97.32 C48.5066675,97.186666 48.6746658,97.0720005 48.8533333,96.976 C49.0320009,96.8799995 49.223999,96.8040003 49.4293333,96.748 C49.6346677,96.6919997 49.8599988,96.664 50.1053333,96.664 C50.6226693,96.664 51.0479983,96.8039986 51.3813333,97.084 C51.7146683,97.3640014 51.9639992,97.7359977 52.1293333,98.2 C52.257334,97.9279986 52.4173324,97.6946676 52.6093333,97.5 C52.8013343,97.3053324 53.0119989,97.1466673 53.2413333,97.024 C53.4706678,96.9013327 53.7146654,96.810667 53.9733333,96.752 C54.2320013,96.693333 54.4919987,96.664 54.7533333,96.664 C55.2066689,96.664 55.6093316,96.7333326 55.9613333,96.872 C56.3133351,97.0106674 56.6093321,97.213332 56.8493333,97.48 C57.0893345,97.746668 57.2719994,98.0719981 57.3973333,98.456 C57.5226673,98.8400019 57.5853333,99.2799975 57.5853333,99.776 L57.5853333,105 L55.6093333,105 L55.6093333,99.776 C55.6093333,99.2533307 55.4946678,98.8600013 55.2653333,98.596 C55.0359989,98.3319987 54.7000022,98.2 54.2573333,98.2 C54.0546657,98.2 53.8666675,98.2346663 53.6933333,98.304 C53.5199991,98.3733337 53.3680007,98.4733327 53.2373333,98.604 C53.106666,98.7346673 53.0040004,98.8986657 52.9293333,99.096 C52.8546663,99.2933343 52.8173333,99.5199987 52.8173333,99.776 L52.8173333,105 L50.8333333,105 L50.8333333,99.776 C50.8333333,99.2266639 50.7226678,98.8266679 50.5013333,98.576 C50.2799989,98.3253321 49.9533355,98.2 49.5213333,98.2 C49.2386653,98.2 48.9733346,98.270666 48.7253333,98.412 C48.4773321,98.553334 48.2466677,98.7466654 48.0333333,98.992 L48.0333333,105 L46.0573333,105 Z M62.9213333,96.664 C63.4386693,96.664 63.9146645,96.7466658 64.3493333,96.912 C64.7840022,97.0773342 65.1586651,97.3186651 65.4733333,97.636 C65.7880016,97.9533349 66.0333325,98.3426644 66.2093333,98.804 C66.3853342,99.2653356 66.4733333,99.791997 66.4733333,100.384 C66.4733333,100.533334 66.4666667,100.657333 66.4533333,100.756 C66.4399999,100.854667 66.4160002,100.932 66.3813333,100.988 C66.3466665,101.044 66.3000003,101.084 66.2413333,101.108 C66.1826664,101.132 66.1080005,101.144 66.0173333,101.144 L60.9453333,101.144 C61.0040003,101.986671 61.2306647,102.605331 61.6253333,103 C62.020002,103.394669 62.5426634,103.592 63.1933333,103.592 C63.5133349,103.592 63.7893322,103.554667 64.0213333,103.48 C64.2533345,103.405333 64.4559991,103.322667 64.6293333,103.232 C64.8026675,103.141333 64.954666,103.058667 65.0853333,102.984 C65.2160007,102.909333 65.3426661,102.872 65.4653333,102.872 C65.5453337,102.872 65.6146664,102.888 65.6733333,102.92 C65.7320003,102.952 65.7826665,102.997333 65.8253333,103.056 L66.4013333,103.776 C66.1826656,104.032001 65.9373347,104.246666 65.6653333,104.42 C65.393332,104.593334 65.1093348,104.731999 64.8133333,104.836 C64.5173319,104.940001 64.2160015,105.013333 63.9093333,105.056 C63.6026651,105.098667 63.3053348,105.12 63.0173333,105.12 C62.4466638,105.12 61.9160025,105.025334 61.4253333,104.836 C60.9346642,104.646666 60.5080018,104.366669 60.1453333,103.996 C59.7826649,103.625331 59.4973344,103.166669 59.2893333,102.62 C59.0813323,102.073331 58.9773333,101.440004 58.9773333,100.72 C58.9773333,100.159997 59.0679991,99.6333358 59.2493333,99.14 C59.4306676,98.6466642 59.690665,98.2173352 60.0293333,97.852 C60.3680017,97.4866648 60.7813309,97.1973344 61.2693333,96.984 C61.7573358,96.7706656 62.3079969,96.664 62.9213333,96.664 Z M62.9613333,98.08 C62.3853305,98.08 61.9346683,98.242665 61.6093333,98.568 C61.2839984,98.893335 61.0760005,99.3546637 60.9853333,99.952 L64.6973333,99.952 C64.6973333,99.6959987 64.662667,99.4546678 64.5933333,99.228 C64.5239997,99.0013322 64.4173341,98.8026675 64.2733333,98.632 C64.1293326,98.4613325 63.9480011,98.3266672 63.7293333,98.228 C63.5106656,98.1293328 63.2546681,98.08 62.9613333,98.08 Z M68.0813333,105 L68.0813333,96.792 L69.2893333,96.792 C69.5453346,96.792 69.7133329,96.9119988 69.7933333,97.152 L69.9293333,97.8 C70.0946675,97.6293325 70.2693324,97.4746674 70.4533333,97.336 C70.6373343,97.1973326 70.831999,97.0773338 71.0373333,96.976 C71.2426677,96.8746662 71.4626655,96.7973336 71.6973333,96.744 C71.9320012,96.6906664 72.1879986,96.664 72.4653333,96.664 C72.9133356,96.664 73.3106649,96.7399992 73.6573333,96.892 C74.0040017,97.0440008 74.2933322,97.257332 74.5253333,97.532 C74.7573345,97.806668 74.9333327,98.1346648 75.0533333,98.516 C75.1733339,98.8973352 75.2333333,99.317331 75.2333333,99.776 L75.2333333,105 L73.2573333,105 L73.2573333,99.776 C73.2573333,99.2746642 73.1413345,98.886668 72.9093333,98.612 C72.6773322,98.337332 72.3293357,98.2 71.8653333,98.2 C71.5239983,98.2 71.2040015,98.2773326 70.9053333,98.432 C70.6066652,98.5866674 70.3240013,98.797332 70.0573333,99.064 L70.0573333,105 L68.0813333,105 Z M79.8733333,105.128 C79.1639965,105.128 78.6173353,104.926669 78.2333333,104.524 C77.8493314,104.121331 77.6573333,103.565337 77.6573333,102.856 L77.6573333,98.272 L76.8253333,98.272 C76.7186661,98.272 76.6266671,98.2373337 76.5493333,98.168 C76.4719996,98.0986663 76.4333333,97.9946674 76.4333333,97.856 L76.4333333,97.072 L77.7533333,96.856 L78.1693333,94.616 C78.1906668,94.5093328 78.2399996,94.426667 78.3173333,94.368 C78.3946671,94.309333 78.4919994,94.28 78.6093333,94.28 L79.6333333,94.28 L79.6333333,96.864 L81.7933333,96.864 L81.7933333,98.272 L79.6333333,98.272 L79.6333333,102.72 C79.6333333,102.976001 79.6973327,103.175999 79.8253333,103.32 C79.953334,103.464001 80.1239989,103.536 80.3373333,103.536 C80.4600006,103.536 80.5626663,103.521333 80.6453333,103.492 C80.7280004,103.462667 80.7999997,103.432 80.8613333,103.4 C80.922667,103.368 80.9773331,103.337333 81.0253333,103.308 C81.0733336,103.278667 81.1213331,103.264 81.1693333,103.264 C81.2280003,103.264 81.2759998,103.278667 81.3133333,103.308 C81.3506669,103.337333 81.3906665,103.381333 81.4333333,103.44 L82.0253333,104.4 C81.7373319,104.640001 81.4066685,104.821333 81.0333333,104.944 C80.6599981,105.066667 80.2733353,105.128 79.8733333,105.128 Z" id="Nearing-Retirement" fill="#333333"></path>
            <g id="Page-1" opacity="0.5" transform="translate(20.000000, 0.000000)" fill="#000000">
                <path d="M8.42416822,8.5591215 C8.26173832,6.8791215 8.22192523,5.68902804 8.73930841,4.01594393 C10.720243,6.66005607 13.6372523,4.80005607 15.8972523,4.08061682 C16.1789346,5.4815514 16.2742617,6.6733271 16.1903364,8.64042991 C17.9013645,7.16697196 17.8643551,3.22416822 16.9303364,1.82921495 C15.3587477,-0.49882243 9.56902804,-0.577327103 7.84753271,1.43818692 C7.18902804,2.20173832 6.35725234,7.48734579 8.42416822,8.5591215 Z M31.5316449,30.6168785 L29.5680935,38.4079065 L31.6639813,48.3028598 L32.9705234,48.3028598 L34.6021121,59.8585607 L37.6239813,59.8585607 L37.2832336,48.3028598 L38.4555701,48.3028598 L38.5404299,59.8585607 L41.1413645,59.8585607 L42.5221121,48.3028598 L44.2737009,48.3028598 L45.6729533,38.1864112 L43.5118318,30.3510841 L45.915757,34.3593084 L48.406972,33.2858505 L44.4608037,14.9677196 L43.7022991,14.9677196 L42.1344486,14.9677196 L41.4166916,14.9677196 C40.7723925,16.5329533 39.1538879,17.6426729 37.2578131,17.6426729 C35.3639813,17.6426729 33.7449159,16.5329533 33.0959439,14.9677196 L32.7630467,14.9677196 L30.6080935,14.9677196 L30.0880935,14.9677196 L27.0809907,35.0151963 L29.238,35.838 L31.5316449,30.6168785 Z M31.4882804,11.3471589 C31.5245421,11.6331402 32.0082804,12.555757 32.7374393,12.7376262 C33.9133271,13.0394953 35.5475327,12.5097757 35.5475327,12.5097757 C35.0019252,12.0454766 34.4413645,11.4054766 34.0821121,10.5419252 C33.4632336,9.05706542 33.471271,7.12192523 33.5294019,6.09426168 C35.2516449,9.12248598 38.1094019,6.14641121 40.7288411,6.51706542 C40.7617383,7.59856075 40.6981869,9.23986916 40.1630467,10.5428598 C39.7753832,11.4645421 39.1566916,12.1365047 38.5731402,12.6079065 C39.4559439,12.8841682 40.9920187,13.1260374 42.013514,12.5662243 C42.9546355,12.0578131 42.7206168,7.61183178 42.6032336,6.67257944 C42.3983738,4.9368785 41.9366916,3.43856075 41.1781869,2.79856075 C39.0350093,0.965850467 35.2508972,0.94117757 33.2391215,2.61407477 C31.9226729,3.71594393 31.0927664,8.6191215 31.4882804,11.3471589 Z M24.8413645,29.9591215 C23.3908972,31.5731402 21.9359439,33.1948224 20.4852897,34.8174393 C20.8034206,43.0058505 20.0041682,51.2011776 20.3346355,59.3959439 L15.1875327,59.3959439 C14.7284673,52.4617383 13.8350093,45.5316449 13.3723925,38.5994953 L11.9925794,38.5994953 C11.6217383,45.5316449 10.222486,52.4617383 9.84902804,59.3959439 L4.48828037,59.3959439 C4.98379439,51.2011776 4.13781308,43.006785 4.63145794,34.8174393 C3.08902804,33.6548224 1.54229907,32.4894019 5.60747664e-05,31.326785 C0.675383178,25.5034206 1.62005607,19.7836075 3.53220561,14.373514 L7.31351402,14.373514 L10.8634206,20.1940748 L11.6720187,15.0613645 L11.3322056,15.0613645 L11.3322056,13.4994953 L13.4905234,13.4994953 L13.4905234,15.0613645 L13.1348224,15.0613645 L14.3920187,20.0828598 L17.4520187,14.3744486 L20.6355701,14.3744486 C22.8841682,19.4241682 24.2295888,24.6286542 24.8413645,29.9591215 Z" id="Fill-1"></path>
            </g>
        </g>
    </g>
</svg>