<?xml version="1.0" encoding="UTF-8" standalone="no"?>
<svg width="40px" height="67px" viewBox="0 0 44 86" version="1.1" xmlns="http://www.w3.org/2000/svg" xmlns:xlink="http://www.w3.org/1999/xlink">
    <!-- Generator: Sketch 48.2 (47327) - http://www.bohemiancoding.com/sketch -->
    <title>Other_Red</title>
    <desc>Created with Sketch.</desc>
    <defs></defs>
    <g id="Page2-Copy-2" stroke="none" stroke-width="1" fill="none" fill-rule="evenodd" transform="translate(-862.000000, -454.000000)">
        <g id="Other_Red" transform="translate(862.000000, 455.000000)" fill="#D0021B">
            <path d="M12.68,78.4133933 C12.68,79.2423412 12.5386681,80.0100189 12.256,80.7164494 C11.9733319,81.4228799 11.5760026,82.0341547 11.064,82.5502921 C10.5519974,83.0664295 9.9360036,83.4691671 9.216,83.7585169 C8.4959964,84.0478666 7.69867104,84.1925393 6.824,84.1925393 C5.94932896,84.1925393 5.15067028,84.0478666 4.428,83.7585169 C3.70532972,83.4691671 3.08666924,83.0664295 2.572,82.5502921 C2.05733076,82.0341547 1.65866808,81.4228799 1.376,80.7164494 C1.09333192,80.0100189 0.952,79.2423412 0.952,78.4133933 C0.952,77.5844453 1.09333192,76.8167676 1.376,76.1103371 C1.65866808,75.4039066 2.05733076,74.7926318 2.572,74.2764944 C3.08666924,73.760357 3.70532972,73.3576194 4.428,73.0682697 C5.15067028,72.7789199 5.94932896,72.6342472 6.824,72.6342472 C7.69867104,72.6342472 8.4959964,72.7802233 9.216,73.0721798 C9.9360036,73.3641363 10.5519974,73.7668738 11.064,74.2804045 C11.5760026,74.7939352 11.9733319,75.4039066 12.256,76.1103371 C12.5386681,76.8167676 12.68,77.5844453 12.68,78.4133933 Z M10.472,78.4133933 C10.472,77.7929857 10.3880008,77.2364519 10.22,76.7437753 C10.0519992,76.2510987 9.81066824,75.8327208 9.496,75.4886292 C9.18133176,75.1445376 8.79866892,74.8812593 8.348,74.6987865 C7.89733108,74.5163137 7.38933616,74.4250787 6.824,74.4250787 C6.25866384,74.4250787 5.7493356,74.5163137 5.296,74.6987865 C4.8426644,74.8812593 4.45733492,75.1445376 4.14,75.4886292 C3.82266508,75.8327208 3.57866752,76.2510987 3.408,76.7437753 C3.23733248,77.2364519 3.152,77.7929857 3.152,78.4133933 C3.152,79.0338009 3.23733248,79.5903346 3.408,80.0830112 C3.57866752,80.5756879 3.82266508,80.9927623 4.14,81.3342472 C4.45733492,81.675732 4.8426644,81.937707 5.296,82.1201798 C5.7493356,82.3026526 6.25866384,82.3938876 6.824,82.3938876 C7.38933616,82.3938876 7.89733108,82.3026526 8.348,82.1201798 C8.79866892,81.937707 9.18133176,81.675732 9.496,81.3342472 C9.81066824,80.9927623 10.0519992,80.5756879 10.22,80.0830112 C10.3880008,79.5903346 10.472,79.0338009 10.472,78.4133933 Z M16.96,84.1925393 C16.2506631,84.1925393 15.7040019,83.9957323 15.32,83.6021124 C14.9359981,83.2084924 14.744,82.6649922 14.744,81.9715955 L14.744,77.4906067 L13.912,77.4906067 C13.8053328,77.4906067 13.7133337,77.4567194 13.636,77.3889438 C13.5586663,77.3211682 13.52,77.2195063 13.52,77.0839551 L13.52,76.317573 L14.84,76.106427 L15.256,73.916764 C15.2773334,73.8124939 15.3266663,73.7316857 15.404,73.6743371 C15.4813337,73.6169885 15.5786661,73.5883146 15.696,73.5883146 L16.72,73.5883146 L16.72,76.1142472 L18.88,76.1142472 L18.88,77.4906067 L16.72,77.4906067 L16.72,81.8386517 C16.72,82.0889001 16.7839994,82.2844038 16.912,82.4251685 C17.0400006,82.5659333 17.2106656,82.6363146 17.424,82.6363146 C17.5466673,82.6363146 17.6493329,82.6219777 17.732,82.5933034 C17.8146671,82.5646291 17.8866664,82.5346518 17.948,82.5033708 C18.0093336,82.4720897 18.0639998,82.4421125 18.112,82.4134382 C18.1600002,82.3847639 18.2079998,82.370427 18.256,82.370427 C18.314667,82.370427 18.3626665,82.3847639 18.4,82.4134382 C18.4373335,82.4421125 18.4773331,82.4851233 18.52,82.5424719 L19.112,83.4808989 C18.8239986,83.7155068 18.4933352,83.8927634 18.12,84.0126742 C17.7466648,84.1325849 17.360002,84.1925393 16.96,84.1925393 Z M20.456,84.0674157 L20.456,72.4465618 L22.432,72.4465618 L22.432,76.9119101 C22.7520016,76.6147401 23.1039981,76.3749223 23.488,76.1924494 C23.8720019,76.0099766 24.3226641,75.9187416 24.84,75.9187416 C25.2880022,75.9187416 25.6853316,75.993033 26.032,76.141618 C26.3786684,76.290203 26.6679988,76.4987402 26.9,76.767236 C27.1320012,77.0357317 27.3079994,77.3563577 27.428,77.7291236 C27.5480006,78.1018895 27.608,78.5124472 27.608,78.960809 L27.608,84.0674157 L25.632,84.0674157 L25.632,78.960809 C25.632,78.4707391 25.5160012,78.091462 25.284,77.8229663 C25.0519988,77.5544706 24.7040023,77.4202247 24.24,77.4202247 C23.898665,77.4202247 23.5786682,77.4958195 23.28,77.6470112 C22.9813318,77.798203 22.698668,78.0041335 22.432,78.264809 L22.432,84.0674157 L20.456,84.0674157 Z M32.944,75.9187416 C33.4613359,75.9187416 33.9373312,75.9995498 34.372,76.1611685 C34.8066688,76.3227873 35.1813318,76.5586951 35.496,76.8688989 C35.8106682,77.1791027 36.0559991,77.5596831 36.232,78.0106517 C36.4080009,78.4616202 36.496,78.9764465 36.496,79.5551461 C36.496,79.7011243 36.4893334,79.8223366 36.476,79.9187865 C36.4626666,80.0152364 36.4386668,80.0908312 36.404,80.145573 C36.3693332,80.2003149 36.322667,80.2394156 36.264,80.2628764 C36.205333,80.2863372 36.1306671,80.2980674 36.04,80.2980674 L30.968,80.2980674 C31.026667,81.1218019 31.2533314,81.7265599 31.648,82.1123596 C32.0426686,82.4981592 32.5653301,82.6910562 33.216,82.6910562 C33.5360016,82.6910562 33.8119988,82.6545622 34.044,82.581573 C34.2760012,82.5085839 34.4786658,82.4277757 34.652,82.3391461 C34.8253342,82.2505164 34.9773327,82.1697082 35.108,82.0967191 C35.2386673,82.02373 35.3653327,81.987236 35.488,81.987236 C35.5680004,81.987236 35.637333,82.0028762 35.696,82.0341573 C35.754667,82.0654384 35.8053331,82.1097525 35.848,82.1671011 L36.424,82.8709213 C36.2053322,83.1211698 35.9600014,83.3310104 35.688,83.5004494 C35.4159986,83.6698885 35.1320015,83.8054377 34.836,83.9071011 C34.5399985,84.0087646 34.2386682,84.0804492 33.932,84.1221573 C33.6253318,84.1638654 33.3280014,84.1847191 33.04,84.1847191 C32.4693305,84.1847191 31.9386691,84.0921807 31.448,83.9071011 C30.9573309,83.7220215 30.5306685,83.4483164 30.168,83.0859775 C29.8053315,82.7236386 29.520001,82.2752836 29.312,81.7408989 C29.103999,81.2065142 29,80.5874192 29,79.8835955 C29,79.336177 29.0906658,78.8213507 29.272,78.3391011 C29.4533342,77.8568515 29.7133316,77.4371703 30.052,77.0800449 C30.3906684,76.7229196 30.8039976,76.4400909 31.292,76.2315506 C31.7800024,76.0230102 32.3306636,75.9187416 32.944,75.9187416 Z M32.984,77.3029213 C32.4079971,77.3029213 31.957335,77.461931 31.632,77.7799551 C31.306665,78.0979791 31.0986671,78.5489409 31.008,79.1328539 L34.72,79.1328539 C34.72,78.8826055 34.6853337,78.6466977 34.616,78.4251236 C34.5466663,78.2035495 34.4400007,78.0093491 34.296,77.8425169 C34.1519993,77.6756846 33.9706678,77.5440454 33.752,77.4475955 C33.5333322,77.3511456 33.2773348,77.3029213 32.984,77.3029213 Z M38.104,84.0674157 L38.104,76.0438652 L39.264,76.0438652 C39.4666677,76.0438652 39.6079996,76.0803592 39.688,76.1533483 C39.7680004,76.2263374 39.8213332,76.3514598 39.848,76.5287191 L39.968,77.498427 C40.2613348,77.0031436 40.6053314,76.6121363 41,76.3253933 C41.3946686,76.0386503 41.8373309,75.8952809 42.328,75.8952809 C42.7333354,75.8952809 43.069332,75.9865159 43.336,76.1689888 L43.08,77.6157303 C43.0639999,77.7095735 43.0293336,77.7760447 42.976,77.8151461 C42.9226664,77.8542474 42.8506671,77.8737978 42.76,77.8737978 C42.6799996,77.8737978 42.5706674,77.8555507 42.432,77.8190562 C42.2933326,77.7825616 42.1093345,77.7643146 41.88,77.7643146 C41.4693313,77.7643146 41.1173348,77.8751 40.824,78.0966742 C40.5306652,78.3182483 40.2826677,78.6427844 40.08,79.0702921 L40.08,84.0674157 L38.104,84.0674157 Z" id="Other"></path>
            <g id="Page-1" transform="translate(10.000000, 0.000000)" stroke="#D0021B">
                <path d="M12.6277953,15.5482385 C10.8085827,15.5482385 9.30858268,14.2269592 9.06748031,12.5134371 L7.74984252,12.5134371 C7.68149606,12.5134371 7.61377953,12.5171317 7.54685039,12.5237512 C7.08464567,12.5437636 6.37708661,12.6567566 5.58354331,13.0477678 C4.22559055,13.7061754 2.76086614,15.1464514 1.73661417,17.6981846 C0.69976378,20.259616 0.0037007874,23.9639087 -7.87401575e-05,29.5566009 C0.000551181102,31.0022649 0.0476377953,32.573853 0.150787402,34.2855277 C0.214094488,35.3344847 1.10385827,36.1439087 2.16511811,36.1442166 C2.20511811,36.1442166 2.24527559,36.142985 2.28590551,36.1406759 C3.3996063,36.0769442 4.24937008,35.1423657 4.18401575,34.0539998 C4.08527559,32.4126763 4.0403937,30.9174432 4.04086614,29.5569088 C4.03204724,23.5804406 4.92338583,20.2222083 5.79913386,18.4698929 L5.79913386,29.861251 C6.21251969,29.9417624 6.99314961,30.0880067 7.94622047,30.2348668 C9.36795276,30.4537716 11.166063,30.6717526 12.6279528,30.6709829 C14.0898425,30.6714447 15.8882677,30.4537716 17.3095276,30.2348668 C18.2627559,30.0880067 19.0435433,29.9420702 19.4567717,29.8614049 L19.4567717,18.480207 C19.6065354,18.7803928 19.7572441,19.1247598 19.906378,19.526393 C20.617874,21.4548173 21.2164567,24.6184677 21.214252,29.556293 C21.214252,30.9174432 21.169685,32.4129842 21.0718898,34.0546156 C21.006378,35.1432894 21.8567717,36.0770981 22.9709449,36.1406759 C23.0107874,36.142985 23.0506299,36.1442166 23.09,36.1442166 C24.1520472,36.1442166 25.042126,35.3341768 25.1046457,34.2842962 C25.206378,32.5732372 25.2537795,31.0016491 25.2537795,29.556293 C25.2437008,22.1069132 24.0265354,17.9840538 22.3668504,15.504827 C21.5375591,14.2739114 20.5671654,13.4851155 19.670315,13.0479218 C18.877874,12.6570645 18.1723622,12.5439175 17.7098425,12.5237512 C17.6424409,12.5168239 17.574252,12.5131293 17.5049606,12.5131293 L16.1877953,12.5131293 C15.9470079,14.2269592 14.4470079,15.5482385 12.6277953,15.5482385" id="Fill-1"></path>
                <path d="M12.6274961,31.6585788 C10.1208819,31.6558078 6.93899213,31.0754486 5.79867717,30.8503863 L5.79867717,32.7595679 L4.30844094,55.2624185 C4.19662992,56.9443826 5.50151181,58.3957424 7.22135433,58.504579 C8.94198425,58.6134156 10.4267087,57.3393963 10.5383622,55.6566625 L11.8334803,36.1111807 L13.4218268,36.1111807 L14.7169449,55.6566625 C14.8282835,57.3393963 16.3136378,58.6134156 18.0342677,58.504579 C19.7541102,58.3960503 21.0589921,56.9446904 20.9473386,55.2624185 L19.4566299,32.7578745 L19.4566299,30.8671659 C18.2218268,31.1026963 15.0766299,31.6558078 12.6274961,31.6585788" id="Fill-4"></path>
                <path d="M12.6277953,1.53941431e-05 C15.7652756,1.53941431e-05 18.3087402,2.48632345 18.3087402,5.55345253 C18.3087402,8.62042767 15.7652756,11.1067357 12.6277953,11.1067357 C9.49015748,11.1067357 6.94669291,8.62042767 6.94669291,5.55345253 C6.94669291,2.48632345 9.49015748,1.53941431e-05 12.6277953,1.53941431e-05" id="Fill-7"></path>
            </g>
        </g>
    </g>
</svg>