<?xml version="1.0" encoding="UTF-8" standalone="no"?>
<svg width="87px" height="80px" viewBox="0 0 87 125" version="1.1" xmlns="http://www.w3.org/2000/svg" xmlns:xlink="http://www.w3.org/1999/xlink">
    <!-- Generator: Sketch 48.2 (47327) - http://www.bohemiancoding.com/sketch -->
    <title>Parent_With_Grown_Up</title>
    <desc>Created with Sketch.</desc>
    <defs></defs>
    <g id="Page2-Copy-2" stroke="none" stroke-width="1" fill="none" fill-rule="evenodd" transform="translate(-546.000000, -455.000000)">
        <g id="Parent_With_Grown_Up" transform="translate(545.000000, 455.000000)">
            <path d="M3.988,81.928 L3.988,86 L1.836,86 L1.836,74.432 L5.604,74.432 C6.3773372,74.432 7.04666384,74.5226658 7.612,74.704 C8.17733616,74.8853342 8.64399816,75.138665 9.012,75.464 C9.38000184,75.789335 9.65199912,76.1786644 9.828,76.632 C10.0040009,77.0853356 10.092,77.5813306 10.092,78.12 C10.092,78.6800028 9.9986676,79.193331 9.812,79.66 C9.6253324,80.126669 9.3453352,80.5279983 8.972,80.864 C8.5986648,81.2000017 8.1320028,81.4613324 7.572,81.648 C7.0119972,81.8346676 6.35600376,81.928 5.604,81.928 L3.988,81.928 Z M3.988,80.248 L5.604,80.248 C5.99866864,80.248 6.3426652,80.1986672 6.636,80.1 C6.9293348,80.0013328 7.17199904,79.8600009 7.364,79.676 C7.55600096,79.4919991 7.69999952,79.2680013 7.796,79.004 C7.89200048,78.7399987 7.94,78.445335 7.94,78.12 C7.94,77.8106651 7.89200048,77.5306679 7.796,77.28 C7.69999952,77.0293321 7.55600096,76.8160009 7.364,76.64 C7.17199904,76.4639991 6.9293348,76.3293338 6.636,76.236 C6.3426652,76.1426662 5.99866864,76.096 5.604,76.096 L3.988,76.096 L3.988,80.248 Z M17.684,86 L16.796,86 C16.6093324,86 16.4626672,85.9720003 16.356,85.916 C16.2493328,85.8599997 16.1693336,85.7466675 16.116,85.576 L15.94,84.992 C15.731999,85.1786676 15.528001,85.342666 15.328,85.484 C15.127999,85.625334 14.9213344,85.7439995 14.708,85.84 C14.4946656,85.9360005 14.2680012,86.0079998 14.028,86.056 C13.7879988,86.1040002 13.5213348,86.128 13.228,86.128 C12.8813316,86.128 12.5613348,86.0813338 12.268,85.988 C11.9746652,85.8946662 11.7226677,85.7546676 11.512,85.568 C11.3013323,85.3813324 11.1373339,85.1493347 11.02,84.872 C10.9026661,84.5946653 10.844,84.2720018 10.844,83.904 C10.844,83.5946651 10.9253325,83.2893348 11.088,82.988 C11.2506675,82.6866652 11.5213314,82.4146679 11.9,82.172 C12.2786686,81.9293321 12.7826635,81.7280008 13.412,81.568 C14.0413365,81.4079992 14.822662,81.3173334 15.756,81.296 L15.756,80.816 C15.756,80.2666639 15.6400012,79.8600013 15.408,79.596 C15.1759988,79.3319987 14.8386689,79.2 14.396,79.2 C14.0759984,79.2 13.8093344,79.237333 13.596,79.312 C13.3826656,79.386667 13.1973341,79.4706662 13.04,79.564 C12.8826659,79.6573338 12.737334,79.741333 12.604,79.816 C12.470666,79.890667 12.3240008,79.928 12.164,79.928 C12.030666,79.928 11.9160005,79.8933337 11.82,79.824 C11.7239995,79.7546663 11.646667,79.6693338 11.588,79.568 L11.228,78.936 C12.1720047,78.0719957 13.31066,77.64 14.644,77.64 C15.1240024,77.64 15.5519981,77.7186659 15.928,77.876 C16.3040019,78.0333341 16.6226654,78.2519986 16.884,78.532 C17.1453346,78.8120014 17.3439993,79.1466647 17.48,79.536 C17.6160007,79.9253353 17.684,80.3519977 17.684,80.816 L17.684,86 Z M13.844,84.768 C14.0466677,84.768 14.2333325,84.7493335 14.404,84.712 C14.5746675,84.6746665 14.7359992,84.618667 14.888,84.544 C15.0400008,84.469333 15.186666,84.3773339 15.328,84.268 C15.469334,84.1586661 15.6119993,84.0293341 15.756,83.88 L15.756,82.496 C15.1799971,82.5226668 14.6986686,82.5719996 14.312,82.644 C13.9253314,82.7160004 13.6146678,82.8079994 13.38,82.92 C13.1453322,83.0320006 12.9786672,83.1626659 12.88,83.312 C12.7813328,83.4613341 12.732,83.6239991 12.732,83.8 C12.732,84.1466684 12.8346656,84.3946659 13.04,84.544 C13.2453344,84.6933341 13.5133317,84.768 13.844,84.768 Z M19.628,86 L19.628,77.792 L20.788,77.792 C20.9906677,77.792 21.1319996,77.829333 21.212,77.904 C21.2920004,77.978667 21.3453332,78.1066658 21.372,78.288 L21.492,79.28 C21.7853348,78.7733308 22.1293314,78.3733348 22.524,78.08 C22.9186686,77.7866652 23.3613309,77.64 23.852,77.64 C24.2573354,77.64 24.593332,77.7333324 24.86,77.92 L24.604,79.4 C24.5879999,79.4960005 24.5533336,79.5639998 24.5,79.604 C24.4466664,79.6440002 24.3746671,79.664 24.284,79.664 C24.2039996,79.664 24.0946674,79.6453335 23.956,79.608 C23.8173326,79.5706665 23.6333345,79.552 23.404,79.552 C22.9933313,79.552 22.6413348,79.6653322 22.348,79.892 C22.0546652,80.1186678 21.8066677,80.4506645 21.604,80.888 L21.604,86 L19.628,86 Z M29.556,77.664 C30.0733359,77.664 30.5493312,77.7466658 30.984,77.912 C31.4186688,78.0773342 31.7933318,78.3186651 32.108,78.636 C32.4226682,78.9533349 32.6679991,79.3426644 32.844,79.804 C33.0200009,80.2653356 33.108,80.791997 33.108,81.384 C33.108,81.5333341 33.1013334,81.6573328 33.088,81.756 C33.0746666,81.8546672 33.0506668,81.9319997 33.016,81.988 C32.9813332,82.0440003 32.934667,82.0839999 32.876,82.108 C32.817333,82.1320001 32.7426671,82.144 32.652,82.144 L27.58,82.144 C27.638667,82.9866709 27.8653314,83.6053314 28.26,84 C28.6546686,84.3946686 29.1773301,84.592 29.828,84.592 C30.1480016,84.592 30.4239988,84.554667 30.656,84.48 C30.8880012,84.405333 31.0906658,84.3226671 31.264,84.232 C31.4373342,84.1413329 31.5893327,84.058667 31.72,83.984 C31.8506673,83.909333 31.9773327,83.872 32.1,83.872 C32.1800004,83.872 32.249333,83.8879998 32.308,83.92 C32.366667,83.9520002 32.4173331,83.997333 32.46,84.056 L33.036,84.776 C32.8173322,85.0320013 32.5720014,85.2466658 32.3,85.42 C32.0279986,85.5933342 31.7440015,85.7319995 31.448,85.836 C31.1519985,85.9400005 30.8506682,86.0133331 30.544,86.056 C30.2373318,86.0986669 29.9400014,86.12 29.652,86.12 C29.0813305,86.12 28.5506691,86.0253343 28.06,85.836 C27.5693309,85.6466657 27.1426685,85.3666685 26.78,84.996 C26.4173315,84.6253315 26.132001,84.1666694 25.924,83.62 C25.715999,83.0733306 25.612,82.4400036 25.612,81.72 C25.612,81.1599972 25.7026658,80.6333358 25.884,80.14 C26.0653342,79.6466642 26.3253316,79.2173352 26.664,78.852 C27.0026684,78.4866648 27.4159976,78.1973344 27.904,77.984 C28.3920024,77.7706656 28.9426636,77.664 29.556,77.664 Z M29.596,79.08 C29.0199971,79.08 28.569335,79.242665 28.244,79.568 C27.918665,79.893335 27.7106671,80.3546637 27.62,80.952 L31.332,80.952 C31.332,80.6959987 31.2973337,80.4546678 31.228,80.228 C31.1586663,80.0013322 31.0520007,79.8026675 30.908,79.632 C30.7639993,79.4613325 30.5826678,79.3266672 30.364,79.228 C30.1453322,79.1293328 29.8893348,79.08 29.596,79.08 Z M34.716,86 L34.716,77.792 L35.924,77.792 C36.1800013,77.792 36.3479996,77.9119988 36.428,78.152 L36.564,78.8 C36.7293342,78.6293325 36.9039991,78.4746674 37.088,78.336 C37.2720009,78.1973326 37.4666656,78.0773338 37.672,77.976 C37.8773344,77.8746662 38.0973322,77.7973336 38.332,77.744 C38.5666678,77.6906664 38.8226653,77.664 39.1,77.664 C39.5480022,77.664 39.9453316,77.7399992 40.292,77.892 C40.6386684,78.0440008 40.9279988,78.257332 41.16,78.532 C41.3920012,78.806668 41.5679994,79.1346648 41.688,79.516 C41.8080006,79.8973352 41.868,80.317331 41.868,80.776 L41.868,86 L39.892,86 L39.892,80.776 C39.892,80.2746642 39.7760012,79.886668 39.544,79.612 C39.3119988,79.337332 38.9640023,79.2 38.5,79.2 C38.158665,79.2 37.8386682,79.2773326 37.54,79.432 C37.2413318,79.5866674 36.958668,79.797332 36.692,80.064 L36.692,86 L34.716,86 Z M46.508,86.128 C45.7986631,86.128 45.2520019,85.9266687 44.868,85.524 C44.4839981,85.1213313 44.292,84.5653369 44.292,83.856 L44.292,79.272 L43.46,79.272 C43.3533328,79.272 43.2613337,79.2373337 43.184,79.168 C43.1066663,79.0986663 43.068,78.9946674 43.068,78.856 L43.068,78.072 L44.388,77.856 L44.804,75.616 C44.8253334,75.5093328 44.8746663,75.426667 44.952,75.368 C45.0293337,75.309333 45.1266661,75.28 45.244,75.28 L46.268,75.28 L46.268,77.864 L48.428,77.864 L48.428,79.272 L46.268,79.272 L46.268,83.72 C46.268,83.9760013 46.3319994,84.1759993 46.46,84.32 C46.5880006,84.4640007 46.7586656,84.536 46.972,84.536 C47.0946673,84.536 47.1973329,84.5213335 47.28,84.492 C47.3626671,84.4626665 47.4346664,84.4320002 47.496,84.4 C47.5573336,84.3679998 47.6119998,84.3373335 47.66,84.308 C47.7080002,84.2786665 47.7559998,84.264 47.804,84.264 C47.862667,84.264 47.9106665,84.2786665 47.948,84.308 C47.9853335,84.3373335 48.0253331,84.381333 48.068,84.44 L48.66,85.4 C48.3719986,85.6400012 48.0413352,85.8213327 47.668,85.944 C47.2946648,86.0666673 46.908002,86.128 46.508,86.128 Z M52.132,74.432 L53.94,74.432 C54.1266676,74.432 54.282666,74.4759996 54.408,74.564 C54.533334,74.6520004 54.6173331,74.7706659 54.66,74.92 L56.628,81.84 C56.6760002,82.0106675 56.7199998,82.195999 56.76,82.396 C56.8000002,82.596001 56.8386665,82.8079989 56.876,83.032 C56.9186669,82.8079989 56.9653331,82.596001 57.016,82.396 C57.0666669,82.195999 57.121333,82.0106675 57.18,81.84 L59.452,74.92 C59.4946669,74.7973327 59.578666,74.6853338 59.704,74.584 C59.829334,74.4826662 59.9826658,74.432 60.164,74.432 L60.796,74.432 C60.9826676,74.432 61.1373327,74.4759996 61.26,74.564 C61.3826673,74.6520004 61.4679998,74.7706659 61.516,74.92 L63.772,81.84 C63.8893339,82.181335 63.9906662,82.5599979 64.076,82.976 C64.1133335,82.767999 64.1519998,82.568001 64.192,82.376 C64.2320002,82.183999 64.2733331,82.0053342 64.316,81.84 L66.284,74.92 C66.3213335,74.786666 66.4039994,74.6720005 66.532,74.576 C66.6600006,74.4799995 66.8146658,74.432 66.996,74.432 L68.684,74.432 L65.092,86 L63.148,86 L60.62,78.096 C60.5879998,77.9946662 60.5546668,77.8853339 60.52,77.768 C60.4853332,77.6506661 60.4520002,77.525334 60.42,77.392 C60.3879998,77.525334 60.3546668,77.6506661 60.32,77.768 C60.2853332,77.8853339 60.2520002,77.9946662 60.22,78.096 L57.668,86 L55.724,86 L52.132,74.432 Z M71.94,77.792 L71.94,86 L69.964,86 L69.964,77.792 L71.94,77.792 Z M72.236,75.4 C72.236,75.5706675 72.2013337,75.7306659 72.132,75.88 C72.0626663,76.0293341 71.9706672,76.1599994 71.856,76.272 C71.7413328,76.3840006 71.6066674,76.473333 71.452,76.54 C71.2973326,76.606667 71.1320009,76.64 70.956,76.64 C70.7853325,76.64 70.6240008,76.606667 70.472,76.54 C70.3199992,76.473333 70.1880006,76.3840006 70.076,76.272 C69.9639994,76.1599994 69.874667,76.0293341 69.808,75.88 C69.741333,75.7306659 69.708,75.5706675 69.708,75.4 C69.708,75.2239991 69.741333,75.0586674 69.808,74.904 C69.874667,74.7493326 69.9639994,74.6160006 70.076,74.504 C70.1880006,74.3919994 70.3199992,74.302667 70.472,74.236 C70.6240008,74.169333 70.7853325,74.136 70.956,74.136 C71.1320009,74.136 71.2973326,74.169333 71.452,74.236 C71.6066674,74.302667 71.7413328,74.3919994 71.856,74.504 C71.9706672,74.6160006 72.0626663,74.7493326 72.132,74.904 C72.2013337,75.0586674 72.236,75.2239991 72.236,75.4 Z M76.868,86.128 C76.1586631,86.128 75.6120019,85.9266687 75.228,85.524 C74.8439981,85.1213313 74.652,84.5653369 74.652,83.856 L74.652,79.272 L73.82,79.272 C73.7133328,79.272 73.6213337,79.2373337 73.544,79.168 C73.4666663,79.0986663 73.428,78.9946674 73.428,78.856 L73.428,78.072 L74.748,77.856 L75.164,75.616 C75.1853334,75.5093328 75.2346663,75.426667 75.312,75.368 C75.3893337,75.309333 75.4866661,75.28 75.604,75.28 L76.628,75.28 L76.628,77.864 L78.788,77.864 L78.788,79.272 L76.628,79.272 L76.628,83.72 C76.628,83.9760013 76.6919994,84.1759993 76.82,84.32 C76.9480006,84.4640007 77.1186656,84.536 77.332,84.536 C77.4546673,84.536 77.5573329,84.5213335 77.64,84.492 C77.7226671,84.4626665 77.7946664,84.4320002 77.856,84.4 C77.9173336,84.3679998 77.9719998,84.3373335 78.02,84.308 C78.0680002,84.2786665 78.1159998,84.264 78.164,84.264 C78.222667,84.264 78.2706665,84.2786665 78.308,84.308 C78.3453335,84.3373335 78.3853331,84.381333 78.428,84.44 L79.02,85.4 C78.7319986,85.6400012 78.4013352,85.8213327 78.028,85.944 C77.6546648,86.0666673 77.268002,86.128 76.868,86.128 Z M80.364,86 L80.364,74.112 L82.34,74.112 L82.34,78.68 C82.6600016,78.3759985 83.0119981,78.1306676 83.396,77.944 C83.7800019,77.7573324 84.2306641,77.664 84.748,77.664 C85.1960022,77.664 85.5933316,77.7399992 85.94,77.892 C86.2866684,78.0440008 86.5759988,78.257332 86.808,78.532 C87.0400012,78.806668 87.2159994,79.1346648 87.336,79.516 C87.4560006,79.8973352 87.516,80.317331 87.516,80.776 L87.516,86 L85.54,86 L85.54,80.776 C85.54,80.2746642 85.4240012,79.886668 85.192,79.612 C84.9599988,79.337332 84.6120023,79.2 84.148,79.2 C83.806665,79.2 83.4866682,79.2773326 83.188,79.432 C82.8893318,79.5866674 82.606668,79.797332 82.34,80.064 L82.34,86 L80.364,86 Z M13.284,103.416 C13.7693358,103.416 14.1919982,103.372 14.552,103.284 C14.9120018,103.196 15.254665,103.074667 15.58,102.92 L15.58,100.816 L14.132,100.816 C13.9933326,100.816 13.8840004,100.777334 13.804,100.7 C13.7239996,100.622666 13.684,100.528001 13.684,100.416 L13.684,99.2 L17.532,99.2 L17.532,103.88 C17.2386652,104.093334 16.9333349,104.278666 16.616,104.436 C16.2986651,104.593334 15.9600018,104.722666 15.6,104.824 C15.2399982,104.925334 14.8546687,105.001333 14.444,105.052 C14.0333313,105.102667 13.590669,105.128 13.116,105.128 C12.2733291,105.128 11.4973369,104.981335 10.788,104.688 C10.0786631,104.394665 9.46533592,103.986669 8.948,103.464 C8.43066408,102.941331 8.02666812,102.317337 7.736,101.592 C7.44533188,100.866663 7.3,100.074671 7.3,99.216 C7.3,98.3466623 7.44133192,97.549337 7.724,96.824 C8.00666808,96.098663 8.4079974,95.4746693 8.928,94.952 C9.4480026,94.4293307 10.078663,94.0240014 10.82,93.736 C11.561337,93.4479986 12.3933287,93.304 13.316,93.304 C14.2600047,93.304 15.0773299,93.4439986 15.768,93.724 C16.4586701,94.0040014 17.0439976,94.3679978 17.524,94.816 L16.9,95.792 C16.7773327,95.9893343 16.6146677,96.088 16.412,96.088 C16.2839994,96.088 16.153334,96.0453338 16.02,95.96 C15.8493325,95.8586662 15.6746676,95.7573338 15.496,95.656 C15.3173324,95.5546662 15.1200011,95.466667 14.904,95.392 C14.6879989,95.317333 14.4453347,95.2560002 14.176,95.208 C13.9066653,95.1599998 13.5960018,95.136 13.244,95.136 C12.6733305,95.136 12.1573356,95.231999 11.696,95.424 C11.2346644,95.616001 10.841335,95.8906649 10.516,96.248 C10.190665,96.6053351 9.94000088,97.0346642 9.764,97.536 C9.58799912,98.0373358 9.5,98.5973302 9.5,99.216 C9.5,99.88267 9.5933324,100.475997 9.78,100.996 C9.9666676,101.516003 10.2279983,101.954665 10.564,102.312 C10.9000017,102.669335 11.2999977,102.942666 11.764,103.132 C12.2280023,103.321334 12.7346639,103.416 13.284,103.416 Z M19.428,105 L19.428,96.792 L20.588,96.792 C20.7906677,96.792 20.9319996,96.829333 21.012,96.904 C21.0920004,96.978667 21.1453332,97.1066658 21.172,97.288 L21.292,98.28 C21.5853348,97.7733308 21.9293314,97.3733348 22.324,97.08 C22.7186686,96.7866652 23.1613309,96.64 23.652,96.64 C24.0573354,96.64 24.393332,96.7333324 24.66,96.92 L24.404,98.4 C24.3879999,98.4960005 24.3533336,98.5639998 24.3,98.604 C24.2466664,98.6440002 24.1746671,98.664 24.084,98.664 C24.0039996,98.664 23.8946674,98.6453335 23.756,98.608 C23.6173326,98.5706665 23.4333345,98.552 23.204,98.552 C22.7933313,98.552 22.4413348,98.6653322 22.148,98.892 C21.8546652,99.1186678 21.6066677,99.4506645 21.404,99.888 L21.404,105 L19.428,105 Z M29.468,96.664 C30.0813364,96.664 30.6373308,96.7626657 31.136,96.96 C31.6346692,97.1573343 32.0599982,97.4373315 32.412,97.8 C32.7640018,98.1626685 33.035999,98.6053307 33.228,99.128 C33.420001,99.6506693 33.516,100.234663 33.516,100.88 C33.516,101.53067 33.420001,102.117331 33.228,102.64 C33.035999,103.162669 32.7640018,103.607998 32.412,103.976 C32.0599982,104.344002 31.6346692,104.626666 31.136,104.824 C30.6373308,105.021334 30.0813364,105.12 29.468,105.12 C28.8546636,105.12 28.2973358,105.021334 27.796,104.824 C27.2946642,104.626666 26.8666684,104.344002 26.512,103.976 C26.1573316,103.607998 25.8826676,103.162669 25.688,102.64 C25.4933324,102.117331 25.396,101.53067 25.396,100.88 C25.396,100.234663 25.4933324,99.6506693 25.688,99.128 C25.8826676,98.6053307 26.1573316,98.1626685 26.512,97.8 C26.8666684,97.4373315 27.2946642,97.1573343 27.796,96.96 C28.2973358,96.7626657 28.8546636,96.664 29.468,96.664 Z M29.468,103.6 C30.1506701,103.6 30.6559984,103.370669 30.984,102.912 C31.3120016,102.453331 31.476,101.781338 31.476,100.896 C31.476,100.010662 31.3120016,99.3360023 30.984,98.872 C30.6559984,98.4079977 30.1506701,98.176 29.468,98.176 C28.7746632,98.176 28.2626683,98.409331 27.932,98.876 C27.6013317,99.342669 27.436,100.015996 27.436,100.896 C27.436,101.776004 27.6013317,102.446664 27.932,102.908 C28.2626683,103.369336 28.7746632,103.6 29.468,103.6 Z M34.06,96.792 L35.628,96.792 C35.7773341,96.792 35.9026662,96.8266663 36.004,96.896 C36.1053338,96.9653337 36.1693332,97.0533328 36.196,97.16 L37.372,101.544 C37.4360003,101.784001 37.4879998,102.018666 37.528,102.248 C37.5680002,102.477334 37.6066665,102.706666 37.644,102.936 C37.702667,102.706666 37.765333,102.477334 37.832,102.248 C37.898667,102.018666 37.969333,101.784001 38.044,101.544 L39.404,97.144 C39.4360002,97.0373328 39.4999995,96.9493337 39.596,96.88 C39.6920005,96.8106663 39.8039994,96.776 39.932,96.776 L40.804,96.776 C40.9480007,96.776 41.0679995,96.8106663 41.164,96.88 C41.2600005,96.9493337 41.3239998,97.0373328 41.356,97.144 L42.7,101.624 C42.7693337,101.853334 42.8319997,102.075999 42.888,102.292 C42.9440003,102.508001 42.9986664,102.725332 43.052,102.944 C43.0893335,102.714666 43.1306664,102.485334 43.176,102.256 C43.2213336,102.026666 43.2786663,101.789335 43.348,101.544 L44.564,97.16 C44.5906668,97.0533328 44.6546662,96.9653337 44.756,96.896 C44.8573338,96.8266663 44.974666,96.792 45.108,96.792 L46.604,96.792 L44.004,105 L42.412,105 C42.2413325,105 42.118667,104.882668 42.044,104.648 L40.564,99.904 C40.5159998,99.7493326 40.4720002,99.5933341 40.432,99.436 C40.3919998,99.2786659 40.3586668,99.1226674 40.332,98.968 C40.2999998,99.1280008 40.2653335,99.2866659 40.228,99.444 C40.1906665,99.6013341 40.1480002,99.7599992 40.1,99.92 L38.604,104.648 C38.529333,104.882668 38.3853344,105 38.172,105 L36.66,105 L34.06,96.792 Z M47.716,105 L47.716,96.792 L48.924,96.792 C49.1800013,96.792 49.3479996,96.9119988 49.428,97.152 L49.564,97.8 C49.7293342,97.6293325 49.9039991,97.4746674 50.088,97.336 C50.2720009,97.1973326 50.4666656,97.0773338 50.672,96.976 C50.8773344,96.8746662 51.0973322,96.7973336 51.332,96.744 C51.5666678,96.6906664 51.8226653,96.664 52.1,96.664 C52.5480022,96.664 52.9453316,96.7399992 53.292,96.892 C53.6386684,97.0440008 53.9279988,97.257332 54.16,97.532 C54.3920012,97.806668 54.5679994,98.1346648 54.688,98.516 C54.8080006,98.8973352 54.868,99.317331 54.868,99.776 L54.868,105 L52.892,105 L52.892,99.776 C52.892,99.2746642 52.7760012,98.886668 52.544,98.612 C52.3119988,98.337332 51.9640023,98.2 51.5,98.2 C51.158665,98.2 50.8386682,98.2773326 50.54,98.432 C50.2413318,98.5866674 49.958668,98.797332 49.692,99.064 L49.692,105 L47.716,105 Z M56.556,99.344 L60.7,99.344 L60.7,100.992 L56.556,100.992 L56.556,99.344 Z M67.324,103.264 C67.7400021,103.264 68.1119984,103.194667 68.44,103.056 C68.7680016,102.917333 69.0453322,102.722668 69.272,102.472 C69.4986678,102.221332 69.6719994,101.917335 69.792,101.56 C69.9120006,101.202665 69.972,100.802669 69.972,100.36 L69.972,93.432 L72.124,93.432 L72.124,100.36 C72.124,101.048003 72.0133344,101.683997 71.792,102.268 C71.5706656,102.852003 71.2520021,103.355998 70.836,103.78 C70.4199979,104.204002 69.916003,104.534665 69.324,104.772 C68.731997,105.009335 68.065337,105.128 67.324,105.128 C66.582663,105.128 65.916003,105.009335 65.324,104.772 C64.731997,104.534665 64.2293354,104.204002 63.816,103.78 C63.4026646,103.355998 63.0853344,102.852003 62.864,102.268 C62.6426656,101.683997 62.532,101.048003 62.532,100.36 L62.532,93.432 L64.684,93.432 L64.684,100.352 C64.684,100.794669 64.7439994,101.194665 64.864,101.552 C64.9840006,101.909335 65.1559989,102.214665 65.38,102.468 C65.6040011,102.721335 65.8799984,102.917333 66.208,103.056 C66.5360016,103.194667 66.9079979,103.264 67.324,103.264 Z M74.204,107.68 L74.204,96.792 L75.412,96.792 C75.5400006,96.792 75.6493329,96.821333 75.74,96.88 C75.8306671,96.938667 75.8893332,97.0293327 75.916,97.152 L76.076,97.912 C76.4066683,97.5333314 76.7866645,97.2266678 77.216,96.992 C77.6453355,96.7573322 78.1479971,96.64 78.724,96.64 C79.1720022,96.64 79.5813315,96.7333324 79.952,96.92 C80.3226685,97.1066676 80.6426653,97.3773316 80.912,97.732 C81.1813347,98.0866684 81.3893326,98.5239974 81.536,99.044 C81.6826674,99.5640026 81.756,100.159997 81.756,100.832 C81.756,101.445336 81.6733342,102.013331 81.508,102.536 C81.3426658,103.058669 81.1066682,103.511998 80.8,103.896 C80.4933318,104.280002 80.1226688,104.579999 79.688,104.796 C79.2533312,105.012001 78.7666694,105.12 78.228,105.12 C77.7639977,105.12 77.3706683,105.049334 77.048,104.908 C76.7253317,104.766666 76.4360013,104.570668 76.18,104.32 L76.18,107.68 L74.204,107.68 Z M78.044,98.2 C77.6333313,98.2 77.2826681,98.2866658 76.992,98.46 C76.7013319,98.6333342 76.4306679,98.8773318 76.18,99.192 L76.18,102.872 C76.4040011,103.149335 76.6479987,103.342666 76.912,103.452 C77.1760013,103.561334 77.4599985,103.616 77.764,103.616 C78.0626682,103.616 78.3333321,103.560001 78.576,103.448 C78.8186679,103.335999 79.0239992,103.165334 79.192,102.936 C79.3600008,102.706666 79.4893329,102.417335 79.58,102.068 C79.6706671,101.718665 79.716,101.306669 79.716,100.832 C79.716,100.351998 79.6773337,99.945335 79.6,99.612 C79.5226663,99.278665 79.4120007,99.008001 79.268,98.8 C79.1239993,98.591999 78.9493344,98.4400005 78.744,98.344 C78.5386656,98.2479995 78.3053346,98.2 78.044,98.2 Z M22.72,121.272 C22.8373339,121.272 22.9386662,121.317333 23.024,121.408 L23.872,122.328 C23.4026643,122.909336 22.8253368,123.354665 22.14,123.664 C21.4546632,123.973335 20.6320048,124.128 19.672,124.128 C18.813329,124.128 18.0413368,123.981335 17.356,123.688 C16.6706632,123.394665 16.0853358,122.986669 15.6,122.464 C15.1146642,121.941331 14.742668,121.317337 14.484,120.592 C14.225332,119.866663 14.096,119.074671 14.096,118.216 C14.096,117.346662 14.2399986,116.55067 14.528,115.828 C14.8160014,115.10533 15.2213307,114.482669 15.744,113.96 C16.2666693,113.437331 16.8919964,113.030668 17.62,112.74 C18.3480036,112.449332 19.1519956,112.304 20.032,112.304 C20.890671,112.304 21.6413301,112.441332 22.284,112.716 C22.9266699,112.990668 23.477331,113.354664 23.936,113.808 L23.216,114.808 C23.1733331,114.872 23.118667,114.928 23.052,114.976 C22.985333,115.024 22.8933339,115.048 22.776,115.048 C22.6533327,115.048 22.5280006,115 22.4,114.904 C22.2719994,114.808 22.1093343,114.704001 21.912,114.592 C21.7146657,114.479999 21.4653348,114.376 21.164,114.28 C20.8626652,114.184 20.4800023,114.136 20.016,114.136 C19.4719973,114.136 18.9720023,114.230666 18.516,114.42 C18.0599977,114.609334 17.6680016,114.879998 17.34,115.232 C17.0119984,115.584002 16.7560009,116.011997 16.572,116.516 C16.3879991,117.020003 16.296,117.586664 16.296,118.216 C16.296,118.86667 16.3879991,119.445331 16.572,119.952 C16.7560009,120.458669 17.0053318,120.885332 17.32,121.232 C17.6346682,121.578668 18.0053312,121.843999 18.432,122.028 C18.8586688,122.212001 19.3173309,122.304 19.808,122.304 C20.1013348,122.304 20.3666655,122.288 20.604,122.256 C20.8413345,122.224 21.059999,122.173334 21.26,122.104 C21.460001,122.034666 21.6493324,121.945334 21.828,121.836 C22.0066676,121.726666 22.1839991,121.592001 22.36,121.432 C22.4133336,121.384 22.469333,121.345333 22.528,121.316 C22.586667,121.286667 22.6506663,121.272 22.72,121.272 Z M25.384,124 L25.384,112.112 L27.36,112.112 L27.36,116.68 C27.6800016,116.375998 28.0319981,116.130668 28.416,115.944 C28.8000019,115.757332 29.2506641,115.664 29.768,115.664 C30.2160022,115.664 30.6133316,115.739999 30.96,115.892 C31.3066684,116.044001 31.5959988,116.257332 31.828,116.532 C32.0600012,116.806668 32.2359994,117.134665 32.356,117.516 C32.4760006,117.897335 32.536,118.317331 32.536,118.776 L32.536,124 L30.56,124 L30.56,118.776 C30.56,118.274664 30.4440012,117.886668 30.212,117.612 C29.9799988,117.337332 29.6320023,117.2 29.168,117.2 C28.826665,117.2 28.5066682,117.277333 28.208,117.432 C27.9093318,117.586667 27.626668,117.797332 27.36,118.064 L27.36,124 L25.384,124 Z M36.584,115.792 L36.584,124 L34.608,124 L34.608,115.792 L36.584,115.792 Z M36.88,113.4 C36.88,113.570668 36.8453337,113.730666 36.776,113.88 C36.7066663,114.029334 36.6146672,114.159999 36.5,114.272 C36.3853328,114.384001 36.2506674,114.473333 36.096,114.54 C35.9413326,114.606667 35.7760009,114.64 35.6,114.64 C35.4293325,114.64 35.2680008,114.606667 35.116,114.54 C34.9639992,114.473333 34.8320006,114.384001 34.72,114.272 C34.6079994,114.159999 34.518667,114.029334 34.452,113.88 C34.385333,113.730666 34.352,113.570668 34.352,113.4 C34.352,113.223999 34.385333,113.058667 34.452,112.904 C34.518667,112.749333 34.6079994,112.616001 34.72,112.504 C34.8320006,112.391999 34.9639992,112.302667 35.116,112.236 C35.2680008,112.169333 35.4293325,112.136 35.6,112.136 C35.7760009,112.136 35.9413326,112.169333 36.096,112.236 C36.2506674,112.302667 36.3853328,112.391999 36.5,112.504 C36.6146672,112.616001 36.7066663,112.749333 36.776,112.904 C36.8453337,113.058667 36.88,113.223999 36.88,113.4 Z M40.92,112.112 L40.92,124 L38.944,124 L38.944,112.112 L40.92,112.112 Z M48.928,124 C48.6719987,124 48.5040004,123.880001 48.424,123.64 L48.264,122.848 C48.0933325,123.040001 47.9146676,123.213333 47.728,123.368 C47.5413324,123.522667 47.3400011,123.655999 47.124,123.768 C46.9079989,123.880001 46.6760012,123.966666 46.428,124.028 C46.1799988,124.089334 45.9120014,124.12 45.624,124.12 C45.1759978,124.12 44.7653352,124.026668 44.392,123.84 C44.0186648,123.653332 43.6973347,123.382668 43.428,123.028 C43.1586653,122.673332 42.9506674,122.234669 42.804,121.712 C42.6573326,121.189331 42.584,120.592003 42.584,119.92 C42.584,119.311997 42.6666658,118.746669 42.832,118.224 C42.9973342,117.701331 43.2346651,117.248002 43.544,116.864 C43.8533349,116.479998 44.2239978,116.180001 44.656,115.964 C45.0880022,115.747999 45.5733306,115.64 46.112,115.64 C46.570669,115.64 46.962665,115.713333 47.288,115.86 C47.613335,116.006667 47.9039987,116.202665 48.16,116.448 L48.16,112.112 L50.136,112.112 L50.136,124 L48.928,124 Z M46.296,122.552 C46.7066687,122.552 47.0559986,122.466668 47.344,122.296 C47.6320014,122.125332 47.9039987,121.882668 48.16,121.568 L48.16,117.888 C47.9359989,117.615999 47.6920013,117.424001 47.428,117.312 C47.1639987,117.199999 46.8800015,117.144 46.576,117.144 C46.2773318,117.144 46.0066679,117.199999 45.764,117.312 C45.5213321,117.424001 45.3160008,117.593332 45.148,117.82 C44.9799992,118.046668 44.8506671,118.334665 44.76,118.684 C44.6693329,119.033335 44.624,119.445331 44.624,119.92 C44.624,120.400002 44.6626663,120.806665 44.74,121.14 C44.8173337,121.473335 44.9279993,121.745332 45.072,121.956 C45.2160007,122.166668 45.391999,122.318666 45.6,122.412 C45.808001,122.505334 46.0399987,122.552 46.296,122.552 Z M52.272,124 L52.272,115.792 L53.432,115.792 C53.6346677,115.792 53.7759996,115.829333 53.856,115.904 C53.9360004,115.978667 53.9893332,116.106666 54.016,116.288 L54.136,117.28 C54.4293348,116.773331 54.7733314,116.373335 55.168,116.08 C55.5626686,115.786665 56.0053309,115.64 56.496,115.64 C56.9013354,115.64 57.237332,115.733332 57.504,115.92 L57.248,117.4 C57.2319999,117.496 57.1973336,117.564 57.144,117.604 C57.0906664,117.644 57.0186671,117.664 56.928,117.664 C56.8479996,117.664 56.7386674,117.645334 56.6,117.608 C56.4613326,117.570666 56.2773345,117.552 56.048,117.552 C55.6373313,117.552 55.2853348,117.665332 54.992,117.892 C54.6986652,118.118668 54.4506677,118.450664 54.248,118.888 L54.248,124 L52.272,124 Z M62.2,115.664 C62.7173359,115.664 63.1933312,115.746666 63.628,115.912 C64.0626688,116.077334 64.4373318,116.318665 64.752,116.636 C65.0666682,116.953335 65.3119991,117.342664 65.488,117.804 C65.6640009,118.265336 65.752,118.791997 65.752,119.384 C65.752,119.533334 65.7453334,119.657333 65.732,119.756 C65.7186666,119.854667 65.6946668,119.932 65.66,119.988 C65.6253332,120.044 65.578667,120.084 65.52,120.108 C65.461333,120.132 65.3866671,120.144 65.296,120.144 L60.224,120.144 C60.282667,120.986671 60.5093314,121.605331 60.904,122 C61.2986686,122.394669 61.8213301,122.592 62.472,122.592 C62.7920016,122.592 63.0679988,122.554667 63.3,122.48 C63.5320012,122.405333 63.7346658,122.322667 63.908,122.232 C64.0813342,122.141333 64.2333327,122.058667 64.364,121.984 C64.4946673,121.909333 64.6213327,121.872 64.744,121.872 C64.8240004,121.872 64.893333,121.888 64.952,121.92 C65.010667,121.952 65.0613331,121.997333 65.104,122.056 L65.68,122.776 C65.4613322,123.032001 65.2160014,123.246666 64.944,123.42 C64.6719986,123.593334 64.3880015,123.731999 64.092,123.836 C63.7959985,123.940001 63.4946682,124.013333 63.188,124.056 C62.8813318,124.098667 62.5840014,124.12 62.296,124.12 C61.7253305,124.12 61.1946691,124.025334 60.704,123.836 C60.2133309,123.646666 59.7866685,123.366669 59.424,122.996 C59.0613315,122.625331 58.776001,122.166669 58.568,121.62 C58.359999,121.073331 58.256,120.440004 58.256,119.72 C58.256,119.159997 58.3466658,118.633336 58.528,118.14 C58.7093342,117.646664 58.9693316,117.217335 59.308,116.852 C59.6466684,116.486665 60.0599976,116.197334 60.548,115.984 C61.0360024,115.770666 61.5866636,115.664 62.2,115.664 Z M62.24,117.08 C61.6639971,117.08 61.213335,117.242665 60.888,117.568 C60.562665,117.893335 60.3546671,118.354664 60.264,118.952 L63.976,118.952 C63.976,118.695999 63.9413337,118.454668 63.872,118.228 C63.8026663,118.001332 63.6960007,117.802668 63.552,117.632 C63.4079993,117.461332 63.2266678,117.326667 63.008,117.228 C62.7893322,117.129333 62.5333348,117.08 62.24,117.08 Z M67.36,124 L67.36,115.792 L68.568,115.792 C68.8240013,115.792 68.9919996,115.911999 69.072,116.152 L69.208,116.8 C69.3733342,116.629332 69.5479991,116.474667 69.732,116.336 C69.9160009,116.197333 70.1106656,116.077334 70.316,115.976 C70.5213344,115.874666 70.7413322,115.797334 70.976,115.744 C71.2106678,115.690666 71.4666653,115.664 71.744,115.664 C72.1920022,115.664 72.5893316,115.739999 72.936,115.892 C73.2826684,116.044001 73.5719988,116.257332 73.804,116.532 C74.0360012,116.806668 74.2119994,117.134665 74.332,117.516 C74.4520006,117.897335 74.512,118.317331 74.512,118.776 L74.512,124 L72.536,124 L72.536,118.776 C72.536,118.274664 72.4200012,117.886668 72.188,117.612 C71.9559988,117.337332 71.6080023,117.2 71.144,117.2 C70.802665,117.2 70.4826682,117.277333 70.184,117.432 C69.8853318,117.586667 69.602668,117.797332 69.336,118.064 L69.336,124 L67.36,124 Z" id="Parent-With-Grown-Up" fill="#333333"></path>
            <g id="Page-1" opacity="0.5" transform="translate(8.000000, 0.000000)" fill="#000000">
                <path d="M58.8441563,0.46865625 C61.773375,0.46865625 64.1443125,2.8419375 64.1443125,5.7688125 C64.1443125,8.6975625 61.773375,11.0680312 58.8441563,11.0680312 C55.9154063,11.0680312 53.542125,8.6975625 53.542125,5.7688125 C53.542125,2.8419375 55.9154063,0.46865625 58.8441563,0.46865625" id="Fill-1"></path>
                <path d="M37.9806563,15.9758906 C40.4987813,15.9758906 42.5401875,18.0168281 42.5401875,20.5354219 C42.5401875,23.0516719 40.4987813,25.0926094 37.9806563,25.0926094 C35.4644063,25.0926094 33.4253438,23.0516719 33.4253438,20.5354219 C33.4253438,18.0168281 35.4644063,15.9758906 37.9806563,15.9758906" id="Fill-4"></path>
                <path d="M14.9299688,0.46865625 C17.8568437,0.46865625 20.230125,2.8419375 20.230125,5.7688125 C20.230125,8.6975625 17.8568437,11.0680312 14.9299688,11.0680312 C12.0012187,11.0680312 9.63028125,8.6975625 9.63028125,5.7688125 C9.63028125,2.8419375 12.0035625,0.46865625 14.9299688,0.46865625" id="Fill-6"></path>
                <path d="M1.39251562,31.4208281 C1.32548437,31.4025469 1.26126562,31.3861406 1.19657812,31.3608281 C0.202359375,30.9436406 -0.263109375,29.8069219 0.151734375,28.8145781 L6.48689063,13.6833281 C6.78689062,12.9666094 7.46704687,12.5325469 8.19829687,12.5006719 L8.19829687,12.4866094 L8.28360938,12.4866094 L21.6598594,12.4866094 L21.7475156,12.4866094 L21.7475156,12.5006719 C22.4764219,12.5325469 23.1589219,12.9619219 23.4584531,13.6833281 L29.7940781,28.8145781 C30.2093906,29.8041094 29.7411094,30.9436406 28.7445469,31.3631719 C27.7550156,31.7761406 26.6136094,31.3102031 26.1982969,30.3183281 L21.7451719,21.3309844 L21.7451719,38.0995781 C21.7475156,38.1342656 21.7540781,38.1647344 21.7540781,38.1966094 L21.7540781,57.9033281 C21.7540781,58.9758281 20.8873594,59.8406719 19.8172031,59.8406719 C19.8007969,59.8406719 19.7895469,59.8387969 19.7707969,59.8387969 C19.7572031,59.8387969 19.7431406,59.8406719 19.7272031,59.8406719 C18.6593906,59.8406719 17.7898594,58.9758281 17.7898594,57.9033281 L16.1801719,38.1966094 C16.1801719,38.1619219 16.1872031,38.1342656 16.1890781,38.0995781 L13.7492344,38.0995781 C13.7539219,38.1342656 13.7609531,38.1647344 13.7609531,38.1966094 L12.1512656,57.9033281 C12.1512656,58.9758281 11.2817344,59.8406719 10.2111094,59.8406719 C10.1975156,59.8406719 10.1815781,59.8387969 10.1679844,59.8387969 C10.1520469,59.8387969 10.1398594,59.8406719 10.1239219,59.8406719 C9.05423438,59.8406719 8.18657813,58.9758281 8.18657813,57.9033281 L8.18657813,38.1966094 C8.18657813,38.1619219 8.19126562,38.1342656 8.19595313,38.0995781 L8.19595313,21.3333281 L3.74282812,30.3183281 C3.52110937,30.8466094 3.09454687,31.2178594 2.59392188,31.3950469" id="Fill-9"></path>
                <path d="M46.8319688,39.667875 C46.1307188,39.9608438 45.325875,39.6313125 45.0329063,38.93475 L41.3316563,30.0899063 L41.3222813,30.1086563 L44.7310313,45.4545938 L44.6316563,45.4545938 L41.6382188,45.4545938 C41.647125,45.5169375 41.6569688,45.5764688 41.6569688,45.6388125 L41.6569688,58.42725 C41.6569688,59.1833438 41.0429063,59.7964688 40.2868125,59.7964688 C40.2680625,59.7964688 40.252125,59.7950625 40.2361875,59.79225 C40.2179063,59.7950625 40.2038438,59.7964688 40.1874375,59.7964688 C39.4313438,59.7964688 38.8149375,59.1833438 38.8149375,58.42725 L38.2941563,45.6388125 C38.2941563,45.5788125 38.305875,45.5169375 38.3147813,45.4545938 L37.6505625,45.4545938 C37.6580625,45.5169375 37.6688438,45.5764688 37.6688438,45.6388125 L37.1480625,58.42725 C37.1480625,59.1833438 36.532125,59.7964688 35.7755625,59.7964688 C35.7572813,59.7964688 35.7413438,59.7950625 35.7254063,59.79225 C35.709,59.7950625 35.6925938,59.7964688 35.6766563,59.7964688 C34.9200938,59.7964688 34.3065,59.1833438 34.3065,58.42725 L34.3065,45.6388125 C34.3065,45.5788125 34.3205625,45.5169375 34.327125,45.4545938 L31.3360313,45.4545938 L31.2347813,45.4545938 L34.6482188,30.1105313 L34.6411875,30.09225 L30.9399375,38.9370938 C30.6441563,39.6383437 29.8393125,39.9655312 29.140875,39.6706875 C28.439625,39.3777187 28.1100938,38.5700625 28.4030625,37.8735 L33.5663438,26.4552188 L33.6150938,26.3333438 L42.3624375,26.3333438 L42.4107188,26.4552188 L47.5744688,37.8688125 C47.86275,38.565375 47.5280625,39.3749063 46.8319688,39.667875" id="Fill-12"></path>
                <path d="M71.4546094,31.1740781 C70.4561719,31.5917344 69.3077344,31.1215781 68.8928906,30.1226719 L63.6185156,17.5231406 L63.6021094,17.5559531 L68.4663281,39.4118906 L68.3205469,39.4118906 L64.0563281,39.4118906 C64.0680469,39.4995469 64.0839844,39.5806406 64.0839844,39.6725156 L64.0839844,57.8848594 C64.0839844,58.9620469 63.2074219,59.8362656 62.1307031,59.8362656 C62.1035156,59.8362656 62.0824219,59.8315781 62.0594531,59.8315781 C62.0313281,59.8315781 62.0111719,59.8362656 61.9835156,59.8362656 C60.9058594,59.8362656 60.0321094,58.9620469 60.0321094,57.8848594 L59.2896094,39.6725156 C59.2896094,39.5806406 59.3032031,39.4995469 59.3172656,39.4118906 L58.3717969,39.4118906 C58.3853906,39.4995469 58.3989844,39.5806406 58.3989844,39.6725156 L57.6588281,57.8848594 C57.6588281,58.9620469 56.7850781,59.8362656 55.7102344,59.8362656 C55.6830469,59.8362656 55.6596094,59.8315781 55.6342969,59.8315781 C55.6061719,59.8315781 55.5855469,59.8362656 55.5602344,59.8362656 C54.4807031,59.8362656 53.6069531,58.9620469 53.6069531,57.8848594 L53.6069531,39.6725156 C53.6069531,39.5806406 53.6228906,39.4995469 53.6346094,39.4118906 L49.3727344,39.4118906 L49.3680469,39.4118906 L49.2227344,39.4118906 L54.0864844,17.5559531 L54.0724219,17.5231406 L48.8008594,30.1226719 C48.3803906,31.1234531 47.2296094,31.5917344 46.2363281,31.1740781 C45.2350781,30.7540781 44.7649219,29.6056406 45.1844531,28.6118906 L52.5386719,12.3532969 L52.6103906,12.1798594 L65.0688281,12.1798594 L65.0716406,12.1798594 L65.1400781,12.3532969 L72.4975781,28.6118906 C72.9171094,29.6107969 72.4464844,30.7564219 71.4546094,31.1740781" id="Fill-14"></path>
            </g>
        </g>
    </g>
</svg>