<?xml version="1.0" encoding="UTF-8" standalone="no"?>
<svg width="132px" height="80px" viewBox="0 0 132 127" version="1.1" xmlns="http://www.w3.org/2000/svg" xmlns:xlink="http://www.w3.org/1999/xlink">
    <!-- Generator: Sketch 48.2 (47327) - http://www.bohemiancoding.com/sketch -->
    <title>Parent_With_Young_Child_Red</title>
    <desc>Created with Sketch.</desc>
    <defs></defs>
    <g id="Page2-Copy-2" stroke="none" stroke-width="1" fill="none" fill-rule="evenodd" transform="translate(-382.000000, -455.000000)">
        <g id="Parent_With_Young_Child_Red" transform="translate(381.000000, 455.000000)" fill="#D0021B">
            <path d="M26.6546667,81.928 L26.6546667,86 L24.5026667,86 L24.5026667,74.432 L28.2706667,74.432 C29.0440039,74.432 29.7133305,74.5226658 30.2786667,74.704 C30.8440028,74.8853342 31.3106648,75.138665 31.6786667,75.464 C32.0466685,75.789335 32.3186658,76.1786644 32.4946667,76.632 C32.6706675,77.0853356 32.7586667,77.5813306 32.7586667,78.12 C32.7586667,78.6800028 32.6653343,79.193331 32.4786667,79.66 C32.2919991,80.126669 32.0120019,80.5279983 31.6386667,80.864 C31.2653315,81.2000017 30.7986695,81.4613324 30.2386667,81.648 C29.6786639,81.8346676 29.0226704,81.928 28.2706667,81.928 L26.6546667,81.928 Z M26.6546667,80.248 L28.2706667,80.248 C28.6653353,80.248 29.0093319,80.1986672 29.3026667,80.1 C29.5960015,80.0013328 29.8386657,79.8600009 30.0306667,79.676 C30.2226676,79.4919991 30.3666662,79.2680013 30.4626667,79.004 C30.5586671,78.7399987 30.6066667,78.445335 30.6066667,78.12 C30.6066667,77.8106651 30.5586671,77.5306679 30.4626667,77.28 C30.3666662,77.0293321 30.2226676,76.8160009 30.0306667,76.64 C29.8386657,76.4639991 29.5960015,76.3293338 29.3026667,76.236 C29.0093319,76.1426662 28.6653353,76.096 28.2706667,76.096 L26.6546667,76.096 L26.6546667,80.248 Z M40.3506667,86 L39.4626667,86 C39.2759991,86 39.1293339,85.9720003 39.0226667,85.916 C38.9159995,85.8599997 38.8360003,85.7466675 38.7826667,85.576 L38.6066667,84.992 C38.3986656,85.1786676 38.1946677,85.342666 37.9946667,85.484 C37.7946657,85.625334 37.5880011,85.7439995 37.3746667,85.84 C37.1613323,85.9360005 36.9346679,86.0079998 36.6946667,86.056 C36.4546655,86.1040002 36.1880015,86.128 35.8946667,86.128 C35.5479983,86.128 35.2280015,86.0813338 34.9346667,85.988 C34.6413319,85.8946662 34.3893344,85.7546676 34.1786667,85.568 C33.9679989,85.3813324 33.8040006,85.1493347 33.6866667,84.872 C33.5693327,84.5946653 33.5106667,84.2720018 33.5106667,83.904 C33.5106667,83.5946651 33.5919992,83.2893348 33.7546667,82.988 C33.9173341,82.6866652 34.1879981,82.4146679 34.5666667,82.172 C34.9453352,81.9293321 35.4493302,81.7280008 36.0786667,81.568 C36.7080031,81.4079992 37.4893287,81.3173334 38.4226667,81.296 L38.4226667,80.816 C38.4226667,80.2666639 38.3066678,79.8600013 38.0746667,79.596 C37.8426655,79.3319987 37.5053355,79.2 37.0626667,79.2 C36.7426651,79.2 36.4760011,79.237333 36.2626667,79.312 C36.0493323,79.386667 35.8640008,79.4706662 35.7066667,79.564 C35.5493325,79.6573338 35.4040007,79.741333 35.2706667,79.816 C35.1373327,79.890667 34.9906675,79.928 34.8306667,79.928 C34.6973327,79.928 34.5826671,79.8933337 34.4866667,79.824 C34.3906662,79.7546663 34.3133336,79.6693338 34.2546667,79.568 L33.8946667,78.936 C34.8386714,78.0719957 35.9773267,77.64 37.3106667,77.64 C37.7906691,77.64 38.2186648,77.7186659 38.5946667,77.876 C38.9706685,78.0333341 39.289332,78.2519986 39.5506667,78.532 C39.8120013,78.8120014 40.010666,79.1466647 40.1466667,79.536 C40.2826673,79.9253353 40.3506667,80.3519977 40.3506667,80.816 L40.3506667,86 Z M36.5106667,84.768 C36.7133343,84.768 36.8999991,84.7493335 37.0706667,84.712 C37.2413342,84.6746665 37.4026659,84.618667 37.5546667,84.544 C37.7066674,84.469333 37.8533326,84.3773339 37.9946667,84.268 C38.1360007,84.1586661 38.2786659,84.0293341 38.4226667,83.88 L38.4226667,82.496 C37.8466638,82.5226668 37.3653353,82.5719996 36.9786667,82.644 C36.5919981,82.7160004 36.2813345,82.8079994 36.0466667,82.92 C35.8119988,83.0320006 35.6453338,83.1626659 35.5466667,83.312 C35.4479995,83.4613341 35.3986667,83.6239991 35.3986667,83.8 C35.3986667,84.1466684 35.5013323,84.3946659 35.7066667,84.544 C35.912001,84.6933341 36.1799983,84.768 36.5106667,84.768 Z M42.2946667,86 L42.2946667,77.792 L43.4546667,77.792 C43.6573343,77.792 43.7986663,77.829333 43.8786667,77.904 C43.9586671,77.978667 44.0119999,78.1066658 44.0386667,78.288 L44.1586667,79.28 C44.4520015,78.7733308 44.795998,78.3733348 45.1906667,78.08 C45.5853353,77.7866652 46.0279975,77.64 46.5186667,77.64 C46.924002,77.64 47.2599987,77.7333324 47.5266667,77.92 L47.2706667,79.4 C47.2546666,79.4960005 47.2200003,79.5639998 47.1666667,79.604 C47.1133331,79.6440002 47.0413338,79.664 46.9506667,79.664 C46.8706663,79.664 46.761334,79.6453335 46.6226667,79.608 C46.4839993,79.5706665 46.3000011,79.552 46.0706667,79.552 C45.6599979,79.552 45.3080015,79.6653322 45.0146667,79.892 C44.7213319,80.1186678 44.4733343,80.4506645 44.2706667,80.888 L44.2706667,86 L42.2946667,86 Z M52.2226667,77.664 C52.7400026,77.664 53.2159978,77.7466658 53.6506667,77.912 C54.0853355,78.0773342 54.4599984,78.3186651 54.7746667,78.636 C55.0893349,78.9533349 55.3346658,79.3426644 55.5106667,79.804 C55.6866675,80.2653356 55.7746667,80.791997 55.7746667,81.384 C55.7746667,81.5333341 55.7680001,81.6573328 55.7546667,81.756 C55.7413333,81.8546672 55.7173335,81.9319997 55.6826667,81.988 C55.6479998,82.0440003 55.6013336,82.0839999 55.5426667,82.108 C55.4839997,82.1320001 55.4093338,82.144 55.3186667,82.144 L50.2466667,82.144 C50.3053336,82.9866709 50.531998,83.6053314 50.9266667,84 C51.3213353,84.3946686 51.8439967,84.592 52.4946667,84.592 C52.8146683,84.592 53.0906655,84.554667 53.3226667,84.48 C53.5546678,84.405333 53.7573325,84.3226671 53.9306667,84.232 C54.1040009,84.1413329 54.2559993,84.058667 54.3866667,83.984 C54.517334,83.909333 54.6439994,83.872 54.7666667,83.872 C54.8466671,83.872 54.9159997,83.8879998 54.9746667,83.92 C55.0333336,83.9520002 55.0839998,83.997333 55.1266667,84.056 L55.7026667,84.776 C55.4839989,85.0320013 55.238668,85.2466658 54.9666667,85.42 C54.6946653,85.5933342 54.4106681,85.7319995 54.1146667,85.836 C53.8186652,85.9400005 53.5173349,86.0133331 53.2106667,86.056 C52.9039985,86.0986669 52.6066681,86.12 52.3186667,86.12 C51.7479971,86.12 51.2173358,86.0253343 50.7266667,85.836 C50.2359975,85.6466657 49.8093351,85.3666685 49.4466667,84.996 C49.0839982,84.6253315 48.7986677,84.1666694 48.5906667,83.62 C48.3826656,83.0733306 48.2786667,82.4400036 48.2786667,81.72 C48.2786667,81.1599972 48.3693324,80.6333358 48.5506667,80.14 C48.7320009,79.6466642 48.9919983,79.2173352 49.3306667,78.852 C49.669335,78.4866648 50.0826642,78.1973344 50.5706667,77.984 C51.0586691,77.7706656 51.6093303,77.664 52.2226667,77.664 Z M52.2626667,79.08 C51.6866638,79.08 51.2360016,79.242665 50.9106667,79.568 C50.5853317,79.893335 50.3773338,80.3546637 50.2866667,80.952 L53.9986667,80.952 C53.9986667,80.6959987 53.9640003,80.4546678 53.8946667,80.228 C53.825333,80.0013322 53.7186674,79.8026675 53.5746667,79.632 C53.4306659,79.4613325 53.2493344,79.3266672 53.0306667,79.228 C52.8119989,79.1293328 52.5560015,79.08 52.2626667,79.08 Z M57.3826667,86 L57.3826667,77.792 L58.5906667,77.792 C58.8466679,77.792 59.0146663,77.9119988 59.0946667,78.152 L59.2306667,78.8 C59.3960008,78.6293325 59.5706657,78.4746674 59.7546667,78.336 C59.9386676,78.1973326 60.1333323,78.0773338 60.3386667,77.976 C60.544001,77.8746662 60.7639988,77.7973336 60.9986667,77.744 C61.2333345,77.6906664 61.4893319,77.664 61.7666667,77.664 C62.2146689,77.664 62.6119983,77.7399992 62.9586667,77.892 C63.3053351,78.0440008 63.5946655,78.257332 63.8266667,78.532 C64.0586678,78.806668 64.2346661,79.1346648 64.3546667,79.516 C64.4746673,79.8973352 64.5346667,80.317331 64.5346667,80.776 L64.5346667,86 L62.5586667,86 L62.5586667,80.776 C62.5586667,80.2746642 62.4426678,79.886668 62.2106667,79.612 C61.9786655,79.337332 61.630669,79.2 61.1666667,79.2 C60.8253316,79.2 60.5053348,79.2773326 60.2066667,79.432 C59.9079985,79.5866674 59.6253347,79.797332 59.3586667,80.064 L59.3586667,86 L57.3826667,86 Z M69.1746667,86.128 C68.4653298,86.128 67.9186686,85.9266687 67.5346667,85.524 C67.1506647,85.1213313 66.9586667,84.5653369 66.9586667,83.856 L66.9586667,79.272 L66.1266667,79.272 C66.0199995,79.272 65.9280004,79.2373337 65.8506667,79.168 C65.7733329,79.0986663 65.7346667,78.9946674 65.7346667,78.856 L65.7346667,78.072 L67.0546667,77.856 L67.4706667,75.616 C67.4920001,75.5093328 67.5413329,75.426667 67.6186667,75.368 C67.6960004,75.309333 67.7933327,75.28 67.9106667,75.28 L68.9346667,75.28 L68.9346667,77.864 L71.0946667,77.864 L71.0946667,79.272 L68.9346667,79.272 L68.9346667,83.72 C68.9346667,83.9760013 68.998666,84.1759993 69.1266667,84.32 C69.2546673,84.4640007 69.4253323,84.536 69.6386667,84.536 C69.7613339,84.536 69.8639996,84.5213335 69.9466667,84.492 C70.0293337,84.4626665 70.101333,84.4320002 70.1626667,84.4 C70.2240003,84.3679998 70.2786664,84.3373335 70.3266667,84.308 C70.3746669,84.2786665 70.4226664,84.264 70.4706667,84.264 C70.5293336,84.264 70.5773331,84.2786665 70.6146667,84.308 C70.6520002,84.3373335 70.6919998,84.381333 70.7346667,84.44 L71.3266667,85.4 C71.0386652,85.6400012 70.7080019,85.8213327 70.3346667,85.944 C69.9613315,86.0666673 69.5746687,86.128 69.1746667,86.128 Z M74.7986667,74.432 L76.6066667,74.432 C76.7933343,74.432 76.9493327,74.4759996 77.0746667,74.564 C77.2000006,74.6520004 77.2839998,74.7706659 77.3266667,74.92 L79.2946667,81.84 C79.3426669,82.0106675 79.3866665,82.195999 79.4266667,82.396 C79.4666669,82.596001 79.5053331,82.8079989 79.5426667,83.032 C79.5853335,82.8079989 79.6319997,82.596001 79.6826667,82.396 C79.7333336,82.195999 79.7879997,82.0106675 79.8466667,81.84 L82.1186667,74.92 C82.1613335,74.7973327 82.2453327,74.6853338 82.3706667,74.584 C82.4960006,74.4826662 82.6493324,74.432 82.8306667,74.432 L83.4626667,74.432 C83.6493343,74.432 83.8039994,74.4759996 83.9266667,74.564 C84.0493339,74.6520004 84.1346664,74.7706659 84.1826667,74.92 L86.4386667,81.84 C86.5560006,82.181335 86.6573329,82.5599979 86.7426667,82.976 C86.7800002,82.767999 86.8186665,82.568001 86.8586667,82.376 C86.8986669,82.183999 86.9399998,82.0053342 86.9826667,81.84 L88.9506667,74.92 C88.9880002,74.786666 89.070666,74.6720005 89.1986667,74.576 C89.3266673,74.4799995 89.4813324,74.432 89.6626667,74.432 L91.3506667,74.432 L87.7586667,86 L85.8146667,86 L83.2866667,78.096 C83.2546665,77.9946662 83.2213335,77.8853339 83.1866667,77.768 C83.1519998,77.6506661 83.1186668,77.525334 83.0866667,77.392 C83.0546665,77.525334 83.0213335,77.6506661 82.9866667,77.768 C82.9519998,77.8853339 82.9186668,77.9946662 82.8866667,78.096 L80.3346667,86 L78.3906667,86 L74.7986667,74.432 Z M94.6066667,77.792 L94.6066667,86 L92.6306667,86 L92.6306667,77.792 L94.6066667,77.792 Z M94.9026667,75.4 C94.9026667,75.5706675 94.8680003,75.7306659 94.7986667,75.88 C94.729333,76.0293341 94.6373339,76.1599994 94.5226667,76.272 C94.4079994,76.3840006 94.2733341,76.473333 94.1186667,76.54 C93.9639992,76.606667 93.7986675,76.64 93.6226667,76.64 C93.4519991,76.64 93.2906674,76.606667 93.1386667,76.54 C92.9866659,76.473333 92.8546672,76.3840006 92.7426667,76.272 C92.6306661,76.1599994 92.5413337,76.0293341 92.4746667,75.88 C92.4079997,75.7306659 92.3746667,75.5706675 92.3746667,75.4 C92.3746667,75.2239991 92.4079997,75.0586674 92.4746667,74.904 C92.5413337,74.7493326 92.6306661,74.6160006 92.7426667,74.504 C92.8546672,74.3919994 92.9866659,74.302667 93.1386667,74.236 C93.2906674,74.169333 93.4519991,74.136 93.6226667,74.136 C93.7986675,74.136 93.9639992,74.169333 94.1186667,74.236 C94.2733341,74.302667 94.4079994,74.3919994 94.5226667,74.504 C94.6373339,74.6160006 94.729333,74.7493326 94.7986667,74.904 C94.8680003,75.0586674 94.9026667,75.2239991 94.9026667,75.4 Z M99.5346667,86.128 C98.8253298,86.128 98.2786686,85.9266687 97.8946667,85.524 C97.5106647,85.1213313 97.3186667,84.5653369 97.3186667,83.856 L97.3186667,79.272 L96.4866667,79.272 C96.3799995,79.272 96.2880004,79.2373337 96.2106667,79.168 C96.1333329,79.0986663 96.0946667,78.9946674 96.0946667,78.856 L96.0946667,78.072 L97.4146667,77.856 L97.8306667,75.616 C97.8520001,75.5093328 97.9013329,75.426667 97.9786667,75.368 C98.0560004,75.309333 98.1533327,75.28 98.2706667,75.28 L99.2946667,75.28 L99.2946667,77.864 L101.454667,77.864 L101.454667,79.272 L99.2946667,79.272 L99.2946667,83.72 C99.2946667,83.9760013 99.358666,84.1759993 99.4866667,84.32 C99.6146673,84.4640007 99.7853323,84.536 99.9986667,84.536 C100.121334,84.536 100.224,84.5213335 100.306667,84.492 C100.389334,84.4626665 100.461333,84.4320002 100.522667,84.4 C100.584,84.3679998 100.638666,84.3373335 100.686667,84.308 C100.734667,84.2786665 100.782666,84.264 100.830667,84.264 C100.889334,84.264 100.937333,84.2786665 100.974667,84.308 C101.012,84.3373335 101.052,84.381333 101.094667,84.44 L101.686667,85.4 C101.398665,85.6400012 101.068002,85.8213327 100.694667,85.944 C100.321331,86.0666673 99.9346687,86.128 99.5346667,86.128 Z M103.030667,86 L103.030667,74.112 L105.006667,74.112 L105.006667,78.68 C105.326668,78.3759985 105.678665,78.1306676 106.062667,77.944 C106.446669,77.7573324 106.897331,77.664 107.414667,77.664 C107.862669,77.664 108.259998,77.7399992 108.606667,77.892 C108.953335,78.0440008 109.242666,78.257332 109.474667,78.532 C109.706668,78.806668 109.882666,79.1346648 110.002667,79.516 C110.122667,79.8973352 110.182667,80.317331 110.182667,80.776 L110.182667,86 L108.206667,86 L108.206667,80.776 C108.206667,80.2746642 108.090668,79.886668 107.858667,79.612 C107.626666,79.337332 107.278669,79.2 106.814667,79.2 C106.473332,79.2 106.153335,79.2773326 105.854667,79.432 C105.555999,79.5866674 105.273335,79.797332 105.006667,80.064 L105.006667,86 L103.030667,86 Z M18.6546667,100.504 L18.6546667,105 L16.5026667,105 L16.5026667,100.504 L12.2866667,93.432 L14.1826667,93.432 C14.3693343,93.432 14.5173328,93.4773329 14.6266667,93.568 C14.7360005,93.6586671 14.8279996,93.7733326 14.9026667,93.912 L17.0226667,97.776 C17.1453339,98.0053345 17.2519995,98.2226656 17.3426667,98.428 C17.4333338,98.6333344 17.5159996,98.8346657 17.5906667,99.032 C17.6600003,98.8293323 17.7386662,98.6253344 17.8266667,98.42 C17.9146671,98.2146656 18.0199994,98.0000011 18.1426667,97.776 L20.2466667,93.912 C20.3053336,93.7946661 20.3933327,93.6853338 20.5106667,93.584 C20.6280006,93.4826662 20.7773324,93.432 20.9586667,93.432 L22.8626667,93.432 L18.6546667,100.504 Z M26.0946667,96.664 C26.7080031,96.664 27.2639975,96.7626657 27.7626667,96.96 C28.2613358,97.1573343 28.6866649,97.4373315 29.0386667,97.8 C29.3906684,98.1626685 29.6626657,98.6053307 29.8546667,99.128 C30.0466676,99.6506693 30.1426667,100.234663 30.1426667,100.88 C30.1426667,101.53067 30.0466676,102.117331 29.8546667,102.64 C29.6626657,103.162669 29.3906684,103.607998 29.0386667,103.976 C28.6866649,104.344002 28.2613358,104.626666 27.7626667,104.824 C27.2639975,105.021334 26.7080031,105.12 26.0946667,105.12 C25.4813303,105.12 24.9240025,105.021334 24.4226667,104.824 C23.9213308,104.626666 23.4933351,104.344002 23.1386667,103.976 C22.7839982,103.607998 22.5093343,103.162669 22.3146667,102.64 C22.119999,102.117331 22.0226667,101.53067 22.0226667,100.88 C22.0226667,100.234663 22.119999,99.6506693 22.3146667,99.128 C22.5093343,98.6053307 22.7839982,98.1626685 23.1386667,97.8 C23.4933351,97.4373315 23.9213308,97.1573343 24.4226667,96.96 C24.9240025,96.7626657 25.4813303,96.664 26.0946667,96.664 Z M26.0946667,103.6 C26.7773367,103.6 27.282665,103.370669 27.6106667,102.912 C27.9386683,102.453331 28.1026667,101.781338 28.1026667,100.896 C28.1026667,100.010662 27.9386683,99.3360023 27.6106667,98.872 C27.282665,98.4079977 26.7773367,98.176 26.0946667,98.176 C25.4013299,98.176 24.889335,98.409331 24.5586667,98.876 C24.2279983,99.342669 24.0626667,100.015996 24.0626667,100.896 C24.0626667,101.776004 24.2279983,102.446664 24.5586667,102.908 C24.889335,103.369336 25.4013299,103.6 26.0946667,103.6 Z M33.4946667,96.792 L33.4946667,102.008 C33.4946667,102.509336 33.6106655,102.897332 33.8426667,103.172 C34.0746678,103.446668 34.4226643,103.584 34.8866667,103.584 C35.2280017,103.584 35.5479985,103.508001 35.8466667,103.356 C36.1453348,103.203999 36.4279987,102.994668 36.6946667,102.728 L36.6946667,96.792 L38.6706667,96.792 L38.6706667,105 L37.4626667,105 C37.2066654,105 37.0386671,104.880001 36.9586667,104.64 L36.8226667,103.984 C36.6519991,104.154668 36.4760009,104.310666 36.2946667,104.452 C36.1133324,104.593334 35.920001,104.713333 35.7146667,104.812 C35.5093323,104.910667 35.2880012,104.988 35.0506667,105.044 C34.8133321,105.1 34.558668,105.128 34.2866667,105.128 C33.8386644,105.128 33.4426684,105.052001 33.0986667,104.9 C32.7546649,104.747999 32.4653345,104.533335 32.2306667,104.256 C31.9959988,103.978665 31.8186673,103.649335 31.6986667,103.268 C31.5786661,102.886665 31.5186667,102.466669 31.5186667,102.008 L31.5186667,96.792 L33.4946667,96.792 Z M40.7826667,105 L40.7826667,96.792 L41.9906667,96.792 C42.2466679,96.792 42.4146663,96.9119988 42.4946667,97.152 L42.6306667,97.8 C42.7960008,97.6293325 42.9706657,97.4746674 43.1546667,97.336 C43.3386676,97.1973326 43.5333323,97.0773338 43.7386667,96.976 C43.944001,96.8746662 44.1639988,96.7973336 44.3986667,96.744 C44.6333345,96.6906664 44.8893319,96.664 45.1666667,96.664 C45.6146689,96.664 46.0119983,96.7399992 46.3586667,96.892 C46.7053351,97.0440008 46.9946655,97.257332 47.2266667,97.532 C47.4586678,97.806668 47.6346661,98.1346648 47.7546667,98.516 C47.8746673,98.8973352 47.9346667,99.317331 47.9346667,99.776 L47.9346667,105 L45.9586667,105 L45.9586667,99.776 C45.9586667,99.2746642 45.8426678,98.886668 45.6106667,98.612 C45.3786655,98.337332 45.030669,98.2 44.5666667,98.2 C44.2253316,98.2 43.9053348,98.2773326 43.6066667,98.432 C43.3079985,98.5866674 43.0253347,98.797332 42.7586667,99.064 L42.7586667,105 L40.7826667,105 Z M52.7186667,96.648 C53.0706684,96.648 53.4013318,96.6839996 53.7106667,96.756 C54.0200015,96.8280004 54.3026654,96.9333326 54.5586667,97.072 L56.9186667,97.072 L56.9186667,97.808 C56.9186667,97.9306673 56.886667,98.0266663 56.8226667,98.096 C56.7586663,98.1653337 56.6493341,98.2133332 56.4946667,98.24 L55.7586667,98.376 C55.8120003,98.5146674 55.8533332,98.6613326 55.8826667,98.816 C55.9120001,98.9706674 55.9266667,99.1333325 55.9266667,99.304 C55.9266667,99.7093354 55.8453341,100.075998 55.6826667,100.404 C55.5199992,100.732002 55.2960014,101.010666 55.0106667,101.24 C54.7253319,101.469334 54.3866686,101.646666 53.9946667,101.772 C53.6026647,101.897334 53.1773356,101.96 52.7186667,101.96 C52.4093318,101.96 52.1080015,101.930667 51.8146667,101.872 C51.5586654,102.026667 51.4306667,102.199999 51.4306667,102.392 C51.4306667,102.557334 51.5066659,102.678666 51.6586667,102.756 C51.8106674,102.833334 52.0106654,102.888 52.2586667,102.92 C52.5066679,102.952 52.7879984,102.972 53.1026667,102.98 C53.4173349,102.988 53.7399983,103.005333 54.0706667,103.032 C54.401335,103.058667 54.7239984,103.105333 55.0386667,103.172 C55.3533349,103.238667 55.6346654,103.343999 55.8826667,103.488 C56.1306679,103.632001 56.3306659,103.827999 56.4826667,104.076 C56.6346674,104.324001 56.7106667,104.642665 56.7106667,105.032 C56.7106667,105.394668 56.6213342,105.746665 56.4426667,106.088 C56.2639991,106.429335 56.005335,106.733332 55.6666667,107 C55.3279983,107.266668 54.9133358,107.481333 54.4226667,107.644 C53.9319975,107.806667 53.3720031,107.888 52.7426667,107.888 C52.1186635,107.888 51.5773356,107.828001 51.1186667,107.708 C50.6599977,107.587999 50.2800015,107.428001 49.9786667,107.228 C49.6773318,107.027999 49.4520007,106.797335 49.3026667,106.536 C49.1533326,106.274665 49.0786667,106.002668 49.0786667,105.72 C49.0786667,105.335998 49.1959988,105.013335 49.4306667,104.752 C49.6653345,104.490665 49.9906646,104.282667 50.4066667,104.128 C50.203999,104.015999 50.0413339,103.866668 49.9186667,103.68 C49.7959994,103.493332 49.7346667,103.250668 49.7346667,102.952 C49.7346667,102.829333 49.7559998,102.702667 49.7986667,102.572 C49.8413335,102.441333 49.9066662,102.312001 49.9946667,102.184 C50.0826671,102.055999 50.1933327,101.934667 50.3266667,101.82 C50.4600007,101.705333 50.6173324,101.602667 50.7986667,101.512 C50.3826646,101.287999 50.0560012,100.989335 49.8186667,100.616 C49.5813321,100.242665 49.4626667,99.8053358 49.4626667,99.304 C49.4626667,98.8986646 49.5439992,98.5320016 49.7066667,98.204 C49.8693341,97.8759984 50.0959985,97.5960012 50.3866667,97.364 C50.6773348,97.1319988 51.0213313,96.9546673 51.4186667,96.832 C51.816002,96.7093327 52.249331,96.648 52.7186667,96.648 Z M54.8866667,105.368 C54.8866667,105.207999 54.8386671,105.077334 54.7426667,104.976 C54.6466662,104.874666 54.5160008,104.796 54.3506667,104.74 C54.1853325,104.684 53.9920011,104.642667 53.7706667,104.616 C53.5493322,104.589333 53.3146679,104.569333 53.0666667,104.556 C52.8186654,104.542667 52.562668,104.529333 52.2986667,104.516 C52.0346653,104.502667 51.7800012,104.48 51.5346667,104.448 C51.3106655,104.570667 51.1306673,104.715999 50.9946667,104.884 C50.858666,105.052001 50.7906667,105.245332 50.7906667,105.464 C50.7906667,105.608001 50.8266663,105.742666 50.8986667,105.868 C50.970667,105.993334 51.0853325,106.101333 51.2426667,106.192 C51.4000008,106.282667 51.6039987,106.353333 51.8546667,106.404 C52.1053346,106.454667 52.4119982,106.48 52.7746667,106.48 C53.1426685,106.48 53.4599987,106.452 53.7266667,106.396 C53.9933347,106.34 54.2133325,106.262667 54.3866667,106.164 C54.5600009,106.065333 54.6866663,105.948001 54.7666667,105.812 C54.8466671,105.675999 54.8866667,105.528001 54.8866667,105.368 Z M52.7186667,100.696 C52.9640012,100.696 53.1773324,100.662667 53.3586667,100.596 C53.5400009,100.529333 53.6906661,100.437334 53.8106667,100.32 C53.9306673,100.202666 54.021333,100.061334 54.0826667,99.896 C54.1440003,99.7306658 54.1746667,99.5493343 54.1746667,99.352 C54.1746667,98.9466646 54.0533345,98.6253345 53.8106667,98.388 C53.5679988,98.1506655 53.2040024,98.032 52.7186667,98.032 C52.2333309,98.032 51.8693345,98.1506655 51.6266667,98.388 C51.3839988,98.6253345 51.2626667,98.9466646 51.2626667,99.352 C51.2626667,99.544001 51.293333,99.7226658 51.3546667,99.888 C51.4160003,100.053334 51.5066661,100.195999 51.6266667,100.316 C51.7466673,100.436001 51.8986657,100.529333 52.0826667,100.596 C52.2666676,100.662667 52.4786655,100.696 52.7186667,100.696 Z M69.3106667,102.272 C69.4280006,102.272 69.5293329,102.317333 69.6146667,102.408 L70.4626667,103.328 C69.993331,103.909336 69.4160034,104.354665 68.7306667,104.664 C68.0453299,104.973335 67.2226715,105.128 66.2626667,105.128 C65.4039957,105.128 64.6320034,104.981335 63.9466667,104.688 C63.2613299,104.394665 62.6760024,103.986669 62.1906667,103.464 C61.7053309,102.941331 61.3333346,102.317337 61.0746667,101.592 C60.8159987,100.866663 60.6866667,100.074671 60.6866667,99.216 C60.6866667,98.3466623 60.8306652,97.5506703 61.1186667,96.828 C61.4066681,96.1053297 61.8119974,95.4826693 62.3346667,94.96 C62.8573359,94.4373307 63.482663,94.0306681 64.2106667,93.74 C64.9386703,93.4493319 65.7426623,93.304 66.6226667,93.304 C67.4813376,93.304 68.2319968,93.441332 68.8746667,93.716 C69.5173365,93.990668 70.0679977,94.3546644 70.5266667,94.808 L69.8066667,95.808 C69.7639998,95.8720003 69.7093337,95.9279998 69.6426667,95.976 C69.5759997,96.0240002 69.4840006,96.048 69.3666667,96.048 C69.2439994,96.048 69.1186673,96.0000005 68.9906667,95.904 C68.862666,95.8079995 68.700001,95.7040006 68.5026667,95.592 C68.3053323,95.4799994 68.0560015,95.3760005 67.7546667,95.28 C67.4533318,95.1839995 67.070669,95.136 66.6066667,95.136 C66.0626639,95.136 65.5626689,95.2306657 65.1066667,95.42 C64.6506644,95.6093343 64.2586683,95.8799982 63.9306667,96.232 C63.602665,96.5840018 63.3466676,97.0119975 63.1626667,97.516 C62.9786657,98.0200025 62.8866667,98.5866635 62.8866667,99.216 C62.8866667,99.8666699 62.9786657,100.445331 63.1626667,100.952 C63.3466676,101.458669 63.5959984,101.885332 63.9106667,102.232 C64.2253349,102.578668 64.5959979,102.843999 65.0226667,103.028 C65.4493355,103.212001 65.9079975,103.304 66.3986667,103.304 C66.6920015,103.304 66.9573321,103.288 67.1946667,103.256 C67.4320012,103.224 67.6506657,103.173334 67.8506667,103.104 C68.0506677,103.034666 68.2399991,102.945334 68.4186667,102.836 C68.5973342,102.726666 68.7746658,102.592001 68.9506667,102.432 C69.0040003,102.384 69.0599997,102.345333 69.1186667,102.316 C69.1773336,102.286667 69.241333,102.272 69.3106667,102.272 Z M71.9746667,105 L71.9746667,93.112 L73.9506667,93.112 L73.9506667,97.68 C74.2706683,97.3759985 74.6226647,97.1306676 75.0066667,96.944 C75.3906686,96.7573324 75.8413307,96.664 76.3586667,96.664 C76.8066689,96.664 77.2039983,96.7399992 77.5506667,96.892 C77.8973351,97.0440008 78.1866655,97.257332 78.4186667,97.532 C78.6506678,97.806668 78.8266661,98.1346648 78.9466667,98.516 C79.0666673,98.8973352 79.1266667,99.317331 79.1266667,99.776 L79.1266667,105 L77.1506667,105 L77.1506667,99.776 C77.1506667,99.2746642 77.0346678,98.886668 76.8026667,98.612 C76.5706655,98.337332 76.222669,98.2 75.7586667,98.2 C75.4173316,98.2 75.0973348,98.2773326 74.7986667,98.432 C74.4999985,98.5866674 74.2173347,98.797332 73.9506667,99.064 L73.9506667,105 L71.9746667,105 Z M83.1746667,96.792 L83.1746667,105 L81.1986667,105 L81.1986667,96.792 L83.1746667,96.792 Z M83.4706667,94.4 C83.4706667,94.5706675 83.4360003,94.7306659 83.3666667,94.88 C83.297333,95.0293341 83.2053339,95.1599994 83.0906667,95.272 C82.9759994,95.3840006 82.8413341,95.473333 82.6866667,95.54 C82.5319992,95.606667 82.3666675,95.64 82.1906667,95.64 C82.0199991,95.64 81.8586674,95.606667 81.7066667,95.54 C81.5546659,95.473333 81.4226672,95.3840006 81.3106667,95.272 C81.1986661,95.1599994 81.1093337,95.0293341 81.0426667,94.88 C80.9759997,94.7306659 80.9426667,94.5706675 80.9426667,94.4 C80.9426667,94.2239991 80.9759997,94.0586674 81.0426667,93.904 C81.1093337,93.7493326 81.1986661,93.6160006 81.3106667,93.504 C81.4226672,93.3919994 81.5546659,93.302667 81.7066667,93.236 C81.8586674,93.169333 82.0199991,93.136 82.1906667,93.136 C82.3666675,93.136 82.5319992,93.169333 82.6866667,93.236 C82.8413341,93.302667 82.9759994,93.3919994 83.0906667,93.504 C83.2053339,93.6160006 83.297333,93.7493326 83.3666667,93.904 C83.4360003,94.0586674 83.4706667,94.2239991 83.4706667,94.4 Z M87.5106667,93.112 L87.5106667,105 L85.5346667,105 L85.5346667,93.112 L87.5106667,93.112 Z M95.5186667,105 C95.2626654,105 95.0946671,104.880001 95.0146667,104.64 L94.8546667,103.848 C94.6839991,104.040001 94.5053343,104.213333 94.3186667,104.368 C94.1319991,104.522667 93.9306677,104.655999 93.7146667,104.768 C93.4986656,104.880001 93.2666679,104.966666 93.0186667,105.028 C92.7706654,105.089334 92.5026681,105.12 92.2146667,105.12 C91.7666644,105.12 91.3560019,105.026668 90.9826667,104.84 C90.6093315,104.653332 90.2880013,104.382668 90.0186667,104.028 C89.749332,103.673332 89.5413341,103.234669 89.3946667,102.712 C89.2479993,102.189331 89.1746667,101.592003 89.1746667,100.92 C89.1746667,100.311997 89.2573325,99.7466693 89.4226667,99.224 C89.5880008,98.7013307 89.8253318,98.2480019 90.1346667,97.864 C90.4440015,97.4799981 90.8146645,97.1800011 91.2466667,96.964 C91.6786688,96.7479989 92.1639973,96.64 92.7026667,96.64 C93.1613356,96.64 93.5533317,96.7133326 93.8786667,96.86 C94.2040016,97.0066674 94.4946654,97.2026654 94.7506667,97.448 L94.7506667,93.112 L96.7266667,93.112 L96.7266667,105 L95.5186667,105 Z M92.8866667,103.552 C93.2973354,103.552 93.6466652,103.466668 93.9346667,103.296 C94.2226681,103.125332 94.4946654,102.882668 94.7506667,102.568 L94.7506667,98.888 C94.5266655,98.6159986 94.282668,98.4240006 94.0186667,98.312 C93.7546653,98.1999994 93.4706682,98.144 93.1666667,98.144 C92.8679985,98.144 92.5973345,98.1999994 92.3546667,98.312 C92.1119988,98.4240006 91.9066675,98.5933322 91.7386667,98.82 C91.5706658,99.0466678 91.4413338,99.3346649 91.3506667,99.684 C91.2599995,100.033335 91.2146667,100.445331 91.2146667,100.92 C91.2146667,101.400002 91.2533329,101.806665 91.3306667,102.14 C91.4080004,102.473335 91.5186659,102.745332 91.6626667,102.956 C91.8066674,103.166668 91.9826656,103.318666 92.1906667,103.412 C92.3986677,103.505334 92.6306654,103.552 92.8866667,103.552 Z M98.8626667,105 L98.8626667,96.792 L100.022667,96.792 C100.225334,96.792 100.366666,96.829333 100.446667,96.904 C100.526667,96.978667 100.58,97.1066658 100.606667,97.288 L100.726667,98.28 C101.020001,97.7733308 101.363998,97.3733348 101.758667,97.08 C102.153335,96.7866652 102.595998,96.64 103.086667,96.64 C103.492002,96.64 103.827999,96.7333324 104.094667,96.92 L103.838667,98.4 C103.822667,98.4960005 103.788,98.5639998 103.734667,98.604 C103.681333,98.6440002 103.609334,98.664 103.518667,98.664 C103.438666,98.664 103.329334,98.6453335 103.190667,98.608 C103.051999,98.5706665 102.868001,98.552 102.638667,98.552 C102.227998,98.552 101.876001,98.6653322 101.582667,98.892 C101.289332,99.1186678 101.041334,99.4506645 100.838667,99.888 L100.838667,105 L98.8626667,105 Z M108.790667,96.664 C109.308003,96.664 109.783998,96.7466658 110.218667,96.912 C110.653336,97.0773342 111.027998,97.3186651 111.342667,97.636 C111.657335,97.9533349 111.902666,98.3426644 112.078667,98.804 C112.254668,99.2653356 112.342667,99.791997 112.342667,100.384 C112.342667,100.533334 112.336,100.657333 112.322667,100.756 C112.309333,100.854667 112.285334,100.932 112.250667,100.988 C112.216,101.044 112.169334,101.084 112.110667,101.108 C112.052,101.132 111.977334,101.144 111.886667,101.144 L106.814667,101.144 C106.873334,101.986671 107.099998,102.605331 107.494667,103 C107.889335,103.394669 108.411997,103.592 109.062667,103.592 C109.382668,103.592 109.658666,103.554667 109.890667,103.48 C110.122668,103.405333 110.325332,103.322667 110.498667,103.232 C110.672001,103.141333 110.823999,103.058667 110.954667,102.984 C111.085334,102.909333 111.211999,102.872 111.334667,102.872 C111.414667,102.872 111.484,102.888 111.542667,102.92 C111.601334,102.952 111.652,102.997333 111.694667,103.056 L112.270667,103.776 C112.051999,104.032001 111.806668,104.246666 111.534667,104.42 C111.262665,104.593334 110.978668,104.731999 110.682667,104.836 C110.386665,104.940001 110.085335,105.013333 109.778667,105.056 C109.471998,105.098667 109.174668,105.12 108.886667,105.12 C108.315997,105.12 107.785336,105.025334 107.294667,104.836 C106.803998,104.646666 106.377335,104.366669 106.014667,103.996 C105.651998,103.625331 105.366668,103.166669 105.158667,102.62 C104.950666,102.073331 104.846667,101.440004 104.846667,100.72 C104.846667,100.159997 104.937332,99.6333358 105.118667,99.14 C105.300001,98.6466642 105.559998,98.2173352 105.898667,97.852 C106.237335,97.4866648 106.650664,97.1973344 107.138667,96.984 C107.626669,96.7706656 108.17733,96.664 108.790667,96.664 Z M108.830667,98.08 C108.254664,98.08 107.804002,98.242665 107.478667,98.568 C107.153332,98.893335 106.945334,99.3546637 106.854667,99.952 L110.566667,99.952 C110.566667,99.6959987 110.532,99.4546678 110.462667,99.228 C110.393333,99.0013322 110.286667,98.8026675 110.142667,98.632 C109.998666,98.4613325 109.817334,98.3266672 109.598667,98.228 C109.379999,98.1293328 109.124001,98.08 108.830667,98.08 Z M113.950667,105 L113.950667,96.792 L115.158667,96.792 C115.414668,96.792 115.582666,96.9119988 115.662667,97.152 L115.798667,97.8 C115.964001,97.6293325 116.138666,97.4746674 116.322667,97.336 C116.506668,97.1973326 116.701332,97.0773338 116.906667,96.976 C117.112001,96.8746662 117.331999,96.7973336 117.566667,96.744 C117.801335,96.6906664 118.057332,96.664 118.334667,96.664 C118.782669,96.664 119.179998,96.7399992 119.526667,96.892 C119.873335,97.0440008 120.162666,97.257332 120.394667,97.532 C120.626668,97.806668 120.802666,98.1346648 120.922667,98.516 C121.042667,98.8973352 121.102667,99.317331 121.102667,99.776 L121.102667,105 L119.126667,105 L119.126667,99.776 C119.126667,99.2746642 119.010668,98.886668 118.778667,98.612 C118.546666,98.337332 118.198669,98.2 117.734667,98.2 C117.393332,98.2 117.073335,98.2773326 116.774667,98.432 C116.475999,98.5866674 116.193335,98.797332 115.926667,99.064 L115.926667,105 L113.950667,105 Z M3.62266667,118.984 C3.62266667,120.082672 3.75599867,121.162661 4.02266667,122.224 C4.28933467,123.285339 4.67066419,124.282662 5.16666667,125.216 C5.20400019,125.285334 5.22933327,125.349333 5.24266667,125.408 C5.25600007,125.466667 5.26266667,125.52 5.26266667,125.568 C5.26266667,125.674667 5.23600027,125.761333 5.18266667,125.828 C5.12933307,125.894667 5.06533371,125.949333 4.99066667,125.992 L4.11066667,126.528 C3.71599803,125.919997 3.38000139,125.309336 3.10266667,124.696 C2.82533195,124.082664 2.59866755,123.464003 2.42266667,122.84 C2.24666579,122.215997 2.11733375,121.584003 2.03466667,120.944 C1.95199959,120.303997 1.91066667,119.65067 1.91066667,118.984 C1.91066667,118.31733 1.95199959,117.66267 2.03466667,117.02 C2.11733375,116.37733 2.24666579,115.744003 2.42266667,115.12 C2.59866755,114.495997 2.82533195,113.87867 3.10266667,113.268 C3.38000139,112.65733 3.71599803,112.048003 4.11066667,111.44 L4.99066667,111.968 C5.06533371,112.010667 5.12933307,112.065333 5.18266667,112.132 C5.23600027,112.198667 5.26266667,112.282666 5.26266667,112.384 C5.26266667,112.485334 5.22800035,112.605333 5.15866667,112.744 C4.66799755,113.677338 4.28933467,114.675995 4.02266667,115.74 C3.75599867,116.804005 3.62266667,117.885328 3.62266667,118.984 Z M17.1986667,124 L15.5346667,124 C15.3479991,124 15.1946673,123.953334 15.0746667,123.86 C14.9546661,123.766666 14.8680003,123.650667 14.8146667,123.512 L13.9506667,121.152 L9.15866667,121.152 L8.29466667,123.512 C8.25199979,123.634667 8.16800063,123.746666 8.04266667,123.848 C7.91733271,123.949334 7.76400091,124 7.58266667,124 L5.91066667,124 L10.4546667,112.432 L12.6546667,112.432 L17.1986667,124 Z M9.71066667,119.632 L13.3986667,119.632 L11.9906667,115.784 C11.9266663,115.613332 11.8560004,115.412001 11.7786667,115.18 C11.7013329,114.947999 11.6253337,114.696001 11.5506667,114.424 C11.4759996,114.696001 11.402667,114.949332 11.3306667,115.184 C11.2586663,115.418668 11.1880003,115.623999 11.1186667,115.8 L9.71066667,119.632 Z M21.1186667,115.648 C21.4706684,115.648 21.8013318,115.684 22.1106667,115.756 C22.4200015,115.828 22.7026654,115.933333 22.9586667,116.072 L25.3186667,116.072 L25.3186667,116.808 C25.3186667,116.930667 25.286667,117.026666 25.2226667,117.096 C25.1586663,117.165334 25.0493341,117.213333 24.8946667,117.24 L24.1586667,117.376 C24.2120003,117.514667 24.2533332,117.661333 24.2826667,117.816 C24.3120001,117.970667 24.3266667,118.133332 24.3266667,118.304 C24.3266667,118.709335 24.2453341,119.075998 24.0826667,119.404 C23.9199992,119.732002 23.6960014,120.010666 23.4106667,120.24 C23.1253319,120.469334 22.7866686,120.646666 22.3946667,120.772 C22.0026647,120.897334 21.5773356,120.96 21.1186667,120.96 C20.8093318,120.96 20.5080015,120.930667 20.2146667,120.872 C19.9586654,121.026667 19.8306667,121.199999 19.8306667,121.392 C19.8306667,121.557334 19.9066659,121.678666 20.0586667,121.756 C20.2106674,121.833334 20.4106654,121.888 20.6586667,121.92 C20.9066679,121.952 21.1879984,121.972 21.5026667,121.98 C21.8173349,121.988 22.1399983,122.005333 22.4706667,122.032 C22.801335,122.058667 23.1239984,122.105333 23.4386667,122.172 C23.7533349,122.238667 24.0346654,122.343999 24.2826667,122.488 C24.5306679,122.632001 24.7306659,122.827999 24.8826667,123.076 C25.0346674,123.324001 25.1106667,123.642665 25.1106667,124.032 C25.1106667,124.394668 25.0213342,124.746665 24.8426667,125.088 C24.6639991,125.429335 24.405335,125.733332 24.0666667,126 C23.7279983,126.266668 23.3133358,126.481333 22.8226667,126.644 C22.3319975,126.806667 21.7720031,126.888 21.1426667,126.888 C20.5186635,126.888 19.9773356,126.828001 19.5186667,126.708 C19.0599977,126.587999 18.6800015,126.428001 18.3786667,126.228 C18.0773318,126.027999 17.8520007,125.797335 17.7026667,125.536 C17.5533326,125.274665 17.4786667,125.002668 17.4786667,124.72 C17.4786667,124.335998 17.5959988,124.013335 17.8306667,123.752 C18.0653345,123.490665 18.3906646,123.282667 18.8066667,123.128 C18.603999,123.015999 18.4413339,122.866668 18.3186667,122.68 C18.1959994,122.493332 18.1346667,122.250668 18.1346667,121.952 C18.1346667,121.829333 18.1559998,121.702667 18.1986667,121.572 C18.2413335,121.441333 18.3066662,121.312001 18.3946667,121.184 C18.4826671,121.055999 18.5933327,120.934667 18.7266667,120.82 C18.8600007,120.705333 19.0173324,120.602667 19.1986667,120.512 C18.7826646,120.287999 18.4560012,119.989335 18.2186667,119.616 C17.9813321,119.242665 17.8626667,118.805336 17.8626667,118.304 C17.8626667,117.898665 17.9439992,117.532002 18.1066667,117.204 C18.2693341,116.875998 18.4959985,116.596001 18.7866667,116.364 C19.0773348,116.131999 19.4213313,115.954667 19.8186667,115.832 C20.216002,115.709333 20.649331,115.648 21.1186667,115.648 Z M23.2866667,124.368 C23.2866667,124.207999 23.2386671,124.077334 23.1426667,123.976 C23.0466662,123.874666 22.9160008,123.796 22.7506667,123.74 C22.5853325,123.684 22.3920011,123.642667 22.1706667,123.616 C21.9493322,123.589333 21.7146679,123.569333 21.4666667,123.556 C21.2186654,123.542667 20.962668,123.529333 20.6986667,123.516 C20.4346653,123.502667 20.1800012,123.48 19.9346667,123.448 C19.7106655,123.570667 19.5306673,123.715999 19.3946667,123.884 C19.258666,124.052001 19.1906667,124.245332 19.1906667,124.464 C19.1906667,124.608001 19.2266663,124.742666 19.2986667,124.868 C19.370667,124.993334 19.4853325,125.101333 19.6426667,125.192 C19.8000008,125.282667 20.0039987,125.353333 20.2546667,125.404 C20.5053346,125.454667 20.8119982,125.48 21.1746667,125.48 C21.5426685,125.48 21.8599987,125.452 22.1266667,125.396 C22.3933347,125.34 22.6133325,125.262667 22.7866667,125.164 C22.9600009,125.065333 23.0866663,124.948001 23.1666667,124.812 C23.2466671,124.675999 23.2866667,124.528001 23.2866667,124.368 Z M21.1186667,119.696 C21.3640012,119.696 21.5773324,119.662667 21.7586667,119.596 C21.9400009,119.529333 22.0906661,119.437334 22.2106667,119.32 C22.3306673,119.202666 22.421333,119.061334 22.4826667,118.896 C22.5440003,118.730666 22.5746667,118.549334 22.5746667,118.352 C22.5746667,117.946665 22.4533345,117.625335 22.2106667,117.388 C21.9679988,117.150665 21.6040024,117.032 21.1186667,117.032 C20.6333309,117.032 20.2693345,117.150665 20.0266667,117.388 C19.7839988,117.625335 19.6626667,117.946665 19.6626667,118.352 C19.6626667,118.544001 19.693333,118.722666 19.7546667,118.888 C19.8160003,119.053334 19.9066661,119.195999 20.0266667,119.316 C20.1466673,119.436001 20.2986657,119.529333 20.4826667,119.596 C20.6666676,119.662667 20.8786655,119.696 21.1186667,119.696 Z M29.9506667,115.664 C30.4680026,115.664 30.9439978,115.746666 31.3786667,115.912 C31.8133355,116.077334 32.1879984,116.318665 32.5026667,116.636 C32.8173349,116.953335 33.0626658,117.342664 33.2386667,117.804 C33.4146675,118.265336 33.5026667,118.791997 33.5026667,119.384 C33.5026667,119.533334 33.4960001,119.657333 33.4826667,119.756 C33.4693333,119.854667 33.4453335,119.932 33.4106667,119.988 C33.3759998,120.044 33.3293336,120.084 33.2706667,120.108 C33.2119997,120.132 33.1373338,120.144 33.0466667,120.144 L27.9746667,120.144 C28.0333336,120.986671 28.259998,121.605331 28.6546667,122 C29.0493353,122.394669 29.5719967,122.592 30.2226667,122.592 C30.5426683,122.592 30.8186655,122.554667 31.0506667,122.48 C31.2826678,122.405333 31.4853325,122.322667 31.6586667,122.232 C31.8320009,122.141333 31.9839993,122.058667 32.1146667,121.984 C32.245334,121.909333 32.3719994,121.872 32.4946667,121.872 C32.5746671,121.872 32.6439997,121.888 32.7026667,121.92 C32.7613336,121.952 32.8119998,121.997333 32.8546667,122.056 L33.4306667,122.776 C33.2119989,123.032001 32.966668,123.246666 32.6946667,123.42 C32.4226653,123.593334 32.1386681,123.731999 31.8426667,123.836 C31.5466652,123.940001 31.2453349,124.013333 30.9386667,124.056 C30.6319985,124.098667 30.3346681,124.12 30.0466667,124.12 C29.4759971,124.12 28.9453358,124.025334 28.4546667,123.836 C27.9639975,123.646666 27.5373351,123.366669 27.1746667,122.996 C26.8119982,122.625331 26.5266677,122.166669 26.3186667,121.62 C26.1106656,121.073331 26.0066667,120.440004 26.0066667,119.72 C26.0066667,119.159997 26.0973324,118.633336 26.2786667,118.14 C26.4600009,117.646664 26.7199983,117.217335 27.0586667,116.852 C27.397335,116.486665 27.8106642,116.197334 28.2986667,115.984 C28.7866691,115.770666 29.3373303,115.664 29.9506667,115.664 Z M29.9906667,117.08 C29.4146638,117.08 28.9640016,117.242665 28.6386667,117.568 C28.3133317,117.893335 28.1053338,118.354664 28.0146667,118.952 L31.7266667,118.952 C31.7266667,118.695999 31.6920003,118.454668 31.6226667,118.228 C31.553333,118.001332 31.4466674,117.802668 31.3026667,117.632 C31.1586659,117.461332 30.9773344,117.326667 30.7586667,117.228 C30.5399989,117.129333 30.2840015,117.08 29.9906667,117.08 Z M40.4626667,122.224 L45.0946667,122.224 L45.0946667,124 L38.3106667,124 L38.3106667,112.432 L40.4626667,112.432 L40.4626667,122.224 Z M49.5586667,115.664 C50.0760026,115.664 50.5519978,115.746666 50.9866667,115.912 C51.4213355,116.077334 51.7959984,116.318665 52.1106667,116.636 C52.4253349,116.953335 52.6706658,117.342664 52.8466667,117.804 C53.0226675,118.265336 53.1106667,118.791997 53.1106667,119.384 C53.1106667,119.533334 53.1040001,119.657333 53.0906667,119.756 C53.0773333,119.854667 53.0533335,119.932 53.0186667,119.988 C52.9839998,120.044 52.9373336,120.084 52.8786667,120.108 C52.8199997,120.132 52.7453338,120.144 52.6546667,120.144 L47.5826667,120.144 C47.6413336,120.986671 47.867998,121.605331 48.2626667,122 C48.6573353,122.394669 49.1799967,122.592 49.8306667,122.592 C50.1506683,122.592 50.4266655,122.554667 50.6586667,122.48 C50.8906678,122.405333 51.0933325,122.322667 51.2666667,122.232 C51.4400009,122.141333 51.5919993,122.058667 51.7226667,121.984 C51.853334,121.909333 51.9799994,121.872 52.1026667,121.872 C52.1826671,121.872 52.2519997,121.888 52.3106667,121.92 C52.3693336,121.952 52.4199998,121.997333 52.4626667,122.056 L53.0386667,122.776 C52.8199989,123.032001 52.574668,123.246666 52.3026667,123.42 C52.0306653,123.593334 51.7466681,123.731999 51.4506667,123.836 C51.1546652,123.940001 50.8533349,124.013333 50.5466667,124.056 C50.2399985,124.098667 49.9426681,124.12 49.6546667,124.12 C49.0839971,124.12 48.5533358,124.025334 48.0626667,123.836 C47.5719975,123.646666 47.1453351,123.366669 46.7826667,122.996 C46.4199982,122.625331 46.1346677,122.166669 45.9266667,121.62 C45.7186656,121.073331 45.6146667,120.440004 45.6146667,119.72 C45.6146667,119.159997 45.7053324,118.633336 45.8866667,118.14 C46.0680009,117.646664 46.3279983,117.217335 46.6666667,116.852 C47.005335,116.486665 47.4186642,116.197334 47.9066667,115.984 C48.3946691,115.770666 48.9453303,115.664 49.5586667,115.664 Z M49.5986667,117.08 C49.0226638,117.08 48.5720016,117.242665 48.2466667,117.568 C47.9213317,117.893335 47.7133338,118.354664 47.6226667,118.952 L51.3346667,118.952 C51.3346667,118.695999 51.3000003,118.454668 51.2306667,118.228 C51.161333,118.001332 51.0546674,117.802668 50.9106667,117.632 C50.7666659,117.461332 50.5853344,117.326667 50.3666667,117.228 C50.1479989,117.129333 49.8920015,117.08 49.5986667,117.08 Z M59.5906667,117.392 C59.5373331,117.477334 59.4813336,117.537333 59.4226667,117.572 C59.3639997,117.606667 59.2893338,117.624 59.1986667,117.624 C59.1026662,117.624 59.0000005,117.597334 58.8906667,117.544 C58.7813328,117.490666 58.6546674,117.430667 58.5106667,117.364 C58.3666659,117.297333 58.2026676,117.237334 58.0186667,117.184 C57.8346657,117.130666 57.6173346,117.104 57.3666667,117.104 C56.9773314,117.104 56.6706678,117.186666 56.4466667,117.352 C56.2226655,117.517334 56.1106667,117.733332 56.1106667,118 C56.1106667,118.176001 56.1679994,118.323999 56.2826667,118.444 C56.3973339,118.564001 56.5493324,118.669333 56.7386667,118.76 C56.9280009,118.850667 57.1426655,118.932 57.3826667,119.004 C57.6226679,119.076 57.8679987,119.154666 58.1186667,119.24 C58.3693346,119.325334 58.6146655,119.422666 58.8546667,119.532 C59.0946679,119.641334 59.3093324,119.779999 59.4986667,119.948 C59.6880009,120.116001 59.8399994,120.317332 59.9546667,120.552 C60.0693339,120.786668 60.1266667,121.069332 60.1266667,121.4 C60.1266667,121.794669 60.0546674,122.158665 59.9106667,122.492 C59.7666659,122.825335 59.5560014,123.113332 59.2786667,123.356 C59.0013319,123.598668 58.6586687,123.787999 58.2506667,123.924 C57.8426646,124.060001 57.3746693,124.128 56.8466667,124.128 C56.5639986,124.128 56.2880013,124.102667 56.0186667,124.052 C55.749332,124.001333 55.4906679,123.930667 55.2426667,123.84 C54.9946654,123.749333 54.7653344,123.642667 54.5546667,123.52 C54.3439989,123.397333 54.1586675,123.264001 53.9986667,123.12 L54.4546667,122.368 C54.5133336,122.277333 54.5826663,122.208 54.6626667,122.16 C54.7426671,122.112 54.8439994,122.088 54.9666667,122.088 C55.0893339,122.088 55.2053328,122.122666 55.3146667,122.192 C55.4240005,122.261334 55.5506659,122.336 55.6946667,122.416 C55.8386674,122.496 56.007999,122.570666 56.2026667,122.64 C56.3973343,122.709334 56.6439985,122.744 56.9426667,122.744 C57.1773345,122.744 57.3786658,122.716 57.5466667,122.66 C57.7146675,122.604 57.8533328,122.530667 57.9626667,122.44 C58.0720005,122.349333 58.1519997,122.244001 58.2026667,122.124 C58.2533336,122.003999 58.2786667,121.880001 58.2786667,121.752 C58.2786667,121.559999 58.2213339,121.402667 58.1066667,121.28 C57.9919994,121.157333 57.8400009,121.050667 57.6506667,120.96 C57.4613324,120.869333 57.2453345,120.788 57.0026667,120.716 C56.7599988,120.644 56.5120013,120.565334 56.2586667,120.48 C56.0053321,120.394666 55.7573345,120.294667 55.5146667,120.18 C55.2719988,120.065333 55.0560009,119.920001 54.8666667,119.744 C54.6773324,119.567999 54.5253339,119.352001 54.4106667,119.096 C54.2959994,118.839999 54.2386667,118.530668 54.2386667,118.168 C54.2386667,117.831998 54.3053327,117.512002 54.4386667,117.208 C54.5720007,116.903998 54.7679987,116.638668 55.0266667,116.412 C55.2853346,116.185332 55.6079981,116.004001 55.9946667,115.868 C56.3813353,115.731999 56.8279975,115.664 57.3346667,115.664 C57.9000028,115.664 58.4146643,115.757332 58.8786667,115.944 C59.342669,116.130668 59.7293318,116.375998 60.0386667,116.68 L59.5906667,117.392 Z M66.5826667,117.392 C66.5293331,117.477334 66.4733336,117.537333 66.4146667,117.572 C66.3559997,117.606667 66.2813338,117.624 66.1906667,117.624 C66.0946662,117.624 65.9920005,117.597334 65.8826667,117.544 C65.7733328,117.490666 65.6466674,117.430667 65.5026667,117.364 C65.3586659,117.297333 65.1946676,117.237334 65.0106667,117.184 C64.8266657,117.130666 64.6093346,117.104 64.3586667,117.104 C63.9693314,117.104 63.6626678,117.186666 63.4386667,117.352 C63.2146655,117.517334 63.1026667,117.733332 63.1026667,118 C63.1026667,118.176001 63.1599994,118.323999 63.2746667,118.444 C63.3893339,118.564001 63.5413324,118.669333 63.7306667,118.76 C63.9200009,118.850667 64.1346655,118.932 64.3746667,119.004 C64.6146679,119.076 64.8599987,119.154666 65.1106667,119.24 C65.3613346,119.325334 65.6066655,119.422666 65.8466667,119.532 C66.0866679,119.641334 66.3013324,119.779999 66.4906667,119.948 C66.6800009,120.116001 66.8319994,120.317332 66.9466667,120.552 C67.0613339,120.786668 67.1186667,121.069332 67.1186667,121.4 C67.1186667,121.794669 67.0466674,122.158665 66.9026667,122.492 C66.7586659,122.825335 66.5480014,123.113332 66.2706667,123.356 C65.9933319,123.598668 65.6506687,123.787999 65.2426667,123.924 C64.8346646,124.060001 64.3666693,124.128 63.8386667,124.128 C63.5559986,124.128 63.2800013,124.102667 63.0106667,124.052 C62.741332,124.001333 62.4826679,123.930667 62.2346667,123.84 C61.9866654,123.749333 61.7573344,123.642667 61.5466667,123.52 C61.3359989,123.397333 61.1506675,123.264001 60.9906667,123.12 L61.4466667,122.368 C61.5053336,122.277333 61.5746663,122.208 61.6546667,122.16 C61.7346671,122.112 61.8359994,122.088 61.9586667,122.088 C62.0813339,122.088 62.1973328,122.122666 62.3066667,122.192 C62.4160005,122.261334 62.5426659,122.336 62.6866667,122.416 C62.8306674,122.496 62.999999,122.570666 63.1946667,122.64 C63.3893343,122.709334 63.6359985,122.744 63.9346667,122.744 C64.1693345,122.744 64.3706658,122.716 64.5386667,122.66 C64.7066675,122.604 64.8453328,122.530667 64.9546667,122.44 C65.0640005,122.349333 65.1439997,122.244001 65.1946667,122.124 C65.2453336,122.003999 65.2706667,121.880001 65.2706667,121.752 C65.2706667,121.559999 65.2133339,121.402667 65.0986667,121.28 C64.9839994,121.157333 64.8320009,121.050667 64.6426667,120.96 C64.4533324,120.869333 64.2373345,120.788 63.9946667,120.716 C63.7519988,120.644 63.5040013,120.565334 63.2506667,120.48 C62.9973321,120.394666 62.7493345,120.294667 62.5066667,120.18 C62.2639988,120.065333 62.0480009,119.920001 61.8586667,119.744 C61.6693324,119.567999 61.5173339,119.352001 61.4026667,119.096 C61.2879994,118.839999 61.2306667,118.530668 61.2306667,118.168 C61.2306667,117.831998 61.2973327,117.512002 61.4306667,117.208 C61.5640007,116.903998 61.7599987,116.638668 62.0186667,116.412 C62.2773346,116.185332 62.5999981,116.004001 62.9866667,115.868 C63.3733353,115.731999 63.8199975,115.664 64.3266667,115.664 C64.8920028,115.664 65.4066643,115.757332 65.8706667,115.944 C66.334669,116.130668 66.7213318,116.375998 67.0306667,116.68 L66.5826667,117.392 Z M80.0546667,112.432 L80.0546667,114.2 L76.5746667,114.2 L76.5746667,124 L74.4226667,124 L74.4226667,114.2 L70.9266667,114.2 L70.9266667,112.432 L80.0546667,112.432 Z M81.3106667,124 L81.3106667,112.112 L83.2866667,112.112 L83.2866667,116.68 C83.6066683,116.375998 83.9586647,116.130668 84.3426667,115.944 C84.7266686,115.757332 85.1773307,115.664 85.6946667,115.664 C86.1426689,115.664 86.5399983,115.739999 86.8866667,115.892 C87.2333351,116.044001 87.5226655,116.257332 87.7546667,116.532 C87.9866678,116.806668 88.1626661,117.134665 88.2826667,117.516 C88.4026673,117.897335 88.4626667,118.317331 88.4626667,118.776 L88.4626667,124 L86.4866667,124 L86.4866667,118.776 C86.4866667,118.274664 86.3706678,117.886668 86.1386667,117.612 C85.9066655,117.337332 85.558669,117.2 85.0946667,117.2 C84.7533316,117.2 84.4333348,117.277333 84.1346667,117.432 C83.8359985,117.586667 83.5533347,117.797332 83.2866667,118.064 L83.2866667,124 L81.3106667,124 Z M96.8386667,124 L95.9506667,124 C95.7639991,124 95.6173339,123.972 95.5106667,123.916 C95.4039995,123.86 95.3240003,123.746668 95.2706667,123.576 L95.0946667,122.992 C94.8866656,123.178668 94.6826677,123.342666 94.4826667,123.484 C94.2826657,123.625334 94.0760011,123.744 93.8626667,123.84 C93.6493323,123.936 93.4226679,124.008 93.1826667,124.056 C92.9426655,124.104 92.6760015,124.128 92.3826667,124.128 C92.0359983,124.128 91.7160015,124.081334 91.4226667,123.988 C91.1293319,123.894666 90.8773344,123.754668 90.6666667,123.568 C90.4559989,123.381332 90.2920006,123.149335 90.1746667,122.872 C90.0573327,122.594665 89.9986667,122.272002 89.9986667,121.904 C89.9986667,121.594665 90.0799992,121.289335 90.2426667,120.988 C90.4053341,120.686665 90.6759981,120.414668 91.0546667,120.172 C91.4333352,119.929332 91.9373302,119.728001 92.5666667,119.568 C93.1960031,119.407999 93.9773287,119.317333 94.9106667,119.296 L94.9106667,118.816 C94.9106667,118.266664 94.7946678,117.860001 94.5626667,117.596 C94.3306655,117.331999 93.9933355,117.2 93.5506667,117.2 C93.2306651,117.2 92.9640011,117.237333 92.7506667,117.312 C92.5373323,117.386667 92.3520008,117.470666 92.1946667,117.564 C92.0373325,117.657334 91.8920007,117.741333 91.7586667,117.816 C91.6253327,117.890667 91.4786675,117.928 91.3186667,117.928 C91.1853327,117.928 91.0706671,117.893334 90.9746667,117.824 C90.8786662,117.754666 90.8013336,117.669334 90.7426667,117.568 L90.3826667,116.936 C91.3266714,116.071996 92.4653267,115.64 93.7986667,115.64 C94.2786691,115.64 94.7066648,115.718666 95.0826667,115.876 C95.4586685,116.033334 95.777332,116.251999 96.0386667,116.532 C96.3000013,116.812001 96.498666,117.146665 96.6346667,117.536 C96.7706673,117.925335 96.8386667,118.351998 96.8386667,118.816 L96.8386667,124 Z M92.9986667,122.768 C93.2013343,122.768 93.3879991,122.749334 93.5586667,122.712 C93.7293342,122.674666 93.8906659,122.618667 94.0426667,122.544 C94.1946674,122.469333 94.3413326,122.377334 94.4826667,122.268 C94.6240007,122.158666 94.7666659,122.029334 94.9106667,121.88 L94.9106667,120.496 C94.3346638,120.522667 93.8533353,120.572 93.4666667,120.644 C93.0799981,120.716 92.7693345,120.807999 92.5346667,120.92 C92.2999988,121.032001 92.1333338,121.162666 92.0346667,121.312 C91.9359995,121.461334 91.8866667,121.623999 91.8866667,121.8 C91.8866667,122.146668 91.9893323,122.394666 92.1946667,122.544 C92.400001,122.693334 92.6679983,122.768 92.9986667,122.768 Z M98.7826667,124 L98.7826667,115.792 L99.9906667,115.792 C100.246668,115.792 100.414666,115.911999 100.494667,116.152 L100.630667,116.8 C100.796001,116.629332 100.970666,116.474667 101.154667,116.336 C101.338668,116.197333 101.533332,116.077334 101.738667,115.976 C101.944001,115.874666 102.163999,115.797334 102.398667,115.744 C102.633335,115.690666 102.889332,115.664 103.166667,115.664 C103.614669,115.664 104.011998,115.739999 104.358667,115.892 C104.705335,116.044001 104.994666,116.257332 105.226667,116.532 C105.458668,116.806668 105.634666,117.134665 105.754667,117.516 C105.874667,117.897335 105.934667,118.317331 105.934667,118.776 L105.934667,124 L103.958667,124 L103.958667,118.776 C103.958667,118.274664 103.842668,117.886668 103.610667,117.612 C103.378666,117.337332 103.030669,117.2 102.566667,117.2 C102.225332,117.2 101.905335,117.277333 101.606667,117.432 C101.307999,117.586667 101.025335,117.797332 100.758667,118.064 L100.758667,124 L98.7826667,124 Z M112.062667,122.52 L114.406667,122.52 L114.406667,115.776 C114.406667,115.514665 114.414667,115.240001 114.430667,114.952 L112.766667,116.344 C112.697333,116.402667 112.626667,116.442667 112.554667,116.464 C112.482666,116.485333 112.412,116.496 112.342667,116.496 C112.235999,116.496 112.138667,116.473334 112.050667,116.428 C111.962666,116.382666 111.897334,116.330667 111.854667,116.272 L111.230667,115.416 L114.758667,112.416 L116.382667,112.416 L116.382667,122.52 L118.462667,122.52 L118.462667,124 L112.062667,124 L112.062667,122.52 Z M124.190667,112.304 C124.724003,112.304 125.205331,112.379999 125.634667,112.532 C126.064002,112.684001 126.430665,112.894665 126.734667,113.164 C127.038668,113.433335 127.271999,113.749332 127.434667,114.112 C127.597334,114.474668 127.678667,114.866665 127.678667,115.288 C127.678667,115.656002 127.637334,115.979999 127.554667,116.26 C127.472,116.540001 127.352001,116.783999 127.194667,116.992 C127.037333,117.200001 126.845334,117.375999 126.618667,117.52 C126.391999,117.664001 126.134668,117.784 125.846667,117.88 C126.540003,118.098668 127.057332,118.431998 127.398667,118.88 C127.740002,119.328002 127.910667,119.890663 127.910667,120.568 C127.910667,121.144003 127.804001,121.653331 127.590667,122.096 C127.377332,122.538669 127.089335,122.910665 126.726667,123.212 C126.363998,123.513335 125.944002,123.741333 125.466667,123.896 C124.989331,124.050667 124.484003,124.128 123.950667,124.128 C123.36933,124.128 122.862669,124.061334 122.430667,123.928 C121.998665,123.794666 121.622668,123.597335 121.302667,123.336 C120.982665,123.074665 120.710668,122.754669 120.486667,122.376 C120.262666,121.997331 120.070667,121.560002 119.910667,121.064 L120.782667,120.704 C120.932001,120.64 121.083999,120.608 121.238667,120.608 C121.377334,120.608 121.501333,120.637333 121.610667,120.696 C121.720001,120.754667 121.804,120.839999 121.862667,120.952 C121.958667,121.138668 122.063999,121.322666 122.178667,121.504 C122.293334,121.685334 122.430666,121.846666 122.590667,121.988 C122.750667,122.129334 122.938666,122.244 123.154667,122.332 C123.370668,122.42 123.627999,122.464 123.926667,122.464 C124.262668,122.464 124.555999,122.409334 124.806667,122.3 C125.057335,122.190666 125.266666,122.048001 125.434667,121.872 C125.602668,121.695999 125.728,121.500001 125.810667,121.284 C125.893334,121.067999 125.934667,120.850668 125.934667,120.632 C125.934667,120.354665 125.905334,120.102668 125.846667,119.876 C125.788,119.649332 125.665334,119.456001 125.478667,119.296 C125.291999,119.135999 125.024002,119.010667 124.674667,118.92 C124.325332,118.829333 123.857336,118.784 123.270667,118.784 L123.270667,117.376 C123.756002,117.370667 124.158665,117.325334 124.478667,117.24 C124.798668,117.154666 125.053332,117.036001 125.242667,116.884 C125.432001,116.731999 125.564,116.549334 125.638667,116.336 C125.713334,116.122666 125.750667,115.888001 125.750667,115.632 C125.750667,115.082664 125.601335,114.668001 125.302667,114.388 C125.003999,114.107999 124.596003,113.968 124.078667,113.968 C123.609331,113.968 123.220002,114.091999 122.910667,114.34 C122.601332,114.588001 122.385334,114.906665 122.262667,115.296 C122.198666,115.498668 122.110667,115.644 121.998667,115.732 C121.886666,115.82 121.740001,115.864 121.558667,115.864 C121.473333,115.864 121.382667,115.856 121.286667,115.84 L120.246667,115.656 C120.326667,115.101331 120.481332,114.614669 120.710667,114.196 C120.940001,113.777331 121.226665,113.428001 121.570667,113.148 C121.914668,112.867999 122.309331,112.657334 122.754667,112.516 C123.200002,112.374666 123.678664,112.304 124.190667,112.304 Z M130.710667,118.984 C130.710667,117.885328 130.577335,116.804005 130.310667,115.74 C130.043999,114.675995 129.665336,113.677338 129.174667,112.744 C129.105333,112.605333 129.070667,112.485334 129.070667,112.384 C129.070667,112.282666 129.097333,112.198667 129.150667,112.132 C129.204,112.065333 129.268,112.010667 129.342667,111.968 L130.222667,111.44 C130.617335,112.048003 130.953332,112.65733 131.230667,113.268 C131.508001,113.87867 131.734666,114.495997 131.910667,115.12 C132.086668,115.744003 132.216,116.37733 132.298667,117.02 C132.381334,117.66267 132.422667,118.31733 132.422667,118.984 C132.422667,119.65067 132.381334,120.303997 132.298667,120.944 C132.216,121.584003 132.086668,122.215997 131.910667,122.84 C131.734666,123.464003 131.508001,124.082664 131.230667,124.696 C130.953332,125.309336 130.617335,125.919997 130.222667,126.528 L129.342667,125.992 C129.268,125.949333 129.204,125.894667 129.150667,125.828 C129.097333,125.761333 129.070667,125.674667 129.070667,125.568 C129.070667,125.52 129.077333,125.466667 129.090667,125.408 C129.104,125.349333 129.129333,125.285334 129.166667,125.216 C129.662669,124.282662 130.043999,123.285339 130.310667,122.224 C130.577335,121.162661 130.710667,120.082672 130.710667,118.984 Z" id="Parent-With-Young-Ch"></path>
            <g id="Page-1" transform="translate(26.000000, 0.000000)">
                <path d="M72.2557795,0 C75.208063,0 77.5976693,2.3919685 77.5976693,5.34141732 C77.5976693,8.29370079 75.208063,10.6828346 72.2557795,10.6828346 C69.3039685,10.6828346 66.912,8.29370079 66.912,5.34141732 C66.912,2.3919685 69.3039685,0 72.2557795,0" id="Fill-1"></path>
                <path d="M42.1690394,0 C45.1189606,0 47.5109291,2.3919685 47.5109291,5.34141732 C47.5109291,8.29370079 45.1189606,10.6828346 42.1690394,10.6828346 C39.2172283,10.6828346 36.827622,8.29370079 36.827622,5.34141732 C36.827622,2.3919685 39.2195906,0 42.1690394,0" id="Fill-3"></path>
                <path d="M14.1068031,29.2271811 L14.1068031,41.9391496 L0.0394015748,41.9391496 C0.527433071,34.8407244 6.62900787,29.2271811 14.1068031,29.2271811" id="Fill-5"></path>
                <path d="M4.74609449,59.8422047 C3.18184252,59.8422047 1.91286614,58.5722835 1.91286614,57.0085039 C1.91286614,55.4418898 3.17995276,54.1748031 4.74609449,54.1748031 C6.3108189,54.1748031 7.57979528,55.4418898 7.57979528,57.0085039 C7.57743307,58.5722835 6.30845669,59.8422047 4.74609449,59.8422047" id="Fill-7"></path>
                <path d="M26.298,59.8422047 C24.733748,59.8422047 23.4647717,58.5722835 23.4647717,57.0085039 C23.4647717,55.4418898 24.733748,54.1748031 26.298,54.1748031 C27.8627244,54.1748031 29.1317008,55.4418898 29.1317008,57.0085039 C29.1317008,58.5722835 27.8627244,59.8422047 26.298,59.8422047" id="Fill-9"></path>
                <path d="M53.5260945,30.0848976 L49.0379055,21.0267874 L49.0379055,37.9274173 C49.0402677,37.962378 49.0473543,37.9926142 49.0473543,38.0252126 L49.0473543,57.8871024 C49.0473543,58.9680472 48.1733386,59.8392283 47.0947559,59.8392283 C47.0786929,59.8392283 47.0668819,59.837811 47.0479843,59.837811 C47.0342835,59.837811 47.0201102,59.8392283 47.0040472,59.8392283 C45.9278268,59.8392283 45.0514488,58.9680472 45.0514488,57.8871024 L43.4290866,38.0252126 C43.4290866,37.990252 43.4361732,37.962378 43.438063,37.9274173 L40.9790079,37.9274173 C40.9837323,37.962378 40.9908189,37.9926142 40.9908189,38.0252126 L39.3684567,57.8871024 C39.3684567,58.9680472 38.4920787,59.8392283 37.4134961,59.8392283 C37.3993228,59.8392283 37.3832598,59.837811 37.3695591,59.837811 C37.3534961,59.837811 37.3412126,59.8392283 37.3251496,59.8392283 C36.2470394,59.8392283 35.3725512,58.9680472 35.3725512,57.8871024 L35.3725512,38.0252126 C35.3725512,37.990252 35.3772756,37.962378 35.382,37.9274173 L35.382,21.0291496 L30.893811,30.0848976 C30.6703465,30.6168661 30.2404252,30.9915118 29.7363307,31.1700945 L29.7363307,42.846 L31.0421575,42.846 C31.0421575,50.3653701 24.0920787,56.4622205 15.5224724,56.4622205 C6.9500315,56.4622205 -4.72440945e-05,50.3653701 -4.72440945e-05,42.846 L15.5224724,42.846 L19.2042047,42.846 L28.5249921,42.846 L28.5249921,31.1960787 C28.4574331,31.1776535 28.3927087,31.1611181 28.3275118,31.1356063 C27.3254646,30.7146614 26.8563307,29.5689921 27.2744409,28.5693071 L33.6594803,13.3189134 C33.9618425,12.5960787 34.6473543,12.1590709 35.3843622,12.1264724 L35.3843622,12.1122992 L35.4703465,12.1122992 L48.9519213,12.1122992 L49.0402677,12.1122992 L49.0402677,12.1264724 C49.7749134,12.1590709 50.4627874,12.5913543 50.7646772,13.3189134 L57.150189,28.5693071 C57.5687717,29.5666299 57.0968031,30.7146614 56.0923937,31.1379685 C55.0950709,31.5537165 53.9446772,31.0845827 53.5260945,30.0848976" id="Fill-11"></path>
                <path d="M84.9655748,30.9471969 C83.9592756,31.3681417 82.8017953,30.893811 82.383685,29.8870394 L77.0677795,17.1887717 L77.0512441,17.2218425 L81.9537638,39.249874 L81.8068346,39.249874 L77.5090394,39.249874 C77.5208504,39.3382205 77.5369134,39.4199528 77.5369134,39.5125512 L77.5369134,57.8682992 C77.5369134,58.9539685 76.6534488,59.8350709 75.568252,59.8350709 C75.5408504,59.8350709 75.5195906,59.8303465 75.4964409,59.8303465 C75.4680945,59.8303465 75.4477795,59.8350709 75.4199055,59.8350709 C74.3337638,59.8350709 73.4531339,58.9539685 73.4531339,57.8682992 L72.7047874,39.5125512 C72.7047874,39.4199528 72.7184882,39.3382205 72.7326614,39.249874 L71.779748,39.249874 C71.7934488,39.3382205 71.8071496,39.4199528 71.8071496,39.5125512 L71.0611654,57.8682992 C71.0611654,58.9539685 70.1805354,59.8350709 69.0972283,59.8350709 C69.0698268,59.8350709 69.0462047,59.8303465 69.0206929,59.8303465 C68.9923465,59.8303465 68.9715591,59.8350709 68.9460472,59.8350709 C67.8580157,59.8350709 66.9773858,58.9539685 66.9773858,57.8682992 L66.9773858,39.5125512 C66.9773858,39.4199528 66.9934488,39.3382205 67.0052598,39.249874 L62.7098268,39.249874 L62.7051024,39.249874 L62.5586457,39.249874 L67.4606929,17.2218425 L67.4465197,17.1887717 L62.1334488,29.8870394 C61.7096693,30.8961732 60.5498268,31.3681417 59.5487244,30.9471969 C58.5395906,30.5238898 58.0657323,29.3664094 58.4885669,28.3648346 L65.9006929,11.977748 L65.9729764,11.8034173 L78.5295118,11.8034173 L78.5323465,11.8034173 L78.6013228,11.977748 L86.0167559,28.3648346 C86.4395906,29.3716063 85.9652598,30.526252 84.9655748,30.9471969" id="Fill-14"></path>
            </g>
        </g>
    </g>
</svg>