<?xml version="1.0" encoding="UTF-8" standalone="no"?>
<svg width="80px" height="75px" viewBox="0 0 89 89" version="1.1" xmlns="http://www.w3.org/2000/svg" xmlns:xlink="http://www.w3.org/1999/xlink">
    <!-- Generator: Sketch 48.2 (47327) - http://www.bohemiancoding.com/sketch -->
    <title>Partnership</title>
    <desc>Created with Sketch.</desc>
    <defs></defs>
    <g id="Page3-Copy" stroke="none" stroke-width="1" fill="none" fill-rule="evenodd" transform="translate(-360.000000, -154.000000)">
        <g id="Partnership" transform="translate(360.000000, 154.000000)">
            <path d="M5.712,81.928 L5.712,86 L3.56,86 L3.56,74.432 L7.328,74.432 C8.1013372,74.432 8.77066384,74.5226658 9.336,74.704 C9.90133616,74.8853342 10.3679982,75.138665 10.736,75.464 C11.1040018,75.789335 11.3759991,76.1786644 11.552,76.632 C11.7280009,77.0853356 11.816,77.5813306 11.816,78.12 C11.816,78.6800028 11.7226676,79.193331 11.536,79.66 C11.3493324,80.126669 11.0693352,80.5279983 10.696,80.864 C10.3226648,81.2000017 9.8560028,81.4613324 9.296,81.648 C8.7359972,81.8346676 8.08000376,81.928 7.328,81.928 L5.712,81.928 Z M5.712,80.248 L7.328,80.248 C7.72266864,80.248 8.0666652,80.1986672 8.36,80.1 C8.6533348,80.0013328 8.89599904,79.8600009 9.088,79.676 C9.28000096,79.4919991 9.42399952,79.2680013 9.52,79.004 C9.61600048,78.7399987 9.664,78.445335 9.664,78.12 C9.664,77.8106651 9.61600048,77.5306679 9.52,77.28 C9.42399952,77.0293321 9.28000096,76.8160009 9.088,76.64 C8.89599904,76.4639991 8.6533348,76.3293338 8.36,76.236 C8.0666652,76.1426662 7.72266864,76.096 7.328,76.096 L5.712,76.096 L5.712,80.248 Z M19.408,86 L18.52,86 C18.3333324,86 18.1866672,85.9720003 18.08,85.916 C17.9733328,85.8599997 17.8933336,85.7466675 17.84,85.576 L17.664,84.992 C17.455999,85.1786676 17.252001,85.342666 17.052,85.484 C16.851999,85.625334 16.6453344,85.7439995 16.432,85.84 C16.2186656,85.9360005 15.9920012,86.0079998 15.752,86.056 C15.5119988,86.1040002 15.2453348,86.128 14.952,86.128 C14.6053316,86.128 14.2853348,86.0813338 13.992,85.988 C13.6986652,85.8946662 13.4466677,85.7546676 13.236,85.568 C13.0253323,85.3813324 12.8613339,85.1493347 12.744,84.872 C12.6266661,84.5946653 12.568,84.2720018 12.568,83.904 C12.568,83.5946651 12.6493325,83.2893348 12.812,82.988 C12.9746675,82.6866652 13.2453314,82.4146679 13.624,82.172 C14.0026686,81.9293321 14.5066635,81.7280008 15.136,81.568 C15.7653365,81.4079992 16.546662,81.3173334 17.48,81.296 L17.48,80.816 C17.48,80.2666639 17.3640012,79.8600013 17.132,79.596 C16.8999988,79.3319987 16.5626689,79.2 16.12,79.2 C15.7999984,79.2 15.5333344,79.237333 15.32,79.312 C15.1066656,79.386667 14.9213341,79.4706662 14.764,79.564 C14.6066659,79.6573338 14.461334,79.741333 14.328,79.816 C14.194666,79.890667 14.0480008,79.928 13.888,79.928 C13.754666,79.928 13.6400005,79.8933337 13.544,79.824 C13.4479995,79.7546663 13.370667,79.6693338 13.312,79.568 L12.952,78.936 C13.8960047,78.0719957 15.03466,77.64 16.368,77.64 C16.8480024,77.64 17.2759981,77.7186659 17.652,77.876 C18.0280019,78.0333341 18.3466654,78.2519986 18.608,78.532 C18.8693346,78.8120014 19.0679993,79.1466647 19.204,79.536 C19.3400007,79.9253353 19.408,80.3519977 19.408,80.816 L19.408,86 Z M15.568,84.768 C15.7706677,84.768 15.9573325,84.7493335 16.128,84.712 C16.2986675,84.6746665 16.4599992,84.618667 16.612,84.544 C16.7640008,84.469333 16.910666,84.3773339 17.052,84.268 C17.193334,84.1586661 17.3359993,84.0293341 17.48,83.88 L17.48,82.496 C16.9039971,82.5226668 16.4226686,82.5719996 16.036,82.644 C15.6493314,82.7160004 15.3386678,82.8079994 15.104,82.92 C14.8693322,83.0320006 14.7026672,83.1626659 14.604,83.312 C14.5053328,83.4613341 14.456,83.6239991 14.456,83.8 C14.456,84.1466684 14.5586656,84.3946659 14.764,84.544 C14.9693344,84.6933341 15.2373317,84.768 15.568,84.768 Z M21.352,86 L21.352,77.792 L22.512,77.792 C22.7146677,77.792 22.8559996,77.829333 22.936,77.904 C23.0160004,77.978667 23.0693332,78.1066658 23.096,78.288 L23.216,79.28 C23.5093348,78.7733308 23.8533314,78.3733348 24.248,78.08 C24.6426686,77.7866652 25.0853309,77.64 25.576,77.64 C25.9813354,77.64 26.317332,77.7333324 26.584,77.92 L26.328,79.4 C26.3119999,79.4960005 26.2773336,79.5639998 26.224,79.604 C26.1706664,79.6440002 26.0986671,79.664 26.008,79.664 C25.9279996,79.664 25.8186674,79.6453335 25.68,79.608 C25.5413326,79.5706665 25.3573345,79.552 25.128,79.552 C24.7173313,79.552 24.3653348,79.6653322 24.072,79.892 C23.7786652,80.1186678 23.5306677,80.4506645 23.328,80.888 L23.328,86 L21.352,86 Z M30.584,86.128 C29.8746631,86.128 29.3280019,85.9266687 28.944,85.524 C28.5599981,85.1213313 28.368,84.5653369 28.368,83.856 L28.368,79.272 L27.536,79.272 C27.4293328,79.272 27.3373337,79.2373337 27.26,79.168 C27.1826663,79.0986663 27.144,78.9946674 27.144,78.856 L27.144,78.072 L28.464,77.856 L28.88,75.616 C28.9013334,75.5093328 28.9506663,75.426667 29.028,75.368 C29.1053337,75.309333 29.2026661,75.28 29.32,75.28 L30.344,75.28 L30.344,77.864 L32.504,77.864 L32.504,79.272 L30.344,79.272 L30.344,83.72 C30.344,83.9760013 30.4079994,84.1759993 30.536,84.32 C30.6640006,84.4640007 30.8346656,84.536 31.048,84.536 C31.1706673,84.536 31.2733329,84.5213335 31.356,84.492 C31.4386671,84.4626665 31.5106664,84.4320002 31.572,84.4 C31.6333336,84.3679998 31.6879998,84.3373335 31.736,84.308 C31.7840002,84.2786665 31.8319998,84.264 31.88,84.264 C31.938667,84.264 31.9866665,84.2786665 32.024,84.308 C32.0613335,84.3373335 32.1013331,84.381333 32.144,84.44 L32.736,85.4 C32.4479986,85.6400012 32.1173352,85.8213327 31.744,85.944 C31.3706648,86.0666673 30.984002,86.128 30.584,86.128 Z M34.08,86 L34.08,77.792 L35.288,77.792 C35.5440013,77.792 35.7119996,77.9119988 35.792,78.152 L35.928,78.8 C36.0933342,78.6293325 36.2679991,78.4746674 36.452,78.336 C36.6360009,78.1973326 36.8306656,78.0773338 37.036,77.976 C37.2413344,77.8746662 37.4613322,77.7973336 37.696,77.744 C37.9306678,77.6906664 38.1866653,77.664 38.464,77.664 C38.9120022,77.664 39.3093316,77.7399992 39.656,77.892 C40.0026684,78.0440008 40.2919988,78.257332 40.524,78.532 C40.7560012,78.806668 40.9319994,79.1346648 41.052,79.516 C41.1720006,79.8973352 41.232,80.317331 41.232,80.776 L41.232,86 L39.256,86 L39.256,80.776 C39.256,80.2746642 39.1400012,79.886668 38.908,79.612 C38.6759988,79.337332 38.3280023,79.2 37.864,79.2 C37.522665,79.2 37.2026682,79.2773326 36.904,79.432 C36.6053318,79.5866674 36.322668,79.797332 36.056,80.064 L36.056,86 L34.08,86 Z M46.568,77.664 C47.0853359,77.664 47.5613312,77.7466658 47.996,77.912 C48.4306688,78.0773342 48.8053318,78.3186651 49.12,78.636 C49.4346682,78.9533349 49.6799991,79.3426644 49.856,79.804 C50.0320009,80.2653356 50.12,80.791997 50.12,81.384 C50.12,81.5333341 50.1133334,81.6573328 50.1,81.756 C50.0866666,81.8546672 50.0626668,81.9319997 50.028,81.988 C49.9933332,82.0440003 49.946667,82.0839999 49.888,82.108 C49.829333,82.1320001 49.7546671,82.144 49.664,82.144 L44.592,82.144 C44.650667,82.9866709 44.8773314,83.6053314 45.272,84 C45.6666686,84.3946686 46.1893301,84.592 46.84,84.592 C47.1600016,84.592 47.4359988,84.554667 47.668,84.48 C47.9000012,84.405333 48.1026658,84.3226671 48.276,84.232 C48.4493342,84.1413329 48.6013327,84.058667 48.732,83.984 C48.8626673,83.909333 48.9893327,83.872 49.112,83.872 C49.1920004,83.872 49.261333,83.8879998 49.32,83.92 C49.378667,83.9520002 49.4293331,83.997333 49.472,84.056 L50.048,84.776 C49.8293322,85.0320013 49.5840014,85.2466658 49.312,85.42 C49.0399986,85.5933342 48.7560015,85.7319995 48.46,85.836 C48.1639985,85.9400005 47.8626682,86.0133331 47.556,86.056 C47.2493318,86.0986669 46.9520014,86.12 46.664,86.12 C46.0933305,86.12 45.5626691,86.0253343 45.072,85.836 C44.5813309,85.6466657 44.1546685,85.3666685 43.792,84.996 C43.4293315,84.6253315 43.144001,84.1666694 42.936,83.62 C42.727999,83.0733306 42.624,82.4400036 42.624,81.72 C42.624,81.1599972 42.7146658,80.6333358 42.896,80.14 C43.0773342,79.6466642 43.3373316,79.2173352 43.676,78.852 C44.0146684,78.4866648 44.4279976,78.1973344 44.916,77.984 C45.4040024,77.7706656 45.9546636,77.664 46.568,77.664 Z M46.608,79.08 C46.0319971,79.08 45.581335,79.242665 45.256,79.568 C44.930665,79.893335 44.7226671,80.3546637 44.632,80.952 L48.344,80.952 C48.344,80.6959987 48.3093337,80.4546678 48.24,80.228 C48.1706663,80.0013322 48.0640007,79.8026675 47.92,79.632 C47.7759993,79.4613325 47.5946678,79.3266672 47.376,79.228 C47.1573322,79.1293328 46.9013348,79.08 46.608,79.08 Z M51.728,86 L51.728,77.792 L52.888,77.792 C53.0906677,77.792 53.2319996,77.829333 53.312,77.904 C53.3920004,77.978667 53.4453332,78.1066658 53.472,78.288 L53.592,79.28 C53.8853348,78.7733308 54.2293314,78.3733348 54.624,78.08 C55.0186686,77.7866652 55.4613309,77.64 55.952,77.64 C56.3573354,77.64 56.693332,77.7333324 56.96,77.92 L56.704,79.4 C56.6879999,79.4960005 56.6533336,79.5639998 56.6,79.604 C56.5466664,79.6440002 56.4746671,79.664 56.384,79.664 C56.3039996,79.664 56.1946674,79.6453335 56.056,79.608 C55.9173326,79.5706665 55.7333345,79.552 55.504,79.552 C55.0933313,79.552 54.7413348,79.6653322 54.448,79.892 C54.1546652,80.1186678 53.9066677,80.4506645 53.704,80.888 L53.704,86 L51.728,86 Z M63.136,79.392 C63.0826664,79.4773338 63.026667,79.5373332 62.968,79.572 C62.909333,79.6066668 62.8346671,79.624 62.744,79.624 C62.6479995,79.624 62.5453339,79.5973336 62.436,79.544 C62.3266661,79.4906664 62.2000007,79.430667 62.056,79.364 C61.9119993,79.297333 61.7480009,79.2373336 61.564,79.184 C61.3799991,79.1306664 61.1626679,79.104 60.912,79.104 C60.5226647,79.104 60.2160011,79.1866658 59.992,79.352 C59.7679989,79.5173342 59.656,79.733332 59.656,80 C59.656,80.1760009 59.7133328,80.3239994 59.828,80.444 C59.9426672,80.5640006 60.0946657,80.6693329 60.284,80.76 C60.4733343,80.8506671 60.6879988,80.9319996 60.928,81.004 C61.1680012,81.0760004 61.4133321,81.1546662 61.664,81.24 C61.9146679,81.3253338 62.1599988,81.4226661 62.4,81.532 C62.6400012,81.6413339 62.8546657,81.7799992 63.044,81.948 C63.2333343,82.1160008 63.3853328,82.3173322 63.5,82.552 C63.6146672,82.7866678 63.672,83.0693317 63.672,83.4 C63.672,83.7946686 63.6000007,84.158665 63.456,84.492 C63.3119993,84.825335 63.1013347,85.1133321 62.824,85.356 C62.5466653,85.5986679 62.204002,85.7879993 61.796,85.924 C61.387998,86.0600007 60.9200026,86.128 60.392,86.128 C60.1093319,86.128 59.8333347,86.1026669 59.564,86.052 C59.2946653,86.0013331 59.0360012,85.9306671 58.788,85.84 C58.5399988,85.7493329 58.3106677,85.6426673 58.1,85.52 C57.8893323,85.3973327 57.7040008,85.2640007 57.544,85.12 L58,84.368 C58.058667,84.2773329 58.1279996,84.2080002 58.208,84.16 C58.2880004,84.1119998 58.3893327,84.088 58.512,84.088 C58.6346673,84.088 58.7506661,84.1226663 58.86,84.192 C58.9693339,84.2613337 59.0959993,84.3359996 59.24,84.416 C59.3840007,84.4960004 59.5533324,84.5706663 59.748,84.64 C59.9426676,84.7093337 60.1893318,84.744 60.488,84.744 C60.7226678,84.744 60.9239992,84.7160003 61.092,84.66 C61.2600008,84.6039997 61.3986661,84.5306671 61.508,84.44 C61.6173339,84.3493329 61.6973331,84.2440006 61.748,84.124 C61.7986669,84.0039994 61.824,83.8800006 61.824,83.752 C61.824,83.559999 61.7666672,83.4026673 61.652,83.28 C61.5373328,83.1573327 61.3853343,83.0506671 61.196,82.96 C61.0066657,82.8693329 60.7906679,82.7880004 60.548,82.716 C60.3053321,82.6439996 60.0573346,82.5653338 59.804,82.48 C59.5506654,82.3946662 59.3026679,82.2946672 59.06,82.18 C58.8173321,82.0653328 58.6013343,81.9200009 58.412,81.744 C58.2226657,81.5679991 58.0706672,81.3520013 57.956,81.096 C57.8413328,80.8399987 57.784,80.5306685 57.784,80.168 C57.784,79.8319983 57.850666,79.5120015 57.984,79.208 C58.117334,78.9039985 58.313332,78.6386678 58.572,78.412 C58.830668,78.1853322 59.1533314,78.0040007 59.54,77.868 C59.9266686,77.7319993 60.3733308,77.664 60.88,77.664 C61.4453362,77.664 61.9599977,77.7573324 62.424,77.944 C62.8880023,78.1306676 63.2746651,78.3759985 63.584,78.68 L63.136,79.392 Z M65.256,86 L65.256,74.112 L67.232,74.112 L67.232,78.68 C67.5520016,78.3759985 67.9039981,78.1306676 68.288,77.944 C68.6720019,77.7573324 69.1226641,77.664 69.64,77.664 C70.0880022,77.664 70.4853316,77.7399992 70.832,77.892 C71.1786684,78.0440008 71.4679988,78.257332 71.7,78.532 C71.9320012,78.806668 72.1079994,79.1346648 72.228,79.516 C72.3480006,79.8973352 72.408,80.317331 72.408,80.776 L72.408,86 L70.432,86 L70.432,80.776 C70.432,80.2746642 70.3160012,79.886668 70.084,79.612 C69.8519988,79.337332 69.5040023,79.2 69.04,79.2 C68.698665,79.2 68.3786682,79.2773326 68.08,79.432 C67.7813318,79.5866674 67.498668,79.797332 67.232,80.064 L67.232,86 L65.256,86 Z M76.456,77.792 L76.456,86 L74.48,86 L74.48,77.792 L76.456,77.792 Z M76.752,75.4 C76.752,75.5706675 76.7173337,75.7306659 76.648,75.88 C76.5786663,76.0293341 76.4866672,76.1599994 76.372,76.272 C76.2573328,76.3840006 76.1226674,76.473333 75.968,76.54 C75.8133326,76.606667 75.6480009,76.64 75.472,76.64 C75.3013325,76.64 75.1400008,76.606667 74.988,76.54 C74.8359992,76.473333 74.7040006,76.3840006 74.592,76.272 C74.4799994,76.1599994 74.390667,76.0293341 74.324,75.88 C74.257333,75.7306659 74.224,75.5706675 74.224,75.4 C74.224,75.2239991 74.257333,75.0586674 74.324,74.904 C74.390667,74.7493326 74.4799994,74.6160006 74.592,74.504 C74.7040006,74.3919994 74.8359992,74.302667 74.988,74.236 C75.1400008,74.169333 75.3013325,74.136 75.472,74.136 C75.6480009,74.136 75.8133326,74.169333 75.968,74.236 C76.1226674,74.302667 76.2573328,74.3919994 76.372,74.504 C76.4866672,74.6160006 76.5786663,74.7493326 76.648,74.904 C76.7173337,75.0586674 76.752,75.2239991 76.752,75.4 Z M78.688,88.68 L78.688,77.792 L79.896,77.792 C80.0240006,77.792 80.1333329,77.821333 80.224,77.88 C80.3146671,77.938667 80.3733332,78.0293327 80.4,78.152 L80.56,78.912 C80.8906683,78.5333314 81.2706645,78.2266678 81.7,77.992 C82.1293355,77.7573322 82.6319971,77.64 83.208,77.64 C83.6560022,77.64 84.0653315,77.7333324 84.436,77.92 C84.8066685,78.1066676 85.1266653,78.3773316 85.396,78.732 C85.6653347,79.0866684 85.8733326,79.5239974 86.02,80.044 C86.1666674,80.5640026 86.24,81.1599966 86.24,81.832 C86.24,82.4453364 86.1573342,83.0133307 85.992,83.536 C85.8266658,84.0586693 85.5906682,84.5119981 85.284,84.896 C84.9773318,85.2800019 84.6066688,85.5799989 84.172,85.796 C83.7373312,86.0120011 83.2506694,86.12 82.712,86.12 C82.2479977,86.12 81.8546683,86.049334 81.532,85.908 C81.2093317,85.766666 80.9200013,85.5706679 80.664,85.32 L80.664,88.68 L78.688,88.68 Z M82.528,79.2 C82.1173313,79.2 81.7666681,79.2866658 81.476,79.46 C81.1853319,79.6333342 80.9146679,79.8773318 80.664,80.192 L80.664,83.872 C80.8880011,84.1493347 81.1319987,84.3426661 81.396,84.452 C81.6600013,84.5613339 81.9439985,84.616 82.248,84.616 C82.5466682,84.616 82.8173321,84.5600006 83.06,84.448 C83.3026679,84.3359994 83.5079992,84.1653345 83.676,83.936 C83.8440008,83.7066655 83.9733329,83.4173351 84.064,83.068 C84.1546671,82.7186649 84.2,82.306669 84.2,81.832 C84.2,81.3519976 84.1613337,80.945335 84.084,80.612 C84.0066663,80.278665 83.8960007,80.008001 83.752,79.8 C83.6079993,79.591999 83.4333344,79.4400005 83.228,79.344 C83.0226656,79.2479995 82.7893346,79.2 82.528,79.2 Z" fill="#333333"></path>
            <g id="Page-1" opacity="0.5" fill="#000000">
                <path d="M75.7195433,31.9488166 C75.6647336,34.4650796 71.9345606,36.4967751 67.3405121,36.4967751 C62.7443875,36.4967751 59.0171211,34.46591 58.9621038,31.9488166 C56.1666021,32.2037647 53.6227266,33.3009965 51.5596817,34.9710311 C51.7266021,35.1406505 51.8931073,35.3092318 52.0529689,35.4838339 C55.7428651,39.5042491 57.7745606,44.7238339 57.7745606,50.182173 C57.7745606,51.3134533 57.6736609,52.3380208 57.5088166,53.2853564 C58.3895087,53.2990588 59.299474,53.2990588 60.2320692,53.2990588 L74.4497855,53.2990588 C82.0728997,53.2990588 88.2535225,53.3189896 88.2535225,45.6929689 C88.2535225,38.4991972 82.7495087,32.5890934 75.7195433,31.9488166" id="Fill-1"></path>
                <path d="M60.8243668,13.4743599 C60.8243668,13.4743599 63.8650588,14.9500692 67.3404913,15.0451557 C70.8155087,14.9500692 73.8564083,13.4743599 73.8564083,13.4743599 C76.0597993,14.343218 75.0155087,20.5385813 75.0155087,20.5406574 C75.5667197,20.1561592 76.0697647,19.9560208 76.4814602,19.8532526 C75.8754394,26.4368512 72.0148858,31.5144291 67.3413218,31.5144291 C62.6679654,31.5144291 58.8072042,26.4368512 58.2011834,19.8532526 C58.6122561,19.9551903 59.1182076,20.1561592 59.6673426,20.5406574 C59.6663045,20.5385813 58.6220138,14.343218 60.8243668,13.4743599 M56.8982076,19.4687543 C56.9058893,19.569654 56.9148166,19.6678547 56.9235363,19.7668858 C57.5893495,27.3046713 61.9971696,33.1275779 67.3394533,33.1275779 C72.6798685,33.1275779 77.0905952,27.3036332 77.7572388,19.7668858 C77.7661661,19.6678547 77.7740554,19.5686159 77.7819446,19.4687543 C77.8296955,19.1421799 77.8602145,18.8116609 77.8797301,18.4753287 C77.8936401,18.245917 77.9023599,18.0154671 77.9023599,17.7821107 C77.9023599,17.2095156 77.8602145,16.6456401 77.7819446,16.0946367 C77.0100415,10.7542215 72.6277578,6.66217993 67.3394533,6.66217993 C62.0511488,6.66217993 57.6707336,10.7542215 56.8982076,16.0946367 C56.818692,16.6456401 56.7773772,17.2084775 56.7773772,17.7821107 C56.7773772,18.0154671 56.7873426,18.245917 56.7979308,18.4753287 C56.818692,18.8116609 56.85191,19.1421799 56.8982076,19.4687543" id="Fill-3"></path>
                <path d="M37.6607751,32.5097232 C37.5901869,35.7455709 32.7941315,38.3579585 26.8879723,38.3579585 C20.9807751,38.3579585 16.1865882,35.7455709 16.1162076,32.5097232 C7.07883737,33.3353979 8.30449827e-05,40.9329758 8.30449827e-05,50.1829412 C8.30449827e-05,59.9369896 7.86838754,59.9621107 17.6037509,59.9621107 L17.748872,59.9621107 L36.0281107,59.9621107 L36.1742699,59.9621107 C44.8395986,59.9621107 52.0215363,59.9378201 53.4953772,53.0508997 C53.6776609,52.2019723 53.776692,51.2538062 53.776692,50.1829412 C53.776692,45.4219723 51.8980069,41.1007266 48.845481,37.9136678 C45.9673495,34.9082699 42.0470035,32.9097924 37.6607751,32.5097232" id="Fill-5"></path>
                <path d="M18.5117647,8.75676125 C18.5117647,8.75676125 22.4192388,10.6551696 26.8880969,10.7776609 C31.3565398,10.6551696 35.2650519,8.75676125 35.2650519,8.75676125 C38.0981315,9.87454671 36.7557093,17.8400138 36.7557093,17.8418824 C37.4636678,17.3477647 38.1116263,17.0909481 38.6393772,16.9584913 C38.2224913,21.4927474 36.6045675,25.4681107 34.2687197,28.1853426 C34.0980623,28.3834048 33.9226298,28.5746159 33.7432526,28.7600138 C31.807474,30.7672111 29.443391,31.9497716 26.8880969,31.9497716 C24.3334256,31.9497716 21.9691349,30.7672111 20.033564,28.7600138 C19.8552249,28.5746159 19.6795848,28.3844429 19.5070588,28.1853426 C17.1722491,25.4681107 15.5541176,21.4917093 15.1353633,16.9584913 C15.6639446,17.0909481 16.3131488,17.3467266 17.0200692,17.8418824 C17.0200692,17.8408443 15.6786851,9.87558478 18.5117647,8.75676125 M13.4626298,16.4662422 C13.4715571,16.5945467 13.4831834,16.7222284 13.4950173,16.8486644 C13.8919723,21.3407751 15.3238754,25.3572457 17.4280277,28.3755156 C18.2252595,29.5180069 19.1188235,30.5151696 20.0885813,31.3429204 C22.0860208,33.0470035 24.407128,34.0267266 26.8868512,34.0267266 C29.366782,34.0267266 31.6889273,33.0451349 33.6863668,31.3418824 C34.6561246,30.5141315 35.549481,29.5169689 36.3467128,28.3755156 C38.4510727,25.3562076 39.8829758,21.339737 40.2807612,16.8486644 C40.2915571,16.7220208 40.3015225,16.5945467 40.3123183,16.4662422 C40.3739792,16.0464498 40.4142561,15.6200138 40.4387543,15.1894256 C40.4564014,14.8944083 40.4671972,14.5971073 40.4671972,14.2971073 C40.4671972,13.5596678 40.413218,12.8359308 40.3123183,12.1279723 C39.3217993,5.26202076 33.6884429,8.30449827e-05 26.8880969,8.30449827e-05 C20.0875433,8.30449827e-05 14.4560554,5.26202076 13.4626298,12.1279723 C13.3604844,12.8359308 13.3077509,13.5596678 13.3077509,14.2971073 C13.3077509,14.5971073 13.3193772,14.8933702 13.3349481,15.1894256 C13.3604844,15.6200138 13.4017993,16.0464498 13.4626298,16.4662422" id="Fill-7"></path>
            </g>
        </g>
    </g>
</svg>