<?xml version="1.0" encoding="UTF-8" standalone="no"?>
<svg width="100px" height="80px" viewBox="0 0 125 108" version="1.1" xmlns="http://www.w3.org/2000/svg" xmlns:xlink="http://www.w3.org/1999/xlink">
    <!-- Generator: Sketch 48.2 (47327) - http://www.bohemiancoding.com/sketch -->
    <title>Private_Public_Red</title>
    <desc>Created with Sketch.</desc>
    <defs></defs>
    <g id="Page3-Copy" stroke="none" stroke-width="1" fill="none" fill-rule="evenodd" transform="translate(-491.000000, -154.000000)">
        <g id="Private_Public_Red" transform="translate(491.000000, 154.000000)" fill="#D0021B">
            <path d="M13.772,81.928 L13.772,86 L11.62,86 L11.62,74.432 L15.388,74.432 C16.1613372,74.432 16.8306638,74.5226658 17.396,74.704 C17.9613362,74.8853342 18.4279982,75.138665 18.796,75.464 C19.1640018,75.789335 19.4359991,76.1786644 19.612,76.632 C19.7880009,77.0853356 19.876,77.5813306 19.876,78.12 C19.876,78.6800028 19.7826676,79.193331 19.596,79.66 C19.4093324,80.126669 19.1293352,80.5279983 18.756,80.864 C18.3826648,81.2000017 17.9160028,81.4613324 17.356,81.648 C16.7959972,81.8346676 16.1400038,81.928 15.388,81.928 L13.772,81.928 Z M13.772,80.248 L15.388,80.248 C15.7826686,80.248 16.1266652,80.1986672 16.42,80.1 C16.7133348,80.0013328 16.955999,79.8600009 17.148,79.676 C17.340001,79.4919991 17.4839995,79.2680013 17.58,79.004 C17.6760005,78.7399987 17.724,78.445335 17.724,78.12 C17.724,77.8106651 17.6760005,77.5306679 17.58,77.28 C17.4839995,77.0293321 17.340001,76.8160009 17.148,76.64 C16.955999,76.4639991 16.7133348,76.3293338 16.42,76.236 C16.1266652,76.1426662 15.7826686,76.096 15.388,76.096 L13.772,76.096 L13.772,80.248 Z M21.436,86 L21.436,77.792 L22.596,77.792 C22.7986677,77.792 22.9399996,77.829333 23.02,77.904 C23.1000004,77.978667 23.1533332,78.1066658 23.18,78.288 L23.3,79.28 C23.5933348,78.7733308 23.9373314,78.3733348 24.332,78.08 C24.7266686,77.7866652 25.1693309,77.64 25.66,77.64 C26.0653354,77.64 26.401332,77.7333324 26.668,77.92 L26.412,79.4 C26.3959999,79.4960005 26.3613336,79.5639998 26.308,79.604 C26.2546664,79.6440002 26.1826671,79.664 26.092,79.664 C26.0119996,79.664 25.9026674,79.6453335 25.764,79.608 C25.6253326,79.5706665 25.4413345,79.552 25.212,79.552 C24.8013313,79.552 24.4493348,79.6653322 24.156,79.892 C23.8626652,80.1186678 23.6146677,80.4506645 23.412,80.888 L23.412,86 L21.436,86 Z M30.076,77.792 L30.076,86 L28.1,86 L28.1,77.792 L30.076,77.792 Z M30.372,75.4 C30.372,75.5706675 30.3373337,75.7306659 30.268,75.88 C30.1986663,76.0293341 30.1066672,76.1599994 29.992,76.272 C29.8773328,76.3840006 29.7426674,76.473333 29.588,76.54 C29.4333326,76.606667 29.2680009,76.64 29.092,76.64 C28.9213325,76.64 28.7600008,76.606667 28.608,76.54 C28.4559992,76.473333 28.3240006,76.3840006 28.212,76.272 C28.0999994,76.1599994 28.010667,76.0293341 27.944,75.88 C27.877333,75.7306659 27.844,75.5706675 27.844,75.4 C27.844,75.2239991 27.877333,75.0586674 27.944,74.904 C28.010667,74.7493326 28.0999994,74.6160006 28.212,74.504 C28.3240006,74.3919994 28.4559992,74.302667 28.608,74.236 C28.7600008,74.169333 28.9213325,74.136 29.092,74.136 C29.2680009,74.136 29.4333326,74.169333 29.588,74.236 C29.7426674,74.302667 29.8773328,74.3919994 29.992,74.504 C30.1066672,74.6160006 30.1986663,74.7493326 30.268,74.904 C30.3373337,75.0586674 30.372,75.2239991 30.372,75.4 Z M36.42,86 L34.628,86 L31.364,77.792 L33.004,77.792 C33.1480007,77.792 33.2693328,77.8266663 33.368,77.896 C33.4666672,77.9653337 33.5346665,78.0533328 33.572,78.16 L35.156,82.544 C35.2466671,82.8000013 35.3226664,83.0506654 35.384,83.296 C35.4453336,83.5413346 35.4999998,83.7866654 35.548,84.032 C35.5960002,83.7866654 35.6506664,83.5413346 35.712,83.296 C35.7733336,83.0506654 35.8519995,82.8000013 35.948,82.544 L37.572,78.16 C37.6093335,78.0533328 37.6759995,77.9653337 37.772,77.896 C37.8680005,77.8266663 37.982666,77.792 38.116,77.792 L39.676,77.792 L36.42,86 Z M47.276,86 L46.388,86 C46.2013324,86 46.0546672,85.9720003 45.948,85.916 C45.8413328,85.8599997 45.7613336,85.7466675 45.708,85.576 L45.532,84.992 C45.323999,85.1786676 45.120001,85.342666 44.92,85.484 C44.719999,85.625334 44.5133344,85.7439995 44.3,85.84 C44.0866656,85.9360005 43.8600012,86.0079998 43.62,86.056 C43.3799988,86.1040002 43.1133348,86.128 42.82,86.128 C42.4733316,86.128 42.1533348,86.0813338 41.86,85.988 C41.5666652,85.8946662 41.3146677,85.7546676 41.104,85.568 C40.8933323,85.3813324 40.7293339,85.1493347 40.612,84.872 C40.4946661,84.5946653 40.436,84.2720018 40.436,83.904 C40.436,83.5946651 40.5173325,83.2893348 40.68,82.988 C40.8426675,82.6866652 41.1133314,82.4146679 41.492,82.172 C41.8706686,81.9293321 42.3746635,81.7280008 43.004,81.568 C43.6333365,81.4079992 44.414662,81.3173334 45.348,81.296 L45.348,80.816 C45.348,80.2666639 45.2320012,79.8600013 45,79.596 C44.7679988,79.3319987 44.4306689,79.2 43.988,79.2 C43.6679984,79.2 43.4013344,79.237333 43.188,79.312 C42.9746656,79.386667 42.7893341,79.4706662 42.632,79.564 C42.4746659,79.6573338 42.329334,79.741333 42.196,79.816 C42.062666,79.890667 41.9160008,79.928 41.756,79.928 C41.622666,79.928 41.5080005,79.8933337 41.412,79.824 C41.3159995,79.7546663 41.238667,79.6693338 41.18,79.568 L40.82,78.936 C41.7640047,78.0719957 42.90266,77.64 44.236,77.64 C44.7160024,77.64 45.1439981,77.7186659 45.52,77.876 C45.8960019,78.0333341 46.2146654,78.2519986 46.476,78.532 C46.7373346,78.8120014 46.9359993,79.1466647 47.072,79.536 C47.2080007,79.9253353 47.276,80.3519977 47.276,80.816 L47.276,86 Z M43.436,84.768 C43.6386677,84.768 43.8253325,84.7493335 43.996,84.712 C44.1666675,84.6746665 44.3279992,84.618667 44.48,84.544 C44.6320008,84.469333 44.778666,84.3773339 44.92,84.268 C45.061334,84.1586661 45.2039993,84.0293341 45.348,83.88 L45.348,82.496 C44.7719971,82.5226668 44.2906686,82.5719996 43.904,82.644 C43.5173314,82.7160004 43.2066678,82.8079994 42.972,82.92 C42.7373322,83.0320006 42.5706672,83.1626659 42.472,83.312 C42.3733328,83.4613341 42.324,83.6239991 42.324,83.8 C42.324,84.1466684 42.4266656,84.3946659 42.632,84.544 C42.8373344,84.6933341 43.1053317,84.768 43.436,84.768 Z M51.916,86.128 C51.2066631,86.128 50.6600019,85.9266687 50.276,85.524 C49.8919981,85.1213313 49.7,84.5653369 49.7,83.856 L49.7,79.272 L48.868,79.272 C48.7613328,79.272 48.6693337,79.2373337 48.592,79.168 C48.5146663,79.0986663 48.476,78.9946674 48.476,78.856 L48.476,78.072 L49.796,77.856 L50.212,75.616 C50.2333334,75.5093328 50.2826663,75.426667 50.36,75.368 C50.4373337,75.309333 50.5346661,75.28 50.652,75.28 L51.676,75.28 L51.676,77.864 L53.836,77.864 L53.836,79.272 L51.676,79.272 L51.676,83.72 C51.676,83.9760013 51.7399994,84.1759993 51.868,84.32 C51.9960006,84.4640007 52.1666656,84.536 52.38,84.536 C52.5026673,84.536 52.6053329,84.5213335 52.688,84.492 C52.7706671,84.4626665 52.8426664,84.4320002 52.904,84.4 C52.9653336,84.3679998 53.0199998,84.3373335 53.068,84.308 C53.1160002,84.2786665 53.1639998,84.264 53.212,84.264 C53.270667,84.264 53.3186665,84.2786665 53.356,84.308 C53.3933335,84.3373335 53.4333331,84.381333 53.476,84.44 L54.068,85.4 C53.7799986,85.6400012 53.4493352,85.8213327 53.076,85.944 C52.7026648,86.0666673 52.316002,86.128 51.916,86.128 Z M58.804,77.664 C59.3213359,77.664 59.7973312,77.7466658 60.232,77.912 C60.6666688,78.0773342 61.0413318,78.3186651 61.356,78.636 C61.6706682,78.9533349 61.9159991,79.3426644 62.092,79.804 C62.2680009,80.2653356 62.356,80.791997 62.356,81.384 C62.356,81.5333341 62.3493334,81.6573328 62.336,81.756 C62.3226666,81.8546672 62.2986668,81.9319997 62.264,81.988 C62.2293332,82.0440003 62.182667,82.0839999 62.124,82.108 C62.065333,82.1320001 61.9906671,82.144 61.9,82.144 L56.828,82.144 C56.886667,82.9866709 57.1133314,83.6053314 57.508,84 C57.9026686,84.3946686 58.4253301,84.592 59.076,84.592 C59.3960016,84.592 59.6719988,84.554667 59.904,84.48 C60.1360012,84.405333 60.3386658,84.3226671 60.512,84.232 C60.6853342,84.1413329 60.8373327,84.058667 60.968,83.984 C61.0986673,83.909333 61.2253327,83.872 61.348,83.872 C61.4280004,83.872 61.497333,83.8879998 61.556,83.92 C61.614667,83.9520002 61.6653331,83.997333 61.708,84.056 L62.284,84.776 C62.0653322,85.0320013 61.8200014,85.2466658 61.548,85.42 C61.2759986,85.5933342 60.9920015,85.7319995 60.696,85.836 C60.3999985,85.9400005 60.0986682,86.0133331 59.792,86.056 C59.4853318,86.0986669 59.1880014,86.12 58.9,86.12 C58.3293305,86.12 57.7986691,86.0253343 57.308,85.836 C56.8173309,85.6466657 56.3906685,85.3666685 56.028,84.996 C55.6653315,84.6253315 55.380001,84.1666694 55.172,83.62 C54.963999,83.0733306 54.86,82.4400036 54.86,81.72 C54.86,81.1599972 54.9506658,80.6333358 55.132,80.14 C55.3133342,79.6466642 55.5733316,79.2173352 55.912,78.852 C56.2506684,78.4866648 56.6639976,78.1973344 57.152,77.984 C57.6400024,77.7706656 58.1906636,77.664 58.804,77.664 Z M58.844,79.08 C58.2679971,79.08 57.817335,79.242665 57.492,79.568 C57.166665,79.893335 56.9586671,80.3546637 56.868,80.952 L60.58,80.952 C60.58,80.6959987 60.5453337,80.4546678 60.476,80.228 C60.4066663,80.0013322 60.3000007,79.8026675 60.156,79.632 C60.0119993,79.4613325 59.8306678,79.3266672 59.612,79.228 C59.3933322,79.1293328 59.1373348,79.08 58.844,79.08 Z M64.652,86.024 C64.6039998,86.1466673 64.542667,86.2533329 64.468,86.344 C64.393333,86.4346671 64.3080005,86.5106664 64.212,86.572 C64.1159995,86.6333336 64.0146672,86.6799998 63.908,86.712 C63.8013328,86.7440002 63.6973338,86.76 63.596,86.76 L62.764,86.76 L67.436,74.808 C67.5266671,74.5839989 67.6573325,74.4120006 67.828,74.292 C67.9986675,74.1719994 68.2039988,74.112 68.444,74.112 L69.284,74.112 L64.652,86.024 Z M72.492,81.928 L72.492,86 L70.34,86 L70.34,74.432 L74.108,74.432 C74.8813372,74.432 75.5506638,74.5226658 76.116,74.704 C76.6813362,74.8853342 77.1479982,75.138665 77.516,75.464 C77.8840018,75.789335 78.1559991,76.1786644 78.332,76.632 C78.5080009,77.0853356 78.596,77.5813306 78.596,78.12 C78.596,78.6800028 78.5026676,79.193331 78.316,79.66 C78.1293324,80.126669 77.8493352,80.5279983 77.476,80.864 C77.1026648,81.2000017 76.6360028,81.4613324 76.076,81.648 C75.5159972,81.8346676 74.8600038,81.928 74.108,81.928 L72.492,81.928 Z M72.492,80.248 L74.108,80.248 C74.5026686,80.248 74.8466652,80.1986672 75.14,80.1 C75.4333348,80.0013328 75.675999,79.8600009 75.868,79.676 C76.060001,79.4919991 76.2039995,79.2680013 76.3,79.004 C76.3960005,78.7399987 76.444,78.445335 76.444,78.12 C76.444,77.8106651 76.3960005,77.5306679 76.3,77.28 C76.2039995,77.0293321 76.060001,76.8160009 75.868,76.64 C75.675999,76.4639991 75.4333348,76.3293338 75.14,76.236 C74.8466652,76.1426662 74.5026686,76.096 74.108,76.096 L72.492,76.096 L72.492,80.248 Z M81.964,77.792 L81.964,83.008 C81.964,83.5093358 82.0799988,83.897332 82.312,84.172 C82.5440012,84.446668 82.8919977,84.584 83.356,84.584 C83.697335,84.584 84.0173318,84.5080008 84.316,84.356 C84.6146682,84.2039992 84.897332,83.994668 85.164,83.728 L85.164,77.792 L87.14,77.792 L87.14,86 L85.932,86 C85.6759987,86 85.5080004,85.8800012 85.428,85.64 L85.292,84.984 C85.1213325,85.1546675 84.9453342,85.310666 84.764,85.452 C84.5826658,85.593334 84.3893344,85.7133328 84.184,85.812 C83.9786656,85.9106672 83.7573345,85.9879997 83.52,86.044 C83.2826655,86.1000003 83.0280014,86.128 82.756,86.128 C82.3079978,86.128 81.9120017,86.0520008 81.568,85.9 C81.2239983,85.7479992 80.9346678,85.5333347 80.7,85.256 C80.4653322,84.9786653 80.2880006,84.6493352 80.168,84.268 C80.0479994,83.8866648 79.988,83.466669 79.988,83.008 L79.988,77.792 L81.964,77.792 Z M89.276,86 L89.276,74.112 L91.252,74.112 L91.252,78.8 C91.577335,78.4533316 91.9453313,78.1773344 92.356,77.972 C92.7666687,77.7666656 93.2466639,77.664 93.796,77.664 C94.2440022,77.664 94.6533315,77.7559991 95.024,77.94 C95.3946685,78.1240009 95.7146653,78.3919982 95.984,78.744 C96.2533347,79.0960018 96.4613326,79.5306641 96.608,80.048 C96.7546674,80.5653359 96.828,81.1599966 96.828,81.832 C96.828,82.4453364 96.7453342,83.0133307 96.58,83.536 C96.4146658,84.0586693 96.1786682,84.5119981 95.872,84.896 C95.5653318,85.2800019 95.1946688,85.5799989 94.76,85.796 C94.3253312,86.0120011 93.8386694,86.12 93.3,86.12 C93.0493321,86.12 92.820001,86.0946669 92.612,86.044 C92.403999,85.9933331 92.2146675,85.9226671 92.044,85.832 C91.8733325,85.7413329 91.7146674,85.6306673 91.568,85.5 C91.4213326,85.3693327 91.281334,85.2240008 91.148,85.064 L91.06,85.616 C91.0279998,85.7546674 90.9733337,85.853333 90.896,85.912 C90.8186663,85.970667 90.713334,86 90.58,86 L89.276,86 Z M93.116,79.2 C92.7053313,79.2 92.3546681,79.2866658 92.064,79.46 C91.7733319,79.6333342 91.5026679,79.8773318 91.252,80.192 L91.252,83.872 C91.4760011,84.1493347 91.7199987,84.3426661 91.984,84.452 C92.2480013,84.5613339 92.5346651,84.616 92.844,84.616 C93.1426682,84.616 93.4119988,84.5600006 93.652,84.448 C93.8920012,84.3359994 94.0959992,84.1653345 94.264,83.936 C94.4320008,83.7066655 94.5613329,83.4173351 94.652,83.068 C94.7426671,82.7186649 94.788,82.306669 94.788,81.832 C94.788,81.3519976 94.7493337,80.945335 94.672,80.612 C94.5946663,80.278665 94.4840007,80.008001 94.34,79.8 C94.1959993,79.591999 94.0213344,79.4400005 93.816,79.344 C93.6106656,79.2479995 93.3773346,79.2 93.116,79.2 Z M100.476,74.112 L100.476,86 L98.5,86 L98.5,74.112 L100.476,74.112 Z M104.812,77.792 L104.812,86 L102.836,86 L102.836,77.792 L104.812,77.792 Z M105.108,75.4 C105.108,75.5706675 105.073334,75.7306659 105.004,75.88 C104.934666,76.0293341 104.842667,76.1599994 104.728,76.272 C104.613333,76.3840006 104.478667,76.473333 104.324,76.54 C104.169333,76.606667 104.004001,76.64 103.828,76.64 C103.657332,76.64 103.496001,76.606667 103.344,76.54 C103.191999,76.473333 103.060001,76.3840006 102.948,76.272 C102.835999,76.1599994 102.746667,76.0293341 102.68,75.88 C102.613333,75.7306659 102.58,75.5706675 102.58,75.4 C102.58,75.2239991 102.613333,75.0586674 102.68,74.904 C102.746667,74.7493326 102.835999,74.6160006 102.948,74.504 C103.060001,74.3919994 103.191999,74.302667 103.344,74.236 C103.496001,74.169333 103.657332,74.136 103.828,74.136 C104.004001,74.136 104.169333,74.169333 104.324,74.236 C104.478667,74.302667 104.613333,74.3919994 104.728,74.504 C104.842667,74.6160006 104.934666,74.7493326 105.004,74.904 C105.073334,75.0586674 105.108,75.2239991 105.108,75.4 Z M112.812,79.528 C112.753333,79.602667 112.696,79.6613331 112.64,79.704 C112.584,79.7466669 112.502667,79.768 112.396,79.768 C112.294666,79.768 112.196,79.7373336 112.1,79.676 C112.004,79.6146664 111.889334,79.5453337 111.756,79.468 C111.622666,79.3906663 111.464001,79.3213336 111.28,79.26 C111.095999,79.1986664 110.868001,79.168 110.596,79.168 C110.249332,79.168 109.945335,79.230666 109.684,79.356 C109.422665,79.481334 109.205334,79.6613322 109.032,79.896 C108.858666,80.1306678 108.729334,80.414665 108.644,80.748 C108.558666,81.081335 108.516,81.4586646 108.516,81.88 C108.516,82.3173355 108.562666,82.706665 108.656,83.048 C108.749334,83.389335 108.883999,83.6759988 109.06,83.908 C109.236001,84.1400012 109.449332,84.3159994 109.7,84.436 C109.950668,84.5560006 110.233332,84.616 110.548,84.616 C110.862668,84.616 111.117332,84.5773337 111.312,84.5 C111.506668,84.4226663 111.670666,84.3373338 111.804,84.244 C111.937334,84.1506662 112.053333,84.0653337 112.152,83.988 C112.250667,83.9106663 112.361333,83.872 112.484,83.872 C112.644001,83.872 112.764,83.9333327 112.844,84.056 L113.412,84.776 C113.193332,85.0320013 112.956001,85.2466658 112.7,85.42 C112.443999,85.5933342 112.178668,85.7319995 111.904,85.836 C111.629332,85.9400005 111.345335,86.0133331 111.052,86.056 C110.758665,86.0986669 110.468001,86.12 110.18,86.12 C109.673331,86.12 109.196002,86.0253343 108.748,85.836 C108.299998,85.6466657 107.909335,85.3706685 107.576,85.008 C107.242665,84.6453315 106.978668,84.201336 106.784,83.676 C106.589332,83.150664 106.492,82.5520034 106.492,81.88 C106.492,81.2773303 106.578666,80.7186692 106.752,80.204 C106.925334,79.6893308 107.179998,79.2440019 107.516,78.868 C107.852002,78.4919981 108.267998,78.1973344 108.764,77.984 C109.260002,77.7706656 109.830663,77.664 110.476,77.664 C111.089336,77.664 111.626664,77.7626657 112.088,77.96 C112.549336,78.1573343 112.963998,78.4399982 113.332,78.808 L112.812,79.528 Z M2.604,103.224 L7.236,103.224 L7.236,105 L0.452,105 L0.452,93.432 L2.604,93.432 L2.604,103.224 Z M10.716,96.792 L10.716,105 L8.74,105 L8.74,96.792 L10.716,96.792 Z M11.012,94.4 C11.012,94.5706675 10.9773337,94.7306659 10.908,94.88 C10.8386663,95.0293341 10.7466672,95.1599994 10.632,95.272 C10.5173328,95.3840006 10.3826674,95.473333 10.228,95.54 C10.0733326,95.606667 9.90800088,95.64 9.732,95.64 C9.56133248,95.64 9.40000076,95.606667 9.248,95.54 C9.09599924,95.473333 8.96400056,95.3840006 8.852,95.272 C8.73999944,95.1599994 8.650667,95.0293341 8.584,94.88 C8.517333,94.7306659 8.484,94.5706675 8.484,94.4 C8.484,94.2239991 8.517333,94.0586674 8.584,93.904 C8.650667,93.7493326 8.73999944,93.6160006 8.852,93.504 C8.96400056,93.3919994 9.09599924,93.302667 9.248,93.236 C9.40000076,93.169333 9.56133248,93.136 9.732,93.136 C9.90800088,93.136 10.0733326,93.169333 10.228,93.236 C10.3826674,93.302667 10.5173328,93.3919994 10.632,93.504 C10.7466672,93.6160006 10.8386663,93.7493326 10.908,93.904 C10.9773337,94.0586674 11.012,94.2239991 11.012,94.4 Z M12.948,105 L12.948,96.792 L14.156,96.792 C14.4120013,96.792 14.5799996,96.9119988 14.66,97.152 L14.788,97.76 C14.9320007,97.5999992 15.0826659,97.453334 15.24,97.32 C15.3973341,97.186666 15.5653324,97.0720005 15.744,96.976 C15.9226676,96.8799995 16.1146656,96.8040003 16.32,96.748 C16.5253344,96.6919997 16.7506654,96.664 16.996,96.664 C17.5133359,96.664 17.938665,96.8039986 18.272,97.084 C18.605335,97.3640014 18.8546658,97.7359977 19.02,98.2 C19.1480006,97.9279986 19.307999,97.6946676 19.5,97.5 C19.692001,97.3053324 19.9026655,97.1466673 20.132,97.024 C20.3613345,96.9013327 20.605332,96.810667 20.864,96.752 C21.122668,96.693333 21.3826654,96.664 21.644,96.664 C22.0973356,96.664 22.4999982,96.7333326 22.852,96.872 C23.2040018,97.0106674 23.4999988,97.213332 23.74,97.48 C23.9800012,97.746668 24.162666,98.0719981 24.288,98.456 C24.413334,98.8400019 24.476,99.2799975 24.476,99.776 L24.476,105 L22.5,105 L22.5,99.776 C22.5,99.2533307 22.3853345,98.8600013 22.156,98.596 C21.9266655,98.3319987 21.5906689,98.2 21.148,98.2 C20.9453323,98.2 20.7573342,98.2346663 20.584,98.304 C20.4106658,98.3733337 20.2586673,98.4733327 20.128,98.604 C19.9973327,98.7346673 19.894667,98.8986657 19.82,99.096 C19.745333,99.2933343 19.708,99.5199987 19.708,99.776 L19.708,105 L17.724,105 L17.724,99.776 C17.724,99.2266639 17.6133344,98.8266679 17.392,98.576 C17.1706656,98.3253321 16.8440022,98.2 16.412,98.2 C16.1293319,98.2 15.8640012,98.270666 15.616,98.412 C15.3679988,98.553334 15.1373344,98.7466654 14.924,98.992 L14.924,105 L12.948,105 Z M28.524,96.792 L28.524,105 L26.548,105 L26.548,96.792 L28.524,96.792 Z M28.82,94.4 C28.82,94.5706675 28.7853337,94.7306659 28.716,94.88 C28.6466663,95.0293341 28.5546672,95.1599994 28.44,95.272 C28.3253328,95.3840006 28.1906674,95.473333 28.036,95.54 C27.8813326,95.606667 27.7160009,95.64 27.54,95.64 C27.3693325,95.64 27.2080008,95.606667 27.056,95.54 C26.9039992,95.473333 26.7720006,95.3840006 26.66,95.272 C26.5479994,95.1599994 26.458667,95.0293341 26.392,94.88 C26.325333,94.7306659 26.292,94.5706675 26.292,94.4 C26.292,94.2239991 26.325333,94.0586674 26.392,93.904 C26.458667,93.7493326 26.5479994,93.6160006 26.66,93.504 C26.7720006,93.3919994 26.9039992,93.302667 27.056,93.236 C27.2080008,93.169333 27.3693325,93.136 27.54,93.136 C27.7160009,93.136 27.8813326,93.169333 28.036,93.236 C28.1906674,93.302667 28.3253328,93.3919994 28.44,93.504 C28.5546672,93.6160006 28.6466663,93.7493326 28.716,93.904 C28.7853337,94.0586674 28.82,94.2239991 28.82,94.4 Z M33.452,105.128 C32.7426631,105.128 32.1960019,104.926669 31.812,104.524 C31.4279981,104.121331 31.236,103.565337 31.236,102.856 L31.236,98.272 L30.404,98.272 C30.2973328,98.272 30.2053337,98.2373337 30.128,98.168 C30.0506663,98.0986663 30.012,97.9946674 30.012,97.856 L30.012,97.072 L31.332,96.856 L31.748,94.616 C31.7693334,94.5093328 31.8186663,94.426667 31.896,94.368 C31.9733337,94.309333 32.0706661,94.28 32.188,94.28 L33.212,94.28 L33.212,96.864 L35.372,96.864 L35.372,98.272 L33.212,98.272 L33.212,102.72 C33.212,102.976001 33.2759994,103.175999 33.404,103.32 C33.5320006,103.464001 33.7026656,103.536 33.916,103.536 C34.0386673,103.536 34.1413329,103.521333 34.224,103.492 C34.3066671,103.462667 34.3786664,103.432 34.44,103.4 C34.5013336,103.368 34.5559998,103.337333 34.604,103.308 C34.6520002,103.278667 34.6999998,103.264 34.748,103.264 C34.806667,103.264 34.8546665,103.278667 34.892,103.308 C34.9293335,103.337333 34.9693331,103.381333 35.012,103.44 L35.604,104.4 C35.3159986,104.640001 34.9853352,104.821333 34.612,104.944 C34.2386648,105.066667 33.852002,105.128 33.452,105.128 Z M40.34,96.664 C40.8573359,96.664 41.3333312,96.7466658 41.768,96.912 C42.2026688,97.0773342 42.5773318,97.3186651 42.892,97.636 C43.2066682,97.9533349 43.4519991,98.3426644 43.628,98.804 C43.8040009,99.2653356 43.892,99.791997 43.892,100.384 C43.892,100.533334 43.8853334,100.657333 43.872,100.756 C43.8586666,100.854667 43.8346668,100.932 43.8,100.988 C43.7653332,101.044 43.718667,101.084 43.66,101.108 C43.601333,101.132 43.5266671,101.144 43.436,101.144 L38.364,101.144 C38.422667,101.986671 38.6493314,102.605331 39.044,103 C39.4386686,103.394669 39.9613301,103.592 40.612,103.592 C40.9320016,103.592 41.2079988,103.554667 41.44,103.48 C41.6720012,103.405333 41.8746658,103.322667 42.048,103.232 C42.2213342,103.141333 42.3733327,103.058667 42.504,102.984 C42.6346673,102.909333 42.7613327,102.872 42.884,102.872 C42.9640004,102.872 43.033333,102.888 43.092,102.92 C43.150667,102.952 43.2013331,102.997333 43.244,103.056 L43.82,103.776 C43.6013322,104.032001 43.3560014,104.246666 43.084,104.42 C42.8119986,104.593334 42.5280015,104.731999 42.232,104.836 C41.9359985,104.940001 41.6346682,105.013333 41.328,105.056 C41.0213318,105.098667 40.7240014,105.12 40.436,105.12 C39.8653305,105.12 39.3346691,105.025334 38.844,104.836 C38.3533309,104.646666 37.9266685,104.366669 37.564,103.996 C37.2013315,103.625331 36.916001,103.166669 36.708,102.62 C36.499999,102.073331 36.396,101.440004 36.396,100.72 C36.396,100.159997 36.4866658,99.6333358 36.668,99.14 C36.8493342,98.6466642 37.1093316,98.2173352 37.448,97.852 C37.7866684,97.4866648 38.1999976,97.1973344 38.688,96.984 C39.1760024,96.7706656 39.7266636,96.664 40.34,96.664 Z M40.38,98.08 C39.8039971,98.08 39.353335,98.242665 39.028,98.568 C38.702665,98.893335 38.4946671,99.3546637 38.404,99.952 L42.116,99.952 C42.116,99.6959987 42.0813337,99.4546678 42.012,99.228 C41.9426663,99.0013322 41.8360007,98.8026675 41.692,98.632 C41.5479993,98.4613325 41.3666678,98.3266672 41.148,98.228 C40.9293322,98.1293328 40.6733348,98.08 40.38,98.08 Z M51.276,105 C51.0199987,105 50.8520004,104.880001 50.772,104.64 L50.612,103.848 C50.4413325,104.040001 50.2626676,104.213333 50.076,104.368 C49.8893324,104.522667 49.6880011,104.655999 49.472,104.768 C49.2559989,104.880001 49.0240012,104.966666 48.776,105.028 C48.5279988,105.089334 48.2600014,105.12 47.972,105.12 C47.5239978,105.12 47.1133352,105.026668 46.74,104.84 C46.3666648,104.653332 46.0453347,104.382668 45.776,104.028 C45.5066653,103.673332 45.2986674,103.234669 45.152,102.712 C45.0053326,102.189331 44.932,101.592003 44.932,100.92 C44.932,100.311997 45.0146658,99.7466693 45.18,99.224 C45.3453342,98.7013307 45.5826651,98.2480019 45.892,97.864 C46.2013349,97.4799981 46.5719978,97.1800011 47.004,96.964 C47.4360022,96.7479989 47.9213306,96.64 48.46,96.64 C48.918669,96.64 49.310665,96.7133326 49.636,96.86 C49.961335,97.0066674 50.2519987,97.2026654 50.508,97.448 L50.508,93.112 L52.484,93.112 L52.484,105 L51.276,105 Z M48.644,103.552 C49.0546687,103.552 49.4039986,103.466668 49.692,103.296 C49.9800014,103.125332 50.2519987,102.882668 50.508,102.568 L50.508,98.888 C50.2839989,98.6159986 50.0400013,98.4240006 49.776,98.312 C49.5119987,98.1999994 49.2280015,98.144 48.924,98.144 C48.6253318,98.144 48.3546679,98.1999994 48.112,98.312 C47.8693321,98.4240006 47.6640008,98.5933322 47.496,98.82 C47.3279992,99.0466678 47.1986671,99.3346649 47.108,99.684 C47.0173329,100.033335 46.972,100.445331 46.972,100.92 C46.972,101.400002 47.0106663,101.806665 47.088,102.14 C47.1653337,102.473335 47.2759993,102.745332 47.42,102.956 C47.5640007,103.166668 47.739999,103.318666 47.948,103.412 C48.156001,103.505334 48.3879987,103.552 48.644,103.552 Z M65.772,102.272 C65.8893339,102.272 65.9906662,102.317333 66.076,102.408 L66.924,103.328 C66.4546643,103.909336 65.8773368,104.354665 65.192,104.664 C64.5066632,104.973335 63.6840048,105.128 62.724,105.128 C61.865329,105.128 61.0933368,104.981335 60.408,104.688 C59.7226632,104.394665 59.1373358,103.986669 58.652,103.464 C58.1666642,102.941331 57.794668,102.317337 57.536,101.592 C57.277332,100.866663 57.148,100.074671 57.148,99.216 C57.148,98.3466623 57.2919986,97.5506703 57.58,96.828 C57.8680014,96.1053297 58.2733307,95.4826693 58.796,94.96 C59.3186693,94.4373307 59.9439964,94.0306681 60.672,93.74 C61.4000036,93.4493319 62.2039956,93.304 63.084,93.304 C63.942671,93.304 64.6933301,93.441332 65.336,93.716 C65.9786699,93.990668 66.529331,94.3546644 66.988,94.808 L66.268,95.808 C66.2253331,95.8720003 66.170667,95.9279998 66.104,95.976 C66.037333,96.0240002 65.9453339,96.048 65.828,96.048 C65.7053327,96.048 65.5800006,96.0000005 65.452,95.904 C65.3239994,95.8079995 65.1613343,95.7040006 64.964,95.592 C64.7666657,95.4799994 64.5173348,95.3760005 64.216,95.28 C63.9146652,95.1839995 63.5320023,95.136 63.068,95.136 C62.5239973,95.136 62.0240023,95.2306657 61.568,95.42 C61.1119977,95.6093343 60.7200016,95.8799982 60.392,96.232 C60.0639984,96.5840018 59.8080009,97.0119975 59.624,97.516 C59.4399991,98.0200025 59.348,98.5866635 59.348,99.216 C59.348,99.8666699 59.4399991,100.445331 59.624,100.952 C59.8080009,101.458669 60.0573318,101.885332 60.372,102.232 C60.6866682,102.578668 61.0573312,102.843999 61.484,103.028 C61.9106688,103.212001 62.3693309,103.304 62.86,103.304 C63.1533348,103.304 63.4186655,103.288 63.656,103.256 C63.8933345,103.224 64.111999,103.173334 64.312,103.104 C64.512001,103.034666 64.7013324,102.945334 64.88,102.836 C65.0586676,102.726666 65.2359991,102.592001 65.412,102.432 C65.4653336,102.384 65.521333,102.345333 65.58,102.316 C65.638667,102.286667 65.7026663,102.272 65.772,102.272 Z M71.94,96.664 C72.5533364,96.664 73.1093308,96.7626657 73.608,96.96 C74.1066692,97.1573343 74.5319982,97.4373315 74.884,97.8 C75.2360018,98.1626685 75.507999,98.6053307 75.7,99.128 C75.892001,99.6506693 75.988,100.234663 75.988,100.88 C75.988,101.53067 75.892001,102.117331 75.7,102.64 C75.507999,103.162669 75.2360018,103.607998 74.884,103.976 C74.5319982,104.344002 74.1066692,104.626666 73.608,104.824 C73.1093308,105.021334 72.5533364,105.12 71.94,105.12 C71.3266636,105.12 70.7693358,105.021334 70.268,104.824 C69.7666642,104.626666 69.3386684,104.344002 68.984,103.976 C68.6293316,103.607998 68.3546676,103.162669 68.16,102.64 C67.9653324,102.117331 67.868,101.53067 67.868,100.88 C67.868,100.234663 67.9653324,99.6506693 68.16,99.128 C68.3546676,98.6053307 68.6293316,98.1626685 68.984,97.8 C69.3386684,97.4373315 69.7666642,97.1573343 70.268,96.96 C70.7693358,96.7626657 71.3266636,96.664 71.94,96.664 Z M71.94,103.6 C72.6226701,103.6 73.1279984,103.370669 73.456,102.912 C73.7840016,102.453331 73.948,101.781338 73.948,100.896 C73.948,100.010662 73.7840016,99.3360023 73.456,98.872 C73.1279984,98.4079977 72.6226701,98.176 71.94,98.176 C71.2466632,98.176 70.7346683,98.409331 70.404,98.876 C70.0733317,99.342669 69.908,100.015996 69.908,100.896 C69.908,101.776004 70.0733317,102.446664 70.404,102.908 C70.7346683,103.369336 71.2466632,103.6 71.94,103.6 Z M77.532,105 L77.532,96.792 L78.74,96.792 C78.9960013,96.792 79.1639996,96.9119988 79.244,97.152 L79.372,97.76 C79.5160007,97.5999992 79.6666659,97.453334 79.824,97.32 C79.9813341,97.186666 80.1493324,97.0720005 80.328,96.976 C80.5066676,96.8799995 80.6986656,96.8040003 80.904,96.748 C81.1093344,96.6919997 81.3346654,96.664 81.58,96.664 C82.0973359,96.664 82.522665,96.8039986 82.856,97.084 C83.189335,97.3640014 83.4386658,97.7359977 83.604,98.2 C83.7320006,97.9279986 83.891999,97.6946676 84.084,97.5 C84.276001,97.3053324 84.4866655,97.1466673 84.716,97.024 C84.9453345,96.9013327 85.189332,96.810667 85.448,96.752 C85.706668,96.693333 85.9666654,96.664 86.228,96.664 C86.6813356,96.664 87.0839982,96.7333326 87.436,96.872 C87.7880018,97.0106674 88.0839988,97.213332 88.324,97.48 C88.5640012,97.746668 88.746666,98.0719981 88.872,98.456 C88.997334,98.8400019 89.06,99.2799975 89.06,99.776 L89.06,105 L87.084,105 L87.084,99.776 C87.084,99.2533307 86.9693345,98.8600013 86.74,98.596 C86.5106655,98.3319987 86.1746689,98.2 85.732,98.2 C85.5293323,98.2 85.3413342,98.2346663 85.168,98.304 C84.9946658,98.3733337 84.8426673,98.4733327 84.712,98.604 C84.5813327,98.7346673 84.478667,98.8986657 84.404,99.096 C84.329333,99.2933343 84.292,99.5199987 84.292,99.776 L84.292,105 L82.308,105 L82.308,99.776 C82.308,99.2266639 82.1973344,98.8266679 81.976,98.576 C81.7546656,98.3253321 81.4280022,98.2 80.996,98.2 C80.7133319,98.2 80.4480012,98.270666 80.2,98.412 C79.9519988,98.553334 79.7213344,98.7466654 79.508,98.992 L79.508,105 L77.532,105 Z M91.004,107.68 L91.004,96.792 L92.212,96.792 C92.3400006,96.792 92.4493329,96.821333 92.54,96.88 C92.6306671,96.938667 92.6893332,97.0293327 92.716,97.152 L92.876,97.912 C93.2066683,97.5333314 93.5866645,97.2266678 94.016,96.992 C94.4453355,96.7573322 94.9479971,96.64 95.524,96.64 C95.9720022,96.64 96.3813315,96.7333324 96.752,96.92 C97.1226685,97.1066676 97.4426653,97.3773316 97.712,97.732 C97.9813347,98.0866684 98.1893326,98.5239974 98.336,99.044 C98.4826674,99.5640026 98.556,100.159997 98.556,100.832 C98.556,101.445336 98.4733342,102.013331 98.308,102.536 C98.1426658,103.058669 97.9066682,103.511998 97.6,103.896 C97.2933318,104.280002 96.9226688,104.579999 96.488,104.796 C96.0533312,105.012001 95.5666694,105.12 95.028,105.12 C94.5639977,105.12 94.1706683,105.049334 93.848,104.908 C93.5253317,104.766666 93.2360013,104.570668 92.98,104.32 L92.98,107.68 L91.004,107.68 Z M94.844,98.2 C94.4333313,98.2 94.0826681,98.2866658 93.792,98.46 C93.5013319,98.6333342 93.2306679,98.8773318 92.98,99.192 L92.98,102.872 C93.2040011,103.149335 93.4479987,103.342666 93.712,103.452 C93.9760013,103.561334 94.2599985,103.616 94.564,103.616 C94.8626682,103.616 95.1333321,103.560001 95.376,103.448 C95.6186679,103.335999 95.8239992,103.165334 95.992,102.936 C96.1600008,102.706666 96.2893329,102.417335 96.38,102.068 C96.4706671,101.718665 96.516,101.306669 96.516,100.832 C96.516,100.351998 96.4773337,99.945335 96.4,99.612 C96.3226663,99.278665 96.2120007,99.008001 96.068,98.8 C95.9239993,98.591999 95.7493344,98.4400005 95.544,98.344 C95.3386656,98.2479995 95.1053346,98.2 94.844,98.2 Z M106.484,105 L105.596,105 C105.409332,105 105.262667,104.972 105.156,104.916 C105.049333,104.86 104.969334,104.746668 104.916,104.576 L104.74,103.992 C104.531999,104.178668 104.328001,104.342666 104.128,104.484 C103.927999,104.625334 103.721334,104.744 103.508,104.84 C103.294666,104.936 103.068001,105.008 102.828,105.056 C102.587999,105.104 102.321335,105.128 102.028,105.128 C101.681332,105.128 101.361335,105.081334 101.068,104.988 C100.774665,104.894666 100.522668,104.754668 100.312,104.568 C100.101332,104.381332 99.9373339,104.149335 99.82,103.872 C99.7026661,103.594665 99.644,103.272002 99.644,102.904 C99.644,102.594665 99.7253325,102.289335 99.888,101.988 C100.050667,101.686665 100.321331,101.414668 100.7,101.172 C101.078669,100.929332 101.582664,100.728001 102.212,100.568 C102.841336,100.407999 103.622662,100.317333 104.556,100.296 L104.556,99.816 C104.556,99.2666639 104.440001,98.8600013 104.208,98.596 C103.975999,98.3319987 103.638669,98.2 103.196,98.2 C102.875998,98.2 102.609334,98.237333 102.396,98.312 C102.182666,98.386667 101.997334,98.4706662 101.84,98.564 C101.682666,98.6573338 101.537334,98.741333 101.404,98.816 C101.270666,98.890667 101.124001,98.928 100.964,98.928 C100.830666,98.928 100.716,98.8933337 100.62,98.824 C100.524,98.7546663 100.446667,98.6693338 100.388,98.568 L100.028,97.936 C100.972005,97.0719957 102.11066,96.64 103.444,96.64 C103.924002,96.64 104.351998,96.7186659 104.728,96.876 C105.104002,97.0333341 105.422665,97.2519986 105.684,97.532 C105.945335,97.8120014 106.143999,98.1466647 106.28,98.536 C106.416001,98.9253353 106.484,99.3519977 106.484,99.816 L106.484,105 Z M102.644,103.768 C102.846668,103.768 103.033332,103.749334 103.204,103.712 C103.374668,103.674666 103.535999,103.618667 103.688,103.544 C103.840001,103.469333 103.986666,103.377334 104.128,103.268 C104.269334,103.158666 104.411999,103.029334 104.556,102.88 L104.556,101.496 C103.979997,101.522667 103.498669,101.572 103.112,101.644 C102.725331,101.716 102.414668,101.807999 102.18,101.92 C101.945332,102.032001 101.778667,102.162666 101.68,102.312 C101.581333,102.461334 101.532,102.623999 101.532,102.8 C101.532,103.146668 101.634666,103.394666 101.84,103.544 C102.045334,103.693334 102.313332,103.768 102.644,103.768 Z M108.428,105 L108.428,96.792 L109.636,96.792 C109.892001,96.792 110.06,96.9119988 110.14,97.152 L110.276,97.8 C110.441334,97.6293325 110.615999,97.4746674 110.8,97.336 C110.984001,97.1973326 111.178666,97.0773338 111.384,96.976 C111.589334,96.8746662 111.809332,96.7973336 112.044,96.744 C112.278668,96.6906664 112.534665,96.664 112.812,96.664 C113.260002,96.664 113.657332,96.7399992 114.004,96.892 C114.350668,97.0440008 114.639999,97.257332 114.872,97.532 C115.104001,97.806668 115.279999,98.1346648 115.4,98.516 C115.520001,98.8973352 115.58,99.317331 115.58,99.776 L115.58,105 L113.604,105 L113.604,99.776 C113.604,99.2746642 113.488001,98.886668 113.256,98.612 C113.023999,98.337332 112.676002,98.2 112.212,98.2 C111.870665,98.2 111.550668,98.2773326 111.252,98.432 C110.953332,98.5866674 110.670668,98.797332 110.404,99.064 L110.404,105 L108.428,105 Z M120.148,107.256 C120.089333,107.394667 120.013334,107.5 119.92,107.572 C119.826666,107.644 119.684001,107.68 119.492,107.68 L118.02,107.68 L119.556,104.392 L116.236,96.792 L117.964,96.792 C118.124001,96.792 118.246666,96.829333 118.332,96.904 C118.417334,96.978667 118.481333,97.0639995 118.524,97.16 L120.276,101.416 C120.334667,101.554667 120.385333,101.698666 120.428,101.848 C120.470667,101.997334 120.508,102.146666 120.54,102.296 C120.582667,102.141333 120.629333,101.992001 120.68,101.848 C120.730667,101.703999 120.785333,101.557334 120.844,101.408 L122.492,97.16 C122.534667,97.0533328 122.605333,96.9653337 122.704,96.896 C122.802667,96.8266663 122.913333,96.792 123.036,96.792 L124.62,96.792 L120.148,107.256 Z" id="Private/Public-Limit"></path>
            <g id="Page-1" transform="translate(16.000000, 0.000000)">
                <path d="M10.0183636,16.9241673 C10.0227273,17.0014036 10.2018545,18.8079491 10.5367636,19.6468582 C10.7748,20.2289673 11.2054909,20.6917309 11.7662182,20.9607491 C11.8495636,21.4769673 11.9743636,22.1622764 12.1504364,22.8043855 C12.6729818,24.7075855 15.3553091,29.00904 18.8468727,29.12664 C18.9396,29.1275127 19.1342182,29.1316582 19.3395273,29.1316582 L19.794,29.1275127 C23.2997455,29.0934764 26.1066545,24.7025673 26.6239636,22.8043855 C26.8013455,22.1603127 26.9261455,21.4750036 27.0075273,20.9607491 C27.5691273,20.6908582 28.0039636,20.2289673 28.2378545,19.6468582 C28.5738545,18.80904 28.7510182,17.0024945 28.7573455,16.9263491 C28.8996,15.4959491 28.3975636,14.6744945 28.3510909,14.6302036 C28.9366909,8.83354909 27.0838909,7.69071273 25.8492,7.48562182 C25.4091273,7.41362182 24.7465091,7.24758545 24.4506545,6.91900364 C23.7603273,6.15624 23.4542182,5.30620364 22.2598909,5.37514909 C21.8156727,5.40002182 21.2211273,5.26191273 20.8809818,4.97740364 C20.4254182,4.59296727 19.7968364,4.14678545 19.3270909,4.14678545 C18.8693455,4.14678545 18.2924727,4.57551273 17.8687636,4.95471273 C17.5410545,5.24838545 16.9567636,5.40002182 16.5127636,5.37405818 C15.3204,5.30511273 15.0134182,6.15536727 14.3228727,6.91791273 C14.0248364,7.24671273 13.3613455,7.41144 12.9254182,7.48474909 C11.6909455,7.68874909 9.83705455,8.83464 10.4213455,14.6302036 C10.3696364,14.6819127 9.87916364,15.5092582 10.0183636,16.9241673" id="Fill-1"></path>
                <path d="M18.0356945,43.3208509 C18.7943127,41.4783055 19.9247127,40.0066691 21.2355491,38.8071055 C20.9543127,37.4622327 20.6338036,36.3431782 20.4287127,35.6899418 C20.6728582,34.9993964 21.2272582,34.2687055 21.3354764,33.6071782 C21.4447855,32.9127055 21.2108945,32.4427418 20.8552582,32.0007055 C20.7068945,31.8183055 20.4697309,31.7471782 20.2997673,31.8759055 L19.6947491,32.2974327 C19.5247855,32.42616 19.2496582,32.42616 19.0807855,32.2974327 L18.4727127,31.8759055 C18.3058036,31.7471782 18.0658036,31.8183055 17.9172218,32.0007055 C17.5626764,32.4427418 17.3279127,32.9127055 17.4402764,33.6071782 C17.5474036,34.2697964 18.1028945,35.0004873 18.3450764,35.6908145 C18.0625309,36.59976 17.5524218,38.3929964 17.2371491,40.4580873 C17.4856582,41.4248509 17.7544582,42.3903055 18.0356945,43.3208509" id="Fill-3"></path>
                <path d="M77.6150836,29.2904291 C88.2313745,26.7924655 85.7150836,8.45864727 76.0282473,4.89704727 C75.22752,4.68672 73.8298473,4.50868364 72.4367564,5.13617455 C71.0414836,4.50868364 69.6470836,4.68584727 68.8443927,4.89704727 C59.1501382,8.46170182 56.6377745,26.82432 67.2850473,29.2965382 C67.2830836,29.3017745 67.2822109,29.3067927 67.2822109,29.3120291 C68.8587927,30.7125382 69.5266473,36.5761745 69.2999564,39.8408291 C70.9734109,41.7215564 72.19872,44.1771927 72.4542109,47.4839564 C74.6316655,41.5596655 74.4998836,42.3429382 75.6848291,40.8538473 C75.2046109,37.9786473 75.8334109,30.8630836 77.5965382,29.3067927 C77.6057018,29.3120291 77.6194473,29.3028655 77.6150836,29.2904291" id="Fill-5"></path>
                <path d="M80.5036582,32.6591345 C82.9664945,36.5802982 85.2100582,42.2892436 85.2100582,42.2892436 C85.2100582,42.2892436 79.3998764,42.1666255 78.4878764,39.6213164 C75.9475855,44.5688073 72.91704,47.2005164 72.4614764,47.5777527 C72.4645309,47.5862618 72.4645309,47.5956436 72.4645309,47.6045891 C72.4678036,47.6130982 72.4717309,47.6220436 72.4747855,47.6314255 C72.4747855,47.6314255 72.4678036,47.6242255 72.4645309,47.6233527 C72.5478764,48.8658982 72.4944218,50.23128 72.2801673,51.7249527 C72.3349309,51.7236436 72.3944945,51.7214618 72.4398764,51.7164436 C74.9038036,51.8877164 90.9532582,51.0959345 92.1990764,46.7667709 C95.1246764,35.3569527 85.5995127,35.4250255 80.5036582,32.6591345" id="Fill-7"></path>
                <path d="M60.4343345,34.3223564 C61.1874982,34.63152 61.9997891,34.9705745 62.8365164,35.3569745 C63.3032073,34.4687564 63.7928073,33.5897018 64.2965891,32.7806836 C63.16008,33.3785018 61.8110618,33.8401745 60.4343345,34.3223564" id="Fill-10"></path>
                <path d="M0.528305455,46.7114182 C1.57230545,50.4388364 12.4122327,51.5173091 17.2484509,51.7069091 C16.7765236,48.4167273 17.0979055,45.7693091 17.9224145,43.6167273 L14.0136873,31.0442182 C13.8838691,30.4776 13.4326691,30.3425455 13.0120145,30.7466182 L11.8135418,31.8418909 C11.4064145,32.2592727 10.6336145,32.7724364 10.0903418,32.9816727 C10.0903418,32.9816727 8.85914182,33.4599273 8.17165091,33.7411636 C3.54357818,35.6341091 -1.69758545,37.7755636 0.528305455,46.7114182" id="Fill-12"></path>
                <path d="M26.8724727,31.8099491 L25.6853455,30.7620218 C25.2762545,30.3498764 24.834,30.4775127 24.7041818,31.0432582 L22.6764,37.6426036 C24.8865818,36.0463855 27.3651273,35.0283491 29.3662909,34.2090764 C29.7094909,34.0679127 30.1545818,33.8916218 30.5761091,33.7266764 C29.8733455,33.4423855 28.5952364,32.9466764 28.5952364,32.9466764 C28.0524,32.7396218 27.2785091,32.22624 26.8724727,31.8099491" id="Fill-14"></path>
                <path d="M44.7437891,54.2165236 L44.7867709,54.2165236 C45.7493891,51.8586327 46.6851709,48.8032145 47.4756436,45.7458327 C47.0748436,43.1416145 46.4338255,40.8805964 46.0770982,39.7355782 C46.3832073,38.8650327 47.08488,37.9467055 47.2179709,37.1099782 C47.3571709,36.2370327 47.06328,35.6413964 46.6151345,35.0869964 C46.4285891,34.8592145 46.1277164,34.7686691 45.9132436,34.9303418 L45.1496073,35.4631418 C44.9364436,35.6250327 44.59128,35.6250327 44.37768,35.4631418 L43.6131709,34.9303418 C43.4019709,34.76976 43.0989164,34.8603055 42.9143345,35.0869964 C42.4642255,35.6413964 42.1703345,36.2370327 42.3117164,37.1099782 C42.4467709,37.9467055 43.14648,38.8650327 43.45128,39.73776 C43.0947709,40.88256 42.45288,43.1394327 42.0529527,45.7423418 C42.8453891,48.8012509 43.7781164,51.85776 44.7437891,54.2165236" id="Fill-16"></path>
                <path d="M52.6128218,45.7662327 C52.64664,45.6964145 53.4340582,45.6396873 54.1656218,45.6396873 L58.0217673,45.6396873 C58.7535491,45.6396873 59.4172582,45.6643418 59.4966764,45.6964145 C59.5736945,45.7249964 59.6387127,46.4587418 59.6387127,47.15256 C59.6387127,47.8457236 59.6099127,48.4712509 59.5747855,48.5404145 C59.54184,48.6084873 58.7535491,48.6652145 58.0217673,48.6652145 L54.1656218,48.6652145 C53.4340582,48.6652145 52.7705673,48.6423055 52.6909309,48.6084873 C52.6128218,48.5796873 52.5467127,47.8457236 52.5467127,47.15256 C52.5467127,46.4587418 52.5755127,45.8351782 52.6128218,45.7662327 M43.90584,59.95656 L45.6216218,59.95656 C50.08584,59.95656 67.0523127,58.8817964 68.5261309,53.6220873 C71.3321673,42.3656509 64.7254036,39.6676145 58.8966764,37.2820145 C58.0217673,36.9233236 56.3657673,36.2825236 56.3657673,36.2825236 C55.6815491,36.0196145 54.7067127,35.3724873 54.19464,34.8468873 L52.7000945,33.5299418 C52.1827855,33.0095782 51.6275127,33.1703782 51.4656218,33.88536 L45.13944,54.4513964 C44.9343491,55.1543782 44.5952945,55.1543782 44.38824,54.45336 L37.9937673,33.8833964 C37.8277309,33.1703782 37.2622036,33.0012873 36.7335491,33.5092145 L35.2217673,34.8922691 C34.7116582,35.4167782 33.7357309,36.0639055 33.0536945,36.3268145 C33.0536945,36.3268145 31.4984945,36.9274691 30.6327491,37.2831055 C24.8053309,39.6687055 18.1987855,42.3676145 21.0037309,53.62296 C22.4751491,58.8817964 39.4405309,59.95656 43.90584,59.95656" id="Fill-18"></path>
                <path d="M53.8812218,23.502 C54.1048582,22.6921091 54.2645673,21.8274545 54.3666764,21.1770545 C55.0735855,20.8382182 55.6196945,20.2558909 55.9186036,19.5232364 C56.3381673,18.4689818 56.5648582,16.1935636 56.5720582,16.0975636 C56.7481309,14.2942909 56.1173673,13.2627273 56.0586764,13.2020727 C56.7965673,5.90192727 54.4613673,4.45909091 52.9074764,4.20141818 C52.35504,4.11087273 51.5183127,3.90250909 51.1452218,3.48927273 C50.2744582,2.52796364 49.8880582,1.45930909 48.3845673,1.54570909 C47.8260218,1.5756 47.0748218,1.4004 46.6469673,1.0428 C46.0720582,0.561709091 45.2794036,0.000109090909 44.6922764,0.000109090909 C44.1138764,0.000109090909 43.3864582,0.539018182 42.8547491,1.01596364 C42.4384582,1.38709091 41.7027491,1.5756 41.1461673,1.54570909 C39.6415855,1.45930909 39.2562764,2.52796364 38.3855127,3.48927273 C38.0104582,3.90250909 37.1746036,4.11174545 36.6212945,4.20141818 C35.0680582,4.45909091 32.7317673,5.90192727 33.4687855,13.2051273 C33.4048582,13.2679636 32.7815127,14.3108727 32.9578036,16.0956 C32.9658764,16.1935636 33.1916945,18.4689818 33.6130036,19.5232364 C33.9099491,20.2567636 34.4538764,20.8382182 35.1618764,21.1770545 C35.26704,21.8274545 35.4256582,22.6929818 35.6473309,23.502 C36.30384,25.8989455 39.6850036,31.3194545 44.0842036,31.4636727 C44.2004945,31.4708727 44.4481309,31.4730545 44.7053673,31.4730545 L45.27744,31.4689091 C49.6962764,31.4254909 53.2299491,25.8917455 53.8812218,23.502" id="Fill-20"></path>
            </g>
        </g>
    </g>
</svg>