<?xml version="1.0" encoding="UTF-8" standalone="no"?>
<svg width="100px" height="80px" viewBox="0 0 111 106" version="1.1" xmlns="http://www.w3.org/2000/svg" xmlns:xlink="http://www.w3.org/1999/xlink">
    <!-- Generator: Sketch 48.2 (47327) - http://www.bohemiancoding.com/sketch -->
    <title>Self_Employed_Red</title>
    <desc>Created with Sketch.</desc>
    <defs></defs>
    <g id="Page3-Copy" stroke="none" stroke-width="1" fill="none" fill-rule="evenodd" transform="translate(-659.000000, -154.000000)">
        <g id="Self_Employed_Red" transform="translate(659.000000, 154.000000)" fill="#D0021B">
            <path d="M7.464,76.536 C7.40533304,76.6533339 7.33733372,76.7359998 7.26,76.784 C7.18266628,76.8320002 7.0906672,76.856 6.984,76.856 C6.8773328,76.856 6.757334,76.8146671 6.624,76.732 C6.490666,76.6493329 6.33333424,76.5573338 6.152,76.456 C5.97066576,76.3546662 5.75866788,76.2626671 5.516,76.18 C5.27333212,76.0973329 4.98666832,76.056 4.656,76.056 C4.35733184,76.056 4.09733444,76.0919996 3.876,76.164 C3.65466556,76.2360004 3.46800076,76.3359994 3.316,76.464 C3.16399924,76.5920006 3.05066704,76.7453324 2.976,76.924 C2.90133296,77.1026676 2.864,77.2986656 2.864,77.512 C2.864,77.7840014 2.93999924,78.0106658 3.092,78.192 C3.24400076,78.3733342 3.44533208,78.5279994 3.696,78.656 C3.94666792,78.7840006 4.2319984,78.8986662 4.552,79 C4.8720016,79.1013338 5.198665,79.2093328 5.532,79.324 C5.865335,79.4386672 6.1919984,79.5719992 6.512,79.724 C6.8320016,79.8760008 7.11733208,80.0679988 7.368,80.3 C7.61866792,80.5320012 7.81999924,80.8159983 7.972,81.152 C8.12400076,81.4880017 8.2,81.8959976 8.2,82.376 C8.2,82.8986693 8.11066756,83.3879977 7.932,83.844 C7.75333244,84.3000023 7.49200172,84.6973316 7.148,85.036 C6.80399828,85.3746684 6.38400248,85.6413324 5.888,85.836 C5.39199752,86.0306676 4.8240032,86.128 4.184,86.128 C3.81599816,86.128 3.45333512,86.0920004 3.096,86.02 C2.73866488,85.9479996 2.39600164,85.845334 2.068,85.712 C1.73999836,85.578666 1.43333476,85.4186676 1.148,85.232 C0.86266524,85.0453324 0.60800112,84.8373345 0.384,84.608 L1.008,83.576 C1.06666696,83.501333 1.13733292,83.4386669 1.22,83.388 C1.30266708,83.3373331 1.39466616,83.312 1.496,83.312 C1.629334,83.312 1.77333256,83.3666661 1.928,83.476 C2.08266744,83.5853339 2.26533228,83.706666 2.476,83.84 C2.68666772,83.973334 2.93466524,84.0946661 3.22,84.204 C3.50533476,84.3133339 3.847998,84.368 4.248,84.368 C4.8613364,84.368 5.33599832,84.2226681 5.672,83.932 C6.00800168,83.6413319 6.176,83.2240027 6.176,82.68 C6.176,82.3759985 6.10000076,82.128001 5.948,81.936 C5.79599924,81.743999 5.59466792,81.5826673 5.344,81.452 C5.09333208,81.3213327 4.8080016,81.2106671 4.488,81.12 C4.1679984,81.0293329 3.84266832,80.9306672 3.512,80.824 C3.18133168,80.7173328 2.8560016,80.5893341 2.536,80.44 C2.2159984,80.2906659 1.93066792,80.0960012 1.68,79.856 C1.42933208,79.6159988 1.22800076,79.3160018 1.076,78.956 C0.92399924,78.5959982 0.848,78.1520026 0.848,77.624 C0.848,77.2026646 0.93199916,76.792002 1.1,76.392 C1.26800084,75.991998 1.51333172,75.6373349 1.836,75.328 C2.15866828,75.0186651 2.55466432,74.7706676 3.024,74.584 C3.49333568,74.3973324 4.02933032,74.304 4.632,74.304 C5.31467008,74.304 5.94399712,74.4106656 6.52,74.624 C7.09600288,74.8373344 7.58666464,75.1359981 7.992,75.52 L7.464,76.536 Z M13.128,77.664 C13.6453359,77.664 14.1213312,77.7466658 14.556,77.912 C14.9906688,78.0773342 15.3653318,78.3186651 15.68,78.636 C15.9946682,78.9533349 16.2399991,79.3426644 16.416,79.804 C16.5920009,80.2653356 16.68,80.791997 16.68,81.384 C16.68,81.5333341 16.6733334,81.6573328 16.66,81.756 C16.6466666,81.8546672 16.6226668,81.9319997 16.588,81.988 C16.5533332,82.0440003 16.506667,82.0839999 16.448,82.108 C16.389333,82.1320001 16.3146671,82.144 16.224,82.144 L11.152,82.144 C11.210667,82.9866709 11.4373314,83.6053314 11.832,84 C12.2266686,84.3946686 12.7493301,84.592 13.4,84.592 C13.7200016,84.592 13.9959988,84.554667 14.228,84.48 C14.4600012,84.405333 14.6626658,84.3226671 14.836,84.232 C15.0093342,84.1413329 15.1613327,84.058667 15.292,83.984 C15.4226673,83.909333 15.5493327,83.872 15.672,83.872 C15.7520004,83.872 15.821333,83.8879998 15.88,83.92 C15.938667,83.9520002 15.9893331,83.997333 16.032,84.056 L16.608,84.776 C16.3893322,85.0320013 16.1440014,85.2466658 15.872,85.42 C15.5999986,85.5933342 15.3160015,85.7319995 15.02,85.836 C14.7239985,85.9400005 14.4226682,86.0133331 14.116,86.056 C13.8093318,86.0986669 13.5120014,86.12 13.224,86.12 C12.6533305,86.12 12.1226691,86.0253343 11.632,85.836 C11.1413309,85.6466657 10.7146685,85.3666685 10.352,84.996 C9.98933152,84.6253315 9.70400104,84.1666694 9.496,83.62 C9.28799896,83.0733306 9.184,82.4400036 9.184,81.72 C9.184,81.1599972 9.27466576,80.6333358 9.456,80.14 C9.63733424,79.6466642 9.89733164,79.2173352 10.236,78.852 C10.5746684,78.4866648 10.9879976,78.1973344 11.476,77.984 C11.9640024,77.7706656 12.5146636,77.664 13.128,77.664 Z M13.168,79.08 C12.5919971,79.08 12.141335,79.242665 11.816,79.568 C11.490665,79.893335 11.2826671,80.3546637 11.192,80.952 L14.904,80.952 C14.904,80.6959987 14.8693337,80.4546678 14.8,80.228 C14.7306663,80.0013322 14.6240007,79.8026675 14.48,79.632 C14.3359993,79.4613325 14.1546678,79.3266672 13.936,79.228 C13.7173322,79.1293328 13.4613348,79.08 13.168,79.08 Z M20.392,74.112 L20.392,86 L18.416,86 L18.416,74.112 L20.392,74.112 Z M22.976,86 L22.976,79.28 L22.264,79.168 C22.1093326,79.1413332 21.9853338,79.0880004 21.892,79.008 C21.7986662,78.9279996 21.752,78.8160007 21.752,78.672 L21.752,77.864 L22.976,77.864 L22.976,77.256 C22.976,76.7866643 23.046666,76.3653352 23.188,75.992 C23.329334,75.6186648 23.5319987,75.3013346 23.796,75.04 C24.0600013,74.7786654 24.3813314,74.5786674 24.76,74.44 C25.1386686,74.3013326 25.565331,74.232 26.04,74.232 C26.4186686,74.232 26.770665,74.2826662 27.096,74.384 L27.056,75.376 C27.0453333,75.5306674 26.973334,75.6266665 26.84,75.664 C26.706666,75.7013335 26.5520009,75.72 26.376,75.72 C26.1413322,75.72 25.9320009,75.7453331 25.748,75.796 C25.5639991,75.8466669 25.4080006,75.934666 25.28,76.06 C25.1519994,76.185334 25.054667,76.3506656 24.988,76.556 C24.921333,76.7613344 24.888,77.0159985 24.888,77.32 L24.888,77.864 L27.024,77.864 L27.024,79.272 L24.952,79.272 L24.952,86 L22.976,86 Z M27.976,80.344 L32.12,80.344 L32.12,81.992 L27.976,81.992 L27.976,80.344 Z M41.384,74.432 L41.384,76.144 L36.256,76.144 L36.256,79.352 L40.296,79.352 L40.296,81.008 L36.256,81.008 L36.256,84.28 L41.384,84.28 L41.384,86 L34.088,86 L34.088,74.432 L41.384,74.432 Z M43.136,86 L43.136,77.792 L44.344,77.792 C44.6000013,77.792 44.7679996,77.9119988 44.848,78.152 L44.976,78.76 C45.1200007,78.5999992 45.2706659,78.453334 45.428,78.32 C45.5853341,78.186666 45.7533324,78.0720005 45.932,77.976 C46.1106676,77.8799995 46.3026656,77.8040003 46.508,77.748 C46.7133344,77.6919997 46.9386654,77.664 47.184,77.664 C47.7013359,77.664 48.126665,77.8039986 48.46,78.084 C48.793335,78.3640014 49.0426658,78.7359977 49.208,79.2 C49.3360006,78.9279986 49.495999,78.6946676 49.688,78.5 C49.880001,78.3053324 50.0906655,78.1466673 50.32,78.024 C50.5493345,77.9013327 50.793332,77.810667 51.052,77.752 C51.310668,77.693333 51.5706654,77.664 51.832,77.664 C52.2853356,77.664 52.6879982,77.7333326 53.04,77.872 C53.3920018,78.0106674 53.6879988,78.213332 53.928,78.48 C54.1680012,78.746668 54.350666,79.0719981 54.476,79.456 C54.601334,79.8400019 54.664,80.2799975 54.664,80.776 L54.664,86 L52.688,86 L52.688,80.776 C52.688,80.2533307 52.5733345,79.8600013 52.344,79.596 C52.1146655,79.3319987 51.7786689,79.2 51.336,79.2 C51.1333323,79.2 50.9453342,79.2346663 50.772,79.304 C50.5986658,79.3733337 50.4466673,79.4733327 50.316,79.604 C50.1853327,79.7346673 50.082667,79.8986657 50.008,80.096 C49.933333,80.2933343 49.896,80.5199987 49.896,80.776 L49.896,86 L47.912,86 L47.912,80.776 C47.912,80.2266639 47.8013344,79.8266679 47.58,79.576 C47.3586656,79.3253321 47.0320022,79.2 46.6,79.2 C46.3173319,79.2 46.0520012,79.270666 45.804,79.412 C45.5559988,79.553334 45.3253344,79.7466654 45.112,79.992 L45.112,86 L43.136,86 Z M56.608,88.68 L56.608,77.792 L57.816,77.792 C57.9440006,77.792 58.0533329,77.821333 58.144,77.88 C58.2346671,77.938667 58.2933332,78.0293327 58.32,78.152 L58.48,78.912 C58.8106683,78.5333314 59.1906645,78.2266678 59.62,77.992 C60.0493355,77.7573322 60.5519971,77.64 61.128,77.64 C61.5760022,77.64 61.9853315,77.7333324 62.356,77.92 C62.7266685,78.1066676 63.0466653,78.3773316 63.316,78.732 C63.5853347,79.0866684 63.7933326,79.5239974 63.94,80.044 C64.0866674,80.5640026 64.16,81.1599966 64.16,81.832 C64.16,82.4453364 64.0773342,83.0133307 63.912,83.536 C63.7466658,84.0586693 63.5106682,84.5119981 63.204,84.896 C62.8973318,85.2800019 62.5266688,85.5799989 62.092,85.796 C61.6573312,86.0120011 61.1706694,86.12 60.632,86.12 C60.1679977,86.12 59.7746683,86.049334 59.452,85.908 C59.1293317,85.766666 58.8400013,85.5706679 58.584,85.32 L58.584,88.68 L56.608,88.68 Z M60.448,79.2 C60.0373313,79.2 59.6866681,79.2866658 59.396,79.46 C59.1053319,79.6333342 58.8346679,79.8773318 58.584,80.192 L58.584,83.872 C58.8080011,84.1493347 59.0519987,84.3426661 59.316,84.452 C59.5800013,84.5613339 59.8639985,84.616 60.168,84.616 C60.4666682,84.616 60.7373321,84.5600006 60.98,84.448 C61.2226679,84.3359994 61.4279992,84.1653345 61.596,83.936 C61.7640008,83.7066655 61.8933329,83.4173351 61.984,83.068 C62.0746671,82.7186649 62.12,82.306669 62.12,81.832 C62.12,81.3519976 62.0813337,80.945335 62.004,80.612 C61.9266663,80.278665 61.8160007,80.008001 61.672,79.8 C61.5279993,79.591999 61.3533344,79.4400005 61.148,79.344 C60.9426656,79.2479995 60.7093346,79.2 60.448,79.2 Z M67.76,74.112 L67.76,86 L65.784,86 L65.784,74.112 L67.76,74.112 Z M73.496,77.664 C74.1093364,77.664 74.6653308,77.7626657 75.164,77.96 C75.6626692,78.1573343 76.0879982,78.4373315 76.44,78.8 C76.7920018,79.1626685 77.063999,79.6053307 77.256,80.128 C77.448001,80.6506693 77.544,81.2346634 77.544,81.88 C77.544,82.5306699 77.448001,83.1173307 77.256,83.64 C77.063999,84.1626693 76.7920018,84.6079982 76.44,84.976 C76.0879982,85.3440018 75.6626692,85.6266657 75.164,85.824 C74.6653308,86.0213343 74.1093364,86.12 73.496,86.12 C72.8826636,86.12 72.3253358,86.0213343 71.824,85.824 C71.3226642,85.6266657 70.8946684,85.3440018 70.54,84.976 C70.1853316,84.6079982 69.9106676,84.1626693 69.716,83.64 C69.5213324,83.1173307 69.424,82.5306699 69.424,81.88 C69.424,81.2346634 69.5213324,80.6506693 69.716,80.128 C69.9106676,79.6053307 70.1853316,79.1626685 70.54,78.8 C70.8946684,78.4373315 71.3226642,78.1573343 71.824,77.96 C72.3253358,77.7626657 72.8826636,77.664 73.496,77.664 Z M73.496,84.6 C74.1786701,84.6 74.6839984,84.370669 75.012,83.912 C75.3400016,83.453331 75.504,82.7813378 75.504,81.896 C75.504,81.0106622 75.3400016,80.3360023 75.012,79.872 C74.6839984,79.4079977 74.1786701,79.176 73.496,79.176 C72.8026632,79.176 72.2906683,79.409331 71.96,79.876 C71.6293317,80.342669 71.464,81.0159956 71.464,81.896 C71.464,82.7760044 71.6293317,83.4466644 71.96,83.908 C72.2906683,84.3693356 72.8026632,84.6 73.496,84.6 Z M81.736,88.256 C81.677333,88.3946674 81.6013338,88.4999996 81.508,88.572 C81.4146662,88.6440004 81.272001,88.68 81.08,88.68 L79.608,88.68 L81.144,85.392 L77.824,77.792 L79.552,77.792 C79.7120008,77.792 79.8346662,77.829333 79.92,77.904 C80.0053338,77.978667 80.0693331,78.0639995 80.112,78.16 L81.864,82.416 C81.922667,82.5546674 81.9733331,82.6986659 82.016,82.848 C82.0586669,82.9973341 82.0959998,83.1466659 82.128,83.296 C82.1706669,83.1413326 82.2173331,82.9920007 82.268,82.848 C82.3186669,82.7039993 82.373333,82.5573341 82.432,82.408 L84.08,78.16 C84.1226669,78.0533328 84.1933328,77.9653337 84.292,77.896 C84.3906672,77.8266663 84.5013327,77.792 84.624,77.792 L86.208,77.792 L81.736,88.256 Z M90.488,77.664 C91.0053359,77.664 91.4813312,77.7466658 91.916,77.912 C92.3506688,78.0773342 92.7253318,78.3186651 93.04,78.636 C93.3546682,78.9533349 93.5999991,79.3426644 93.776,79.804 C93.9520009,80.2653356 94.04,80.791997 94.04,81.384 C94.04,81.5333341 94.0333334,81.6573328 94.02,81.756 C94.0066666,81.8546672 93.9826668,81.9319997 93.948,81.988 C93.9133332,82.0440003 93.866667,82.0839999 93.808,82.108 C93.749333,82.1320001 93.6746671,82.144 93.584,82.144 L88.512,82.144 C88.570667,82.9866709 88.7973314,83.6053314 89.192,84 C89.5866686,84.3946686 90.1093301,84.592 90.76,84.592 C91.0800016,84.592 91.3559988,84.554667 91.588,84.48 C91.8200012,84.405333 92.0226658,84.3226671 92.196,84.232 C92.3693342,84.1413329 92.5213327,84.058667 92.652,83.984 C92.7826673,83.909333 92.9093327,83.872 93.032,83.872 C93.1120004,83.872 93.181333,83.8879998 93.24,83.92 C93.298667,83.9520002 93.3493331,83.997333 93.392,84.056 L93.968,84.776 C93.7493322,85.0320013 93.5040014,85.2466658 93.232,85.42 C92.9599986,85.5933342 92.6760015,85.7319995 92.38,85.836 C92.0839985,85.9400005 91.7826682,86.0133331 91.476,86.056 C91.1693318,86.0986669 90.8720014,86.12 90.584,86.12 C90.0133305,86.12 89.4826691,86.0253343 88.992,85.836 C88.5013309,85.6466657 88.0746685,85.3666685 87.712,84.996 C87.3493315,84.6253315 87.064001,84.1666694 86.856,83.62 C86.647999,83.0733306 86.544,82.4400036 86.544,81.72 C86.544,81.1599972 86.6346658,80.6333358 86.816,80.14 C86.9973342,79.6466642 87.2573316,79.2173352 87.596,78.852 C87.9346684,78.4866648 88.3479976,78.1973344 88.836,77.984 C89.3240024,77.7706656 89.8746636,77.664 90.488,77.664 Z M90.528,79.08 C89.9519971,79.08 89.501335,79.242665 89.176,79.568 C88.850665,79.893335 88.6426671,80.3546637 88.552,80.952 L92.264,80.952 C92.264,80.6959987 92.2293337,80.4546678 92.16,80.228 C92.0906663,80.0013322 91.9840007,79.8026675 91.84,79.632 C91.6959993,79.4613325 91.5146678,79.3266672 91.296,79.228 C91.0773322,79.1293328 90.8213348,79.08 90.528,79.08 Z M101.424,86 C101.167999,86 101,85.8800012 100.92,85.64 L100.76,84.848 C100.589332,85.040001 100.410668,85.2133326 100.224,85.368 C100.037332,85.5226674 99.8360011,85.6559994 99.62,85.768 C99.4039989,85.8800006 99.1720012,85.9666664 98.924,86.028 C98.6759988,86.0893336 98.4080014,86.12 98.12,86.12 C97.6719978,86.12 97.2613352,86.0266676 96.888,85.84 C96.5146648,85.6533324 96.1933347,85.3826684 95.924,85.028 C95.6546653,84.6733316 95.4466674,84.2346693 95.3,83.712 C95.1533326,83.1893307 95.08,82.5920034 95.08,81.92 C95.08,81.311997 95.1626658,80.7466693 95.328,80.224 C95.4933342,79.7013307 95.7306651,79.2480019 96.04,78.864 C96.3493349,78.4799981 96.7199978,78.1800011 97.152,77.964 C97.5840022,77.7479989 98.0693306,77.64 98.608,77.64 C99.066669,77.64 99.458665,77.7133326 99.784,77.86 C100.109335,78.0066674 100.399999,78.2026654 100.656,78.448 L100.656,74.112 L102.632,74.112 L102.632,86 L101.424,86 Z M98.792,84.552 C99.2026687,84.552 99.5519986,84.4666675 99.84,84.296 C100.128001,84.1253325 100.399999,83.8826682 100.656,83.568 L100.656,79.888 C100.431999,79.6159986 100.188001,79.4240006 99.924,79.312 C99.6599987,79.1999994 99.3760015,79.144 99.072,79.144 C98.7733318,79.144 98.5026679,79.1999994 98.26,79.312 C98.0173321,79.4240006 97.8120008,79.5933322 97.644,79.82 C97.4759992,80.0466678 97.3466671,80.3346649 97.256,80.684 C97.1653329,81.0333351 97.12,81.445331 97.12,81.92 C97.12,82.4000024 97.1586663,82.806665 97.236,83.14 C97.3133337,83.473335 97.4239993,83.7453323 97.568,83.956 C97.7120007,84.1666677 97.887999,84.3186662 98.096,84.412 C98.304001,84.5053338 98.5359987,84.552 98.792,84.552 Z M105.456,86.024 C105.408,86.1466673 105.346667,86.2533329 105.272,86.344 C105.197333,86.4346671 105.112,86.5106664 105.016,86.572 C104.92,86.6333336 104.818667,86.6799998 104.712,86.712 C104.605333,86.7440002 104.501334,86.76 104.4,86.76 L103.568,86.76 L108.24,74.808 C108.330667,74.5839989 108.461332,74.4120006 108.632,74.292 C108.802668,74.1719994 109.007999,74.112 109.248,74.112 L110.088,74.112 L105.456,86.024 Z M9.456,105 L9.456,93.432 L13.448,93.432 C14.2053371,93.432 14.8519973,93.5039993 15.388,93.648 C15.9240027,93.7920007 16.3639983,93.997332 16.708,94.264 C17.0520017,94.530668 17.3039992,94.8533314 17.464,95.232 C17.6240008,95.6106686 17.704,96.037331 17.704,96.512 C17.704,96.7840014 17.6640004,97.0439988 17.584,97.292 C17.5039996,97.5400012 17.3800008,97.7719989 17.212,97.988 C17.0439992,98.2040011 16.830668,98.3999991 16.572,98.576 C16.313332,98.7520009 16.0053351,98.9013327 15.648,99.024 C17.2373413,99.3813351 18.032,100.239993 18.032,101.6 C18.032,102.090669 17.9386676,102.543998 17.752,102.96 C17.5653324,103.376002 17.2933351,103.734665 16.936,104.036 C16.5786649,104.337335 16.1386693,104.573332 15.616,104.744 C15.0933307,104.914668 14.4960034,105 13.824,105 L9.456,105 Z M11.608,99.928 L11.608,103.32 L13.792,103.32 C14.192002,103.32 14.5266653,103.272 14.796,103.176 C15.0653347,103.08 15.2813325,102.952001 15.444,102.792 C15.6066675,102.631999 15.7239996,102.445334 15.796,102.232 C15.8680004,102.018666 15.904,101.792001 15.904,101.552 C15.904,101.301332 15.8640004,101.076001 15.784,100.876 C15.7039996,100.675999 15.5786675,100.505334 15.408,100.364 C15.2373325,100.222666 15.018668,100.114667 14.752,100.04 C14.485332,99.965333 14.1626686,99.928 13.784,99.928 L11.608,99.928 Z M11.608,98.44 L13.328,98.44 C14.0586703,98.44 14.6133314,98.306668 14.992,98.04 C15.3706686,97.773332 15.56,97.3493362 15.56,96.768 C15.56,96.1653303 15.389335,95.7360013 15.048,95.48 C14.706665,95.2239987 14.173337,95.096 13.448,95.096 L11.608,95.096 L11.608,98.44 Z M21.576,96.792 L21.576,102.008 C21.576,102.509336 21.6919988,102.897332 21.924,103.172 C22.1560012,103.446668 22.5039977,103.584 22.968,103.584 C23.309335,103.584 23.6293318,103.508001 23.928,103.356 C24.2266682,103.203999 24.509332,102.994668 24.776,102.728 L24.776,96.792 L26.752,96.792 L26.752,105 L25.544,105 C25.2879987,105 25.1200004,104.880001 25.04,104.64 L24.904,103.984 C24.7333325,104.154668 24.5573342,104.310666 24.376,104.452 C24.1946658,104.593334 24.0013344,104.713333 23.796,104.812 C23.5906656,104.910667 23.3693345,104.988 23.132,105.044 C22.8946655,105.1 22.6400014,105.128 22.368,105.128 C21.9199978,105.128 21.5240017,105.052001 21.18,104.9 C20.8359983,104.747999 20.5466678,104.533335 20.312,104.256 C20.0773322,103.978665 19.9000006,103.649335 19.78,103.268 C19.6599994,102.886665 19.6,102.466669 19.6,102.008 L19.6,96.792 L21.576,96.792 Z M33.736,98.392 C33.6826664,98.4773338 33.626667,98.5373332 33.568,98.572 C33.509333,98.6066668 33.4346671,98.624 33.344,98.624 C33.2479995,98.624 33.1453339,98.5973336 33.036,98.544 C32.9266661,98.4906664 32.8000007,98.430667 32.656,98.364 C32.5119993,98.297333 32.3480009,98.2373336 32.164,98.184 C31.9799991,98.1306664 31.7626679,98.104 31.512,98.104 C31.1226647,98.104 30.8160011,98.1866658 30.592,98.352 C30.3679989,98.5173342 30.256,98.733332 30.256,99 C30.256,99.1760009 30.3133328,99.3239994 30.428,99.444 C30.5426672,99.5640006 30.6946657,99.6693329 30.884,99.76 C31.0733343,99.8506671 31.2879988,99.9319996 31.528,100.004 C31.7680012,100.076 32.0133321,100.154666 32.264,100.24 C32.5146679,100.325334 32.7599988,100.422666 33,100.532 C33.2400012,100.641334 33.4546657,100.779999 33.644,100.948 C33.8333343,101.116001 33.9853328,101.317332 34.1,101.552 C34.2146672,101.786668 34.272,102.069332 34.272,102.4 C34.272,102.794669 34.2000007,103.158665 34.056,103.492 C33.9119993,103.825335 33.7013347,104.113332 33.424,104.356 C33.1466653,104.598668 32.804002,104.787999 32.396,104.924 C31.987998,105.060001 31.5200026,105.128 30.992,105.128 C30.7093319,105.128 30.4333347,105.102667 30.164,105.052 C29.8946653,105.001333 29.6360012,104.930667 29.388,104.84 C29.1399988,104.749333 28.9106677,104.642667 28.7,104.52 C28.4893323,104.397333 28.3040008,104.264001 28.144,104.12 L28.6,103.368 C28.658667,103.277333 28.7279996,103.208 28.808,103.16 C28.8880004,103.112 28.9893327,103.088 29.112,103.088 C29.2346673,103.088 29.3506661,103.122666 29.46,103.192 C29.5693339,103.261334 29.6959993,103.336 29.84,103.416 C29.9840007,103.496 30.1533324,103.570666 30.348,103.64 C30.5426676,103.709334 30.7893318,103.744 31.088,103.744 C31.3226678,103.744 31.5239992,103.716 31.692,103.66 C31.8600008,103.604 31.9986661,103.530667 32.108,103.44 C32.2173339,103.349333 32.2973331,103.244001 32.348,103.124 C32.3986669,103.003999 32.424,102.880001 32.424,102.752 C32.424,102.559999 32.3666672,102.402667 32.252,102.28 C32.1373328,102.157333 31.9853343,102.050667 31.796,101.96 C31.6066657,101.869333 31.3906679,101.788 31.148,101.716 C30.9053321,101.644 30.6573346,101.565334 30.404,101.48 C30.1506654,101.394666 29.9026679,101.294667 29.66,101.18 C29.4173321,101.065333 29.2013343,100.920001 29.012,100.744 C28.8226657,100.567999 28.6706672,100.352001 28.556,100.096 C28.4413328,99.8399987 28.384,99.5306685 28.384,99.168 C28.384,98.8319983 28.450666,98.5120015 28.584,98.208 C28.717334,97.9039985 28.913332,97.6386678 29.172,97.412 C29.430668,97.1853322 29.7533314,97.0040007 30.14,96.868 C30.5266686,96.7319993 30.9733308,96.664 31.48,96.664 C32.0453362,96.664 32.5599977,96.7573324 33.024,96.944 C33.4880023,97.1306676 33.8746651,97.3759985 34.184,97.68 L33.736,98.392 Z M37.96,96.792 L37.96,105 L35.984,105 L35.984,96.792 L37.96,96.792 Z M38.256,94.4 C38.256,94.5706675 38.2213337,94.7306659 38.152,94.88 C38.0826663,95.0293341 37.9906672,95.1599994 37.876,95.272 C37.7613328,95.3840006 37.6266674,95.473333 37.472,95.54 C37.3173326,95.606667 37.1520009,95.64 36.976,95.64 C36.8053325,95.64 36.6440008,95.606667 36.492,95.54 C36.3399992,95.473333 36.2080006,95.3840006 36.096,95.272 C35.9839994,95.1599994 35.894667,95.0293341 35.828,94.88 C35.761333,94.7306659 35.728,94.5706675 35.728,94.4 C35.728,94.2239991 35.761333,94.0586674 35.828,93.904 C35.894667,93.7493326 35.9839994,93.6160006 36.096,93.504 C36.2080006,93.3919994 36.3399992,93.302667 36.492,93.236 C36.6440008,93.169333 36.8053325,93.136 36.976,93.136 C37.1520009,93.136 37.3173326,93.169333 37.472,93.236 C37.6266674,93.302667 37.7613328,93.3919994 37.876,93.504 C37.9906672,93.6160006 38.0826663,93.7493326 38.152,93.904 C38.2213337,94.0586674 38.256,94.2239991 38.256,94.4 Z M40.192,105 L40.192,96.792 L41.4,96.792 C41.6560013,96.792 41.8239996,96.9119988 41.904,97.152 L42.04,97.8 C42.2053342,97.6293325 42.3799991,97.4746674 42.564,97.336 C42.7480009,97.1973326 42.9426656,97.0773338 43.148,96.976 C43.3533344,96.8746662 43.5733322,96.7973336 43.808,96.744 C44.0426678,96.6906664 44.2986653,96.664 44.576,96.664 C45.0240022,96.664 45.4213316,96.7399992 45.768,96.892 C46.1146684,97.0440008 46.4039988,97.257332 46.636,97.532 C46.8680012,97.806668 47.0439994,98.1346648 47.164,98.516 C47.2840006,98.8973352 47.344,99.317331 47.344,99.776 L47.344,105 L45.368,105 L45.368,99.776 C45.368,99.2746642 45.2520012,98.886668 45.02,98.612 C44.7879988,98.337332 44.4400023,98.2 43.976,98.2 C43.634665,98.2 43.3146682,98.2773326 43.016,98.432 C42.7173318,98.5866674 42.434668,98.797332 42.168,99.064 L42.168,105 L40.192,105 Z M52.68,96.664 C53.1973359,96.664 53.6733312,96.7466658 54.108,96.912 C54.5426688,97.0773342 54.9173318,97.3186651 55.232,97.636 C55.5466682,97.9533349 55.7919991,98.3426644 55.968,98.804 C56.1440009,99.2653356 56.232,99.791997 56.232,100.384 C56.232,100.533334 56.2253334,100.657333 56.212,100.756 C56.1986666,100.854667 56.1746668,100.932 56.14,100.988 C56.1053332,101.044 56.058667,101.084 56,101.108 C55.941333,101.132 55.8666671,101.144 55.776,101.144 L50.704,101.144 C50.762667,101.986671 50.9893314,102.605331 51.384,103 C51.7786686,103.394669 52.3013301,103.592 52.952,103.592 C53.2720016,103.592 53.5479988,103.554667 53.78,103.48 C54.0120012,103.405333 54.2146658,103.322667 54.388,103.232 C54.5613342,103.141333 54.7133327,103.058667 54.844,102.984 C54.9746673,102.909333 55.1013327,102.872 55.224,102.872 C55.3040004,102.872 55.373333,102.888 55.432,102.92 C55.490667,102.952 55.5413331,102.997333 55.584,103.056 L56.16,103.776 C55.9413322,104.032001 55.6960014,104.246666 55.424,104.42 C55.1519986,104.593334 54.8680015,104.731999 54.572,104.836 C54.2759985,104.940001 53.9746682,105.013333 53.668,105.056 C53.3613318,105.098667 53.0640014,105.12 52.776,105.12 C52.2053305,105.12 51.6746691,105.025334 51.184,104.836 C50.6933309,104.646666 50.2666685,104.366669 49.904,103.996 C49.5413315,103.625331 49.256001,103.166669 49.048,102.62 C48.839999,102.073331 48.736,101.440004 48.736,100.72 C48.736,100.159997 48.8266658,99.6333358 49.008,99.14 C49.1893342,98.6466642 49.4493316,98.2173352 49.788,97.852 C50.1266684,97.4866648 50.5399976,97.1973344 51.028,96.984 C51.5160024,96.7706656 52.0666636,96.664 52.68,96.664 Z M52.72,98.08 C52.1439971,98.08 51.693335,98.242665 51.368,98.568 C51.042665,98.893335 50.8346671,99.3546637 50.744,99.952 L54.456,99.952 C54.456,99.6959987 54.4213337,99.4546678 54.352,99.228 C54.2826663,99.0013322 54.1760007,98.8026675 54.032,98.632 C53.8879993,98.4613325 53.7066678,98.3266672 53.488,98.228 C53.2693322,98.1293328 53.0133348,98.08 52.72,98.08 Z M62.712,98.392 C62.6586664,98.4773338 62.602667,98.5373332 62.544,98.572 C62.485333,98.6066668 62.4106671,98.624 62.32,98.624 C62.2239995,98.624 62.1213339,98.5973336 62.012,98.544 C61.9026661,98.4906664 61.7760007,98.430667 61.632,98.364 C61.4879993,98.297333 61.3240009,98.2373336 61.14,98.184 C60.9559991,98.1306664 60.7386679,98.104 60.488,98.104 C60.0986647,98.104 59.7920011,98.1866658 59.568,98.352 C59.3439989,98.5173342 59.232,98.733332 59.232,99 C59.232,99.1760009 59.2893328,99.3239994 59.404,99.444 C59.5186672,99.5640006 59.6706657,99.6693329 59.86,99.76 C60.0493343,99.8506671 60.2639988,99.9319996 60.504,100.004 C60.7440012,100.076 60.9893321,100.154666 61.24,100.24 C61.4906679,100.325334 61.7359988,100.422666 61.976,100.532 C62.2160012,100.641334 62.4306657,100.779999 62.62,100.948 C62.8093343,101.116001 62.9613328,101.317332 63.076,101.552 C63.1906672,101.786668 63.248,102.069332 63.248,102.4 C63.248,102.794669 63.1760007,103.158665 63.032,103.492 C62.8879993,103.825335 62.6773347,104.113332 62.4,104.356 C62.1226653,104.598668 61.780002,104.787999 61.372,104.924 C60.963998,105.060001 60.4960026,105.128 59.968,105.128 C59.6853319,105.128 59.4093347,105.102667 59.14,105.052 C58.8706653,105.001333 58.6120012,104.930667 58.364,104.84 C58.1159988,104.749333 57.8866677,104.642667 57.676,104.52 C57.4653323,104.397333 57.2800008,104.264001 57.12,104.12 L57.576,103.368 C57.634667,103.277333 57.7039996,103.208 57.784,103.16 C57.8640004,103.112 57.9653327,103.088 58.088,103.088 C58.2106673,103.088 58.3266661,103.122666 58.436,103.192 C58.5453339,103.261334 58.6719993,103.336 58.816,103.416 C58.9600007,103.496 59.1293324,103.570666 59.324,103.64 C59.5186676,103.709334 59.7653318,103.744 60.064,103.744 C60.2986678,103.744 60.4999992,103.716 60.668,103.66 C60.8360008,103.604 60.9746661,103.530667 61.084,103.44 C61.1933339,103.349333 61.2733331,103.244001 61.324,103.124 C61.3746669,103.003999 61.4,102.880001 61.4,102.752 C61.4,102.559999 61.3426672,102.402667 61.228,102.28 C61.1133328,102.157333 60.9613343,102.050667 60.772,101.96 C60.5826657,101.869333 60.3666679,101.788 60.124,101.716 C59.8813321,101.644 59.6333346,101.565334 59.38,101.48 C59.1266654,101.394666 58.8786679,101.294667 58.636,101.18 C58.3933321,101.065333 58.1773343,100.920001 57.988,100.744 C57.7986657,100.567999 57.6466672,100.352001 57.532,100.096 C57.4173328,99.8399987 57.36,99.5306685 57.36,99.168 C57.36,98.8319983 57.426666,98.5120015 57.56,98.208 C57.693334,97.9039985 57.889332,97.6386678 58.148,97.412 C58.406668,97.1853322 58.7293314,97.0040007 59.116,96.868 C59.5026686,96.7319993 59.9493308,96.664 60.456,96.664 C61.0213362,96.664 61.5359977,96.7573324 62,96.944 C62.4640023,97.1306676 62.8506651,97.3759985 63.16,97.68 L62.712,98.392 Z M69.704,98.392 C69.6506664,98.4773338 69.594667,98.5373332 69.536,98.572 C69.477333,98.6066668 69.4026671,98.624 69.312,98.624 C69.2159995,98.624 69.1133339,98.5973336 69.004,98.544 C68.8946661,98.4906664 68.7680007,98.430667 68.624,98.364 C68.4799993,98.297333 68.3160009,98.2373336 68.132,98.184 C67.9479991,98.1306664 67.7306679,98.104 67.48,98.104 C67.0906647,98.104 66.7840011,98.1866658 66.56,98.352 C66.3359989,98.5173342 66.224,98.733332 66.224,99 C66.224,99.1760009 66.2813328,99.3239994 66.396,99.444 C66.5106672,99.5640006 66.6626657,99.6693329 66.852,99.76 C67.0413343,99.8506671 67.2559988,99.9319996 67.496,100.004 C67.7360012,100.076 67.9813321,100.154666 68.232,100.24 C68.4826679,100.325334 68.7279988,100.422666 68.968,100.532 C69.2080012,100.641334 69.4226657,100.779999 69.612,100.948 C69.8013343,101.116001 69.9533328,101.317332 70.068,101.552 C70.1826672,101.786668 70.24,102.069332 70.24,102.4 C70.24,102.794669 70.1680007,103.158665 70.024,103.492 C69.8799993,103.825335 69.6693347,104.113332 69.392,104.356 C69.1146653,104.598668 68.772002,104.787999 68.364,104.924 C67.955998,105.060001 67.4880026,105.128 66.96,105.128 C66.6773319,105.128 66.4013347,105.102667 66.132,105.052 C65.8626653,105.001333 65.6040012,104.930667 65.356,104.84 C65.1079988,104.749333 64.8786677,104.642667 64.668,104.52 C64.4573323,104.397333 64.2720008,104.264001 64.112,104.12 L64.568,103.368 C64.626667,103.277333 64.6959996,103.208 64.776,103.16 C64.8560004,103.112 64.9573327,103.088 65.08,103.088 C65.2026673,103.088 65.3186661,103.122666 65.428,103.192 C65.5373339,103.261334 65.6639993,103.336 65.808,103.416 C65.9520007,103.496 66.1213324,103.570666 66.316,103.64 C66.5106676,103.709334 66.7573318,103.744 67.056,103.744 C67.2906678,103.744 67.4919992,103.716 67.66,103.66 C67.8280008,103.604 67.9666661,103.530667 68.076,103.44 C68.1853339,103.349333 68.2653331,103.244001 68.316,103.124 C68.3666669,103.003999 68.392,102.880001 68.392,102.752 C68.392,102.559999 68.3346672,102.402667 68.22,102.28 C68.1053328,102.157333 67.9533343,102.050667 67.764,101.96 C67.5746657,101.869333 67.3586679,101.788 67.116,101.716 C66.8733321,101.644 66.6253346,101.565334 66.372,101.48 C66.1186654,101.394666 65.8706679,101.294667 65.628,101.18 C65.3853321,101.065333 65.1693343,100.920001 64.98,100.744 C64.7906657,100.567999 64.6386672,100.352001 64.524,100.096 C64.4093328,99.8399987 64.352,99.5306685 64.352,99.168 C64.352,98.8319983 64.418666,98.5120015 64.552,98.208 C64.685334,97.9039985 64.881332,97.6386678 65.14,97.412 C65.398668,97.1853322 65.7213314,97.0040007 66.108,96.868 C66.4946686,96.7319993 66.9413308,96.664 67.448,96.664 C68.0133362,96.664 68.5279977,96.7573324 68.992,96.944 C69.4560023,97.1306676 69.8426651,97.3759985 70.152,97.68 L69.704,98.392 Z M71.824,105 L71.824,96.792 L73.032,96.792 C73.2880013,96.792 73.4559996,96.9119988 73.536,97.152 L73.664,97.76 C73.8080007,97.5999992 73.9586659,97.453334 74.116,97.32 C74.2733341,97.186666 74.4413324,97.0720005 74.62,96.976 C74.7986676,96.8799995 74.9906656,96.8040003 75.196,96.748 C75.4013344,96.6919997 75.6266654,96.664 75.872,96.664 C76.3893359,96.664 76.814665,96.8039986 77.148,97.084 C77.481335,97.3640014 77.7306658,97.7359977 77.896,98.2 C78.0240006,97.9279986 78.183999,97.6946676 78.376,97.5 C78.568001,97.3053324 78.7786655,97.1466673 79.008,97.024 C79.2373345,96.9013327 79.481332,96.810667 79.74,96.752 C79.998668,96.693333 80.2586654,96.664 80.52,96.664 C80.9733356,96.664 81.3759982,96.7333326 81.728,96.872 C82.0800018,97.0106674 82.3759988,97.213332 82.616,97.48 C82.8560012,97.746668 83.038666,98.0719981 83.164,98.456 C83.289334,98.8400019 83.352,99.2799975 83.352,99.776 L83.352,105 L81.376,105 L81.376,99.776 C81.376,99.2533307 81.2613345,98.8600013 81.032,98.596 C80.8026655,98.3319987 80.4666689,98.2 80.024,98.2 C79.8213323,98.2 79.6333342,98.2346663 79.46,98.304 C79.2866658,98.3733337 79.1346673,98.4733327 79.004,98.604 C78.8733327,98.7346673 78.770667,98.8986657 78.696,99.096 C78.621333,99.2933343 78.584,99.5199987 78.584,99.776 L78.584,105 L76.6,105 L76.6,99.776 C76.6,99.2266639 76.4893344,98.8266679 76.268,98.576 C76.0466656,98.3253321 75.7200022,98.2 75.288,98.2 C75.0053319,98.2 74.7400012,98.270666 74.492,98.412 C74.2439988,98.553334 74.0133344,98.7466654 73.8,98.992 L73.8,105 L71.824,105 Z M91.728,105 L90.84,105 C90.6533324,105 90.5066672,104.972 90.4,104.916 C90.2933328,104.86 90.2133336,104.746668 90.16,104.576 L89.984,103.992 C89.775999,104.178668 89.572001,104.342666 89.372,104.484 C89.171999,104.625334 88.9653344,104.744 88.752,104.84 C88.5386656,104.936 88.3120012,105.008 88.072,105.056 C87.8319988,105.104 87.5653348,105.128 87.272,105.128 C86.9253316,105.128 86.6053348,105.081334 86.312,104.988 C86.0186652,104.894666 85.7666677,104.754668 85.556,104.568 C85.3453323,104.381332 85.1813339,104.149335 85.064,103.872 C84.9466661,103.594665 84.888,103.272002 84.888,102.904 C84.888,102.594665 84.9693325,102.289335 85.132,101.988 C85.2946675,101.686665 85.5653314,101.414668 85.944,101.172 C86.3226686,100.929332 86.8266635,100.728001 87.456,100.568 C88.0853365,100.407999 88.866662,100.317333 89.8,100.296 L89.8,99.816 C89.8,99.2666639 89.6840012,98.8600013 89.452,98.596 C89.2199988,98.3319987 88.8826689,98.2 88.44,98.2 C88.1199984,98.2 87.8533344,98.237333 87.64,98.312 C87.4266656,98.386667 87.2413341,98.4706662 87.084,98.564 C86.9266659,98.6573338 86.781334,98.741333 86.648,98.816 C86.514666,98.890667 86.3680008,98.928 86.208,98.928 C86.074666,98.928 85.9600005,98.8933337 85.864,98.824 C85.7679995,98.7546663 85.690667,98.6693338 85.632,98.568 L85.272,97.936 C86.2160047,97.0719957 87.35466,96.64 88.688,96.64 C89.1680024,96.64 89.5959981,96.7186659 89.972,96.876 C90.3480019,97.0333341 90.6666654,97.2519986 90.928,97.532 C91.1893346,97.8120014 91.3879993,98.1466647 91.524,98.536 C91.6600007,98.9253353 91.728,99.3519977 91.728,99.816 L91.728,105 Z M87.888,103.768 C88.0906677,103.768 88.2773325,103.749334 88.448,103.712 C88.6186675,103.674666 88.7799992,103.618667 88.932,103.544 C89.0840008,103.469333 89.230666,103.377334 89.372,103.268 C89.513334,103.158666 89.6559993,103.029334 89.8,102.88 L89.8,101.496 C89.2239971,101.522667 88.7426686,101.572 88.356,101.644 C87.9693314,101.716 87.6586678,101.807999 87.424,101.92 C87.1893322,102.032001 87.0226672,102.162666 86.924,102.312 C86.8253328,102.461334 86.776,102.623999 86.776,102.8 C86.776,103.146668 86.8786656,103.394666 87.084,103.544 C87.2893344,103.693334 87.5573317,103.768 87.888,103.768 Z M93.672,105 L93.672,96.792 L94.88,96.792 C95.1360013,96.792 95.3039996,96.9119988 95.384,97.152 L95.52,97.8 C95.6853342,97.6293325 95.8599991,97.4746674 96.044,97.336 C96.2280009,97.1973326 96.4226656,97.0773338 96.628,96.976 C96.8333344,96.8746662 97.0533322,96.7973336 97.288,96.744 C97.5226678,96.6906664 97.7786653,96.664 98.056,96.664 C98.5040022,96.664 98.9013316,96.7399992 99.248,96.892 C99.5946684,97.0440008 99.8839988,97.257332 100.116,97.532 C100.348001,97.806668 100.523999,98.1346648 100.644,98.516 C100.764001,98.8973352 100.824,99.317331 100.824,99.776 L100.824,105 L98.848,105 L98.848,99.776 C98.848,99.2746642 98.7320012,98.886668 98.5,98.612 C98.2679988,98.337332 97.9200023,98.2 97.456,98.2 C97.114665,98.2 96.7946682,98.2773326 96.496,98.432 C96.1973318,98.5866674 95.914668,98.797332 95.648,99.064 L95.648,105 L93.672,105 Z" id="Self-Employed/-Busin"></path>
            <g id="Page-1" transform="translate(26.000000, 0.000000)">
                <path d="M50.6979281,38.2710216 C49.1349065,38.1351942 40.0960576,35.3487194 36.7662734,33.9215252 C36.6982158,37.9313094 36.5622446,44.7271367 36.4943309,45.2028201 C36.4262734,45.950446 35.3390791,49.3485755 32.0090072,53.7659856 C32.0090072,53.7659856 31.7372086,50.7756259 31.4652662,47.1737554 C31.2613813,44.4553381 29.4944748,43.0282878 29.4944748,41.6009496 C29.4944748,41.2612374 30.7856978,40.3776403 30.7856978,39.4943309 C30.7856978,38.6108777 30.5138993,37.7274245 28.6789353,37.7274245 C26.8441151,37.7274245 26.5721727,38.6108777 26.5721727,39.4943309 C26.5721727,40.3776403 27.8633957,41.2612374 27.8633957,41.6009496 C27.8633957,43.0282878 26.1644029,44.4553381 25.8926043,47.1737554 C25.6208058,50.7756259 25.3488633,53.7659856 25.3488633,53.7659856 C22.0189353,49.3485755 20.9315971,45.950446 20.8635396,45.2028201 C20.7956259,44.6593669 20.6596547,37.9313094 20.5918849,33.9215252 C17.2616691,35.3487194 8.22310791,38.1351942 6.66008633,38.2710216 C4.8251223,38.4069928 4.34943885,38.9505899 3.46584173,40.5136115 C2.51447482,42.076777 0.339798561,49.824259 -5.75539568e-05,54.7852662 C2.85418705,55.8726043 16.1064173,59.9501583 28.7468489,59.9501583 C41.3874245,59.9501583 54.6396547,55.8726043 57.3579281,54.7852662 C57.0182158,49.824259 54.8435396,42.076777 53.8918849,40.5136115 C53.0085755,38.9505899 52.5328921,38.4749065 50.6979281,38.2710216" id="Fill-1"></path>
                <path d="M17.9413525,16.6598273 C18.0092662,17.4753669 18.1452374,19.7179568 18.3491223,21.5529209 C18.4849496,23.3878849 19.5722878,23.1160863 19.7763165,22.9122014 C19.7763165,25.4265899 21.8150216,27.8732086 21.8150216,27.8732086 C22.7663885,29.3683165 26.0966043,31.4071655 28.746964,31.4071655 C23.8538705,31.4071655 21.8150216,29.4362302 21.8150216,29.4362302 L21.8150216,33.2419856 L27.7954532,37.3195396 L29.6304173,37.3195396 L35.6108489,33.2419856 L35.6108489,27.8051511 C35.6108489,27.8051511 37.6496978,25.2907626 37.6496978,22.8441439 C37.8535827,23.0480288 38.940777,23.3199712 39.0768921,21.4850072 C39.2127194,19.6500432 39.4166043,17.4074532 39.4846619,16.5919137 C39.5525755,15.7763741 38.4652374,15.9123453 38.3971799,16.3880288 C38.3971799,15.7084604 38.3292662,15.4366619 38.3971799,15.3686043 C38.4652374,15.3006906 39.0768921,14.6211223 39.0768921,14.0094676 C39.0768921,13.3978129 39.4166043,12.9900432 39.4166043,11.8346475 L39.4166043,6.94155396 C39.4166043,6.19407194 38.6691223,6.60184173 38.6691223,6.19407194 C38.6691223,5.78630216 38.193295,3.95133813 35.7466763,3.95133813 C36.4263885,3.40774101 36.8341583,1.7087482 36.6981871,0.961122302 C36.4943022,1.50486331 35.4748777,1.84457554 34.9312806,1.84457554 C32.1449496,1.91263309 31.0574676,0.0776690647 27.7275396,0.145726619 C23.3101295,0.213640288 21.6791942,2.52428777 21.6791942,3.95133813 C19.2325755,3.95133813 18.7568921,5.78630216 18.7568921,6.19407194 C18.7568921,6.60184173 18.0092662,6.12615827 18.0092662,6.94155396 L18.0092662,11.8346475 C18.0092662,12.9900432 18.3491223,13.3978129 18.3491223,14.0094676 C18.3491223,14.6211223 18.960777,15.3006906 19.0286906,15.3686043 C19.0966043,15.4366619 19.0286906,15.7084604 19.0286906,16.3880288 C19.0286906,15.980259 17.9413525,15.7763741 17.9413525,16.6598273" id="Fill-4"></path>
            </g>
        </g>
    </g>
</svg>