<?xml version="1.0" encoding="UTF-8" standalone="no"?>
<svg width="68px" height="101px" viewBox="0 0 68 101" version="1.1" xmlns="http://www.w3.org/2000/svg" xmlns:xlink="http://www.w3.org/1999/xlink">
    <!-- Generator: Sketch 48.2 (47327) - http://www.bohemiancoding.com/sketch -->
    <title>25Years_Red</title>
    <desc>Created with Sketch.</desc>
    <defs></defs>
    <g id="Page2" stroke="none" stroke-width="1" fill="none" fill-rule="evenodd" transform="translate(-261.000000, -159.000000)">
        <g id="25Years_Red" transform="translate(261.000000, 159.000000)" fill="#D0021B">
            <text id="25-Years-Or-Below" font-family="Lato-Bold, Lato" font-size="16" font-weight="bold">
                <tspan x="3.352" y="81">25 Years</tspan>
                <tspan x="0.26" y="100">Or Below</tspan>
            </text>
            <g id="Group" transform="translate(20.000000, 0.000000)">
                <path d="M3.86701163,32.185593 C3.77701163,30.6419884 3.73015116,29.147686 3.72887209,27.7435 C3.73201163,22.896407 4.26387209,19.1997791 5.35561628,16.4417558 C6.21817442,14.2431512 7.55177907,12.6051279 9.11015116,11.8316395 C9.91282558,11.4278023 10.621314,11.3150116 11.0794535,11.2932674 C11.1531744,11.2862907 11.2278256,11.2823372 11.3039884,11.2823372 L12.478407,11.2823372 C12.4786395,11.2295465 12.4837558,11.1780349 12.486314,11.1259419 C10.8865465,10.7960581 8.25445349,10.3391977 7.23898837,10.6600116 C5.77166279,11.1233837 1.67898837,13.9035 0.17294186,22.1279186 C-0.614151163,26.4280349 1.40061628,30.0778023 3.86701163,32.185593" id="Fill-1"></path>
                <path d="M9.04983721,20.1728605 C8.65646512,21.8941395 8.3587907,24.3270465 8.3632093,27.7422791 C8.36251163,29.0434419 8.40669767,30.4544884 8.49355814,31.9377442 C8.53018605,32.5543721 8.32425581,33.1493721 7.91239535,33.6122791 C7.76146512,33.7820465 7.58890698,33.9261163 7.40123256,34.0429767 C7.91832558,34.143093 8.40437209,34.1490233 8.83483721,34.0528605 L9.04960465,30.7373953 L9.04960465,20.1728605 L9.04983721,20.1728605 Z" id="Fill-4"></path>
                <path d="M15.7792674,14.5943605 C14.1100814,14.5943605 12.733686,13.3541279 12.512407,11.7456395 L12.1276395,11.7456395 C12.1278721,11.7744767 12.1281047,11.801686 12.1283372,11.8352907 C12.1234535,13.0177326 11.953686,17.2173837 9.51322093,21.3650581 L9.51322093,28.0291279 C9.89240698,28.1048256 10.6088023,28.2422674 11.4834535,28.3799419 C12.7876395,28.585407 14.4376395,28.7897093 15.7790349,28.7892442 C17.1204302,28.7897093 18.7704302,28.585407 20.0746163,28.3799419 C20.9492674,28.2420349 21.6656628,28.1050581 22.0448488,28.0293605 L22.0448488,17.3462209 C22.1821744,17.6278488 22.3205465,17.9513372 22.4572907,18.3281977 C23.1101977,20.138314 23.6595,23.1078488 23.6572907,27.7428488 C23.6572907,29.020407 23.616593,30.4241279 23.5267093,31.9650581 C23.4667093,32.9869186 24.2469419,33.8636628 25.2692674,33.9231977 C25.3060116,33.9252907 25.3422907,33.9263372 25.3788023,33.9263372 C26.3531047,33.9263372 27.1699651,33.1659884 27.2271744,32.1807558 C27.3205465,30.574593 27.3641512,29.0994767 27.3641512,27.7428488 C27.3548488,20.750407 26.2378721,16.8805233 24.7151977,14.553314 C23.9543837,13.3979651 23.0638023,12.6575 22.2408953,12.2472674 C21.5138023,11.8805233 20.866593,11.7742442 20.4421744,11.7551744 C20.380314,11.7486628 20.3177558,11.7452907 20.2540349,11.7452907 L19.0456628,11.7452907 C18.8250814,13.3541279 17.4484535,14.5943605 15.7792674,14.5943605" id="Fill-6"></path>
                <path d="M15.7790349,29.7161977 C13.4790349,29.7138721 10.5593837,29.1689884 9.51322093,28.9577093 L9.51322093,30.749686 L8.14577907,51.8718953 C8.04322093,53.4507326 9.24054651,54.8129419 10.818686,54.9151512 C12.3972907,55.0173605 13.7597326,53.8214302 13.8621744,52.2421279 L15.050314,33.8958488 L16.5079884,33.8958488 L17.6961279,52.2421279 C17.7983372,53.8214302 19.1612442,55.0173605 20.7400814,54.9151512 C22.3179884,54.8131744 23.515314,53.4509651 23.4128721,51.8718953 L22.0451977,30.7480581 L22.0451977,28.973407 C20.912407,29.1944535 18.0264767,29.7138721 15.7790349,29.7161977" id="Fill-8"></path>
                <path d="M9.51325581,18.1674419 C10.6304651,15.2506977 10.740814,12.6545349 10.7375581,11.8353488 C10.7375581,11.8186047 10.7373256,11.807093 10.7373256,11.7922093 C10.3451163,11.8488372 9.85232558,11.9768605 9.31581395,12.2472093 C8.06988372,12.8653488 6.72593023,14.2172093 5.78593023,16.6124419 C4.83476744,19.0167442 4.19593023,22.4937209 4.19255814,27.7432558 C4.19325581,29.1001163 4.23639535,30.5754651 4.33093023,32.1818605 C4.38906977,33.1667442 5.20546512,33.9263953 6.17918605,33.9266279 C6.21604651,33.9266279 6.25290698,33.9254651 6.28988372,33.9233721 C7.31174419,33.8636047 8.09127907,32.9862791 8.03139535,31.9647674 C7.94081395,30.424186 7.89953488,29.0206977 7.9,27.7434884 C7.89197674,22.1337209 8.71,18.9815116 9.51348837,17.3366279 L9.51348837,18.1674419 L9.51325581,18.1674419 Z" id="Fill-10"></path>
                <path d="M15.7792674,2.32558139e-05 C18.6582209,2.32558139e-05 20.9919419,2.33386047 20.9919419,5.21269767 C20.9919419,8.09153488 18.6582209,10.4253721 15.7792674,10.4253721 C12.900314,10.4253721 10.566593,8.09153488 10.566593,5.21269767 C10.566593,2.33386047 12.900314,2.32558139e-05 15.7792674,2.32558139e-05" id="Fill-12"></path>
            </g>
        </g>
    </g>
</svg>