<?xml version="1.0" encoding="UTF-8" standalone="no"?>
<svg width="49px" height="106px" viewBox="0 0 49 106" version="1.1" xmlns="http://www.w3.org/2000/svg" xmlns:xlink="http://www.w3.org/1999/xlink">
    <!-- Generator: Sketch 48.2 (47327) - http://www.bohemiancoding.com/sketch -->
    <title>46_55</title>
    <desc>Created with Sketch.</desc>
    <defs></defs>
    <g id="Page2" stroke="none" stroke-width="1" fill="none" fill-rule="evenodd" transform="translate(-588.000000, -154.000000)">
        <g id="46_55" transform="translate(588.000000, 154.000000)">
            <text id="46---55-Years" font-family="Lato-Bold, Lato" font-size="16" font-weight="bold" fill="#333333">
                <tspan x="0.48" y="86">46 - 55</tspan>
                <tspan x="5.176" y="105">Years</tspan>
            </text>
            <g id="Page-1" opacity="0.5" transform="translate(11.000000, 0.000000)" fill="#000000">
                <path d="M21.5052444,35.0868056 L21.5052444,19.0121452 C21.6706,19.3183279 21.8372,19.6697564 22.0017778,20.0799204 C22.7879556,22.0492412 23.4496889,25.2802482 23.4470444,30.3246042 C23.4475111,31.7145808 23.3983556,33.2418407 23.2897778,34.919733 C23.2180667,36.0309274 24.1573111,36.9854473 25.3886889,37.0496628 C25.4330222,37.052192 25.4770444,37.0530351 25.5207556,37.0530351 C26.6948889,37.0530351 27.6789333,36.226103 27.7475333,35.1536909 C27.8595333,33.4056815 27.9119556,31.8012787 27.9124222,30.3248852 C27.9007556,22.7159859 26.5562889,18.5054473 24.7212,15.9732225 C23.8042,14.7160328 22.7321111,13.9100375 21.7412222,13.4633396 C20.7750667,13.0235269 19.9269778,12.9282576 19.4259333,12.9248852 C19.3998,12.9241827 19.3742889,12.9213724 19.3481556,12.9213724 L17.5245778,12.9213724 C17.2355556,14.6369227 15.9144222,21.8825902 13.9570667,23.6508337 C11.9997111,21.8825902 10.6784222,14.6370632 10.3894,12.9213724 L8.56644444,12.9213724 C8.53455556,12.9213724 8.50344444,12.9244637 8.47217778,12.9257283 C7.96942222,12.9302248 7.12864444,13.0276019 6.17151111,13.4630585 C4.67024444,14.1354239 3.052,15.6066183 1.92017778,18.2127541 C0.773733333,20.8297096 0.00388888889,24.6122389 0,30.3243232 C0.000933333333,31.8011382 0.0528888889,33.4063841 0.167222222,35.154534 C0.2366,36.226103 1.22048889,37.0530351 2.394,37.0530351 C2.43817778,37.0530351 2.48188889,37.052192 2.52684444,37.0496628 C3.75744444,36.9840422 4.69715556,36.0298033 4.62513333,34.9181874 C4.51546667,33.2412787 4.46615556,31.7135972 4.46615556,30.3240422 C4.4562,24.2176721 5.44195556,20.7881171 6.41028889,18.9987963 L6.41028889,56.815377 C6.41028889,58.5369696 7.95557778,59.9320047 9.86051111,59.9320047 C11.7660667,59.9320047 13.3112,58.5369696 13.3112,56.815377 L13.3112,34.0585152 L14.6048,34.0585152 L14.6048,56.815377 C14.6048,58.5369696 16.1499333,59.9320047 18.0548667,59.9320047 C19.9602667,59.9320047 21.5055556,58.5369696 21.5055556,56.815377 L21.5055556,53.2437611 C21.6147556,53.5318173 21.3857778,44.7716768 21.5052444,44.4135035 L21.5052444,37.5047916" id="Fill-1"></path>
                <path d="M13.9573156,0.140501171 C17.4251156,0.140501171 20.2363156,2.67989227 20.2363156,5.81253864 C20.2363156,8.9450445 17.4251156,11.4844356 13.9573156,11.4844356 C10.48936,11.4844356 7.67816,8.9450445 7.67816,5.81253864 C7.67816,2.67989227 10.48936,0.140501171 13.9573156,0.140501171" id="Fill-4"></path>
                <polygon id="Fill-7" points="11.7246889 15.3258126 13.6783111 14.3174754 13.6783111 14.0653911 11.7246889 13.0570539"></polygon>
                <polygon id="Fill-9" points="16.1899267 13.0569836 14.2363044 14.0653208 14.2363044 14.3174052 16.1899267 15.3257424"></polygon>
                <path d="M13.9573156,15.7039391 C14.2654711,15.7039391 14.5154489,15.9296066 14.5154489,16.2081077 C14.5154489,16.4866089 14.2654711,16.7122763 13.9573156,16.7122763 C13.64916,16.7122763 13.3991822,16.4866089 13.3991822,16.2081077 C13.3991822,15.9296066 13.64916,15.7039391 13.9573156,15.7039391" id="Fill-11"></path>
                <path d="M13.9573156,17.4685433 C14.2654711,17.4685433 14.5154489,17.6942108 14.5154489,17.9727119 C14.5154489,18.2512131 14.2654711,18.4768806 13.9573156,18.4768806 C13.64916,18.4768806 13.3991822,18.2512131 13.3991822,17.9727119 C13.3991822,17.6942108 13.64916,17.4685433 13.9573156,17.4685433" id="Fill-13"></path>
                <path d="M13.9573156,19.4852881 C14.2654711,19.4852881 14.5154489,19.7109555 14.5154489,19.9894567 C14.5154489,20.2679578 14.2654711,20.4936253 13.9573156,20.4936253 C13.64916,20.4936253 13.3991822,20.2679578 13.3991822,19.9894567 C13.3991822,19.7109555 13.64916,19.4852881 13.9573156,19.4852881" id="Fill-15"></path>
            </g>
        </g>
    </g>
</svg>