<?xml version="1.0" encoding="UTF-8" standalone="no"?>
<svg width="79px" height="106px" viewBox="0 0 79 106" version="1.1" xmlns="http://www.w3.org/2000/svg" xmlns:xlink="http://www.w3.org/1999/xlink">
    <!-- Generator: Sketch 48.2 (47327) - http://www.bohemiancoding.com/sketch -->
    <title>56Years</title>
    <desc>Created with Sketch.</desc>
    <defs></defs>
    <g id="Page2" stroke="none" stroke-width="1" fill="none" fill-rule="evenodd" transform="translate(-674.000000, -154.000000)">
        <g id="56Years" transform="translate(674.000000, 154.000000)">
            <text id="56-Years-And-Above" font-family="Lato-Bold, Lato" font-size="16" font-weight="bold" fill="#333333">
                <tspan x="8.852" y="86">56 Years</tspan>
                <tspan x="0.1" y="105">And Above</tspan>
            </text>
            <g id="Page-1" opacity="0.5" transform="translate(26.000000, 0.000000)" fill="#000000">
                <path d="M21.5322404,35.0954936 L21.5322404,19.0108979 C21.6976949,19.3174085 21.8645636,19.668983 22.0293111,20.0794085 C22.8164222,22.0499617 23.4789475,25.2829404 23.476402,30.3303447 C23.4769677,31.7211957 23.4274727,33.2494085 23.3191495,34.9282596 C23.2473111,36.0401745 24.1878566,36.9954511 25.4205636,37.0595362 C25.4651091,37.0619617 25.5092303,37.062983 25.5532101,37.062983 C26.7286444,37.062983 27.7138768,36.235366 27.782604,35.1623872 C27.894604,33.4133234 27.9472101,31.8080043 27.9477758,30.3306 C27.935897,22.7171106 26.5897758,18.5039617 24.7523818,15.9701745 C23.8343212,14.712217 22.7608465,13.9057915 21.7686848,13.4587277 C20.8012707,13.0185574 19.9520788,12.9231957 19.4507657,12.9200043 C19.424604,12.9192383 19.3988667,12.9164298 19.3727051,12.9164298 L16.9982202,12.9164298 C17.3895131,14.9759617 18.2313515,20.472217 16.3273515,21.581834 C16.0026646,21.7710255 15.7260586,21.9316213 15.4787253,22.0686 L14.8135131,16.062217 C14.5397354,16.1292383 14.2581798,16.165366 13.9769071,16.165366 L13.9753515,16.165366 L13.9742202,16.165366 C13.6925232,16.165366 13.4108263,16.1294936 13.1364828,16.0627277 L12.4708465,22.0688553 C12.2232303,21.9318766 11.9463414,21.7711532 11.6213717,21.5820894 C9.7182202,20.4724723 10.5593515,14.976217 10.950503,12.9166851 L8.57743232,12.9166851 C8.54547273,12.9166851 8.5142202,12.9197489 8.48268485,12.9210255 C7.97967475,12.9254936 7.13783636,13.0228979 6.17947273,13.4587277 C4.67638182,14.1314936 3.05605859,15.6035362 1.92262424,18.211366 C0.7742,20.8291532 0.00391717172,24.6140043 -4.24242424e-05,30.3295787 C0.000806060606,31.8072383 0.0527050505,33.4135787 0.167391919,35.1628979 C0.236967677,36.2348553 1.22191717,37.0624723 2.39664444,37.0624723 C2.44076566,37.0624723 2.48460404,37.0614511 2.52957374,37.0590255 C3.76185657,36.9934085 4.70254343,36.0386426 4.63042222,34.926217 C4.52068485,33.2483872 4.4711899,31.7197915 4.4711899,30.3294511 C4.46143232,24.2192809 5.44850303,20.7874085 6.41803838,18.9971106 L6.41803838,56.8373234 C6.41803838,58.5599617 7.96525051,59.9556638 9.87250303,59.9556638 C11.7804626,59.9556638 13.3275333,58.5599617 13.3275333,56.8373234 L13.3275333,34.0663021 L14.6227455,34.0663021 L14.6227455,56.8373234 C14.6227455,58.5599617 16.1698162,59.9556638 18.0770687,59.9556638 C19.9851697,59.9556638 21.5322404,58.5599617 21.5322404,56.8373234 L21.5322404,53.2632383 C21.8615939,54.1308128 21.1176141,45.6711957 21.5322404,44.4280468 L21.5322404,37.5150255" id="Fill-1"></path>
                <path d="M9.71848889,8.56349362 C11.1336202,8.60064255 11.5990141,7.85574894 12.0369737,7.39477021 C12.4739434,6.93366383 13.4180242,7.0139617 13.4180242,7.0139617 C13.9447919,7.17442979 13.714004,7.92149362 13.714004,7.92149362 C13.714004,7.92149362 12.9123273,7.92149362 12.0369737,8.57983404 C11.1614788,9.23855745 8.8435596,8.54077021 9.71848889,8.56349362 M14.5309535,7.01421702 C14.5309535,7.01421702 15.4751758,6.93391915 15.9121455,7.39502553 C16.3498222,7.85600426 16.8153576,8.60077021 18.2304889,8.56374894 C19.1054182,8.54077021 16.7876404,9.23881277 15.9121455,8.58008936 C15.0365091,7.92174894 14.2349737,7.92174894 14.2349737,7.92174894 C14.2349737,7.92174894 14.0040444,7.17468511 14.5309535,7.01421702 M13.9747717,11.4786 C17.4467717,11.4786 20.2617616,8.93804681 20.2617616,5.80311064 C20.2617616,2.66881277 17.4467717,0.127621277 13.9747717,0.127621277 C10.5026303,0.127621277 7.68778182,2.66881277 7.68778182,5.80311064 C7.68778182,8.93804681 10.5026303,11.4786 13.9747717,11.4786" id="Fill-4"></path>
                <path d="M13.9747293,12.9061021 L13.1927091,12.9061021 L12.8014162,14.7978894 L13.0224465,15.2254213 C13.3249313,15.3455489 13.6486283,15.4075915 13.9741636,15.4078468 C14.2999818,15.4075915 14.6246687,15.3452936 14.9277192,15.224783 L15.1486081,14.7978894 L14.7573152,12.9061021 L13.9747293,12.9061021 Z" id="Fill-7"></path>
            </g>
        </g>
    </g>
</svg>