<?xml version="1.0" encoding="UTF-8" standalone="no"?>
<svg width="59px" height="48px" viewBox="0 0 59 48" version="1.1" xmlns="http://www.w3.org/2000/svg" xmlns:xlink="http://www.w3.org/1999/xlink">
    <!-- Generator: Sketch 48.2 (47327) - http://www.bohemiancoding.com/sketch -->
    <title>CrossMarkICON</title>
    <desc>Created with Sketch.</desc>
    <defs></defs>
    <g id="Home-Page-Option-2-With-Plan" stroke="none" stroke-width="1" fill="none" fill-rule="evenodd" transform="translate(-910.000000, -197.000000)">
        <g id="Group-2" transform="translate(37.000000, 186.000000)">
            <g id="CrossMarkICON" transform="translate(872.000000, 11.000000)">
                <path d="M28.9999704,1.48148148e-05 C20.1821926,1.48148148e-05 12.9999704,7.14668148 12.9999704,16.0000148 C12.9999704,24.8532741 20.146637,32.0000148 28.9999704,32.0000148 C37.8533778,32.0000148 44.9999704,24.8532741 44.9999704,16.0000148 C44.9999704,7.14668148 37.8177481,1.48148148e-05 28.9999704,1.48148148e-05" id="Path" fill="#FFFFFF"></path>
                <path d="M28.9999704,29.2977185 C21.6756,29.2977185 15.7021926,23.3244593 15.7021926,16.0000148 C15.7021926,8.67557037 21.6756,2.70223704 28.9999704,2.70223704 C36.3244148,2.70223704 42.2621926,8.67557037 42.2621926,16.0000148 C42.2621926,23.3244593 36.3244148,29.2977185 28.9999704,29.2977185" id="Path" fill="#EB3349"></path>
                <text id="X" stroke="#FFFFFF" stroke-width="3" font-family="Lato-Regular, Lato" font-size="18" font-weight="normal" letter-spacing="-0.287999988" fill="#FFFFFF">
                    <tspan x="23.357" y="23">X</tspan>
                </text>
                <text id="Declined" opacity="0.8" font-family="Lato-Regular, Lato" font-size="16" font-weight="normal" letter-spacing="-0.255999982" fill="#333333">
                    <tspan x="0" y="47">Declined</tspan>
                </text>
            </g>
        </g>
    </g>
</svg>