<?xml version="1.0" encoding="UTF-8" standalone="no"?>
<svg width="52px" height="62px" viewBox="0 0 52 62" version="1.1" xmlns="http://www.w3.org/2000/svg" xmlns:xlink="http://www.w3.org/1999/xlink">
    <!-- Generator: Sketch 48.2 (47327) - http://www.bohemiancoding.com/sketch -->
    <title>Declined</title>
    <desc>Created with Sketch.</desc>
    <defs></defs>
    <g id="Home-Page-Option-1-Copy" stroke="none" stroke-width="1" fill="none" fill-rule="evenodd" transform="translate(-914.000000, -198.000000)">
        <g id="Declined" transform="translate(913.000000, 198.000000)">
            <path d="M26.5,0 C14.05,0 4,10.05 4,22.5 C4,34.95 14.05,45 26.5,45 C38.95,45 49,34.95 49,22.5 C49,10.05 38.95,0 26.5,0 M26.5,2.50003125 C37.5499375,2.50003125 46.4999688,11.4499688 46.4999688,22.5 C46.4999688,33.5499375 37.5499375,42.4999687 26.5,42.4999687 C15.4499688,42.4999687 6.50003125,33.5499375 6.50003125,22.5 C6.50003125,11.4499688 15.4499688,2.50003125 26.5,2.50003125" id="Fill-5" fill="#333333"></path>
            <g id="Group-10" transform="translate(6.000000, 2.000000)">
                <path d="M20.499962,1.89814814e-05 C9.20218426,1.89814814e-05 -3.79629629e-05,9.15668565 -3.79629629e-05,20.500019 C-3.79629629e-05,31.8432574 9.1566287,41.000019 20.499962,41.000019 C31.8433903,41.000019 40.999962,31.8432574 40.999962,20.500019 C40.999962,9.15668565 31.7977398,1.89814814e-05 20.499962,1.89814814e-05" id="Path" fill="#FFFFFF"></path>
                <path d="M20.499962,37.5377019 C11.1156125,37.5377019 3.46218426,29.8844634 3.46218426,20.500019 C3.46218426,11.1155745 11.1156125,3.4622412 20.499962,3.4622412 C29.8844065,3.4622412 37.4921843,11.1155745 37.4921843,20.500019 C37.4921843,29.8844634 29.8844065,37.5377019 20.499962,37.5377019" id="Path" fill="#CC0000"></path>
                <path d="M19.11625,20.98175 L13.6619687,12.9444688 L15.8875,12.9444688 C16.0489383,12.9444688 16.1680934,12.9713747 16.2449687,13.0251875 C16.3218441,13.0790003 16.3910309,13.1558745 16.4525312,13.2558125 L20.7652187,19.87475 C20.8190315,19.7133117 20.8997495,19.536501 21.007375,19.3443125 L25.0779062,13.3019375 C25.1470941,13.194312 25.2220465,13.1078285 25.3027656,13.0424844 C25.3834848,12.9771403 25.4814994,12.9444688 25.5968125,12.9444688 L27.7300937,12.9444688 L22.25275,20.8779688 L27.9145937,29.46875 L25.7005937,29.46875 C25.5314679,29.46875 25.3988598,29.4245473 25.3027656,29.3361406 C25.2066714,29.2477339 25.1278753,29.1497193 25.066375,29.0420938 L20.638375,22.1118125 C20.5845622,22.2732508 20.5153754,22.4269993 20.4308125,22.5730625 L16.118125,29.0420938 C16.0489371,29.1497193 15.9701411,29.2477339 15.8817344,29.3361406 C15.7933277,29.4245473 15.668407,29.46875 15.5069687,29.46875 L13.4313437,29.46875 L19.11625,20.98175 Z" id="X" stroke="#FFFFFF" fill="#FFFFFF"></path>
            </g>
            <path d="M10.0429999,55.988 C10.0429999,56.7393371 9.9240011,57.4229969 9.68599991,58.039 C9.44799872,58.6550031 9.11200208,59.1823311 8.67799991,59.621 C8.24399774,60.0596689 7.72366961,60.3991655 7.11699991,60.6395 C6.51033021,60.8798345 5.83833693,61 5.10099991,61 L1.34899991,61 L1.34899991,50.969 L5.10099991,50.969 C5.83833693,50.969 6.51033021,51.0891655 7.11699991,51.3295 C7.72366961,51.5698345 8.24399774,51.9104978 8.67799991,52.3515 C9.11200208,52.7925022 9.44799872,53.3209969 9.68599991,53.937 C9.9240011,54.5530031 10.0429999,55.2366629 10.0429999,55.988 Z M8.64999991,55.988 C8.64999991,55.3719969 8.56600075,54.8213358 8.39799991,54.336 C8.22999907,53.8506642 7.99200145,53.4400017 7.68399991,53.104 C7.37599837,52.7679983 7.00266877,52.5113342 6.56399991,52.334 C6.12533105,52.1566658 5.63766926,52.068 5.10099991,52.068 L2.71399991,52.068 L2.71399991,59.901 L5.10099991,59.901 C5.63766926,59.901 6.12533105,59.8123342 6.56399991,59.635 C7.00266877,59.4576658 7.37599837,59.2021683 7.68399991,58.8685 C7.99200145,58.5348317 8.22999907,58.1253358 8.39799991,57.64 C8.56600075,57.1546642 8.64999991,56.6040031 8.64999991,55.988 Z M14.2779999,53.797 C14.7026687,53.797 15.0946648,53.868166 15.4539999,54.0105 C15.8133351,54.152834 16.1236653,54.3581653 16.3849999,54.6265 C16.6463346,54.8948347 16.8504992,55.2261647 16.9974999,55.6205 C17.1445007,56.0148353 17.2179999,56.4639975 17.2179999,56.968 C17.2179999,57.164001 17.1970001,57.2946663 17.1549999,57.36 C17.1129997,57.4253337 17.0336672,57.458 16.9169999,57.458 L12.1989999,57.458 C12.2083333,57.9060022 12.2689994,58.295665 12.3809999,58.627 C12.4930005,58.958335 12.646999,59.2348322 12.8429999,59.4565 C13.0390009,59.6781678 13.2723319,59.8438328 13.5429999,59.9535 C13.813668,60.0631672 14.1169983,60.118 14.4529999,60.118 C14.7656682,60.118 15.0351655,60.0818337 15.2614999,60.0095 C15.4878344,59.9371663 15.6826658,59.8590004 15.8459999,59.775 C16.0093341,59.6909996 16.1458327,59.6128337 16.2554999,59.5405 C16.3651671,59.4681663 16.4596662,59.432 16.5389999,59.432 C16.6416671,59.432 16.7209997,59.4716663 16.7769999,59.551 L17.1269999,60.006 C16.9729992,60.1926676 16.7886677,60.3548326 16.5739999,60.4925 C16.3593322,60.6301674 16.1295012,60.7433329 15.8844999,60.832 C15.6394987,60.9206671 15.3863346,60.9871664 15.1249999,61.0315 C14.8636653,61.0758336 14.6046679,61.098 14.3479999,61.098 C13.8579975,61.098 13.406502,61.0151675 12.9934999,60.8495 C12.5804979,60.6838325 12.2235014,60.4411683 11.9224999,60.1215 C11.6214984,59.8018317 11.3870008,59.4063357 11.2189999,58.935 C11.0509991,58.4636643 10.9669999,57.9223364 10.9669999,57.311 C10.9669999,56.8163309 11.0428325,56.3543355 11.1944999,55.925 C11.3461674,55.4956645 11.5643318,55.1235016 11.8489999,54.8085 C12.133668,54.4934984 12.4813312,54.2461676 12.8919999,54.0665 C13.3026687,53.8868324 13.764664,53.797 14.2779999,53.797 Z M14.3059999,54.714 C13.7039969,54.714 13.230335,54.8878316 12.8849999,55.2355 C12.5396649,55.5831684 12.3250004,56.0649969 12.2409999,56.681 L16.0979999,56.681 C16.0979999,56.3916652 16.0583337,56.1268345 15.9789999,55.8865 C15.8996662,55.6461655 15.7830007,55.4385009 15.6289999,55.2635 C15.4749992,55.0884991 15.2871677,54.9531671 15.0654999,54.8575 C14.8438322,54.7618329 14.590668,54.714 14.3059999,54.714 Z M23.42,55.169 C23.3826664,55.2203336 23.3453335,55.2599999 23.308,55.288 C23.2706664,55.3160001 23.2170003,55.33 23.147,55.33 C23.0769996,55.33 23.001167,55.3008336 22.9195,55.2425 C22.8378329,55.1841664 22.7340006,55.1200003 22.608,55.05 C22.4819993,54.9799996 22.3291675,54.9158336 22.1495,54.8575 C21.9698324,54.7991664 21.7493346,54.77 21.488,54.77 C21.1426649,54.77 20.8370013,54.8318327 20.571,54.9555 C20.3049986,55.0791673 20.0821675,55.2576655 19.9025,55.491 C19.7228324,55.7243345 19.5875004,56.006665 19.4965,56.338 C19.4054995,56.669335 19.36,57.0403313 19.36,57.451 C19.36,57.8803355 19.4089995,58.2618317 19.507,58.5955 C19.6050004,58.9291683 19.7426657,59.2091655 19.92,59.4355 C20.0973342,59.6618345 20.3131653,59.8344994 20.5675,59.9535 C20.8218346,60.0725006 21.107665,60.132 21.425,60.132 C21.7283348,60.132 21.977999,60.0958337 22.174,60.0235 C22.3700009,59.9511663 22.5333326,59.8706671 22.664,59.782 C22.7946673,59.6933329 22.9019995,59.6128337 22.986,59.5405 C23.0700004,59.4681663 23.1539995,59.432 23.238,59.432 C23.3453338,59.432 23.4246664,59.4716663 23.476,59.551 L23.826,60.006 C23.5179984,60.3840019 23.1330023,60.6604991 22.671,60.8355 C22.2089976,61.0105009 21.7213359,61.098 21.208,61.098 C20.7646644,61.098 20.3528352,61.0163341 19.9725,60.853 C19.5921647,60.6896658 19.2620014,60.4528349 18.982,60.1425 C18.7019986,59.8321651 18.4815008,59.4506689 18.3205,58.998 C18.1594991,58.5453311 18.079,58.0296696 18.079,57.451 C18.079,56.923664 18.1524992,56.4360022 18.2995,55.988 C18.4465007,55.5399978 18.6611652,55.153835 18.9435,54.8295 C19.2258347,54.505165 19.5746645,54.2520009 19.99,54.07 C20.4053354,53.8879991 20.8813306,53.797 21.418,53.797 C21.9126691,53.797 22.3513314,53.8774992 22.734,54.0385 C23.1166685,54.1995008 23.4549985,54.4269985 23.749,54.721 L23.42,55.169 Z M26.283,50.689 L26.283,61 L25.037,61 L25.037,50.689 L26.283,50.689 Z M29.643,53.909 L29.643,61 L28.397,61 L28.397,53.909 L29.643,53.909 Z M29.923,51.683 C29.923,51.8043339 29.8985002,51.9174995 29.8495,52.0225 C29.8004998,52.1275005 29.7351671,52.2208329 29.6535,52.3025 C29.5718329,52.3841671 29.4773339,52.4483331 29.37,52.495 C29.2626661,52.5416669 29.1483339,52.565 29.027,52.565 C28.9056661,52.565 28.7925005,52.5416669 28.6875,52.495 C28.5824995,52.4483331 28.4891671,52.3841671 28.4075,52.3025 C28.3258329,52.2208329 28.2616669,52.1275005 28.215,52.0225 C28.1683331,51.9174995 28.145,51.8043339 28.145,51.683 C28.145,51.5616661 28.1683331,51.4461672 28.215,51.3365 C28.2616669,51.2268328 28.3258329,51.1311671 28.4075,51.0495 C28.4891671,50.9678329 28.5824995,50.9036669 28.6875,50.857 C28.7925005,50.8103331 28.9056661,50.787 29.027,50.787 C29.1483339,50.787 29.2626661,50.8103331 29.37,50.857 C29.4773339,50.9036669 29.5718329,50.9678329 29.6535,51.0495 C29.7351671,51.1311671 29.8004998,51.2268328 29.8495,51.3365 C29.8985002,51.4461672 29.923,51.5616661 29.923,51.683 Z M31.617,61 L31.617,53.909 L32.359,53.909 C32.5363342,53.909 32.6483331,53.9953325 32.695,54.168 L32.793,54.938 C33.1010016,54.5973316 33.4451648,54.322001 33.8255,54.112 C34.2058353,53.9019989 34.6456642,53.797 35.145,53.797 C35.5323353,53.797 35.8741652,53.861166 36.1705,53.9895 C36.4668348,54.117834 36.7141657,54.2998322 36.9125,54.5355 C37.1108343,54.7711678 37.2613328,55.054665 37.364,55.386 C37.4666672,55.717335 37.518,56.0836647 37.518,56.485 L37.518,61 L36.272,61 L36.272,56.485 C36.272,55.9483307 36.1495012,55.5318348 35.9045,55.2355 C35.6594988,54.9391652 35.2850025,54.791 34.781,54.791 C34.4123315,54.791 34.0681683,54.8796658 33.7485,55.057 C33.4288318,55.2343342 33.133668,55.4746651 32.863,55.778 L32.863,61 L31.617,61 Z M41.984,53.797 C42.4086688,53.797 42.8006649,53.868166 43.16,54.0105 C43.5193352,54.152834 43.8296654,54.3581653 44.091,54.6265 C44.3523347,54.8948347 44.5564993,55.2261647 44.7035,55.6205 C44.8505008,56.0148353 44.924,56.4639975 44.924,56.968 C44.924,57.164001 44.9030003,57.2946663 44.861,57.36 C44.8189998,57.4253337 44.7396673,57.458 44.623,57.458 L39.905,57.458 C39.9143334,57.9060022 39.9749995,58.295665 40.087,58.627 C40.1990006,58.958335 40.3529991,59.2348322 40.549,59.4565 C40.745001,59.6781678 40.978332,59.8438328 41.249,59.9535 C41.5196681,60.0631672 41.8229984,60.118 42.159,60.118 C42.4716683,60.118 42.7411656,60.0818337 42.9675,60.0095 C43.1938345,59.9371663 43.3886659,59.8590004 43.552,59.775 C43.7153342,59.6909996 43.8518328,59.6128337 43.9615,59.5405 C44.0711673,59.4681663 44.1656663,59.432 44.245,59.432 C44.3476672,59.432 44.4269998,59.4716663 44.483,59.551 L44.833,60.006 C44.6789993,60.1926676 44.4946678,60.3548326 44.28,60.4925 C44.0653323,60.6301674 43.8355013,60.7433329 43.5905,60.832 C43.3454988,60.9206671 43.0923347,60.9871664 42.831,61.0315 C42.5696654,61.0758336 42.310668,61.098 42.054,61.098 C41.5639976,61.098 41.1125021,61.0151675 40.6995,60.8495 C40.286498,60.6838325 39.9295016,60.4411683 39.6285,60.1215 C39.3274985,59.8018317 39.0930009,59.4063357 38.925,58.935 C38.7569992,58.4636643 38.673,57.9223364 38.673,57.311 C38.673,56.8163309 38.7488326,56.3543355 38.9005,55.925 C39.0521675,55.4956645 39.270332,55.1235016 39.555,54.8085 C39.8396681,54.4934984 40.1873313,54.2461676 40.598,54.0665 C41.0086688,53.8868324 41.4706641,53.797 41.984,53.797 Z M42.012,54.714 C41.409997,54.714 40.9363351,54.8878316 40.591,55.2355 C40.245665,55.5831684 40.0310005,56.0649969 39.947,56.681 L43.804,56.681 C43.804,56.3916652 43.7643338,56.1268345 43.685,55.8865 C43.6056663,55.6461655 43.4890008,55.4385009 43.335,55.2635 C43.1809993,55.0884991 42.9931678,54.9531671 42.7715,54.8575 C42.5498323,54.7618329 42.2966681,54.714 42.012,54.714 Z M51.2800001,61 C51.1026658,61 50.990667,60.9136675 50.9440001,60.741 L50.8320001,59.88 C50.5286652,60.2486685 50.1821687,60.5438322 49.7925001,60.7655 C49.4028315,60.9871678 48.9560026,61.098 48.4520001,61.098 C48.045998,61.098 47.6773351,61.0198341 47.3460001,60.8635 C47.0146651,60.7071659 46.7323346,60.4773348 46.4990001,60.174 C46.2656656,59.8706652 46.0860007,59.4926689 45.9600001,59.04 C45.8339994,58.5873311 45.7710001,58.0670029 45.7710001,57.479 C45.7710001,56.9563307 45.8409994,56.4698356 45.9810001,56.0195 C46.1210008,55.5691644 46.3228321,55.178335 46.5865001,54.847 C46.8501681,54.515665 47.1709982,54.2555009 47.5490001,54.0665 C47.927002,53.8774991 48.356331,53.783 48.8370001,53.783 C49.2710022,53.783 49.6419985,53.8564993 49.9500001,54.0035 C50.2580016,54.1505007 50.5333322,54.3569987 50.7760001,54.623 L50.7760001,50.689 L52.0220001,50.689 L52.0220001,61 L51.2800001,61 Z M48.8650001,60.09 C49.2710021,60.09 49.6268319,59.9966676 49.9325001,59.81 C50.2381683,59.6233324 50.5193321,59.3596684 50.7760001,59.019 L50.7760001,55.589 C50.5473323,55.2809985 50.2965014,55.0651673 50.0235001,54.9415 C49.7504987,54.8178327 49.4483351,54.756 49.1170001,54.756 C48.4543301,54.756 47.9456685,54.9916643 47.5910001,55.463 C47.2363316,55.9343357 47.0590001,56.606329 47.0590001,57.479 C47.0590001,57.9410023 47.0986663,58.3364984 47.1780001,58.6655 C47.2573338,58.9945016 47.3739993,59.2651656 47.5280001,59.4775 C47.6820008,59.6898344 47.8709989,59.8449995 48.0950001,59.943 C48.3190012,60.0410005 48.5756653,60.09 48.8650001,60.09 Z" fill="#000000"></path>
        </g>
    </g>
</svg>