<?xml version="1.0" encoding="UTF-8" standalone="no"?>
<svg width="40px" height="28px" viewBox="0 0 40 28" version="1.1" xmlns="http://www.w3.org/2000/svg" xmlns:xlink="http://www.w3.org/1999/xlink">
    <!-- Generator: Sketch 48.2 (47327) - http://www.bohemiancoding.com/sketch -->
    <title>EditViewICON</title>
    <desc>Created with Sketch.</desc>
    <defs></defs>
    <g id="Home-Page-Option-1" stroke="none" stroke-width="1" fill="none" fill-rule="evenodd" transform="translate(-700.000000, -290.000000)" opacity="0.5">
        <g id="Group-5" transform="translate(37.000000, 279.000000)">
            <g id="EditViewICON" transform="translate(663.000000, 11.000000)">
                <path d="M34.7856736,3.12828618 C35.1570303,2.76692654 35.7078338,2.72233224 36.1378755,3.14079715 L39.7047289,6.61163048 C40.1298013,7.02525987 40.0668568,7.5219375 39.6839052,7.8946568 C39.3007958,8.26729934 37.0919023,10.4167292 37.0919023,10.4167292 L32.1937497,5.65035855 C32.1937497,5.65035855 34.414317,3.48964583 34.7856736,3.12828618 L34.7856736,3.12828618 Z M15.1078751,22.4452928 L20.0060277,27.2115866 L14.3499384,27.9491195 L15.1078751,22.4452928 Z M31.237041,6.57133443 L36.1351937,11.337705 L21.0613336,26.005852 L16.163102,21.2394814 L31.237041,6.57133443 Z" id="Fill-1" fill="#333333"></path>
                <g id="Group-4">
                    <path d="M29.978683,4.10495585 C26.7138145,2.03147651 22.4441142,0.0927213181 17.4577203,1.00992613e-05 L17.4358126,1.00992613e-05 L17.4139049,1.00992613e-05 C10.3009023,0.132310422 4.6389175,4.02355581 1.27953303,6.70117296 C1.11887679,6.82872663 0.0185902215,7.6548462 0.000333831138,8.71112794 C-0.0130194144,9.45503953 0.341154559,10.0046413 0.851081623,10.4647637 C3.42471106,12.9028264 8.85144918,17.1197729 15.9733192,17.6633152 L29.978683,4.10495585 Z" id="Fill-4" fill="#333333"></path>
                    <path d="M24.361077,9.64425929 C24.3837149,9.41914676 24.3952947,9.19090345 24.3952947,8.95993334 C24.3952947,5.18553642 21.2941077,2.12283443 17.43575,2.09910117 C13.5871986,2.12283443 10.4750578,5.18553642 10.4750578,8.95993334 C10.4750578,12.7343303 13.5871986,15.7969313 17.43575,15.8219774 C17.6281202,15.8206645 17.8185083,15.8118782 18.0067056,15.7957194 L24.361077,9.64425929 Z" id="Fill-7" fill="#FFFFFF"></path>
                    <path d="M17.4576785,6.19206919 L17.4576785,6.19206919 C17.450376,6.19085728 17.4430734,6.19085728 17.4357709,6.19085728 L17.4138632,6.19085728 L17.4138632,6.19206919 C15.9411463,6.22782058 14.7568803,7.40812125 14.7568803,8.85898113 C14.7568803,10.30974 15.9398944,11.4912526 17.4138632,11.5257921 L17.4138632,11.5281149 C17.4211657,11.5281149 17.4284683,11.5257921 17.4357709,11.5257921 C17.4419259,11.5257921 17.4491241,11.5281149 17.4576785,11.5281149 L17.4576785,11.5257921 C18.9413493,11.4912526 20.1146614,10.30974 20.1146614,8.85898113 C20.1146614,7.40812125 18.9413493,6.22782058 17.4576785,6.19206919" id="Fill-9" fill="#333333"></path>
                </g>
            </g>
        </g>
    </g>
</svg>