<?xml version="1.0" encoding="UTF-8" standalone="no"?>
<svg width="57px" height="50px" viewBox="0 0 57 50" version="1.1" xmlns="http://www.w3.org/2000/svg" xmlns:xlink="http://www.w3.org/1999/xlink">
    <!-- Generator: Sketch 48.2 (47327) - http://www.bohemiancoding.com/sketch -->
    <title>ExclamationMarkICON</title>
    <desc>Created with Sketch.</desc>
    <defs></defs>
    <g id="Home-Page-Option-2-With-Plan" stroke="none" stroke-width="1" fill="none" fill-rule="evenodd" transform="translate(-802.000000, -195.000000)">
        <g id="Group-2" transform="translate(37.000000, 186.000000)">
            <g id="ExclamationMarkICON" transform="translate(765.000000, 9.000000)">
                <path d="M30.9999704,1.48148148e-05 C22.1821926,1.48148148e-05 14.9999704,7.14668148 14.9999704,16.0000148 C14.9999704,24.8532741 22.146637,32.0000148 30.9999704,32.0000148 C39.8533778,32.0000148 46.9999704,24.8532741 46.9999704,16.0000148 C46.9999704,7.14668148 39.8177481,1.48148148e-05 30.9999704,1.48148148e-05" id="Path" fill="#808080"></path>
                <path d="M30.9999704,29.2977185 C23.6756,29.2977185 17.7021926,23.3244593 17.7021926,16.0000148 C17.7021926,8.67557037 23.6756,2.70223704 30.9999704,2.70223704 C38.3244148,2.70223704 44.2621926,8.67557037 44.2621926,16.0000148 C44.2621926,23.3244593 38.3244148,29.2977185 30.9999704,29.2977185" id="Path" fill="#FFFFFF"></path>
                <text id="!" font-family="Lato-Bold, Lato" font-size="24" font-weight="bold" letter-spacing="-0.383999974" fill="#808080">
                    <tspan x="26.866" y="25">!</tspan>
                </text>
                <text id="Without" opacity="0.8" font-family="Lato-Regular, Lato" font-size="16" font-weight="normal" letter-spacing="-0.255999982" fill="#333333">
                    <tspan x="0" y="49">Without</tspan>
                </text>
            </g>
        </g>
    </g>
</svg>