<?xml version="1.0" encoding="UTF-8" standalone="no"?>
<svg width="35px" height="45px" viewBox="0 0 35 45" version="1.1" xmlns="http://www.w3.org/2000/svg" xmlns:xlink="http://www.w3.org/1999/xlink">
    <!-- Generator: Sketch 48.2 (47327) - http://www.bohemiancoding.com/sketch -->
    <title>Female</title>
    <desc>Created with Sketch.</desc>
    <defs></defs>
    <g id="Screen6_ByEntry" stroke="none" stroke-width="1" fill="none" fill-rule="evenodd" transform="translate(-528.000000, -527.000000)">
        <g transform="translate(353.000000, 100.000000)" fill="#cc0000" id="NoOfMales">
            <g transform="translate(47.000000, 397.000000)">
                <g id="Female" transform="translate(129.000000, 30.000000)">
                    <g id="Group-10" stroke="#cc0000">
                        <path d="M16.9291667,0.845466667 C8.83263333,0.845466667 1.92836667,6.90823333 0.869833333,14.9486667 C0.304866667,19.2366333 1.44783333,23.4934333 4.0885,26.9336667 C6.7286,30.3744667 10.5439667,32.5799333 14.8319333,33.1443333 C15.5408333,33.2384 16.2599333,33.286 16.9694,33.286 C25.0659333,33.286 31.9702,27.2232333 33.0287333,19.1828 C34.1955,10.3173 27.9315667,2.1539 19.0660667,0.986 C18.3537667,0.8925 17.6352333,0.845466667 16.9291667,0.845466667 Z M16.9694,33.5693333 C16.2474667,33.5693333 15.5159,33.5206 14.7945333,33.4254 C10.4317667,32.8513667 6.54953333,30.6073667 3.86353333,27.1065 C1.17696667,23.6056333 0.0141666667,19.2751667 0.588766667,14.9118333 C1.666,6.73143333 8.69096667,0.562133333 16.9291667,0.562133333 C17.6471333,0.562133333 18.3787,0.6103 19.1029,0.704933333 C28.1236667,1.8938 34.4969667,10.1994333 33.3098,19.2196333 C32.2325667,27.4000333 25.2076,33.5693333 16.9694,33.5693333 Z" id="Fill-235"></path>
                        <path d="M25.4189667,27.8227667 C24.9956667,27.6199 24.5678333,27.4232667 24.14,27.2277667 C23.2639333,26.8265667 22.3584,26.4112 21.5072667,25.9380333 C20.8777,25.5884 20.4600667,24.9951 20.264,24.1728667 C21.3661667,24.9509 22.4496333,25.1702 23.5637,24.8477667 C24.7174333,24.5111667 25.7340333,23.8453333 26.5851667,22.8689667 L26.6514667,22.7936 L26.6010333,22.7057667 C26.4503,22.4417 26.3001333,22.1855667 26.1533667,21.9334 C25.8371667,21.3911 25.5385333,20.8794 25.2586,20.3524 C24.1332,18.2353333 23.8793333,16.3868667 24.4607333,14.5344333 C24.6245,14.0108333 24.7480333,13.4679667 24.8676,12.9432333 C24.9237,12.6961667 24.9798,12.4502333 25.0398667,12.2048667 L25.6909667,12.5698 L25.551,12.2048667 C25.2319667,11.3696 24.8693,10.6459667 24.4431667,9.99146667 C22.8893667,7.60466667 21.1553667,6.27356667 18.9873,5.8038 C16.8192333,5.33346667 15.2898,5.73693333 14.1746,7.07483333 C13.8601,7.45223333 13.6113333,7.88686667 13.3705,8.30676667 C13.2855,8.45636667 13.1993667,8.6054 13.1109667,8.75216667 C12.3828,8.29146667 11.8008333,8.1311 11.288,8.25066667 C10.8052,8.36286667 10.3881333,8.7278 10.013,9.3687 C8.89553333,11.2766667 8.46203333,13.2741667 8.7261,15.3056667 C8.81676667,16.0038 8.96863333,16.7030667 9.1154,17.3796667 C9.27633333,18.122 9.44293333,18.8904 9.5268,19.6514333 C9.6237,20.5354333 9.4333,21.4772333 9.2565,22.1997333 C9.03493333,23.1064 8.4388,23.6861 7.5344,23.8736667 L7.1196,23.9598 L7.50266667,24.1405667 C9.66676667,25.1617 11.5634,25.3606 13.4419,24.7582333 C13.0877333,25.4909333 12.5261667,26.0309667 11.7322667,26.4044 C10.9888,26.7534667 10.2141667,27.0736333 9.4656,27.3830333 C8.687,27.7049 7.8812,28.0369667 7.10656667,28.4047333 C6.6776,28.6081667 6.25656667,28.8314333 5.8395,29.0615 C5.9126,29.1289333 5.984,29.1975 6.05823333,29.2638 C6.44356667,29.053 6.83286667,28.8478667 7.22783333,28.6603 C7.9968,28.2959333 8.79806667,27.965 9.57383333,27.6448333 C10.3252333,27.3337333 11.1032667,27.013 11.8529667,26.6611 C12.8032667,26.2145667 13.4691,25.5107667 13.8312,24.5706667 L13.9439667,24.2794 L13.6504333,24.3870667 C11.8229333,25.0585667 10.0594667,24.9554333 7.9747,24.0442333 C8.77143333,23.7592 9.31826667,23.1398333 9.5319,22.2671667 C9.7138,21.522 9.91043333,20.5490333 9.80843333,19.6202667 C9.72286667,18.8450667 9.55456667,18.0693 9.39193333,17.3190333 C9.24686667,16.6486667 9.0967,15.9550667 9.00716667,15.2688333 C8.7516,13.3019333 9.17206667,11.3645 10.2572333,9.5115 C10.591,8.942 10.9491333,8.62013333 11.3514667,8.52663333 C11.8116,8.4218 12.3601333,8.59236667 13.0775333,9.06836667 L13.1993667,9.14883333 L13.2764333,9.0253 C13.3937333,8.83603333 13.5053667,8.64166667 13.617,8.4473 C13.8510333,8.0376 14.0935667,7.61486667 14.3922,7.25673333 C15.4326,6.00836667 16.8736333,5.6355 18.9272333,6.08033333 C21.0182333,6.53366667 22.6955667,7.82566667 24.2057333,10.1461667 C24.5565,10.6850667 24.8636333,11.2732667 25.1384667,11.9351333 L25.0104,11.8626 L24.9361667,11.9198333 C24.9237,11.9294667 24.9106667,11.9368333 24.8993333,11.9436333 C24.8562667,11.9702667 24.7979,12.0059667 24.7786333,12.0813333 C24.7129,12.3465333 24.6522667,12.6134333 24.5910667,12.8797667 C24.4732,13.3994 24.3508,13.9371667 24.1898667,14.4494333 C23.5846667,16.3789333 23.8447667,18.2971 25.0081333,20.485 C25.2909,21.0171 25.5906667,21.5316333 25.9085667,22.0762 C26.0389,22.2989 26.1709333,22.5261333 26.3046667,22.7584667 C25.5039667,23.6521 24.5553667,24.2629667 23.4843667,24.5752 C22.3487667,24.9055667 21.2874,24.6358333 20.1433,23.7280333 L19.8611,23.5042 L19.9149333,23.8606333 C20.0826667,24.9605333 20.5717,25.7431 21.3695667,26.1862333 C22.2303333,26.6645 23.1409667,27.0821333 24.0215667,27.4856 C24.4482667,27.6811 24.8744,27.8760333 25.2965667,28.0789 C25.6858667,28.2659 26.0774333,28.4483667 26.469,28.6314 C26.9155333,28.8399333 27.3694333,29.0547 27.8210667,29.274 C27.8975667,29.206 27.9718,29.1363 28.0460333,29.0671667 C27.5592667,28.8297333 27.0702333,28.6002333 26.5885667,28.3747 C26.1981333,28.1922333 25.8077,28.0097667 25.4189667,27.8227667" id="Fill-236"></path>
                    </g>
                    <text font-family="Lato-Bold, Lato" font-size="10" font-weight="bold">
                        <tspan x="1" y="44">Female</tspan>
                    </text>
                </g>
            </g>
        </g>
    </g>
</svg>