<?xml version="1.0" encoding="UTF-8" standalone="no"?>
<svg width="39px" height="40px" viewBox="0 0 39 40" version="1.1" xmlns="http://www.w3.org/2000/svg" xmlns:xlink="http://www.w3.org/1999/xlink">
    <!-- Generator: Sketch 48.2 (47327) - http://www.bohemiancoding.com/sketch -->
    <title>Female</title>
    <desc>Created with Sketch.</desc>
    <defs></defs>
    <g id="Artboard-Mobile-P1" stroke="none" stroke-width="1" fill="none" fill-rule="evenodd" transform="translate(-72.000000, -1065.000000)" opacity="0.4">
        <g id="Group-5" transform="translate(2.000000, 1030.000000)" fill="#000000">
            <g id="Group-3">
                <g id="Female" transform="translate(70.000000, 35.000000)">
                    <path d="M38.0091831,38.1436624 C37.9360898,37.3388618 37.6435617,36.6074642 37.3508788,35.8760666 C36.9852575,34.9983275 36.2538599,34.4131165 35.5223074,33.9013086 C34.1327604,32.9504762 32.596717,32.3652652 31.0606736,31.7071158 C29.9634998,31.2682462 28.866326,30.8293767 27.769307,30.317259 C24.6972203,28.9274022 24.2583508,27.8303833 24.1851026,27.6840418 C24.1851026,27.6107937 24.1121642,27.4647619 24.1121642,27.3915137 L24.1121642,27.2451723 L24.1121642,26.0018118 C24.1121642,26.0018118 29.8904065,26.1481533 32.6698103,23.3685947 C32.6698103,23.3685947 28.6468912,22.1983275 29.3784437,14.9571351 C30.1096864,7.6428494 28.5007046,1.27939605 22.6492141,1.79151374 C22.6492141,1.79151374 20.0892451,-1.28057298 15.0424003,0.621246612 C13.2869222,1.27939605 8.67910182,2.96162602 8.89838173,13.0556252 C9.11781649,23.1493148 5.31433217,23.2224081 5.31433217,23.2224081 C5.31433217,23.2224081 7.28924506,26.0749051 14.0183198,26.0018118 L14.0183198,26.5870228 C14.0183198,26.8063027 14.0183198,27.0258924 13.9450716,27.3184204 C13.9450716,27.3915137 13.9450716,27.5377003 13.8721332,27.6107937 C13.798885,27.75729 13.4332636,28.8543089 10.2880836,30.2440108 C9.19090979,30.6828804 8.09373597,31.1217499 6.99656214,31.6338676 C5.46051878,32.292017 3.92463027,32.877228 2.53492838,33.8282153 C1.80353078,34.3398684 1.07213318,34.9252342 0.706356949,35.8029733 C0.413828881,36.534216 0.121300813,37.2656136 0.048052652,38.0704142 C-0.0250406504,38.5822222 -0.0250406504,39.0943399 0.121300813,39.6063027 L18.9189779,39.6063027 L19.1384127,39.6063027 L37.9360898,39.6063027 C38.0824313,39.1674332 38.0824313,38.6554704 38.0091831,38.1436624" id="Fill-1"></path>
                </g>
            </g>
        </g>
    </g>
</svg>