<?xml version="1.0" encoding="UTF-8" standalone="no"?>
<svg width="142px" height="142px" viewBox="0 0 142 142" version="1.1" xmlns="http://www.w3.org/2000/svg" xmlns:xlink="http://www.w3.org/1999/xlink">
    <!-- Generator: Sketch 48.2 (47327) - http://www.bohemiancoding.com/sketch -->
    <title>Health_Hospi_ICON</title>
    <desc>Created with Sketch.</desc>
    <defs></defs>
    <g id="Recomendations-Copy" stroke="none" stroke-width="1" fill="none" fill-rule="evenodd" transform="translate(-185.000000, -287.000000)">
        <g id="Health_Hospi_ICON" transform="translate(186.000000, 288.000000)">
            <circle id="Oval-3" stroke="#D0021B" stroke-width="2" fill="#FFFFFF" cx="70" cy="70" r="70"></circle>
            <g id="Page-1" transform="translate(33.000000, 38.000000)">
                <path d="M27.4511464,9.90551621 L47.5490196,9.90551621 L47.5490196,4.82996245 L27.4511464,4.82996245 L27.4511464,9.90551621 Z M66.8300654,9.98737998 L52.4509804,9.98737998 L52.4509804,4.91182622 C52.4509804,2.2103218 50.245098,0 47.5490196,0 L27.4511464,0 C24.754902,0 22.5490196,2.2103218 22.5490196,4.91182622 L22.5490196,9.98737998 L7.35294118,9.98737998 C3.26797386,9.98737998 0,13.2619308 0,17.3551193 L0,57.6320943 C0,61.7251164 3.26797386,65 7.35294118,65 L66.8300654,65 C71.3235294,65 75,61.3159639 75,56.8134566 L75,18.173757 C75,13.6712496 71.3235294,9.98737998 66.8300654,9.98737998 Z" id="Fill-1" fill="#333333"></path>
                <path d="M34.8850638,29.1092297 L40.1091577,29.1092297 L40.1091577,34.3809992 L45.3730408,34.3809992 L45.3730408,39.6242977 L40.1091577,39.6242977 L40.1091577,44.8962328 L34.8850638,44.8962328 L34.8850638,39.6242977 L29.6213458,39.6242977 L29.6213458,34.3809992 L34.8850638,34.3809992 L34.8850638,29.1092297 Z M37.5027241,20 C34.9641467,24.3534143 30.2594573,27.2783128 24.8664661,27.2783128 C23.893862,27.2783128 22.9319895,27.1866097 22,26.989299 C22.879983,39.6054274 29.1050782,50.0498145 37.5027241,54 C45.8975634,50.0498145 52.1172103,39.6054274 53,26.989299 C52.0648736,27.1866097 51.106138,27.2783128 50.1335339,27.2783128 C44.7433494,27.2783128 40.0416318,24.3534143 37.5027241,20 Z" id="Fill-3" fill="#FFFFFF"></path>
            </g>
            <g id="Cross" transform="translate(3.000000, 4.000000)" stroke-linecap="square" stroke-width="4">
                <path d="M3.5,0.5 L133.500962,130.500962" id="Line" stroke="#D0021B"></path>
                <path d="M0.5,2.5 L130.500962,132.500962" id="Line-Copy-2" stroke="#FFFFFF"></path>
            </g>
        </g>
    </g>
</svg>