<?xml version="1.0" encoding="UTF-8" standalone="no"?>
<svg width="32px" height="32px" viewBox="0 0 32 32" version="1.1" xmlns="http://www.w3.org/2000/svg" xmlns:xlink="http://www.w3.org/1999/xlink">
    <!-- Generator: Sketch 48.2 (47327) - http://www.bohemiancoding.com/sketch -->
    <title>ICON Copy 2</title>
    <desc>Created with Sketch.</desc>
    <defs></defs>
    <g id="Recomendations" stroke="none" stroke-width="1" fill="none" fill-rule="evenodd" transform="translate(-530.000000, -206.000000)">
        <g id="Group-2" transform="translate(37.000000, 206.000000)">
            <g id="Group" transform="translate(203.000000, 0.000000)">
                <g id="ICON-Copy-2" transform="translate(290.000000, 0.000000)">
                    <path d="M16,0 C7.18222222,0 0,7.14666667 0,16 C0,24.8532593 7.14666667,32 16,32 C24.8534074,32 32,24.8532593 32,16 C32,7.14666667 24.8177778,0 16,0" id="Path" fill="#FFFFFF"></path>
                    <path d="M3,16.5000376 C3,9.06418801 9.07236446,3 16.5180723,3 C23.9638554,3 30,9.06418801 30,16.5000376 C30,23.9358872 23.9638554,30 16.5180723,30 C9.07236446,30 3,23.9358872 3,16.5000376 Z" id="Path" fill="#F9A33C"></path>
                    <path d="M9,17.0000223 C9,12.5935929 12.5984382,9 17.0107095,9 C21.4230254,9 25,12.5935929 25,17.0000223 C25,21.4064517 21.4230254,25 17.0107095,25 C12.5984382,25 9,21.4064517 9,17.0000223 Z" id="Path-Copy" stroke="#FFFFFF" stroke-width="2" fill="#F9A33C"></path>
                </g>
            </g>
        </g>
    </g>
</svg>