<?xml version="1.0" encoding="UTF-8" standalone="no"?>
<svg width="111px" height="32px" viewBox="0 0 111 32" version="1.1" xmlns="http://www.w3.org/2000/svg" xmlns:xlink="http://www.w3.org/1999/xlink">
    <!-- Generator: Sketch 48.2 (47327) - http://www.bohemiancoding.com/sketch -->
    <title>important</title>
    <desc>Created with Sketch.</desc>
    <defs></defs>
    <g id="Recomendations" stroke="none" stroke-width="1" fill="none" fill-rule="evenodd" transform="translate(-390.000000, -206.000000)">
        <g id="Group-2" transform="translate(37.000000, 206.000000)">
            <g id="Group" transform="translate(203.000000, 0.000000)">
                <g id="important" transform="translate(150.000000, 0.000000)">
                    <g id="ICON-Copy">
                        <path d="M15.9999704,1.48148148e-05 C7.18219259,1.48148148e-05 -2.96296296e-05,7.14668148 -2.96296296e-05,16.0000148 C-2.96296296e-05,24.8532741 7.14663704,32.0000148 15.9999704,32.0000148 C24.8533778,32.0000148 31.9999704,24.8532741 31.9999704,16.0000148 C31.9999704,7.14668148 24.8177481,1.48148148e-05 15.9999704,1.48148148e-05" id="Path" fill="#FFFFFF"></path>
                        <path d="M2.70219259,16.0000148 C2.70219259,8.67557037 8.6756,2.70223704 15.9999704,2.70223704 C23.3244148,2.70223704 29.2621926,8.67557037 29.2621926,16.0000148 C29.2621926,23.3244593 23.3244148,29.2977185 15.9999704,29.2977185 C8.6756,29.2977185 2.70219259,23.3244593 2.70219259,16.0000148 Z" id="Path" fill="#0094C2"></path>
                        <path d="M8.161732,15.9999996 C8.161732,11.6867067 11.6794125,8.16906983 15.9926618,8.16906983 C20.3059546,8.16906983 23.8026532,11.6867067 23.8026532,15.9999996 C23.8026532,20.3132924 20.3059546,23.8308857 15.9926618,23.8308857 C11.6794125,23.8308857 8.161732,20.3132924 8.161732,15.9999996 Z" id="Path-Copy" stroke="#FFFFFF" stroke-width="2" fill="#0094C2"></path>
                    </g>
                    <text id="Important" opacity="0.8" font-family="Lato-Regular, Lato" font-size="16" font-weight="normal" letter-spacing="-0.255999982" fill="#333333">
                        <tspan x="42" y="23">Important</tspan>
                    </text>
                </g>
            </g>
        </g>
    </g>
</svg>