<?xml version="1.0" encoding="UTF-8" standalone="no"?>
<svg width="41px" height="40px" viewBox="0 0 41 40" version="1.1" xmlns="http://www.w3.org/2000/svg" xmlns:xlink="http://www.w3.org/1999/xlink">
    <!-- Generator: Sketch 48.2 (47327) - http://www.bohemiancoding.com/sketch -->
    <title>Fill 1</title>
    <desc>Created with Sketch.</desc>
    <defs></defs>
    <g id="Artboard-Mobile-P1" stroke="none" stroke-width="1" fill="none" fill-rule="evenodd" transform="translate(-2.000000, -1065.000000)">
        <g id="Group-5" transform="translate(2.000000, 1030.000000)" fill="#999999">
            <g id="Group-3">
                <g id="Male" transform="translate(0.000000, 35.000000)">
                    <path d="M28.6570061,39.9139029 L0,39.9139029 L0,39.0871475 C0,36.7567955 0.522513076,33.2239481 3.95526756,32.3971927 C9.17929231,31.1192628 13.6567569,28.9394615 13.6567569,28.8641861 C14.104535,28.1878223 14.328424,27.1354001 14.4031591,26.3837609 C13.0598249,24.6549749 12.4628928,22.5504488 12.1642687,20.6711121 C11.6419137,20.5958368 11.0448236,19.9194729 10.2987375,17.4387294 C9.40318134,14.2068241 10.2240025,13.6052581 11.0448236,13.6052581 L11.1941356,13.6052581 C10.5972035,11.8013559 10.5226265,9.99729454 10.9704046,8.41889999 C11.4181826,6.46460628 12.4628928,4.96116876 13.5823379,3.75851423 C14.328424,3.00703418 15.1494032,2.25507671 15.9702243,1.72894519 C16.6420494,1.20297282 17.4628705,0.827232796 18.2838496,0.526290661 C18.9555167,0.300942135 19.7016028,0.15055064 20.4480049,0.0752753199 C20.746471,0.0752753199 21.044937,0 21.343561,0 C23.2092503,0 24.7017385,0.526290661 25.8211837,1.20297282 C27.6867149,2.25507671 28.433117,3.68339805 28.433117,3.68339805 C28.433117,3.68339805 33.2093637,4.05913807 31.1197854,14.2068241 C31.7914525,14.4321726 32.2392306,15.3342033 31.4928285,17.9650201 C30.7465844,20.5207206 30.0750753,21.1974028 29.6272972,21.1974028 C29.4778272,21.1974028 29.4032502,21.1221274 29.2539382,21.0468521 C28.9556301,22.700522 28.35854,24.5796995 27.1645179,26.2333694 C27.3136719,27.0601248 27.5375609,28.2630976 28.060074,29.0147368 C28.060074,29.0147368 33.8514844,31.9609778 36.7618838,32.9382838 C36.6127298,33.0132408 36.848311,33.0944045 36.848311,33.0944045 C39.9380429,34.3237953 40.7308976,38.1354637 40.6752808,40" id="Fill-1"></path>
                </g>
            </g>
        </g>
    </g>
</svg>