<?xml version="1.0" encoding="UTF-8" standalone="no"?>
<svg width="36px" height="46px" viewBox="0 0 36 46" version="1.1" xmlns="http://www.w3.org/2000/svg" xmlns:xlink="http://www.w3.org/1999/xlink">
    <!-- Generator: Sketch 48.2 (47327) - http://www.bohemiancoding.com/sketch -->
    <title>Male</title>
    <desc>Created with Sketch.</desc>
    <defs></defs>
    <g id="Screen6_ByEntry" stroke="none" stroke-width="1" fill="none" fill-rule="evenodd" transform="translate(-399.000000, -526.000000)">
        <g transform="translate(353.000000, 100.000000)" fill="#cc0000" id="NoOfMales">
            <g transform="translate(47.000000, 397.000000)">
                <g id="Male" transform="translate(0.000000, 30.000000)">
                    <g id="Group-9" stroke="#cc0000">
                        <path d="M16.9799083,0.291855514 C8.6397498,0.291855514 1.52773334,6.53697981 0.437348675,14.8192556 C-0.144617872,19.236197 1.03274073,23.6210342 3.75286521,27.1647439 C6.47240598,30.7090372 10.4025773,32.9808405 14.8195691,33.5622167 C15.5497999,33.6591128 16.2905377,33.7081445 17.0213523,33.7081445 C25.3615107,33.7081445 32.4735272,27.4630202 33.5639119,19.1807444 C34.7657866,10.0485854 28.3133712,1.63964428 19.1811077,0.436615849 C18.4473746,0.34030353 17.7072205,0.291855514 16.9799083,0.291855514 Z M17.0213523,34 C16.2776959,34 15.5241164,33.9498009 14.7810437,33.8517374 C10.2870011,33.2604381 6.28795118,30.9489425 3.52112928,27.3427757 C0.753723669,23.736609 -0.444065052,19.2758893 0.147824696,14.7813144 C1.25747204,6.35486197 8.49382037,0 16.9799083,0 C17.7194786,0 18.4730582,0.0496154374 19.2190494,0.147095179 C28.5112515,1.37172092 35.0763244,9.92717347 33.8534358,19.2186856 C32.7437885,27.645138 25.5074402,34 17.0213523,34 Z" id="Fill-235"></path>
                        <path d="M8.60877716,27.9510454 C8.84797905,27.8515399 9.08836218,27.7526266 9.32874531,27.6537133 C10.3003184,27.2539142 11.3049664,26.8404922 12.2552771,26.3524411 C13.691079,25.6162183 14.4630219,24.4375512 14.5480715,22.8490158 C14.5829182,22.2045988 14.4210878,21.6602796 14.0070618,21.0283008 C13.7294695,20.6048098 13.5156643,20.1220893 13.3095373,19.6547685 C13.1866879,19.3769822 13.0638385,19.0986035 12.9268142,18.8291092 L12.8913769,18.7586261 C12.7413589,18.4601094 12.5712598,18.1213166 12.2989831,17.9246747 C11.8997227,17.6344501 11.5955524,17.0954616 11.5045966,16.5167893 C11.424272,16.0068233 11.5134559,15.5424639 11.7562015,15.2090018 C12.0456063,14.8115718 11.9900878,14.5130551 11.8170356,14.1867006 C11.3841097,13.3734794 10.9600431,12.5318282 10.5849982,11.7890902 C10.2199938,11.0658979 10.1597504,10.413781 10.4007242,9.79601727 L10.4314365,9.71724203 C10.7190694,8.98042698 11.0161522,8.21873553 11.3947409,7.52160424 C11.6380771,7.07442147 11.8843665,6.83750345 12.1271121,6.81855001 C12.3798983,6.80611181 12.6687124,7.00512295 12.9941451,7.4309831 C13.02722,7.47422064 13.0638385,7.51627359 13.1158133,7.57609539 L13.3993118,7.90600374 L13.4695958,7.62940195 C13.497355,7.52101195 13.5209799,7.4185449 13.5440142,7.32200081 C13.5883108,7.13187409 13.6284731,6.96307 13.6822197,6.79900427 C14.2545324,5.05884139 16.1640131,4.03002487 18.2235119,4.35519485 C18.8336244,4.45114665 19.3905809,4.72064091 20.0302244,5.22942236 L20.2221766,5.38282678 C21.2498588,6.20137856 22.311797,7.0477682 23.4375225,7.75911456 C23.8905295,8.04460078 24.4321298,8.19267455 24.9554209,8.33600995 C25.1432387,8.38753962 25.3322377,8.43906929 25.5188742,8.4977065 C25.2406913,9.18595336 24.6766473,9.75041055 23.9165169,10.0980878 L23.8214267,10.17094 L23.8657234,10.5357938 L25.2702224,10.7780425 C25.1172513,11.0333217 24.9642802,11.2897854 24.8118997,11.5456569 C24.3352678,12.3476244 23.8426891,13.1756529 23.3294387,13.9716974 C23.0583432,14.3922269 22.8965128,14.731612 23.2880951,15.2652699 C23.4948128,15.54661 23.5698218,15.9860929 23.4930409,16.4682211 C23.3973602,17.0735467 23.0855118,17.6439268 22.6986544,17.9223055 C22.4635869,18.0905173 22.1901289,18.4115412 22.1103949,18.7479648 C21.8741462,19.7388744 21.4949669,20.5165579 20.9161574,21.1947357 C20.1973704,22.0375716 20.3107699,23.8097184 21.158903,24.9866087 C21.8859586,25.9964718 22.9437625,26.5425678 23.7842176,26.9056447 C24.4622516,27.1982384 25.1467824,27.4766171 25.8313132,27.7544035 C26.7934364,28.1453182 27.7886344,28.5486712 28.7466232,28.9893387 C28.7537106,28.9923002 28.7607981,28.9964462 28.7678856,29 C28.8464383,28.9301092 28.9232191,28.8578492 29,28.7861815 C28.956294,28.7654512 28.9137692,28.7399825 28.8694725,28.7198444 C27.9055775,28.2768077 26.9074264,27.8716779 25.9417595,27.4801709 C25.2595912,27.2029768 24.5768322,26.9251904 23.9011607,26.6337812 C23.0955524,26.2855117 22.0832263,25.7642921 21.3981049,24.8130662 C20.6226183,23.7362738 20.5021314,22.1358926 21.1400031,21.3872316 C21.7507062,20.6723315 22.1499666,19.8549643 22.3974372,18.8160787 C22.4505932,18.5933758 22.6449078,18.3250661 22.8705254,18.1627773 C23.3253043,17.8364227 23.6755431,17.2050362 23.7848082,16.5150124 C23.8745827,15.9458169 23.7824457,15.4399969 23.5255251,15.0893582 C23.2508859,14.7150277 23.3217606,14.5296394 23.5774999,14.1328017 C24.0931128,13.3320188 24.5874634,12.5016211 25.0658672,11.6978767 C25.2548662,11.3798143 25.4438652,11.0617518 25.6346361,10.744874 L25.7468543,10.5588933 L24.1946998,10.2923605 C25.0008988,9.88071547 25.5856145,9.23274467 25.8508038,8.45209978 L25.8986441,8.31113356 L25.7580761,8.26315766 C25.5194648,8.18379012 25.275538,8.11626848 25.033383,8.05052373 C24.5071388,7.90659603 24.0104258,7.77036817 23.5952185,7.50798146 C22.4830774,6.80551952 21.4270453,5.96446053 20.40586,5.15123941 L20.2133172,4.9972427 C19.5317395,4.45529272 18.9322582,4.16625273 18.2689898,4.06260109 C16.0671511,3.71729307 14.0194648,4.82843861 13.4016743,6.70660624 C13.344384,6.88014869 13.303631,7.05309885 13.2563813,7.25329458 C13.2546094,7.26217901 13.2522469,7.27047114 13.2504751,7.27817097 C13.242797,7.26928655 13.2357095,7.25980983 13.2286221,7.25033311 C12.8317241,6.73325952 12.4625854,6.49101084 12.1040779,6.52358707 C11.7502953,6.55142494 11.4337219,6.8315805 11.1348672,7.38063802 C10.7480099,8.09376127 10.4473833,8.86374485 10.1567973,9.60885204 L10.1254943,9.68881187 C9.85617072,10.3794279 9.92232037,11.1310503 10.3215808,11.9229488 C10.6966258,12.6668714 11.1224642,13.5102996 11.5565713,14.3264822 C11.693005,14.5829459 11.7219455,14.7541192 11.5175903,15.0342748 C11.2281855,15.4317048 11.1201017,15.974247 11.2128293,16.5629883 C11.3167788,17.2263588 11.6587489,17.8245768 12.1259309,18.1645542 C12.339736,18.3191432 12.4856196,18.6105524 12.6273689,18.8924848 L12.6633968,18.9635602 C12.7980587,19.2283161 12.9185455,19.5019564 13.039623,19.7750044 C13.2504751,20.2529866 13.4690052,20.7475529 13.7601818,21.1917742 C14.1369986,21.7651158 14.2846541,22.2561284 14.2533511,22.8330238 C14.1736172,24.3084308 13.4566021,25.4041767 12.1206153,26.0888698 C11.1815264,26.570998 10.1827847,26.9820507 9.21652714,27.3794807 C8.97555339,27.478394 8.73517025,27.5773073 8.49478712,27.6779974 L8.06186123,27.8574628 C7.37614914,28.1423568 6.67980587,28.4331736 6,28.7654512 C6.07737148,28.8377112 6.15474295,28.9105634 6.23388629,28.9816389 C6.87412049,28.6730531 7.52852961,28.3994128 8.17467002,28.1311031 L8.60877716,27.9510454" id="Fill-243"></path>
                    </g>
                    <text font-family="Lato-Bold, Lato" font-size="10" font-weight="bold">
                        <tspan x="6" y="44">Male</tspan>
                    </text>
                </g>
            </g>
        </g>
    </g>
</svg>