<?xml version="1.0" encoding="UTF-8" standalone="no"?>
<svg width="125px" height="106px" viewBox="0 0 125 106" version="1.1" xmlns="http://www.w3.org/2000/svg" xmlns:xlink="http://www.w3.org/1999/xlink">
    <!-- Generator: Sketch 48.2 (47327) - http://www.bohemiancoding.com/sketch -->
    <title>Married_Without_Children</title>
    <desc>Created with Sketch.</desc>
    <defs></defs>
    <g id="Page2" stroke="none" stroke-width="1" fill="none" fill-rule="evenodd" transform="translate(-225.000000, -455.000000)">
        <g id="Married_Without_Children" transform="translate(224.000000, 455.000000)">
            <text id="Married-Without-Chil" font-family="Lato-Bold, Lato" font-size="16" font-weight="bold" fill="#333333">
                <tspan x="34.6653333" y="86">Married</tspan>
                <tspan x="1.01333333" y="105">Without Children</tspan>
            </text>
            <g id="Page-1" opacity="0.5" transform="translate(37.000000, 0.000000)" fill="#000000">
                <path d="M44.3129062,0.46865625 C47.242125,0.46865625 49.6130625,2.8419375 49.6130625,5.76834375 C49.6130625,8.6975625 47.242125,11.0680312 44.3129062,11.0680312 C41.3841562,11.0680312 39.010875,8.6975625 39.010875,5.76834375 C39.010875,2.8419375 41.3841562,0.46865625 44.3129062,0.46865625" id="Fill-1"></path>
                <path d="M14.9299688,0.46865625 C17.8568437,0.46865625 20.230125,2.8419375 20.230125,5.76834375 C20.230125,8.6975625 17.8568437,11.0680312 14.9299688,11.0680312 C12.0012187,11.0680312 9.63028125,8.6975625 9.63028125,5.76834375 C9.63028125,2.8419375 12.0035625,0.46865625 14.9299688,0.46865625" id="Fill-4"></path>
                <path d="M1.39251562,31.4208281 C1.32548437,31.4025469 1.26126562,31.3861406 1.19657812,31.3608281 C0.202359375,30.9436406 -0.263109375,29.8064531 0.151734375,28.8145781 L6.48689063,13.6837969 C6.78689062,12.9661406 7.46704687,12.5330156 8.19829687,12.5002031 L8.19829687,12.4866094 L8.28360938,12.4866094 L21.6598594,12.4866094 L21.7475156,12.4866094 L21.7475156,12.5002031 C22.4764219,12.5330156 23.1589219,12.9619219 23.4584531,13.6837969 L29.7940781,28.8145781 C30.2093906,29.8041094 29.7411094,30.9436406 28.7445469,31.3631719 C27.7550156,31.7761406 26.6136094,31.3102031 26.1982969,30.3183281 L21.7451719,21.3309844 L21.7451719,38.1000469 C21.7475156,38.1342656 21.7540781,38.1642656 21.7540781,38.1966094 L21.7540781,57.9037969 C21.7540781,58.9758281 20.8873594,59.8406719 19.8172031,59.8406719 C19.8007969,59.8406719 19.7895469,59.8387969 19.7707969,59.8387969 C19.7572031,59.8387969 19.7431406,59.8406719 19.7272031,59.8406719 C18.6593906,59.8406719 17.7898594,58.9758281 17.7898594,57.9037969 L16.1801719,38.1966094 C16.1801719,38.1619219 16.1872031,38.1342656 16.1890781,38.1000469 L13.7492344,38.1000469 C13.7539219,38.1342656 13.7609531,38.1642656 13.7609531,38.1966094 L12.1512656,57.9037969 C12.1512656,58.9758281 11.2817344,59.8406719 10.2111094,59.8406719 C10.1975156,59.8406719 10.1815781,59.8387969 10.1679844,59.8387969 C10.1520469,59.8387969 10.1398594,59.8406719 10.1239219,59.8406719 C9.05423438,59.8406719 8.18657813,58.9758281 8.18657813,57.9037969 L8.18657813,38.1966094 C8.18657813,38.1619219 8.19126562,38.1342656 8.19595313,38.1000469 L8.19595313,21.3333281 L3.74282812,30.3183281 C3.52110937,30.8466094 3.09454687,31.2178594 2.59392188,31.3955156" id="Fill-7"></path>
                <path d="M56.9233594,31.1740781 C55.9249219,31.5917344 54.7764844,31.1211094 54.3616406,30.1222031 L49.0872656,17.5231406 L49.0708594,17.5559531 L53.9350781,39.4118906 L53.7892969,39.4118906 L49.5250781,39.4118906 C49.5367969,39.4995469 49.5527344,39.5806406 49.5527344,39.6725156 L49.5527344,57.8848594 C49.5527344,58.9620469 48.6761719,59.8362656 47.5994531,59.8362656 C47.5722656,59.8362656 47.5511719,59.8315781 47.5282031,59.8315781 C47.5000781,59.8315781 47.4799219,59.8362656 47.4522656,59.8362656 C46.3746094,59.8362656 45.5008594,58.9620469 45.5008594,57.8848594 L44.7583594,39.6725156 C44.7583594,39.5806406 44.7719531,39.4995469 44.7860156,39.4118906 L43.8405469,39.4118906 C43.8541406,39.4995469 43.8677344,39.5806406 43.8677344,39.6725156 L43.1275781,57.8848594 C43.1275781,58.9620469 42.2538281,59.8362656 41.1789844,59.8362656 C41.1517969,59.8362656 41.1283594,59.8315781 41.1030469,59.8315781 C41.0749219,59.8315781 41.0542969,59.8362656 41.0289844,59.8362656 C39.9494531,59.8362656 39.0757031,58.9620469 39.0757031,57.8848594 L39.0757031,39.6725156 C39.0757031,39.5806406 39.0916406,39.4995469 39.1033594,39.4118906 L34.8414844,39.4118906 L34.8367969,39.4118906 L34.6914844,39.4118906 L39.5552344,17.5559531 L39.5411719,17.5231406 L34.2696094,30.1222031 C33.8491406,31.1234531 32.6983594,31.5917344 31.7050781,31.1740781 C30.7038281,30.7540781 30.2336719,29.6056406 30.6532031,28.6118906 L38.0074219,12.3528281 L38.0791406,12.1798594 L50.5375781,12.1798594 L50.5403906,12.1798594 L50.6088281,12.3528281 L57.9663281,28.6118906 C58.3858594,29.6107969 57.9152344,30.7564219 56.9233594,31.1740781" id="Fill-10"></path>
            </g>
        </g>
    </g>
</svg>