<?xml version="1.0" encoding="UTF-8" standalone="no"?>
<svg width="81px" height="106px" viewBox="0 0 81 106" version="1.1" xmlns="http://www.w3.org/2000/svg" xmlns:xlink="http://www.w3.org/1999/xlink">
    <!-- Generator: Sketch 48.2 (47327) - http://www.bohemiancoding.com/sketch -->
    <title>Nearing_Retirement</title>
    <desc>Created with Sketch.</desc>
    <defs></defs>
    <g id="Page2" stroke="none" stroke-width="1" fill="none" fill-rule="evenodd" transform="translate(-665.000000, -455.000000)">
        <g id="Nearing_Retirement" transform="translate(664.000000, 455.000000)">
            <text id="Nearing-Retirement" font-family="Lato-Bold, Lato" font-size="16" font-weight="bold" fill="#333333">
                <tspan x="12.6973333" y="86">Nearing</tspan>
                <tspan x="0.353333333" y="105">Retirement</tspan>
            </text>
            <g id="Page-1" opacity="0.5" transform="translate(20.000000, 0.000000)" fill="#000000">
                <path d="M8.42416822,8.5591215 C8.26173832,6.8791215 8.22192523,5.68902804 8.73930841,4.01594393 C10.720243,6.66005607 13.6372523,4.80005607 15.8972523,4.08061682 C16.1789346,5.4815514 16.2742617,6.6733271 16.1903364,8.64042991 C17.9013645,7.16697196 17.8643551,3.22416822 16.9303364,1.82921495 C15.3587477,-0.49882243 9.56902804,-0.577327103 7.84753271,1.43818692 C7.18902804,2.20173832 6.35725234,7.48734579 8.42416822,8.5591215 Z M31.5316449,30.6168785 L29.5680935,38.4079065 L31.6639813,48.3028598 L32.9705234,48.3028598 L34.6021121,59.8585607 L37.6239813,59.8585607 L37.2832336,48.3028598 L38.4555701,48.3028598 L38.5404299,59.8585607 L41.1413645,59.8585607 L42.5221121,48.3028598 L44.2737009,48.3028598 L45.6729533,38.1864112 L43.5118318,30.3510841 L45.915757,34.3593084 L48.406972,33.2858505 L44.4608037,14.9677196 L43.7022991,14.9677196 L42.1344486,14.9677196 L41.4166916,14.9677196 C40.7723925,16.5329533 39.1538879,17.6426729 37.2578131,17.6426729 C35.3639813,17.6426729 33.7449159,16.5329533 33.0959439,14.9677196 L32.7630467,14.9677196 L30.6080935,14.9677196 L30.0880935,14.9677196 L27.0809907,35.0151963 L29.238,35.838 L31.5316449,30.6168785 Z M31.4882804,11.3471589 C31.5245421,11.6331402 32.0082804,12.555757 32.7374393,12.7376262 C33.9133271,13.0394953 35.5475327,12.5097757 35.5475327,12.5097757 C35.0019252,12.0454766 34.4413645,11.4054766 34.0821121,10.5419252 C33.4632336,9.05706542 33.471271,7.12192523 33.5294019,6.09426168 C35.2516449,9.12248598 38.1094019,6.14641121 40.7288411,6.51706542 C40.7617383,7.59856075 40.6981869,9.23986916 40.1630467,10.5428598 C39.7753832,11.4645421 39.1566916,12.1365047 38.5731402,12.6079065 C39.4559439,12.8841682 40.9920187,13.1260374 42.013514,12.5662243 C42.9546355,12.0578131 42.7206168,7.61183178 42.6032336,6.67257944 C42.3983738,4.9368785 41.9366916,3.43856075 41.1781869,2.79856075 C39.0350093,0.965850467 35.2508972,0.94117757 33.2391215,2.61407477 C31.9226729,3.71594393 31.0927664,8.6191215 31.4882804,11.3471589 Z M24.8413645,29.9591215 C23.3908972,31.5731402 21.9359439,33.1948224 20.4852897,34.8174393 C20.8034206,43.0058505 20.0041682,51.2011776 20.3346355,59.3959439 L15.1875327,59.3959439 C14.7284673,52.4617383 13.8350093,45.5316449 13.3723925,38.5994953 L11.9925794,38.5994953 C11.6217383,45.5316449 10.222486,52.4617383 9.84902804,59.3959439 L4.48828037,59.3959439 C4.98379439,51.2011776 4.13781308,43.006785 4.63145794,34.8174393 C3.08902804,33.6548224 1.54229907,32.4894019 5.60747664e-05,31.326785 C0.675383178,25.5034206 1.62005607,19.7836075 3.53220561,14.373514 L7.31351402,14.373514 L10.8634206,20.1940748 L11.6720187,15.0613645 L11.3322056,15.0613645 L11.3322056,13.4994953 L13.4905234,13.4994953 L13.4905234,15.0613645 L13.1348224,15.0613645 L14.3920187,20.0828598 L17.4520187,14.3744486 L20.6355701,14.3744486 C22.8841682,19.4241682 24.2295888,24.6286542 24.8413645,29.9591215 Z" id="Fill-1"></path>
            </g>
        </g>
    </g>
</svg>