<?xml version="1.0" encoding="UTF-8" standalone="no"?>
<svg width="809px" height="90px" viewBox="0 0 809 101" version="1.1" xmlns="http://www.w3.org/2000/svg" xmlns:xlink="http://www.w3.org/1999/xlink">
    <!-- Generator: Sketch 48.2 (47327) - http://www.bohemiancoding.com/sketch -->
    <title>No</title>
    <desc>Created with Sketch.</desc>
    <defs>
        <linearGradient x1="50%" y1="0%" x2="50%" y2="100%" id="linearGradient-1">
            <stop stop-color="#FE6287" offset="0%"></stop>
            <stop stop-color="#D0021B" offset="100%"></stop>
        </linearGradient>
    </defs>
    <g id="Page-1" stroke="none" stroke-width="1" fill="none" fill-rule="evenodd">
        <g id="No">
            
            <g id="Let's-do-this!-YES" opacity="0.4" transform="translate(110.000000, 36.000000)" fill="#000000">
                <path d="M5.152,25.718 L13.832,25.718 L13.832,28 L2.436,28 L2.436,7.938 L5.152,7.938 L5.152,25.718 Z M21.546,13.594 C22.3953376,13.594 23.1793297,13.7363319 23.898,14.021 C24.6166703,14.3056681 25.2373307,14.7163306 25.76,15.253 C26.2826693,15.7896694 26.6909985,16.4523294 26.985,17.241 C27.2790015,18.0296706 27.426,18.927995 27.426,19.936 C27.426,20.328002 27.3840004,20.5893327 27.3,20.72 C27.2159996,20.8506673 27.0573345,20.916 26.824,20.916 L17.388,20.916 C17.4066668,21.8120045 17.5279989,22.59133 17.752,23.254 C17.9760011,23.91667 18.283998,24.4696644 18.676,24.913 C19.068002,25.3563356 19.534664,25.6876656 20.076,25.907 C20.617336,26.1263344 21.2239966,26.236 21.896,26.236 C22.5213365,26.236 23.0603311,26.1636674 23.513,26.019 C23.9656689,25.8743326 24.3553317,25.7180008 24.682,25.55 C25.0086683,25.3819992 25.2816656,25.2256674 25.501,25.081 C25.7203344,24.9363326 25.9093325,24.864 26.068,24.864 C26.2733344,24.864 26.4319994,24.9433325 26.544,25.102 L27.244,26.012 C26.9359985,26.3853352 26.5673355,26.7096653 26.138,26.985 C25.7086645,27.2603347 25.2490025,27.4866658 24.759,27.664 C24.2689976,27.8413342 23.7626693,27.9743329 23.24,28.063 C22.7173307,28.1516671 22.1993359,28.196 21.686,28.196 C20.7059951,28.196 19.8030041,28.030335 18.977,27.699 C18.1509959,27.367665 17.437003,26.8823365 16.835,26.243 C16.232997,25.6036635 15.7640017,24.8126714 15.428,23.87 C15.0919983,22.9273286 14.924,21.8446728 14.924,20.622 C14.924,19.6326617 15.0756652,18.708671 15.379,17.85 C15.6823349,16.991329 16.1186638,16.2470031 16.688,15.617 C17.2573362,14.9869968 17.9526626,14.4923351 18.774,14.133 C19.5953374,13.7736649 20.5193282,13.594 21.546,13.594 Z M21.602,15.428 C20.397994,15.428 19.4506701,15.7756632 18.76,16.471 C18.0693299,17.1663368 17.6400008,18.1299938 17.472,19.362 L25.186,19.362 C25.186,18.7833304 25.1066675,18.2536691 24.948,17.773 C24.7893325,17.2923309 24.5560015,16.8770018 24.248,16.527 C23.9399985,16.1769983 23.5643356,15.9063343 23.121,15.715 C22.6776645,15.5236657 22.1713362,15.428 21.602,15.428 Z M34.902,28.224 C33.7819944,28.224 32.921003,27.9113365 32.319,27.286 C31.716997,26.6606635 31.416,25.7600059 31.416,24.584 L31.416,15.904 L29.708,15.904 C29.5586659,15.904 29.4326672,15.8596671 29.33,15.771 C29.2273328,15.6823329 29.176,15.5446676 29.176,15.358 L29.176,14.364 L31.5,14.07 L32.074,9.688 C32.0926668,9.5479993 32.1533328,9.43366711 32.256,9.345 C32.3586672,9.25633289 32.4893325,9.212 32.648,9.212 L33.908,9.212 L33.908,14.098 L37.968,14.098 L37.968,15.904 L33.908,15.904 L33.908,24.416 C33.908,25.0133363 34.0526652,25.4566652 34.342,25.746 C34.6313348,26.0353348 35.0046644,26.18 35.462,26.18 C35.7233346,26.18 35.9496657,26.1450004 36.141,26.075 C36.3323343,26.0049996 36.4979993,25.9280004 36.638,25.844 C36.7780007,25.7599996 36.8969995,25.6830004 36.995,25.613 C37.0930005,25.5429996 37.179333,25.508 37.254,25.508 C37.3846673,25.508 37.5013328,25.5873325 37.604,25.746 L38.332,26.936 C37.9026645,27.3373353 37.3846697,27.6523322 36.778,27.881 C36.1713303,28.1096678 35.5460032,28.224 34.902,28.224 Z M43.302,7.938 L43.302,11.998 L43.078,14.168 C43.0499999,14.4666682 42.9706673,14.6976658 42.84,14.861 C42.7093327,15.0243342 42.4993348,15.106 42.21,15.106 C41.9673321,15.106 41.778334,15.0243342 41.643,14.861 C41.507666,14.6976658 41.4120003,14.4666682 41.356,14.168 L41.132,11.998 L41.132,7.938 L43.302,7.938 Z M55.608,16.156 C55.4959994,16.3613344 55.3233345,16.464 55.09,16.464 C54.9499993,16.464 54.7913342,16.4126672 54.614,16.31 C54.4366658,16.2073328 54.219668,16.0930006 53.963,15.967 C53.7063321,15.8409994 53.4006684,15.7243339 53.046,15.617 C52.6913316,15.5096661 52.2713358,15.456 51.786,15.456 C51.3659979,15.456 50.9880017,15.5096661 50.652,15.617 C50.3159983,15.7243339 50.0290012,15.8713324 49.791,16.058 C49.5529988,16.2446676 49.3710006,16.4616654 49.245,16.709 C49.1189994,16.9563346 49.056,17.2246652 49.056,17.514 C49.056,17.8780018 49.160999,18.1813321 49.371,18.424 C49.581001,18.6666679 49.8586649,18.8766658 50.204,19.054 C50.5493351,19.2313342 50.9413311,19.387666 51.38,19.523 C51.8186689,19.658334 52.2689977,19.8029992 52.731,19.957 C53.1930023,20.1110008 53.6433311,20.2813324 54.082,20.468 C54.5206689,20.6546676 54.9126649,20.8879986 55.258,21.168 C55.6033351,21.4480014 55.880999,21.790998 56.091,22.197 C56.3010011,22.603002 56.406,23.0906638 56.406,23.66 C56.406,24.3133366 56.2893345,24.9176639 56.056,25.473 C55.8226655,26.0283361 55.4773356,26.508998 55.02,26.915 C54.5626644,27.321002 54.00267,27.6406655 53.34,27.874 C52.67733,28.1073345 51.9120043,28.224 51.044,28.224 C50.0546617,28.224 49.1586707,28.0630016 48.356,27.741 C47.5533293,27.4189984 46.8720028,27.0060025 46.312,26.502 L46.9,25.55 C46.974667,25.4286661 47.0633328,25.3353337 47.166,25.27 C47.2686672,25.2046663 47.4039992,25.172 47.572,25.172 C47.7400008,25.172 47.9173324,25.2373327 48.104,25.368 C48.2906676,25.4986673 48.5169987,25.6433325 48.783,25.802 C49.0490013,25.9606675 49.3709981,26.1053327 49.749,26.236 C50.1270019,26.3666673 50.6006638,26.432 51.17,26.432 C51.6553358,26.432 52.0799982,26.3690006 52.444,26.243 C52.8080018,26.1169994 53.1113321,25.9466677 53.354,25.732 C53.5966679,25.5173323 53.7763327,25.2700014 53.893,24.99 C54.0096673,24.7099986 54.068,24.4113349 54.068,24.094 C54.068,23.701998 53.9630011,23.3776679 53.753,23.121 C53.5429989,22.8643321 53.2653351,22.6450009 52.92,22.463 C52.5746649,22.2809991 52.1803355,22.122334 51.737,21.987 C51.2936645,21.851666 50.8410023,21.7093341 50.379,21.56 C49.9169977,21.4106659 49.4643356,21.2403343 49.021,21.049 C48.5776645,20.8576657 48.1833351,20.6173348 47.838,20.328 C47.4926649,20.0386652 47.215001,19.6816688 47.005,19.257 C46.794999,18.8323312 46.69,18.3166697 46.69,17.71 C46.69,17.168664 46.8019989,16.6483358 47.026,16.149 C47.2500011,15.6496642 47.5766645,15.2110019 48.006,14.833 C48.4353355,14.4549981 48.9626635,14.1540011 49.588,13.93 C50.2133365,13.7059989 50.9273293,13.594 51.73,13.594 C52.663338,13.594 53.5009963,13.7409985 54.243,14.035 C54.9850037,14.3290015 55.626664,14.7326641 56.168,15.246 L55.608,16.156 Z M75.026,28 C74.6713316,28 74.4473338,27.8273351 74.354,27.482 L74.13,25.76 C73.5233303,26.497337 72.8303372,27.0876644 72.051,27.531 C71.2716628,27.9743355 70.378005,28.196 69.37,28.196 C68.5579959,28.196 67.82067,28.0396682 67.158,27.727 C66.49533,27.4143318 65.930669,26.9546697 65.464,26.348 C64.997331,25.7413303 64.6380013,24.9853379 64.386,24.08 C64.1339987,23.1746621 64.008,22.1340059 64.008,20.958 C64.008,19.9126614 64.1479986,18.9396712 64.428,18.039 C64.7080014,17.1383288 65.111664,16.35667 65.639,15.694 C66.166336,15.03133 66.8079962,14.5110019 67.564,14.133 C68.3200038,13.7549981 69.1786619,13.566 70.14,13.566 C71.0080043,13.566 71.7499969,13.7129985 72.366,14.007 C72.9820031,14.3010015 73.5326642,14.7139973 74.018,15.246 L74.018,7.378 L76.51,7.378 L76.51,28 L75.026,28 Z M70.196,26.18 C71.0080041,26.18 71.7196636,25.9933352 72.331,25.62 C72.9423364,25.2466648 73.5046641,24.7193367 74.018,24.038 L74.018,17.178 C73.5606644,16.5619969 73.0590027,16.1303346 72.513,15.883 C71.9669973,15.6356654 71.36267,15.512 70.7,15.512 C69.37466,15.512 68.3573369,15.9833286 67.648,16.926 C66.9386631,17.8686714 66.584,19.2126579 66.584,20.958 C66.584,21.8820046 66.6633325,22.6729967 66.822,23.331 C66.9806675,23.9890033 67.2139985,24.5303312 67.522,24.955 C67.8300015,25.3796688 68.2079978,25.689999 68.656,25.886 C69.1040022,26.082001 69.6173304,26.18 70.196,26.18 Z M86.436,13.594 C87.4720052,13.594 88.4076625,13.7666649 89.243,14.112 C90.0783375,14.4573351 90.7876638,14.9473302 91.371,15.582 C91.9543363,16.2166698 92.4023318,16.9843288 92.715,17.885 C93.0276682,18.7856712 93.184,19.7913278 93.184,20.902 C93.184,22.0220056 93.0276682,23.0299955 92.715,23.926 C92.4023318,24.8220045 91.9543363,25.5873302 91.371,26.222 C90.7876638,26.8566698 90.0783375,27.3443316 89.243,27.685 C88.4076625,28.0256684 87.4720052,28.196 86.436,28.196 C85.3999948,28.196 84.4643375,28.0256684 83.629,27.685 C82.7936625,27.3443316 82.0820029,26.8566698 81.494,26.222 C80.9059971,25.5873302 80.4533349,24.8220045 80.136,23.926 C79.8186651,23.0299955 79.66,22.0220056 79.66,20.902 C79.66,19.7913278 79.8186651,18.7856712 80.136,17.885 C80.4533349,16.9843288 80.9059971,16.2166698 81.494,15.582 C82.0820029,14.9473302 82.7936625,14.4573351 83.629,14.112 C84.4643375,13.7666649 85.3999948,13.594 86.436,13.594 Z M86.436,26.25 C87.836007,26.25 88.8813299,25.7810047 89.572,24.843 C90.2626701,23.9049953 90.608,22.5960084 90.608,20.916 C90.608,19.2266582 90.2626701,17.9106714 89.572,16.968 C88.8813299,16.0253286 87.836007,15.554 86.436,15.554 C85.7266631,15.554 85.1106693,15.6753321 84.588,15.918 C84.0653307,16.1606679 83.6290018,16.5106644 83.279,16.968 C82.9289983,17.4253356 82.6676675,17.9876633 82.495,18.655 C82.3223325,19.3223367 82.236,20.0759958 82.236,20.916 C82.236,21.7560042 82.3223325,22.50733 82.495,23.17 C82.6676675,23.83267 82.9289983,24.3903311 83.279,24.843 C83.6290018,25.2956689 84.0653307,25.6433321 84.588,25.886 C85.1106693,26.1286679 85.7266631,26.25 86.436,26.25 Z M105.966,28.224 C104.845994,28.224 103.985003,27.9113365 103.383,27.286 C102.780997,26.6606635 102.48,25.7600059 102.48,24.584 L102.48,15.904 L100.772,15.904 C100.622666,15.904 100.496667,15.8596671 100.394,15.771 C100.291333,15.6823329 100.24,15.5446676 100.24,15.358 L100.24,14.364 L102.564,14.07 L103.138,9.688 C103.156667,9.5479993 103.217333,9.43366711 103.32,9.345 C103.422667,9.25633289 103.553333,9.212 103.712,9.212 L104.972,9.212 L104.972,14.098 L109.032,14.098 L109.032,15.904 L104.972,15.904 L104.972,24.416 C104.972,25.0133363 105.116665,25.4566652 105.406,25.746 C105.695335,26.0353348 106.068664,26.18 106.526,26.18 C106.787335,26.18 107.013666,26.1450004 107.205,26.075 C107.396334,26.0049996 107.561999,25.9280004 107.702,25.844 C107.842001,25.7599996 107.961,25.6830004 108.059,25.613 C108.157,25.5429996 108.243333,25.508 108.318,25.508 C108.448667,25.508 108.565333,25.5873325 108.668,25.746 L109.396,26.936 C108.966665,27.3373353 108.44867,27.6523322 107.842,27.881 C107.23533,28.1096678 106.610003,28.224 105.966,28.224 Z M112.112,28 L112.112,7.378 L114.604,7.378 L114.604,15.722 C115.21067,15.0779968 115.882663,14.5623353 116.62,14.175 C117.357337,13.7876647 118.206662,13.594 119.168,13.594 C119.942671,13.594 120.62633,13.722332 121.219,13.979 C121.81167,14.2356679 122.306331,14.5996643 122.703,15.071 C123.099669,15.5423357 123.400666,16.10933 123.606,16.772 C123.811334,17.43467 123.914,18.1673293 123.914,18.97 L123.914,28 L121.422,28 L121.422,18.97 C121.422,17.8966613 121.177002,17.0636696 120.687,16.471 C120.196998,15.8783304 119.448005,15.582 118.44,15.582 C117.702663,15.582 117.014337,15.7593316 116.375,16.114 C115.735663,16.4686684 115.145336,16.9493303 114.604,17.556 L114.604,28 L112.112,28 Z M130.452,13.818 L130.452,28 L127.96,28 L127.96,13.818 L130.452,13.818 Z M131.012,9.366 C131.012,9.60866788 130.963,9.83499895 130.865,10.045 C130.767,10.255001 130.636334,10.4416658 130.473,10.605 C130.309666,10.7683342 130.120668,10.8966662 129.906,10.99 C129.691332,11.0833338 129.462668,11.13 129.22,11.13 C128.977332,11.13 128.751001,11.0833338 128.541,10.99 C128.330999,10.8966662 128.144334,10.7683342 127.981,10.605 C127.817666,10.4416658 127.689334,10.255001 127.596,10.045 C127.502666,9.83499895 127.456,9.60866788 127.456,9.366 C127.456,9.12333212 127.502666,8.89233443 127.596,8.673 C127.689334,8.45366557 127.817666,8.26233415 127.981,8.099 C128.144334,7.93566585 128.330999,7.8073338 128.541,7.714 C128.751001,7.6206662 128.977332,7.574 129.22,7.574 C129.462668,7.574 129.691332,7.6206662 129.906,7.714 C130.120668,7.8073338 130.309666,7.93566585 130.473,8.099 C130.636334,8.26233415 130.767,8.45366557 130.865,8.673 C130.963,8.89233443 131.012,9.12333212 131.012,9.366 Z M142.968,16.156 C142.855999,16.3613344 142.683335,16.464 142.45,16.464 C142.309999,16.464 142.151334,16.4126672 141.974,16.31 C141.796666,16.2073328 141.579668,16.0930006 141.323,15.967 C141.066332,15.8409994 140.760668,15.7243339 140.406,15.617 C140.051332,15.5096661 139.631336,15.456 139.146,15.456 C138.725998,15.456 138.348002,15.5096661 138.012,15.617 C137.675998,15.7243339 137.389001,15.8713324 137.151,16.058 C136.912999,16.2446676 136.731001,16.4616654 136.605,16.709 C136.478999,16.9563346 136.416,17.2246652 136.416,17.514 C136.416,17.8780018 136.520999,18.1813321 136.731,18.424 C136.941001,18.6666679 137.218665,18.8766658 137.564,19.054 C137.909335,19.2313342 138.301331,19.387666 138.74,19.523 C139.178669,19.658334 139.628998,19.8029992 140.091,19.957 C140.553002,20.1110008 141.003331,20.2813324 141.442,20.468 C141.880669,20.6546676 142.272665,20.8879986 142.618,21.168 C142.963335,21.4480014 143.240999,21.790998 143.451,22.197 C143.661001,22.603002 143.766,23.0906638 143.766,23.66 C143.766,24.3133366 143.649335,24.9176639 143.416,25.473 C143.182665,26.0283361 142.837336,26.508998 142.38,26.915 C141.922664,27.321002 141.36267,27.6406655 140.7,27.874 C140.03733,28.1073345 139.272004,28.224 138.404,28.224 C137.414662,28.224 136.518671,28.0630016 135.716,27.741 C134.913329,27.4189984 134.232003,27.0060025 133.672,26.502 L134.26,25.55 C134.334667,25.4286661 134.423333,25.3353337 134.526,25.27 C134.628667,25.2046663 134.763999,25.172 134.932,25.172 C135.100001,25.172 135.277332,25.2373327 135.464,25.368 C135.650668,25.4986673 135.876999,25.6433325 136.143,25.802 C136.409001,25.9606675 136.730998,26.1053327 137.109,26.236 C137.487002,26.3666673 137.960664,26.432 138.53,26.432 C139.015336,26.432 139.439998,26.3690006 139.804,26.243 C140.168002,26.1169994 140.471332,25.9466677 140.714,25.732 C140.956668,25.5173323 141.136333,25.2700014 141.253,24.99 C141.369667,24.7099986 141.428,24.4113349 141.428,24.094 C141.428,23.701998 141.323001,23.3776679 141.113,23.121 C140.902999,22.8643321 140.625335,22.6450009 140.28,22.463 C139.934665,22.2809991 139.540336,22.122334 139.097,21.987 C138.653664,21.851666 138.201002,21.7093341 137.739,21.56 C137.276998,21.4106659 136.824336,21.2403343 136.381,21.049 C135.937664,20.8576657 135.543335,20.6173348 135.198,20.328 C134.852665,20.0386652 134.575001,19.6816688 134.365,19.257 C134.154999,18.8323312 134.05,18.3166697 134.05,17.71 C134.05,17.168664 134.161999,16.6483358 134.386,16.149 C134.610001,15.6496642 134.936665,15.2110019 135.366,14.833 C135.795335,14.4549981 136.322664,14.1540011 136.948,13.93 C137.573336,13.7059989 138.287329,13.594 139.09,13.594 C140.023338,13.594 140.860996,13.7409985 141.603,14.035 C142.345004,14.3290015 142.986664,14.7326641 143.528,15.246 L142.968,16.156 Z M150.976,7.938 L150.976,15.946 C150.976,16.3660021 150.969,16.7766647 150.955,17.178 C150.941,17.5793353 150.92,17.982998 150.892,18.389 C150.864,18.795002 150.829,19.2103312 150.787,19.635 C150.745,20.0596688 150.696,20.5146642 150.64,21 L148.946,21 C148.89,20.5146642 148.841,20.0596688 148.799,19.635 C148.757,19.2103312 148.722,18.795002 148.694,18.389 C148.666,17.982998 148.645,17.5793353 148.631,17.178 C148.617,16.7766647 148.61,16.3660021 148.61,15.946 L148.61,7.938 L150.976,7.938 Z M148.008,26.46 C148.008,26.2173321 148.052333,25.9886677 148.141,25.774 C148.229667,25.5593323 148.350999,25.3726675 148.505,25.214 C148.659001,25.0553325 148.843332,24.9293338 149.058,24.836 C149.272668,24.7426662 149.501332,24.696 149.744,24.696 C149.986668,24.696 150.215332,24.7426662 150.43,24.836 C150.644668,24.9293338 150.831333,25.0553325 150.99,25.214 C151.148667,25.3726675 151.272333,25.5593323 151.361,25.774 C151.449667,25.9886677 151.494,26.2173321 151.494,26.46 C151.494,26.7120013 151.449667,26.9429989 151.361,27.153 C151.272333,27.3630011 151.148667,27.5473325 150.99,27.706 C150.831333,27.8646675 150.644668,27.9883329 150.43,28.077 C150.215332,28.1656671 149.986668,28.21 149.744,28.21 C149.501332,28.21 149.272668,28.1656671 149.058,28.077 C148.843332,27.9883329 148.659001,27.8646675 148.505,27.706 C148.350999,27.5473325 148.229667,27.3630011 148.141,27.153 C148.052333,26.9429989 148.008,26.7120013 148.008,26.46 Z M170.128,20.02 L170.128,28 L167.426,28 L167.426,20.02 L160.076,7.938 L162.456,7.938 C162.698668,7.938 162.889999,7.99866606 163.03,8.12 C163.170001,8.24133394 163.291333,8.39066578 163.394,8.568 L167.986,16.366 C168.172668,16.6926683 168.328999,17.0006652 168.455,17.29 C168.581001,17.5793348 168.695333,17.8639986 168.798,18.144 C168.900667,17.8546652 169.012666,17.5653348 169.134,17.276 C169.255334,16.9866652 169.409332,16.6833349 169.596,16.366 L174.174,8.568 C174.258,8.41866592 174.372333,8.27633401 174.517,8.141 C174.661667,8.00566599 174.850666,7.938 175.084,7.938 L177.492,7.938 L170.128,20.02 Z M192.374,7.938 L192.374,10.15 L182.742,10.15 L182.742,16.814 L190.54,16.814 L190.54,18.942 L182.742,18.942 L182.742,25.788 L192.374,25.788 L192.374,28 L180.012,28 L180.012,7.938 L192.374,7.938 Z M206.556,11.074 C206.472,11.2140007 206.383334,11.3189996 206.29,11.389 C206.196666,11.4590004 206.075334,11.494 205.926,11.494 C205.767333,11.494 205.583001,11.4146675 205.373,11.256 C205.162999,11.0973325 204.897002,10.9223343 204.575,10.731 C204.252998,10.5396657 203.865669,10.3646675 203.413,10.206 C202.960331,10.0473325 202.412003,9.968 201.768,9.968 C201.16133,9.968 200.624669,10.0496659 200.158,10.213 C199.691331,10.3763341 199.301668,10.5979986 198.989,10.878 C198.676332,11.1580014 198.440667,11.4869981 198.282,11.865 C198.123333,12.2430019 198.044,12.6513311 198.044,13.09 C198.044,13.6500028 198.181665,14.1143315 198.457,14.483 C198.732335,14.8516685 199.096331,15.1666654 199.549,15.428 C200.001669,15.6893346 200.514997,15.9156657 201.089,16.107 C201.663003,16.2983343 202.250997,16.4966656 202.853,16.702 C203.455003,16.9073344 204.042997,17.138332 204.617,17.395 C205.191003,17.651668 205.704331,17.975998 206.157,18.368 C206.609669,18.760002 206.973665,19.2406638 207.249,19.81 C207.524335,20.3793362 207.662,21.0793292 207.662,21.91 C207.662,22.7873377 207.512668,23.6109961 207.214,24.381 C206.915332,25.1510038 206.479003,25.8206638 205.905,26.39 C205.330997,26.9593362 204.626338,27.4073317 203.791,27.734 C202.955662,28.0606683 202.006005,28.224 200.942,28.224 C199.64466,28.224 198.461672,27.9883357 197.393,27.517 C196.324328,27.0456643 195.412004,26.4086707 194.656,25.606 L195.44,24.318 C195.514667,24.2153328 195.605666,24.1290003 195.713,24.059 C195.820334,23.9889997 195.939333,23.954 196.07,23.954 C196.266001,23.954 196.489999,24.058999 196.742,24.269 C196.994001,24.4790011 197.308998,24.7099987 197.687,24.962 C198.065002,25.2140013 198.522331,25.4449989 199.059,25.655 C199.595669,25.8650011 200.251329,25.97 201.026,25.97 C201.670003,25.97 202.243997,25.8813342 202.748,25.704 C203.252003,25.5266658 203.678998,25.2770016 204.029,24.955 C204.379002,24.6329984 204.647332,24.2480022 204.834,23.8 C205.020668,23.3519978 205.114,22.8526694 205.114,22.302 C205.114,21.6953303 204.976335,21.1983353 204.701,20.811 C204.425665,20.4236647 204.064002,20.0993346 203.616,19.838 C203.167998,19.5766654 202.657003,19.3550009 202.083,19.173 C201.508997,18.9909991 200.921003,18.8043343 200.319,18.613 C199.716997,18.4216657 199.129003,18.2000013 198.555,17.948 C197.980997,17.6959987 197.470002,17.3693353 197.022,16.968 C196.573998,16.5666647 196.212335,16.065003 195.937,15.463 C195.661665,14.860997 195.524,14.1166711 195.524,13.23 C195.524,12.5206631 195.661665,11.83467 195.937,11.172 C196.212335,10.50933 196.611331,9.9213359 197.134,9.408 C197.656669,8.8946641 198.302996,8.48400154 199.073,8.176 C199.843004,7.86799846 200.727328,7.714 201.726,7.714 C202.846006,7.714 203.867995,7.89133156 204.792,8.246 C205.716005,8.60066844 206.52333,9.11399664 207.214,9.786 L206.556,11.074 Z"></path>
            </g>
            <g id="NO,-Maybe-not-now" transform="translate(460.000000, 43.000000)">
                <path d="M1.836,0.938 C2.07866788,0.938 2.25833275,0.96833303 2.375,1.029 C2.49166725,1.08966697 2.62466592,1.2133324 2.774,1.4 L14.394,16.52 C14.3659999,16.2773321 14.3473334,16.0416678 14.338,15.813 C14.3286666,15.5843322 14.324,15.3626677 14.324,15.148 L14.324,0.938 L16.704,0.938 L16.704,21 L15.332,21 C15.1173323,21 14.9376674,20.962667 14.793,20.888 C14.6483326,20.813333 14.5060007,20.6873342 14.366,20.51 L2.76,5.404 C2.77866676,5.6373345 2.79266662,5.86599888 2.802,6.09 C2.81133338,6.31400112 2.816,6.5193324 2.816,6.706 L2.816,21 L0.436,21 L0.436,0.938 L1.836,0.938 Z M40.238,10.976 C40.238,12.4786742 40.0000024,13.8576604 39.524,15.113 C39.0479976,16.3683396 38.3760043,17.4486621 37.508,18.354 C36.6399957,19.2593379 35.5970061,19.9616642 34.379,20.461 C33.1609939,20.9603358 31.814674,21.21 30.34,21.21 C28.865326,21.21 27.5213394,20.9603358 26.308,20.461 C25.0946606,19.9616642 24.0540043,19.2593379 23.186,18.354 C22.3179957,17.4486621 21.6460024,16.3683396 21.17,15.113 C20.6939976,13.8576604 20.456,12.4786742 20.456,10.976 C20.456,9.47332582 20.6939976,8.09433961 21.17,6.839 C21.6460024,5.58366039 22.3179957,4.50100455 23.186,3.591 C24.0540043,2.68099545 25.0946606,1.97400252 26.308,1.47 C27.5213394,0.96599748 28.865326,0.714 30.34,0.714 C31.814674,0.714 33.1609939,0.96599748 34.379,1.47 C35.5970061,1.97400252 36.6399957,2.68099545 37.508,3.591 C38.3760043,4.50100455 39.0479976,5.58366039 39.524,6.839 C40.0000024,8.09433961 40.238,9.47332582 40.238,10.976 Z M37.452,10.976 C37.452,9.74399384 37.2840017,8.6380049 36.948,7.658 C36.6119983,6.6779951 36.1360031,5.84967005 35.52,5.173 C34.9039969,4.49632995 34.1573377,3.97600182 33.28,3.612 C32.4026623,3.24799818 31.4226721,3.066 30.34,3.066 C29.2666613,3.066 28.2913377,3.24799818 27.414,3.612 C26.5366623,3.97600182 25.7876698,4.49632995 25.167,5.173 C24.5463302,5.84967005 24.0680017,6.6779951 23.732,7.658 C23.3959983,8.6380049 23.228,9.74399384 23.228,10.976 C23.228,12.2080062 23.3959983,13.3116618 23.732,14.287 C24.0680017,15.2623382 24.5463302,16.08833 25.167,16.765 C25.7876698,17.44167 26.5366623,17.9596649 27.414,18.319 C28.2913377,18.6783351 29.2666613,18.858 30.34,18.858 C31.4226721,18.858 32.4026623,18.6783351 33.28,18.319 C34.1573377,17.9596649 34.9039969,17.44167 35.52,16.765 C36.1360031,16.08833 36.6119983,15.2623382 36.948,14.287 C37.2840017,13.3116618 37.452,12.2080062 37.452,10.976 Z M42.044,19.278 C42.044,19.0633323 42.0836663,18.8603343 42.163,18.669 C42.2423337,18.4776657 42.3543326,18.3096674 42.499,18.165 C42.6436674,18.0203326 42.8186656,17.9060004 43.024,17.822 C43.2293344,17.7379996 43.4533321,17.696 43.696,17.696 C43.9760014,17.696 44.2256656,17.7473328 44.445,17.85 C44.6643344,17.9526672 44.8463326,18.0949991 44.991,18.277 C45.1356674,18.4590009 45.245333,18.6689988 45.32,18.907 C45.394667,19.1450012 45.432,19.4039986 45.432,19.684 C45.432,20.1040021 45.3713339,20.5403311 45.25,20.993 C45.1286661,21.4456689 44.9560011,21.8936644 44.732,22.337 C44.5079989,22.7803356 44.230335,23.2119979 43.899,23.632 C43.567665,24.0520021 43.1920021,24.4393316 42.772,24.794 L42.352,24.388 C42.2306661,24.2759994 42.17,24.1453341 42.17,23.996 C42.17,23.8746661 42.2353327,23.7486673 42.366,23.618 C42.4593338,23.5153328 42.5783326,23.3776675 42.723,23.205 C42.8676674,23.0323325 43.0146659,22.8340011 43.164,22.61 C43.3133341,22.3859989 43.4509994,22.138668 43.577,21.868 C43.7030006,21.597332 43.7939997,21.3080015 43.85,21 L43.668,21 C43.4253321,21 43.206001,20.9580004 43.01,20.874 C42.813999,20.7899996 42.6436674,20.6710008 42.499,20.517 C42.3543326,20.3629992 42.2423337,20.181001 42.163,19.971 C42.0836663,19.760999 42.044,19.5300013 42.044,19.278 Z" id="NO," fill="#D0021B"></path>
                <path d="M63.97,13.748 C64.1006673,13.9720011 64.2149995,14.2076654 64.313,14.455 C64.4110005,14.7023346 64.5066662,14.9519987 64.6,15.204 C64.6933338,14.9426654 64.7913328,14.6930012 64.894,14.455 C64.9966672,14.2169988 65.1133327,13.9766679 65.244,13.734 L72.034,1.4 C72.1553339,1.18533226 72.2813327,1.0546669 72.412,1.008 C72.5426673,0.9613331 72.7293321,0.938 72.972,0.938 L74.974,0.938 L74.974,21 L72.594,21 L72.594,6.258 C72.594,6.06199902 72.5986666,5.85200112 72.608,5.628 C72.6173334,5.40399888 72.6313332,5.1753345 72.65,4.942 L65.776,17.486 C65.5426655,17.9060021 65.2160021,18.116 64.796,18.116 L64.404,18.116 C63.9839979,18.116 63.6573345,17.9060021 63.424,17.486 L56.396,4.9 C56.4240001,5.14266788 56.4449999,5.3806655 56.459,5.614 C56.4730001,5.8473345 56.48,6.06199902 56.48,6.258 L56.48,21 L54.1,21 L54.1,0.938 L56.102,0.938 C56.3446679,0.938 56.5313327,0.9613331 56.662,1.008 C56.7926673,1.0546669 56.9186661,1.18533226 57.04,1.4 L63.97,13.748 Z M89.884,21 L88.778,21 C88.5353321,21 88.3393341,20.962667 88.19,20.888 C88.0406659,20.813333 87.9426669,20.6546679 87.896,20.412 L87.616,19.096 C87.2426648,19.4320017 86.8786684,19.7329987 86.524,19.999 C86.1693316,20.2650013 85.796002,20.4889991 85.404,20.671 C85.011998,20.8530009 84.5943356,20.9906662 84.151,21.084 C83.7076645,21.1773338 83.215336,21.224 82.674,21.224 C82.1233306,21.224 81.6076691,21.1470008 81.127,20.993 C80.6463309,20.8389992 80.2286684,20.6080015 79.874,20.3 C79.5193316,19.9919985 79.2370011,19.6023357 79.027,19.131 C78.816999,18.6596643 78.712,18.1020032 78.712,17.458 C78.712,16.8979972 78.8659985,16.3590026 79.174,15.841 C79.4820015,15.3229974 79.9789966,14.8633353 80.665,14.462 C81.3510034,14.0606647 82.2493278,13.7316679 83.36,13.475 C84.4706722,13.2183321 85.8286586,13.0713335 87.434,13.034 L87.434,11.928 C87.434,10.8266612 87.1983357,9.99366949 86.727,9.429 C86.2556643,8.86433051 85.5580046,8.582 84.634,8.582 C84.0273303,8.582 83.5163354,8.65899923 83.101,8.813 C82.6856646,8.96700077 82.3263349,9.13966571 82.023,9.331 C81.7196652,9.52233429 81.4583344,9.69499923 81.239,9.849 C81.0196656,10.0030008 80.8026677,10.08 80.588,10.08 C80.4199992,10.08 80.2730006,10.0356671 80.147,9.947 C80.0209994,9.85833289 79.920667,9.74866732 79.846,9.618 L79.398,8.82 C80.1820039,8.06399622 81.0266621,7.4993352 81.932,7.126 C82.8373379,6.7526648 83.8406612,6.566 84.942,6.566 C85.7353373,6.566 86.4399969,6.69666536 87.056,6.958 C87.6720031,7.21933464 88.1899979,7.583331 88.61,8.05 C89.0300021,8.516669 89.3473323,9.08133002 89.562,9.744 C89.7766677,10.40667 89.884,11.1346627 89.884,11.928 L89.884,21 Z M83.416,19.474 C83.8546689,19.474 84.2559982,19.4296671 84.62,19.341 C84.9840018,19.2523329 85.3269984,19.1263342 85.649,18.963 C85.9710016,18.7996659 86.2789985,18.6013345 86.573,18.368 C86.8670015,18.1346655 87.1539986,17.8686682 87.434,17.57 L87.434,14.616 C86.2859943,14.6533335 85.3106707,14.7443326 84.508,14.889 C83.7053293,15.0336674 83.0520025,15.2226655 82.548,15.456 C82.0439975,15.6893345 81.6776678,15.9646651 81.449,16.282 C81.2203322,16.5993349 81.106,16.953998 81.106,17.346 C81.106,17.7193352 81.1666661,18.041332 81.288,18.312 C81.4093339,18.582668 81.5726656,18.8043325 81.778,18.977 C81.9833344,19.1496675 82.2259986,19.2756663 82.506,19.355 C82.7860014,19.4343337 83.0893317,19.474 83.416,19.474 Z M97.374,25.186 C97.2899996,25.3726676 97.1850006,25.5219994 97.059,25.634 C96.9329994,25.7460006 96.7393346,25.802 96.478,25.802 L94.63,25.802 L97.22,20.174 L91.368,6.818 L93.524,6.818 C93.7386677,6.818 93.9066661,6.87166613 94.028,6.979 C94.1493339,7.08633387 94.2379997,7.20533268 94.294,7.336 L98.088,16.268 C98.1720004,16.4733344 98.244333,16.6786656 98.305,16.884 C98.365667,17.0893344 98.4193331,17.2993323 98.466,17.514 C98.5313337,17.2993323 98.5966663,17.0893344 98.662,16.884 C98.7273337,16.6786656 98.8019996,16.4686677 98.886,16.254 L102.568,7.336 C102.624,7.18666592 102.719666,7.06300049 102.855,6.965 C102.990334,6.86699951 103.137333,6.818 103.296,6.818 L105.284,6.818 L97.374,25.186 Z M107.636,21 L107.636,0.378 L110.142,0.378 L110.142,8.862 C110.730003,8.18066326 111.40433,7.63233541 112.165,7.217 C112.92567,6.80166459 113.795995,6.594 114.776,6.594 C115.597337,6.594 116.33933,6.74799846 117.002,7.056 C117.66467,7.36400154 118.229331,7.82366361 118.696,8.435 C119.162669,9.04633639 119.521999,9.80232883 119.774,10.703 C120.026001,11.6036712 120.152,12.6419941 120.152,13.818 C120.152,14.8633386 120.012001,15.8363288 119.732,16.737 C119.451999,17.6376712 119.048336,18.4169967 118.521,19.075 C117.993664,19.7330033 117.34967,20.2509981 116.589,20.629 C115.82833,21.0070019 114.972005,21.196 114.02,21.196 C113.105329,21.196 112.328337,21.0186684 111.689,20.664 C111.049663,20.3093316 110.492002,19.8146698 110.016,19.18 L109.89,20.468 C109.815333,20.8226684 109.600668,21 109.246,21 L107.636,21 Z M113.964,8.582 C113.151996,8.582 112.440336,8.7686648 111.829,9.142 C111.217664,9.5153352 110.655336,10.0426633 110.142,10.724 L110.142,17.584 C110.590002,18.2000031 111.086997,18.6339987 111.633,18.886 C112.179003,19.1380013 112.787997,19.264 113.46,19.264 C114.78534,19.264 115.802663,18.7926714 116.512,17.85 C117.221337,16.9073286 117.576,15.5633421 117.576,13.818 C117.576,12.8939954 117.494334,12.10067 117.331,11.438 C117.167666,10.77533 116.932002,10.2316688 116.624,9.807 C116.315998,9.38233121 115.938002,9.07200098 115.49,8.876 C115.041998,8.67999902 114.533336,8.582 113.964,8.582 Z M128.818,6.594 C129.667338,6.594 130.45133,6.73633191 131.17,7.021 C131.88867,7.30566809 132.509331,7.71633065 133.032,8.253 C133.554669,8.78966935 133.962999,9.45232939 134.257,10.241 C134.551001,11.0296706 134.698,11.927995 134.698,12.936 C134.698,13.328002 134.656,13.5893327 134.572,13.72 C134.488,13.8506673 134.329335,13.916 134.096,13.916 L124.66,13.916 C124.678667,14.8120045 124.799999,15.59133 125.024,16.254 C125.248001,16.91667 125.555998,17.4696644 125.948,17.913 C126.340002,18.3563356 126.806664,18.6876656 127.348,18.907 C127.889336,19.1263344 128.495997,19.236 129.168,19.236 C129.793336,19.236 130.332331,19.1636674 130.785,19.019 C131.237669,18.8743326 131.627332,18.7180008 131.954,18.55 C132.280668,18.3819992 132.553666,18.2256674 132.773,18.081 C132.992334,17.9363326 133.181333,17.864 133.34,17.864 C133.545334,17.864 133.703999,17.9433325 133.816,18.102 L134.516,19.012 C134.207998,19.3853352 133.839335,19.7096653 133.41,19.985 C132.980665,20.2603347 132.521002,20.4866658 132.031,20.664 C131.540998,20.8413342 131.034669,20.9743329 130.512,21.063 C129.989331,21.1516671 129.471336,21.196 128.958,21.196 C127.977995,21.196 127.075004,21.030335 126.249,20.699 C125.422996,20.367665 124.709003,19.8823365 124.107,19.243 C123.504997,18.6036635 123.036002,17.8126714 122.7,16.87 C122.363998,15.9273286 122.196,14.8446728 122.196,13.622 C122.196,12.6326617 122.347665,11.708671 122.651,10.85 C122.954335,9.99132904 123.390664,9.24700315 123.96,8.617 C124.529336,7.98699685 125.224663,7.49233513 126.046,7.133 C126.867337,6.77366487 127.791328,6.594 128.818,6.594 Z M128.874,8.428 C127.669994,8.428 126.72267,8.77566319 126.032,9.471 C125.34133,10.1663368 124.912001,11.1299938 124.744,12.362 L132.458,12.362 C132.458,11.7833304 132.378667,11.2536691 132.22,10.773 C132.061333,10.2923309 131.828002,9.87700175 131.52,9.527 C131.211998,9.17699825 130.836336,8.90633429 130.393,8.715 C129.949664,8.52366571 129.443336,8.428 128.874,8.428 Z M143.28,21 L143.28,6.818 L144.764,6.818 C145.118668,6.818 145.342666,6.99066494 145.436,7.336 L145.632,8.876 C146.248003,8.19466326 146.93633,7.6440021 147.697,7.224 C148.45767,6.8039979 149.337328,6.594 150.336,6.594 C151.110671,6.594 151.79433,6.72233205 152.387,6.979 C152.97967,7.23566795 153.474331,7.59966431 153.871,8.071 C154.267669,8.54233569 154.568666,9.10933002 154.774,9.772 C154.979334,10.43467 155.082,11.1673293 155.082,11.97 L155.082,21 L152.59,21 L152.59,11.97 C152.59,10.8966613 152.345002,10.0636696 151.855,9.471 C151.364998,8.87833037 150.616005,8.582 149.608,8.582 C148.870663,8.582 148.182337,8.75933156 147.543,9.114 C146.903663,9.46866844 146.313336,9.9493303 145.772,10.556 L145.772,21 L143.28,21 Z M164.588,6.594 C165.624005,6.594 166.559662,6.76666494 167.395,7.112 C168.230338,7.45733506 168.939664,7.94733016 169.523,8.582 C170.106336,9.21666984 170.554332,9.98432883 170.867,10.885 C171.179668,11.7856712 171.336,12.7913278 171.336,13.902 C171.336,15.0220056 171.179668,16.0299955 170.867,16.926 C170.554332,17.8220045 170.106336,18.5873302 169.523,19.222 C168.939664,19.8566698 168.230338,20.3443316 167.395,20.685 C166.559662,21.0256684 165.624005,21.196 164.588,21.196 C163.551995,21.196 162.616338,21.0256684 161.781,20.685 C160.945662,20.3443316 160.234003,19.8566698 159.646,19.222 C159.057997,18.5873302 158.605335,17.8220045 158.288,16.926 C157.970665,16.0299955 157.812,15.0220056 157.812,13.902 C157.812,12.7913278 157.970665,11.7856712 158.288,10.885 C158.605335,9.98432883 159.057997,9.21666984 159.646,8.582 C160.234003,7.94733016 160.945662,7.45733506 161.781,7.112 C162.616338,6.76666494 163.551995,6.594 164.588,6.594 Z M164.588,19.25 C165.988007,19.25 167.03333,18.7810047 167.724,17.843 C168.41467,16.9049953 168.76,15.5960084 168.76,13.916 C168.76,12.2266582 168.41467,10.9106714 167.724,9.968 C167.03333,9.02532862 165.988007,8.554 164.588,8.554 C163.878663,8.554 163.262669,8.67533212 162.74,8.918 C162.217331,9.16066788 161.781002,9.51066438 161.431,9.968 C161.080998,10.4253356 160.819668,10.9876633 160.647,11.655 C160.474332,12.3223367 160.388,13.0759958 160.388,13.916 C160.388,14.7560042 160.474332,15.50733 160.647,16.17 C160.819668,16.83267 161.080998,17.3903311 161.431,17.843 C161.781002,18.2956689 162.217331,18.6433321 162.74,18.886 C163.262669,19.1286679 163.878663,19.25 164.588,19.25 Z M178.714,21.224 C177.593994,21.224 176.733003,20.9113365 176.131,20.286 C175.528997,19.6606635 175.228,18.7600059 175.228,17.584 L175.228,8.904 L173.52,8.904 C173.370666,8.904 173.244667,8.85966711 173.142,8.771 C173.039333,8.68233289 172.988,8.5446676 172.988,8.358 L172.988,7.364 L175.312,7.07 L175.886,2.688 C175.904667,2.5479993 175.965333,2.43366711 176.068,2.345 C176.170667,2.25633289 176.301333,2.212 176.46,2.212 L177.72,2.212 L177.72,7.098 L181.78,7.098 L181.78,8.904 L177.72,8.904 L177.72,17.416 C177.72,18.0133363 177.864665,18.4566652 178.154,18.746 C178.443335,19.0353348 178.816664,19.18 179.274,19.18 C179.535335,19.18 179.761666,19.1450004 179.953,19.075 C180.144334,19.0049996 180.309999,18.9280004 180.45,18.844 C180.590001,18.7599996 180.709,18.6830004 180.807,18.613 C180.905,18.5429996 180.991333,18.508 181.066,18.508 C181.196667,18.508 181.313333,18.5873325 181.416,18.746 L182.144,19.936 C181.714665,20.3373353 181.19667,20.6523322 180.59,20.881 C179.98333,21.1096678 179.358003,21.224 178.714,21.224 Z M190.264,21 L190.264,6.818 L191.748,6.818 C192.102668,6.818 192.326666,6.99066494 192.42,7.336 L192.616,8.876 C193.232003,8.19466326 193.92033,7.6440021 194.681,7.224 C195.44167,6.8039979 196.321328,6.594 197.32,6.594 C198.094671,6.594 198.77833,6.72233205 199.371,6.979 C199.96367,7.23566795 200.458331,7.59966431 200.855,8.071 C201.251669,8.54233569 201.552666,9.10933002 201.758,9.772 C201.963334,10.43467 202.066,11.1673293 202.066,11.97 L202.066,21 L199.574,21 L199.574,11.97 C199.574,10.8966613 199.329002,10.0636696 198.839,9.471 C198.348998,8.87833037 197.600005,8.582 196.592,8.582 C195.854663,8.582 195.166337,8.75933156 194.527,9.114 C193.887663,9.46866844 193.297336,9.9493303 192.756,10.556 L192.756,21 L190.264,21 Z M211.572,6.594 C212.608005,6.594 213.543662,6.76666494 214.379,7.112 C215.214338,7.45733506 215.923664,7.94733016 216.507,8.582 C217.090336,9.21666984 217.538332,9.98432883 217.851,10.885 C218.163668,11.7856712 218.32,12.7913278 218.32,13.902 C218.32,15.0220056 218.163668,16.0299955 217.851,16.926 C217.538332,17.8220045 217.090336,18.5873302 216.507,19.222 C215.923664,19.8566698 215.214338,20.3443316 214.379,20.685 C213.543662,21.0256684 212.608005,21.196 211.572,21.196 C210.535995,21.196 209.600338,21.0256684 208.765,20.685 C207.929662,20.3443316 207.218003,19.8566698 206.63,19.222 C206.041997,18.5873302 205.589335,17.8220045 205.272,16.926 C204.954665,16.0299955 204.796,15.0220056 204.796,13.902 C204.796,12.7913278 204.954665,11.7856712 205.272,10.885 C205.589335,9.98432883 206.041997,9.21666984 206.63,8.582 C207.218003,7.94733016 207.929662,7.45733506 208.765,7.112 C209.600338,6.76666494 210.535995,6.594 211.572,6.594 Z M211.572,19.25 C212.972007,19.25 214.01733,18.7810047 214.708,17.843 C215.39867,16.9049953 215.744,15.5960084 215.744,13.916 C215.744,12.2266582 215.39867,10.9106714 214.708,9.968 C214.01733,9.02532862 212.972007,8.554 211.572,8.554 C210.862663,8.554 210.246669,8.67533212 209.724,8.918 C209.201331,9.16066788 208.765002,9.51066438 208.415,9.968 C208.064998,10.4253356 207.803668,10.9876633 207.631,11.655 C207.458332,12.3223367 207.372,13.0759958 207.372,13.916 C207.372,14.7560042 207.458332,15.50733 207.631,16.17 C207.803668,16.83267 208.064998,17.3903311 208.415,17.843 C208.765002,18.2956689 209.201331,18.6433321 209.724,18.886 C210.246669,19.1286679 210.862663,19.25 211.572,19.25 Z M219.552,6.818 L221.512,6.818 C221.717334,6.818 221.885333,6.86933282 222.016,6.972 C222.146667,7.07466718 222.235333,7.1959993 222.282,7.336 L224.998,16.464 C225.072667,16.8000017 225.142666,17.1243318 225.208,17.437 C225.273334,17.7496682 225.329333,18.0646651 225.376,18.382 C225.450667,18.0646651 225.534666,17.7496682 225.628,17.437 C225.721334,17.1243318 225.819333,16.8000017 225.922,16.464 L228.918,7.28 C228.964667,7.1399993 229.046333,7.0233338 229.163,6.93 C229.279667,6.8366662 229.426666,6.79 229.604,6.79 L230.682,6.79 C230.868668,6.79 231.022666,6.8366662 231.144,6.93 C231.265334,7.0233338 231.349333,7.1399993 231.396,7.28 L234.322,16.464 C234.424667,16.7906683 234.515666,17.1126651 234.595,17.43 C234.674334,17.7473349 234.751333,18.0599985 234.826,18.368 C234.872667,18.0599985 234.933333,17.7380017 235.008,17.402 C235.082667,17.0659983 235.162,16.7533348 235.246,16.464 L238.018,7.336 C238.064667,7.18666592 238.153333,7.06300049 238.284,6.965 C238.414667,6.86699951 238.568666,6.818 238.746,6.818 L240.622,6.818 L236.03,21 L234.056,21 C233.813332,21 233.645334,20.8413349 233.552,20.524 L230.416,10.906 C230.341333,10.6913323 230.280667,10.4743344 230.234,10.255 C230.187333,10.0356656 230.140667,9.81866774 230.094,9.604 C230.047333,9.81866774 230.000667,10.0379989 229.954,10.262 C229.907333,10.4860011 229.846667,10.7053323 229.772,10.92 L226.594,20.524 C226.491333,20.8413349 226.300001,21 226.02,21 L224.144,21 L219.552,6.818 Z" id="Maybe-not-now" fill="#000000"></path>
            </g>
            <g id="Group-2" transform="translate(341.000000, 25.000000)" fill-rule="nonzero" stroke="#979797">
                <path d="M27,0 L72,0 C86.9116882,-2.73923269e-15 99,12.0883118 99,27 C99,41.9116882 86.9116882,54 72,54 L27,54 C12.0883118,54 -5.27927223e-15,41.9116882 -7.10542736e-15,27 C-8.93158249e-15,12.0883118 12.0883118,2.73923269e-15 27,0 Z" id="Rectangle-3" fill="#FFFFFF"></path>
                <circle id="Oval-2-Copy-4" fill="url(#linearGradient-1)" cx="69.5" cy="27.5" r="22.5"></circle>
            </g>
        </g>
    </g>
</svg>