<?xml version="1.0" encoding="UTF-8" standalone="no"?>
<svg width="100px" height="90px" viewBox="0 0 100 90" version="1.1" xmlns="http://www.w3.org/2000/svg" xmlns:xlink="http://www.w3.org/1999/xlink">
    <!-- Generator: Sketch 48.2 (47327) - http://www.bohemiancoding.com/sketch -->
    <title>Not_Employed</title>
    <desc>Created with Sketch.</desc>
    <defs></defs>
    <g id="Page3" stroke="none" stroke-width="1" fill="none" fill-rule="evenodd" transform="translate(-814.000000, -153.000000)">
        <g id="Not_Employed" transform="translate(813.000000, 154.000000)">
            <text id="Not-Employed" font-family="Lato-Bold, Lato" font-size="16" font-weight="bold" fill="#333333">
                <tspan x="0.368" y="86">Not Employed</tspan>
            </text>
            <g id="Page-1" opacity="0.5" transform="translate(27.000000, 0.000000)" fill="#FFFFFF" stroke="#000000">
                <path d="M20.4775059,25.7929772 C17.5274314,25.7929772 15.0949989,23.6011066 14.7040221,20.7585444 L12.5673122,20.7585444 C12.4564801,20.7585444 12.3466695,20.7646733 12.2381358,20.7756544 C11.4886146,20.8088529 10.3412215,20.9962971 9.05439455,21.6449457 C6.852309,22.7371781 4.47708023,25.1264524 2.81613109,29.3595233 C1.13475207,33.6086827 0.00600127687,39.7537348 -0.000127686742,49.0314535 C0.000893807193,51.4296659 0.0772504788,54.0367738 0.244520111,56.8762715 C0.347180251,58.6163865 1.79004043,59.9591402 3.51100234,59.959651 C3.57586721,59.959651 3.64098744,59.957608 3.7068738,59.9537774 C5.51287508,59.8480528 6.8908704,58.2976804 6.7848904,56.4921898 C6.62477123,53.7693977 6.55198979,51.2889551 6.55275591,49.0319642 C6.53845499,39.1175995 7.98386891,33.5466269 9.40400085,30.6397106 L9.40400085,49.5368376 C10.0743562,49.670398 11.3402426,49.9130028 12.8857629,50.1566291 C15.1912747,50.5197702 18.1071292,50.881379 20.4777612,50.8801021 C22.8483933,50.8808683 25.7647585,50.5197702 28.0695041,50.1566291 C29.6152798,49.9130028 30.8814216,49.6709087 31.5515216,49.537093 L31.5515216,30.6568206 C31.7943818,31.1547989 32.0387742,31.7260694 32.2806129,32.3923388 C33.4343903,35.5914024 34.4050649,40.8395829 34.4014897,49.0309428 C34.4014897,51.2889551 34.329219,53.7699085 34.170632,56.4932113 C34.0643967,58.2992126 35.4434135,59.8483082 37.2501809,59.9537774 C37.3147904,59.957608 37.3793999,59.959651 37.4432432,59.959651 C39.165482,59.959651 40.6088529,58.6158757 40.7102362,56.8742286 C40.8752075,54.0357523 40.9520749,51.4286444 40.9520749,49.0309428 C40.935731,36.6731645 38.9619494,29.8337519 36.2705682,25.7209619 C34.9257714,23.6789955 33.35216,22.3704618 31.897808,21.6452011 C30.6127687,20.9968078 29.4686955,20.8091083 28.7186635,20.7756544 C28.6093637,20.7641626 28.498787,20.7580336 28.3864226,20.7580336 L26.2504788,20.7580336 C25.8600128,23.6011066 23.4275803,25.7929772 20.4775059,25.7929772" id="Fill-1"></path>
                <path d="M20.4775059,2.55373484e-05 C25.5653118,2.55373484e-05 29.6898489,4.12456267 29.6898489,9.21262396 C29.6898489,14.3004299 25.5653118,18.424967 20.4775059,18.424967 C15.3894446,18.424967 11.2649074,14.3004299 11.2649074,9.21262396 C11.2649074,4.12456267 15.3894446,2.55373484e-05 20.4775059,2.55373484e-05" id="Fill-7"></path>
            </g>
        </g>
    </g>
</svg>