<?xml version="1.0" encoding="UTF-8" standalone="no"?>
<svg width="31px" height="35px" viewBox="0 0 31 35" version="1.1" xmlns="http://www.w3.org/2000/svg" xmlns:xlink="http://www.w3.org/1999/xlink">
    <!-- Generator: Sketch 48.2 (47327) - http://www.bohemiancoding.com/sketch -->
    <title>OneMinutePlanICON</title>
    <desc>Created with Sketch.</desc>
    <defs>
        <polygon id="path-1" points="29.3480958 33.8957958 0 33.8957958 0 0.0141373715 29.3480958 0.0141373715 29.3480958 33.8957958"></polygon>
    </defs>
    <g id="Home-Page-Option-1" stroke="none" stroke-width="1" fill="none" fill-rule="evenodd" transform="translate(-818.000000, -286.000000)" opacity="0.5">
        <g id="Group-5" transform="translate(37.000000, 279.000000)">
            <g id="OneMinutePlanICON" transform="translate(781.892880, 7.638030)">
                <path d="M14.6740408,18.1483881 C14.0509231,18.1483881 13.544181,18.6551303 13.544181,19.278248 C13.544181,19.9013657 14.0509231,20.4081079 14.6740408,20.4081079 C15.2971585,20.4081079 15.8039007,19.9013657 15.8039007,19.278248 C15.8039007,18.6551303 15.2971585,18.1483881 14.6740408,18.1483881" id="Fill-1" fill="#333333"></path>
                <g id="Group-5" transform="translate(0.000000, 0.056493)">
                    <mask id="mask-2" fill="white">
                        <use xlink:href="#path-1"></use>
                    </mask>
                    <g id="Clip-4"></g>
                    <path d="M26.5375694,19.221755 C26.5375694,18.9093488 26.790658,18.6568251 27.1024993,18.6568251 L29.3480958,18.6568251 C29.225506,15.4355946 28.0594906,12.4787514 26.1816635,10.11113 L27.0573049,9.2349237 L27.4567104,9.63432916 C27.5674366,9.74505542 27.7120587,9.79985363 27.8561158,9.79985363 C28.0007379,9.79985363 28.1453599,9.74505542 28.2560862,9.63432916 L28.6843031,9.20611227 C29.5492108,8.34120455 29.5492108,6.93339916 28.6843031,6.06849144 L27.8273044,5.21149273 C26.9895133,4.37313672 25.5280396,4.37313672 24.6896836,5.21149273 L24.2614667,5.63970962 C24.1552598,5.74591645 24.0959422,5.88884372 24.0959422,6.03911508 C24.0959422,6.18882151 24.1552598,6.33287864 24.2614667,6.43852054 L24.6608721,6.83849093 L23.7852307,7.71413232 C21.6966848,6.05719284 19.1505456,4.9561444 16.3688306,4.63469927 L16.3688306,3.40371695 L17.4986905,3.40371695 C17.8105318,3.40371695 18.0636204,3.15119328 18.0636204,2.83878702 L18.0636204,0.579067302 C18.0636204,0.26666105 17.8105318,0.0141373715 17.4986905,0.0141373715 L11.8493912,0.0141373715 C11.5375498,0.0141373715 11.2844612,0.26666105 11.2844612,0.579067302 L11.2844612,2.83878702 C11.2844612,3.15119328 11.5375498,3.40371695 11.8493912,3.40371695 L12.979251,3.40371695 L12.979251,4.63469927 C10.1975361,4.9561444 7.65139686,6.05719284 5.5628509,7.71413232 L4.68720951,6.83849093 L5.08661497,6.43852054 C5.1928218,6.33287864 5.25213944,6.18882151 5.25213944,6.03911508 C5.25213944,5.88884372 5.1928218,5.74591645 5.08661497,5.63970962 L4.64596963,5.19906427 C3.78727613,4.33980585 2.39076934,4.33980585 1.53320571,5.19906427 L0.651350087,6.0809199 C-0.206778478,6.93904846 -0.206778478,8.33555525 0.651350087,9.19368381 L1.09199543,9.63432916 C1.2027217,9.74505542 1.34734376,9.79985363 1.49196582,9.79985363 C1.63602296,9.79985363 1.78064502,9.74505542 1.89137128,9.63432916 L2.29077674,9.2349237 L3.16641814,10.11113 C1.28859105,12.4787514 0.122575672,15.4355946 -1.41232482e-05,18.6568251 L2.24558235,18.6568251 C2.55742367,18.6568251 2.81051228,18.9093488 2.81051228,19.221755 C2.81051228,19.5341613 2.55742367,19.7866849 2.24558235,19.7866849 L-1.41232482e-05,19.7866849 C0.13839371,23.4106398 1.59365321,26.7019922 3.90308677,29.1938981 L5.8006864,27.2962985 C6.02157401,27.0754109 6.37860972,27.0754109 6.59949732,27.2962985 C6.82038493,27.5171861 6.82038493,27.8742218 6.59949732,28.0951094 L4.70189769,29.9927091 C7.19380361,32.302072 10.4850854,33.7574021 14.1091109,33.89581 L14.1091109,31.6502135 C14.1091109,31.3378072 14.3621995,31.0852835 14.6740408,31.0852835 C14.9858821,31.0852835 15.2389708,31.3378072 15.2389708,31.6502135 L15.2389708,33.89581 C18.8629963,33.7574021 22.154278,32.302072 24.646184,29.9927091 L22.7485843,28.0951094 C22.5276967,27.8742218 22.5276967,27.5171861 22.7485843,27.2962985 C22.9694719,27.0754109 23.3265076,27.0754109 23.5473952,27.2962985 L25.4449949,29.1938981 C27.7544284,26.7019922 29.2096879,23.4106398 29.3480958,19.7866849 L27.1024993,19.7866849 C26.790658,19.7866849 26.5375694,19.5341613 26.5375694,19.221755 L26.5375694,19.221755 Z M14.1091109,5.67755992 C14.4960879,5.65891724 14.8519937,5.65891724 15.2389708,5.67755992 L15.2389708,6.79329654 C15.2389708,7.10570279 14.9858821,7.35822647 14.6740408,7.35822647 C14.3621995,7.35822647 14.1091109,7.10570279 14.1091109,6.79329654 L14.1091109,5.67755992 Z M14.1091109,4.54600527 L14.1091109,3.40371695 L15.2389708,3.40371695 L15.2389708,4.54600527 C15.0430107,4.53809625 14.8553833,4.53357682 14.6740408,4.53357682 C14.4926983,4.53357682 14.3051416,4.53809625 14.1091109,4.54600527 L14.1091109,4.54600527 Z M3.88839859,7.63730185 L4.69624839,8.44515165 C4.55162633,8.57791019 4.41604314,8.70784407 4.28780405,8.83551824 C4.16012988,8.96375733 4.030196,9.09877558 3.89743747,9.24396258 L3.08958767,8.43611278 L3.88839859,7.63730185 Z M6.59949732,11.1472115 C6.48933599,11.2573728 6.34471393,11.312736 6.20009186,11.312736 C6.0554698,11.312736 5.91084774,11.2573728 5.8006864,11.1472115 L4.69794318,10.0444683 C4.83070171,9.89871637 4.9606356,9.76087346 5.08661497,9.63432916 C5.21315928,9.50778485 5.35043725,9.3784159 5.4967541,9.24565737 L6.59949732,10.3484006 C6.82038493,10.5692882 6.82038493,10.9263239 6.59949732,11.1472115 L6.59949732,11.1472115 Z M14.6740408,21.4814747 C13.4278054,21.4814747 12.4143211,20.4679904 12.4143211,19.221755 C12.4143211,18.1715503 13.1374314,17.294779 14.1091109,17.0422553 L14.1091109,9.61794619 C14.1091109,9.30553994 14.3621995,9.05301626 14.6740408,9.05301626 C14.9858821,9.05301626 15.2389708,9.30553994 15.2389708,9.61794619 L15.2389708,17.0422553 C16.2106502,17.294779 16.9337605,18.1715503 16.9337605,19.221755 C16.9337605,20.4679904 15.9202762,21.4814747 14.6740408,21.4814747 L14.6740408,21.4814747 Z M25.4596831,7.63730185 L26.258494,8.43611278 L25.4506442,9.24396258 C25.3179563,9.09877558 25.1879518,8.96375733 25.0602776,8.83551824 C24.9320385,8.70784407 24.7964553,8.57791019 24.6518333,8.44515165 L25.4596831,7.63730185 Z M23.1479898,11.312736 C23.0033677,11.312736 22.8587457,11.2573728 22.7485843,11.1472115 C22.5276967,10.9263239 22.5276967,10.5692882 22.7485843,10.3484006 L23.8513275,9.24565737 C23.9976444,9.3784159 24.1349224,9.50778485 24.2614667,9.63432916 C24.387446,9.76087346 24.5173799,9.89871637 24.6500678,10.0444683 L23.5473952,11.1472115 C23.4372339,11.2573728 23.2926118,11.312736 23.1479898,11.312736 L23.1479898,11.312736 Z" id="Fill-3" fill="#333333" mask="url(#mask-2)"></path>
                </g>
            </g>
        </g>
    </g>
</svg>