<?xml version="1.0" encoding="UTF-8" standalone="no"?>
<svg width="44px" height="88px" viewBox="0 0 44 88" version="1.1" xmlns="http://www.w3.org/2000/svg" xmlns:xlink="http://www.w3.org/1999/xlink">
    <!-- Generator: Sketch 48.2 (47327) - http://www.bohemiancoding.com/sketch -->
    <title>Other</title>
    <desc>Created with Sketch.</desc>
    <defs></defs>
    <g id="Page2" stroke="none" stroke-width="1" fill="none" fill-rule="evenodd" transform="translate(-862.000000, -454.000000)">
        <g id="Other" transform="translate(862.000000, 455.000000)">
            <text font-family="Lato-Bold, Lato" font-size="16" font-weight="bold" fill="#333333">
                <tspan x="0.416" y="86">Other</tspan>
            </text>
            <g id="Page-1" opacity="0.5" transform="translate(10.000000, 0.000000)" fill="#FFFFFF" stroke="#000000">
                <path d="M12.6277953,15.9056693 C10.8085827,15.9056693 9.30858268,14.5540157 9.06748031,12.8011024 L7.74984252,12.8011024 C7.68149606,12.8011024 7.61377953,12.8048819 7.54685039,12.8116535 C7.08464567,12.832126 6.37708661,12.9477165 5.58354331,13.3477165 C4.22559055,14.0212598 2.76086614,15.4946457 1.73661417,18.1050394 C0.69976378,20.7253543 0.0037007874,24.5148031 -7.87401575e-05,30.236063 C0.000551181102,31.7149606 0.0476377953,33.3226772 0.150787402,35.0737008 C0.214094488,36.1467717 1.10385827,36.9748031 2.16511811,36.9751181 C2.20511811,36.9751181 2.24527559,36.9738583 2.28590551,36.9714961 C3.3996063,36.9062992 4.24937008,35.9502362 4.18401575,34.8368504 C4.08527559,33.1577953 4.0403937,31.628189 4.04086614,30.236378 C4.03204724,24.1225197 4.92338583,20.6870866 5.79913386,18.8944882 L5.79913386,30.5477165 C6.21251969,30.6300787 6.99314961,30.779685 7.94622047,30.9299213 C9.36795276,31.1538583 11.166063,31.3768504 12.6279528,31.376063 C14.0898425,31.3765354 15.8882677,31.1538583 17.3095276,30.9299213 C18.2627559,30.779685 19.0435433,30.6303937 19.4567717,30.547874 L19.4567717,18.9050394 C19.6065354,19.212126 19.7572441,19.5644094 19.906378,19.9752756 C20.617874,21.9480315 21.2164567,25.1844094 21.214252,30.235748 C21.214252,31.628189 21.169685,33.1581102 21.0718898,34.8374803 C21.006378,35.9511811 21.8567717,36.9064567 22.9709449,36.9714961 C23.0107874,36.9738583 23.0506299,36.9751181 23.09,36.9751181 C24.1520472,36.9751181 25.042126,36.1464567 25.1046457,35.0724409 C25.206378,33.3220472 25.2537795,31.7143307 25.2537795,30.235748 C25.2437008,22.6151181 24.0265354,18.3974803 22.3668504,15.8612598 C21.5375591,14.6020472 20.5671654,13.7951181 19.670315,13.347874 C18.877874,12.9480315 18.1723622,12.8322835 17.7098425,12.8116535 C17.6424409,12.8045669 17.574252,12.8007874 17.5049606,12.8007874 L16.1877953,12.8007874 C15.9470079,14.5540157 14.4470079,15.9056693 12.6277953,15.9056693" id="Fill-1"></path>
                <path d="M12.6274961,32.3863622 C10.1208819,32.3835276 6.93899213,31.7898268 5.79867717,31.5595906 L5.79867717,33.5126614 L4.30844094,56.5328189 C4.19662992,58.2534488 5.50151181,59.7381732 7.22135433,59.8495118 C8.94198425,59.9608504 10.4267087,58.6575433 10.5383622,56.936126 L11.8334803,36.9413228 L13.4218268,36.9413228 L14.7169449,56.936126 C14.8282835,58.6575433 16.3136378,59.9608504 18.0342677,59.8495118 C19.7541102,59.7384882 21.0589921,58.2537638 20.9473386,56.5328189 L19.4566299,33.5109291 L19.4566299,31.5767559 C18.2218268,31.8177008 15.0766299,32.3835276 12.6274961,32.3863622" id="Fill-4"></path>
                <path d="M12.6277953,1.57480315e-05 C15.7652756,1.57480315e-05 18.3087402,2.54348031 18.3087402,5.68111811 C18.3087402,8.81859843 15.7652756,11.362063 12.6277953,11.362063 C9.49015748,11.362063 6.94669291,8.81859843 6.94669291,5.68111811 C6.94669291,2.54348031 9.49015748,1.57480315e-05 12.6277953,1.57480315e-05" id="Fill-7"></path>
            </g>
        </g>
    </g>
</svg>