<?xml version="1.0" encoding="UTF-8" standalone="no"?>
<svg width="132px" height="127px" viewBox="0 0 132 127" version="1.1" xmlns="http://www.w3.org/2000/svg" xmlns:xlink="http://www.w3.org/1999/xlink">
    <!-- Generator: Sketch 48.2 (47327) - http://www.bohemiancoding.com/sketch -->
    <title>Parent_With_Young_Child</title>
    <desc>Created with Sketch.</desc>
    <defs></defs>
    <g id="Page2" stroke="none" stroke-width="1" fill="none" fill-rule="evenodd" transform="translate(-382.000000, -455.000000)">
        <g id="Parent_With_Young_Child" transform="translate(381.000000, 455.000000)">
            <text id="Parent-With-Young-Ch" font-family="Lato-Bold, Lato" font-size="16" font-weight="bold" fill="#333333">
                <tspan x="23.2626667" y="86">Parent With</tspan>
                <tspan x="12.3426667" y="105">Young Children</tspan>
                <tspan x="1.06266667" y="124">(Age Less Than 13)</tspan>
            </text>
            <g id="Page-1" opacity="0.5" transform="translate(26.000000, 0.000000)" fill="#000000">
                <path d="M72.2557795,0 C75.208063,0 77.5976693,2.3919685 77.5976693,5.34141732 C77.5976693,8.29370079 75.208063,10.6828346 72.2557795,10.6828346 C69.3039685,10.6828346 66.912,8.29370079 66.912,5.34141732 C66.912,2.3919685 69.3039685,0 72.2557795,0" id="Fill-1"></path>
                <path d="M42.1690394,0 C45.1189606,0 47.5109291,2.3919685 47.5109291,5.34141732 C47.5109291,8.29370079 45.1189606,10.6828346 42.1690394,10.6828346 C39.2172283,10.6828346 36.827622,8.29370079 36.827622,5.34141732 C36.827622,2.3919685 39.2195906,0 42.1690394,0" id="Fill-3"></path>
                <path d="M14.1068031,29.2271811 L14.1068031,41.9391496 L0.0394015748,41.9391496 C0.527433071,34.8407244 6.62900787,29.2271811 14.1068031,29.2271811" id="Fill-5"></path>
                <path d="M4.74609449,59.8422047 C3.18184252,59.8422047 1.91286614,58.5722835 1.91286614,57.0085039 C1.91286614,55.4418898 3.17995276,54.1748031 4.74609449,54.1748031 C6.3108189,54.1748031 7.57979528,55.4418898 7.57979528,57.0085039 C7.57743307,58.5722835 6.30845669,59.8422047 4.74609449,59.8422047" id="Fill-7"></path>
                <path d="M26.298,59.8422047 C24.733748,59.8422047 23.4647717,58.5722835 23.4647717,57.0085039 C23.4647717,55.4418898 24.733748,54.1748031 26.298,54.1748031 C27.8627244,54.1748031 29.1317008,55.4418898 29.1317008,57.0085039 C29.1317008,58.5722835 27.8627244,59.8422047 26.298,59.8422047" id="Fill-9"></path>
                <path d="M53.5260945,30.0848976 L49.0379055,21.0267874 L49.0379055,37.9274173 C49.0402677,37.962378 49.0473543,37.9926142 49.0473543,38.0252126 L49.0473543,57.8871024 C49.0473543,58.9680472 48.1733386,59.8392283 47.0947559,59.8392283 C47.0786929,59.8392283 47.0668819,59.837811 47.0479843,59.837811 C47.0342835,59.837811 47.0201102,59.8392283 47.0040472,59.8392283 C45.9278268,59.8392283 45.0514488,58.9680472 45.0514488,57.8871024 L43.4290866,38.0252126 C43.4290866,37.990252 43.4361732,37.962378 43.438063,37.9274173 L40.9790079,37.9274173 C40.9837323,37.962378 40.9908189,37.9926142 40.9908189,38.0252126 L39.3684567,57.8871024 C39.3684567,58.9680472 38.4920787,59.8392283 37.4134961,59.8392283 C37.3993228,59.8392283 37.3832598,59.837811 37.3695591,59.837811 C37.3534961,59.837811 37.3412126,59.8392283 37.3251496,59.8392283 C36.2470394,59.8392283 35.3725512,58.9680472 35.3725512,57.8871024 L35.3725512,38.0252126 C35.3725512,37.990252 35.3772756,37.962378 35.382,37.9274173 L35.382,21.0291496 L30.893811,30.0848976 C30.6703465,30.6168661 30.2404252,30.9915118 29.7363307,31.1700945 L29.7363307,42.846 L31.0421575,42.846 C31.0421575,50.3653701 24.0920787,56.4622205 15.5224724,56.4622205 C6.9500315,56.4622205 -4.72440945e-05,50.3653701 -4.72440945e-05,42.846 L15.5224724,42.846 L19.2042047,42.846 L28.5249921,42.846 L28.5249921,31.1960787 C28.4574331,31.1776535 28.3927087,31.1611181 28.3275118,31.1356063 C27.3254646,30.7146614 26.8563307,29.5689921 27.2744409,28.5693071 L33.6594803,13.3189134 C33.9618425,12.5960787 34.6473543,12.1590709 35.3843622,12.1264724 L35.3843622,12.1122992 L35.4703465,12.1122992 L48.9519213,12.1122992 L49.0402677,12.1122992 L49.0402677,12.1264724 C49.7749134,12.1590709 50.4627874,12.5913543 50.7646772,13.3189134 L57.150189,28.5693071 C57.5687717,29.5666299 57.0968031,30.7146614 56.0923937,31.1379685 C55.0950709,31.5537165 53.9446772,31.0845827 53.5260945,30.0848976" id="Fill-11"></path>
                <path d="M84.9655748,30.9471969 C83.9592756,31.3681417 82.8017953,30.893811 82.383685,29.8870394 L77.0677795,17.1887717 L77.0512441,17.2218425 L81.9537638,39.249874 L81.8068346,39.249874 L77.5090394,39.249874 C77.5208504,39.3382205 77.5369134,39.4199528 77.5369134,39.5125512 L77.5369134,57.8682992 C77.5369134,58.9539685 76.6534488,59.8350709 75.568252,59.8350709 C75.5408504,59.8350709 75.5195906,59.8303465 75.4964409,59.8303465 C75.4680945,59.8303465 75.4477795,59.8350709 75.4199055,59.8350709 C74.3337638,59.8350709 73.4531339,58.9539685 73.4531339,57.8682992 L72.7047874,39.5125512 C72.7047874,39.4199528 72.7184882,39.3382205 72.7326614,39.249874 L71.779748,39.249874 C71.7934488,39.3382205 71.8071496,39.4199528 71.8071496,39.5125512 L71.0611654,57.8682992 C71.0611654,58.9539685 70.1805354,59.8350709 69.0972283,59.8350709 C69.0698268,59.8350709 69.0462047,59.8303465 69.0206929,59.8303465 C68.9923465,59.8303465 68.9715591,59.8350709 68.9460472,59.8350709 C67.8580157,59.8350709 66.9773858,58.9539685 66.9773858,57.8682992 L66.9773858,39.5125512 C66.9773858,39.4199528 66.9934488,39.3382205 67.0052598,39.249874 L62.7098268,39.249874 L62.7051024,39.249874 L62.5586457,39.249874 L67.4606929,17.2218425 L67.4465197,17.1887717 L62.1334488,29.8870394 C61.7096693,30.8961732 60.5498268,31.3681417 59.5487244,30.9471969 C58.5395906,30.5238898 58.0657323,29.3664094 58.4885669,28.3648346 L65.9006929,11.977748 L65.9729764,11.8034173 L78.5295118,11.8034173 L78.5323465,11.8034173 L78.6013228,11.977748 L86.0167559,28.3648346 C86.4395906,29.3716063 85.9652598,30.526252 84.9655748,30.9471969" id="Fill-14"></path>
            </g>
        </g>
    </g>
</svg>