<?xml version="1.0" encoding="UTF-8" standalone="no"?>
<svg width="87px" height="125px" viewBox="0 0 87 125" version="1.1" xmlns="http://www.w3.org/2000/svg" xmlns:xlink="http://www.w3.org/1999/xlink">
    <!-- Generator: Sketch 48.2 (47327) - http://www.bohemiancoding.com/sketch -->
    <title>Parent_With_Grown_Up</title>
    <desc>Created with Sketch.</desc>
    <defs></defs>
    <g id="Page2" stroke="none" stroke-width="1" fill="none" fill-rule="evenodd" transform="translate(-546.000000, -455.000000)">
        <g id="Parent_With_Grown_Up" transform="translate(545.000000, 455.000000)">
            <text id="Parent-With-Grown-Up" font-family="Lato-Bold, Lato" font-size="16" font-weight="bold" fill="#333333">
                <tspan x="0.596" y="86">Parent With</tspan>
                <tspan x="6.804" y="105">Grown-Up</tspan>
                <tspan x="13.6" y="124">Children</tspan>
            </text>
            <g id="Page-1" opacity="0.5" transform="translate(8.000000, 0.000000)" fill="#000000">
                <path d="M58.8441563,0.46865625 C61.773375,0.46865625 64.1443125,2.8419375 64.1443125,5.7688125 C64.1443125,8.6975625 61.773375,11.0680312 58.8441563,11.0680312 C55.9154063,11.0680312 53.542125,8.6975625 53.542125,5.7688125 C53.542125,2.8419375 55.9154063,0.46865625 58.8441563,0.46865625" id="Fill-1"></path>
                <path d="M37.9806563,15.9758906 C40.4987813,15.9758906 42.5401875,18.0168281 42.5401875,20.5354219 C42.5401875,23.0516719 40.4987813,25.0926094 37.9806563,25.0926094 C35.4644063,25.0926094 33.4253438,23.0516719 33.4253438,20.5354219 C33.4253438,18.0168281 35.4644063,15.9758906 37.9806563,15.9758906" id="Fill-4"></path>
                <path d="M14.9299688,0.46865625 C17.8568437,0.46865625 20.230125,2.8419375 20.230125,5.7688125 C20.230125,8.6975625 17.8568437,11.0680312 14.9299688,11.0680312 C12.0012187,11.0680312 9.63028125,8.6975625 9.63028125,5.7688125 C9.63028125,2.8419375 12.0035625,0.46865625 14.9299688,0.46865625" id="Fill-6"></path>
                <path d="M1.39251562,31.4208281 C1.32548437,31.4025469 1.26126562,31.3861406 1.19657812,31.3608281 C0.202359375,30.9436406 -0.263109375,29.8069219 0.151734375,28.8145781 L6.48689063,13.6833281 C6.78689062,12.9666094 7.46704687,12.5325469 8.19829687,12.5006719 L8.19829687,12.4866094 L8.28360938,12.4866094 L21.6598594,12.4866094 L21.7475156,12.4866094 L21.7475156,12.5006719 C22.4764219,12.5325469 23.1589219,12.9619219 23.4584531,13.6833281 L29.7940781,28.8145781 C30.2093906,29.8041094 29.7411094,30.9436406 28.7445469,31.3631719 C27.7550156,31.7761406 26.6136094,31.3102031 26.1982969,30.3183281 L21.7451719,21.3309844 L21.7451719,38.0995781 C21.7475156,38.1342656 21.7540781,38.1647344 21.7540781,38.1966094 L21.7540781,57.9033281 C21.7540781,58.9758281 20.8873594,59.8406719 19.8172031,59.8406719 C19.8007969,59.8406719 19.7895469,59.8387969 19.7707969,59.8387969 C19.7572031,59.8387969 19.7431406,59.8406719 19.7272031,59.8406719 C18.6593906,59.8406719 17.7898594,58.9758281 17.7898594,57.9033281 L16.1801719,38.1966094 C16.1801719,38.1619219 16.1872031,38.1342656 16.1890781,38.0995781 L13.7492344,38.0995781 C13.7539219,38.1342656 13.7609531,38.1647344 13.7609531,38.1966094 L12.1512656,57.9033281 C12.1512656,58.9758281 11.2817344,59.8406719 10.2111094,59.8406719 C10.1975156,59.8406719 10.1815781,59.8387969 10.1679844,59.8387969 C10.1520469,59.8387969 10.1398594,59.8406719 10.1239219,59.8406719 C9.05423438,59.8406719 8.18657813,58.9758281 8.18657813,57.9033281 L8.18657813,38.1966094 C8.18657813,38.1619219 8.19126562,38.1342656 8.19595313,38.0995781 L8.19595313,21.3333281 L3.74282812,30.3183281 C3.52110937,30.8466094 3.09454687,31.2178594 2.59392188,31.3950469" id="Fill-9"></path>
                <path d="M46.8319688,39.667875 C46.1307188,39.9608438 45.325875,39.6313125 45.0329063,38.93475 L41.3316563,30.0899063 L41.3222813,30.1086563 L44.7310313,45.4545938 L44.6316563,45.4545938 L41.6382188,45.4545938 C41.647125,45.5169375 41.6569688,45.5764688 41.6569688,45.6388125 L41.6569688,58.42725 C41.6569688,59.1833438 41.0429063,59.7964688 40.2868125,59.7964688 C40.2680625,59.7964688 40.252125,59.7950625 40.2361875,59.79225 C40.2179063,59.7950625 40.2038438,59.7964688 40.1874375,59.7964688 C39.4313438,59.7964688 38.8149375,59.1833438 38.8149375,58.42725 L38.2941563,45.6388125 C38.2941563,45.5788125 38.305875,45.5169375 38.3147813,45.4545938 L37.6505625,45.4545938 C37.6580625,45.5169375 37.6688438,45.5764688 37.6688438,45.6388125 L37.1480625,58.42725 C37.1480625,59.1833438 36.532125,59.7964688 35.7755625,59.7964688 C35.7572813,59.7964688 35.7413438,59.7950625 35.7254063,59.79225 C35.709,59.7950625 35.6925938,59.7964688 35.6766563,59.7964688 C34.9200938,59.7964688 34.3065,59.1833438 34.3065,58.42725 L34.3065,45.6388125 C34.3065,45.5788125 34.3205625,45.5169375 34.327125,45.4545938 L31.3360313,45.4545938 L31.2347813,45.4545938 L34.6482188,30.1105313 L34.6411875,30.09225 L30.9399375,38.9370938 C30.6441563,39.6383437 29.8393125,39.9655312 29.140875,39.6706875 C28.439625,39.3777187 28.1100938,38.5700625 28.4030625,37.8735 L33.5663438,26.4552188 L33.6150938,26.3333438 L42.3624375,26.3333438 L42.4107188,26.4552188 L47.5744688,37.8688125 C47.86275,38.565375 47.5280625,39.3749063 46.8319688,39.667875" id="Fill-12"></path>
                <path d="M71.4546094,31.1740781 C70.4561719,31.5917344 69.3077344,31.1215781 68.8928906,30.1226719 L63.6185156,17.5231406 L63.6021094,17.5559531 L68.4663281,39.4118906 L68.3205469,39.4118906 L64.0563281,39.4118906 C64.0680469,39.4995469 64.0839844,39.5806406 64.0839844,39.6725156 L64.0839844,57.8848594 C64.0839844,58.9620469 63.2074219,59.8362656 62.1307031,59.8362656 C62.1035156,59.8362656 62.0824219,59.8315781 62.0594531,59.8315781 C62.0313281,59.8315781 62.0111719,59.8362656 61.9835156,59.8362656 C60.9058594,59.8362656 60.0321094,58.9620469 60.0321094,57.8848594 L59.2896094,39.6725156 C59.2896094,39.5806406 59.3032031,39.4995469 59.3172656,39.4118906 L58.3717969,39.4118906 C58.3853906,39.4995469 58.3989844,39.5806406 58.3989844,39.6725156 L57.6588281,57.8848594 C57.6588281,58.9620469 56.7850781,59.8362656 55.7102344,59.8362656 C55.6830469,59.8362656 55.6596094,59.8315781 55.6342969,59.8315781 C55.6061719,59.8315781 55.5855469,59.8362656 55.5602344,59.8362656 C54.4807031,59.8362656 53.6069531,58.9620469 53.6069531,57.8848594 L53.6069531,39.6725156 C53.6069531,39.5806406 53.6228906,39.4995469 53.6346094,39.4118906 L49.3727344,39.4118906 L49.3680469,39.4118906 L49.2227344,39.4118906 L54.0864844,17.5559531 L54.0724219,17.5231406 L48.8008594,30.1226719 C48.3803906,31.1234531 47.2296094,31.5917344 46.2363281,31.1740781 C45.2350781,30.7540781 44.7649219,29.6056406 45.1844531,28.6118906 L52.5386719,12.3532969 L52.6103906,12.1798594 L65.0688281,12.1798594 L65.0716406,12.1798594 L65.1400781,12.3532969 L72.4975781,28.6118906 C72.9171094,29.6107969 72.4464844,30.7564219 71.4546094,31.1740781" id="Fill-14"></path>
            </g>
        </g>
    </g>
</svg>