<?xml version="1.0" encoding="UTF-8" standalone="no"?>
<svg width="89px" height="89px" viewBox="0 0 89 89" version="1.1" xmlns="http://www.w3.org/2000/svg" xmlns:xlink="http://www.w3.org/1999/xlink">
    <!-- Generator: Sketch 48.2 (47327) - http://www.bohemiancoding.com/sketch -->
    <title>Partnership</title>
    <desc>Created with Sketch.</desc>
    <defs></defs>
    <g id="Page3" stroke="none" stroke-width="1" fill="none" fill-rule="evenodd" transform="translate(-360.000000, -154.000000)">
        <g id="Partnership" transform="translate(360.000000, 154.000000)">
            <text font-family="Lato-Bold, Lato" font-size="16" font-weight="bold" fill="#333333">
                <tspan x="2.32" y="86">Partnership</tspan>
            </text>
            <g id="Page-1" opacity="0.5" fill="#000000">
                <path d="M75.7195433,31.9488166 C75.6647336,34.4650796 71.9345606,36.4967751 67.3405121,36.4967751 C62.7443875,36.4967751 59.0171211,34.46591 58.9621038,31.9488166 C56.1666021,32.2037647 53.6227266,33.3009965 51.5596817,34.9710311 C51.7266021,35.1406505 51.8931073,35.3092318 52.0529689,35.4838339 C55.7428651,39.5042491 57.7745606,44.7238339 57.7745606,50.182173 C57.7745606,51.3134533 57.6736609,52.3380208 57.5088166,53.2853564 C58.3895087,53.2990588 59.299474,53.2990588 60.2320692,53.2990588 L74.4497855,53.2990588 C82.0728997,53.2990588 88.2535225,53.3189896 88.2535225,45.6929689 C88.2535225,38.4991972 82.7495087,32.5890934 75.7195433,31.9488166" id="Fill-1"></path>
                <path d="M60.8243668,13.4743599 C60.8243668,13.4743599 63.8650588,14.9500692 67.3404913,15.0451557 C70.8155087,14.9500692 73.8564083,13.4743599 73.8564083,13.4743599 C76.0597993,14.343218 75.0155087,20.5385813 75.0155087,20.5406574 C75.5667197,20.1561592 76.0697647,19.9560208 76.4814602,19.8532526 C75.8754394,26.4368512 72.0148858,31.5144291 67.3413218,31.5144291 C62.6679654,31.5144291 58.8072042,26.4368512 58.2011834,19.8532526 C58.6122561,19.9551903 59.1182076,20.1561592 59.6673426,20.5406574 C59.6663045,20.5385813 58.6220138,14.343218 60.8243668,13.4743599 M56.8982076,19.4687543 C56.9058893,19.569654 56.9148166,19.6678547 56.9235363,19.7668858 C57.5893495,27.3046713 61.9971696,33.1275779 67.3394533,33.1275779 C72.6798685,33.1275779 77.0905952,27.3036332 77.7572388,19.7668858 C77.7661661,19.6678547 77.7740554,19.5686159 77.7819446,19.4687543 C77.8296955,19.1421799 77.8602145,18.8116609 77.8797301,18.4753287 C77.8936401,18.245917 77.9023599,18.0154671 77.9023599,17.7821107 C77.9023599,17.2095156 77.8602145,16.6456401 77.7819446,16.0946367 C77.0100415,10.7542215 72.6277578,6.66217993 67.3394533,6.66217993 C62.0511488,6.66217993 57.6707336,10.7542215 56.8982076,16.0946367 C56.818692,16.6456401 56.7773772,17.2084775 56.7773772,17.7821107 C56.7773772,18.0154671 56.7873426,18.245917 56.7979308,18.4753287 C56.818692,18.8116609 56.85191,19.1421799 56.8982076,19.4687543" id="Fill-3"></path>
                <path d="M37.6607751,32.5097232 C37.5901869,35.7455709 32.7941315,38.3579585 26.8879723,38.3579585 C20.9807751,38.3579585 16.1865882,35.7455709 16.1162076,32.5097232 C7.07883737,33.3353979 8.30449827e-05,40.9329758 8.30449827e-05,50.1829412 C8.30449827e-05,59.9369896 7.86838754,59.9621107 17.6037509,59.9621107 L17.748872,59.9621107 L36.0281107,59.9621107 L36.1742699,59.9621107 C44.8395986,59.9621107 52.0215363,59.9378201 53.4953772,53.0508997 C53.6776609,52.2019723 53.776692,51.2538062 53.776692,50.1829412 C53.776692,45.4219723 51.8980069,41.1007266 48.845481,37.9136678 C45.9673495,34.9082699 42.0470035,32.9097924 37.6607751,32.5097232" id="Fill-5"></path>
                <path d="M18.5117647,8.75676125 C18.5117647,8.75676125 22.4192388,10.6551696 26.8880969,10.7776609 C31.3565398,10.6551696 35.2650519,8.75676125 35.2650519,8.75676125 C38.0981315,9.87454671 36.7557093,17.8400138 36.7557093,17.8418824 C37.4636678,17.3477647 38.1116263,17.0909481 38.6393772,16.9584913 C38.2224913,21.4927474 36.6045675,25.4681107 34.2687197,28.1853426 C34.0980623,28.3834048 33.9226298,28.5746159 33.7432526,28.7600138 C31.807474,30.7672111 29.443391,31.9497716 26.8880969,31.9497716 C24.3334256,31.9497716 21.9691349,30.7672111 20.033564,28.7600138 C19.8552249,28.5746159 19.6795848,28.3844429 19.5070588,28.1853426 C17.1722491,25.4681107 15.5541176,21.4917093 15.1353633,16.9584913 C15.6639446,17.0909481 16.3131488,17.3467266 17.0200692,17.8418824 C17.0200692,17.8408443 15.6786851,9.87558478 18.5117647,8.75676125 M13.4626298,16.4662422 C13.4715571,16.5945467 13.4831834,16.7222284 13.4950173,16.8486644 C13.8919723,21.3407751 15.3238754,25.3572457 17.4280277,28.3755156 C18.2252595,29.5180069 19.1188235,30.5151696 20.0885813,31.3429204 C22.0860208,33.0470035 24.407128,34.0267266 26.8868512,34.0267266 C29.366782,34.0267266 31.6889273,33.0451349 33.6863668,31.3418824 C34.6561246,30.5141315 35.549481,29.5169689 36.3467128,28.3755156 C38.4510727,25.3562076 39.8829758,21.339737 40.2807612,16.8486644 C40.2915571,16.7220208 40.3015225,16.5945467 40.3123183,16.4662422 C40.3739792,16.0464498 40.4142561,15.6200138 40.4387543,15.1894256 C40.4564014,14.8944083 40.4671972,14.5971073 40.4671972,14.2971073 C40.4671972,13.5596678 40.413218,12.8359308 40.3123183,12.1279723 C39.3217993,5.26202076 33.6884429,8.30449827e-05 26.8880969,8.30449827e-05 C20.0875433,8.30449827e-05 14.4560554,5.26202076 13.4626298,12.1279723 C13.3604844,12.8359308 13.3077509,13.5596678 13.3077509,14.2971073 C13.3077509,14.5971073 13.3193772,14.8933702 13.3349481,15.1894256 C13.3604844,15.6200138 13.4017993,16.0464498 13.4626298,16.4662422" id="Fill-7"></path>
            </g>
        </g>
    </g>
</svg>