<?xml version="1.0" encoding="UTF-8" standalone="no"?>
<svg width="125px" height="108px" viewBox="0 0 125 108" version="1.1" xmlns="http://www.w3.org/2000/svg" xmlns:xlink="http://www.w3.org/1999/xlink">
    <!-- Generator: Sketch 48.2 (47327) - http://www.bohemiancoding.com/sketch -->
    <title>Private_Public</title>
    <desc>Created with Sketch.</desc>
    <defs></defs>
    <g id="Page3" stroke="none" stroke-width="1" fill="none" fill-rule="evenodd" transform="translate(-491.000000, -154.000000)">
        <g id="Private_Public" transform="translate(490.000000, 154.000000)">
            <text id="Private/Public-Limit" font-family="Lato-Bold, Lato" font-size="16" font-weight="bold" fill="#333333">
                <tspan x="11.38" y="86">Private/Public</tspan>
                <tspan x="0.284" y="105">Limited Company</tspan>
            </text>
            <g id="Page-1" opacity="0.5" transform="translate(17.000000, 0.000000)" fill="#000000">
                <path d="M10.0183636,16.9241673 C10.0227273,17.0014036 10.2018545,18.8079491 10.5367636,19.6468582 C10.7748,20.2289673 11.2054909,20.6917309 11.7662182,20.9607491 C11.8495636,21.4769673 11.9743636,22.1622764 12.1504364,22.8043855 C12.6729818,24.7075855 15.3553091,29.00904 18.8468727,29.12664 C18.9396,29.1275127 19.1342182,29.1316582 19.3395273,29.1316582 L19.794,29.1275127 C23.2997455,29.0934764 26.1066545,24.7025673 26.6239636,22.8043855 C26.8013455,22.1603127 26.9261455,21.4750036 27.0075273,20.9607491 C27.5691273,20.6908582 28.0039636,20.2289673 28.2378545,19.6468582 C28.5738545,18.80904 28.7510182,17.0024945 28.7573455,16.9263491 C28.8996,15.4959491 28.3975636,14.6744945 28.3510909,14.6302036 C28.9366909,8.83354909 27.0838909,7.69071273 25.8492,7.48562182 C25.4091273,7.41362182 24.7465091,7.24758545 24.4506545,6.91900364 C23.7603273,6.15624 23.4542182,5.30620364 22.2598909,5.37514909 C21.8156727,5.40002182 21.2211273,5.26191273 20.8809818,4.97740364 C20.4254182,4.59296727 19.7968364,4.14678545 19.3270909,4.14678545 C18.8693455,4.14678545 18.2924727,4.57551273 17.8687636,4.95471273 C17.5410545,5.24838545 16.9567636,5.40002182 16.5127636,5.37405818 C15.3204,5.30511273 15.0134182,6.15536727 14.3228727,6.91791273 C14.0248364,7.24671273 13.3613455,7.41144 12.9254182,7.48474909 C11.6909455,7.68874909 9.83705455,8.83464 10.4213455,14.6302036 C10.3696364,14.6819127 9.87916364,15.5092582 10.0183636,16.9241673" id="Fill-1"></path>
                <path d="M18.0356945,43.3208509 C18.7943127,41.4783055 19.9247127,40.0066691 21.2355491,38.8071055 C20.9543127,37.4622327 20.6338036,36.3431782 20.4287127,35.6899418 C20.6728582,34.9993964 21.2272582,34.2687055 21.3354764,33.6071782 C21.4447855,32.9127055 21.2108945,32.4427418 20.8552582,32.0007055 C20.7068945,31.8183055 20.4697309,31.7471782 20.2997673,31.8759055 L19.6947491,32.2974327 C19.5247855,32.42616 19.2496582,32.42616 19.0807855,32.2974327 L18.4727127,31.8759055 C18.3058036,31.7471782 18.0658036,31.8183055 17.9172218,32.0007055 C17.5626764,32.4427418 17.3279127,32.9127055 17.4402764,33.6071782 C17.5474036,34.2697964 18.1028945,35.0004873 18.3450764,35.6908145 C18.0625309,36.59976 17.5524218,38.3929964 17.2371491,40.4580873 C17.4856582,41.4248509 17.7544582,42.3903055 18.0356945,43.3208509" id="Fill-3"></path>
                <path d="M77.6150836,29.2904291 C88.2313745,26.7924655 85.7150836,8.45864727 76.0282473,4.89704727 C75.22752,4.68672 73.8298473,4.50868364 72.4367564,5.13617455 C71.0414836,4.50868364 69.6470836,4.68584727 68.8443927,4.89704727 C59.1501382,8.46170182 56.6377745,26.82432 67.2850473,29.2965382 C67.2830836,29.3017745 67.2822109,29.3067927 67.2822109,29.3120291 C68.8587927,30.7125382 69.5266473,36.5761745 69.2999564,39.8408291 C70.9734109,41.7215564 72.19872,44.1771927 72.4542109,47.4839564 C74.6316655,41.5596655 74.4998836,42.3429382 75.6848291,40.8538473 C75.2046109,37.9786473 75.8334109,30.8630836 77.5965382,29.3067927 C77.6057018,29.3120291 77.6194473,29.3028655 77.6150836,29.2904291" id="Fill-5"></path>
                <path d="M80.5036582,32.6591345 C82.9664945,36.5802982 85.2100582,42.2892436 85.2100582,42.2892436 C85.2100582,42.2892436 79.3998764,42.1666255 78.4878764,39.6213164 C75.9475855,44.5688073 72.91704,47.2005164 72.4614764,47.5777527 C72.4645309,47.5862618 72.4645309,47.5956436 72.4645309,47.6045891 C72.4678036,47.6130982 72.4717309,47.6220436 72.4747855,47.6314255 C72.4747855,47.6314255 72.4678036,47.6242255 72.4645309,47.6233527 C72.5478764,48.8658982 72.4944218,50.23128 72.2801673,51.7249527 C72.3349309,51.7236436 72.3944945,51.7214618 72.4398764,51.7164436 C74.9038036,51.8877164 90.9532582,51.0959345 92.1990764,46.7667709 C95.1246764,35.3569527 85.5995127,35.4250255 80.5036582,32.6591345" id="Fill-7"></path>
                <path d="M60.4343345,34.3223564 C61.1874982,34.63152 61.9997891,34.9705745 62.8365164,35.3569745 C63.3032073,34.4687564 63.7928073,33.5897018 64.2965891,32.7806836 C63.16008,33.3785018 61.8110618,33.8401745 60.4343345,34.3223564" id="Fill-10"></path>
                <path d="M0.528305455,46.7114182 C1.57230545,50.4388364 12.4122327,51.5173091 17.2484509,51.7069091 C16.7765236,48.4167273 17.0979055,45.7693091 17.9224145,43.6167273 L14.0136873,31.0442182 C13.8838691,30.4776 13.4326691,30.3425455 13.0120145,30.7466182 L11.8135418,31.8418909 C11.4064145,32.2592727 10.6336145,32.7724364 10.0903418,32.9816727 C10.0903418,32.9816727 8.85914182,33.4599273 8.17165091,33.7411636 C3.54357818,35.6341091 -1.69758545,37.7755636 0.528305455,46.7114182" id="Fill-12"></path>
                <path d="M26.8724727,31.8099491 L25.6853455,30.7620218 C25.2762545,30.3498764 24.834,30.4775127 24.7041818,31.0432582 L22.6764,37.6426036 C24.8865818,36.0463855 27.3651273,35.0283491 29.3662909,34.2090764 C29.7094909,34.0679127 30.1545818,33.8916218 30.5761091,33.7266764 C29.8733455,33.4423855 28.5952364,32.9466764 28.5952364,32.9466764 C28.0524,32.7396218 27.2785091,32.22624 26.8724727,31.8099491" id="Fill-14"></path>
                <path d="M44.7437891,54.2165236 L44.7867709,54.2165236 C45.7493891,51.8586327 46.6851709,48.8032145 47.4756436,45.7458327 C47.0748436,43.1416145 46.4338255,40.8805964 46.0770982,39.7355782 C46.3832073,38.8650327 47.08488,37.9467055 47.2179709,37.1099782 C47.3571709,36.2370327 47.06328,35.6413964 46.6151345,35.0869964 C46.4285891,34.8592145 46.1277164,34.7686691 45.9132436,34.9303418 L45.1496073,35.4631418 C44.9364436,35.6250327 44.59128,35.6250327 44.37768,35.4631418 L43.6131709,34.9303418 C43.4019709,34.76976 43.0989164,34.8603055 42.9143345,35.0869964 C42.4642255,35.6413964 42.1703345,36.2370327 42.3117164,37.1099782 C42.4467709,37.9467055 43.14648,38.8650327 43.45128,39.73776 C43.0947709,40.88256 42.45288,43.1394327 42.0529527,45.7423418 C42.8453891,48.8012509 43.7781164,51.85776 44.7437891,54.2165236" id="Fill-16"></path>
                <path d="M52.6128218,45.7662327 C52.64664,45.6964145 53.4340582,45.6396873 54.1656218,45.6396873 L58.0217673,45.6396873 C58.7535491,45.6396873 59.4172582,45.6643418 59.4966764,45.6964145 C59.5736945,45.7249964 59.6387127,46.4587418 59.6387127,47.15256 C59.6387127,47.8457236 59.6099127,48.4712509 59.5747855,48.5404145 C59.54184,48.6084873 58.7535491,48.6652145 58.0217673,48.6652145 L54.1656218,48.6652145 C53.4340582,48.6652145 52.7705673,48.6423055 52.6909309,48.6084873 C52.6128218,48.5796873 52.5467127,47.8457236 52.5467127,47.15256 C52.5467127,46.4587418 52.5755127,45.8351782 52.6128218,45.7662327 M43.90584,59.95656 L45.6216218,59.95656 C50.08584,59.95656 67.0523127,58.8817964 68.5261309,53.6220873 C71.3321673,42.3656509 64.7254036,39.6676145 58.8966764,37.2820145 C58.0217673,36.9233236 56.3657673,36.2825236 56.3657673,36.2825236 C55.6815491,36.0196145 54.7067127,35.3724873 54.19464,34.8468873 L52.7000945,33.5299418 C52.1827855,33.0095782 51.6275127,33.1703782 51.4656218,33.88536 L45.13944,54.4513964 C44.9343491,55.1543782 44.5952945,55.1543782 44.38824,54.45336 L37.9937673,33.8833964 C37.8277309,33.1703782 37.2622036,33.0012873 36.7335491,33.5092145 L35.2217673,34.8922691 C34.7116582,35.4167782 33.7357309,36.0639055 33.0536945,36.3268145 C33.0536945,36.3268145 31.4984945,36.9274691 30.6327491,37.2831055 C24.8053309,39.6687055 18.1987855,42.3676145 21.0037309,53.62296 C22.4751491,58.8817964 39.4405309,59.95656 43.90584,59.95656" id="Fill-18"></path>
                <path d="M53.8812218,23.502 C54.1048582,22.6921091 54.2645673,21.8274545 54.3666764,21.1770545 C55.0735855,20.8382182 55.6196945,20.2558909 55.9186036,19.5232364 C56.3381673,18.4689818 56.5648582,16.1935636 56.5720582,16.0975636 C56.7481309,14.2942909 56.1173673,13.2627273 56.0586764,13.2020727 C56.7965673,5.90192727 54.4613673,4.45909091 52.9074764,4.20141818 C52.35504,4.11087273 51.5183127,3.90250909 51.1452218,3.48927273 C50.2744582,2.52796364 49.8880582,1.45930909 48.3845673,1.54570909 C47.8260218,1.5756 47.0748218,1.4004 46.6469673,1.0428 C46.0720582,0.561709091 45.2794036,0.000109090909 44.6922764,0.000109090909 C44.1138764,0.000109090909 43.3864582,0.539018182 42.8547491,1.01596364 C42.4384582,1.38709091 41.7027491,1.5756 41.1461673,1.54570909 C39.6415855,1.45930909 39.2562764,2.52796364 38.3855127,3.48927273 C38.0104582,3.90250909 37.1746036,4.11174545 36.6212945,4.20141818 C35.0680582,4.45909091 32.7317673,5.90192727 33.4687855,13.2051273 C33.4048582,13.2679636 32.7815127,14.3108727 32.9578036,16.0956 C32.9658764,16.1935636 33.1916945,18.4689818 33.6130036,19.5232364 C33.9099491,20.2567636 34.4538764,20.8382182 35.1618764,21.1770545 C35.26704,21.8274545 35.4256582,22.6929818 35.6473309,23.502 C36.30384,25.8989455 39.6850036,31.3194545 44.0842036,31.4636727 C44.2004945,31.4708727 44.4481309,31.4730545 44.7053673,31.4730545 L45.27744,31.4689091 C49.6962764,31.4254909 53.2299491,25.8917455 53.8812218,23.502" id="Fill-20"></path>
            </g>
        </g>
    </g>
</svg>