<?xml version="1.0" encoding="UTF-8" standalone="no"?>
<svg width="53px" height="64px" viewBox="0 0 53 64" version="1.1" xmlns="http://www.w3.org/2000/svg" xmlns:xlink="http://www.w3.org/1999/xlink">
    <!-- Generator: Sketch 48.2 (47327) - http://www.bohemiancoding.com/sketch -->
    <title>Prospect</title>
    <desc>Created with Sketch.</desc>
    <defs></defs>
    <g id="Home-Page-Option-1-Copy" stroke="none" stroke-width="1" fill="none" fill-rule="evenodd" transform="translate(-807.000000, -198.000000)">
        <g id="Prospect" transform="translate(806.000000, 198.000000)">
            <path d="M27.5,0 C15.05,0 5,10.05 5,22.5 C5,34.95 15.05,45 27.5,45 C39.95,45 50,34.95 50,22.5 C50,10.05 39.95,0 27.5,0 M27.5,2.50003125 C38.5499375,2.50003125 47.4999688,11.4499688 47.4999688,22.5 C47.4999688,33.5499375 38.5499375,42.4999687 27.5,42.4999687 C16.4499688,42.4999687 7.50003125,33.5499375 7.50003125,22.5 C7.50003125,11.4499688 16.4499688,2.50003125 27.5,2.50003125" id="Fill-5" fill="#333333"></path>
            <g id="Group-8" transform="translate(7.000000, 2.000000)">
                <path d="M20.499962,1.89814814e-05 C9.20218426,1.89814814e-05 -3.79629629e-05,9.15668565 -3.79629629e-05,20.500019 C-3.79629629e-05,31.8432574 9.1566287,41.000019 20.499962,41.000019 C31.8433903,41.000019 40.999962,31.8432574 40.999962,20.500019 C40.999962,9.15668565 31.7977398,1.89814814e-05 20.499962,1.89814814e-05" id="Path" fill="#808080"></path>
                <path d="M20.499962,37.5377019 C11.1156125,37.5377019 3.46218426,29.8844634 3.46218426,20.500019 C3.46218426,11.1155745 11.1156125,3.4622412 20.499962,3.4622412 C29.8844065,3.4622412 37.4921843,11.1155745 37.4921843,20.500019 C37.4921843,29.8844634 29.8844065,37.5377019 20.499962,37.5377019" id="Path" fill="#FFFFFF"></path>
                <path d="M22.5833125,9.799 L22.5833125,18.5935 C22.5833125,19.5262547 22.5371879,20.441058 22.4449375,21.3379375 C22.352687,22.234817 22.2296883,23.185495 22.0759375,24.19 L19.5083125,24.19 C19.3545617,23.185495 19.2315629,22.234817 19.1393125,21.3379375 C19.047062,20.441058 19.0009375,19.5262547 19.0009375,18.5935 L19.0009375,9.799 L22.5833125,9.799 Z M18.4166875,29.94025 C18.4166875,29.6224984 18.4756244,29.3201264 18.5935,29.033125 C18.7113756,28.7461236 18.8753739,28.500126 19.0855,28.295125 C19.295626,28.090124 19.544186,27.9261256 19.8311875,27.803125 C20.1181889,27.6801244 20.4256858,27.618625 20.7536875,27.618625 C21.0714391,27.618625 21.373811,27.6801244 21.6608125,27.803125 C21.9478139,27.9261256 22.1938115,28.090124 22.3988125,28.295125 C22.6038135,28.500126 22.7678119,28.7461236 22.8908125,29.033125 C23.0138131,29.3201264 23.0753125,29.6224984 23.0753125,29.94025 C23.0753125,30.2682516 23.0138131,30.5731861 22.8908125,30.8550625 C22.7678119,31.1369389 22.6038135,31.380374 22.3988125,31.585375 C22.1938115,31.790376 21.9478139,31.9518119 21.6608125,32.0696875 C21.373811,32.1875631 21.0714391,32.2465 20.7536875,32.2465 C20.4256858,32.2465 20.1181889,32.1875631 19.8311875,32.0696875 C19.544186,31.9518119 19.295626,31.790376 19.0855,31.585375 C18.8753739,31.380374 18.7113756,31.1369389 18.5935,30.8550625 C18.4756244,30.5731861 18.4166875,30.2682516 18.4166875,29.94025 Z" id="!" fill="#808080"></path>
            </g>
            <path d="M3.16499991,57.248 L3.16499991,61 L1.81399991,61 L1.81399991,50.969 L4.77499991,50.969 C5.40966975,50.969 5.96149756,51.0424993 6.43049991,51.1895 C6.89950225,51.3365007 7.28799837,51.545332 7.59599991,51.816 C7.90400145,52.086668 8.13383248,52.4133314 8.28549991,52.796 C8.43716733,53.1786686 8.51299991,53.6056643 8.51299991,54.077 C8.51299991,54.543669 8.43133406,54.9706647 8.26799991,55.358 C8.10466576,55.7453353 7.86550148,56.0789986 7.55049991,56.359 C7.23549833,56.6390014 6.84466891,56.8571659 6.37799991,57.0135 C5.91133091,57.1698341 5.37700292,57.248 4.77499991,57.248 L3.16499991,57.248 Z M3.16499991,56.17 L4.77499991,56.17 C5.16233518,56.17 5.50416509,56.1186672 5.80049991,56.016 C6.09683472,55.9133328 6.34533224,55.7698343 6.54599991,55.5855 C6.74666758,55.4011657 6.89833273,55.180668 7.00099991,54.924 C7.10366709,54.667332 7.15499991,54.3850015 7.15499991,54.077 C7.15499991,53.4376635 6.95783521,52.9383351 6.56349991,52.579 C6.1691646,52.2196649 5.5730039,52.04 4.77499991,52.04 L3.16499991,52.04 L3.16499991,56.17 Z M9.80799993,61 L9.80799993,53.909 L10.5219999,53.909 C10.6573339,53.909 10.7506663,53.9346664 10.8019999,53.986 C10.8533335,54.0373336 10.8883332,54.1259994 10.9069999,54.252 L10.9909999,55.358 C11.2336678,54.8633309 11.5334981,54.4771681 11.8904999,54.1995 C12.2475017,53.9218319 12.6663309,53.783 13.1469999,53.783 C13.3430009,53.783 13.5203325,53.8051664 13.6789999,53.8495 C13.8376674,53.8938336 13.9846659,53.9556663 14.1199999,54.035 L13.9589999,54.966 C13.9263331,55.0826673 13.8540005,55.141 13.7419999,55.141 C13.6766663,55.141 13.5763339,55.1188336 13.4409999,55.0745 C13.3056659,55.0301664 13.1166678,55.008 12.8739999,55.008 C12.4399978,55.008 12.0771681,55.1339987 11.7854999,55.386 C11.4938318,55.6380013 11.2500009,56.0043309 11.0539999,56.485 L11.0539999,61 L9.80799993,61 Z M18.096,53.797 C18.6140025,53.797 19.0818312,53.8833325 19.4995,54.056 C19.9171687,54.2286675 20.2718318,54.4736651 20.5635,54.791 C20.8551681,55.1083349 21.0791658,55.4921644 21.2355,55.9425 C21.3918341,56.3928356 21.47,56.8956639 21.47,57.451 C21.47,58.0110028 21.3918341,58.5149978 21.2355,58.963 C21.0791658,59.4110022 20.8551681,59.7936651 20.5635,60.111 C20.2718318,60.4283349 19.9171687,60.6721658 19.4995,60.8425 C19.0818312,61.0128342 18.6140025,61.098 18.096,61.098 C17.5779974,61.098 17.1101687,61.0128342 16.6925,60.8425 C16.2748312,60.6721658 15.9190014,60.4283349 15.625,60.111 C15.3309985,59.7936651 15.1046674,59.4110022 14.946,58.963 C14.7873325,58.5149978 14.708,58.0110028 14.708,57.451 C14.708,56.8956639 14.7873325,56.3928356 14.946,55.9425 C15.1046674,55.4921644 15.3309985,55.1083349 15.625,54.791 C15.9190014,54.4736651 16.2748312,54.2286675 16.6925,54.056 C17.1101687,53.8833325 17.5779974,53.797 18.096,53.797 Z M18.096,60.125 C18.7960035,60.125 19.3186649,59.8905023 19.664,59.4215 C20.009335,58.9524977 20.182,58.2980042 20.182,57.458 C20.182,56.6133291 20.009335,55.9553357 19.664,55.484 C19.3186649,55.0126643 18.7960035,54.777 18.096,54.777 C17.7413315,54.777 17.4333346,54.8376661 17.172,54.959 C16.9106653,55.0803339 16.6925008,55.2553322 16.5175,55.484 C16.3424991,55.7126678 16.2118337,55.9938317 16.1255,56.3275 C16.0391662,56.6611683 15.996,57.0379979 15.996,57.458 C15.996,57.8780021 16.0391662,58.253665 16.1255,58.585 C16.2118337,58.916335 16.3424991,59.1951655 16.5175,59.4215 C16.6925008,59.6478345 16.9106653,59.8216661 17.172,59.943 C17.4333346,60.0643339 17.7413315,60.125 18.096,60.125 Z M26.846,55.078 C26.7899997,55.1806672 26.7036672,55.232 26.587,55.232 C26.5169996,55.232 26.4376671,55.2063336 26.349,55.155 C26.2603329,55.1036664 26.151834,55.0465003 26.0235,54.9835 C25.895166,54.9204997 25.7423342,54.8621669 25.565,54.8085 C25.3876658,54.7548331 25.1776679,54.728 24.935,54.728 C24.7249989,54.728 24.5360008,54.7548331 24.368,54.8085 C24.1999991,54.8621669 24.0565006,54.9356662 23.9375,55.029 C23.8184994,55.1223338 23.7275003,55.2308327 23.6645,55.3545 C23.6014997,55.4781673 23.57,55.6123326 23.57,55.757 C23.57,55.9390009 23.6224995,56.0906661 23.7275,56.212 C23.8325005,56.3333339 23.9713324,56.4383329 24.144,56.527 C24.3166675,56.6156671 24.5126655,56.693833 24.732,56.7615 C24.9513344,56.829167 25.1764988,56.9014996 25.4075,56.9785 C25.6385011,57.0555004 25.8636655,57.1406662 26.083,57.234 C26.3023344,57.3273338 26.4983324,57.4439993 26.671,57.584 C26.8436675,57.7240007 26.9824995,57.895499 27.0875,58.0985 C27.1925005,58.301501 27.245,58.5453319 27.245,58.83 C27.245,59.1566683 27.1866672,59.4588319 27.07,59.7365 C26.9533327,60.0141681 26.7806678,60.254499 26.552,60.4575 C26.3233322,60.660501 26.043335,60.8203327 25.712,60.937 C25.380665,61.0536673 24.9980021,61.112 24.564,61.112 C24.0693308,61.112 23.6213353,61.0315008 23.22,60.8705 C22.8186646,60.7094992 22.4780014,60.5030013 22.198,60.251 L22.492,59.775 C22.5293335,59.714333 22.5736664,59.6676668 22.625,59.635 C22.6763336,59.6023332 22.7439996,59.586 22.828,59.586 C22.9120004,59.586 23.0006662,59.6186663 23.094,59.684 C23.1873338,59.7493337 23.3004993,59.8216663 23.4335,59.901 C23.5665006,59.9803337 23.727499,60.0526663 23.9165,60.118 C24.1055009,60.1833337 24.3423319,60.216 24.627,60.216 C24.8696679,60.216 25.0819991,60.1845003 25.264,60.1215 C25.4460009,60.0584997 25.597666,59.9733339 25.719,59.866 C25.8403339,59.7586661 25.9301664,59.6350007 25.9885,59.495 C26.0468336,59.3549993 26.076,59.2056675 26.076,59.047 C26.076,58.850999 26.0235005,58.688834 25.9185,58.5605 C25.8134995,58.432166 25.6746675,58.3225005 25.502,58.2315 C25.3293324,58.1404995 25.1321678,58.061167 24.9105,57.9935 C24.6888322,57.925833 24.4625011,57.854667 24.2315,57.78 C24.0004988,57.705333 23.7741678,57.6201671 23.5525,57.5245 C23.3308322,57.4288329 23.1336675,57.3086674 22.961,57.164 C22.7883324,57.0193326 22.6495005,56.8408344 22.5445,56.6285 C22.4394995,56.4161656 22.387,56.1583349 22.387,55.855 C22.387,55.584332 22.4429994,55.3241679 22.555,55.0745 C22.6670005,54.8248321 22.8303322,54.6055009 23.045,54.4165 C23.2596677,54.2274991 23.5233317,54.0770006 23.836,53.965 C24.1486682,53.8529994 24.5056646,53.797 24.907,53.797 C25.373669,53.797 25.7924981,53.8704993 26.1635,54.0175 C26.5345018,54.1645007 26.855332,54.366332 27.126,54.623 L26.846,55.078 Z M28.638,63.401 L28.638,53.909 L29.38,53.909 C29.5573342,53.909 29.6693331,53.9953325 29.716,54.168 L29.821,55.008 C30.1243348,54.6393315 30.4708314,54.3430011 30.8605,54.119 C31.2501686,53.8949989 31.6993308,53.783 32.208,53.783 C32.614002,53.783 32.982665,53.8611659 33.314,54.0175 C33.645335,54.1738341 33.9276655,54.4048318 34.161,54.7105 C34.3943345,55.0161682 34.5739994,55.3953311 34.7,55.848 C34.8260006,56.3006689 34.889,56.8209971 34.889,57.409 C34.889,57.9316693 34.8190007,58.4181644 34.679,58.8685 C34.5389993,59.3188356 34.3383346,59.7084984 34.077,60.0375 C33.8156654,60.3665016 33.4948352,60.6254991 33.1145,60.8145 C32.7341648,61.0035009 32.3060024,61.098 31.83,61.098 C31.3913311,61.098 31.0168349,61.0256674 30.7065,60.881 C30.3961651,60.7363326 30.1220012,60.5310013 29.884,60.265 L29.884,63.401 L28.638,63.401 Z M31.795,54.791 C31.388998,54.791 31.0331682,54.8843324 30.7275,55.071 C30.4218318,55.2576676 30.1406679,55.5213316 29.884,55.862 L29.884,59.292 C30.1126678,59.6000015 30.3634986,59.8169994 30.6365,59.943 C30.9095014,60.0690006 31.2139983,60.132 31.55,60.132 C32.2080033,60.132 32.7143316,59.8963357 33.069,59.425 C33.4236684,58.9536643 33.601,58.281671 33.601,57.409 C33.601,56.9469977 33.5601671,56.550335 33.4785,56.219 C33.3968329,55.887665 33.2790008,55.6158344 33.125,55.4035 C32.9709992,55.1911656 32.7820011,55.0360005 32.558,54.938 C32.3339989,54.8399995 32.0796681,54.791 31.795,54.791 Z M38.949,53.797 C39.3736688,53.797 39.7656649,53.868166 40.125,54.0105 C40.4843352,54.152834 40.7946654,54.3581653 41.056,54.6265 C41.3173347,54.8948347 41.5214993,55.2261647 41.6685,55.6205 C41.8155008,56.0148353 41.889,56.4639975 41.889,56.968 C41.889,57.164001 41.8680002,57.2946663 41.826,57.36 C41.7839998,57.4253337 41.7046673,57.458 41.588,57.458 L36.87,57.458 C36.8793334,57.9060022 36.9399995,58.295665 37.052,58.627 C37.1640006,58.958335 37.317999,59.2348322 37.514,59.4565 C37.710001,59.6781678 37.943332,59.8438328 38.214,59.9535 C38.484668,60.0631672 38.7879983,60.118 39.124,60.118 C39.4366683,60.118 39.7061656,60.0818337 39.9325,60.0095 C40.1588345,59.9371663 40.3536659,59.8590004 40.517,59.775 C40.6803342,59.6909996 40.8168328,59.6128337 40.9265,59.5405 C41.0361672,59.4681663 41.1306663,59.432 41.21,59.432 C41.3126672,59.432 41.3919997,59.4716663 41.448,59.551 L41.798,60.006 C41.6439993,60.1926676 41.4596678,60.3548326 41.245,60.4925 C41.0303323,60.6301674 40.8005012,60.7433329 40.5555,60.832 C40.3104988,60.9206671 40.0573347,60.9871664 39.796,61.0315 C39.5346654,61.0758336 39.275668,61.098 39.019,61.098 C38.5289976,61.098 38.0775021,61.0151675 37.6645,60.8495 C37.251498,60.6838325 36.8945015,60.4411683 36.5935,60.1215 C36.2924985,59.8018317 36.0580009,59.4063357 35.89,58.935 C35.7219992,58.4636643 35.638,57.9223364 35.638,57.311 C35.638,56.8163309 35.7138326,56.3543355 35.8655,55.925 C36.0171674,55.4956645 36.2353319,55.1235016 36.52,54.8085 C36.8046681,54.4934984 37.1523313,54.2461676 37.563,54.0665 C37.9736687,53.8868324 38.4356641,53.797 38.949,53.797 Z M38.977,54.714 C38.374997,54.714 37.9013351,54.8878316 37.556,55.2355 C37.210665,55.5831684 36.9960004,56.0649969 36.912,56.681 L40.769,56.681 C40.769,56.3916652 40.7293338,56.1268345 40.65,55.8865 C40.5706663,55.6461655 40.4540008,55.4385009 40.3,55.2635 C40.1459993,55.0884991 39.9581678,54.9531671 39.7365,54.8575 C39.5148322,54.7618329 39.2616681,54.714 38.977,54.714 Z M48.091,55.169 C48.0536665,55.2203336 48.0163336,55.2599999 47.979,55.288 C47.9416665,55.3160001 47.8880004,55.33 47.818,55.33 C47.7479997,55.33 47.6721671,55.3008336 47.5905,55.2425 C47.508833,55.1841664 47.4050007,55.1200003 47.279,55.05 C47.1529994,54.9799996 47.0001676,54.9158336 46.8205,54.8575 C46.6408325,54.7991664 46.4203347,54.77 46.159,54.77 C45.813665,54.77 45.5080014,54.8318327 45.242,54.9555 C44.9759987,55.0791673 44.7531676,55.2576655 44.5735,55.491 C44.3938325,55.7243345 44.2585005,56.006665 44.1675,56.338 C44.0764996,56.669335 44.031,57.0403313 44.031,57.451 C44.031,57.8803355 44.0799996,58.2618317 44.178,58.5955 C44.2760005,58.9291683 44.4136658,59.2091655 44.591,59.4355 C44.7683343,59.6618345 44.9841654,59.8344994 45.2385,59.9535 C45.4928347,60.0725006 45.7786651,60.132 46.096,60.132 C46.3993349,60.132 46.6489991,60.0958337 46.845,60.0235 C47.041001,59.9511663 47.2043327,59.8706671 47.335,59.782 C47.4656674,59.6933329 47.5729996,59.6128337 47.657,59.5405 C47.7410005,59.4681663 47.8249996,59.432 47.909,59.432 C48.0163339,59.432 48.0956665,59.4716663 48.147,59.551 L48.497,60.006 C48.1889985,60.3840019 47.8040024,60.6604991 47.342,60.8355 C46.8799977,61.0105009 46.3923359,61.098 45.879,61.098 C45.4356645,61.098 45.0238353,61.0163341 44.6435,60.853 C44.2631648,60.6896658 43.9330014,60.4528349 43.653,60.1425 C43.3729986,59.8321651 43.1525009,59.4506689 42.9915,58.998 C42.8304992,58.5453311 42.75,58.0296696 42.75,57.451 C42.75,56.923664 42.8234993,56.4360022 42.9705,55.988 C43.1175008,55.5399978 43.3321653,55.153835 43.6145,54.8295 C43.8968348,54.505165 44.2456646,54.2520009 44.661,54.07 C45.0763355,53.8879991 45.5523307,53.797 46.089,53.797 C46.5836692,53.797 47.0223315,53.8774992 47.405,54.0385 C47.7876686,54.1995008 48.1259986,54.4269985 48.42,54.721 L48.091,55.169 Z M51.7170001,61.112 C51.1569973,61.112 50.7265016,60.9556682 50.4255001,60.643 C50.1244986,60.3303318 49.9740001,59.8800029 49.9740001,59.292 L49.9740001,54.952 L49.1200001,54.952 C49.045333,54.952 48.9823337,54.9298336 48.9310001,54.8855 C48.8796665,54.8411664 48.8540001,54.7723338 48.8540001,54.679 L48.8540001,54.182 L50.0160001,54.035 L50.3030001,51.844 C50.3123334,51.7739997 50.3426665,51.7168336 50.3940001,51.6725 C50.4453337,51.6281664 50.5106663,51.606 50.5900001,51.606 L51.2200001,51.606 L51.2200001,54.049 L53.2500001,54.049 L53.2500001,54.952 L51.2200001,54.952 L51.2200001,59.208 C51.2200001,59.5066682 51.2923327,59.7283326 51.4370001,59.873 C51.5816675,60.0176674 51.7683323,60.09 51.9970001,60.09 C52.1276674,60.09 52.2408329,60.0725002 52.3365001,60.0375 C52.4321672,60.0024998 52.5149997,59.9640002 52.5850001,59.922 C52.6550004,59.8799998 52.7144998,59.8415002 52.7635001,59.8065 C52.8125003,59.7714998 52.8556665,59.754 52.8930001,59.754 C52.9583337,59.754 53.0166665,59.7936663 53.0680001,59.873 L53.4320001,60.468 C53.2173323,60.6686677 52.9583349,60.8261661 52.6550001,60.9405 C52.3516652,61.0548339 52.0390017,61.112 51.7170001,61.112 Z" fill="#000000"></path>
        </g>
    </g>
</svg>