<?xml version="1.0" encoding="UTF-8" standalone="no"?>
<svg width="61px" height="87px" viewBox="0 0 61 87" version="1.1" xmlns="http://www.w3.org/2000/svg" xmlns:xlink="http://www.w3.org/1999/xlink">
    <!-- Generator: Sketch 48.2 (47327) - http://www.bohemiancoding.com/sketch -->
    <title>Salaried</title>
    <desc>Created with Sketch.</desc>
    <defs></defs>
    <g id="Page3" stroke="none" stroke-width="1" fill="none" fill-rule="evenodd" transform="translate(-114.000000, -154.000000)">
        <g id="Salaried" transform="translate(114.000000, 154.000000)">
            <text font-family="Lato-Bold, Lato" font-size="16" font-weight="bold" fill="#333333">
                <tspan x="1.392" y="86">Salaried</tspan>
            </text>
            <g id="Group" opacity="0.5" fill="#000000">
                <path d="M38.5927156,1.37614679e-05 C43.6408349,1.37614679e-05 47.7330826,4.09226147 47.7330826,9.14038073 C47.7330826,14.1885 43.6408349,18.2807477 38.5927156,18.2807477 C33.5445963,18.2807477 29.4523486,14.1885 29.4523486,9.14038073 C29.4523486,4.09226147 33.5445963,1.37614679e-05 38.5927156,1.37614679e-05" id="Fill-1"></path>
                <path d="M19.2964266,45.7019174 L19.2964266,48.7485688 L13.2028486,48.7485688 L13.2028486,45.7019174 L2.03128899,45.7019174 L2.03128899,55.8577431 C2.03128899,58.092055 3.85936239,59.9199908 6.09367431,59.9199908 L26.4056009,59.9199908 C28.6399128,59.9199908 30.4679862,58.092055 30.4679862,55.8577431 L30.4679862,45.7019174 L19.2964266,45.7019174 Z" id="Fill-3"></path>
                <polygon id="Fill-5" points="15.233945 46.7174312 17.2652752 46.7174312 17.2652752 42.6550459 15.233945 42.6550459"></polygon>
                <path d="M12.1872248,31.4834587 C12.1872248,30.3663028 13.1012615,29.4522661 14.2184174,29.4522661 L18.2806651,29.4522661 C19.3979587,29.4522661 20.3119954,30.3663028 20.3119954,31.4834587 L12.1872248,31.4834587 Z M28.4367661,31.4834587 L22.3431881,31.4834587 C22.3431881,29.2491468 20.5151147,27.4210734 18.2806651,27.4210734 L14.2184174,27.4210734 C11.9839679,27.4210734 10.1560321,29.2491468 10.1560321,31.4834587 L4.06245413,31.4834587 C1.8281422,31.4834587 -6.88073396e-05,33.3115321 -6.88073396e-05,35.545844 L-6.88073396e-05,43.6704771 L13.2028211,43.6704771 L13.2028211,40.6238257 L19.2963991,40.6238257 L19.2963991,43.6704771 L32.4991514,43.6704771 L32.4991514,35.545844 C32.4991514,33.3115321 30.671078,31.4834587 28.4367661,31.4834587 Z" id="Fill-7"></path>
                <path d="M60.5296239,50.5767661 L57.2797156,27.4210321 C57.0764587,25.5930963 55.6546239,24.2726835 53.8266881,23.9681422 L43.6705872,22.3430505 L38.5927431,25.0210321 L33.5147615,22.3430505 L23.2571009,23.866445 C22.0385229,24.0695642 21.0229266,24.7804817 20.4134312,25.796078 C22.0385229,26.4054358 23.3587982,27.725711 23.9680183,29.4523624 L28.4367798,29.4523624 C31.7882477,29.4523624 34.5302202,32.1943349 34.5302202,35.5458028 L34.5302202,45.7019037 L32.4991651,45.7019037 L32.4991651,55.8577294 C32.4991651,56.3653899 32.3974679,56.9750229 32.2960459,57.4828211 C39.2021009,58.2952982 45.7019174,57.9904817 51.9986147,56.5686468 L53.8266881,38.5927294 L54.7407248,55.959289 C55.7561835,55.6544725 56.7719174,55.3500688 57.8890734,55.0452523 C59.6155872,54.3343349 60.7327431,52.5062615 60.5296239,50.5767661" id="Fill-8"></path>
            </g>
        </g>
    </g>
</svg>