<?xml version="1.0" encoding="UTF-8" standalone="no"?>
<svg width="110px" height="106px" viewBox="0 0 110 106" version="1.1" xmlns="http://www.w3.org/2000/svg" xmlns:xlink="http://www.w3.org/1999/xlink">
    <!-- Generator: Sketch 48.2 (47327) - http://www.bohemiancoding.com/sketch -->
    <title>Self_Employed</title>
    <desc>Created with Sketch.</desc>
    <defs></defs>
    <g id="Page3" stroke="none" stroke-width="1" fill="none" fill-rule="evenodd" transform="translate(-659.000000, -154.000000)">
        <g id="Self_Employed" transform="translate(659.000000, 154.000000)">
            <text id="Self-Employed/-Busin" font-family="Lato-Bold, Lato" font-size="16" font-weight="bold" fill="#333333">
                <tspan x="0.096" y="86">Self-Employed/</tspan>
                <tspan x="8.288" y="105">Businessman</tspan>
            </text>
            <g id="Page-1" opacity="0.5" transform="translate(26.000000, 0.000000)" fill="#000000">
                <path d="M50.6979281,38.2710216 C49.1349065,38.1351942 40.0960576,35.3487194 36.7662734,33.9215252 C36.6982158,37.9313094 36.5622446,44.7271367 36.4943309,45.2028201 C36.4262734,45.950446 35.3390791,49.3485755 32.0090072,53.7659856 C32.0090072,53.7659856 31.7372086,50.7756259 31.4652662,47.1737554 C31.2613813,44.4553381 29.4944748,43.0282878 29.4944748,41.6009496 C29.4944748,41.2612374 30.7856978,40.3776403 30.7856978,39.4943309 C30.7856978,38.6108777 30.5138993,37.7274245 28.6789353,37.7274245 C26.8441151,37.7274245 26.5721727,38.6108777 26.5721727,39.4943309 C26.5721727,40.3776403 27.8633957,41.2612374 27.8633957,41.6009496 C27.8633957,43.0282878 26.1644029,44.4553381 25.8926043,47.1737554 C25.6208058,50.7756259 25.3488633,53.7659856 25.3488633,53.7659856 C22.0189353,49.3485755 20.9315971,45.950446 20.8635396,45.2028201 C20.7956259,44.6593669 20.6596547,37.9313094 20.5918849,33.9215252 C17.2616691,35.3487194 8.22310791,38.1351942 6.66008633,38.2710216 C4.8251223,38.4069928 4.34943885,38.9505899 3.46584173,40.5136115 C2.51447482,42.076777 0.339798561,49.824259 -5.75539568e-05,54.7852662 C2.85418705,55.8726043 16.1064173,59.9501583 28.7468489,59.9501583 C41.3874245,59.9501583 54.6396547,55.8726043 57.3579281,54.7852662 C57.0182158,49.824259 54.8435396,42.076777 53.8918849,40.5136115 C53.0085755,38.9505899 52.5328921,38.4749065 50.6979281,38.2710216" id="Fill-1"></path>
                <path d="M17.9413525,16.6598273 C18.0092662,17.4753669 18.1452374,19.7179568 18.3491223,21.5529209 C18.4849496,23.3878849 19.5722878,23.1160863 19.7763165,22.9122014 C19.7763165,25.4265899 21.8150216,27.8732086 21.8150216,27.8732086 C22.7663885,29.3683165 26.0966043,31.4071655 28.746964,31.4071655 C23.8538705,31.4071655 21.8150216,29.4362302 21.8150216,29.4362302 L21.8150216,33.2419856 L27.7954532,37.3195396 L29.6304173,37.3195396 L35.6108489,33.2419856 L35.6108489,27.8051511 C35.6108489,27.8051511 37.6496978,25.2907626 37.6496978,22.8441439 C37.8535827,23.0480288 38.940777,23.3199712 39.0768921,21.4850072 C39.2127194,19.6500432 39.4166043,17.4074532 39.4846619,16.5919137 C39.5525755,15.7763741 38.4652374,15.9123453 38.3971799,16.3880288 C38.3971799,15.7084604 38.3292662,15.4366619 38.3971799,15.3686043 C38.4652374,15.3006906 39.0768921,14.6211223 39.0768921,14.0094676 C39.0768921,13.3978129 39.4166043,12.9900432 39.4166043,11.8346475 L39.4166043,6.94155396 C39.4166043,6.19407194 38.6691223,6.60184173 38.6691223,6.19407194 C38.6691223,5.78630216 38.193295,3.95133813 35.7466763,3.95133813 C36.4263885,3.40774101 36.8341583,1.7087482 36.6981871,0.961122302 C36.4943022,1.50486331 35.4748777,1.84457554 34.9312806,1.84457554 C32.1449496,1.91263309 31.0574676,0.0776690647 27.7275396,0.145726619 C23.3101295,0.213640288 21.6791942,2.52428777 21.6791942,3.95133813 C19.2325755,3.95133813 18.7568921,5.78630216 18.7568921,6.19407194 C18.7568921,6.60184173 18.0092662,6.12615827 18.0092662,6.94155396 L18.0092662,11.8346475 C18.0092662,12.9900432 18.3491223,13.3978129 18.3491223,14.0094676 C18.3491223,14.6211223 18.960777,15.3006906 19.0286906,15.3686043 C19.0966043,15.4366619 19.0286906,15.7084604 19.0286906,16.3880288 C19.0286906,15.980259 17.9413525,15.7763741 17.9413525,16.6598273" id="Fill-4"></path>
            </g>
        </g>
    </g>
</svg>