<?xml version="1.0" encoding="UTF-8" standalone="no"?>
<svg width="75px" height="108px" viewBox="0 0 75 108" version="1.1" xmlns="http://www.w3.org/2000/svg" xmlns:xlink="http://www.w3.org/1999/xlink">
    <!-- Generator: Sketch 48.2 (47327) - http://www.bohemiancoding.com/sketch -->
    <title>Single_Working</title>
    <desc>Created with Sketch.</desc>
    <defs></defs>
    <g id="Page2" stroke="none" stroke-width="1" fill="none" fill-rule="evenodd" transform="translate(-118.000000, -455.000000)">
        <g id="Single_Working" transform="translate(118.000000, 455.000000)">
            <text id="Single-And-Working" font-family="Lato-Bold, Lato" font-size="16" font-weight="bold" fill="#333333">
                <tspan x="0.076" y="86">Single And</tspan>
                <tspan x="6.708" y="105">Working</tspan>
            </text>
            <g id="Group-2" opacity="0.5" transform="translate(25.000000, 0.000000)" fill="#000000">
                <path d="M11.6726638,14.8739239 L12.6327907,14.8739239 L13.592537,14.8739239 L14.0724101,16.7685539 L13.9994715,16.8837336 C13.6038266,17.2135433 13.1193869,17.3788288 12.6322833,17.3792093 C12.1453066,17.3790825 11.6615011,17.213797 11.2662368,16.8847484 L11.1927907,16.7685539 L11.6726638,14.8739239 Z M12.6327907,31.1670317 L10.2330444,28.1356998 L11.6153277,17.9504144 C11.9432347,18.0732051 12.2875053,18.1373911 12.6322833,18.1371374 L12.6327907,18.1371374 L12.6343129,18.1371374 C12.9787104,18.1371374 13.322981,18.0729514 13.6501268,17.9501607 L15.0327907,28.1356998 L12.6327907,31.1670317 Z M1.67701903,36.9256364 L1.67701903,38.2604778 L0.153298097,38.2604778 L0.153298097,48.8696956 L4.19511628,48.8696956 L4.19511628,38.2604778 L2.67164905,38.2604778 L2.67164905,36.9236068 C3.58978858,36.6884271 4.24255814,35.8301607 4.18522199,34.8489767 C4.08640592,33.1689767 4.04200846,31.6386596 4.04200846,30.2459746 C4.03325581,24.1288922 4.92488372,20.6925285 5.80116279,18.8992516 L5.80116279,56.7907104 C5.80116279,58.5159958 7.19980973,59.9138816 8.92408034,59.9138816 C10.6488584,59.9138816 12.0475053,58.5159958 12.0475053,56.7907104 L12.0475053,33.987666 L13.2184567,33.987666 L13.2184567,56.7907104 C13.2184567,58.5159958 14.6171036,59.9138816 16.3413742,59.9138816 C18.0660254,59.9138816 19.4647992,58.5159958 19.4647992,56.7907104 L19.4647992,18.9100338 C19.6142283,19.2172643 19.7654334,19.5693996 19.9142283,19.9803932 C20.6266173,21.9544313 21.225222,25.192148 21.2229387,30.2459746 C21.2234461,31.639167 21.1786681,33.1693573 21.0802326,34.8494841 C21.0155391,35.9634799 21.8660677,36.9198013 22.9805708,36.9844947 C23.0204017,36.986778 23.0602326,36.9880465 23.1003171,36.9880465 C24.1623044,36.9880465 25.0526638,36.1584482 25.1157082,35.0846638 C25.217315,33.3341353 25.2647569,31.7258055 25.2647569,30.2459746 C25.2549894,22.6219154 24.0369767,18.4023805 22.3760042,15.8650021 C21.5467865,14.605129 20.5758774,13.7976025 19.6789218,13.3504567 C18.8153277,12.9147273 18.0562579,12.816926 17.6009937,12.8112178 C17.5715645,12.8096956 17.542389,12.8066512 17.5123256,12.8066512 L7.75338266,12.8066512 C7.71938689,12.8066512 7.68653277,12.8099493 7.65317125,12.8117252 C7.19625793,12.8181945 6.44289641,12.9180254 5.58564482,13.350203 C4.22682875,14.023649 2.76234672,15.4978985 1.73714588,18.1093573 C0.699767442,20.7313446 0.00361522199,24.5222537 -6.34249473e-05,30.2459746 C-6.34249473e-05,31.7252981 0.0477589852,33.3341353 0.1505074,35.0856786 C0.203403805,35.9892304 0.843234672,36.7167146 1.67701903,36.9256364 Z" id="Fill-1"></path>
                <path d="M12.6328414,2.53699789e-05 C15.7718689,2.53699789e-05 18.3164778,2.5447611 18.3164778,5.68366173 C18.3164778,8.82268922 15.7718689,11.3672981 12.6328414,11.3672981 C9.49381395,11.3672981 6.94920507,8.82268922 6.94920507,5.68366173 C6.94920507,2.5447611 9.49381395,2.53699789e-05 12.6328414,2.53699789e-05" id="Fill-4"></path>
            </g>
        </g>
    </g>
</svg>