<?xml version="1.0" encoding="UTF-8" standalone="no"?>
<svg width="104px" height="108px" viewBox="0 0 104 108" version="1.1" xmlns="http://www.w3.org/2000/svg" xmlns:xlink="http://www.w3.org/1999/xlink">
    <!-- Generator: Sketch 48.2 (47327) - http://www.bohemiancoding.com/sketch -->
    <title>Sole_Proprietorship</title>
    <desc>Created with Sketch.</desc>
    <defs></defs>
    <g id="Page3" stroke="none" stroke-width="1" fill="none" fill-rule="evenodd" transform="translate(-211.000000, -154.000000)">
        <g id="Sole_Proprietorship" transform="translate(210.000000, 154.000000)">
            <text id="Sole-Proprietorship" font-family="Lato-Bold, Lato" font-size="16" font-weight="bold" fill="#333333">
                <tspan x="37.716" y="86">Sole</tspan>
                <tspan x="0.3" y="105">Proprietorship</tspan>
            </text>
            <g id="Page-1" opacity="0.5" transform="translate(26.000000, 0.000000)" fill="#000000">
                <path d="M37.3696364,32.5410144 C37.2993014,35.7520191 32.5397799,38.3429282 26.6795885,38.3429282 C20.8176746,38.3429282 16.0598756,35.7520191 15.9904019,32.5410144 C7.02370335,33.3600574 -2.8708134e-05,40.8991005 -2.8708134e-05,50.077378 C-2.8708134e-05,59.7563254 7.80628708,59.7804402 17.4642775,59.7804402 L17.6109761,59.7804402 L35.748201,59.7804402 L35.89289,59.7804402 C45.5514545,59.7804402 53.3574833,59.7563254 53.3574833,50.077378 C53.3589187,40.8991005 46.336622,33.3600574 37.3696364,32.5410144" id="Fill-1"></path>
                <path d="M18.3676077,8.97470813 C18.3676077,8.97470813 22.2455024,10.8582488 26.6794737,10.978823 C31.1131579,10.8582488 34.9927751,8.97470813 34.9927751,8.97470813 C37.8021531,10.0839904 36.4706699,17.9864785 36.4706699,17.9876268 C37.1731579,17.4981531 37.8156459,17.2432249 38.3404306,17.1117416 C37.5676077,25.5117416 32.6430144,31.9877225 26.6794737,31.9877225 C20.7176555,31.9877225 15.7910526,25.5117416 15.0185167,17.1117416 C15.5430144,17.2432249 16.1869378,17.4981531 16.8882775,17.9876268 C16.8882775,17.9864785 15.5579426,10.0839904 18.3676077,8.97470813 M13.3588995,16.6237033 C13.3666507,16.7497321 13.3789952,16.8771962 13.3899043,17.0032249 C14.2385167,26.6181531 19.8644498,34.0460957 26.6794737,34.0460957 C33.4942105,34.0460957 39.1201435,26.6170048 39.9690431,17.0032249 C39.9811005,16.8771962 39.9920096,16.7497321 40.0014833,16.6237033 C40.0611962,16.206 40.1019617,15.7828421 40.1263636,15.3559522 C40.1438756,15.0628421 40.1550718,14.7685837 40.1550718,14.4717416 C40.1550718,13.7396842 40.1019617,13.0208325 40.0014833,12.3197799 C39.015933,5.50762679 33.4264593,0.287052632 26.6794737,0.287052632 C19.932201,0.287052632 14.3430144,5.50762679 13.3588995,12.3197799 C13.2569856,13.0222679 13.2055981,13.7408325 13.2055981,14.4717416 C13.2055981,14.7685837 13.2165072,15.0628421 13.2325837,15.3559522 C13.2569856,15.7828421 13.2977512,16.206 13.3588995,16.6237033" id="Fill-4"></path>
            </g>
        </g>
    </g>
</svg>