<?xml version="1.0" encoding="UTF-8" standalone="no"?>
<svg width="49px" height="49px" viewBox="0 0 49 49" version="1.1" xmlns="http://www.w3.org/2000/svg" xmlns:xlink="http://www.w3.org/1999/xlink">
    <!-- Generator: Sketch 48.2 (47327) - http://www.bohemiancoding.com/sketch -->
    <title>TickMark_Selected_left</title>
    <desc>Created with Sketch.</desc>
    <defs></defs>
    <g id="Page1" stroke="none" stroke-width="1" fill="none" fill-rule="evenodd" transform="translate(-50.000000, -669.000000)">
        <g id="TickMark_Selected_left" transform="translate(50.000000, 669.000000)">
            <path d="M24.4647987,0.103396203 C10.971359,0.103396203 2.07188161e-05,11.0515882 2.07188161e-05,24.5165608 C2.07188161e-05,37.9815333 10.971359,48.9296219 24.4647987,48.9296219 C37.9582385,48.9296219 48.9295767,37.9815333 48.9295767,24.5165608 C48.9295767,11.0515882 37.9582385,0.103396203 24.4647987,0.103396203" id="Fill-3" fill="#D0021B"></path>
            <path d="M17.1194294,13.2130051 C16.2748268,13.2118679 15.5892412,13.8941464 15.5881017,14.7369671 C15.5873765,15.2553954 15.8505055,15.7387793 16.2867402,16.0202709 L29.0566789,24.5159819 L16.2867402,33.0115895 C15.5838543,33.4789502 15.3936556,34.426697 15.8620044,35.1282034 C16.3304569,35.8296063 17.2801038,36.0194038 17.9830932,35.5519397 L32.6618564,25.7867772 C33.3648459,25.3196232 33.5552518,24.3722899 33.0872137,23.6708869 C32.9750214,23.5026949 32.830404,23.3584861 32.6618564,23.2465304 L17.9830932,13.4812646 C17.7288734,13.3069734 17.427829,13.2134186 17.1194294,13.2130051" id="Fill-1" fill="#FFFFFF" transform="translate(24.465901, 24.510635) scale(-1, 1) translate(-24.465901, -24.510635) "></path>
        </g>
    </g>
</svg>