<?xml version="1.0" encoding="UTF-8" standalone="no"?>
<svg width="42px" height="42px" viewBox="0 0 42 42" version="1.1" xmlns="http://www.w3.org/2000/svg" xmlns:xlink="http://www.w3.org/1999/xlink">
    <!-- Generator: Sketch 48.2 (47327) - http://www.bohemiancoding.com/sketch -->
    <title>TickMark_Selected</title>
    <desc>Created with Sketch.</desc>
    <defs></defs>
    <g id="Page1" stroke="none" stroke-width="1" fill="none" fill-rule="evenodd" transform="translate(-307.000000, -528.000000)">
        <g id="TickMark_Selected" transform="translate(308.000000, 529.000000)">
            <path d="M20,0 C31.0456301,0 40,8.95426829 40,20 C40,31.0457317 31.0456301,40 20,40 C8.95436992,40 0,31.0457317 0,20 C0,8.95426829 8.95436992,0 20,0 Z" id="Stroke-3" stroke="#D0021B" stroke-width="2" fill="#D0021B"></path>
            <path d="M32.7210257,11.4805834 C32.3023519,11.0608366 31.8830746,10.6420959 31.4633949,10.2222485 C31.3050593,10.0638876 31.1268061,10.0005031 30.9545886,10.0010061 C30.9447303,10 30.9348721,10.0005031 30.9249132,10 C30.914552,10.0005031 30.9045932,10 30.8948355,10.0010061 C30.7220144,10.0010061 30.5442641,10.0638876 30.3859286,10.2222485 C25.2452545,15.3643482 20.1038763,20.5059448 14.9625986,25.6485476 C13.1793622,23.864523 11.3962264,22.0816051 9.613493,20.2980836 C9.3204616,20.0050054 8.83006404,20.0050054 8.53703265,20.2980836 C8.11785591,20.7173274 7.69857857,21.1365711 7.27889886,21.556318 C6.98546509,21.8498993 6.98546509,22.3399728 7.27889886,22.633051 C9.66057116,25.015406 12.0425452,27.3979621 14.4246199,29.779814 C14.7181543,30.0733953 15.2081495,30.0733953 15.5010803,29.779814 C21.2412968,24.0392834 26.9808092,18.2987527 32.7210257,12.5572159 C33.0145601,12.2646407 33.0145601,11.7736617 32.7210257,11.4805834" id="Fill-1" fill="#FFFFFF"></path>
        </g>
    </g>
</svg>