<?xml version="1.0" encoding="UTF-8" standalone="no"?>
<svg width="66px" height="49px" viewBox="0 0 66 49" version="1.1" xmlns="http://www.w3.org/2000/svg" xmlns:xlink="http://www.w3.org/1999/xlink">
    <!-- Generator: Sketch 48.2 (47327) - http://www.bohemiancoding.com/sketch -->
    <title>TickMarkICON</title>
    <desc>Created with Sketch.</desc>
    <defs></defs>
    <g id="Home-Page-Option-2-With-Plan" stroke="none" stroke-width="1" fill="none" fill-rule="evenodd" transform="translate(-686.000000, -196.000000)">
        <g id="Group-2" transform="translate(37.000000, 186.000000)">
            <g id="TickMarkICON" transform="translate(649.000000, 10.000000)">
                <path d="M31.9999704,1.48148148e-05 C23.1821926,1.48148148e-05 15.9999704,7.14668148 15.9999704,16.0000148 C15.9999704,24.8532741 23.146637,32.0000148 31.9999704,32.0000148 C40.8533778,32.0000148 47.9999704,24.8532741 47.9999704,16.0000148 C47.9999704,7.14668148 40.8177481,1.48148148e-05 31.9999704,1.48148148e-05" id="Path" fill="#FFFFFF"></path>
                <path d="M31.9999704,29.2977185 C24.6756,29.2977185 18.7021926,23.3244593 18.7021926,16.0000148 C18.7021926,8.67557037 24.6756,2.70223704 31.9999704,2.70223704 C39.3244148,2.70223704 45.2621926,8.67557037 45.2621926,16.0000148 C45.2621926,23.3244593 39.3244148,29.2977185 31.9999704,29.2977185" id="Path" fill="#43AA8B"></path>
                <path d="M37.1555259,10.2400148 L28.5155259,18.8800148 L26.5955259,16.9600148 C26.0621926,16.4266815 25.2089333,16.4266815 24.6756,16.9600148 C24.1421926,17.4933481 24.1421926,18.3466815 24.6756,18.8800148 L28.5155259,22.7199407 L39.0756,12.1600148 C39.6088593,11.6266815 39.6088593,10.7733481 39.0756,10.2400148 C38.5422667,9.70668148 37.6888593,9.70668148 37.1555259,10.2400148" id="Path" fill="#FFFFFF"></path>
                <text id="With-Plan" opacity="0.8" font-family="Lato-Regular, Lato" font-size="16" font-weight="normal" letter-spacing="-0.255999982" fill="#333333">
                    <tspan x="0" y="48">With Plan</tspan>
                </text>
            </g>
        </g>
    </g>
</svg>