<?xml version="1.0" encoding="UTF-8" standalone="no"?>
<svg width="82px" height="82px" viewBox="0 0 82 82" version="1.1" xmlns="http://www.w3.org/2000/svg" xmlns:xlink="http://www.w3.org/1999/xlink">
    <!-- Generator: Sketch 48.2 (47327) - http://www.bohemiancoding.com/sketch -->
    <title>Travel_Ins_ICON</title>
    <desc>Created with Sketch.</desc>
    <defs>
        <polygon id="path-1" points="3.99123768e-05 0.109019663 42.0072938 0.109019663 42.0072938 50.8566986 3.99123768e-05 50.8566986"></polygon>
    </defs>
    <g id="ICONS" stroke="none" stroke-width="1" fill="none" fill-rule="evenodd" transform="translate(-403.000000, -127.000000)">
        <g id="Travel_Ins_ICON" transform="translate(404.000000, 128.000000)">
            <circle id="Oval-3" stroke="#D0021B" stroke-width="2" fill="#FFFFFF" cx="40" cy="40" r="40"></circle>
            <g id="Page-1" transform="translate(19.000000, 17.000000)">
                <g id="Group-3" transform="translate(0.000000, 0.034239)">
                    <mask id="mask-2" fill="white">
                        <use xlink:href="#path-1"></use>
                    </mask>
                    <g id="Clip-2"></g>
                    <path d="M21.0673837,0.108976685 C26.6508809,4.21791489 34.1422938,3.86736152 41.5764034,0.439330618 C42.5667489,11.6796733 41.9303949,20.9043699 38.8258416,28.7702604 C35.6536702,36.8073447 29.8370916,43.7808784 21.0673837,50.8566986 C12.2837798,43.7791593 6.37637528,36.8179458 3.16036685,28.8033531 C0.00782191011,20.9467744 -0.617930899,11.7296705 0.542032584,0.431164888 C7.98172921,3.86936713 15.4782994,4.21791489 21.0673837,0.108976685" id="Fill-1" fill="#000000" mask="url(#mask-2)"></path>
                </g>
                <path d="M26.255459,36.2208447 L22.673282,33.3376256 C22.4111191,34.2988896 22.1054056,35.1287857 21.8435292,35.7403559 L26.561459,37.1381284 L26.5176219,36.7451705 C26.4737848,36.4830076 26.3428466,36.3082323 26.255459,36.2208447" id="Fill-4" fill="#FFFFFF"></path>
                <path d="M36.914502,25.4307059 C36.8272576,25.0374615 36.5652379,24.7316048 36.2155441,24.5569728 L23.6781396,18.3537396 L23.6781396,23.0718126 L37.0894205,26.260602 L36.914502,25.4307059 Z" id="Fill-6" fill="#FFFFFF"></path>
                <path d="M15.7711626,36.2208447 C15.683775,36.3082323 15.5526935,36.4830076 15.5526935,36.7451705 L15.4653059,37.1381284 L20.1832357,35.7403559 C19.921216,35.1287857 19.6153593,34.2550525 19.3531963,33.3376256 L15.7711626,36.2208447 Z" id="Fill-8" fill="#FFFFFF"></path>
                <path d="M18.3485537,18.3537539 L5.85469972,24.5569871 C5.50514916,24.7316191 5.24312949,25.0374758 5.15574185,25.4307202 L4.98096657,26.2606163 L18.3922475,23.071827 L18.3922475,18.3537539 L18.3485537,18.3537539 Z" id="Fill-10" fill="#FFFFFF"></path>
                <path d="M22.9354736,28.1828435 L22.9354736,28.1391497 L22.9354736,12.5436076 C22.9354736,9.96624522 21.8435579,6.60253736 21.0133753,6.60253736 C20.1831927,6.60253736 19.0911337,10.009939 19.0911337,12.5436076 L19.0911337,28.1828435 C19.0911337,29.7990851 19.921173,33.031998 20.6201309,34.8665654 L20.6201309,31.0222256 C20.6201309,30.8037565 20.7950494,30.6291244 21.0133753,30.6291244 C21.2315579,30.6291244 21.4064764,30.8037565 21.4064764,31.0222256 L21.4064764,34.8665654 C22.0617404,33.031998 22.9354736,29.7990851 22.9354736,28.1828435" id="Fill-12" fill="#FFFFFF"></path>
            </g>
        </g>
    </g>
</svg>