<?xml version="1.0" encoding="UTF-8" standalone="no"?>
<svg width="50px" height="62px" viewBox="0 0 50 62" version="1.1" xmlns="http://www.w3.org/2000/svg" xmlns:xlink="http://www.w3.org/1999/xlink">
    <!-- Generator: Sketch 48.2 (47327) - http://www.bohemiancoding.com/sketch -->
    <title>ViewAll</title>
    <desc>Created with Sketch.</desc>
    <defs></defs>
    <g id="Artboard" stroke="none" stroke-width="1" fill="none" fill-rule="evenodd" transform="translate(-16.000000, -8.000000)">
        <g id="ViewAll" transform="translate(13.000000, 8.000000)">
            <path d="M27.5,0 C15.05,0 5,10.05 5,22.5 C5,34.95 15.05,45 27.5,45 C39.95,45 50,34.95 50,22.5 C50,10.05 39.95,0 27.5,0 M27.5,2.50003125 C38.5499375,2.50003125 47.4999688,11.4499688 47.4999688,22.5 C47.4999688,33.5499375 38.5499375,42.4999687 27.5,42.4999687 C16.4499688,42.4999687 7.50003125,33.5499375 7.50003125,22.5 C7.50003125,11.4499688 16.4499688,2.50003125 27.5,2.50003125" id="Fill-5" fill="#333333" fill-rule="nonzero"></path>
            <g id="Group-6" transform="translate(7.000000, 2.000000)" fill="#CC0000" fill-rule="nonzero">
                <path d="M0.0783671958,20.5000228 C0.0783671958,9.25176878 9.25181429,0.0784354497 20.4999545,0.0784354497 C31.7482085,0.0784354497 40.8669386,9.25176878 40.8669386,20.5000228 C40.8669386,31.7482767 31.7482085,40.9214963 20.4999545,40.9214963 C9.25181429,40.9214963 0.0783671958,31.7482767 0.0783671958,20.5000228 Z" id="Path"></path>
                <path d="M8.46265985,20.4999994 C8.46265985,13.8760139 13.8648121,8.47392867 20.4887305,8.47392867 C27.112716,8.47392867 32.482646,13.8760139 32.482646,20.4999994 C32.482646,27.1239848 27.112716,32.5260031 20.4887305,32.5260031 C13.8648121,32.5260031 8.46265985,27.1239848 8.46265985,20.4999994 Z" id="Path-Copy" stroke="#FFFFFF" stroke-width="2"></path>
            </g>
            <path d="M3,51.28 L4.085,51.28 C4.20633394,51.28 4.30433296,51.310333 4.379,51.371 C4.45366704,51.431667 4.50966648,51.5086662 4.547,51.602 L7.382,58.679 C7.44733366,58.8376675 7.50683306,59.0103324 7.5605,59.197 C7.61416693,59.3836676 7.66666641,59.5773323 7.718,59.778 C7.76000021,59.5773323 7.80549975,59.3836676 7.8545,59.197 C7.90350024,59.0103324 7.96066634,58.8376675 8.026,58.679 L10.847,51.602 C10.8796668,51.5226663 10.9356663,51.449167 11.015,51.3815 C11.0943337,51.313833 11.1923327,51.28 11.309,51.28 L12.401,51.28 L8.313,61.311 L7.088,61.311 L3,51.28 Z M14.872,54.22 L14.872,61.311 L13.626,61.311 L13.626,54.22 L14.872,54.22 Z M15.152,51.994 C15.152,52.1153339 15.1275002,52.2284995 15.0785,52.3335 C15.0294998,52.4385005 14.9641671,52.5318329 14.8825,52.6135 C14.8008329,52.6951671 14.7063339,52.7593331 14.599,52.806 C14.4916661,52.8526669 14.3773339,52.876 14.256,52.876 C14.1346661,52.876 14.0215005,52.8526669 13.9165,52.806 C13.8114995,52.7593331 13.7181671,52.6951671 13.6365,52.6135 C13.5548329,52.5318329 13.4906669,52.4385005 13.444,52.3335 C13.3973331,52.2284995 13.374,52.1153339 13.374,51.994 C13.374,51.8726661 13.3973331,51.7571672 13.444,51.6475 C13.4906669,51.5378328 13.5548329,51.4421671 13.6365,51.3605 C13.7181671,51.2788329 13.8114995,51.2146669 13.9165,51.168 C14.0215005,51.1213331 14.1346661,51.098 14.256,51.098 C14.3773339,51.098 14.4916661,51.1213331 14.599,51.168 C14.7063339,51.2146669 14.8008329,51.2788329 14.8825,51.3605 C14.9641671,51.4421671 15.0294998,51.5378328 15.0785,51.6475 C15.1275002,51.7571672 15.152,51.8726661 15.152,51.994 Z M19.877,54.108 C20.3016688,54.108 20.6936649,54.179166 21.053,54.3215 C21.4123351,54.463834 21.7226654,54.6691653 21.984,54.9375 C22.2453346,55.2058347 22.4494993,55.5371647 22.5965,55.9315 C22.7435007,56.3258353 22.817,56.7749975 22.817,57.279 C22.817,57.475001 22.7960002,57.6056663 22.754,57.671 C22.7119998,57.7363337 22.6326672,57.769 22.516,57.769 L17.798,57.769 C17.8073334,58.2170022 17.8679994,58.606665 17.98,58.938 C18.0920006,59.269335 18.245999,59.5458322 18.442,59.7675 C18.638001,59.9891678 18.871332,60.1548328 19.142,60.2645 C19.412668,60.3741672 19.7159983,60.429 20.052,60.429 C20.3646682,60.429 20.6341655,60.3928337 20.8605,60.3205 C21.0868345,60.2481663 21.2816658,60.1700004 21.445,60.086 C21.6083342,60.0019996 21.7448328,59.9238337 21.8545,59.8515 C21.9641672,59.7791663 22.0586663,59.743 22.138,59.743 C22.2406672,59.743 22.3199997,59.7826663 22.376,59.862 L22.726,60.317 C22.5719992,60.5036676 22.3876677,60.6658326 22.173,60.8035 C21.9583323,60.9411674 21.7285012,61.0543329 21.4835,61.143 C21.2384988,61.2316671 20.9853346,61.2981664 20.724,61.3425 C20.4626654,61.3868336 20.2036679,61.409 19.947,61.409 C19.4569976,61.409 19.0055021,61.3261675 18.5925,61.1605 C18.1794979,60.9948325 17.8225015,60.7521683 17.5215,60.4325 C17.2204985,60.1128317 16.9860008,59.7173357 16.818,59.246 C16.6499992,58.7746643 16.566,58.2333364 16.566,57.622 C16.566,57.1273309 16.6418326,56.6653355 16.7935,56.236 C16.9451674,55.8066645 17.1633319,55.4345016 17.448,55.1195 C17.7326681,54.8044984 18.0803313,54.5571676 18.491,54.3775 C18.9016687,54.1978324 19.3636641,54.108 19.877,54.108 Z M19.905,55.025 C19.302997,55.025 18.8293351,55.1988316 18.484,55.5465 C18.1386649,55.8941684 17.9240004,56.3759969 17.84,56.992 L21.697,56.992 C21.697,56.7026652 21.6573337,56.4378345 21.578,56.1975 C21.4986663,55.9571655 21.3820008,55.7495009 21.228,55.5745 C21.0739992,55.3994991 20.8861678,55.2641671 20.6645,55.1685 C20.4428322,55.0728329 20.1896681,55.025 19.905,55.025 Z M23.482,54.22 L24.462,54.22 C24.5646672,54.22 24.6486663,54.2456664 24.714,54.297 C24.7793337,54.3483336 24.8236666,54.4089996 24.847,54.479 L26.205,59.043 C26.2423335,59.2110008 26.2773332,59.3731659 26.31,59.5295 C26.3426668,59.6858341 26.3706666,59.8433325 26.394,60.002 C26.4313335,59.8433325 26.4733331,59.6858341 26.52,59.5295 C26.5666669,59.3731659 26.6156664,59.2110008 26.667,59.043 L28.165,54.451 C28.1883335,54.3809996 28.2291664,54.3226669 28.2875,54.276 C28.3458336,54.2293331 28.4193329,54.206 28.508,54.206 L29.047,54.206 C29.1403338,54.206 29.217333,54.2293331 29.278,54.276 C29.338667,54.3226669 29.3806666,54.3809996 29.404,54.451 L30.867,59.043 C30.9183336,59.2063341 30.9638331,59.3673325 31.0035,59.526 C31.0431669,59.6846675 31.0816665,59.8409992 31.119,59.995 C31.1423334,59.8409992 31.1726665,59.6800008 31.21,59.512 C31.2473335,59.3439992 31.2869998,59.1876674 31.329,59.043 L32.715,54.479 C32.7383334,54.404333 32.7826663,54.3425002 32.848,54.2935 C32.9133337,54.2444998 32.9903329,54.22 33.079,54.22 L34.017,54.22 L31.721,61.311 L30.734,61.311 C30.6126661,61.311 30.5286669,61.2316675 30.482,61.073 L28.914,56.264 C28.8766665,56.1566661 28.8463335,56.0481672 28.823,55.9385 C28.7996666,55.8288328 28.7763335,55.7203339 28.753,55.613 C28.7296666,55.7203339 28.7063335,55.8299994 28.683,55.942 C28.6596666,56.0540006 28.6293335,56.1636661 28.592,56.271 L27.003,61.073 C26.9516664,61.2316675 26.8560007,61.311 26.716,61.311 L25.778,61.311 L23.482,54.22 Z M46.281,61.311 L45.231,61.311 C45.1096661,61.311 45.011667,61.280667 44.937,61.22 C44.862333,61.159333 44.8063335,61.0823338 44.769,60.989 L43.831,58.567 L39.33,58.567 L38.392,60.989 C38.3593332,61.0730004 38.3033337,61.1476663 38.224,61.213 C38.1446663,61.2783337 38.0466672,61.311 37.93,61.311 L36.88,61.311 L40.891,51.28 L42.27,51.28 L46.281,61.311 Z M39.708,57.587 L43.453,57.587 L41.878,53.506 C41.7753328,53.2539987 41.6750005,52.9390019 41.577,52.561 C41.5256664,52.7523343 41.4755002,52.9284992 41.4265,53.0895 C41.3774998,53.2505008 41.3296669,53.3916661 41.283,53.513 L39.708,57.587 Z M48.738,51 L48.738,61.311 L47.492,61.311 L47.492,51 L48.738,51 Z M52.322,51 L52.322,61.311 L51.076,61.311 L51.076,51 L52.322,51 Z" id="View-All" fill="#666666"></path>
        </g>
    </g>
</svg>