<?xml version="1.0" encoding="UTF-8" standalone="no"?>
<svg width="64px" height="49px" viewBox="0 0 64 49" version="1.1" xmlns="http://www.w3.org/2000/svg" xmlns:xlink="http://www.w3.org/1999/xlink">
    <!-- Generator: Sketch 48.2 (47327) - http://www.bohemiancoding.com/sketch -->
    <title>ViewAllICON</title>
    <desc>Created with Sketch.</desc>
    <defs></defs>
    <g id="Home-Page-Option-2-With-Plan" stroke="none" stroke-width="1" fill="none" fill-rule="evenodd" transform="translate(-572.000000, -196.000000)">
        <g id="Group-2" transform="translate(37.000000, 186.000000)">
            <g id="ViewAllICON" transform="translate(535.000000, 10.000000)">
                <path d="M29.9999704,1.48148148e-05 C21.1821926,1.48148148e-05 13.9999704,7.14668148 13.9999704,16.0000148 C13.9999704,24.8532741 21.146637,32.0000148 29.9999704,32.0000148 C38.8533778,32.0000148 45.9999704,24.8532741 45.9999704,16.0000148 C45.9999704,7.14668148 38.8177481,1.48148148e-05 29.9999704,1.48148148e-05" id="Path" fill="#FFFFFF"></path>
                <path d="M16.7021926,16.0000148 C16.7021926,8.67557037 22.6756,2.70223704 29.9999704,2.70223704 C37.3244148,2.70223704 43.2621926,8.67557037 43.2621926,16.0000148 C43.2621926,23.3244593 37.3244148,29.2977185 29.9999704,29.2977185 C22.6756,29.2977185 16.7021926,23.3244593 16.7021926,16.0000148 Z" id="Path" fill="#EC1C2D"></path>
                <path d="M22.161732,15.9999996 C22.161732,11.6867067 25.6794125,8.16906983 29.9926618,8.16906983 C34.3059546,8.16906983 37.8026532,11.6867067 37.8026532,15.9999996 C37.8026532,20.3132924 34.3059546,23.8308857 29.9926618,23.8308857 C25.6794125,23.8308857 22.161732,20.3132924 22.161732,15.9999996 Z" id="Path-Copy" stroke="#FFFFFF" stroke-width="2" fill="#EC1C2D"></path>
                <text id="View-ALL" font-family="Lato-Regular, Lato" font-size="16" font-weight="normal" letter-spacing="-0.255999982" fill="#333333">
                    <tspan x="0" y="48">View ALL</tspan>
                </text>
            </g>
        </g>
    </g>
</svg>