<?xml version="1.0" encoding="UTF-8" standalone="no"?>
<svg width="59px" height="62px" viewBox="0 0 59 62" version="1.1" xmlns="http://www.w3.org/2000/svg" xmlns:xlink="http://www.w3.org/1999/xlink">
    <!-- Generator: Sketch 48.2 (47327) - http://www.bohemiancoding.com/sketch -->
    <title>WithPlan</title>
    <desc>Created with Sketch.</desc>
    <defs></defs>
    <g id="Home-Page-Option-1" stroke="none" stroke-width="1" fill="none" fill-rule="evenodd" transform="translate(-692.000000, -198.000000)">
        <g id="WithPlan" transform="translate(692.000000, 198.000000)">
            <path d="M29.5,0 C17.05,0 7,10.05 7,22.5 C7,34.95 17.05,45 29.5,45 C41.95,45 52,34.95 52,22.5 C52,10.05 41.95,0 29.5,0 M29.5,2.50003125 C40.5499375,2.50003125 49.4999688,11.4499688 49.4999688,22.5 C49.4999688,33.5499375 40.5499375,42.4999687 29.5,42.4999687 C18.4499688,42.4999687 9.50003125,33.5499375 9.50003125,22.5 C9.50003125,11.4499688 18.4499688,2.50003125 29.5,2.50003125" id="Fill-5" fill="#333333"></path>
            <g id="Group-7" transform="translate(9.000000, 2.000000)">
                <path d="M20.499962,1.89814814e-05 C9.20218426,1.89814814e-05 -3.79629629e-05,9.15668565 -3.79629629e-05,20.500019 C-3.79629629e-05,31.8432574 9.1566287,41.000019 20.499962,41.000019 C31.8433903,41.000019 40.999962,31.8432574 40.999962,20.500019 C40.999962,9.15668565 31.7977398,1.89814814e-05 20.499962,1.89814814e-05" id="Path" fill="#FFFFFF"></path>
                <path d="M20.499962,37.5377019 C11.1156125,37.5377019 3.46218426,29.8844634 3.46218426,20.500019 C3.46218426,11.1155745 11.1156125,3.4622412 20.499962,3.4622412 C29.8844065,3.4622412 37.4921843,11.1155745 37.4921843,20.500019 C37.4921843,29.8844634 29.8844065,37.5377019 20.499962,37.5377019" id="Path" fill="#00996B"></path>
                <path d="M27.1055176,13.120019 L16.0355176,24.190019 L13.5755176,21.730019 C12.8921843,21.0466856 11.7989458,21.0466856 11.1156125,21.730019 C10.4321843,22.4133523 10.4321843,23.5066856 11.1156125,24.190019 L16.0355176,29.1099241 L29.5656125,15.580019 C30.2488509,14.8966856 30.2488509,13.8033523 29.5656125,13.120019 C28.8822792,12.4366856 27.7888509,12.4366856 27.1055176,13.120019" id="Path" fill="#FFFFFF"></path>
            </g>
            <path d="M0.316999897,50.969 L1.4439999,50.969 C1.56533384,50.969 1.66566617,50.999333 1.7449999,51.06 C1.82433363,51.120667 1.87799976,51.1976662 1.9059999,51.291 L3.9779999,58.263 C4.01533342,58.3890006 4.04916641,58.5243326 4.0794999,58.669 C4.10983338,58.8136674 4.13899976,58.9653325 4.1669999,59.124 C4.19966673,58.9653325 4.23233307,58.8125007 4.2649999,58.6655 C4.29766673,58.5184993 4.33499969,58.3843339 4.3769999,58.263 L6.7359999,51.291 C6.76400004,51.2116663 6.81883282,51.138167 6.9004999,51.0705 C6.98216697,51.002833 7.08133265,50.969 7.1979999,50.969 L7.5899999,50.969 C7.71133384,50.969 7.81049951,50.999333 7.8874999,51.06 C7.96450028,51.120667 8.01933307,51.1976662 8.0519999,51.291 L10.3969999,58.263 C10.4810003,58.5056679 10.5556662,58.7833318 10.6209999,59.096 C10.649,58.9419992 10.6746664,58.7950007 10.6979999,58.655 C10.7213333,58.5149993 10.7516664,58.3843339 10.7889999,58.263 L12.8679999,51.291 C12.8913333,51.2069996 12.9438328,51.1323337 13.0254999,51.067 C13.107167,51.0016663 13.2063326,50.969 13.3229999,50.969 L14.3799999,50.969 L11.2509999,61 L10.0329999,61 L7.4919999,53.349 C7.44066631,53.2043326 7.39400011,53.0363343 7.3519999,52.845 C7.32866645,52.9383338 7.3065,53.0281662 7.2854999,53.1145 C7.26449979,53.2008338 7.24233335,53.2789997 7.2189999,53.349 L4.6639999,61 L3.4459999,61 L0.316999897,50.969 Z M16.6689999,53.909 L16.6689999,61 L15.4229999,61 L15.4229999,53.909 L16.6689999,53.909 Z M16.9489999,51.683 C16.9489999,51.8043339 16.9245002,51.9174995 16.8754999,52.0225 C16.8264997,52.1275005 16.761167,52.2208329 16.6794999,52.3025 C16.5978328,52.3841671 16.5033338,52.4483331 16.3959999,52.495 C16.288666,52.5416669 16.1743339,52.565 16.0529999,52.565 C15.931666,52.565 15.8185004,52.5416669 15.7134999,52.495 C15.6084994,52.4483331 15.515167,52.3841671 15.4334999,52.3025 C15.3518328,52.2208329 15.2876668,52.1275005 15.2409999,52.0225 C15.194333,51.9174995 15.1709999,51.8043339 15.1709999,51.683 C15.1709999,51.5616661 15.194333,51.4461672 15.2409999,51.3365 C15.2876668,51.2268328 15.3518328,51.1311671 15.4334999,51.0495 C15.515167,50.9678329 15.6084994,50.9036669 15.7134999,50.857 C15.8185004,50.8103331 15.931666,50.787 16.0529999,50.787 C16.1743339,50.787 16.288666,50.8103331 16.3959999,50.857 C16.5033338,50.9036669 16.5978328,50.9678329 16.6794999,51.0495 C16.761167,51.1311671 16.8264997,51.2268328 16.8754999,51.3365 C16.9245002,51.4461672 16.9489999,51.5616661 16.9489999,51.683 Z M20.7919999,61.112 C20.2319971,61.112 19.8015014,60.9556682 19.5004999,60.643 C19.1994984,60.3303318 19.0489999,59.8800029 19.0489999,59.292 L19.0489999,54.952 L18.1949999,54.952 C18.1203329,54.952 18.0573335,54.9298336 18.0059999,54.8855 C17.9546664,54.8411664 17.9289999,54.7723338 17.9289999,54.679 L17.9289999,54.182 L19.0909999,54.035 L19.3779999,51.844 C19.3873333,51.7739997 19.4176664,51.7168336 19.4689999,51.6725 C19.5203335,51.6281664 19.5856662,51.606 19.6649999,51.606 L20.2949999,51.606 L20.2949999,54.049 L22.3249999,54.049 L22.3249999,54.952 L20.2949999,54.952 L20.2949999,59.208 C20.2949999,59.5066682 20.3673326,59.7283326 20.5119999,59.873 C20.6566673,60.0176674 20.8433321,60.09 21.0719999,60.09 C21.2026673,60.09 21.3158328,60.0725002 21.4114999,60.0375 C21.5071671,60.0024998 21.5899996,59.9640002 21.6599999,59.922 C21.7300003,59.8799998 21.7894997,59.8415002 21.8384999,59.8065 C21.8875002,59.7714998 21.9306664,59.754 21.9679999,59.754 C22.0333336,59.754 22.0916664,59.7936663 22.1429999,59.873 L22.5069999,60.468 C22.2923322,60.6686677 22.0333348,60.8261661 21.7299999,60.9405 C21.4266651,61.0548339 21.1140016,61.112 20.7919999,61.112 Z M23.641,61 L23.641,50.689 L24.887,50.689 L24.887,54.861 C25.1903348,54.5389984 25.5263315,54.2811676 25.895,54.0875 C26.2636685,53.8938324 26.6883309,53.797 27.169,53.797 C27.5563352,53.797 27.8981652,53.861166 28.1945,53.9895 C28.4908348,54.117834 28.7381656,54.2998322 28.9365,54.5355 C29.1348343,54.7711678 29.2853328,55.054665 29.388,55.386 C29.4906671,55.717335 29.542,56.0836647 29.542,56.485 L29.542,61 L28.296,61 L28.296,56.485 C28.296,55.9483307 28.1735012,55.5318348 27.9285,55.2355 C27.6834987,54.9391652 27.3090025,54.791 26.805,54.791 C26.4363315,54.791 26.0921682,54.8796658 25.7725,55.057 C25.4528317,55.2343342 25.157668,55.4746651 24.887,55.778 L24.887,61 L23.641,61 Z M35.366,57.248 L35.366,61 L34.015,61 L34.015,50.969 L36.976,50.969 C37.6106699,50.969 38.1624977,51.0424993 38.6315,51.1895 C39.1005024,51.3365007 39.4889985,51.545332 39.797,51.816 C40.1050016,52.086668 40.3348326,52.4133314 40.4865,52.796 C40.6381674,53.1786686 40.714,53.6056643 40.714,54.077 C40.714,54.543669 40.6323342,54.9706647 40.469,55.358 C40.3056659,55.7453353 40.0665016,56.0789986 39.7515,56.359 C39.4364984,56.6390014 39.045669,56.8571659 38.579,57.0135 C38.112331,57.1698341 37.578003,57.248 36.976,57.248 L35.366,57.248 Z M35.366,56.17 L36.976,56.17 C37.3633353,56.17 37.7051652,56.1186672 38.0015,56.016 C38.2978348,55.9133328 38.5463323,55.7698343 38.747,55.5855 C38.9476677,55.4011657 39.0993328,55.180668 39.202,54.924 C39.3046672,54.667332 39.356,54.3850015 39.356,54.077 C39.356,53.4376635 39.1588353,52.9383351 38.7645,52.579 C38.3701647,52.2196649 37.774004,52.04 36.976,52.04 L35.366,52.04 L35.366,56.17 Z M43.395,50.689 L43.395,61 L42.149,61 L42.149,50.689 L43.395,50.689 Z M50.5770001,61 L50.0240001,61 C49.9026661,61 49.8046671,60.9813335 49.7300001,60.944 C49.655333,60.9066665 49.6063335,60.8273339 49.5830001,60.706 L49.4430001,60.048 C49.2563325,60.2160008 49.0743343,60.3664993 48.8970001,60.4995 C48.7196658,60.6325007 48.533001,60.7444995 48.3370001,60.8355 C48.1409991,60.9265005 47.9321678,60.9953331 47.7105001,61.042 C47.4888323,61.0886669 47.2426681,61.112 46.9720001,61.112 C46.6966653,61.112 46.4388346,61.0735004 46.1985001,60.9965 C45.9581655,60.9194996 45.7493343,60.8040008 45.5720001,60.65 C45.3946658,60.4959992 45.2535006,60.3011678 45.1485001,60.0655 C45.0434995,59.8298322 44.9910001,59.5510016 44.9910001,59.229 C44.9910001,58.9489986 45.0679993,58.6795013 45.2220001,58.4205 C45.3760008,58.1614987 45.6244983,57.9316677 45.9675001,57.731 C46.3105018,57.5303323 46.7596639,57.365834 47.3150001,57.2375 C47.8703362,57.109166 48.5493294,57.0356668 49.3520001,57.017 L49.3520001,56.464 C49.3520001,55.9133306 49.2341679,55.4968347 48.9985001,55.2145 C48.7628322,54.9321653 48.4140024,54.791 47.9520001,54.791 C47.6486652,54.791 47.3931678,54.8294996 47.1855001,54.9065 C46.9778324,54.9835004 46.7981675,55.0698329 46.6465001,55.1655 C46.4948326,55.2611671 46.3641673,55.3474996 46.2545001,55.4245 C46.1448328,55.5015004 46.0363339,55.54 45.9290001,55.54 C45.8449996,55.54 45.7715004,55.5178336 45.7085001,55.4735 C45.6454997,55.4291664 45.5953336,55.3743337 45.5580001,55.309 L45.3340001,54.91 C45.726002,54.5319981 46.1483311,54.2496676 46.6010001,54.063 C47.053669,53.8763324 47.5553306,53.783 48.1060001,53.783 C48.5026687,53.783 48.8549985,53.8483327 49.1630001,53.979 C49.4710016,54.1096673 49.729999,54.2916655 49.9400001,54.525 C50.1500011,54.7583345 50.3086662,55.040665 50.4160001,55.372 C50.5233339,55.703335 50.5770001,56.0673314 50.5770001,56.464 L50.5770001,61 Z M47.3430001,60.237 C47.5623345,60.237 47.7629991,60.2148336 47.9450001,60.1705 C48.127001,60.1261664 48.2984993,60.0631671 48.4595001,59.9815 C48.6205009,59.8998329 48.7744993,59.8006673 48.9215001,59.684 C49.0685008,59.5673327 49.2119994,59.4343341 49.3520001,59.285 L49.3520001,57.808 C48.7779972,57.8266668 48.2903354,57.8721663 47.8890001,57.9445 C47.4876647,58.0168337 47.1610013,58.1113328 46.9090001,58.228 C46.6569988,58.3446673 46.473834,58.4823325 46.3595001,58.641 C46.2451662,58.7996675 46.1880001,58.976999 46.1880001,59.173 C46.1880001,59.3596676 46.2183331,59.520666 46.2790001,59.656 C46.339667,59.791334 46.4213329,59.9021662 46.5240001,59.9885 C46.6266672,60.0748338 46.7479994,60.1378331 46.8880001,60.1775 C47.0280008,60.2171669 47.1796659,60.237 47.3430001,60.237 Z M52.2430001,61 L52.2430001,53.909 L52.9850001,53.909 C53.1623343,53.909 53.2743332,53.9953325 53.3210001,54.168 L53.4190001,54.938 C53.7270016,54.5973316 54.0711648,54.322001 54.4515001,54.112 C54.8318353,53.9019989 55.2716643,53.797 55.7710001,53.797 C56.1583354,53.797 56.5001653,53.861166 56.7965001,53.9895 C57.0928349,54.117834 57.3401658,54.2998322 57.5385001,54.5355 C57.7368344,54.7711678 57.8873329,55.054665 57.9900001,55.386 C58.0926673,55.717335 58.1440001,56.0836647 58.1440001,56.485 L58.1440001,61 L56.8980001,61 L56.8980001,56.485 C56.8980001,55.9483307 56.7755013,55.5318348 56.5305001,55.2355 C56.2854989,54.9391652 55.9110026,54.791 55.4070001,54.791 C55.0383316,54.791 54.6941683,54.8796658 54.3745001,55.057 C54.0548318,55.2343342 53.7596681,55.4746651 53.4890001,55.778 L53.4890001,61 L52.2430001,61 Z" id="With-Plan" fill="#666666"></path>
        </g>
    </g>
</svg>