<?xml version="1.0" encoding="UTF-8" standalone="no"?>
<svg width="809px" height="90px" viewBox="0 0 809 101" version="1.1" xmlns="http://www.w3.org/2000/svg" xmlns:xlink="http://www.w3.org/1999/xlink">
    <!-- Generator: Sketch 48.2 (47327) - http://www.bohemiancoding.com/sketch -->
    <title>Yes</title>
    <desc>Created with Sketch.</desc>
    <defs>
        <linearGradient x1="50%" y1="0%" x2="50%" y2="100%" id="linearGradient-1">
            <stop stop-color="#2BA269" offset="0%"></stop>
            <stop stop-color="#145737" offset="100%"></stop>
        </linearGradient>
    </defs>
    <g id="Page1-Copy" stroke="none" stroke-width="1" fill="none" fill-rule="evenodd" transform="translate(-108.000000, -418.000000)">
        <g id="Yes" transform="translate(108.000000, 418.000000)">
           
            <text id="Let's-do-this!-YES" font-family="Lato-Regular, Lato" font-size="28" font-weight="normal" line-spacing="33">
                <tspan x="110" y="64" fill="#333333">Let's do this! </tspan>
                <tspan x="269.964" y="64" fill="#2BA269">YES</tspan>
                <tspan x="318.684" y="64" fill="#333333"> </tspan>
            </text>
            <text id="NO,-Maybe-not-now" opacity="0.4" font-family="Lato-Regular, Lato" font-size="28" font-weight="normal" line-spacing="33" fill="#333333">
                <tspan x="458" y="64">NO, Maybe not now</tspan>
            </text>
            <g id="Group-2" transform="translate(341.000000, 25.000000)" stroke="#979797">
                <path d="M27,0 L72,0 C86.9116882,-2.73923269e-15 99,12.0883118 99,27 L99,27 C99,41.9116882 86.9116882,54 72,54 L27,54 C12.0883118,54 -5.27927223e-15,41.9116882 -7.10542736e-15,27 L-7.10542736e-15,27 C-8.93158249e-15,12.0883118 12.0883118,2.73923269e-15 27,0 Z" id="Rectangle-3" fill="#FFFFFF"></path>
                <circle id="Oval-2-Copy-4" fill="url(#linearGradient-1)" cx="29.5" cy="27.5" r="22.5"></circle>
            </g>
        </g>
    </g>
</svg>